<?xml version="1.0" encoding="UTF-8" standalone="no"?><!DOCTYPE svg PUBLIC "-//W3C//DTD SVG 1.1//EN" "http://www.w3.org/Graphics/SVG/1.1/DTD/svg11.dtd"><svg width="100%" height="100%" viewBox="0 0 397 264" version="1.1" xmlns="http://www.w3.org/2000/svg" xmlns:xlink="http://www.w3.org/1999/xlink" xml:space="preserve" xmlns:serif="http://www.serif.com/" style="fill-rule:evenodd;clip-rule:evenodd;stroke-linejoin:round;stroke-miterlimit:2;"><rect id="Artboard3" x="0" y="0" width="397" height="264" style="fill:none;"/><path d="M311.847,54.712l-0.104,5.136c-0.036,1.772 -0.076,3.544 -0.116,5.316c-0.346,15.39 -0.615,30.757 -0.146,46.147l0.037,1.775l0.054,2.022c-0.085,2.241 -0.488,4.151 -1.061,6.318l-0.611,2.343l-0.646,2.415l-0.646,2.464c-2.655,10.111 -10.014,13.754 -20.177,14.068l-2.206,0.088c-16.418,0.549 -32.872,-0.331 -49.279,-0.945c-9.284,-0.347 -18.566,-0.643 -27.854,-0.858c-18.922,-0.466 -33.88,-3.072 -34.813,-24.406l-0.138,-2.269c-0.145,-2.554 -0.248,-5.107 -0.347,-7.663l-0.148,-3.088c-0.405,-10.243 0.012,-20.415 0.506,-30.65c0.14,-2.916 0.273,-5.833 0.404,-8.749c1.474,-32.152 2.649,-47.382 38.707,-47.981l3.455,-0.061c10.957,-0.172 21.872,-0.004 32.817,0.527l2.128,0.102c4.906,0.238 9.81,0.5 14.714,0.783c1.648,0.094 3.296,0.184 4.944,0.27c27.292,1.442 41.284,7.332 40.526,36.897Zm-91.009,53.695c-5.557,-7.959 -5.41,-8.427 -11.452,-0.389l-1.962,2.626c-4.436,5.842 -8.409,11.531 -11.451,18.226c5.444,1.373 37.579,6.438 39.045,0.725c-1.599,-1.814 -2.995,-3.679 -4.248,-5.748c-2.643,-4.56 -5.411,-8.958 -8.42,-13.286l-1.512,-2.154Zm56.353,-12.839c-8.229,-18.313 -8.229,-18.313 -19.213,11.417c-0.418,1.133 -0.838,2.265 -1.258,3.396c-8.024,21.558 -7.869,21.823 15.24,22.351l3.467,0.066c21.486,0.498 21.486,0.498 9.462,-21.967l-0.87,-1.625l-0.888,-1.661c-2.112,-3.94 -4.099,-7.904 -5.939,-11.978Zm24.016,-36.789c1.213,-18.982 0.182,-28.875 -21.056,-30.2l-1.995,-0.112l-4.345,-0.264c-2.188,-0.128 -4.375,-0.259 -6.561,-0.4c-16.065,-1.06 -32.109,-2.032 -48.216,-1.753l-1.92,0.037c-16.657,0.282 -30.365,-1.357 -31.522,18.048l-0.092,1.954c-0.122,2.202 -0.24,4.405 -0.347,6.608l-0.111,2.328c-0.642,12.799 -8.064,62.721 2.71,69.671c5.152,-7.844 10.298,-15.701 15.738,-23.349l1.196,-1.665c17.369,-9.694 17.369,-9.694 29.517,11.959l1.195,2.106l1.155,2.001c1.52,2.675 3.145,4.438 5.544,6.37c2.53,-6.707 18.953,-55.95 25.014,-54.53l2.133,0.519c3.629,0.869 5.07,1.506 6.987,4.849l1.53,2.949c1.671,3.219 3.281,6.45 4.804,9.741c3.409,7.527 18.159,40.577 18.593,25.365c-0.286,-7.472 -0.122,-14.894 0.112,-22.366c0.199,-6.077 0.457,-12.107 -0.052,-18.173c-0.338,-3.943 -0.248,-7.749 -0.011,-11.696Z"/><path d="M340.045,135.696c1.678,1.007 3.357,2.013 5.037,3.018c0.797,0.479 1.594,0.958 2.415,1.452c2.559,1.52 5.146,2.945 7.774,4.339c4.691,2.504 9.334,5.088 13.959,7.71c1.078,0.602 1.078,0.602 2.177,1.216c0.67,0.382 1.339,0.764 2.029,1.157c0.602,0.34 1.203,0.68 1.823,1.03c11.075,7.782 -8.676,12.823 -12.185,14.051c0.848,4.09 0.848,4.09 2.71,7.422c0.359,0.549 0.718,1.099 1.088,1.665c0.386,0.573 0.771,1.146 1.169,1.737c0.393,0.594 0.787,1.189 1.192,1.801c3.586,5.365 7.407,10.529 11.374,15.617c-1.805,7.036 -12.426,17.418 -18.091,8.411c-1.604,-2.548 -3.212,-5.095 -4.819,-7.642c-0.545,-0.867 -1.091,-1.734 -1.653,-2.628c-6.057,-10.515 -6.057,-10.515 -12,-14.874c-19.522,31.763 -23.682,-31.766 -25.375,-47.677c4.592,-9.543 14.869,-1.805 21.376,2.193Z" style="fill-rule:nonzero;"/><path d="M224.268,70.637c-13.117,9.932 -25.088,-5.753 -21.034,-18.365c14.994,-15.012 37.435,3.881 21.034,18.365Zm-3.768,-6.935c1.001,-3.595 -1.322,-11.368 -7.443,-7.789l-0.833,0.558c-0.887,0.59 -1.409,0.738 -1.686,1.724l-0.26,0.959c-1.686,6.118 5.43,7.562 10.222,4.549Z"/><path d="M106.247,245.224c-6.003,1.761 -11.935,1.516 -18.13,1.327c-1.81,-0.054 -3.62,-0.093 -5.43,-0.129c-1.167,-0.03 -2.334,-0.061 -3.501,-0.093c-1.045,-0.028 -2.091,-0.057 -3.168,-0.086c-7.501,-0.627 -11.743,-1.54 -7.797,-9.74c6.445,-1.847 12.8,-1.537 19.457,-1.397c1.148,0.013 2.296,0.026 3.478,0.039c19.772,0.349 19.772,0.349 15.09,10.079Z" style="fill-rule:nonzero;"/><path d="M43.927,45.474c-1.888,0.096 -1.888,0.096 -4.002,0.006c-7.718,-0.2 -9.663,1.005 -12.148,8.369c-0.353,1.041 -0.707,2.081 -1.071,3.153c-0.268,0.802 -0.536,1.603 -0.813,2.429c-12.505,7.399 -7.205,-12.158 -6.208,-16.046c10.844,-12.326 36.122,-4.941 24.241,2.089Z" style="fill-rule:nonzero;"/><path d="M168.813,246.821c-5.768,1.552 -11.204,1.59 -17.154,1.471c-0.919,-0.003 -1.837,-0.007 -2.784,-0.01c-21.531,-0.361 -21.531,-0.361 -16.871,-10.903c1.01,0.009 2.021,0.018 3.062,0.027c1.405,0.011 2.809,0.022 4.214,0.032c0.738,0.007 1.476,0.013 2.236,0.02c3.793,0.028 7.578,0.02 11.37,-0.083c0.692,-0.016 1.384,-0.033 2.097,-0.05c1.316,-0.034 2.632,-0.077 3.948,-0.131c7.513,-0.179 11.937,1.611 9.881,9.625Z" style="fill-rule:nonzero;"/><path d="M269.067,180.98c0.026,0.796 0.051,1.591 0.078,2.411c0.305,14.915 0.305,14.915 -9.794,12.324c-1.491,-5.243 -1.474,-10.086 -1.354,-15.519c0.011,-2.389 -0.039,-4.691 -0.195,-7.067c-0.059,-0.906 -0.059,-0.906 -0.119,-1.831c-0.12,-1.704 -0.253,-3.407 -0.387,-5.11c0.519,-21.43 11.514,4.801 11.772,14.791Z" style="fill-rule:nonzero;"/><path d="M24.061,223.621c0.273,0.731 0.546,1.463 0.827,2.216c0.268,0.728 0.537,1.455 0.814,2.205c2.8,6.298 14.2,6.145 20.217,6.868c8.515,14.391 -16.243,8.474 -22.355,6.654c-11.337,-10.621 -1.902,-24.541 0.498,-17.943Z" style="fill-rule:nonzero;"/><path d="M267.228,233.676c-0.251,0.943 -0.502,1.886 -0.761,2.857c-1.983,7.254 -16.603,16.744 -21.726,8.086c1.242,-4.843 1.242,-4.843 3,-5.675c0.754,-0.363 1.509,-0.725 2.286,-1.099c0.751,-0.358 1.501,-0.717 2.275,-1.086c6.073,-3.284 6.179,-13.208 6.674,-19.46c11.778,-6.969 9.999,9.891 8.252,16.377Z" style="fill-rule:nonzero;"/><path d="M100.432,46.548c-0.544,-0.025 -1.089,-0.051 -1.65,-0.077c-2.511,-0.116 -5.023,-0.23 -7.534,-0.343c-0.856,-0.04 -1.712,-0.08 -2.594,-0.121c-4.701,-0.211 -9.381,-0.345 -14.087,-0.287c-5.042,-0.196 -15.148,-5.301 -5.828,-9.78c2.938,-1.072 5.13,-1.205 8.25,-1.193c1.066,0.004 2.133,0.008 3.231,0.012c1.659,0.021 1.659,0.021 3.352,0.043c1.094,-0.001 2.188,-0.002 3.316,-0.002c6.31,0.053 29.069,2.562 13.545,11.748Z" style="fill-rule:nonzero;"/><path d="M228.472,247.672c-6.003,1.671 -11.685,1.502 -17.88,1.285c-0.997,-0.024 -1.995,-0.047 -3.022,-0.072c-16.445,-0.504 -16.445,-0.504 -14.217,-9.19c6.488,-1.713 12.542,-2.149 19.234,-2.035c1.343,0.003 1.343,0.003 2.712,0.006c15.696,0.169 15.696,0.169 13.173,10.005Z" style="fill-rule:nonzero;"/><path d="M159.595,49.337c-3.658,-0.196 -7.315,-0.399 -10.972,-0.609c-1.242,-0.07 -2.484,-0.139 -3.726,-0.205c-1.794,-0.096 -3.587,-0.199 -5.381,-0.304c-1.615,-0.09 -1.615,-0.09 -3.263,-0.182c-11.682,-1.203 -11.682,-1.203 -7.878,-9.806c6.744,-0.44 50.383,-0.233 31.22,11.106Z" style="fill-rule:nonzero;"/><path d="M22.877,155.701c-6.912,4.09 -9.601,-0.772 -9.577,-7.078c0.002,-0.688 0.004,-1.376 0.006,-2.085c0.01,-0.722 0.02,-1.444 0.03,-2.188c0.007,-0.736 0.014,-1.472 0.021,-2.231c0.473,-29.99 16.399,-7.121 9.52,13.583Z" style="fill-rule:nonzero;"/><path d="M24.84,189.047c0.004,0.696 0.009,1.393 0.013,2.11c-0.127,15.604 -0.127,15.604 -9.309,13.249c-1.584,-4.517 -1.96,-8.49 -1.965,-13.215c-0.005,-0.684 -0.009,-1.368 -0.014,-2.073c0.09,-17.341 11.516,-17.406 11.275,-0.072Z" style="fill-rule:nonzero;"/><path d="M26.136,91.432c-0.027,0.818 -0.053,1.635 -0.081,2.477c-0.636,16.003 -0.636,16.003 -9.904,11.544c-1.188,-4.721 -1.58,-8.847 -1.326,-13.696c0.019,-0.596 0.038,-1.192 0.058,-1.806c0.754,-16.825 12.034,-14.935 11.252,1.481Z" style="fill-rule:nonzero;"/></svg>