<?xml version="1.0" encoding="UTF-8" standalone="no"?><!DOCTYPE svg PUBLIC "-//W3C//DTD SVG 1.1//EN" "http://www.w3.org/Graphics/SVG/1.1/DTD/svg11.dtd"><svg width="100%" height="100%" viewBox="0 0 1184 432" version="1.1" xmlns="http://www.w3.org/2000/svg" xmlns:xlink="http://www.w3.org/1999/xlink" xml:space="preserve" xmlns:serif="http://www.serif.com/" style="fill-rule:evenodd;clip-rule:evenodd;stroke-linejoin:round;stroke-miterlimit:2;"><rect id="Artboard1" x="0" y="0" width="1184" height="432" style="fill:none;"/><g id="Artboard11" serif:id="Artboard1"><path d="M773.298,407.866c9.559,0.003 19.118,0 28.677,-0.001c17.054,-0.002 34.109,0.001 51.163,0.006c15.348,0.004 30.697,0.004 46.045,-0.001c17.986,-0.005 35.972,-0.007 53.958,-0.004c9.462,0.002 18.923,0.002 28.384,-0.002c38.504,-0.012 76.985,0.015 115.475,1.136c2.17,0.061 2.17,0.061 4.383,0.124c24.346,0.689 24.346,0.689 22.617,5.876c-3.248,0.31 -3.248,0.31 -7.551,0.218c-2.325,-0.041 -2.325,-0.041 -4.698,-0.082c-1.568,-0.045 -3.136,-0.09 -4.751,-0.136c-1.342,-0.034 -2.684,-0.068 -4.066,-0.103c-4.039,-0.114 -8.077,-0.25 -12.115,-0.387c-18.975,-0.588 -37.937,-0.666 -56.92,-0.671c-3.677,-0.005 -7.355,-0.01 -11.032,-0.015c-9.906,-0.013 -19.813,-0.02 -29.719,-0.024c-6.256,-0.003 -12.512,-0.007 -18.768,-0.012c-17.508,-0.012 -35.016,-0.022 -52.524,-0.026c-1.115,-0 -2.23,-0 -3.379,-0.001c-1.676,-0 -1.676,-0 -3.385,-0.001c-2.262,-0 -4.524,-0.001 -6.786,-0.001c-1.683,-0 -1.683,-0 -3.4,-0.001c-16.841,-0.004 -33.682,-0.018 -50.522,-0.04c-91.39,-0.117 -182.731,-0.204 -274.085,2.75c-18.665,0.598 -37.33,0.966 -56.002,1.226c-1.419,0.02 -2.838,0.04 -4.299,0.061c-8.323,0.115 -16.647,0.219 -24.97,0.318c-4.454,0.054 -8.907,0.11 -13.361,0.167c-48.263,0.619 -96.526,1.05 -144.792,1.384c-2.246,0.016 -2.246,0.016 -4.536,0.032c-57.978,0.402 -115.949,0.475 -173.927,0.026c-5.159,-0.04 -10.317,-0.074 -15.476,-0.104c-27.716,-0.164 -55.405,-0.516 -83.104,-1.555c-1.157,-0.042 -2.314,-0.085 -3.506,-0.129c-3.224,-0.121 -6.447,-0.249 -9.67,-0.381c-1.824,-0.075 -3.647,-0.149 -5.526,-0.226c-6.341,-0.441 -6.341,-0.441 -5.129,-5.287c2.69,-0.407 2.69,-0.407 6.227,-0.279c1.278,0.036 2.556,0.072 3.872,0.11c1.287,0.056 2.574,0.112 3.901,0.169c1.083,0.033 2.166,0.066 3.281,0.1c3.361,0.105 6.722,0.235 10.082,0.365c21.934,0.765 43.879,0.909 65.824,1.098c1.747,0.016 1.747,0.016 3.528,0.031c103.535,0.919 207.09,0.822 310.621,-0.545c3.843,-0.051 7.687,-0.101 11.53,-0.151c87.679,-1.102 87.679,-1.102 175.335,-3.31c47.704,-1.509 95.371,-1.738 143.096,-1.722Z" style="fill-rule:nonzero;"/><path d="M764,383c2.018,-0.61 4.015,-1.289 6,-2c5,1 5,1 5,5c6.256,-0.687 11.157,-1.663 17,-4c4,1 4,1 4,3c3.107,-0.743 6.214,-1.489 9.316,-2.254c18.957,-3.84 18.957,-3.84 16.684,5.254c-3,0 -3,0 -3,-3c-4.438,0.556 -4.438,0.556 -9.688,1.812c-14.939,3.309 -14.939,3.309 -16.312,-0.812c-2.369,0.911 -4.7,1.926 -7,3c-12.407,2.481 -12.407,2.481 -15,-4c-2.967,1.233 -2.967,1.233 -6,3c-4,-1 -4,-1 -4,-4c-1.98,0.99 -1.98,0.99 -4,2c0,-5.606 7,-11.839 7,-3Z" style="fill-rule:nonzero;"/><path d="M573,384c0.99,-0.66 1.98,-1.32 3,-2c4,1 4,1 4,4c3.019,-0.94 6.015,-1.957 9,-3c21.559,-4.819 21.559,-4.819 27,4c7.144,0.351 13.714,-2.45 20.352,-4.844c10.648,-3.375 10.648,-3.375 10.648,1.844c3.241,-0.442 3.241,-0.442 7.062,-1.75c14.487,-4.501 14.487,-4.501 15.938,2.75c2.681,-0.961 5.344,-1.973 8,-3c10.985,-1.015 10.985,-1.015 14,2c3.102,-0.017 3.102,-0.017 6.562,-0.438c6.34,-0.66 6.34,-0.66 7.438,0.438c6.726,0.342 13.053,-0.493 19.668,-1.562c9.332,-1.225 9.332,-1.225 9.332,4.562c3.446,-1.082 3.446,-1.082 7,-3c7.233,-2.411 3.943,2.932 1.312,6.188c-0.726,0.922 -1.451,1.843 -2.199,2.793c-2.948,2.817 -5.693,2.758 -4.113,-1.98c-1.65,0.33 -3.3,0.66 -5,1c-2,-1 -2,-1 -2,-5c-3.852,0.092 -7.442,0.388 -11.25,0.875c-11.246,1.377 -11.246,1.377 -15.75,-0.875c-2.009,0.274 -4.009,0.617 -6,1c-8,0.343 -8,0.343 -8,-2c-4.911,0.317 -9.557,1.117 -14.375,2.125c-6.909,1.307 -6.909,1.307 -9.625,-4.125c-3.464,0.419 -3.464,0.419 -7.312,1.75c-12.298,3.806 -12.298,3.806 -13.688,-1.75c-3.668,0.855 -3.668,0.855 -7.812,2.688c-25.188,10.243 -25.188,10.243 -25.188,-1.688c-8.529,0.088 -17.246,1.288 -25.438,3.688c-7.622,2.193 -7.622,2.193 -9.562,-1.688c-0.99,0.66 -1.98,1.32 -3,2c-4,0 -4,0 -6,-4c-1.699,2.31 -3.364,4.645 -5,7c-5.453,-1.818 3.762,-18.857 11,-8Z" style="fill-rule:nonzero;"/><path d="M343.875,367.875c-1.206,4.309 -3.214,7.769 -4.875,1.125c1.471,-2.941 5.155,-7.571 4.875,-1.125Z" style="fill-rule:nonzero;"/><path d="M432,363c-1,2 -1,2 -5,1c1.16,-4.638 3.242,-6.274 5,-1Z" style="fill-rule:nonzero;"/><path d="M385,365c-4,0 -4,0 -4,-5c3.617,-3.617 4,3.214 4,5Z" style="fill-rule:nonzero;"/><path d="M546,356c-1.745,5.236 -7.328,5.336 -12,3c1.822,-5.465 7.081,-3.343 12,-3Z" style="fill-rule:nonzero;"/><path d="M773,366c-11.329,3.502 -14.169,-6.768 -9,-15c12.485,-6.242 13.459,7.568 9,15Zm-7,-4c6.635,1.659 6,-0.467 6,-7c-6.635,-1.659 -6,0.467 -6,7Z" style="fill-rule:nonzero;"/><path d="M759.938,360.875c-0.073,1.606 -0.147,3.212 -0.223,4.867c-1.413,8.417 -6.101,9.154 -13.715,8.258c0,-6.127 2.65,-4.415 8,-5c0.485,-3.808 0.485,-3.808 -4,-2c-15.34,-11.505 11.182,-28.038 9.938,-6.125Zm-9.938,1.125c6.238,0 6,-2.11 6,-8c-7.037,0 -7.349,1.256 -6,8Z" style="fill-rule:nonzero;"/><path d="M743,361c0.33,1.65 0.66,3.3 1,5l-4,0c-0.99,0.206 -1.98,0.413 -3,0.625c-21.069,2.634 6.41,-36.355 6,-5.625Zm-10,1c7.863,1.573 6.329,-0.986 6,-8c-6.133,-3.067 -6,4.136 -6,8Z" style="fill-rule:nonzero;"/><path d="M713,355c-3.312,-0.438 -3.312,-0.438 -6,-1c2.294,1.72 4.614,3.409 7,5c0,8.454 -6.928,11.072 -13,5c1.67,-3.341 4.606,-2 8,-2c-0.99,-0.66 -1.98,-1.32 -3,-2c-13.357,-10.017 9.608,-15.434 7,-5Z" style="fill-rule:nonzero;"/><path d="M698,357c-2.667,1.333 -5.333,2.667 -8,4c4.849,1.341 4.849,1.341 9,0c0,9.96 -12.609,6.471 -14.875,-0.812c-0.478,-12.178 16.596,-14.07 13.875,-3.188Zm-10,0c4.478,-0.565 4.478,-0.565 6,-4c-2.707,-0.236 -2.707,-0.236 -6,4Z" style="fill-rule:nonzero;"/><path d="M658.438,355.438c-0.272,6.02 -0.272,6.02 4.562,6.562c0.262,-3.107 0.503,-6.222 0.531,-9.34c0.946,-5.368 4.358,-3.213 5.211,1.059c0.292,10.526 -1.435,19.486 -13.742,11.281c-2.389,-7.167 2.321,-23.442 3.438,-9.562Z" style="fill-rule:nonzero;"/><path d="M635.531,353.5c-0.015,2.228 -0.015,2.228 -0.031,4.5c0.01,1.485 0.021,2.97 0.031,4.5c-0.803,5.292 -4.259,5.292 -5.062,0c0.01,-1.485 0.021,-2.97 0.031,-4.5c-0.01,-1.485 -0.021,-2.97 -0.031,-4.5c0.803,-5.292 4.259,-5.292 5.062,0Z" style="fill-rule:nonzero;"/><path d="M611,351c0.33,-0.33 0.66,-0.66 1,-1c2.141,-0.178 4.29,-0.268 6.438,-0.312c1.762,-0.056 1.762,-0.056 3.559,-0.113c7.022,0.995 5.884,10.902 6.004,16.426c-5.776,0 -4.902,-0.968 -5.438,-6.625c0.13,-4.706 0.13,-4.706 -2.562,-4.375c-0.326,3.127 -0.381,6.233 -0.461,9.375c-1.42,6.916 -4.681,1.376 -5.164,-2.875c-0.186,-2.723 -0.186,-2.723 -0.375,-5.5c-2.786,-0.328 -2.786,-0.328 -2.938,5c-1.588,7.474 -1.588,7.474 -5.062,4c-0.099,-2.498 -0.13,-5 -0.125,-7.5c-0.003,-1.372 -0.005,-2.743 -0.008,-4.156c0.205,-5.161 0.275,-4.773 5.133,-2.344Z" style="fill-rule:nonzero;"/><path d="M431,351c0,4 0,4 -4,3c1,-4 1,-4 4,-3Z" style="fill-rule:nonzero;"/><path d="M385,351c-1,4 -1,4 -4,4c0,-5 0,-5 4,-4Z" style="fill-rule:nonzero;"/><path d="M642,351c0.66,-0.33 1.32,-0.66 2,-1c8.58,0 8.297,2.593 8.375,10.25c0.028,1.284 0.057,2.568 0.086,3.891c-0.461,2.859 -0.461,2.859 -4.461,1.859c-0.25,-2.793 -0.25,-2.793 0,-6.188c0.866,-6.991 0.866,-6.991 -4,-3.812c-0.33,1.877 -0.66,3.754 -1,5.688c-1.231,6.537 -4.64,7.321 -5.426,0.75c0.037,-1.464 0.075,-2.929 0.113,-4.438c0.024,-1.464 0.049,-2.929 0.074,-4.438c0.209,-3.127 4.238,-8.007 4.238,-2.562Z" style="fill-rule:nonzero;"/><path d="M63,346c0,4.208 -5.971,2.168 -9,2c0,-4.208 5.971,-2.168 9,-2Z" style="fill-rule:nonzero;"/><path d="M52,346c0,2 0,2 -5,1c0,-1 0,-1 5,-1Z" style="fill-rule:nonzero;"/><path d="M519,354c0.557,2.351 0.557,2.351 1.125,4.75c1.96,9.521 1.96,9.521 -3.125,8.25c-0.495,-1.526 -0.99,-3.053 -1.5,-4.625c-3.148,-7.084 -3.992,2.061 -5.5,5.625c-4,-2 -4,-2 -5.125,-6.688c-0.923,-4.52 -0.923,-4.52 -1.75,0.625c-0.675,3.04 -4.553,10.694 -5.484,3.152c0.379,-4.31 1.105,-8.319 2.109,-12.527c0.325,-1.422 0.65,-2.844 0.984,-4.309c3.151,-8.1 6.01,-1.215 6.766,3.496c3.061,10.712 3.355,1.045 4.633,-3.605c2.768,-10.039 6.072,1.617 6.867,5.855Z" style="fill-rule:nonzero;"/><path d="M450,357c0.33,1.65 0.66,3.3 1,5c-4.246,7.076 -10.191,9.079 -15,1c1,-2 1,-2 5,0c9.249,-1.85 4.726,-5.173 -1,-7c1,-3 1,-3 5,-4c1.731,-3.703 1.731,-3.703 -2.938,-2.438c-6.626,0.714 7.938,-13.039 7.938,7.438Z" style="fill-rule:nonzero;"/><path d="M678,350c0.99,-0.33 1.98,-0.66 3,-1c5.017,2.509 0.699,5 -3,5c0.214,3.676 0.553,7.345 1,11c-3.878,7.756 -4.92,-3.998 -4.812,-6.688c0.481,-4.825 0.481,-4.825 -4.188,-5.312c1,-4 1,-4 4,-3l0,-5c4.079,-4.079 4,2.987 4,5Z" style="fill-rule:nonzero;"/><path d="M496,355c-3.473,3.87 -4.631,4 -10,4c-0.083,2.665 -0.083,5.335 0,8c-6.366,0 -3.887,-7.911 -3.625,-12.625c0.09,-1.725 0.18,-3.45 0.273,-5.227c0.962,-11.357 14.988,-4.332 13.352,5.852Zm-9,0c5.817,-0.314 5.817,-0.314 5,-6c-6.813,-1.363 -6.062,0.053 -5,6Z" style="fill-rule:nonzero;"/><path d="M464,368c-13.301,0 -15.367,-14.367 -7,-23c14.482,-7.241 13.924,16.076 7,23Zm-6,-5c9.536,2.384 8.805,-9.292 5,-15c-8.367,0 -7.925,9.011 -5,15Z" style="fill-rule:nonzero;"/><path d="M420.727,354.02c0.118,3.277 0.118,3.277 2.273,6.98l-3,0l0,6c-4,0 -4,0 -4,-6c-3.332,-0.082 -6.668,-0.084 -10,0c0.991,-3.964 2.239,-6.234 4.438,-9.625c0.617,-0.962 1.235,-1.923 1.871,-2.914c5.865,-8.534 8.174,-2.16 8.418,5.559Zm-8.727,3.98c5,0.667 5,0.667 4,-6c-3.186,0 -4,3.446 -4,6Z" style="fill-rule:nonzero;"/><path d="M400,357.812c-1.32,1.052 -2.64,2.104 -4,3.188c-0.333,2.575 -0.333,2.575 3.375,1.875c3.625,0.125 3.625,0.125 5.625,4.125c-2.613,0.645 -2.613,0.645 -6.312,0.812c-1.82,0.102 -1.82,0.102 -3.676,0.207c-10.613,-0.069 -0.633,-11.96 2.988,-15.02l2,0c-0.58,-5.126 -0.58,-5.126 -6,-2c-13.074,0 27.092,-13.291 6,6.812Z" style="fill-rule:nonzero;"/><path d="M371.062,357.812c-1.341,1.052 -2.681,2.104 -4.062,3.188c-1.615,2.492 -1.615,2.492 2.25,1.938c6.75,0.113 6.75,0.113 6.75,4.062c-2.139,0.268 -4.288,0.463 -6.438,0.625c-1.195,0.095 -2.39,0.191 -3.621,0.289c-11.034,0.322 0.142,-12.303 4.059,-14.914c0.619,-5.145 0.619,-5.145 -5,-2c-12.987,0 26.913,-13.377 6.062,6.812Z" style="fill-rule:nonzero;"/><path d="M328,350c-0.66,0.66 -1.32,1.32 -2,2c1.609,0.433 1.609,0.433 3.25,0.875c9.344,2.803 6.697,14.584 -2.25,15.562c-24.28,-2.656 10.366,-34.048 1,-18.438Zm-2,15c4.713,-1.178 6.413,-3.175 4,-8c-6.809,0 -9.418,2.582 -4,8Z" style="fill-rule:nonzero;"/><path d="M316,355c-1.526,1.258 -3.053,2.516 -4.625,3.812c-6.043,5.708 0.307,4.39 5.625,5.188c0,6.088 -9.696,5.152 -14,3c0,-7.183 1.265,-8.933 6.812,-13.125c4.836,-4.145 1.045,-4.818 -3.812,-2.875c-8.571,0 16.151,-15.425 10,4Z" style="fill-rule:nonzero;"/><path d="M298,366c-10.718,10.718 -15.331,-9.148 -12.812,-16.438c11.143,-15.754 19.535,5.234 12.812,16.438Zm-7,-2c8.057,-1.611 8.576,-10.424 3,-16c-8.155,0 -7.309,11.691 -3,16Z" style="fill-rule:nonzero;"/><path d="M278,357.812c-1.32,1.052 -2.64,2.104 -4,3.188c-0.332,2.638 -0.332,2.638 4,2.375c4,0.625 4,0.625 4,4.625c-15.029,0.791 -17.428,-4.708 -5,-15c0.619,-5.145 0.619,-5.145 -5,-2c-13.074,0 27.092,-13.291 6,6.812Z" style="fill-rule:nonzero;"/><path d="M247,366c-9,5.4 -9,5.4 -9,-1c2.938,-1.688 2.938,-1.688 6,-3c1.64,-1.332 1.64,-1.332 -2.312,-2.375c-24.699,-10.884 31.695,-23.672 5.312,6.375Zm-6,-11c6.84,1.368 7.368,0.84 6,-6c-6.84,-1.368 -7.368,-0.84 -6,6Z" style="fill-rule:nonzero;"/><path d="M215.062,354.562c-1.086,6.204 -1.086,6.204 1.938,9.438c0,6.907 -6.911,5.634 -10,1c0.99,-0.66 1.98,-1.32 3,-2c2.466,-8.45 2.466,-8.45 -3,-13c5.494,-10.988 8.314,-3.757 8.062,4.562Z" style="fill-rule:nonzero;"/><path d="M636,346c-5,1 -5,1 -4,-3c3,0 3,0 4,3Z" style="fill-rule:nonzero;"/><path d="M589,365c-14.316,9.544 -14.733,-13.112 -10,-21c14.51,-4.837 15.647,11.589 10,21Zm-7,-2c6.964,-1.741 9.246,-10.754 4,-16c-9.509,0 -7.71,9.86 -4,16Z" style="fill-rule:nonzero;"/><path d="M568.812,357.746c-0.463,4.556 -0.463,4.556 3.188,5.254c-1.705,5.116 -9.295,5.116 -11,0c1.32,-0.33 2.64,-0.66 4,-1c0.643,-2.773 0.643,-2.773 0.5,-6c0.015,-1.64 0.015,-1.64 0.031,-3.312c-0.222,-3.251 -0.222,-3.251 -4.531,-3.688c7.465,-14.93 8.08,1.167 7.812,8.746Z" style="fill-rule:nonzero;"/><path d="M265.926,346.477c-1.185,4.509 -2.882,8.622 -4.738,12.898c-0.687,1.616 -1.374,3.233 -2.082,4.898c-2.105,3.727 -2.105,3.727 -6.105,3.727c0.812,-3.5 0.812,-3.5 3,-9c0.55,-1.384 1.101,-2.769 1.668,-4.195c0.783,-1.894 8.574,-18.868 8.258,-8.328Z" style="fill-rule:nonzero;"/><path d="M226.719,366.168c-2.045,3.369 -4.773,3.981 -4.656,-0.648c1.203,-4.517 3.007,-8.575 4.938,-12.832c1.083,-2.407 1.083,-2.407 2.188,-4.863c7.152,-15.09 -0.243,13.371 -2.469,18.344Z" style="fill-rule:nonzero;"/><path d="M185,348c0.99,0.99 1.98,1.98 3,3c5.282,15.846 -9.815,27.899 -23,16c-10.156,-16.927 13.934,-36.186 20,-19Zm-13,19c12.789,2.558 17.904,-8.096 9,-17c-0.66,-0.33 -1.32,-0.66 -2,-1c-0.33,-0.99 -0.66,-1.98 -1,-3c-12.629,0 -16.845,14.247 -6,21Z" style="fill-rule:nonzero;"/><path d="M78,338c0,5.24 -3.813,3.343 -8,3c0.99,-0.66 1.98,-1.32 3,-2c-2.112,-4.224 2.672,-1.618 5,-1Z" style="fill-rule:nonzero;"/><path d="M71,338c-0.99,0.66 -1.98,1.32 -3,2c-0.33,0.66 -0.66,1.32 -1,2c-7.114,-4.742 -0.979,-5.221 4,-4Z" style="fill-rule:nonzero;"/><path d="M62,337c1.837,7.35 -2.897,5.344 -9,5c0,-6.863 2.372,-5.545 9,-5Z" style="fill-rule:nonzero;"/><path d="M72,334c0,4.455 -7.888,2.141 -11,2c0,-4.455 7.888,-2.141 11,-2Z" style="fill-rule:nonzero;"/><path d="M60,336c-3.438,0.25 -3.438,0.25 -7,0c0,-4.647 5.399,-3.201 7,0Z" style="fill-rule:nonzero;"/><path d="M56,328c0,4.208 -5.971,2.168 -9,2c0,-4.208 5.971,-2.168 9,-2Z" style="fill-rule:nonzero;"/><path d="M66.625,323.188c1.415,0.097 2.831,0.193 4.289,0.293c3.086,0.52 3.086,0.52 1.086,2.52c-3.039,0.301 -3.039,0.301 -6.625,0.312c-1.189,0.017 -2.377,0.034 -3.602,0.051c-8.224,-1.077 1.311,-3.451 4.852,-3.176Z" style="fill-rule:nonzero;"/><path d="M57,325c-10.189,0.377 -10.189,0.377 -9,-2c9,0.616 9,0.616 9,2Z" style="fill-rule:nonzero;"/><path d="M110,320c-1,2 -1,2 -5,2c0,-2 0,-2 5,-2Z" style="fill-rule:nonzero;"/><path d="M103,320c0,2 0,2 -5,2c0,-2 0,-2 5,-2Z" style="fill-rule:nonzero;"/><path d="M96,320c0,2 0,2 -2,2c0,-2 0,-2 2,-2Z" style="fill-rule:nonzero;"/><path d="M93,321c-1.32,0.33 -2.64,0.66 -4,1c-1,-2 -1,-2 4,-1Z" style="fill-rule:nonzero;"/><path d="M86,320c0,2 0,2 -5,2c0,-2 0,-2 5,-2Z" style="fill-rule:nonzero;"/><path d="M53.867,319.734c1.442,-0.003 2.885,-0.005 4.371,-0.008c1.53,0.008 3.06,0.015 4.637,0.023c1.522,-0.008 3.045,-0.015 4.613,-0.023c1.445,0.003 2.89,0.005 4.379,0.008c2.013,0.003 2.013,0.003 4.066,0.007c3.067,0.259 3.067,0.259 4.067,2.259c-2.808,0.259 -2.808,0.259 -6.867,0.266c-1.442,0.003 -2.885,0.005 -4.371,0.008c-1.53,-0.008 -3.06,-0.015 -4.637,-0.023c-1.522,0.008 -3.045,0.015 -4.613,0.023c-1.445,-0.003 -2.89,-0.005 -4.379,-0.008c-1.342,-0.002 -2.684,-0.005 -4.066,-0.007c-8.071,-0.681 -1.217,-2.518 2.8,-2.524Z" style="fill-rule:nonzero;"/><path d="M62,316c-8.189,0.378 -8.189,0.378 -7,-2c7,0.614 7,0.614 7,2Z" style="fill-rule:nonzero;"/><path d="M52,314c0,2 0,2 -5,2c0,-3 0,-3 5,-2Z" style="fill-rule:nonzero;"/><path d="M52.289,306.644c1.758,-0.003 3.517,-0.006 5.329,-0.009c2.867,0.019 2.867,0.019 5.792,0.037c1.948,0.002 3.896,0.004 5.903,0.006c4.127,0.005 8.253,0.019 12.38,0.041c5.302,0.028 10.604,0.039 15.907,0.044c5.041,0.005 10.082,0.02 15.122,0.034c2.87,0.006 2.87,0.006 5.798,0.013c2.633,0.014 2.633,0.014 5.319,0.029c2.333,0.01 2.333,0.01 4.712,0.021c11.978,0.488 6.148,71.53 4.787,83.879c-0.567,4.255 -0.567,4.255 0.66,8.262c-4.156,0.422 -4.156,0.422 -10.145,0.32c-1.064,-0.011 -2.128,-0.022 -3.225,-0.034c-2.29,-0.025 -4.58,-0.058 -6.871,-0.099c-5.895,-0.103 -11.79,-0.144 -17.686,-0.18c-1.15,-0.008 -2.301,-0.016 -3.486,-0.024c-10.277,-0.043 -20.397,0.539 -30.62,1.579c-20.608,1.815 -20.608,1.815 -20.289,-11.195c0.023,-1.52 0.046,-3.039 0.07,-4.605c0.062,-2.419 0.062,-2.419 0.125,-4.887c0.157,-11.087 0.093,-21.783 -1.422,-32.785c-4.485,-40.485 -4.485,-40.485 11.836,-40.446Zm-7.477,22.544c-0.001,1.501 -0.001,3.001 -0.002,4.547c0.049,10.304 0.631,20.338 1.807,30.578c0.301,4.476 0.274,8.433 -0.047,12.875c-1.057,15.623 -1.18,22.505 16.43,18.812c3.642,-0.375 7.288,-0.706 10.937,-1c1.952,-0.182 3.903,-0.364 5.914,-0.551c6.323,-0.516 12.618,-0.64 18.961,-0.637c1.038,-0.001 2.076,-0.003 3.146,-0.004c8.068,0.052 15.993,0.761 23.983,1.852c5.25,-1.133 3.421,-4.921 3.059,-9.66c0.366,-3.543 0.742,-7.084 1.125,-10.625c0.239,-3.581 0.428,-7.162 0.602,-10.747c0.205,-3.477 0.484,-6.949 0.8,-10.417c2.865,-32.374 0.845,-47.84 -35.652,-42.862c-6.138,0.68 -12.056,0.807 -18.219,0.697c-1.009,-0.018 -2.018,-0.035 -3.057,-0.053c-2.991,-0.058 -5.983,-0.12 -8.974,-0.181c-3.758,-0.032 -7.516,-0.048 -11.273,-0.043c-1.59,-0.004 -3.18,-0.008 -4.818,-0.012c-7.583,0.521 -4.724,11.465 -4.721,17.43Z" style="fill-rule:nonzero;"/><path d="M861.714,288.667c17.377,0.018 34.754,0.022 52.131,0.017c20.482,-0.006 40.963,-0.006 61.445,0.005c2.19,0.001 4.379,0.002 6.569,0.004c1.076,0.001 2.152,0.001 3.26,0.002c7.46,0.004 14.92,0.004 22.38,0.002c10.036,-0.002 20.073,0.006 30.109,0.022c3.641,0.004 7.281,0.005 10.922,0.002c19.001,-0.012 37.971,0.258 56.957,1.046c2.632,0.091 2.632,0.091 5.317,0.184c1.599,0.076 3.198,0.152 4.845,0.231c1.423,0.061 2.845,0.122 4.311,0.185c4.179,0.871 4.977,4.012 0.63,5.407c-4.392,0.277 -8.63,0.093 -13.027,-0.148c-43.449,-2.119 -86.95,-1.868 -130.425,-0.981c-24.256,0.484 -48.483,0.42 -72.74,-0c-98.397,-1.685 -196.786,-0.968 -295.151,1.864c-108.762,3.111 -217.56,3.684 -326.36,3.68c-3.597,0 -7.193,0.001 -10.79,0.001c-50.027,0.01 -100.051,-0.09 -150.076,-0.607c-2.979,-0.031 -5.958,-0.06 -8.937,-0.09c-17.302,-0.176 -34.601,-0.361 -51.895,-0.964c-1.066,-0.037 -2.132,-0.074 -3.231,-0.113c-2.987,-0.116 -5.972,-0.266 -8.958,-0.416c-1.202,-0.038 -2.404,-0.076 -3.642,-0.115c-9.358,-0.434 -9.358,-0.434 -9.358,-4.885c4.314,-0.345 8.375,-0.412 12.688,-0.312c1.71,0.015 1.71,0.015 3.455,0.029c7.21,0.088 14.408,0.345 21.612,0.635c23.445,0.912 46.907,0.991 70.367,1.18c4.747,0.04 9.495,0.084 14.242,0.128c62.109,0.576 124.215,0.362 186.324,-0.036c1.669,-0.011 3.338,-0.021 5.058,-0.032c49.31,-0.316 98.617,-0.746 147.923,-1.411c4.104,-0.055 8.208,-0.106 12.313,-0.158c7.912,-0.1 15.823,-0.21 23.734,-0.329c1.373,-0.02 2.746,-0.041 4.161,-0.062c17.878,-0.275 35.741,-0.733 53.61,-1.362c90.054,-3.085 180.135,-2.697 270.229,-2.604Z" style="fill-rule:nonzero;"/><path d="M764,264c3.017,-0.948 6.017,-1.952 9,-3c2,2 2,2 2,6c2.808,-0.127 2.808,-0.127 6.125,-1.125c1.137,-0.291 2.274,-0.583 3.445,-0.883c3.429,-0.925 3.429,-0.925 6.609,-2.297c2.82,-0.695 2.82,-0.695 6.82,2.305c3.304,-0.296 3.304,-0.296 6.812,-1.312c4.632,-1.197 22.503,-5.318 17.188,5.312c-3,0 -3,0 -3,-3c-2.918,0.016 -2.918,0.016 -6.438,0.688c-1.275,0.204 -2.55,0.407 -3.863,0.617c-2.965,0.557 -5.902,1.259 -8.824,2.008c-3.875,0.688 -3.875,0.688 -7.875,-2.312c-1.155,0.433 -2.31,0.866 -3.5,1.312c-6.463,2.424 -14.958,4.772 -18.5,-2.312c-1.98,0.99 -1.98,0.99 -4,2c-5,0 -5,0 -6,-3c-1.32,0.33 -2.64,0.66 -4,1c1.367,-5.468 8,-11.136 8,-2Z" style="fill-rule:nonzero;"/><path d="M571,265c1.114,-0.495 2.227,-0.99 3.375,-1.5c3.625,-1.5 3.625,-1.5 5.625,2.5c3.42,-0.388 3.42,-0.388 7.312,-1.688c24.96,-6.952 24.96,-6.952 26.188,0.875c3.823,7.168 21.806,-1.903 27.789,-4.043c5.08,-1.567 5.711,-1.618 5.711,3.855c3.772,-0.672 3.772,-0.672 8.188,-2.25c13.476,-4.435 13.476,-4.435 14.812,2.25c2.764,-0.668 2.764,-0.668 6,-2c3.691,-0.23 3.691,-0.23 7.562,-0.188c1.28,0.006 2.56,0.013 3.879,0.02c3.559,0.168 3.559,0.168 8.559,1.168c2.669,-0.314 5.336,-0.645 8,-1c0.33,0.33 0.66,0.66 1,1c8.567,0.286 16.529,-0.348 24.98,-1.758c4.279,-0.343 4.707,0.821 6.02,4.758c2.345,-0.973 4.677,-1.976 7,-3c7.954,1.989 -1.271,8.271 -5,12c-0.33,-1.65 -0.66,-3.3 -1,-5c-1.155,0.165 -2.31,0.33 -3.5,0.5c-3.5,0.5 -3.5,0.5 -4.5,-4.5c-3.228,-0.156 -3.228,-0.156 -7,0.688c-15.684,2.629 -15.684,2.629 -18,0.312c-3.635,0.264 -7.251,0.652 -10.875,1.039c-3.125,-0.039 -3.125,-0.039 -4.125,-3.039c-0.99,0.33 -1.98,0.66 -3,1c-1.279,-0.021 -2.558,-0.041 -3.875,-0.062c-4.384,-0.179 -4.384,-0.179 -9.125,2.062c-5.778,-0.333 -5.778,-0.333 -7,-4c-3.702,0.222 -6.955,0.986 -10.5,2.062c-9.439,2.528 -9.439,2.528 -12.5,-2.062c-3.961,0.959 -3.961,0.959 -8.375,2.75c-21.35,8.075 -21.35,8.075 -24.625,-1.75c-7.254,-0.65 -13.693,0.655 -20.707,2.254c-11.041,2.502 -11.041,2.502 -12.293,-1.254c-2.342,0.979 -4.675,1.98 -7,3c-2,-2 -2,-2 -2,-5c-2.596,-0.298 -2.596,-0.298 -4,4c-2,3 -2,3 -5,2c1.685,-4.212 12,-18.119 12,-6Z" style="fill-rule:nonzero;"/><path d="M343,252c-6.377,1.594 -4.096,-1.111 -3,-6c4.655,-4.655 3.67,3.855 3,6Z" style="fill-rule:nonzero;"/><path d="M432,244c-1,2 -1,2 -5,1c1.201,-6.005 3.124,-6.628 5,-1Z" style="fill-rule:nonzero;"/><path d="M385,241c-1,5 -1,5 -4,4c1,-5 1,-5 4,-4Z" style="fill-rule:nonzero;"/><path d="M545,236c0,6.803 -4.459,4.554 -10,4c0,-6.803 4.459,-4.554 10,-4Z" style="fill-rule:nonzero;"/><path d="M775,244c-7.847,7.847 -16.586,0.23 -12.625,-9.312c6.522,-10.786 14.786,-0.258 12.625,9.312Zm-9,-2c6.745,1.349 6,0.108 6,-6c-5.946,-3.964 -6,0.426 -6,6Z" style="fill-rule:nonzero;"/><path d="M759.812,240.812c-0.076,1.409 -0.152,2.818 -0.23,4.27c-1.266,8.525 -6.384,13.383 -14.582,7.918c0,-4.22 4.796,-3 8,-3c2.931,-4.538 2.931,-4.538 -0.625,-3.5c-21.382,3.168 9.272,-34.904 7.438,-5.688Zm-10.812,1.188c7.375,1.475 7,-1.231 7,-8c-6.347,0 -7,1.868 -7,8Z" style="fill-rule:nonzero;"/><path d="M431,231c-1,5 -1,5 -4,4c0,-4 0,-4 4,-4Z" style="fill-rule:nonzero;"/><path d="M743,241c0.413,1.155 0.825,2.31 1.25,3.5c-0.693,6.933 -12.242,2.508 -15.25,-0.5c-1.451,-14.722 14.243,-19.525 14,-3Zm-7,3c5.045,-1.682 3.395,-5.325 3,-10c-6.866,0 -8.953,6.032 -3,10Z" style="fill-rule:nonzero;"/><path d="M714,234c-3,1 -3,1 -8,0c0,3.403 3.099,3.072 6,4c8.148,8.148 -3.307,9.395 -9,9c-4.258,-6.387 2.856,-4.737 7,-4c0,-3.403 -3.099,-3.072 -6,-4c-6.573,-6.573 7.539,-14.844 10,-5Z" style="fill-rule:nonzero;"/><path d="M698,237c-4,3 -4,3 -9,4c-0.331,2.876 -0.331,2.876 5,1.438c5.7,-0.499 7.069,0.493 3,4.562c-33.31,2.686 5.753,-29.013 1,-10Zm-9,0c5.327,-0.216 5.327,-0.216 5,-3c-4.026,-0.221 -4.026,-0.221 -5,3Z" style="fill-rule:nonzero;"/><path d="M658.496,239.375c0.184,3.28 0.184,3.28 4.504,2.625c0.165,-1.815 0.33,-3.63 0.5,-5.5c0.5,-5.5 0.5,-5.5 4.5,-5.5c0.496,3.465 0.496,3.465 0.438,7.938c-0.001,1.473 -0.003,2.947 -0.004,4.465c-1.031,8.558 -10.937,4.259 -14.434,-0.402c-0.529,-11.912 4.242,-18.257 4.496,-3.625Z" style="fill-rule:nonzero;"/><path d="M643,231c1.516,-0.34 1.516,-0.34 3.062,-0.688c6.507,-0.692 6.37,5.595 6.375,10.5c0.019,1.182 0.039,2.364 0.059,3.582c-0.496,2.605 -0.496,2.605 -4.496,1.605c-0.37,-3.663 -0.705,-7.33 -1,-11c-5.183,0 -3.838,5.063 -4.277,9.473c-1.482,5.181 -4.669,1.945 -5.148,-1.816c0.037,-1.372 0.075,-2.743 0.113,-4.156c0.024,-1.372 0.049,-2.743 0.074,-4.156c0.326,-4.572 0.326,-4.572 5.238,-3.344Z" style="fill-rule:nonzero;"/><path d="M635.438,238.5c0.019,1.372 0.039,2.743 0.059,4.156c-0.496,3.344 -0.496,3.344 -4.496,4.344c-0.426,-3.367 -0.426,-3.367 -0.312,-7.875c0.024,-1.482 0.049,-2.965 0.074,-4.492c0.631,-9.614 4.671,-1.291 4.676,3.867Z" style="fill-rule:nonzero;"/><path d="M611,231c1.65,-0.33 3.3,-0.66 5,-1c0.66,0.33 1.32,0.66 2,1c0.969,-0.248 1.939,-0.495 2.938,-0.75c7.994,-0.653 7.002,11.271 7.062,16.75c-6.722,0 -5.029,-5.237 -6,-11c-5.652,-1.884 -2.968,4.997 -2.715,9.219c-0.285,2.781 -0.285,2.781 -4.285,1.781c-0.375,-3.329 -0.708,-6.663 -1,-10c-3.831,-1.816 -3.831,-1.816 -3.438,4.5c-0.562,5.5 -0.562,5.5 -4.562,4.5c-0.426,-3.344 -0.426,-3.344 -0.312,-7.5c0.024,-1.372 0.049,-2.743 0.074,-4.156c0.326,-4.572 0.326,-4.572 5.238,-3.344Z" style="fill-rule:nonzero;"/><path d="M385,231c-1,4 -1,4 -4,4c1,-5 1,-5 4,-4Z" style="fill-rule:nonzero;"/><path d="M182,241c-7.321,7.321 -13,1.623 -13,-7c7.681,-7.681 15.817,-3.328 13,7Z" style="fill-rule:nonzero;"/><path d="M64,226c0,2.529 -8.212,1.888 -10,2c0,-4.28 6.919,-2.116 10,-2Z" style="fill-rule:nonzero;"/><path d="M52,226c0,1 0,1 -5,1c0,-1 0,-1 5,-1Z" style="fill-rule:nonzero;"/><path d="M678,226l0,4c1.65,0.33 3.3,0.66 5,1c0,3 0,3 -5,3c0.33,1.32 0.66,2.64 1,4c0.586,7.853 0.586,7.853 -4,9c-1,-5 -1,-5 -0.812,-9.312c0.394,-4.353 0.394,-4.353 -4.188,-3.688c0,-4 5,-9 8,-8Z" style="fill-rule:nonzero;"/><path d="M507.438,232.812c3.207,10.649 3.275,0.915 4.402,-3.668c3.517,-9.534 6.429,-0.5 7.41,4.418c0.335,1.61 0.67,3.22 1.016,4.879c1.742,10.81 1.742,10.81 -3.266,9.559c-0.708,-2.99 -1.38,-5.99 -2,-9c-2.147,2.879 -2.147,2.879 -2.875,6.188c-2.562,6.404 -5.285,2.287 -6.688,-2.312c-3.237,-8.727 -3.519,2.757 -4.438,6.125c-5.975,-1.992 -2.728,-10.231 -1.625,-15.312c0.255,-1.213 0.51,-2.426 0.773,-3.676c2.55,-9.02 6.279,-3.09 7.289,2.801Z" style="fill-rule:nonzero;"/><path d="M467,235c-3.5,3.25 -3.5,3.25 -7,6c-1.666,2.554 -1.666,2.554 2.938,2.375c4.062,0.625 4.062,0.625 4.062,4.625c-13.522,0.712 -18.543,-5.294 -5,-14c1.816,-7.262 -2.373,-3.542 -7,-2c-3.322,-9.965 16.798,-9.626 12,3Z" style="fill-rule:nonzero;"/><path d="M450,237c0.206,0.969 0.413,1.939 0.625,2.938c1.328,10.847 -9.586,10.782 -14.625,4.062c1.233,-2.465 4,-3.824 4,0c9.169,0 6.143,-4.543 0,-7c0,-3 0,-3 3,-3.438c3.655,-0.177 3.655,-0.177 3,-4.562c-2.674,0.637 -5.341,1.304 -8,2c-2.784,-8.353 12,-8.195 12,6Z" style="fill-rule:nonzero;"/><path d="M420.125,232c-0.893,4.909 -0.893,4.909 2.875,7c-1,3 -1,3 -3,3l0,6c-4,0 -4,0 -4,-6c-4.458,-0.25 -4.458,-0.25 -9,0c-1.507,-4.521 0.653,-6.324 3.125,-10.25c0.786,-1.284 1.573,-2.568 2.383,-3.891c5.114,-5.867 8.09,-1.933 7.617,4.141Zm-8.125,6c5,0.667 5,0.667 4,-6c-3.186,0 -4,3.446 -4,6Z" style="fill-rule:nonzero;"/><path d="M404,234c-2.25,2.562 -2.25,2.562 -5,5c-6.042,6.042 -2.779,5.194 4,5c4.643,6.964 -7.539,4.744 -12,4c-2.023,-5.733 0.723,-8.403 5,-12c5.66,-5.383 5.66,-5.383 -1,-6c-1.485,0.99 -1.485,0.99 -3,2c-2.41,-9.64 12,-10.05 12,2Z" style="fill-rule:nonzero;"/><path d="M375,234c-2.25,2.562 -2.25,2.562 -5,5c-6.644,6.499 -1.741,5.175 5,5c1.837,5.51 -1.918,4.218 -6.5,4.312c-1.186,0.037 -2.372,0.075 -3.594,0.113c-10.585,-1.551 1.746,-12.565 5.094,-15.426c1.809,-4.92 1.809,-4.92 -2.875,-2.5c-4.125,1.5 -4.125,1.5 -5.125,-2.5c7.806,-5.855 13,-3.583 13,6Z" style="fill-rule:nonzero;"/><path d="M326,233c1.992,0.379 3.994,0.703 6,1c6.299,8.399 2.133,15 -8,15c-14.69,-14.69 14.301,-32.402 2,-16Zm-2,11c6.84,1.368 7.368,0.84 6,-6c-6.567,-1.476 -6.567,-1.476 -6,6Z" style="fill-rule:nonzero;"/><path d="M317,234c-2.586,2.422 -5.254,4.761 -8,7c-1.661,2.544 -1.661,2.544 2.875,2.375c3.481,0.527 8.754,4.055 2.414,5.051c-1.209,-0.037 -2.418,-0.075 -3.664,-0.113c-1.204,-0.024 -2.408,-0.049 -3.648,-0.074c-10.343,-0.828 0.477,-11.388 4.023,-14.238c1.854,-7.418 -3.156,-3.211 -8,-2c2.206,-11.03 14,-9.228 14,2Z" style="fill-rule:nonzero;"/><path d="M298,247c-13.828,6.914 -16.902,-10.6 -11,-20c14.206,-9.471 17.022,11.397 11,20Zm-7,-2c7.724,-1.931 8.062,-9.908 4,-16c-10.335,0 -7.587,10.022 -4,16Z" style="fill-rule:nonzero;"/><path d="M282,235c-3.938,3.812 -3.938,3.812 -8,7c-1.703,2.672 -1.703,2.672 3.438,1.875c4.562,0.125 4.562,0.125 4.562,4.125c-11.576,2.592 -19.022,-2.772 -8,-12c7.81,-7.81 2.084,-6.489 -5,-4c-3.409,-6.819 15.752,-12.009 13,3Z" style="fill-rule:nonzero;"/><path d="M248,245c-3.042,3.12 -11.208,8.832 -9,0c1.966,-1.065 3.967,-2.068 6,-3c1.589,-2.589 1.589,-2.589 -2,-1c-25.523,-10.209 24.955,-26.983 5,4Zm-7,-9c5.492,1.831 5.877,0.614 7,-5c-6.744,-4.046 -8.501,-2.505 -7,5Z" style="fill-rule:nonzero;"/><path d="M215,234.562c-1.049,6.208 -1.049,6.208 2,9.438c0,6.518 -3.575,4.603 -9,4c0,-4 0,-4 3,-4c0.525,-2.967 0.525,-2.967 0.438,-6.5c0.019,-1.207 0.039,-2.413 0.059,-3.656c-0.13,-3.5 -0.13,-3.5 -4.496,-2.844c5.716,-11.433 8.219,-5.728 8,3.562Z" style="fill-rule:nonzero;"/><path d="M635,228c-4,-1 -4,-1 -4,-4c3.348,-1.674 5.674,0.652 4,4Z" style="fill-rule:nonzero;"/><path d="M568.777,238.781c-0.418,4.522 -0.418,4.522 3.223,5.219c-3.089,4.634 -10,5.907 -10,-1l3,0c0.478,-7.457 0.478,-7.457 -3,-13c4.321,-17.285 6.972,2.356 6.777,8.781Z" style="fill-rule:nonzero;"/><path d="M492,239c-1.65,0.33 -3.3,0.66 -5,1c-0.409,2.656 -0.745,5.325 -1,8c-6.185,0 -4.067,-10.001 -3.812,-14.812c0.055,-1.306 0.111,-2.612 0.168,-3.957c2.089,-10.47 21.925,-2.511 9.645,9.77Zm-5,-3c5.619,-1.35 5.619,-1.35 5,-6c-7.42,-2.968 -5.979,-0.263 -5,6Z" style="fill-rule:nonzero;"/><path d="M589,246c-14.026,7.013 -16.013,-11.645 -11,-20c15.565,-9.339 16.633,10.611 11,20Zm-7,-3c8.222,-1.644 8.741,-10.259 3,-16c-9.04,0 -5.56,11.733 -3,16Z" style="fill-rule:nonzero;"/><path d="M258.852,245.914c-2.625,4.375 -6.343,4.28 -5.039,-1.539c9.921,-24.377 15.375,-23.458 5.039,1.539Z" style="fill-rule:nonzero;"/><path d="M226.719,246.07c-1.485,2.531 -4.791,5.697 -4.656,0.543c1.217,-4.691 3.029,-8.972 4.938,-13.426c0.722,-1.698 1.444,-3.395 2.188,-5.145c6.904,-15.399 -0.102,12.786 -2.469,18.027Z" style="fill-rule:nonzero;"/><path d="M182,251c-17.427,5.674 -28.214,-15.303 -13.938,-26.375c18.166,-10.049 29.511,14.695 13.938,26.375Zm-12,-4c17.254,3.944 21.374,-12.084 8,-21c-12.705,0 -16.507,12.493 -8,21Z" style="fill-rule:nonzero;"/><path d="M69,220c-0.66,0.66 -1.32,1.32 -2,2c-3,-2 -3,-2 2,-2Z" style="fill-rule:nonzero;"/><path d="M79,218c-1.383,5.534 -2.768,4.747 -8,4c-1.703,-6.813 2.691,-4.59 8,-4Z" style="fill-rule:nonzero;"/><path d="M68,218c0,1 0,1 -6,1l0,3c-16.32,1.839 -7.345,-7.161 6,-4Z" style="fill-rule:nonzero;"/><path d="M72,216c-10,0.506 -10,0.506 -10,-2c8.753,-0.493 8.753,-0.493 10,2Z" style="fill-rule:nonzero;"/><path d="M60,214c0,3.867 -4.074,2.209 -7,2c0,-3.867 4.074,-2.209 7,-2Z" style="fill-rule:nonzero;"/><path d="M56,208c0,4.208 -5.971,2.168 -9,2c0,-4.208 5.971,-2.168 9,-2Z" style="fill-rule:nonzero;"/><path d="M65.375,203.75c2.115,-0.008 2.115,-0.008 4.273,-0.016c3.352,0.266 3.352,0.266 3.352,2.266c-2.773,0.266 -2.773,0.266 -6.375,0.25c-1.775,0.008 -1.775,0.008 -3.586,0.016c-8.267,-0.723 -3.048,-2.535 2.336,-2.516Z" style="fill-rule:nonzero;"/><path d="M57,204c-4,2 -4,2 -10,2c0,-4.406 6.876,-2.164 10,-2Z" style="fill-rule:nonzero;"/><path d="M110,200c0,2 0,2 -5,2c0,-2 0,-2 5,-2Z" style="fill-rule:nonzero;"/><path d="M103,200c0,2 0,2 -5,2c0,-2 0,-2 5,-2Z" style="fill-rule:nonzero;"/><path d="M96,202c-0.66,-0.33 -1.32,-0.66 -2,-1c1,-1 1,-1 2,1Z" style="fill-rule:nonzero;"/><path d="M93,201c-1.32,0.33 -2.64,0.66 -4,1c0,-2 0,-2 4,-1Z" style="fill-rule:nonzero;"/><path d="M86,201c0,1 0,1 -5,1c0,-2 0,-2 5,-1Z" style="fill-rule:nonzero;"/><path d="M80,202c-11.256,0.512 -11.256,0.512 -10,-2c8.757,-0.486 8.757,-0.486 10,2Z" style="fill-rule:nonzero;"/><path d="M68,202c-2.816,0.266 -2.816,0.266 -6.562,0.25c-1.239,0.005 -2.478,0.01 -3.754,0.016c-6.395,-0.633 7.66,-5.578 10.316,-0.266Z" style="fill-rule:nonzero;"/><path d="M54,202c-3.438,0.25 -3.438,0.25 -7,0c0,-4.647 5.399,-3.201 7,0Z" style="fill-rule:nonzero;"/><path d="M62,196c-7.189,0.378 -7.189,0.378 -6,-2c6,0.612 6,0.612 6,2Z" style="fill-rule:nonzero;"/><path d="M54,195c-1.751,3.502 -4.671,1.726 -8,1c0,-4.185 5.189,-1.535 8,-1Z" style="fill-rule:nonzero;"/><path d="M117.438,186.75c1.709,0.092 1.709,0.092 3.453,0.187c7.992,0.594 7.992,0.594 9.109,5.063l2,0c0.395,2.943 0.395,2.943 0.598,7.059c0.079,1.502 0.159,3.005 0.24,4.553c0.074,1.593 0.148,3.185 0.225,4.826c0.157,3.082 0.315,6.164 0.473,9.246c0.075,1.55 0.149,3.099 0.226,4.696c0.229,4.425 0.518,8.844 0.813,13.265c0.489,8.226 0.442,16.373 0.176,24.605c-0.041,2.04 -0.041,2.04 -0.082,4.121c-0.04,1.306 -0.08,2.612 -0.121,3.957c-0.049,1.747 -0.049,1.747 -0.099,3.528c-1.423,9.98 -8.146,9.11 -16.386,9.456c-1.318,0.07 -2.636,0.14 -3.994,0.212c-72.221,3.42 -72.221,3.42 -72.448,-10.872c-0.034,-1.72 -0.068,-3.441 -0.104,-5.213c-0.026,-1.816 -0.053,-3.631 -0.08,-5.502c-0.06,-3.553 -0.124,-7.107 -0.191,-10.66c-0.024,-1.586 -0.048,-3.171 -0.073,-4.805c-0.107,-4.407 -0.107,-4.407 -0.678,-8.493c-0.958,-7.701 -0.68,-15.48 -0.683,-23.23c-0.012,-1.743 -0.024,-3.486 -0.037,-5.281c-0.002,-1.665 -0.004,-3.331 -0.006,-5.047c-0.004,-1.52 -0.008,-3.04 -0.012,-4.606c0.498,-7.815 0.498,-7.815 4.243,-7.815l0,-2c2.832,-0.411 2.832,-0.411 6.812,-0.633c2.184,-0.126 2.184,-0.126 4.412,-0.255c2.364,-0.117 2.364,-0.117 4.775,-0.237c2.401,-0.125 2.401,-0.125 4.851,-0.253c17.581,-0.865 35.011,-0.981 52.586,0.128Zm-50.398,3.777c-22.38,-1.304 -22.38,-1.304 -23.598,18.446c0.946,5.125 0.896,10.266 0.996,15.464c0.242,5.992 0.558,11.967 1.125,17.938c0.334,4.395 0.485,8.741 0.465,13.148c-0.003,1.184 -0.005,2.368 -0.008,3.588c-0.013,2.406 -0.031,4.812 -0.056,7.218c-0.125,16.27 19.174,10.829 32.442,10.801c2.995,-0.005 5.989,0 8.984,0.006c50.427,-0.033 44.693,-17.577 41.323,-63.504c-0.09,-1.239 -0.181,-2.477 -0.274,-3.754c-0.095,-1.174 -0.19,-2.347 -0.288,-3.557c-0.15,-3.322 -0.15,-3.322 0.393,-9.131c-0.86,-6.641 -4.022,-5.586 -10.23,-5.816c-1.029,-0.048 -2.058,-0.096 -3.117,-0.146c-3.399,-0.137 -6.793,-0.191 -10.195,-0.229c-1.129,-0.022 -2.257,-0.044 -3.42,-0.067c-5.941,-0.107 -11.866,-0.107 -17.807,0.008c-5.606,0.099 -11.137,-0.097 -16.734,-0.414Z" style="fill-rule:nonzero;"/><path d="M125,122c-1.32,-0.33 -2.64,-0.66 -4,-1c-3.931,0 -3.028,1.409 -3.312,5.562c-0.753,4.86 -4.116,7.495 -5.254,1.41c0.001,-1.29 0.003,-2.581 0.004,-3.91c-0.022,-1.288 -0.044,-2.576 -0.066,-3.902c0.629,-3.16 0.629,-3.16 5.629,-4.16c6.478,-2.159 7,-0.722 7,6Z" style="fill-rule:nonzero;"/><path d="M111,127c0.33,1.32 0.66,2.64 1,4c-32.275,8.069 -0.466,-33.93 -1,-4Zm-10,0c7.779,1.556 6.308,-1.577 5,-8c-5.272,0 -5,3.806 -5,8Z" style="fill-rule:nonzero;"/><path d="M90,125c-0.99,0.33 -1.98,0.66 -3,1c-1.708,2.729 -1.708,2.729 3.5,1.375c4.5,-0.375 4.5,-0.375 3.5,3.625c-11.491,3.315 -17.55,-6.45 -9,-15c8.93,-2.977 11.783,3.142 5,9Zm-5,-3c5.327,-0.216 5.327,-0.216 5,-3c-3.324,-0.416 -3.324,-0.416 -5,3Z" style="fill-rule:nonzero;"/><path d="M71,120l-6,0c-6.779,6.779 1.813,7.22 6,7c2.265,6.796 -5.782,5.015 -10,4c-6.649,-9.974 6.924,-23.304 10,-11Z" style="fill-rule:nonzero;"/><path d="M78.938,120.062c-0.041,1.045 -0.081,2.09 -0.123,3.166c-0.421,7.771 -0.421,7.771 -3.814,7.771c-0.547,-4.523 -0.547,-4.523 -0.75,-10.375c-0.077,-1.926 -0.155,-3.852 -0.234,-5.836c-0.044,-13.422 5.428,-2.512 4.922,5.273Z" style="fill-rule:nonzero;"/><path d="M138.312,151.562c-2.135,0.217 -2.135,0.217 -4.312,0.438c-1.018,0.165 -2.037,0.33 -3.086,0.5c-23.725,3.839 -48.37,3.369 -72.289,1.812c-1.039,-0.053 -2.077,-0.107 -3.148,-0.161c-18.762,-1.47 -18.035,-51.315 -9.477,-64.151c4.951,0 2.559,6.84 2,10c-0.224,5.706 -0.185,11.415 -0.188,17.125c-0.012,1.542 -0.024,3.083 -0.037,4.672c-0.011,8.678 0.649,16.679 2.225,25.203c-0.33,0.66 -0.66,1.32 -1,2c2.851,0.128 5.709,0.118 8.562,0.062c6.986,-0.077 13.82,0.058 20.773,0.719c13.575,0.81 27.047,-0.372 40.565,-1.543c2.637,-0.203 5.28,-0.309 7.923,-0.395c10.351,-0.596 10.829,-4.621 10.176,-13.844c0.081,-2.604 0.165,-5.208 0.25,-7.812c-0.092,-7.234 -0.464,-14.423 -1.125,-21.625c-0.162,-1.958 -0.325,-3.916 -0.492,-5.934c-3.618,-10.257 -20.16,-6.892 -29.508,-6.816c-1.654,0.006 -3.307,0.013 -5.011,0.02c-9.969,0.063 -19.881,0.347 -29.833,0.93c-4.678,0.26 -9.347,0.447 -14.031,0.551c-1.397,0.037 -2.795,0.075 -4.234,0.113c-4.391,-0.62 -4.81,-3.912 -0.515,-5.142c88.567,-7.175 88.567,-7.175 85.812,63.279Z" style="fill-rule:nonzero;"/><path d="M851,65c1.925,0.029 1.925,0.029 3.889,0.059c1.792,0.027 1.792,0.027 3.62,0.055c1.011,0.015 2.022,0.03 3.063,0.046c18.648,0.3 37.291,0.681 55.931,1.315c29.871,1.007 59.722,1.712 89.61,1.869c2.298,0.012 2.298,0.012 4.642,0.025c12.454,0.063 24.909,0.107 37.363,0.147c9.451,0.031 18.902,0.07 28.353,0.12c4.337,0.02 8.674,0.028 13.011,0.036c2.652,0.013 5.304,0.026 7.956,0.041c1.172,-0.001 2.344,-0.002 3.552,-0.003c21.881,0.162 21.881,0.162 26.009,4.29l4,0c1.125,3.562 1.125,3.562 2,9c0.253,1.448 0.253,1.448 0.512,2.925c1.945,12.404 1.835,24.808 1.801,37.325c-0.001,1.85 -0.001,1.85 -0.001,3.737c-0.03,25.176 -0.977,50.304 -2.155,75.45c-2.088,45.27 -2.327,90.577 -2.286,135.888c0.006,6.351 0.002,12.703 -0.003,19.054c-0.048,33.06 -0.048,33.06 0.714,66.109c0.451,12.528 -7.143,-96.646 -6.352,-151.004c0.069,-4.808 0.068,-9.609 0.013,-14.417c-0.045,-12.371 0.919,-23.792 3.498,-35.92c12.726,-60.071 -12.741,-60.394 -66.67,-54.137c-14.815,1.708 -29.464,2.544 -44.374,2.73c-1.034,0.013 -2.068,0.027 -3.133,0.041c-5.143,0.063 -10.286,0.114 -15.43,0.157c-9.564,0.09 -19.125,0.331 -28.687,0.564c-1.776,0.041 -3.552,0.082 -5.382,0.125c-10.53,0.248 -21.056,0.553 -31.583,0.902c-143.366,4.706 -287.165,0.567 -430.543,-1.59c-2.014,-0.03 -2.014,-0.03 -4.068,-0.061c-8.926,-0.134 -17.853,-0.272 -26.779,-0.412c-1.207,-0.019 -2.415,-0.038 -3.658,-0.057c-12.359,-0.194 -24.717,-0.405 -37.074,-0.68c-37.389,-0.824 -74.772,-0.967 -112.17,-0.978c-1.645,-0.001 -3.291,-0.002 -4.986,-0.003c-51.395,-0.03 -102.678,0.632 -154.032,2.697c-28.901,1.161 -57.77,1.723 -86.694,1.687c-5.216,-0.005 -10.432,0 -15.647,0.006c-3.331,-0.001 -6.661,-0.002 -9.992,-0.004c-2.329,0.003 -2.329,0.003 -4.705,0.006c-2.133,-0.005 -2.133,-0.005 -4.309,-0.01c-1.25,-0.001 -2.499,-0.002 -3.787,-0.002c-3.035,-0.127 -3.035,-0.127 -6.035,-1.127c-0.337,3.259 -0.337,3.259 -0.125,7.562c0.246,16.851 -0.444,33.682 -1.349,50.508c-1.4,26.229 -1.978,52.431 -2.187,78.692c-0.027,3.296 -0.056,6.591 -0.087,9.887c-0.366,40.373 -5.439,119.279 -5.437,90.214c0,-6.66 -0.007,-67.105 -0.021,-73.765c-0.078,-38.7 0.224,-77.222 2.485,-115.864c0.678,-12.309 0.906,-24.597 0.982,-36.921c0.021,-3.492 0.048,-6.984 0.077,-10.476c0.069,-8.659 0.129,-17.317 0.189,-25.976c0.051,-7.358 0.106,-14.717 0.166,-22.075c0.026,-3.415 0.047,-6.83 0.068,-10.246c0.276,-38.527 0.276,-38.527 6.24,-36.539c0.309,3.62 0.309,3.62 0.217,8.575c-0.027,1.845 -0.053,3.69 -0.081,5.591c-0.044,2.031 -0.088,4.061 -0.132,6.092c-0.033,2.064 -0.065,4.127 -0.094,6.191c-0.082,5.442 -0.18,10.884 -0.284,16.326c-0.165,8.719 -0.315,17.439 -0.447,26.158c-0.05,3.06 -0.113,6.119 -0.176,9.179c-0.03,1.839 -0.06,3.678 -0.09,5.572c-0.031,1.634 -0.063,3.267 -0.095,4.95c-0.3,3.989 -0.3,3.989 2.182,2.366c2.094,-0.101 4.19,-0.136 6.286,-0.142c2.037,-0.011 2.037,-0.011 4.115,-0.022c1.514,-0.004 3.027,-0.008 4.587,-0.012c3.354,-0.021 6.709,-0.042 10.063,-0.065c1.821,-0.011 3.642,-0.022 5.518,-0.034c29.922,-0.198 59.821,-0.687 89.728,-1.679c1.343,-0.044 2.686,-0.089 4.069,-0.135c5.514,-0.183 11.029,-0.367 16.543,-0.552c46.445,-1.558 92.853,-2.76 139.327,-2.736c3.413,0.001 6.825,-0.001 10.238,-0.003c36.878,-0.011 73.744,0.767 110.613,1.504c50.573,1.009 101.147,1.811 151.725,2.501c1.18,0.016 2.361,0.032 3.577,0.049c128.139,1.749 256.388,3.446 393.412,-1.14c32.72,-1.084 65.463,-1.33 98.199,-1.534c1.359,-0.009 2.717,-0.017 4.117,-0.026c8.44,-0.051 16.88,-0.084 25.321,-0.099c1.545,-0.004 1.545,-0.004 3.121,-0.008c2.792,-0.006 5.584,-0.003 8.375,0.001c2.29,0.002 2.29,0.002 4.627,0.003c3.44,0.129 3.44,0.129 5.44,1.129c0.211,-3.816 0.279,-7.56 0.266,-11.379c0.002,-1.192 0.004,-2.384 0.006,-3.613c0.001,-2.55 -0.002,-5.1 -0.011,-7.65c-0.01,-3.823 -0,-7.646 0.013,-11.469c0.008,-14.761 -0.648,-29.206 -2.273,-43.889c0.102,-1.831 0.204,-3.662 0.31,-5.549c-2.217,-7.535 -8.521,-5.615 -15.31,-5.451c-3.048,-0.036 -6.097,-0.072 -9.145,-0.115c-4.899,-0.06 -9.797,-0.071 -14.696,-0.084c-5.57,-0.016 -11.141,-0.043 -16.711,-0.07c-4.494,-0.021 -8.989,-0.041 -13.483,-0.061c-46.819,-0.215 -93.605,-0.684 -140.403,-2.169c-2.171,-0.068 -4.342,-0.136 -6.513,-0.204c-4.259,-0.134 -8.519,-0.268 -12.778,-0.402c-1.028,-0.032 -2.057,-0.065 -3.116,-0.098c-2.042,-0.064 -4.084,-0.129 -6.127,-0.193c-31.673,-0.999 -63.342,-1.414 -95.029,-1.603c-2.028,-0.013 -4.056,-0.027 -6.083,-0.04c-59.575,-0.393 -118.974,0.114 -178.512,2.456c-29.545,1.153 -59.104,1.821 -88.663,2.46c-3.959,0.086 -7.918,0.172 -11.876,0.26c-59.268,1.314 -118.521,2.053 -177.804,2.052c-4.365,-0 -8.731,0.001 -13.096,0.003c-40.431,0.004 -80.834,-0.279 -121.236,-1.967c-10.302,-0.401 -20.608,-0.601 -30.916,-0.786c-1.142,-0.021 -2.283,-0.042 -3.46,-0.063c-20.055,-0.357 -40.108,-0.481 -60.165,-0.499c-1.335,-0.003 -2.67,-0.005 -4.045,-0.008c-13.14,-0.02 -26.218,0.042 -39.336,0.893c-5.623,0.355 -11.236,0.498 -16.869,0.553c-1.055,0.029 -2.11,0.058 -3.197,0.088c-3.907,0.033 -14.432,-2.503 -5.74,-5.4c30.227,-2.547 60.698,-2.335 91,-2c1.116,0.012 2.232,0.024 3.382,0.036c23.34,0.259 46.681,0.605 70.007,1.453c41.784,1.509 83.525,1.832 125.334,1.768c5.429,-0.008 10.859,-0.012 16.288,-0.015c60.413,-0.042 120.794,-0.647 181.189,-2.103c5.687,-0.137 11.375,-0.268 17.062,-0.398c31.629,-0.727 63.249,-1.591 94.863,-2.804c72.299,-2.771 144.545,-2.05 216.875,-0.938Z" style="fill-rule:nonzero;"/><path d="M548.938,49.5c1.704,-0.023 1.704,-0.023 3.443,-0.047c8.493,0.041 8.493,0.041 9.619,4.547c-4.248,0.42 -8.188,0.555 -12.438,0.5c-1.795,0.023 -1.795,0.023 -3.627,0.047c-15.194,-0.069 -7.277,-5.186 3.002,-5.047Z" style="fill-rule:nonzero;"/><path d="M996,47c-2.925,0.453 -25.643,3.643 -19,-3c20.857,-2.571 20.857,-2.571 19,3Z" style="fill-rule:nonzero;"/><path d="M945,47c-21,3.443 -21,3.443 -21,-3c3.797,-0.68 3.797,-0.68 8.75,-0.875c1.624,-0.08 3.248,-0.16 4.922,-0.242c9.261,0.251 9.261,0.251 7.328,4.117Z" style="fill-rule:nonzero;"/><path d="M972,52c-4.819,2.409 -8.627,3.509 -7,-3c0.66,-0.33 1.32,-0.66 2,-1c-0.99,-1.32 -1.98,-2.64 -3,-4c7.432,-7.432 8,3.87 8,8Z" style="fill-rule:nonzero;"/><path d="M920,48c-3.889,3.889 -5.87,1.521 -7,-3c3.889,-3.889 5.87,-1.521 7,3Z" style="fill-rule:nonzero;"/><path d="M1049,43c-16,4 -16,4 -16,-3c2.703,-0.68 2.703,-0.68 6.25,-0.875c1.16,-0.08 2.32,-0.16 3.516,-0.242c8.145,0.295 8.145,0.295 6.234,4.117Z" style="fill-rule:nonzero;"/><path d="M1029,39c-5.577,8.002 -11.683,14.269 -15,1c1.32,0.33 2.64,0.66 4,1c5.075,0 13.635,-12.54 11,-2Z" style="fill-rule:nonzero;"/><path d="M1107.5,32.5c1.207,-0.01 2.413,-0.021 3.656,-0.031c4.461,0.833 4.461,4.229 0,5.062c-1.81,-0.015 -1.81,-0.015 -3.656,-0.031c-1.207,0.01 -2.413,0.021 -3.656,0.031c-7.862,-1.469 -0.632,-5.068 3.656,-5.031Z" style="fill-rule:nonzero;"/><path d="M986.062,32.688c1.641,-0.037 3.282,-0.075 4.973,-0.113c3.965,0.426 3.965,0.426 4.965,4.426c-4.242,0.496 -4.242,0.496 -9.875,0.438c-1.854,-0.001 -3.707,-0.003 -5.617,-0.004c-12.804,-1.232 0.535,-4.671 5.555,-4.746Z" style="fill-rule:nonzero;"/><path d="M935.125,32.688c1.838,-0.037 3.676,-0.075 5.57,-0.113c4.305,0.426 4.305,0.426 4.305,4.426c-3.778,0.389 -7.224,0.509 -11,0.438c-1.574,0.011 -1.574,0.011 -3.18,0.021c-14.541,-0.123 -4.698,-4.651 4.305,-4.771Z" style="fill-rule:nonzero;"/><path d="M920,36c-3,3 -3,3 -7,1c1.24,-6.201 4.927,-7.22 7,-1Z" style="fill-rule:nonzero;"/><path d="M159,44c-8.646,5.764 -15.013,-3.455 -10.438,-11.875c9.67,-8.43 14.021,3.568 10.438,11.875Zm-8,-3c6.114,1.529 6,0.048 6,-6c-6.702,-1.34 -6.105,-0.102 -6,6Z" style="fill-rule:nonzero;"/><path d="M117.438,37.5c0.019,1.392 0.039,2.784 0.059,4.219c-0.496,3.281 -0.496,3.281 -4.496,3.281c-0.426,-3.027 -0.426,-3.027 -0.312,-6.938c0.024,-1.288 0.049,-2.576 0.074,-3.902c0.649,-8.613 4.671,-2.307 4.676,3.34Z" style="fill-rule:nonzero;"/><path d="M972,40c-5.675,0.54 -12.437,0.437 -6,-6c-0.99,-0.99 -1.98,-1.98 -3,-3c8.971,-4.485 9,1.716 9,9Z" style="fill-rule:nonzero;"/><path d="M182,38c2.509,0.323 2.509,0.323 2.875,-3.438c1.007,-3.187 3.737,-7.338 6.125,-2.562c-1.329,3.605 -2.732,7.101 -4.25,10.625c-0.409,0.993 -0.817,1.985 -1.238,3.008c-5.037,11.791 -5.037,11.791 -7.512,4.367c0.66,-1.65 1.32,-3.3 2,-5c-1.174,-9.43 -1.174,-9.43 -7,-8c-0.99,-0.99 -1.98,-1.98 -3,-3c-2.779,1.053 -2.779,1.053 -2.938,6.562c-0.927,4.745 -3.48,9.182 -4.602,1.973c-0.043,-2.214 -0.043,-2.214 -0.086,-4.473c-0.054,-1.473 -0.108,-2.947 -0.164,-4.465c2.013,-9.179 19.789,-6.021 19.789,4.402Z" style="fill-rule:nonzero;"/><path d="M132,33c-3,1 -3,1 -7,0c1.115,2.677 1.115,2.677 6,5c1.632,8.158 -3.19,8.964 -10,7c0,-6.164 1.996,-3.894 7,-3c0.319,-2.404 0.319,-2.404 -2.875,-2.875c-11.248,-4.049 1.471,-16.932 6.875,-6.125Z" style="fill-rule:nonzero;"/><path d="M218,37c3.802,0 5.832,-4.941 7.93,-7.812c4.069,-4.299 6.372,-3.697 5.07,2.812c-2.109,2.93 -2.109,2.93 -4.75,5.875c-0.861,0.987 -1.722,1.975 -2.609,2.992c-5.476,4.423 -8.942,0.243 -12.516,-4.18c-0.802,-0.966 -1.604,-1.931 -2.43,-2.926c-7.159,-11.662 6.115,-1.06 9.305,3.238Z" style="fill-rule:nonzero;"/><path d="M1164,29c-3.317,4.975 -5.719,3.125 -7,-2c3.279,-3.279 5.819,-1.542 7,2Z" style="fill-rule:nonzero;"/><path d="M1125.938,37.125c-1.85,5.673 -15.938,11.422 -15.938,2.875c3.332,-0.675 6.665,-1.341 10,-2c1.887,-5.66 -2.544,-6.888 -7.312,-8.062c-8.106,-2.061 13.576,-9.089 13.25,7.188Z" style="fill-rule:nonzero;"/><path d="M1105,30c-3.25,0.188 -3.25,0.188 -7,0c-8.558,2.14 -4.308,8.844 2.625,9.312c4.375,0.688 4.375,0.688 4.375,4.688c-13.366,1.626 -24.385,-11.077 -9.125,-18.375c9.125,-1.825 9.125,-1.825 9.125,4.375Z" style="fill-rule:nonzero;"/><path d="M1049,30c-3.754,0.496 -3.754,0.496 -8.562,0.438c-1.589,-0.001 -3.179,-0.003 -4.816,-0.004c-9.485,-1.136 13.379,-11.542 13.379,-0.434Z" style="fill-rule:nonzero;"/><path d="M559.496,26.949c-0.019,1.234 -0.039,2.467 -0.059,3.738c-0.001,1.221 -0.003,2.441 -0.004,3.699c-1.502,12.52 -15.57,19.206 -20.434,4.613c-0.17,-2.371 -0.266,-4.748 -0.312,-7.125c-0.037,-1.261 -0.075,-2.521 -0.113,-3.82c0.546,-3.919 3.931,-6.487 5,-1.23c0.056,1.912 0.056,1.912 0.113,3.863c0.291,8.131 3.038,18.437 10.312,6.312c0.388,-3.753 0.438,-7.439 0.496,-11.211c0.945,-5.231 4.363,-2.627 5,1.16Z" style="fill-rule:nonzero;"/><path d="M141,29c1.65,0.33 3.3,0.66 5,1c0,3 0,3 -4,3c0,3.094 0.019,6.192 0.25,9.277c-0.25,2.723 -0.25,2.723 -4.25,3.723c-0.294,-3.074 -0.568,-6.155 -0.629,-9.242c-0.001,-3.133 -0.001,-3.133 -3.371,-3.758c0,-4 0,-4 3,-6c3.159,-4.738 4,-2.792 4,2Z" style="fill-rule:nonzero;"/><path d="M118,24c-1,3 -1,3 -4,3c0,-4 0,-4 4,-3Z" style="fill-rule:nonzero;"/><path d="M987.188,21.375c1.847,0.135 1.847,0.135 3.73,0.273c5.082,0.58 5.082,0.58 5.082,4.352c-4.305,0.328 -4.305,0.328 -9.875,0.25c-1.833,-0.015 -3.666,-0.031 -5.555,-0.047c-6.87,-0.305 -6.87,-0.305 -5.57,-4.203c4.516,-0.903 7.662,-0.978 12.188,-0.625Z" style="fill-rule:nonzero;"/><path d="M934.5,21.5c1.949,-0.01 3.898,-0.021 5.906,-0.031c4.594,0.531 4.594,0.531 4.594,4.531c-4.594,0.531 -4.594,0.531 -10.5,0.5c-1.949,0.01 -3.898,0.021 -5.906,0.031c-12.479,-1.443 0.85,-5.058 5.906,-5.031Z" style="fill-rule:nonzero;"/><path d="M500.5,21.5c1.578,-0.01 3.156,-0.021 4.781,-0.031c3.719,0.531 3.719,0.531 3.719,4.531c-1.299,-0.062 -2.599,-0.124 -3.938,-0.188c-5.831,0.269 -4.821,1.706 -5.062,7.188c-0.603,2.152 -1.229,4.298 -1.875,6.438c-2.236,6.379 -2.236,6.379 3.875,5.562c0,5.388 -4.052,4.218 -8.562,4.312c-1.177,0.037 -2.354,0.075 -3.566,0.113c-6.202,-0.92 -4.448,-4.31 1.129,-5.426c2.131,-4.115 2.131,-4.115 3.625,-9.062c0.57,-1.662 1.14,-3.323 1.727,-5.035c1.444,-4.724 1.444,-4.724 -4.352,-3.902c0,-6.267 2.937,-4.536 8.5,-4.5Z" style="fill-rule:nonzero;"/><path d="M451,33c1.32,1.32 2.64,2.64 4,4c2.067,10.334 -10.798,15.468 -19,10c-0.328,-3.668 -0.328,-3.668 -0.25,-8.188c0.015,-1.479 0.031,-2.957 0.047,-4.48c0.867,-18.499 19.07,-12.932 15.203,-1.332Zm-10,-1c3.875,-0.775 11.149,-3.617 3.625,-6.125c-4.624,-0.445 -4.624,-0.445 -3.625,6.125Zm-1,13c5.969,-0.294 17.686,-3.657 7,-9c-6.823,0 -7,2.645 -7,9Z" style="fill-rule:nonzero;"/><path d="M95.562,28.125c0.689,7.677 4.118,5.85 10.438,3.875c0.584,-3.415 0.584,-3.415 0,-7c6.733,-6.733 4.268,4.315 4.312,9.062c0.029,1.045 0.058,2.09 0.088,3.166c0.066,7.771 0.066,7.771 -4.4,7.771c0.124,-1.506 0.248,-3.011 0.375,-4.562c-0.621,-7.354 -4.5,-5.323 -10.375,-3.438c-1.075,4.511 -1.075,4.511 -1,9c-6.402,0 -3.887,-8.993 -3.625,-13.688c0.09,-1.716 0.18,-3.431 0.273,-5.199c0.61,-7.135 4.525,-6.143 3.914,1.012Z" style="fill-rule:nonzero;"/><path d="M918,27c-4,0 -4,0 -5,-5c5.134,-5.134 5.703,1.483 5,5Z" style="fill-rule:nonzero;"/><path d="M376,28c-1.276,6.379 -3.22,9.695 -10,8c1,-3 1,-3 3,-4c-5.119,-0.28 -25.151,4.924 -13,11c3.928,0.238 7.856,0.383 11.789,0.523c3.842,0.57 5.056,2.554 1.211,4.477c-12.27,1.034 -30.835,-6.607 -15,-19c3.738,-1.384 7.105,-2.013 11.062,-2.5c3.753,-0.228 3.753,-0.228 0.938,-2.5c0,-7.891 8.005,1.588 10,4Z" style="fill-rule:nonzero;"/><path d="M306,26c2.591,0.812 2.591,0.812 6,1c12.198,1.466 22.215,14.516 6.938,21.375c-14.938,2.371 -14.938,2.371 -14.938,-4.375c2.962,-0.065 5.929,-0.111 8.887,0.055c10.653,-0.187 11.651,-8.24 2.113,-12.055c-9.058,-1.844 -9.058,-1.844 -7,4c-24.955,6.239 5.509,-25.017 -2,-10Z" style="fill-rule:nonzero;"/><path d="M1029,25c-4.756,6.91 -14,14.204 -14,0c4,2 4,2 4,4c1.714,-1.618 3.371,-3.297 5,-5c4.131,-4.131 6.749,-5.994 5,1Z" style="fill-rule:nonzero;"/><path d="M1164.312,17.875c1.461,-0.003 2.921,-0.005 4.426,-0.008c12.552,0.391 14.685,3.199 14.574,16.07c-0.004,1.948 -0.008,3.896 -0.012,5.902c-0.758,13.007 -5.554,11.342 -16.676,11.348c-1.258,0.012 -2.516,0.024 -3.812,0.037c-1.204,0.002 -2.408,0.004 -3.648,0.006c-1.109,0.004 -2.218,0.008 -3.361,0.012c-13.778,-1.194 -9.835,-33.4 8.509,-33.368Zm-10.688,14.438c-0.049,1.708 -0.098,3.416 -0.148,5.176c0.872,5.851 2.365,2.413 5.523,-0.488c1.341,0.186 2.681,0.371 4.062,0.562c5.131,0.57 5.092,-0.637 7.938,-4.562c5,1 5,1 7,3c0.53,-2.78 0.53,-2.78 0.562,-6.312c0.063,-1.213 0.126,-2.426 0.191,-3.676c-1.162,-4.642 -3.251,-3.91 -7.754,-4.012c-1.369,-0.044 -2.738,-0.088 -4.148,-0.133c-1.395,0.003 -2.79,0.005 -4.227,0.008c-1.41,-0.003 -2.82,-0.005 -4.273,-0.008c-6.537,0.259 -4.614,4.763 -4.727,10.445Zm16.562,7.25c-3.369,3.754 -5.823,1.892 -10.188,0.438c-8.272,8.272 -2.124,8.043 6.188,7.812c1.679,0.028 1.679,0.028 3.393,0.057c9.368,-0.108 11.636,-3.653 4.42,-10.869c-2.331,-0.272 -2.331,-0.272 -3.812,2.562Z" style="fill-rule:nonzero;"/><path d="M970,28c-4.193,-1.048 -7.994,-7.006 -4,-11c5.834,0 4.384,6.39 4,11Z" style="fill-rule:nonzero;"/></g></svg>