<?xml version="1.0" encoding="UTF-8" standalone="no"?><!DOCTYPE svg PUBLIC "-//W3C//DTD SVG 1.1//EN" "http://www.w3.org/Graphics/SVG/1.1/DTD/svg11.dtd"><svg width="100%" height="100%" viewBox="0 0 864 343" version="1.1" xmlns="http://www.w3.org/2000/svg" xmlns:xlink="http://www.w3.org/1999/xlink" xml:space="preserve" xmlns:serif="http://www.serif.com/" style="fill-rule:evenodd;clip-rule:evenodd;stroke-linejoin:round;stroke-miterlimit:2;"><rect id="Artboard2" x="0" y="0" width="864" height="343" style="fill:none;"/><clipPath id="_clip1"><rect x="0" y="0" width="864" height="343"/></clipPath><g clip-path="url(#_clip1)"><g id="Artboard1"><path d="M859.401,256.423c17.321,-1.389 34.642,-2.791 51.961,-4.203c20.414,-1.664 40.828,-3.322 61.244,-4.969c2.183,-0.176 4.365,-0.352 6.548,-0.528c1.073,-0.086 2.145,-0.173 3.249,-0.262c7.436,-0.6 14.871,-1.204 22.307,-1.81c10.003,-0.814 20.008,-1.619 30.012,-2.415c3.629,-0.291 7.258,-0.584 10.886,-0.882c18.938,-1.55 37.867,-2.817 56.855,-3.568c2.631,-0.122 2.631,-0.122 5.314,-0.247c1.6,-0.054 3.2,-0.107 4.848,-0.162c1.423,-0.054 2.846,-0.109 4.312,-0.165c4.236,0.53 5.285,3.596 1.066,5.338c-4.355,0.632 -8.594,0.791 -12.996,0.907c-43.478,1.405 -86.816,5.177 -130.076,9.58c-24.137,2.446 -48.29,4.343 -72.501,5.888c-98.21,6.286 -196.219,14.965 -294.031,25.75c-108.153,11.905 -216.548,21.283 -324.991,30.087c-3.585,0.291 -7.169,0.583 -10.755,0.874c-49.862,4.06 -99.73,8.009 -149.633,11.544c-2.972,0.21 -5.943,0.422 -8.915,0.634c-17.259,1.225 -34.517,2.441 -51.803,3.24c-1.065,0.049 -2.131,0.099 -3.23,0.149c-2.987,0.126 -5.974,0.218 -8.962,0.311c-1.201,0.059 -2.402,0.119 -3.639,0.18c-9.362,0.325 -9.362,0.325 -9.723,-4.111c4.272,-0.693 8.314,-1.089 12.621,-1.338c1.706,-0.123 1.706,-0.123 3.446,-0.251c7.193,-0.496 14.389,-0.822 21.592,-1.117c23.442,-0.989 46.833,-2.809 70.232,-4.52c4.735,-0.344 9.471,-0.685 14.206,-1.025c61.952,-4.454 123.837,-9.694 185.71,-15.119c1.663,-0.146 3.325,-0.291 5.039,-0.441c49.123,-4.307 98.233,-8.727 147.323,-13.381c4.086,-0.387 8.172,-0.77 12.26,-1.154c7.878,-0.74 15.754,-1.49 23.629,-2.249c1.367,-0.131 2.734,-0.263 4.142,-0.399c17.797,-1.721 35.564,-3.624 53.324,-5.697c89.509,-10.365 179.326,-17.27 269.131,-24.47l-0.002,0.001Z" style="fill-rule:nonzero;stroke:#000;stroke-width:1.5px;"/><path d="M339.421,261.866c-6.227,2.105 -4.172,-0.776 -3.476,-5.737c4.263,-5.017 3.97,3.545 3.476,5.737Z" style="fill-rule:nonzero;stroke:#000;stroke-width:1.5px;"/><path d="M427.481,246.688c-0.835,2.074 -0.835,2.074 -4.903,1.401c0.711,-6.083 2.577,-6.859 4.903,-1.401Z" style="fill-rule:nonzero;stroke:#000;stroke-width:1.5px;"/><path d="M380.393,247.502c-0.592,5.065 -0.592,5.065 -3.663,4.311c0.592,-5.065 0.592,-5.065 3.663,-4.311Z" style="fill-rule:nonzero;stroke:#000;stroke-width:1.5px;"/><path d="M539.463,229.566c0.551,6.781 -4.076,4.9 -9.643,4.796c-0.551,-6.781 4.076,-4.9 9.643,-4.796Z" style="fill-rule:nonzero;stroke:#000;stroke-width:1.5px;"/><path d="M769.356,218.922c-7.186,8.456 -16.513,1.572 -13.337,-8.259c5.627,-11.279 14.717,-1.454 13.337,8.259Zm-9.132,-1.265c6.832,0.799 5.989,-0.378 5.495,-6.466c-6.247,-3.47 -5.946,0.91 -5.495,6.466Z" style="fill-rule:nonzero;stroke:#000;stroke-width:1.5px;"/><path d="M753.96,216.974c0.038,1.411 0.077,2.821 0.116,4.275c-0.572,8.6 -5.28,13.856 -13.893,9.072c-0.342,-4.206 4.537,-3.378 7.731,-3.638c2.554,-4.76 2.554,-4.76 -0.906,-3.438c-21.055,4.888 6.416,-35.54 6.953,-6.271l-0.001,0Zm-10.68,2.059c7.47,0.873 6.877,-1.794 6.329,-8.54c-6.326,0.514 -6.826,2.429 -6.329,8.54Z" style="fill-rule:nonzero;stroke:#000;stroke-width:1.5px;"/><path d="M425.432,233.811c-0.592,5.065 -0.592,5.065 -3.663,4.311c-0.324,-3.987 -0.324,-3.987 3.663,-4.311Z" style="fill-rule:nonzero;stroke:#000;stroke-width:1.5px;"/><path d="M737.218,218.522c0.505,1.118 1.009,2.236 1.529,3.387c-0.13,6.966 -11.999,3.491 -15.24,0.736c-2.638,-14.556 12.616,-20.614 13.711,-4.123Zm-6.734,3.557c4.892,-2.085 2.953,-5.582 2.181,-10.21c-6.843,0.556 -8.435,6.737 -2.181,10.21Z" style="fill-rule:nonzero;stroke:#000;stroke-width:1.5px;"/><path d="M707.746,213.893c-2.909,1.24 -2.909,1.24 -7.974,0.648c0.275,3.392 3.338,2.811 6.304,3.501c8.781,7.462 -2.536,9.632 -8.242,9.699c-4.761,-6.021 2.463,-4.953 6.653,-4.554c-0.275,-3.392 -3.338,-2.811 -6.304,-3.501c-7.084,-6.019 6.313,-15.406 9.562,-5.793Z" style="fill-rule:nonzero;stroke:#000;stroke-width:1.5px;"/><path d="M692.042,218.178c-3.744,3.314 -3.744,3.314 -8.647,4.715c-0.097,2.893 -0.097,2.893 5.1,1.029c5.641,-0.959 7.086,-0.081 3.359,4.304c-32.983,5.374 3.386,-29.383 0.187,-10.048Zm-8.97,0.729c5.292,-0.647 5.292,-0.647 4.741,-3.395c-4.031,0.106 -4.031,0.106 -4.741,3.395Z" style="fill-rule:nonzero;stroke:#000;stroke-width:1.5px;"/><path d="M652.86,223.743c0.449,3.254 0.449,3.254 4.702,2.252c0.018,-1.822 0.035,-3.645 0.053,-5.522c0.053,-5.522 0.053,-5.522 4.04,-5.846c0.775,3.413 0.775,3.413 1.079,7.876c0.118,1.468 0.236,2.938 0.357,4.451c-0.335,8.613 -10.556,5.13 -14.419,0.768c-1.492,-11.83 2.75,-18.54 4.188,-3.977l-0,-0.001Z" style="fill-rule:nonzero;stroke:#000;stroke-width:1.5px;"/><path d="M636.737,216.65c1.484,-0.462 1.484,-0.462 2.996,-0.934c6.43,-1.216 6.802,5.061 7.204,9.949c0.115,1.177 0.23,2.353 0.349,3.565c-0.283,2.637 -0.283,2.637 -4.351,1.964c-0.665,-3.621 -1.296,-7.249 -1.887,-10.883c-5.166,0.42 -3.416,5.357 -3.496,9.788c-1.058,5.284 -4.496,2.317 -5.278,-1.393c-0.074,-1.37 -0.147,-2.74 -0.224,-4.152c-0.087,-1.369 -0.173,-2.738 -0.263,-4.148c-0.045,-4.583 -0.045,-4.583 4.95,-3.757Z" style="fill-rule:nonzero;stroke:#000;stroke-width:1.5px;"/><path d="M629.807,224.737c0.13,1.366 0.261,2.731 0.395,4.138c-0.224,3.373 -0.224,3.373 -4.13,4.694c-0.697,-3.321 -0.697,-3.321 -0.948,-7.824c-0.096,-1.479 -0.191,-2.959 -0.29,-4.483c-0.149,-9.634 4.551,-1.665 4.974,3.476l-0.001,0Z" style="fill-rule:nonzero;stroke:#000;stroke-width:1.5px;"/><path d="M604.842,219.24c1.618,-0.462 3.236,-0.925 4.903,-1.401c0.685,0.275 1.369,0.551 2.074,0.835c0.946,-0.326 1.893,-0.65 2.868,-0.985c7.915,-1.298 7.891,10.667 8.395,16.123c-6.7,0.544 -5.436,-4.813 -6.871,-10.478c-5.786,-1.42 -2.554,5.221 -1.96,9.409c-0.059,2.795 -0.059,2.795 -4.127,2.122c-0.643,-3.288 -1.245,-6.584 -1.806,-9.886c-3.965,-1.5 -3.965,-1.5 -3.062,4.764c-0.115,5.527 -0.115,5.527 -4.183,4.855c-0.695,-3.299 -0.695,-3.299 -0.918,-7.45c-0.087,-1.369 -0.173,-2.738 -0.263,-4.148c-0.045,-4.583 -0.045,-4.583 4.95,-3.757Z" style="fill-rule:nonzero;stroke:#000;stroke-width:1.5px;"/><path d="M379.583,237.535c-0.673,4.068 -0.673,4.068 -3.663,4.311c0.592,-5.065 0.592,-5.065 3.663,-4.311Z" style="fill-rule:nonzero;stroke:#000;stroke-width:1.5px;"/><path d="M178.059,263.935c-6.704,7.89 -12.826,2.67 -13.524,-5.925c7.034,-8.278 15.496,-4.597 13.524,5.925Z" style="fill-rule:nonzero;"/><path d="M59.232,258.536c0.205,2.521 -8.032,2.547 -9.805,2.803c-0.346,-4.266 6.725,-2.669 9.805,-2.803Z" style="fill-rule:nonzero;"/><path d="M47.271,259.507c0.081,0.997 0.081,0.997 -4.903,1.401c-0.081,-0.997 -0.081,-0.997 4.903,-1.401Z" style="fill-rule:nonzero;"/><path d="M671.217,208.833l0.324,3.987c1.671,0.195 3.343,0.391 5.065,0.592c0.243,2.99 0.243,2.99 -4.741,3.395c0.436,1.289 0.872,2.578 1.321,3.906c1.22,7.78 1.22,7.78 -3.258,9.294c-1.401,-4.903 -1.401,-4.903 -1.563,-9.216c0.04,-4.371 0.04,-4.371 -4.473,-3.337c-0.324,-3.987 4.255,-9.375 7.326,-8.621Z" style="fill-rule:nonzero;stroke:#000;stroke-width:1.5px;"/><path d="M501.766,229.43c4.059,10.354 3.338,0.647 4.091,-4.012c2.734,-9.787 6.367,-1.019 7.743,3.804c0.464,1.578 0.928,3.155 1.408,4.781c2.611,10.634 2.611,10.634 -2.481,9.792c-0.948,-2.923 -1.86,-5.859 -2.722,-8.809c-1.907,3.043 -1.907,3.043 -2.365,6.4c-2.035,6.59 -5.083,2.707 -6.853,-1.763c-3.933,-8.436 -3.284,3.033 -3.928,6.464c-6.117,-1.502 -3.547,-9.977 -2.859,-15.13c0.156,-1.23 0.312,-2.459 0.473,-3.727c1.811,-9.197 6.008,-3.588 7.492,2.202l0.002,-0.002Z" style="fill-rule:nonzero;stroke:#000;stroke-width:1.5px;"/><path d="M461.638,234.884c-3.225,3.523 -3.225,3.523 -6.491,6.547c-1.454,2.68 -1.454,2.68 3.121,2.129c4.099,0.294 4.099,0.294 4.423,4.281c-13.42,1.804 -18.911,-3.776 -6.117,-13.549c1.222,-7.385 -2.652,-3.338 -7.139,-1.427c-4.118,-9.663 15.964,-10.954 12.203,2.019Z" style="fill-rule:nonzero;stroke:#000;stroke-width:1.5px;"/><path d="M444.856,238.253c0.284,0.949 0.569,1.899 0.861,2.878c2.202,10.704 -8.682,11.523 -14.248,5.233c1.029,-2.557 3.677,-4.135 3.987,-0.324c9.139,-0.742 5.755,-5.025 -0.567,-6.977c-0.243,-2.99 -0.243,-2.99 2.712,-3.67c3.629,-0.472 3.629,-0.472 2.621,-4.79c-2.614,0.851 -5.218,1.732 -7.812,2.641c-3.451,-8.1 11.297,-9.139 12.446,5.009Z" style="fill-rule:nonzero;stroke:#000;stroke-width:1.5px;"/><path d="M414.674,235.688c-0.493,4.965 -0.493,4.965 3.432,6.744c-0.754,3.071 -0.754,3.071 -2.747,3.233l0.486,5.98c-3.987,0.324 -3.987,0.324 -4.473,-5.657c-4.464,0.112 -4.464,0.112 -8.97,0.729c-1.868,-4.384 0.139,-6.356 2.285,-10.469c0.679,-1.343 1.36,-2.687 2.06,-4.071c4.622,-6.262 7.907,-2.582 7.927,3.511Zm-7.613,6.638c5.038,0.26 5.038,0.26 3.501,-6.304c-3.176,0.258 -3.708,3.758 -3.501,6.304Z" style="fill-rule:nonzero;stroke:#000;stroke-width:1.5px;"/><path d="M398.764,238.987c-2.035,2.736 -2.035,2.736 -4.579,5.388c-5.533,6.511 -2.349,5.402 4.392,4.66c5.191,6.565 -7.13,5.339 -11.637,4.958c-2.48,-5.55 0.04,-8.434 4.012,-12.365c5.206,-5.824 5.206,-5.824 -1.482,-5.899c-1.4,1.107 -1.4,1.107 -2.828,2.236c-3.182,-9.413 11.147,-10.988 12.123,1.022Z" style="fill-rule:nonzero;stroke:#000;stroke-width:1.5px;"/><path d="M369.859,241.334c-2.035,2.736 -2.035,2.736 -4.579,5.388c-6.096,7.015 -1.316,5.299 5.388,4.579c2.277,5.343 -1.57,4.359 -6.13,4.824c-1.179,0.133 -2.358,0.267 -3.573,0.404c-10.676,-0.689 0.723,-12.665 3.829,-15.788c1.405,-5.05 1.405,-5.05 -3.068,-2.259c-3.99,1.829 -3.99,1.829 -5.311,-2.077c7.306,-6.468 12.667,-4.624 13.443,4.928l0,0.001Z" style="fill-rule:nonzero;stroke:#000;stroke-width:1.5px;"/><path d="M320.939,244.304c2.016,0.217 4.038,0.377 6.061,0.511c6.958,7.862 3.34,14.778 -6.76,15.598c-15.831,-13.453 11.631,-33.453 0.698,-16.109Zm-1.103,11.126c6.928,0.81 7.412,0.241 5.495,-6.466c-6.665,-0.94 -6.665,-0.94 -5.495,6.466Z" style="fill-rule:nonzero;stroke:#000;stroke-width:1.5px;"/><path d="M312.049,246.03c-2.381,2.623 -4.851,5.171 -7.407,7.625c-1.45,2.67 -1.45,2.67 3.058,2.134c3.512,0.243 9.054,3.333 2.815,4.839c-1.208,0.061 -2.416,0.121 -3.661,0.184c-1.202,0.074 -2.404,0.146 -3.642,0.222c-10.376,0.012 -0.446,-11.389 2.857,-14.517c1.247,-7.544 -3.406,-2.945 -8.136,-1.346c1.306,-11.172 13.207,-10.331 14.116,0.86l-0,-0.001Z" style="fill-rule:nonzero;stroke:#000;stroke-width:1.5px;"/><path d="M294.164,260.525c-13.223,8.011 -17.705,-9.197 -12.583,-19.044c13.393,-10.59 17.889,9.982 12.583,19.044Zm-7.139,-1.427c7.542,-2.55 7.233,-10.528 2.692,-16.271c-10.301,0.837 -6.751,10.603 -2.692,16.271Z" style="fill-rule:nonzero;stroke:#000;stroke-width:1.5px;"/><path d="M277.245,249.859c-3.616,4.118 -3.616,4.118 -7.407,7.625c-1.481,2.801 -1.481,2.801 3.578,1.591c4.557,-0.245 4.557,-0.245 4.881,3.742c-11.328,3.521 -19.184,-1.223 -8.945,-11.313c7.152,-8.417 1.552,-6.636 -5.307,-3.582c-3.95,-6.521 14.728,-13.245 13.2,1.938Z" style="fill-rule:nonzero;stroke:#000;stroke-width:1.5px;"/><path d="M244.166,262.579c-2.779,3.356 -10.456,9.71 -8.97,0.729c1.873,-1.221 3.787,-2.382 5.737,-3.476c1.374,-2.709 1.374,-2.709 -2.074,-0.835c-26.266,-8.109 22.689,-28.915 5.307,3.582Zm-7.706,-8.404c5.622,1.38 5.907,0.136 6.572,-5.55c-7.049,-3.487 -8.676,-1.809 -6.572,5.55Z" style="fill-rule:nonzero;stroke:#000;stroke-width:1.5px;"/><path d="M210.43,254.847c-0.543,6.273 -0.543,6.273 2.757,9.245c0.528,6.497 -3.191,4.877 -8.647,4.715c-0.324,-3.987 -0.324,-3.987 2.666,-4.23c0.283,-3 0.283,-3 -0.09,-6.514c-0.079,-1.205 -0.156,-2.408 -0.237,-3.649c-0.413,-3.478 -0.413,-3.478 -4.711,-2.471c4.772,-11.858 7.728,-6.375 8.262,2.903l-0.001,0Z" style="fill-rule:nonzero;stroke:#000;stroke-width:1.5px;"/><path d="M628.52,214.307c-4.068,-0.673 -4.068,-0.673 -4.311,-3.663c3.202,-1.94 5.708,0.191 4.311,3.663Z" style="fill-rule:nonzero;stroke:#000;stroke-width:1.5px;"/><path d="M563.387,230.414c-0.051,4.541 -0.051,4.541 3.635,4.941c-2.704,4.869 -9.489,6.697 -10.048,-0.187l2.99,-0.243c-0.127,-7.471 -0.127,-7.471 -4.042,-12.714c2.908,-17.578 7.14,1.784 7.466,8.204Z" style="fill-rule:nonzero;stroke:#000;stroke-width:1.5px;"/><path d="M486.88,236.847c-1.618,0.462 -3.236,0.925 -4.903,1.401c-0.193,2.68 -0.311,5.368 -0.349,8.055c-6.165,0.501 -4.863,-9.639 -4.999,-14.455c-0.051,-1.306 -0.101,-2.612 -0.153,-3.958c1.235,-10.605 21.65,-4.278 10.404,8.957l-0.001,-0.001Zm-5.226,-2.585c5.491,-1.8 5.491,-1.8 4.498,-6.385c-7.636,-2.358 -5.981,0.222 -4.498,6.385Z" style="fill-rule:nonzero;stroke:#000;stroke-width:1.5px;"/><path d="M584.128,235.972c-13.412,8.125 -16.903,-10.311 -12.583,-19.044c14.758,-10.568 17.437,9.23 12.583,19.044Zm-7.22,-2.424c8.062,-2.304 7.882,-10.933 1.695,-16.19c-9.01,0.732 -4.592,12.145 -1.695,16.19Z" style="fill-rule:nonzero;stroke:#000;stroke-width:1.5px;"/><path d="M255.057,262.611c-2.262,4.573 -5.976,4.779 -5.147,-1.126c7.915,-25.1 13.426,-24.626 5.147,1.126Z" style="fill-rule:nonzero;stroke:#000;stroke-width:1.5px;"/><path d="M223.042,265.368c-1.275,2.643 -4.314,6.066 -4.597,0.918c0.833,-4.774 2.293,-9.188 3.835,-13.782c0.582,-1.751 1.164,-3.501 1.764,-5.305c5.635,-15.907 0.933,12.752 -1.002,18.168l-0.001,0.001Z" style="fill-rule:nonzero;stroke:#000;stroke-width:1.5px;"/><path d="M178.868,273.902c-16.911,7.066 -29.36,-12.969 -16.027,-25.16c17.293,-11.487 30.604,12.258 16.027,25.16Zm-12.284,-3.015c17.517,2.534 20.326,-13.775 6.274,-21.579c-12.663,1.028 -15.442,13.788 -6.274,21.579Z" style="fill-rule:nonzero;"/><path d="M63.73,252.151c-0.604,0.711 -1.209,1.423 -1.832,2.155c-3.152,-1.751 -3.152,-1.751 1.832,-2.155Z" style="fill-rule:nonzero;"/><path d="M73.535,249.348c-0.93,5.628 -2.375,4.955 -7.65,4.634c-2.249,-6.653 2.311,-4.793 7.65,-4.634Z" style="fill-rule:nonzero;"/><path d="M62.571,250.238c0.081,0.997 0.081,0.997 -5.899,1.482l0.243,2.99c-16.118,3.154 -7.901,-6.543 5.657,-4.473Z" style="fill-rule:nonzero;"/><path d="M66.396,247.921c-9.926,1.314 -9.926,1.314 -10.129,-1.184c8.684,-1.2 8.684,-1.2 10.129,1.184Z" style="fill-rule:nonzero;"/><path d="M54.274,246.899c0.313,3.854 -3.882,2.532 -6.815,2.56c-0.313,-3.854 3.882,-2.532 6.815,-2.56Z" style="fill-rule:nonzero;"/><path d="M49.801,241.243c0.341,4.194 -5.776,2.644 -8.809,2.722c-0.341,-4.194 5.776,-2.644 8.809,-2.722Z" style="fill-rule:nonzero;"/><path d="M58.801,236.248c2.107,-0.179 2.107,-0.179 4.258,-0.362c3.363,-0.006 3.363,-0.006 3.524,1.987c-2.742,0.49 -2.742,0.49 -6.334,0.765c-1.769,0.152 -1.769,0.152 -3.573,0.306c-8.298,-0.051 -3.243,-2.28 2.125,-2.697Z" style="fill-rule:nonzero;"/><path d="M50.474,237.175c-3.825,2.317 -3.825,2.317 -9.805,2.803c-0.357,-4.392 6.678,-2.714 9.805,-2.803Z" style="fill-rule:nonzero;"/><path d="M102.976,228.898c0.162,1.993 0.162,1.993 -4.822,2.398c-0.162,-1.993 -0.162,-1.993 4.822,-2.398Z" style="fill-rule:nonzero;"/><path d="M95.999,229.464c0.162,1.993 0.162,1.993 -4.822,2.398c-0.162,-1.993 -0.162,-1.993 4.822,-2.398Z" style="fill-rule:nonzero;"/><path d="M89.184,232.024c-0.685,-0.275 -1.369,-0.551 -2.074,-0.835c0.916,-1.078 0.916,-1.078 2.074,0.835Z" style="fill-rule:nonzero;"/><path d="M86.113,231.27c-1.289,0.436 -2.578,0.872 -3.906,1.321c-0.162,-1.993 -0.162,-1.993 3.906,-1.321Z" style="fill-rule:nonzero;"/><path d="M79.136,231.837c0.081,0.997 0.081,0.997 -4.903,1.401c-0.162,-1.993 -0.162,-1.993 4.903,-1.401Z" style="fill-rule:nonzero;"/><path d="M73.237,233.32c-11.178,1.421 -11.178,1.421 -10.129,-1.184c8.689,-1.193 8.689,-1.193 10.129,1.184Z" style="fill-rule:nonzero;"/><path d="M61.276,234.291c-2.785,0.493 -2.785,0.493 -6.52,0.78c-1.235,0.105 -2.469,0.211 -3.74,0.32c-6.425,-0.113 7.183,-6.18 10.261,-1.1Z" style="fill-rule:nonzero;"/><path d="M47.322,235.424c-3.406,0.527 -3.406,0.527 -6.977,0.567c-0.376,-4.632 5.122,-3.628 6.977,-0.567Z" style="fill-rule:nonzero;"/><path d="M54.81,228.796c-7.135,0.959 -7.135,0.959 -6.142,-1.508c6.03,0.124 6.03,0.124 6.142,1.508Z" style="fill-rule:nonzero;"/><path d="M46.755,228.447c-1.462,3.632 -4.516,2.098 -7.893,1.644c-0.339,-4.171 5.048,-1.95 7.893,-1.644Z" style="fill-rule:nonzero;"/><path d="M109.317,215.089c1.711,-0.047 1.711,-0.047 3.457,-0.093c8.014,-0.055 8.014,-0.055 9.489,4.309l1.993,-0.162c0.632,2.901 0.632,2.901 1.167,6.987c0.2,1.491 0.402,2.982 0.608,4.519c0.203,1.582 0.405,3.163 0.615,4.792c0.406,3.059 0.813,6.118 1.22,9.177c0.2,1.539 0.399,3.077 0.605,4.662c0.586,4.392 1.232,8.773 1.884,13.156c1.153,8.159 1.766,16.283 2.167,24.51c0.124,2.037 0.124,2.037 0.252,4.114c0.066,1.305 0.132,2.61 0.2,3.954c0.093,1.745 0.093,1.745 0.187,3.524c-0.61,10.062 -7.382,9.74 -15.567,10.751c-1.308,0.176 -2.616,0.353 -3.964,0.535c-71.707,9.255 -71.707,9.255 -73.09,-4.972c-0.173,-1.712 -0.346,-3.424 -0.526,-5.187c-0.173,-1.808 -0.347,-3.615 -0.525,-5.477c-0.347,-3.536 -0.699,-7.074 -1.053,-10.61c-0.152,-1.579 -0.305,-3.157 -0.462,-4.783c-0.463,-4.384 -0.463,-4.384 -1.363,-8.41c-1.578,-7.598 -1.931,-15.374 -2.561,-23.098c-0.153,-1.736 -0.306,-3.473 -0.464,-5.261c-0.137,-1.659 -0.274,-3.32 -0.415,-5.03c-0.127,-1.515 -0.254,-3.029 -0.385,-4.59c-0.136,-7.83 -0.136,-7.83 3.596,-8.133l-0.162,-1.993c2.789,-0.639 2.789,-0.639 6.738,-1.182c2.167,-0.302 2.167,-0.302 4.377,-0.611c2.347,-0.308 2.347,-0.308 4.74,-0.623c2.383,-0.319 2.383,-0.319 4.815,-0.645c17.453,-2.285 34.817,-3.812 52.424,-4.129l0.002,-0Zm-49.927,7.844c-22.412,0.512 -22.412,0.512 -22.027,20.296c1.358,5.032 1.724,10.16 2.245,15.333c0.726,5.953 1.525,11.883 2.573,17.788c0.689,4.354 1.191,8.673 1.528,13.067c0.093,1.18 0.187,2.361 0.282,3.577c0.182,2.399 0.359,4.799 0.528,7.199c1.192,16.227 19.988,9.241 33.21,8.139c2.985,-0.247 5.969,-0.485 8.955,-0.721c50.259,-4.115 43.123,-21.137 36.047,-66.641c-0.19,-1.228 -0.381,-2.454 -0.577,-3.72c-0.19,-1.162 -0.379,-2.324 -0.575,-3.522c-0.418,-3.299 -0.418,-3.299 -0.347,-9.133c-1.395,-6.55 -4.461,-5.242 -10.667,-4.969c-1.03,0.035 -2.059,0.071 -3.119,0.107c-3.399,0.139 -6.786,0.36 -10.18,0.597c-1.127,0.069 -2.253,0.139 -3.414,0.21c-5.93,0.374 -11.836,0.854 -17.748,1.449c-5.58,0.552 -11.108,0.805 -16.713,0.942l-0.001,0.001Z" style="fill-rule:nonzero;stroke:#000;stroke-width:1.5px;"/><path d="M111.613,149.939c-1.342,-0.222 -2.685,-0.444 -4.068,-0.673c-3.918,0.318 -2.904,1.649 -2.851,5.812c-0.357,4.905 -3.496,7.804 -5.123,1.831c-0.103,-1.286 -0.206,-2.573 -0.313,-3.897c-0.126,-1.282 -0.252,-2.564 -0.382,-3.884c0.371,-3.201 0.371,-3.201 5.274,-4.602c6.282,-2.676 6.919,-1.286 7.463,5.414l-0.001,0Z" style="fill-rule:nonzero;stroke:#000;stroke-width:0.9px;"/><path d="M98.064,156.056c0.436,1.289 0.872,2.578 1.321,3.906c-31.516,10.655 -3.211,-33.781 -1.321,-3.906Zm-9.967,0.809c7.879,0.921 6.16,-2.082 4.336,-8.378c-5.255,0.427 -4.675,4.198 -4.336,8.378Z" style="fill-rule:nonzero;stroke:#000;stroke-width:0.9px;"/><path d="M76.971,155.763c-0.96,0.409 -1.92,0.818 -2.909,1.24c-1.481,2.858 -1.481,2.858 3.6,1.087c4.455,-0.738 4.455,-0.738 3.782,3.33c-11.185,4.234 -18.015,-5.008 -10.185,-14.222c8.66,-3.69 11.999,2.178 5.712,8.566Zm-5.226,-2.585c5.292,-0.647 5.292,-0.647 4.741,-3.395c-3.347,-0.146 -3.347,-0.146 -4.741,3.395Z" style="fill-rule:nonzero;stroke:#000;stroke-width:0.9px;"/><path d="M57.628,152.317l-5.98,0.486c-6.208,7.306 2.392,7.05 6.547,6.491c2.808,6.59 -5.357,5.467 -9.643,4.796c-7.435,-9.403 5.015,-23.788 9.077,-11.773Z" style="fill-rule:nonzero;stroke:#000;stroke-width:0.9px;"/><path d="M65.545,151.736c0.044,1.045 0.088,2.09 0.134,3.166c0.209,7.78 0.209,7.78 -3.172,8.054c-0.911,-4.464 -0.911,-4.464 -1.587,-10.28c-0.233,-1.913 -0.466,-3.827 -0.706,-5.798c-1.13,-13.374 5.207,-2.943 5.333,4.857l-0.001,0.001Z" style="fill-rule:nonzero;stroke:#000;stroke-width:0.9px;"/><path d="M127.274,178.327c-2.11,0.389 -2.11,0.389 -4.262,0.786c-1.001,0.247 -2.004,0.494 -3.035,0.748c-23.336,5.747 -47.939,7.273 -71.905,7.658c-1.04,0.031 -2.079,0.061 -3.151,0.094c-18.819,0.054 -22.13,-49.687 -14.639,-63.173c4.935,-0.401 3.104,6.61 2.803,9.805c0.239,5.705 0.74,11.393 1.199,17.084c0.113,1.538 0.226,3.075 0.341,4.66c0.692,8.65 1.997,16.572 4.258,24.94c-0.275,0.685 -0.551,1.369 -0.835,2.074c2.852,-0.103 5.7,-0.345 8.539,-0.631c6.957,-0.642 13.779,-1.061 20.763,-0.965c13.596,-0.292 26.928,-2.56 40.307,-4.822c2.612,-0.416 5.238,-0.735 7.865,-1.035c10.269,-1.432 10.419,-5.482 9.022,-14.622c-0.13,-2.602 -0.257,-5.204 -0.383,-7.807c-0.677,-7.203 -1.63,-14.338 -2.872,-21.463c-0.32,-1.938 -0.641,-3.877 -0.971,-5.875c-4.436,-9.93 -20.652,-5.237 -29.963,-4.405c-1.648,0.14 -3.295,0.281 -4.993,0.426c-9.931,0.87 -19.788,1.955 -29.66,3.342c-4.642,0.638 -9.28,1.202 -13.94,1.685c-1.389,0.15 -2.78,0.301 -4.211,0.455c-4.427,-0.263 -5.111,-3.51 -0.93,-5.083c87.696,-14.321 87.696,-14.321 90.653,56.125l-0,-0.001Z" style="fill-rule:nonzero;stroke:#000;stroke-width:2.5px;"/><path d="M830.616,34.357c1.921,-0.127 1.921,-0.127 3.881,-0.256c1.788,-0.118 1.788,-0.118 3.613,-0.238c1.009,-0.067 2.018,-0.134 3.057,-0.202c18.611,-1.211 37.224,-2.34 55.854,-3.217c29.854,-1.414 59.665,-3.128 89.467,-5.391c2.291,-0.174 2.291,-0.174 4.629,-0.351c12.418,-0.945 24.836,-1.91 37.252,-2.878c9.422,-0.734 18.846,-1.46 28.27,-2.176c4.324,-0.331 8.648,-0.674 12.971,-1.017c2.644,-0.202 5.289,-0.403 7.933,-0.603c1.168,-0.096 2.336,-0.192 3.54,-0.291c21.822,-1.61 21.822,-1.61 26.271,2.171l3.987,-0.324c1.41,3.459 1.41,3.459 2.722,8.809c0.369,1.423 0.369,1.423 0.747,2.874c2.943,12.206 3.837,24.578 4.817,37.057c0.149,1.844 0.149,1.844 0.302,3.725c2.008,25.096 3.098,50.218 3.96,75.377c1.583,45.29 5.013,90.468 8.722,135.627c0.52,6.33 1.03,12.661 1.539,18.992c2.628,32.955 2.628,32.955 6.063,65.834c1.464,12.45 -14.943,-95.751 -18.555,-149.994c-0.32,-4.798 -0.71,-9.583 -1.154,-14.371c-1.046,-12.327 -1.01,-23.788 0.579,-36.085c7.822,-60.904 -17.588,-59.164 -70.834,-48.562c-14.628,2.902 -29.161,4.921 -44.007,6.313c-1.03,0.097 -2.059,0.194 -3.119,0.294c-5.121,0.479 -10.243,0.946 -15.367,1.406c-9.525,0.864 -19.035,1.878 -28.547,2.884c-1.767,0.185 -3.534,0.369 -5.354,0.56c-10.475,1.1 -20.942,2.256 -31.406,3.456c-142.515,16.296 -286.177,23.811 -429.259,33.267c-2.01,0.133 -2.01,0.133 -4.06,0.269c-8.908,0.589 -17.816,1.174 -26.724,1.757c-1.205,0.079 -2.41,0.158 -3.651,0.239c-12.334,0.807 -24.669,1.597 -37.007,2.323c-37.333,2.205 -74.605,5.089 -111.881,8.105c-1.64,0.132 -3.28,0.264 -4.97,0.401c-51.229,4.13 -102.29,8.942 -153.308,15.157c-28.712,3.497 -57.441,6.394 -86.273,8.699c-5.199,0.417 -10.398,0.844 -15.595,1.273c-3.32,0.269 -6.639,0.537 -9.96,0.805c-2.321,0.192 -2.321,0.192 -4.689,0.387c-2.126,0.168 -2.126,0.168 -4.296,0.339c-1.246,0.1 -2.491,0.2 -3.775,0.305c-3.035,0.119 -3.035,0.119 -6.106,-0.635c-0.072,3.276 -0.072,3.276 0.488,7.547c1.609,16.776 2.284,33.607 2.744,50.451c0.728,26.256 2.273,52.419 4.19,78.611c0.24,3.287 0.478,6.574 0.714,9.862c2.903,40.27 4.234,119.328 1.884,90.358c-0.539,-6.638 -5.439,-66.884 -5.992,-73.521c-3.21,-38.567 -6.028,-76.987 -6.902,-115.685c-0.321,-12.323 -1.088,-24.59 -2.01,-36.879c-0.262,-3.482 -0.518,-6.965 -0.771,-10.448c-0.632,-8.636 -1.273,-17.271 -1.914,-25.906c-0.545,-7.338 -1.086,-14.677 -1.622,-22.016c-0.251,-3.406 -0.506,-6.811 -0.762,-10.218c-2.844,-38.423 -2.844,-38.423 3.262,-36.924c0.601,3.583 0.601,3.583 0.91,8.529c0.122,1.841 0.246,3.682 0.372,5.579c0.121,2.028 0.241,4.055 0.362,6.083c0.134,2.06 0.269,4.119 0.407,6.178c0.359,5.431 0.702,10.863 1.039,16.295c0.541,8.704 1.098,17.407 1.672,26.108c0.198,3.054 0.383,6.108 0.568,9.163c0.119,1.835 0.238,3.671 0.361,5.561c0.101,1.631 0.202,3.261 0.306,4.941c0.024,4 0.024,4 2.366,2.182c2.079,-0.27 4.165,-0.475 6.254,-0.65c2.029,-0.176 2.029,-0.176 4.1,-0.355c1.509,-0.127 3.016,-0.253 4.571,-0.383c3.341,-0.292 6.684,-0.585 10.025,-0.879c1.814,-0.158 3.628,-0.317 5.497,-0.481c29.808,-2.62 59.569,-5.527 89.298,-8.937c1.335,-0.153 2.67,-0.306 4.045,-0.464c5.481,-0.629 10.963,-1.259 16.444,-1.889c46.166,-5.313 92.325,-10.267 138.648,-14.005c3.402,-0.275 6.803,-0.553 10.204,-0.832c36.756,-2.996 73.564,-5.205 110.372,-7.455c50.489,-3.088 100.962,-6.383 151.43,-9.789c1.177,-0.08 2.356,-0.159 3.569,-0.241c127.86,-8.63 255.826,-17.32 392.029,-32.983c32.525,-3.729 65.141,-6.625 97.753,-9.478c1.354,-0.119 2.707,-0.237 4.101,-0.359c8.408,-0.734 16.818,-1.45 25.23,-2.148c1.54,-0.129 1.54,-0.129 3.11,-0.261c2.782,-0.232 5.565,-0.455 8.348,-0.677c2.283,-0.183 2.283,-0.183 4.612,-0.372c3.439,-0.15 3.439,-0.15 5.514,0.685c-0.099,-3.821 -0.334,-7.558 -0.656,-11.363c-0.094,-1.188 -0.189,-2.377 -0.286,-3.602c-0.205,-2.542 -0.415,-5.083 -0.63,-7.624c-0.319,-3.81 -0.619,-7.621 -0.915,-11.432c-1.187,-14.713 -3.01,-29.058 -5.818,-43.561c-0.047,-1.833 -0.093,-3.666 -0.14,-5.556c-2.82,-7.331 -8.948,-4.907 -15.701,-4.194c-3.041,0.211 -6.083,0.422 -9.124,0.626c-4.888,0.337 -9.771,0.722 -14.655,1.106c-5.553,0.435 -11.108,0.859 -16.662,1.283c-4.481,0.343 -8.963,0.687 -13.444,1.031c-46.683,3.576 -93.353,6.896 -140.118,9.204c-2.169,0.108 -4.339,0.216 -6.508,0.324c-4.256,0.211 -8.513,0.422 -12.769,0.634c-1.027,0.051 -2.056,0.102 -3.114,0.155c-2.04,0.102 -4.081,0.202 -6.123,0.304c-31.65,1.568 -63.249,3.718 -94.847,6.095c-2.022,0.151 -4.045,0.301 -6.066,0.453c-59.411,4.431 -118.574,9.744 -177.727,16.898c-29.355,3.541 -58.763,6.599 -88.173,9.629c-3.939,0.406 -7.878,0.812 -11.816,1.221c-58.967,6.107 -117.966,11.64 -177.054,16.438c-4.351,0.353 -8.702,0.708 -13.053,1.063c-40.298,3.277 -80.591,6.265 -120.997,7.853c-10.301,0.434 -20.589,1.069 -30.878,1.719c-1.14,0.072 -2.279,0.143 -3.454,0.217c-20.018,1.268 -40.015,2.767 -60.008,4.373c-1.331,0.105 -2.662,0.211 -4.032,0.319c-13.098,1.044 -26.129,2.164 -39.135,4.074c-5.576,0.809 -11.159,1.406 -16.769,1.917c-1.049,0.114 -2.098,0.229 -3.179,0.347c-3.892,0.349 -14.587,-1.327 -6.158,-4.918c29.922,-4.985 60.31,-7.241 90.539,-9.36c1.113,-0.078 2.227,-0.157 3.374,-0.238c23.284,-1.631 46.577,-3.176 69.895,-4.219c41.769,-1.878 83.399,-4.935 125.066,-8.384c5.411,-0.447 10.822,-0.891 16.233,-1.333c60.211,-4.932 120.345,-10.423 180.424,-16.763c5.657,-0.597 11.316,-1.188 16.974,-1.778c31.466,-3.285 62.913,-6.706 94.325,-10.474c71.837,-8.614 143.905,-13.744 216.087,-18.491l-0.006,-0.004Z" style="fill-rule:nonzero;stroke:#000;stroke-width:0.65px;"/><path d="M528.291,43.36c1.697,-0.161 1.697,-0.161 3.428,-0.326c8.468,-0.647 8.468,-0.647 9.956,3.753c-4.2,0.762 -8.116,1.216 -12.357,1.505c-1.787,0.168 -1.787,0.168 -3.611,0.34c-15.15,1.161 -7.673,-4.58 2.584,-5.273l0.001,-0Z" style="fill-rule:nonzero;stroke:#000;stroke-width:0.65px;"/><path d="M139.187,69.443c-8.151,6.445 -15.243,-2.228 -11.365,-10.991c8.956,-9.185 14.264,2.421 11.365,10.991Zm-8.217,-2.343c6.218,1.029 5.984,-0.438 5.495,-6.466c-6.788,-0.793 -6.093,0.393 -5.495,6.466Z" style="fill-rule:nonzero;stroke:#000;stroke-width:0.65px;"/><path d="M97.236,66.329c0.132,1.386 0.264,2.772 0.4,4.2c-0.229,3.31 -0.229,3.31 -4.216,3.634c-0.67,-2.983 -0.67,-2.983 -0.873,-6.89c-0.08,-1.286 -0.16,-2.572 -0.242,-3.895c-0.05,-8.637 4.469,-2.678 4.931,2.951l-0.001,0Z" style="fill-rule:nonzero;stroke:#000;stroke-width:0.65px;"/><path d="M161.626,61.601c2.527,0.119 2.527,0.119 2.587,-3.659c0.746,-3.258 3.131,-7.616 5.898,-3.049c-1.033,3.701 -2.148,7.299 -3.376,10.934c-0.327,1.023 -0.654,2.045 -0.99,3.098c-4.066,12.16 -4.066,12.16 -7.134,4.961c0.524,-1.698 1.049,-3.396 1.589,-5.145c-1.933,-9.304 -1.933,-9.304 -7.625,-7.407c-1.067,-0.907 -2.134,-1.813 -3.233,-2.747c-2.685,1.275 -2.685,1.275 -2.397,6.778c-0.54,4.804 -2.725,9.434 -4.427,2.339c-0.222,-2.203 -0.222,-2.203 -0.448,-4.451c-0.173,-1.464 -0.346,-2.929 -0.525,-4.437c1.263,-9.312 19.237,-7.603 20.08,2.786l0.001,0.001Z" style="fill-rule:nonzero;stroke:#000;stroke-width:0.65px;"/><path d="M111.386,60.665c-2.909,1.24 -2.909,1.24 -6.977,0.567c1.328,2.578 1.328,2.578 6.385,4.498c2.287,7.999 -2.454,9.193 -9.401,7.787c-0.499,-6.144 1.674,-4.043 6.734,-3.557c0.123,-2.422 0.123,-2.422 -3.098,-2.633c-11.539,-3.125 0.096,-16.996 6.357,-6.661Z" style="fill-rule:nonzero;stroke:#000;stroke-width:0.65px;"/><path d="M197.427,57.69c3.79,-0.308 5.413,-5.397 7.272,-8.428c3.708,-4.614 6.052,-4.201 5.281,2.392c-1.865,3.091 -1.865,3.091 -4.259,6.24c-0.778,1.053 -1.556,2.108 -2.358,3.193c-5.1,4.852 -8.893,0.966 -12.813,-3.153c-0.878,-0.898 -1.755,-1.795 -2.659,-2.72c-8.08,-11.044 6.009,-1.552 9.537,2.474l0,0.001Z" style="fill-rule:nonzero;stroke:#000;stroke-width:0.65px;"/><path d="M536.989,20.028c0.081,1.231 0.161,2.462 0.244,3.731c0.098,1.217 0.195,2.433 0.295,3.687c-0.484,12.6 -13.964,20.403 -19.994,6.252c-0.361,-2.349 -0.649,-4.711 -0.888,-7.076c-0.139,-1.254 -0.279,-2.507 -0.422,-3.798c0.227,-3.95 3.393,-6.784 4.884,-1.631c0.211,1.901 0.211,1.901 0.425,3.841c0.948,8.081 4.52,18.131 10.789,5.457c0.083,-3.772 -0.166,-7.45 -0.413,-11.214c0.518,-5.29 4.136,-2.972 5.077,0.751l0.001,0.001Z" style="fill-rule:nonzero;stroke:#000;stroke-width:0.65px;"/><path d="M120.032,55.949c1.671,0.195 3.343,0.391 5.065,0.592c0.243,2.99 0.243,2.99 -3.744,3.314c0.25,3.084 0.52,6.17 1,9.226c-0.029,2.734 -0.029,2.734 -3.935,4.055c-0.542,-3.04 -1.064,-6.089 -1.375,-9.161c-0.255,-3.123 -0.255,-3.123 -3.664,-3.473c-0.324,-3.987 -0.324,-3.987 2.504,-6.223c2.765,-4.978 3.761,-3.107 4.149,1.67Z" style="fill-rule:nonzero;stroke:#000;stroke-width:0.65px;"/><path d="M96.703,52.828c-0.754,3.071 -0.754,3.071 -3.744,3.314c-0.324,-3.987 -0.324,-3.987 3.744,-3.314Z" style="fill-rule:nonzero;stroke:#000;stroke-width:0.65px;"/><path d="M477.745,19.373c1.572,-0.138 3.144,-0.276 4.763,-0.418c3.75,0.228 3.75,0.228 4.074,4.215c-1.3,0.043 -2.601,0.087 -3.94,0.131c-5.79,0.74 -4.667,2.091 -4.464,7.574c-0.427,2.194 -0.877,4.383 -1.348,6.569c-1.712,6.539 -1.712,6.539 4.313,5.23c0.436,5.37 -3.697,4.532 -8.185,4.991c-1.17,0.132 -2.34,0.265 -3.545,0.401c-6.256,-0.415 -4.782,-3.936 0.686,-5.5c1.791,-4.274 1.791,-4.274 2.88,-9.326c0.434,-1.703 0.867,-3.404 1.314,-5.158c1.057,-4.825 1.057,-4.825 -4.654,-3.537c-0.507,-6.246 2.56,-4.759 8.108,-5.173l-0.001,0Z" style="fill-rule:nonzero;stroke:#000;stroke-width:0.65px;"/><path d="M429.339,34.842c1.423,1.209 2.845,2.418 4.311,3.663c2.897,10.133 -9.51,16.291 -18.128,11.505c-0.624,-3.629 -0.624,-3.629 -0.912,-8.141c-0.105,-1.475 -0.208,-2.95 -0.316,-4.469c-0.633,-18.508 17.961,-14.433 15.045,-2.558Zm-10.048,-0.187c3.8,-1.086 10.82,-4.508 3.117,-6.398c-4.645,-0.069 -4.645,-0.069 -3.117,6.398Zm0.056,13.038c5.926,-0.776 17.332,-5.077 6.248,-9.537c-6.801,0.552 -6.763,3.203 -6.248,9.537Z" style="fill-rule:nonzero;stroke:#000;stroke-width:0.65px;"/><path d="M74.673,58.755c1.308,7.596 4.578,5.497 10.717,3.017c0.306,-3.451 0.306,-3.451 -0.567,-6.977c6.166,-7.256 4.603,3.955 5.031,8.683c0.113,1.039 0.227,2.078 0.344,3.148c0.695,7.74 0.695,7.74 -3.757,8.102c0.002,-1.511 0.003,-3.021 0.004,-4.577c-1.214,-7.28 -4.916,-4.941 -10.619,-2.587c-0.706,4.583 -0.706,4.583 -0.268,9.051c-6.381,0.518 -4.602,-8.649 -4.721,-13.35c-0.049,-1.718 -0.098,-3.434 -0.149,-5.204c0.03,-7.161 4.013,-6.489 3.983,0.692l0,0.001Z" style="fill-rule:nonzero;stroke:#000;stroke-width:0.65px;"/><path d="M354.18,35.93c-0.755,6.461 -2.425,9.924 -9.32,8.783c0.754,-3.071 0.754,-3.071 2.666,-4.23c-5.125,0.135 -24.67,6.944 -12.067,12.016c3.934,-0.081 7.861,-0.254 11.793,-0.433c3.876,0.257 5.246,2.136 1.569,4.364c-12.146,2.024 -31.269,-4.089 -16.489,-17.723c3.614,-1.682 6.919,-2.582 10.823,-3.387c3.722,-0.531 3.722,-0.531 0.733,-2.568c-0.639,-7.865 8.107,0.935 10.291,3.177Z" style="fill-rule:nonzero;stroke:#000;stroke-width:0.65px;"/><path d="M284.248,39.603c2.648,0.6 2.648,0.6 6.061,0.511c12.277,0.474 23.317,12.67 8.646,20.743c-14.697,3.572 -14.697,3.572 -15.243,-3.151c2.947,-0.305 5.901,-0.591 8.862,-0.665c10.603,-1.049 10.946,-9.156 1.13,-12.186c-9.178,-1.105 -9.178,-1.105 -6.653,4.554c-24.368,8.239 3.466,-25.381 -2.803,-9.805Z" style="fill-rule:nonzero;stroke:#000;stroke-width:0.65px;"/></g></g></svg>