<?xml version="1.0" encoding="UTF-8" standalone="no"?><!DOCTYPE svg PUBLIC "-//W3C//DTD SVG 1.1//EN" "http://www.w3.org/Graphics/SVG/1.1/DTD/svg11.dtd"><svg width="100%" height="100%" viewBox="0 0 286 252" version="1.1" xmlns="http://www.w3.org/2000/svg" xmlns:xlink="http://www.w3.org/1999/xlink" xml:space="preserve" xmlns:serif="http://www.serif.com/" style="fill-rule:evenodd;clip-rule:evenodd;stroke-linejoin:round;stroke-miterlimit:2;"><path d="M232.172,5.106c6.533,6.509 6.864,15.888 7.79,24.659c0.139,1.287 0.139,1.287 0.28,2.6c0.647,6.344 1.081,12.686 1.36,19.056c0.04,0.838 0.08,1.677 0.12,2.541c0.027,0.771 0.054,1.543 0.082,2.337c0.025,0.68 0.05,1.36 0.076,2.061c-0.137,1.639 -0.137,1.639 -1.637,3.139c-3.417,-0.417 -3.417,-0.417 -4.5,-1.5c-0.809,-4.473 -0.822,-8.971 -0.75,-13.5c-1.114,0.371 -1.114,0.371 -2.25,0.75c-1.415,0.139 -2.835,0.242 -4.254,0.325c-0.88,0.053 -1.76,0.106 -2.667,0.16c-0.96,0.055 -1.919,0.109 -2.908,0.165c-1.008,0.06 -2.016,0.12 -3.024,0.18c-2.146,0.128 -4.292,0.254 -6.438,0.38c-5.596,0.327 -11.19,0.667 -16.785,1.008c-0.831,0.05 -0.831,0.05 -1.678,0.102c-25.115,1.528 -50.232,3.366 -75.215,6.399c-6.603,0.801 -13.151,1.293 -19.797,1.524c-5.326,0.193 -10.593,0.66 -15.893,1.208c-5.321,0.536 -10.636,0.84 -15.979,1.043c-0.875,0.036 -0.875,0.036 -1.768,0.072c-0.509,0.018 -1.017,0.036 -1.541,0.054c-1.582,0.101 -1.582,0.101 -3.224,0.481c-2.794,0.536 -5.6,0.745 -8.433,0.964c-0.621,0.049 -1.242,0.098 -1.882,0.148c-2.02,0.157 -4.04,0.308 -6.06,0.458c-1.027,0.077 -1.027,0.077 -2.075,0.156c-11.816,0.874 -23.527,1.216 -35.378,0.922c0.114,0.601 0.227,1.202 0.345,1.821c0.481,3.179 0.696,6.333 0.892,9.54c0.088,1.362 0.177,2.724 0.265,4.086c0.046,0.708 0.091,1.416 0.138,2.145c0.906,14.348 0.906,14.348 2.532,28.627c1.39,9.964 1.867,19.982 2.403,30.02c0.291,5.447 0.608,10.893 0.925,16.339c0.031,0.533 0.062,1.065 0.094,1.614c0.761,13.007 1.629,26.001 3.094,38.95c0.604,5.546 0.951,11.105 1.312,16.671c0.235,15.205 0.235,15.205 4.5,29.438c8.149,3.851 17.248,3.04 25.969,2.391c2.341,-0.159 4.682,-0.311 7.022,-0.463c0.579,-0.039 1.158,-0.077 1.755,-0.117c5.118,-0.336 10.236,-0.5 15.363,-0.638c9.008,-0.275 17.913,-1.15 26.871,-2.106c5.162,-0.546 10.327,-0.95 15.504,-1.315c6.123,-0.439 12.193,-1.044 18.281,-1.828c22.119,-2.781 44.433,-3.779 66.686,-4.854c5.101,-0.249 10.2,-0.522 15.299,-0.817c0.838,-0.048 1.676,-0.096 2.54,-0.145c2.445,-0.146 4.887,-0.312 7.33,-0.485c0.722,-0.042 1.445,-0.084 2.189,-0.128c5.501,-0.422 10.115,-1.82 14.572,-5.146c4.733,-6.752 1.385,-20.775 0.724,-28.477c-0.289,-3.564 -0.561,-7.047 -0.354,-10.62c0.495,-0.495 0.99,-0.99 1.5,-1.5c3.417,0.417 3.417,0.417 4.5,1.5c0.226,1.609 0.405,3.225 0.565,4.843c0.049,0.494 0.098,0.987 0.148,1.496c0.103,1.052 0.205,2.104 0.304,3.157c0.151,1.579 0.309,3.157 0.469,4.735c2.141,21.765 2.141,21.765 -3.877,30.019c-0.696,0.495 -1.392,0.99 -2.109,1.5c-0.452,0.328 -0.905,0.655 -1.371,0.993c-8.875,5.736 -22.041,4.789 -32.285,5.429c-0.759,0.049 -1.517,0.098 -2.299,0.148c-10.514,0.675 -21.012,1.163 -31.544,1.423c-6.562,0.172 -13.095,0.521 -19.642,1.008c-0.843,0.062 -1.685,0.125 -2.554,0.189c-3.417,0.27 -6.696,0.625 -10.056,1.311c-2.655,0.221 -5.31,0.379 -7.969,0.539c-2.431,0.153 -2.431,0.153 -4.389,0.589c-3.392,0.667 -6.854,0.673 -10.301,0.838c-2.95,0.19 -5.853,0.58 -8.78,0.99c-6.489,0.889 -12.985,1.431 -19.515,1.919c-0.93,0.071 -0.93,0.071 -1.879,0.144c-12.962,0.986 -25.936,1.647 -38.921,2.237c-4.815,0.224 -9.622,0.529 -14.431,0.858c-8.111,0.431 -13.43,-0.98 -19.705,-6.288c-6.237,-6.376 -5.922,-16.557 -6.539,-24.935c-0.095,-1.215 -0.191,-2.43 -0.288,-3.646c-0.2,-2.539 -0.395,-5.078 -0.586,-7.617c-0.241,-3.211 -0.491,-6.422 -0.744,-9.633c-0.245,-3.113 -0.486,-6.226 -0.727,-9.339c-0.044,-0.572 -0.089,-1.145 -0.135,-1.734c-0.544,-7.052 -0.999,-14.102 -1.349,-21.166c-0.21,-4.236 -0.514,-8.454 -0.901,-12.677c-0.496,-5.67 -0.942,-11.341 -1.336,-17.019c-0.043,-0.621 -0.086,-1.241 -0.131,-1.881c-0.09,-1.298 -0.18,-2.596 -0.27,-3.894c-0.773,-11.16 -1.651,-22.302 -2.665,-33.442c-1.232,-13.571 -2.217,-27.144 -3.005,-40.749c-0.049,-0.823 -0.097,-1.647 -0.148,-2.495c-1.692,-28.873 -1.692,-28.873 2.96,-34.349c6.083,-6.731 12.951,-7.798 21.703,-8.344c0.86,-0.06 1.72,-0.12 2.607,-0.182c6.357,-0.424 12.713,-0.669 19.08,-0.879c18.305,-0.658 36.635,-1.903 54.86,-3.72c18.947,-1.887 38.011,-3.231 57.047,-3.703c10.734,-0.269 21.401,-1.314 32.086,-2.327c6.548,-0.619 13.088,-1.202 19.655,-1.572c0.549,-0.031 1.098,-0.062 1.663,-0.095c7.327,-0.379 13.587,0.169 19.477,4.929Zm-27.813,1.684c-18.098,1.649 -36.237,2.779 -54.369,3.975c-4.252,0.281 -8.502,0.576 -12.752,0.889c-3.556,0.255 -7.093,0.454 -10.657,0.53c-0.958,0.025 -1.915,0.049 -2.902,0.075c-1.937,0.046 -3.875,0.089 -5.812,0.129c-5.583,0.149 -11.016,0.564 -16.551,1.266c-7.104,0.882 -14.243,1.306 -21.384,1.767c-0.74,0.049 -1.48,0.098 -2.242,0.149c-8.908,0.59 -17.801,1.074 -26.727,1.304c-7.083,0.199 -14.136,0.568 -21.195,1.181c-1.485,0.127 -2.971,0.24 -4.457,0.353c-6.774,0.636 -12.202,1.941 -17.271,6.661c-1.701,4.361 -1.385,8.69 -1.28,13.321c0.007,0.948 0.015,1.896 0.022,2.873c0.066,5.528 0.357,10.992 0.962,16.487c23.868,-0.703 47.622,-2.414 71.416,-4.344c1.792,-0.145 3.583,-0.29 5.375,-0.435c1.176,-0.095 2.351,-0.191 3.527,-0.286c8.191,-0.665 16.383,-1.238 24.585,-1.741c7.484,-0.462 14.88,-1.075 22.315,-2.054c27.828,-3.444 55.915,-5.228 83.894,-6.966c0.654,-0.041 1.307,-0.082 1.98,-0.125c1.195,-0.075 2.389,-0.148 3.584,-0.218c3.312,-0.207 6.547,-0.572 9.823,-1.082c0.196,-5.468 -0.062,-10.87 -0.562,-16.312c-0.046,-0.593 -0.093,-1.187 -0.14,-1.798c-0.491,-4.88 -1.878,-8.964 -5.16,-12.683c-0.432,-0.341 -0.864,-0.683 -1.31,-1.034c-0.651,-0.532 -0.651,-0.532 -1.315,-1.075c-5.577,-3.74 -15.146,-1.379 -21.397,-0.806Z" style="fill-rule:nonzero;"/><path d="M252.279,72.114c9.507,7.554 13.794,18.921 15.715,30.636c0.041,1.75 0.054,3.501 0,5.25l1.969,-0.141c3.73,0.207 6.06,1.351 8.61,4.08c1.559,2.261 1.954,3.687 2.318,6.388l0.358,2.557l0.339,2.725l0.376,2.807c0.989,7.63 1.683,15.273 2.234,22.945c0.203,2.752 0.582,5.418 1.046,8.139c0.926,10.755 0.926,10.755 -2.016,14.812c-3.281,3.764 -6.631,4.967 -11.531,5.438l-1.686,0.168c-4.326,0.417 -8.658,0.762 -12.989,1.121l-1.758,0.146c-2.932,0.242 -5.864,0.48 -8.798,0.71c-5.366,0.426 -10.699,0.921 -16.034,1.638c-5.605,0.726 -11.165,1.096 -16.809,1.275c-1.575,0.053 -3.148,0.125 -4.722,0.197c-1.022,0.036 -2.044,0.071 -3.066,0.104l-2.732,0.102c-3.777,-0.305 -6.65,-1.448 -9.593,-3.914c-3.991,-7.243 -3.349,-17.645 -3.938,-25.781c-0.141,-1.919 -0.284,-3.837 -0.428,-5.755c-0.089,-1.184 -0.176,-2.367 -0.26,-3.551c-0.248,-3.346 -0.649,-6.638 -1.14,-9.959c-1.136,-12.215 -1.136,-12.215 1.828,-16.031c2.917,-2.61 6.994,-4.219 10.922,-4.219l-0.363,-1.447c-1.355,-8.069 -1.154,-17.168 1.863,-24.803l0.58,-1.564c3.516,-8.161 10.483,-13.798 18.478,-17.206c9.98,-3.347 22.56,-2.988 31.228,3.135Zm-33.785,4.386l-2.531,1.406c-6.801,5.506 -9.469,12.263 -10.74,20.807c-0.436,4.84 -0.339,9.683 -0.229,14.537l-0.893,5.988l9.482,-1.488l-0.497,-7.819c-0.304,-9.038 -0.441,-15.842 5.941,-22.837c4.518,-4.252 9.24,-5.746 15.381,-5.561c4.837,0.503 9.143,1.928 12.586,5.467c4.455,5.989 6.269,12.066 6.891,19.406l0.186,1.939c0.423,4.497 0.423,4.497 0.423,6.404c-4.328,0.363 -8.656,0.722 -12.984,1.078l-1.933,0.16c-6.978,0.576 -13.943,1.123 -20.942,1.387c-6.204,0.253 -12.087,1.284 -18.141,2.625l-2.051,0.428c-1.331,0.297 -2.645,0.673 -3.949,1.072c-4.355,8.71 -0.265,25.809 0.609,35.297l0.188,2.133c0.182,2.033 0.377,4.065 0.577,6.097l0.164,1.852c0.37,3.552 1.041,6.274 2.962,9.372c11.139,5.569 34.768,-0.835 47.098,-2.05c1.554,-0.153 3.108,-0.304 4.663,-0.456c2.964,-0.29 5.927,-0.589 8.89,-0.89l2.704,-0.268c7.991,-0.406 7.991,-0.406 15.184,-3.312c1.213,-1.609 1.246,-2.493 1.245,-4.496l0.007,-1.964l-0.036,-2.125l-0.021,-2.217c-0.147,-8.151 -1.062,-16.188 -2.062,-24.27c-0.175,-1.483 -0.349,-2.966 -0.523,-4.449c-0.823,-7.542 -0.823,-7.542 -2.149,-15.004l-1.916,-0.111l-2.49,-0.17l-2.479,-0.158c-2.115,-0.311 -2.115,-0.311 -3.615,-1.811c-0.386,-1.68 -0.386,-1.68 -0.671,-3.768l-0.337,-2.308l-0.352,-2.455c-1.034,-6.643 -2.093,-12.54 -5.391,-18.469l-1.002,-1.872c-3.199,-5.382 -8.006,-9.015 -13.998,-10.878c-8.285,-0.984 -15.903,-0.424 -23.25,3.75Zm24,12c-7.868,-4.602 -14.929,-3.582 -21,3c-4.499,5.728 -4.499,5.728 -3.75,21c2.796,0.048 5.404,0.098 8.165,-0.354c4.827,-0.578 4.827,-0.578 9.694,-0.724c4.993,-0.155 9.537,-0.71 14.391,-1.922c-0.435,-8.03 -1.602,-15.102 -7.5,-21Z"/><path d="M58.744,195c1.257,0.215 2.508,0.463 3.75,0.75l0,6.75l2.906,-0.094c1.635,-0.053 1.635,-0.053 3.094,0.094l1.5,1.5c-0.402,2.652 -0.402,2.652 -1.5,3.75c-1.991,0.341 -3.991,0.527 -6,0.75l-0.75,6l2.25,-0.75c2.672,-0.141 2.672,-0.141 5.25,0l1.5,1.5c-0.188,1.547 -0.188,1.547 -0.75,3c-1.804,0.902 -2.962,0.826 -4.969,0.797l-1.857,-0.021l-1.424,-0.026l0.053,1.371l0.041,1.816l0.053,1.793c-0.159,1.925 -0.682,3.113 -1.646,4.77c-3.656,-0.656 -3.656,-0.656 -4.5,-1.5c-0.054,-1.139 -0.063,-2.281 -0.047,-3.422l0.021,-1.878l0.026,-1.45l-6,0l0.094,2.391c-0.088,2.692 -0.238,4.304 -1.594,6.609c-1.5,0.703 -1.5,0.703 -3,0.75l-1.5,-1.5c0.018,-1.623 0.018,-1.623 0.281,-3.469l0.252,-1.857l0.217,-1.424l-2.906,0.094c-1.635,0.053 -1.635,0.053 -3.094,-0.094c-1.5,-1.5 -1.5,-1.5 -1.5,-3.75c2.733,-1.822 4.284,-1.621 7.5,-1.5l0.75,-6.75l-3.281,0.469c-1.846,0.264 -1.846,0.264 -3.469,0.281l-1.5,-1.5l0.75,-3l7.5,-1.5l1.5,-7.5l3,-0.75c0.75,0.75 0.75,0.75 0.823,2.3l-0.073,5.2l7.5,-0.75l-0.047,-3.703c-0.016,-1.266 -0.007,-2.532 0.047,-3.797l0.75,-0.75Zm-1.5,13.5c-2.334,0 -4.456,0.342 -6.75,0.75l-0.75,6l1.45,0.026l1.878,0.021l1.872,0.026c1.55,-0.073 1.55,-0.073 2.3,-0.823c0.073,-1.386 0.073,-1.386 0,-6Z"/><path d="M96.994,192.75c1.257,0.215 2.508,0.463 3.75,0.75l0,6.75l2.906,-0.094c1.635,-0.053 1.635,-0.053 3.094,0.094l1.5,1.5c-0.402,2.652 -0.402,2.652 -1.5,3.75c-1.991,0.341 -3.991,0.527 -6,0.75l-0.75,6l2.25,-0.75c2.672,-0.141 2.672,-0.141 5.25,0l1.5,1.5c-0.188,1.547 -0.188,1.547 -0.75,3c-1.804,0.902 -2.962,0.826 -4.969,0.797l-1.857,-0.021l-1.424,-0.026l0.053,1.371l0.041,1.816l0.053,1.793c-0.159,1.925 -0.682,3.113 -1.646,4.77c-3.656,-0.656 -3.656,-0.656 -4.5,-1.5c-0.054,-1.139 -0.063,-2.281 -0.047,-3.422l0.021,-1.878l0.026,-1.45l-6,0l0.094,2.391c-0.088,2.692 -0.238,4.304 -1.594,6.609c-1.5,0.703 -1.5,0.703 -3,0.75l-1.5,-1.5c0.018,-1.623 0.018,-1.623 0.281,-3.469l0.252,-1.857l0.217,-1.424l-2.906,0.094c-1.635,0.053 -1.635,0.053 -3.094,-0.094c-1.5,-1.5 -1.5,-1.5 -1.5,-3.75c2.733,-1.822 4.284,-1.621 7.5,-1.5l0.75,-6.75l-3.281,0.469c-1.846,0.264 -1.846,0.264 -3.469,0.281l-1.5,-1.5l0.75,-3l7.5,-1.5l1.5,-7.5l3,-0.75c0.75,0.75 0.75,0.75 0.823,2.3l-0.073,5.2l7.5,-0.75l-0.047,-3.703c-0.016,-1.266 -0.007,-2.532 0.047,-3.797l0.75,-0.75Zm-1.5,13.5c-2.334,0 -4.456,0.342 -6.75,0.75l-0.75,6l1.45,0.026l1.878,0.021l1.872,0.026c1.55,-0.073 1.55,-0.073 2.3,-0.823c0.073,-1.386 0.073,-1.386 0,-6Z"/><path d="M49.744,84l3,0.75l0,7.5l1.5,-0.75c1.5,-0.03 3,-0.033 4.5,0c0.469,1.781 0.469,1.781 0.75,3.75c-2.072,2.072 -3.905,1.934 -6.75,2.25l-0.75,5.25l2.953,-0.047c1.016,-0.016 2.033,-0.007 3.047,0.047c0.75,0.75 0.75,0.75 0.844,2.625c-0.094,1.875 -0.094,1.875 -0.844,2.625c-2.242,0.343 -4.492,0.527 -6.75,0.75l-0.75,7.5c-1.242,0.287 -2.493,0.535 -3.75,0.75c-0.75,-0.75 -0.75,-0.75 -0.823,-2.464l0.026,-2.083l0.021,-2.089l0.026,-1.614l-5.25,0.75l-0.111,1.424l-0.17,1.857l-0.158,1.846c-0.311,1.623 -0.311,1.623 -1.811,3.123l-3,0c-0.902,-1.804 -0.826,-2.962 -0.797,-4.969l0.021,-1.857l0.026,-1.424l-5.25,0l-1.5,-3c2.034,-1.953 2.919,-2.246 5.812,-2.391l2.438,0.141l0,-6l-2.906,0.422c-2.906,0.422 -2.906,0.422 -4.594,-0.422c0.656,-3.656 0.656,-3.656 1.5,-4.5c1.991,-0.341 3.991,-0.527 6,-0.75l0.111,-1.424l0.17,-1.857l0.158,-1.846c0.311,-1.623 0.311,-1.623 1.811,-3.123c2.652,0.402 2.652,0.402 3.75,1.5c0.054,1.139 0.063,2.281 0.047,3.422l-0.021,1.878l-0.026,1.45l6,-0.75l-0.053,-1.424l-0.041,-1.857l-0.053,-1.846c0.146,-1.623 0.146,-1.623 1.646,-3.123Zm-6.864,13.427c-1.386,0.073 -1.386,0.073 -2.136,0.823c-0.031,1.75 -0.032,3.5 0,5.25l4.614,0.073c1.386,-0.073 1.386,-0.073 2.136,-0.823c0.031,-1.75 0.032,-3.5 0,-5.25l-4.614,-0.073Z"/><path d="M52.744,141c1.547,0.188 1.547,0.188 3,0.75c1.109,2.217 0.795,4.307 0.75,6.75l2.156,-0.094c2.344,0.094 2.344,0.094 3.844,1.594c-0.402,2.652 -0.402,2.652 -1.5,3.75c-1.75,0.031 -3.5,0.032 -5.25,0l0,6l5.25,0c0.469,1.781 0.469,1.781 0.75,3.75c-1.5,1.5 -1.5,1.5 -2.959,1.646l-4.541,-0.146l0,8.25l-3.75,0.75l-1.5,-1.5c0.018,-1.623 0.018,-1.623 0.281,-3.469l0.252,-1.857l0.217,-1.424l-6,0.75l-0.138,1.424l-0.19,1.857l-0.185,1.846c-0.237,1.623 -0.237,1.623 -0.987,3.123c-3.656,-0.656 -3.656,-0.656 -4.5,-1.5c0.067,-1.144 0.184,-2.285 0.328,-3.422l0.231,-1.878l0.19,-1.45l-5.25,0c-0.287,-1.242 -0.535,-2.493 -0.75,-3.75c1.476,-1.476 4.011,-1.247 6,-1.5l0.75,-5.25l-6,0l-0.75,-3.75c2.733,-1.822 4.284,-1.621 7.5,-1.5l-0.026,-1.424l-0.021,-1.857l-0.026,-1.846c0.073,-1.623 0.073,-1.623 0.823,-3.123l3.75,0l1.5,6.75l5.25,0l-0.053,-1.424l-0.041,-1.857l-0.053,-1.846c0.146,-1.623 0.146,-1.623 1.646,-3.123Zm-2.25,13.5c-2.334,0 -3.831,0.13 -6,0.75l0,5.25l2.578,0.047c2.672,-0.047 2.672,-0.047 3.422,-0.797c0.031,-1.75 0.032,-3.5 0,-5.25Z"/><path d="M238.744,129c2.978,1.518 4.897,3.22 6.75,6c0.367,2.282 0.352,4.466 0,6.75c-0.975,1.27 -1.972,2.523 -3,3.75c0,2.991 1.064,5.256 2.297,7.922c2.011,4.367 2.011,4.367 1.453,7.078c-1.168,1.472 -1.874,2.161 -3.721,2.598c-0.544,0.029 -1.088,0.058 -1.649,0.088c-0.595,0.033 -1.19,0.067 -1.803,0.101c-0.618,0.024 -1.237,0.047 -1.874,0.072c-0.932,0.057 -0.932,0.057 -1.882,0.116c-3.424,0.164 -3.424,0.164 -4.821,0.025c-1.5,-1.5 -1.5,-1.5 -1.688,-4.219c0.071,-3.265 0.848,-6.135 1.688,-9.281c0.34,-3.081 0.34,-3.081 -1.828,-4.969c-0.634,-0.588 -1.268,-1.176 -1.922,-1.781c-1.206,-2.413 -1.101,-4.883 -0.75,-7.5c2.724,-5.347 6.64,-8.011 12.75,-6.75Z" style="fill-rule:nonzero;"/><path d="M86.494,138.75l2.25,0.75l0,6.75l2.156,-0.094c2.344,0.094 2.344,0.094 3.844,1.594c-0.281,1.594 -0.281,1.594 -0.75,3l-5.25,0.75l0,4.5l5.25,0.75c-0.656,3.656 -0.656,3.656 -1.5,4.5c-1.5,0.031 -3,0.032 -4.5,0l0.094,2.859c0.086,2.609 -0.049,3.074 -1.594,5.391c-2.906,-0.656 -2.906,-0.656 -3.75,-1.5c-0.106,-2.003 -0.032,-3.993 0,-6l-5.25,0l0.094,2.484c-0.094,2.766 -0.094,2.766 -1.594,5.016l-3.75,-0.75l0,-6l-1.781,0.094c-1.969,-0.094 -1.969,-0.094 -3.469,-1.594c0.281,-1.594 0.281,-1.594 0.75,-3l5.25,0l0,-5.25l-5.25,0l-0.75,-3.75l7.5,-1.5l0,-6.75l3,-0.75c1.5,1.5 1.5,1.5 1.594,4.219l-0.094,2.531l5.25,0l-0.141,-2.438c0.145,-2.894 0.438,-3.779 2.391,-5.812Zm-8.25,13.5l0,5.25l5.25,-0.75l0,-4.5l-5.25,0Z"/><path d="M117.994,135.75l3,1.5l0,6l5.25,0l0.75,3.75c-2.576,1.718 -3.739,1.634 -6.75,1.5l0,5.25l6,0c0.032,1.25 0.03,2.5 0,3.75c-1.476,1.476 -4.011,1.247 -6,1.5l-0.75,6.75c-1.242,0.287 -2.493,0.535 -3.75,0.75c-0.75,-0.75 -0.75,-0.75 -0.823,-2.3l0.026,-1.872l0.021,-1.878l0.026,-1.45l-4.5,0.75l-1.5,6.75l-3.75,0c-1.109,-2.217 -0.795,-4.307 -0.75,-6.75l-4.5,0c-0.469,-1.406 -0.469,-1.406 -0.75,-3c1.5,-1.5 1.5,-1.5 3.844,-1.594l2.156,0.094l0,-5.25l-5.25,-0.75l-0.75,-3c2.528,-1.124 3.903,-1.5 6.75,-1.5l-0.094,-2.484c0.094,-2.766 0.094,-2.766 1.594,-5.016l3,0.75l0,6l5.25,-0.75l0.281,-2.906c0.281,-2.906 0.281,-2.906 1.969,-4.594Zm-7.5,13.5l0,5.25l4.5,0l0.75,-5.25l-5.25,0Z"/><path d="M96.806,23.391c3.018,1.683 4.652,3.539 6.188,6.609c0.452,3.447 0.801,6.833 -0.952,9.935c-2.107,2.466 -3.664,4.189 -7.005,4.494c-7.897,0.187 -7.897,0.187 -11.543,-3.179c-2.137,-2.432 -2.9,-4.4 -3.281,-7.641c0.435,-4.423 2.427,-7.472 5.766,-10.359c3.899,-1.451 6.972,-1.08 10.828,0.141Zm-5.109,3.188c-3.015,0.577 -3.731,1.51 -5.203,4.172c-0.421,2.999 -0.475,4.538 1.219,7.078c1.781,1.172 1.781,1.172 3.984,1.594c3.135,-0.576 4.191,-1.606 6.047,-4.172c0.469,-2.672 0.469,-2.672 0,-5.25c-1.93,-2.214 -3.164,-2.892 -6.047,-3.422Z"/><path d="M144.572,81.328c3.159,0.499 4.733,1.371 7.172,3.422c2.634,3.633 3.121,6.78 3.188,11.203l0.059,2.317c-0.4,3.628 -2.082,5.547 -4.559,8.136c-2.438,1.594 -2.438,1.594 -5.109,1.688c-3.926,-1.285 -5.624,-3.361 -7.641,-6.891c-1.927,-4.527 -2.365,-8.384 -0.797,-13.172c1.975,-3.678 3.416,-6.004 7.688,-6.703Zm1.125,5.062c-1.453,-0.141 -1.453,-0.141 -2.953,0.609c-0.999,1.598 -1.478,2.783 -1.673,4.664l0.032,1.711c0.033,3.906 0.635,6.325 3.141,9.375c2.443,-0.198 3.465,-0.426 5.109,-2.297c1.432,-3.542 1.36,-6.796 0.141,-10.453c-1.127,-1.825 -1.78,-2.815 -3.797,-3.609Z"/><path d="M33.994,27c3.431,1.562 6.129,3.953 7.5,7.5c0.522,3.515 0.358,6.021 -1.219,9.234c-2.336,2.643 -4.322,4.671 -7.913,5.303c-2.957,0.149 -4.842,-0.16 -7.556,-1.412c-3.382,-3.074 -5.526,-6.028 -6.234,-10.594c0.667,-4.002 2.427,-6.131 5.391,-8.812c3.44,-1.656 6.28,-1.907 10.031,-1.219Zm-3.375,4.031c-3.344,0.597 -4.431,1.45 -6.375,4.219c-0.469,2.625 -0.469,2.625 0,5.25c1.94,2.763 3.052,3.613 6.375,4.266c2.625,-0.516 2.625,-0.516 4.828,-2.484c1.688,-2.762 2.218,-3.879 1.547,-7.031c-1.956,-2.726 -3.053,-3.625 -6.375,-4.219Z"/><path d="M63.994,24.75c3.518,1.238 5.605,2.772 7.5,6c1.06,3.576 1.108,6.554 -0.422,9.984c-1.631,2.798 -3.358,4.368 -6.328,5.766c-4.07,0.518 -6.918,-0.29 -10.5,-2.25c-2.271,-2.393 -4.342,-4.964 -4.641,-8.335c0.395,-4.635 1.917,-7.319 5.391,-10.415c2.771,-1.386 5.969,-1.006 9,-0.75Zm0,4.5c-2.596,-0.264 -4.396,-0.427 -6.75,0.75c-1.929,1.986 -2.907,3.256 -3.422,6c0.422,2.25 0.422,2.25 1.969,4.406c2.203,1.594 2.203,1.594 4.922,1.875c2.557,-0.284 4.17,-0.443 6.047,-2.25c1.401,-2.535 1.385,-4.177 0.984,-7.031c-1.547,-2.203 -1.547,-2.203 -3.75,-3.75Z"/><path d="M78.994,84.75c1.547,0.328 1.547,0.328 3,0.75c1.99,8.386 2.428,16.902 2.25,25.5c-1.856,0.371 -1.856,0.371 -3.75,0.75c-1.642,-2.464 -1.765,-3.623 -1.969,-6.516c-0.056,-0.745 -0.112,-1.491 -0.17,-2.259c-0.055,-0.854 -0.055,-0.854 -0.111,-1.726l-6.75,0l0,11.25c-1.485,0.371 -1.485,0.371 -3,0.75c-1.987,-1.987 -1.785,-3.115 -1.975,-5.892c-0.063,-0.885 -0.126,-1.77 -0.19,-2.682c-0.059,-0.93 -0.118,-1.859 -0.179,-2.817c-0.065,-0.915 -0.13,-1.83 -0.196,-2.773c-0.293,-4.286 -0.549,-8.54 -0.46,-12.836c1.237,-0.248 2.475,-0.495 3.75,-0.75c1.971,3.695 1.609,7.167 1.5,11.25c2.475,-0.248 4.95,-0.495 7.5,-0.75c-0.009,-0.749 -0.017,-1.499 -0.026,-2.271c-0.007,-0.968 -0.014,-1.936 -0.021,-2.933c-0.009,-0.966 -0.017,-1.932 -0.026,-2.927c0.073,-2.37 0.073,-2.37 0.823,-3.12Z" style="fill-rule:nonzero;"/><path d="M99.244,84.75c0.469,1.406 0.469,1.406 0.75,3c-1.871,1.871 -2.755,1.77 -5.344,1.969c-0.683,0.056 -1.365,0.112 -2.068,0.17c-0.786,0.055 -0.786,0.055 -1.588,0.111c0.248,1.98 0.495,3.96 0.75,6c0.47,-0.063 0.94,-0.126 1.424,-0.19c0.613,-0.076 1.226,-0.153 1.857,-0.231c0.609,-0.078 1.218,-0.157 1.846,-0.237c1.623,-0.091 1.623,-0.091 3.123,0.659c-0.234,1.406 -0.234,1.406 -0.75,3c-2.733,1.822 -4.284,1.621 -7.5,1.5c0.248,1.98 0.495,3.96 0.75,6c0.495,-0.248 0.99,-0.495 1.5,-0.75c1.28,-0.052 2.563,-0.063 3.844,-0.047c0.683,0.007 1.365,0.014 2.068,0.021c0.524,0.009 1.048,0.017 1.588,0.026c0.248,1.237 0.495,2.475 0.75,3.75c-1.419,0.401 -2.842,0.789 -4.266,1.172c-0.792,0.218 -1.584,0.435 -2.399,0.659c-2.408,0.432 -3.795,0.508 -6.085,-0.331c-2.362,-2.446 -2.614,-4.503 -2.851,-7.834c-0.067,-0.931 -0.134,-1.862 -0.204,-2.821c-0.059,-0.97 -0.119,-1.939 -0.18,-2.938c-0.111,-1.463 -0.111,-1.463 -0.224,-2.956c-0.361,-5.374 -0.361,-5.374 -0.292,-7.45c3.325,-3.325 9.078,-2.329 13.5,-2.25Z" style="fill-rule:nonzero;"/><path d="M120.994,84c1.453,0.047 1.453,0.047 3,0.75c1.667,3.844 1.965,7.783 2.344,11.906c0.065,0.659 0.13,1.319 0.196,1.998c0.158,1.615 0.31,3.23 0.46,4.846c0.578,-0.009 1.156,-0.017 1.752,-0.026c0.752,-0.007 1.504,-0.014 2.279,-0.021c0.748,-0.009 1.497,-0.017 2.268,-0.026c1.951,0.073 1.951,0.073 3.451,0.823c-0.248,1.237 -0.495,2.475 -0.75,3.75c-7.903,1.967 -7.903,1.967 -11.25,1.5c-1.867,-1.267 -2.835,-2.328 -3.38,-4.544c-0.256,-1.907 -0.422,-3.802 -0.557,-5.722c-0.058,-0.645 -0.116,-1.291 -0.176,-1.956c-0.353,-4.185 -0.504,-8.33 -0.387,-12.529c0.248,-0.248 0.495,-0.495 0.75,-0.75Z" style="fill-rule:nonzero;"/><path d="M108.244,84.75c0.818,1.637 0.961,2.792 1.151,4.605c0.065,0.618 0.131,1.236 0.198,1.872c0.065,0.647 0.131,1.294 0.198,1.96c0.068,0.635 0.136,1.27 0.207,1.925c0.343,3.312 0.578,6.553 0.497,9.888l8.25,0c0.495,0.99 0.99,1.98 1.5,3c-0.797,1.102 -0.797,1.102 -2.25,2.25c-2.438,0.352 -2.438,0.352 -5.25,0.375c-1.392,0.035 -1.392,0.035 -2.812,0.07c-2.438,-0.445 -2.438,-0.445 -3.858,-1.989c-1.014,-2.698 -1.218,-4.998 -1.345,-7.878c-0.025,-0.524 -0.049,-1.048 -0.074,-1.588c-0.414,-9.606 -0.414,-9.606 -0.16,-13.74c0.75,-0.75 0.75,-0.75 3.75,-0.75Z" style="fill-rule:nonzero;"/></svg>