<?xml version="1.0" encoding="UTF-8" standalone="no"?><!DOCTYPE svg PUBLIC "-//W3C//DTD SVG 1.1//EN" "http://www.w3.org/Graphics/SVG/1.1/DTD/svg11.dtd"><svg width="100%" height="100%" viewBox="0 0 289 195" version="1.1" xmlns="http://www.w3.org/2000/svg" xmlns:xlink="http://www.w3.org/1999/xlink" xml:space="preserve" xmlns:serif="http://www.serif.com/" style="fill-rule:evenodd;clip-rule:evenodd;stroke-linejoin:round;stroke-miterlimit:2;"><path d="M253.566,0.516c0.749,-0.013 1.497,-0.027 2.269,-0.04c5.428,0.006 10.394,0.549 14.718,4.063c0.687,0.84 0.687,0.84 1.389,1.696c0.47,0.554 0.94,1.108 1.424,1.679c3.124,4.432 4.059,8.374 4.717,13.649c0.092,0.701 0.184,1.402 0.279,2.124c0.186,1.433 0.368,2.866 0.546,4.299c0.22,1.755 0.457,3.506 0.701,5.257c0.88,6.652 1.17,13.255 1.333,19.96c0.598,23.033 2.751,46.065 5.495,68.933c0.809,6.759 1.523,13.474 1.682,20.284c0.03,1.152 0.074,2.304 0.125,3.455c0.657,15.031 0.657,15.031 -3.833,20.625c-8.812,9.212 -23.248,8.551 -35.106,9.656c-1.361,0.129 -2.723,0.257 -4.084,0.386c-2.848,0.269 -5.697,0.536 -8.546,0.802c-3.579,0.334 -7.158,0.673 -10.737,1.014c-22.287,2.118 -44.549,3.811 -66.922,4.721c-8.872,0.366 -17.662,1.024 -26.491,1.974c-3.093,0.327 -6.188,0.622 -9.284,0.921c-2.48,0.242 -4.959,0.486 -7.438,0.729c-0.653,0.064 -1.307,0.128 -1.98,0.194c-7.393,0.729 -14.76,1.513 -22.114,2.571c-7.387,1.054 -14.787,1.473 -22.232,1.866c-6.944,0.369 -13.812,0.939 -20.705,1.884c-10.487,1.425 -21.325,2.759 -30.609,-3.469c-6.173,-5.852 -8.199,-12.376 -8.783,-20.707c-0.082,-1.105 -0.164,-2.211 -0.246,-3.316c-0.041,-0.576 -0.082,-1.152 -0.124,-1.746c-0.818,-11.457 -1.918,-22.864 -3.262,-34.271c-1.965,-16.754 -2.974,-33.504 -3.687,-50.349c-0.185,-4.366 -0.374,-8.732 -0.568,-13.098c-0.066,-1.502 -0.128,-3.005 -0.191,-4.508c-0.213,-4.869 -0.539,-9.669 -1.14,-14.505c-0.578,-7.478 0.257,-14.887 5.062,-20.953c6.493,-6.672 14.056,-7.595 22.969,-8.297c1.468,-0.124 2.936,-0.249 4.403,-0.375c0.728,-0.062 1.456,-0.124 2.206,-0.188c3.067,-0.273 6.127,-0.603 9.188,-0.938c11.546,-1.237 23.077,-2.249 34.681,-2.706c4.953,-0.206 9.88,-0.563 14.819,-0.997c6.839,-0.598 13.68,-1.107 20.531,-1.547c1.473,-0.095 1.473,-0.095 2.976,-0.192c5.045,-0.321 10.089,-0.609 15.139,-0.854c22.295,-1.096 44.466,-3.462 66.659,-5.812c18.228,-1.927 36.426,-3.685 54.773,-3.876Zm-12.656,7.5c-0.82,0.045 -0.82,0.045 -1.657,0.092c-12.036,0.678 -24.053,1.627 -36.069,2.599c-1.486,0.12 -2.972,0.238 -4.459,0.356c-11.014,0.881 -21.957,1.953 -32.904,3.45c-4.428,0.602 -8.859,1.019 -13.317,1.331c-0.802,0.059 -1.605,0.119 -2.431,0.18c-6.318,0.448 -12.64,0.74 -18.971,0.904c-5.887,0.18 -11.729,0.703 -17.592,1.231c-7.175,0.638 -14.356,1.103 -21.546,1.537c-11.611,0.704 -23.219,1.457 -34.819,2.335c-1.216,0.092 -2.432,0.183 -3.649,0.273c-6.76,0.501 -13.436,1.193 -20.15,2.136c-2.909,0.37 -5.739,0.485 -8.669,0.544c-6.095,0.264 -10.781,1.781 -15.141,6.141c-4.562,7.604 -2.6,16.862 -1.931,25.33c0.748,9.774 1.277,19.551 1.751,29.341c0.803,16.386 1.779,32.723 3.392,49.049c0.176,1.796 0.347,3.591 0.517,5.388c0.312,3.287 0.631,6.574 0.956,9.86c0.123,1.253 0.246,2.505 0.366,3.758c0.599,6.172 1.295,12.317 2.354,18.429c0.16,0.929 0.321,1.858 0.486,2.815c0.952,3.451 2.287,6.716 5.121,9.047c0.439,0.211 0.878,0.422 1.33,0.639c1.347,0.649 2.694,1.3 4.031,1.969c10.329,0.894 20.805,-0.226 31.064,-1.347c6.424,-0.697 12.829,-1.193 19.28,-1.559c9.45,-0.561 18.819,-1.57 28.219,-2.672c21.275,-2.481 42.474,-4.235 63.862,-5.387c23.813,-1.288 47.64,-2.894 71.311,-5.848c3.363,-0.411 6.71,-0.65 10.093,-0.812c14.573,-0.485 14.573,-0.485 27.422,-6.375c2.436,-3.86 2.586,-6.99 2.502,-11.405c-0.01,-1.023 -0.01,-1.023 -0.021,-2.067c-0.169,-8.967 -1.11,-17.876 -2.012,-26.793c-0.169,-1.729 -0.337,-3.458 -0.504,-5.187c-0.654,-6.709 -1.324,-13.414 -2.098,-20.111c-1.101,-9.532 -1.639,-19.014 -1.797,-28.613c-0.182,-10.757 -0.855,-21.405 -1.976,-32.105c-0.061,-0.599 -0.122,-1.198 -0.185,-1.816c-1.012,-12.681 -1.012,-12.681 -5.909,-24.153c-6.91,-5.558 -17.916,-2.952 -26.25,-2.484Z" style="fill-rule:nonzero;"/><path d="M154.847,34.266c0.725,-0.022 1.45,-0.044 2.197,-0.066c3.088,-0.028 5.319,0.05 8.15,1.346c2.197,2.931 2.522,5.872 2.965,9.454c0.074,0.591 0.149,1.182 0.226,1.792c0.205,1.839 0.37,3.677 0.524,5.521c0.062,0.702 0.124,1.403 0.188,2.126c0.349,4.078 0.638,8.156 0.884,12.241c0.644,10.668 1.561,21.22 2.878,31.823c1.03,8.308 1.813,16.592 2.353,24.949c0.273,4.342 0.273,4.342 0.845,8.651c0.508,3.106 0.549,6.177 0.586,9.319c0.022,0.628 0.044,1.256 0.066,1.903c0.031,2.991 -0.067,4.755 -1.542,7.411c-2.049,1.765 -3.482,2.272 -6.117,2.827c-0.747,0.166 -1.495,0.333 -2.265,0.504c-4.989,0.91 -9.783,1.339 -14.845,1.371c-0.937,0.023 -0.937,0.023 -1.893,0.047c-6.297,0.04 -6.297,0.04 -8.889,-2.484c-2.537,-4.883 -2.73,-10.314 -3.047,-15.703c-0.117,-1.721 -0.234,-3.441 -0.352,-5.162c-0.086,-1.323 -0.086,-1.323 -0.173,-2.673c-0.295,-4.484 -0.635,-8.965 -0.976,-13.447c-0.06,-0.822 -0.119,-1.644 -0.18,-2.492c-0.057,-0.768 -0.115,-1.536 -0.174,-2.328c-0.049,-0.673 -0.099,-1.346 -0.15,-2.04c-0.201,-1.921 -0.565,-3.765 -0.949,-5.656c-0.049,-1.452 -0.064,-2.906 -0.047,-4.359c0.007,-0.732 0.014,-1.464 0.021,-2.218c0.013,-0.828 0.013,-0.828 0.026,-1.673c-2.781,2.548 -4.759,5.42 -6.844,8.531c-0.736,1.084 -1.472,2.167 -2.209,3.249c-0.369,0.542 -0.737,1.084 -1.117,1.642c-2.475,3.613 -5.034,7.165 -7.6,10.714c-1.067,1.483 -2.122,2.975 -3.178,4.466c-0.736,1.029 -1.472,2.057 -2.209,3.085c-0.339,0.483 -0.679,0.967 -1.028,1.465c-3.17,4.391 -3.17,4.391 -5.815,5.097c-5.963,-0.562 -11.24,-7.354 -15.114,-11.385c-1.295,-1.416 -1.295,-1.416 -2.886,-2.115l0,-1.5c-0.432,-0.191 -0.864,-0.382 -1.309,-0.578c-1.877,-1.023 -3.201,-2.192 -4.747,-3.667c-0.562,-0.533 -1.124,-1.066 -1.704,-1.616c-0.869,-0.835 -0.869,-0.835 -1.756,-1.686c-0.588,-0.559 -1.177,-1.119 -1.783,-1.695c-3.995,-3.802 -3.995,-3.802 -5.202,-5.008c-0.104,5.827 0.213,11.582 0.656,17.391c0.067,0.899 0.133,1.797 0.202,2.723c0.353,4.577 0.791,9.099 1.486,13.636c0.617,4.289 0.865,8.516 0.938,12.844c0.019,0.605 0.039,1.21 0.059,1.834c0.009,2.927 -0.139,4.48 -1.653,7.055c-1.777,1.598 -2.642,2.09 -4.969,2.455c-0.651,0.103 -1.301,0.207 -1.972,0.313c-3.443,0.382 -6.889,0.625 -10.348,0.814c-2.118,0.163 -4.075,0.504 -6.149,0.935c-3.441,0.28 -6.765,0.407 -9.75,-1.5c-3.362,-4.596 -3.585,-8.82 -3.87,-14.402c-0.057,-0.893 -0.114,-1.787 -0.173,-2.707c-0.18,-2.859 -0.343,-5.718 -0.504,-8.578c-0.221,-3.723 -0.449,-7.446 -0.683,-11.168c-0.058,-0.927 -0.115,-1.854 -0.174,-2.81c-0.465,-7.149 -1.197,-14.247 -2.028,-21.361c-0.836,-7.187 -1.452,-14.374 -1.949,-21.591c-0.137,-1.979 -0.283,-3.957 -0.429,-5.935c-1.552,-21.549 -1.552,-21.549 0.81,-26.197c6.009,-4.917 16.537,-4.59 24,-5.25c0.934,-0.092 1.868,-0.184 2.83,-0.278c3.987,-0.228 6.855,-0.276 10.014,2.341c0.979,1.053 1.945,2.118 2.906,3.188c5.8,6.435 11.79,12.617 17.953,18.703c1.65,1.63 3.297,3.262 4.942,4.896c0.553,0.544 0.553,0.544 1.117,1.099c1.661,1.649 3.191,3.308 4.65,5.14c1.194,1.721 1.194,1.721 2.837,2.412c0.188,-0.526 0.376,-1.053 0.569,-1.595c1.046,-2.422 2.345,-4.446 3.819,-6.634c0.283,-0.423 0.567,-0.846 0.858,-1.281c0.904,-1.348 1.813,-2.692 2.722,-4.036c0.593,-0.882 1.186,-1.764 1.778,-2.647c1.174,-1.749 2.351,-3.496 3.528,-5.243c2.59,-3.844 5.156,-7.704 7.725,-11.563c0.528,-0.786 1.055,-1.572 1.599,-2.382c0.896,-1.354 1.758,-2.73 2.573,-4.134c1.581,-2.543 2.449,-3.768 5.443,-4.506c0.818,-0.106 1.636,-0.213 2.479,-0.322c1.209,-0.165 1.209,-0.165 2.443,-0.334c1.343,-0.16 1.343,-0.16 2.713,-0.322c0.505,-0.066 1.01,-0.131 1.531,-0.199c4.553,-0.562 9.072,-0.739 13.657,-0.785Zm-14.569,7.638c-4.478,-0.024 -4.478,-0.024 -8.156,2.25c-1.36,1.809 -1.36,1.809 -2.426,3.816c-1.261,2.236 -2.62,4.348 -4.054,6.476c-0.527,0.785 -1.055,1.57 -1.598,2.378c-0.539,0.801 -1.078,1.601 -1.633,2.426c-1.018,1.526 -2.036,3.052 -3.053,4.579c-2.031,3.047 -4.063,6.094 -6.094,9.141c-0.481,0.723 -0.961,1.445 -1.457,2.19c-0.908,1.359 -1.821,2.715 -2.741,4.067c-0.405,0.598 -0.811,1.196 -1.228,1.812c-0.356,0.52 -0.711,1.041 -1.078,1.577c-0.971,1.465 -0.971,1.465 -1.6,3.635c-2.259,1.533 -4.06,1.761 -6.75,1.5c-1.444,-1.006 -1.444,-1.006 -2.807,-2.414c-0.506,-0.514 -1.011,-1.029 -1.532,-1.559c-0.517,-0.545 -1.034,-1.091 -1.567,-1.652c-0.511,-0.522 -1.023,-1.044 -1.55,-1.582c-2.457,-2.527 -4.833,-5.103 -7.131,-7.775c-3.47,-4.009 -7.294,-7.659 -11.093,-11.353c-0.566,-0.558 -1.132,-1.116 -1.715,-1.69c-0.571,-0.555 -1.143,-1.111 -1.731,-1.683c-1.623,-1.792 -1.623,-1.792 -2.91,-3.927c-1.419,-2.31 -2.489,-3.799 -4.714,-5.365c-4.632,-0.492 -8.936,0.246 -13.5,1.031c-1.237,0.182 -2.474,0.361 -3.712,0.536c-3.021,0.435 -6.03,0.92 -9.038,1.433c-0.166,9.075 0.328,18.086 0.891,27.141c0.071,1.168 0.071,1.168 0.144,2.36c0.796,12.843 2.038,25.594 3.68,38.356c0.86,6.743 1.521,13.432 1.794,20.227c-0.157,9.467 -0.157,9.467 2.492,17.666c1.824,-0.05 3.62,-0.146 5.438,-0.281c0.536,-0.037 1.071,-0.074 1.623,-0.113c1.105,-0.078 2.21,-0.157 3.315,-0.238c1.52,-0.11 3.042,-0.211 4.563,-0.311c1.307,-0.09 1.307,-0.09 2.64,-0.182c0.788,-0.054 1.576,-0.108 2.388,-0.164c1.748,-0.02 1.748,-0.02 2.534,-0.961c0.665,-8.053 -0.62,-16.279 -1.453,-24.281c-0.275,-2.678 -0.547,-5.355 -0.817,-8.033c-0.065,-0.644 -0.13,-1.288 -0.197,-1.951c-0.709,-7.104 -1.378,-14.231 -1.423,-21.375c-0.011,-0.784 -0.021,-1.568 -0.032,-2.376c0.173,-1.983 0.173,-1.983 1.673,-4.233c1.688,-0.387 1.688,-0.387 3.75,0c1.651,1.265 3.039,2.481 4.5,3.938c0.867,0.832 1.734,1.664 2.602,2.496c0.44,0.428 0.88,0.856 1.333,1.296c2.03,1.96 4.111,3.863 6.19,5.77c0.808,0.745 1.616,1.49 2.423,2.235c0.402,0.371 0.803,0.741 1.217,1.123c1.269,1.173 2.537,2.348 3.805,3.523c4.339,4.021 8.69,8.015 13.181,11.868c3.186,-2.988 5.681,-6.239 8.203,-9.797c0.418,-0.584 0.836,-1.168 1.266,-1.77c5.368,-7.522 10.646,-15.108 15.929,-22.69c0.691,-0.99 0.691,-0.99 1.397,-2.001c0.624,-0.895 0.624,-0.895 1.262,-1.809c1.122,-1.582 2.272,-3.138 3.443,-4.683c1.781,0.188 1.781,0.188 3.75,0.75c1.967,2.719 1.948,6.021 2.227,9.258c0.09,0.971 0.09,0.971 0.182,1.962c0.994,10.899 1.849,21.812 2.708,32.722c0.233,2.955 0.476,5.909 0.719,8.863c0.104,1.358 0.104,1.358 0.211,2.744c0.07,0.837 0.14,1.675 0.212,2.537c0.059,0.734 0.118,1.468 0.178,2.225c0.311,1.927 0.839,3.261 1.813,4.94c7.61,-0.3 15.039,-0.605 22.5,-2.25c0.096,-6.424 -0.146,-12.72 -0.768,-19.113c-0.12,-1.282 -0.12,-1.282 -0.241,-2.591c-0.168,-1.795 -0.338,-3.59 -0.511,-5.385c-0.26,-2.706 -0.513,-5.413 -0.765,-8.12c-0.684,-7.285 -1.376,-14.566 -2.268,-21.829c-0.801,-6.583 -1.321,-13.179 -1.822,-19.79c-0.697,-9.165 -1.556,-18.292 -2.625,-27.422c-5.04,-0.042 -10.078,-0.041 -15.118,-0.003c-1.758,0.002 -3.507,-0.034 -5.264,-0.094Z" style="fill-rule:nonzero;"/><path d="M231.16,31.5c1.484,2.388 1.777,4.478 2.003,7.257l0.22,2.597l0.218,2.808l0.24,2.917c0.168,2.044 0.332,4.088 0.493,6.132c0.203,2.579 0.413,5.157 0.625,7.735c0.879,10.677 1.701,21.352 2.201,32.054l1.396,-0.175c4.03,-0.489 8.047,-0.677 12.104,-0.716l2.906,-0.032c2.344,0.173 2.344,0.173 3.844,1.673c0.793,4.58 -1.541,7.854 -3.75,11.672l-1.141,2.019c-2.994,5.267 -6.127,10.436 -9.359,15.559c-0.955,1.546 -1.908,3.093 -2.859,4.641l-1.477,2.391c-1.282,2.084 -2.541,4.181 -3.797,6.281l-1.117,1.857c-0.729,1.212 -1.454,2.427 -2.174,3.644l-1.013,1.68l-0.896,1.502c-0.918,1.255 -0.918,1.255 -3.168,2.755c-2.075,0.058 -3.3,-0.391 -4.922,-1.685c-3.278,-3.164 -6.099,-6.72 -8.95,-10.266c-1.655,-2.027 -3.347,-4.006 -5.066,-5.977c-5.072,-5.824 -9.801,-11.878 -14.424,-18.062c-0.79,-1.048 -1.59,-2.088 -2.398,-3.122l-1.23,-1.587l-1.114,-1.419c-1.454,-2.243 -1.646,-3.974 -1.646,-6.632c4.57,-4.57 14.871,-3.483 21,-3.75l-0.293,-1.433c-1.123,-5.778 -1.72,-11.531 -2.2,-17.393l-0.251,-2.993c-0.174,-2.076 -0.344,-4.152 -0.512,-6.229c-0.215,-2.644 -0.439,-5.287 -0.666,-7.93c-0.217,-2.548 -0.425,-5.097 -0.633,-7.645l-0.246,-2.849c-1.005,-12.709 -1.005,-12.709 1.36,-15.55c4.874,-4.002 21.548,-5.265 26.692,-1.728Zm-3.504,13.047c2.876,-15.637 -16.249,-10.106 -19.209,-6.839c-1.436,2.319 1.564,10.569 2.174,20.942l0.149,2.325c0.127,2.08 0.253,4.16 0.384,6.24c0.138,2.157 0.274,4.314 0.404,6.472c0.102,1.695 0.206,3.389 0.311,5.084l0.153,2.443c0.291,4.785 -0.096,15.481 0.586,20.196c0.061,0.398 -17.299,-2.5 -20.074,1.23c0,2.169 17.808,17.403 20.888,22.157c1.044,1.609 2.071,3.225 3.076,4.879c1.731,2.894 3.444,5.796 5.435,8.379c0.985,1.056 1.729,1.422 2.989,1.375c1.366,-1.224 1.366,-1.224 1.924,-2.248l0.544,-1.226l0.615,-1.371c0.438,-0.993 0.878,-1.985 1.32,-2.974l0.678,-1.516c0.762,-1.714 5.452,-7.078 5.452,-7.078c0,0 17.729,-25.43 16.306,-25.572c-0.891,0.013 -20.183,1.812 -20.463,1.859c-0.303,-8.735 -0.803,-22.008 -1.336,-30.723c-0.129,-2.104 -0.256,-4.209 -0.38,-6.313c-0.098,-1.668 -0.197,-3.337 -0.3,-5.005l-0.146,-2.381l-0.132,-2.291l-0.133,-2.12c-0.137,-2.268 -0.315,-3.974 -1.216,-5.923Z"/></svg>