<?xml version="1.0" encoding="UTF-8" standalone="no"?><!DOCTYPE svg PUBLIC "-//W3C//DTD SVG 1.1//EN" "http://www.w3.org/Graphics/SVG/1.1/DTD/svg11.dtd"><svg width="100%" height="100%" viewBox="0 0 990 996" version="1.1" xmlns="http://www.w3.org/2000/svg" xmlns:xlink="http://www.w3.org/1999/xlink" xml:space="preserve" xmlns:serif="http://www.serif.com/" style="fill-rule:evenodd;clip-rule:evenodd;stroke-linejoin:round;stroke-miterlimit:2;"><rect id="Artboard2" x="0" y="0" width="990" height="996" style="fill:none;"/><g id="Artboard1"><path d="M881.201,2.92l91.058,888.345l-866.46,88.815l-91.058,-888.345l866.46,-88.815Z" style="fill:none;"/><g><clipPath id="_clip1"><path d="M881.201,2.92l91.058,888.345l-866.46,88.815l-91.058,-888.345l866.46,-88.815Z"/></clipPath><g clip-path="url(#_clip1)"><g><path d="M490.263,768.838c3.508,0.714 4.451,1.418 6.472,4.3c1.639,3.631 2.333,7.339 3.133,11.219c0.173,0.833 0.346,1.664 0.524,2.523c0.367,1.769 0.732,3.54 1.094,5.31c0.546,2.653 1.105,5.305 1.663,7.956c1.67,8.034 3.228,16.077 4.236,24.223c0.156,1.242 0.313,2.483 0.474,3.762c-0.159,3.783 -0.962,5.034 -3.706,7.576c-3.108,0.878 -5.919,0.621 -9.055,-0.077c-2.309,-1.784 -3.736,-3.272 -5.586,-5.459c-1.621,-1.646 -3.256,-3.279 -4.9,-4.902c-0.872,-0.868 -1.743,-1.736 -2.641,-2.63c-3.373,-3.319 -6.83,-6.536 -10.313,-9.737c-1.459,-1.358 -2.918,-2.717 -4.376,-4.075c-0.651,-0.608 -2.917,-2.718 -3.403,-3.17c-1.238,1.262 -1.238,1.262 -0.643,4.182c0.161,1.363 0.326,2.725 0.493,4.086c0.169,1.478 0.337,2.955 0.506,4.433c0.271,2.338 0.545,4.674 0.831,7.01c0.274,2.249 0.527,4.499 0.779,6.75c0.09,0.698 0.18,1.395 0.273,2.114c0.522,4.84 0.522,4.84 -0.949,7.43c-2.795,2.261 -5.965,1.841 -9.455,2.027c-0.776,-1.108 -1.536,-2.225 -2.291,-3.347c-0.637,-0.932 -0.637,-0.932 -1.288,-1.883c-4.948,-9.45 -4.983,-22.52 -6.367,-32.956c-0.149,-1.107 -0.298,-2.213 -0.451,-3.352c-0.427,-3.242 -0.821,-6.487 -1.204,-9.735c-0.133,-1.001 -0.265,-2 -0.402,-3.031c-0.483,-4.373 -0.734,-6.985 1.085,-11.065c1.994,-2.073 1.994,-2.073 5.357,-2.984c7.286,0.397 11.765,6.085 16.762,10.911c0.985,0.948 1.97,1.895 2.953,2.842c1.593,1.533 3.184,3.066 4.773,4.6c4.063,3.92 8.168,7.79 12.321,11.613c-0.419,-5.026 -0.927,-10.011 -1.829,-14.975c-0.125,-0.69 -0.249,-1.381 -0.377,-2.093c-0.251,-1.36 -0.512,-2.72 -0.785,-4.077c-0.936,-5.088 -0.695,-9.197 1.667,-13.84c1.633,-1.235 1.633,-1.235 4.623,-1.479Z" style="fill-rule:nonzero;"/></g><g><path d="M654.192,749.962c4.931,3.219 6.044,6.245 7.295,11.947c0.486,2.609 0.948,5.217 1.392,7.832c0.498,2.756 1.01,5.508 1.522,8.26c0.187,1.021 0.187,1.021 0.377,2.063c1.274,6.849 3.006,13.56 4.978,20.239c1.01,3.677 1.47,5.622 0.387,9.359c-1.569,2.155 -1.569,2.155 -4.863,3.121c-4.562,-0.313 -6.026,-1.446 -9.154,-4.716c-2.505,-3.99 -3.442,-8.187 -4.392,-12.744c-0.165,-0.77 -0.331,-1.541 -0.502,-2.335c-0.348,-1.63 -0.692,-3.26 -1.033,-4.892c-0.514,-2.454 -1.044,-4.905 -1.574,-7.356c-5.278,-24.696 -5.278,-24.696 -2.959,-28.708c2.731,-2.374 5.006,-2.253 8.525,-2.071Z" style="fill-rule:nonzero;"/></g><g><path d="M597.287,754.907c1.497,1.237 1.497,1.237 3.493,3.545c0.482,-0.568 0.962,-1.135 1.457,-1.721c2.216,-1.672 2.216,-1.672 5.132,-2.034c4.114,0.972 6.504,2.685 8.74,6.204c0.629,2.071 0.629,2.071 1.061,4.407c0.162,0.871 0.322,1.741 0.489,2.639c0.959,5.772 1.766,11.563 2.566,17.359c0.725,5.126 1.574,10.088 2.947,15.081c0.665,-0.089 1.33,-0.179 2.015,-0.271c3.028,-0.394 6.057,-0.757 9.089,-1.119c1.569,-0.211 1.569,-0.211 3.17,-0.427c7.768,-0.895 7.768,-0.895 11.953,0.935c2.809,2.768 3.277,4.993 3.744,8.867c-0.416,2.223 -0.416,2.223 -1.582,4.183c-2.441,0.876 -2.441,0.876 -5.562,1.367c-1.689,0.283 -1.689,0.283 -3.413,0.571c-1.184,0.18 -2.368,0.358 -3.588,0.543c-2.323,0.377 -4.645,0.755 -6.968,1.134c-1.034,0.159 -2.068,0.319 -3.134,0.483c-3.036,0.494 -3.036,0.494 -6.081,1.453c-4.017,1.005 -6.31,0.092 -10.052,-1.574c-4.907,-4.631 -5.588,-8.918 -6.388,-15.315c-0.132,-0.93 -0.263,-1.861 -0.4,-2.819c-0.416,-2.958 -0.807,-5.919 -1.196,-8.88c-0.406,-2.97 -0.817,-5.94 -1.232,-8.909c-0.255,-1.844 -0.506,-3.689 -0.748,-5.535c-0.169,-1.251 -0.169,-1.251 -0.342,-2.528c-0.096,-0.733 -0.193,-1.466 -0.292,-2.221c-0.332,-2.145 -0.332,-2.145 -1.669,-4.808c-0.69,0.547 -1.38,1.095 -2.092,1.659c-4.575,2.968 -10.114,3.361 -15.407,4.156c1.626,12.16 3.26,24.213 6.313,36.107c2.12,9.544 2.12,9.544 0.765,13.933c-1.775,1.69 -1.775,1.69 -5.143,2.538c-3.595,-0.134 -3.595,-0.134 -6.048,-1.391c-4.243,-5.08 -5.299,-12.006 -6.446,-18.376c-0.213,-1.132 -0.213,-1.132 -0.429,-2.288c-0.445,-2.38 -0.881,-4.763 -1.316,-7.145c-0.303,-1.628 -0.605,-3.255 -0.909,-4.882c-0.738,-3.962 -1.468,-7.926 -2.193,-11.889c-0.951,0.059 -1.903,0.12 -2.882,0.182c-1.255,0.062 -2.509,0.125 -3.802,0.189c-1.241,0.069 -2.482,0.138 -3.76,0.21c-3.692,-0.152 -5.638,-0.943 -8.865,-2.622c-5.742,0.032 -10.789,1.793 -16.147,3.666c-0.803,0.274 -1.607,0.548 -2.434,0.831c-1.963,0.671 -3.922,1.351 -5.88,2.032c-0.025,2.988 -0.051,5.976 -0.077,9.055c0.759,-0.296 1.518,-0.591 2.3,-0.895c13.314,-5.03 13.314,-5.03 19.875,-2.823c2.797,2.164 2.797,2.164 3.782,5.644c-0.271,3.484 -0.271,3.484 -1.825,5.265c-2.254,1.713 -4.28,2.693 -6.914,3.715c-0.904,0.355 -1.806,0.71 -2.737,1.076c-0.936,0.358 -1.873,0.717 -2.838,1.086c-0.95,0.372 -1.901,0.744 -2.88,1.126c-2.34,0.913 -4.683,1.819 -7.029,2.718c0.836,2.279 1.741,4.532 2.703,6.76c3.471,1.312 6.561,0.965 10.05,-0.025c2.97,-1.755 5.752,-3.65 8.536,-5.685c3.333,-1.8 5.169,-1.736 8.861,-1.124c1.974,0.865 1.974,0.865 3.29,2.678c0.86,3.17 1.302,4.825 0.816,7.958c-3.677,6.1 -11.039,10.832 -17.779,12.88c-7.342,1.405 -13.736,2.044 -20.304,-1.94c-6.102,-4.348 -9.497,-10.103 -11.117,-17.395c-0.387,-2.56 -0.682,-5.111 -0.937,-7.687c-0.101,-0.929 -0.202,-1.858 -0.305,-2.816c-0.207,-1.947 -0.404,-3.895 -0.596,-5.844c-0.297,-2.987 -0.632,-5.97 -0.97,-8.953c-0.196,-1.899 -0.39,-3.798 -0.582,-5.696c-0.102,-0.891 -0.205,-1.782 -0.311,-2.7c-0.557,-6.108 -0.557,-6.108 1.377,-8.866c2.195,-1.24 4.183,-2.115 6.599,-2.842c0.857,-0.261 1.714,-0.52 2.597,-0.788c0.902,-0.259 1.805,-0.518 2.735,-0.784c1.382,-0.401 1.382,-0.401 2.793,-0.81c15.992,-4.507 15.992,-4.507 21.698,-1.953c4.088,1.309 6.139,0.899 10.268,-0.156c0.946,-0.234 0.946,-0.234 1.911,-0.472c2.001,-0.499 3.993,-1.021 5.987,-1.546c1.339,-0.338 2.679,-0.675 4.02,-1.009c4.628,-1.163 9.244,-2.363 13.843,-3.637c11.898,-3.215 11.898,-3.215 16.624,-1.034Z" style="fill-rule:nonzero;"/></g><g><path d="M763.492,727.7c3.188,1.684 3.188,1.684 4.17,3.484c2.365,8.618 -1.514,15.316 -5.498,22.788c-0.856,1.484 -1.716,2.966 -2.58,4.446c-7.041,12.546 -7.215,21.569 -3.391,35.37c0.495,1.626 0.995,3.251 1.505,4.872c0.756,4.79 0.63,8.46 -0.664,13.136c-4.213,1.446 -6.954,2.123 -11.045,0.127c-3.122,-4.166 -4.392,-7.949 -5.48,-13.009c-0.154,-0.684 -0.307,-1.369 -0.465,-2.073c-0.985,-4.498 -1.619,-8.98 -2.205,-13.548c-1.639,-9.731 -8.078,-15.903 -15.372,-22.091c-2.919,-2.875 -5.312,-6.132 -7.772,-9.401c-3.62,0.852 -7.239,1.705 -10.858,2.558c-1.02,0.239 -2.039,0.479 -3.089,0.727c-5.172,1.219 -10.338,2.453 -15.489,3.753c0.926,2.559 1.852,5.118 2.805,7.754c0.672,-0.214 1.342,-0.428 2.034,-0.649c14.864,-4.551 14.864,-4.551 21.269,-1.865c2.765,1.853 2.765,1.853 4.959,3.638c0.117,3.035 0.168,5.218 -1.508,7.813c-1.778,1.772 -3.092,2.353 -5.468,3.124c-0.758,0.25 -1.516,0.499 -2.298,0.756c-0.79,0.247 -1.58,0.495 -2.393,0.75c-0.781,0.258 -1.562,0.516 -2.367,0.782c-3.844,1.241 -7.432,2.284 -11.5,2.46c0.255,1.077 0.511,2.153 0.775,3.262c0.334,1.428 0.67,2.856 1.004,4.284c0.168,0.708 0.337,1.415 0.51,2.144c2.47,10.582 2.47,10.582 -0.633,16.276c-7.524,0.276 -7.524,0.276 -9.746,-1.609c-2.221,-2.921 -2.975,-5.63 -3.975,-9.161c-0.194,-0.683 -0.387,-1.366 -0.587,-2.069c-2.04,-7.346 -3.708,-14.776 -5.305,-22.23c-0.494,-2.301 -0.996,-4.599 -1.501,-6.897c-0.322,-1.481 -0.642,-2.962 -0.963,-4.443c-0.149,-0.678 -0.297,-1.356 -0.449,-2.055c-1.576,-7.384 -1.576,-7.384 -1.6,-10.383c6.118,-7.991 16.082,-9.53 25.598,-10.917c1.484,-0.183 2.969,-0.357 4.454,-0.519c0.686,-0.076 1.371,-0.153 2.077,-0.23c4.569,-0.403 8.532,0.196 13.019,1.007c0.826,-0.437 1.652,-0.874 2.503,-1.324c2.267,-1.175 2.267,-1.175 4.862,-0.374c5.46,3.402 9.808,7.689 14.147,12.372c0.514,0.548 1.026,1.096 1.554,1.661c1.25,1.336 2.496,2.675 3.74,4.017c2.509,-2.946 4.54,-5.874 6.401,-9.263c0.507,-0.924 1.014,-1.846 1.536,-2.797c2.15,-4.071 4.173,-8.202 6.167,-12.353c2.192,-4.008 4.76,-3.924 9.109,-4.102Z" style="fill-rule:nonzero;"/></g><g><path d="M284.057,757.744c2.267,1.903 4.126,3.934 6.049,6.181c2.422,2.72 5.273,4.428 8.311,6.42c1.154,1.035 2.287,2.095 3.403,3.17c7.539,7.172 15.641,13.902 24.427,19.486c7.419,4.722 14.078,10.389 20.823,16.01c0.84,0.698 0.84,0.698 1.696,1.409c0.555,0.462 1.111,0.924 1.682,1.399c1.449,1.153 2.976,2.206 4.511,3.244c2.58,2.5 2.58,2.5 3.428,5.869c-0.247,6.616 -3.267,11.354 -7.03,16.615c-0.867,1.239 -1.733,2.478 -2.598,3.718c-0.425,0.607 -0.85,1.214 -1.288,1.839c-1.691,2.452 -3.295,4.955 -4.893,7.468c-7.857,12.258 -7.857,12.258 -12.576,17.059c-3.614,3.683 -6.431,7.752 -9.324,12.013c-1.113,1.615 -1.113,1.615 -2.249,3.262c-0.818,1.188 -1.636,2.376 -2.454,3.565c-0.618,0.896 -0.618,0.896 -1.248,1.809c-2.009,2.928 -3.966,5.871 -5.818,8.902c-0.66,1.064 -1.319,2.129 -1.998,3.225c-0.858,1.433 -0.858,1.433 -1.734,2.895c-2.443,2.831 -4.168,3.274 -7.815,3.864c-5.74,-0.243 -8.517,-2.061 -12.65,-5.693c-3.411,-2.849 -7.142,-5.17 -10.865,-7.588c-3.27,-2.13 -6.505,-4.306 -9.736,-6.494c-3.822,-2.586 -7.667,-5.104 -11.58,-7.547c-6.86,-4.397 -13.254,-9.412 -19.706,-14.378c-2.332,-1.791 -4.67,-3.57 -7.012,-5.349c-0.785,-0.595 -1.569,-1.191 -2.377,-1.805c-1.512,-1.149 -3.024,-2.297 -4.536,-3.445c-1.344,-1.023 -2.686,-2.05 -4.025,-3.08c-1.463,-1.123 -2.942,-2.226 -4.424,-3.324c-0.84,-0.78 -0.84,-0.78 -1.697,-1.577c-0.032,-2.761 -0.032,-2.761 0.485,-5.076l1.99,-0.204c-0.379,-0.992 -0.758,-1.983 -1.148,-3.004c-0.56,-3.858 -0.56,-3.858 1.315,-7.243c0.921,-1.165 1.864,-2.312 2.828,-3.442c0.919,-1.137 1.837,-2.274 2.752,-3.412c0.504,-0.615 1.009,-1.23 1.528,-1.864c1.804,-2.274 3.488,-4.615 5.176,-6.975c5.358,-7.393 11.196,-14.389 16.997,-21.435c9.035,-10.857 9.035,-10.857 17.393,-22.233c1.725,-2.5 3.659,-4.812 5.607,-7.14c0.785,-1.138 0.785,-1.138 1.586,-2.299c5.119,-5.384 11.693,-7.642 18.795,-4.817Zm-10.914,14.199c-0.754,0.965 -1.507,1.93 -2.284,2.924c-1.125,1.427 -1.125,1.427 -2.273,2.883c-0.754,0.965 -1.507,1.93 -2.284,2.924c-1.156,1.409 -1.156,1.409 -2.335,2.847c-1.782,2.207 -3.439,4.426 -5.035,6.767c-0.448,0.654 -0.895,1.308 -1.356,1.982c-0.327,0.483 -0.656,0.966 -0.993,1.464c6.192,2.07 11.894,3.961 18.166,1.385c4.036,-2.995 5.864,-7.617 7.878,-12.096c0.698,-1.415 0.698,-1.415 1.411,-2.858c1.242,-2.289 1.242,-2.289 0.86,-4.412c-1.781,-2.804 -3.971,-4.47 -6.683,-6.352c-3.15,-0.008 -3.15,-0.008 -5.072,2.542Zm18.437,10.161c-5.644,8.663 -5.644,8.663 -6.123,18.722c6.152,2.534 12.057,4.056 18.62,5.128c0.837,-2.182 0.837,-2.182 1.48,-5.178c0.165,-0.675 0.331,-1.351 0.501,-2.046c0.379,-2.704 0.39,-4.383 -0.424,-7.009c-3.901,-4.252 -8.332,-8.34 -14.054,-9.617Zm-44.681,22.077c-0.894,1.121 -1.78,2.249 -2.658,3.383c-0.682,0.861 -0.682,0.861 -1.378,1.74c-1.123,1.419 -2.236,2.845 -3.346,4.273c1.543,2.513 3.175,4.821 5.061,7.087c0.5,0.603 1,1.205 1.515,1.826c0.517,0.619 1.034,1.238 1.566,1.875c0.517,0.624 1.034,1.246 1.568,1.888c0.962,1.157 1.925,2.314 2.889,3.47c1.194,1.434 2.383,2.873 3.571,4.312l1.99,-0.204c1.133,-1.934 1.133,-1.934 2.184,-4.434c1.468,-3.291 2.961,-6.548 4.612,-9.751c0.31,-0.609 0.619,-1.217 0.938,-1.844c0.896,-1.759 1.801,-3.511 2.708,-5.264c1.278,-2.819 1.278,-2.819 1.1,-5.202c-2.289,-2.838 -5.634,-3.314 -9.031,-4.171c-0.71,-0.197 -1.42,-0.393 -2.15,-0.596c-6.22,-1.889 -6.22,-1.889 -11.14,1.612Zm67.713,-3.328c0.463,1.279 0.926,2.559 1.403,3.877c0.589,-0.724 1.179,-1.448 1.786,-2.194c-0.396,-0.623 -0.791,-1.246 -1.199,-1.888l-1.99,0.204Zm-35.398,9.557c-3.345,3.078 -4.842,6.195 -6.605,10.329c-0.323,0.714 -0.646,1.427 -0.979,2.162c-1.305,2.926 -2.412,5.678 -3.112,8.812c3.8,-1.018 6.854,-2.516 10.224,-4.535c0.998,-0.593 1.995,-1.187 3.023,-1.798c1.031,-0.62 2.063,-1.241 3.126,-1.88c2.055,-1.228 4.109,-2.454 6.165,-3.679c0.907,-0.544 1.814,-1.09 2.749,-1.651c2.338,-1.352 2.338,-1.352 5.221,-2.653c-0.429,-0.951 -0.858,-1.902 -1.301,-2.882c-2.52,-0.886 -4.853,-1.548 -7.444,-2.127c-0.682,-0.181 -1.365,-0.363 -2.068,-0.55c-3.511,-0.804 -5.634,-0.88 -9,0.451Zm43.585,1.666c2.694,0.387 5.387,0.775 8.162,1.174l-0.204,-1.99l-1.99,0.204l-0.204,-1.99c-3.197,0.049 -3.197,0.049 -5.765,2.601Zm-93.061,14.328c-0.448,0.56 -0.898,1.119 -1.359,1.695c-0.454,0.549 -0.908,1.098 -1.376,1.663c-2.103,2.598 -3.405,4.33 -4.143,7.636c2.558,0.248 5.116,0.488 7.676,0.721c0.716,0.07 1.431,0.141 2.168,0.214c4.588,0.409 8.776,0.318 13.342,-0.296c-1.751,-4.253 -3.824,-7.653 -6.682,-11.252c-0.703,-0.9 -1.408,-1.8 -2.133,-2.727c-0.617,-0.665 -1.235,-1.33 -1.871,-2.015c-2.936,0.301 -3.841,2.184 -5.622,4.36Zm84.618,-8.436c-0.997,5.178 -1.637,10.287 -2.051,15.54c-0.061,0.716 -0.123,1.433 -0.186,2.171c-0.242,2.956 -0.389,5.705 -0.086,8.663c5.947,1.843 12.111,3.624 18.314,2.144c2.746,-2.145 4.386,-4.765 6.25,-7.677c0.592,-0.76 1.184,-1.521 1.794,-2.304c2.402,-3.042 2.402,-3.042 4.353,-6.368c-0.169,-2.016 -0.169,-2.016 -1.403,-3.877c-2.595,-1.32 -2.595,-1.32 -5.787,-2.218c-1.163,-0.366 -2.328,-0.733 -3.527,-1.111c-1.835,-0.552 -1.835,-0.552 -3.707,-1.116c-1.837,-0.576 -1.837,-0.576 -3.712,-1.163c-5.033,-1.972 -5.033,-1.972 -10.253,-2.683Zm-18.214,7.105c-0.647,0.396 -1.294,0.792 -1.961,1.2c-1.371,0.841 -2.742,1.683 -4.112,2.526c-2.102,1.291 -4.209,2.575 -6.316,3.857c-1.33,0.817 -2.658,1.634 -3.986,2.45c-0.634,0.385 -1.268,0.769 -1.921,1.165c-3.365,1.909 -3.365,1.909 -5.323,5.083c3.398,0.476 6.797,0.941 10.196,1.406c0.954,0.133 1.906,0.267 2.888,0.405c5.493,0.744 10.832,1.201 16.376,1.201c2.304,-8.151 2.664,-14.897 1.634,-23.288c-2.562,0.263 -5.269,2.641 -7.476,3.994Zm-67.287,21.764c3.024,3.449 5.133,5.153 9.667,6.046c1.473,-1.81 2.946,-3.619 4.464,-5.484c-7.052,-1.015 -7.052,-1.015 -14.131,-0.562Zm40.505,2.885c3.815,6.249 8.651,11.84 13.355,17.432c5.36,6.382 10.422,12.662 14.599,19.912l1.99,-0.204c0.893,-10.707 1.786,-21.414 2.706,-32.445c-2.983,-1.575 -4.641,-2.034 -7.897,-2.462c-0.919,-0.122 -1.838,-0.243 -2.785,-0.368c-0.957,-0.121 -1.916,-0.241 -2.902,-0.364c-1.408,-0.189 -1.408,-0.189 -2.845,-0.382c-5.433,-0.703 -10.74,-1.109 -16.22,-1.12Zm-10.637,4.106c-0.704,1.655 -1.389,3.32 -2.064,4.986c-0.384,0.926 -0.767,1.851 -1.162,2.805c-0.88,2.541 -0.88,2.541 -0.452,4.708c1.591,2.592 3.561,3.92 6.043,5.666c0.983,0.694 1.967,1.388 2.98,2.102c3.329,2.243 6.718,4.362 10.145,6.452c4.611,2.95 8.974,6.251 13.357,9.528c-1.26,-12.29 -18.175,-28.197 -26.857,-36.451l-1.99,0.204Zm-12.728,3.315c-0.261,0.69 -0.522,1.38 -0.791,2.092c0.951,-0.429 1.902,-0.858 2.882,-1.301c-0.69,-0.261 -1.38,-0.522 -2.092,-0.791Zm64.074,-2.547c-0.379,6.01 -0.758,12.02 -1.149,18.212c4.77,-4.881 9.563,-9.86 13.494,-15.457l-0.204,-1.99c-1.265,-0.202 -4.899,-0.783 -5.988,-0.956c-2.476,-0.32 -2.476,-0.32 -6.154,0.19Z" style="fill-rule:nonzero;"/></g><g><path d="M184.327,706.647c4.581,0.139 8.351,1.655 12.533,3.365c37.497,14.633 79.065,15.768 116.533,0.495c6.215,-2.77 12.258,-5.905 18.202,-9.213c1.243,-0.688 1.243,-0.688 2.512,-1.392c1.032,-0.601 1.032,-0.601 2.086,-1.215c2.592,-0.987 4.415,-0.78 7.12,-0.294c1.097,0.893 1.097,0.893 1.694,3.658c0.018,4.09 -0.715,4.691 -3.557,7.59c-2.706,2.082 -5.528,3.959 -8.388,5.824c-0.806,0.527 -1.613,1.054 -2.444,1.598c-30.204,19.507 -63.143,25.081 -98.162,17.824c-1.059,-0.218 -1.059,-0.218 -2.139,-0.44c-16.296,-3.484 -33.016,-10.497 -46.272,-20.734c-1.178,-1.992 -1.178,-1.992 -1.403,-3.877c0.556,-1.052 1.111,-2.104 1.684,-3.188Z" style="fill-rule:nonzero;"/></g><g><path d="M357.012,684.926c2.194,1.786 2.194,1.786 2.949,5.478c0.819,10.492 -1.607,21.994 -8.333,30.257c-2.455,0.565 -2.455,0.565 -4.974,0.51c-3.01,-3.646 -2.418,-5.215 -2.014,-9.846c0.244,-2.521 0.509,-5.041 0.795,-7.559c0.143,-1.257 0.284,-2.514 0.431,-3.81c0.109,-0.945 0.218,-1.89 0.331,-2.865c-0.585,0.081 -1.17,0.162 -1.772,0.245c-2.652,0.356 -5.307,0.681 -7.963,1.004c-0.921,0.129 -1.841,0.256 -2.79,0.389c-1.33,0.155 -1.33,0.155 -2.687,0.315c-0.816,0.105 -1.631,0.209 -2.472,0.317c-2.212,-0.23 -2.212,-0.23 -4.192,-1.933c-1.412,-1.97 -1.412,-1.97 -1.561,-4.028c0.983,-2.705 2.121,-3.65 4.409,-5.416c9.895,-3.896 19.62,-7.112 29.844,-3.059Z" style="fill-rule:nonzero;"/></g><g><path d="M544.775,604.36c4.202,4.366 3.975,8.016 3.967,13.807c-0.243,6.681 -0.779,13.322 -1.409,19.976c-0.23,2.428 -0.444,4.856 -0.657,7.285c-1.847,20.47 -1.847,20.47 -5.22,24.614c-4.204,1.121 -7.19,0.986 -11.029,-0.942c-6.444,-4.209 -10.835,-11.15 -14.988,-17.501l-0.204,-1.99l-1.99,0.204c-0.121,1.256 -0.24,2.513 -0.364,3.807c-0.477,3.979 -1.133,7.893 -1.93,11.82c-0.205,1.013 -0.41,2.025 -0.62,3.068c-1.008,3.095 -2.202,4.89 -4.485,7.194c-3.322,0.522 -5.82,-0.627 -8.706,-2.186c-6.057,-4.48 -8.651,-12.136 -11.545,-18.859c-0.295,-0.685 -0.592,-1.371 -0.897,-2.077c-1.737,-4.073 -3.397,-8.173 -5.012,-12.296c-0.804,-2.043 -1.63,-4.077 -2.458,-6.11c-0.517,-1.294 -1.031,-2.588 -1.545,-3.883c-0.457,-1.14 -0.912,-2.281 -1.383,-3.455c-0.927,-3.108 -1.127,-5.022 -0.437,-8.17c1.95,-1.8 3.628,-2.351 6.15,-3.143c3.204,0.291 4.645,1.472 6.798,3.811c5.38,7.308 8.346,16.621 11.793,24.944c0.248,-1.151 0.495,-2.302 0.75,-3.49c0.353,-1.517 0.708,-3.033 1.065,-4.549c0.16,-0.758 0.319,-1.516 0.483,-2.298c0.978,-4.048 1.546,-5.777 4.831,-8.535c3.688,-1.608 5.313,-1.285 9.044,0.125c4.544,3.007 7.048,7.236 9.936,11.736c0.948,1.457 1.896,2.913 2.846,4.369c0.415,0.643 0.828,1.285 1.255,1.947c0.932,1.515 0.932,1.515 2.132,2.406c0.069,-0.909 0.137,-1.817 0.207,-2.754c0.263,-3.409 0.537,-6.815 0.819,-10.223c0.119,-1.468 0.234,-2.936 0.344,-4.405c1.165,-15.467 1.165,-15.467 4.601,-22.434c2.7,-1.715 4.673,-1.873 7.856,-1.811Z" style="fill-rule:nonzero;"/></g><g><path d="M300.746,626.358c2.476,2.999 2.594,3.888 2.313,7.609c-0.652,4.886 -1.751,9.684 -2.812,14.495c-2.05,9.27 -2.05,9.27 -3.803,18.602c-0.13,0.748 -0.262,1.496 -0.397,2.267c-0.333,1.946 -0.645,3.896 -0.955,5.846c-1.387,4.018 -3.085,5.47 -6.644,7.73c-3.348,0.725 -6.013,0.268 -9.157,-1.072c-2.441,-2.489 -3.591,-5.344 -4.897,-8.545c-0.493,-1.179 -0.986,-2.359 -1.493,-3.573c-1.355,-3.296 -2.646,-6.615 -3.914,-9.946c-1.835,6.422 -2.93,12.811 -3.88,19.423c-0.911,3.442 -1.554,4.652 -4.514,6.568c-6.794,0.696 -6.794,0.696 -10.719,-2.018c-3.102,-2.883 -4.684,-5.698 -6.335,-9.511c-0.299,-0.657 -0.597,-1.314 -0.905,-1.991c-0.945,-2.088 -1.869,-4.183 -2.794,-6.28c-0.626,-1.395 -1.253,-2.79 -1.881,-4.184c-0.908,-2.013 -1.814,-4.026 -2.713,-6.043c-1.498,-3.356 -3.038,-6.675 -4.702,-9.95c-1.43,-2.887 -2.151,-4.796 -2.011,-8.005c2.27,-2.788 4.096,-2.745 7.54,-3.247c3.448,0.371 4.939,1.428 7.586,3.707c1.915,3.14 3.375,6.437 4.837,9.808c0.406,0.899 0.811,1.799 1.228,2.725c0.994,2.21 1.972,4.426 2.937,6.649c2.286,-4.33 2.852,-8.866 3.685,-13.642c1.35,-7.186 1.35,-7.186 4.019,-9.263c2.28,-0.705 2.28,-0.705 4.861,-1.001c0.846,-0.118 1.694,-0.236 2.566,-0.358c3.723,0.5 4.708,1.96 7.01,4.905c1.709,2.891 3.206,5.866 4.68,8.881c0.4,0.799 0.799,1.599 1.21,2.423c0.978,1.959 1.947,3.921 2.909,5.888c0.189,-0.77 0.38,-1.541 0.575,-2.334c0.858,-3.477 1.718,-6.953 2.578,-10.429c0.298,-1.213 0.597,-2.425 0.905,-3.674c0.287,-1.156 0.573,-2.313 0.868,-3.505c0.263,-1.069 0.528,-2.139 0.8,-3.24c0.678,-2.605 0.678,-2.605 1.469,-4.696c3.614,-1.631 6.036,-1.462 9.948,-1.02Z" style="fill-rule:nonzero;"/></g><g><path d="M447.94,612.15c5.089,1.264 8.285,4.822 11.245,9.077c1.232,2.055 2.388,4.136 3.519,6.248c0.84,1.521 1.68,3.043 2.521,4.564c0.407,0.741 0.813,1.483 1.234,2.247c1.053,1.88 2.145,3.721 3.28,5.552c3.584,5.778 6.262,11.282 8.388,17.741c1.034,2.818 2.321,5.276 3.801,7.884c2.044,3.757 2.887,6.189 1.83,10.493c-1.313,2.522 -1.313,2.522 -2.576,4.285c-6.391,0.284 -6.391,0.284 -9.299,-2.157c-2.523,-3.01 -4.409,-6.177 -6.234,-9.634c-0.332,-0.614 -0.665,-1.229 -1.008,-1.862c-0.81,-1.499 -1.611,-3.004 -2.409,-4.51c-6.263,1.194 -12.494,2.452 -18.697,3.927c-0.123,0.584 -0.246,1.168 -0.372,1.77c-2.904,13.455 -2.904,13.455 -5.75,16.952c-6.19,0.408 -6.19,0.408 -9.116,-1.893c-2.046,-3.143 -2.873,-4.935 -2.384,-8.747c0.27,-1.144 0.539,-2.289 0.819,-3.469c0.152,-0.652 0.306,-1.303 0.463,-1.975c2.486,-10.331 5.381,-20.565 8.211,-30.807c0.817,-2.997 1.602,-5.999 2.372,-9.008c0.223,-0.858 0.446,-1.715 0.675,-2.599c0.408,-1.57 0.806,-3.142 1.192,-4.716c1.373,-5.208 2.685,-8.54 8.297,-9.363Zm1.895,27.073c-0.387,2.694 -0.775,5.387 -1.174,8.162l6.964,-0.714c-1.254,-2.525 -2.508,-5.051 -3.8,-7.652l-1.99,0.204Z" style="fill-rule:nonzero;"/></g><g><path d="M585.185,598.961c5.092,2.804 5.092,2.804 6.855,5.58c0.565,3.07 0.932,5.123 -0.179,8.06c-5.291,1.824 -5.291,1.824 -7.958,0.816c-5.223,0.132 -8.516,1.031 -12.626,4.31c-0.227,1.018 -0.455,2.037 -0.689,3.086c0.571,0.112 1.143,0.225 1.732,0.341c10.483,2.183 20.839,5.451 27.435,14.512c2.648,4.7 3.292,9.676 3.047,15.018c-1.216,3.454 -1.216,3.454 -3.367,6.377c-0.418,0.569 -0.837,1.138 -1.269,1.724c-4.244,5.138 -9.254,7.64 -15.72,9.064c-9.006,0.755 -17.74,-1.044 -25.685,-5.409c-2.395,-2.804 -2.398,-3.688 -2.407,-7.544c0.143,-1.632 0.143,-1.632 0.29,-3.297c2.564,-1.557 4.61,-2.788 7.669,-2.294c1.384,0.417 2.766,0.84 4.147,1.268c5.169,1.387 10.219,1.518 15.064,-0.913c2.802,-2.072 3.767,-2.945 4.443,-6.298c-3.8,-3.594 -7.79,-5.052 -12.629,-6.747c-13.421,-4.766 -13.421,-4.766 -17.019,-9.124c-2.343,-4.958 -2.708,-9.001 -1.08,-14.214c2.822,-6.604 7.826,-10.47 14.276,-13.338c5.49,-2.017 10.086,-3.233 15.67,-0.978Z" style="fill-rule:nonzero;"/></g><g><path d="M215.813,636.257c5.065,2.935 11.363,7.13 13.469,12.798c0.72,2.806 1.153,5.539 1.518,8.413c0.144,1.085 0.289,2.169 0.437,3.287c0.294,2.274 0.585,4.548 0.872,6.822c0.145,1.084 0.29,2.167 0.44,3.283c0.126,0.986 0.253,1.974 0.383,2.991c0.583,2.668 1.446,4.174 2.971,6.399c0.685,3.009 0.685,3.009 0.612,5.969c-2.279,3.013 -4.828,4.328 -8.545,4.897c-1.441,-0.837 -2.87,-1.695 -4.285,-2.576c-3.062,0.782 -5.512,2.362 -8.199,3.983c-6.514,3.452 -13.106,3.449 -20.226,1.884c-5.026,-2.445 -7.667,-5.917 -9.963,-10.963c-1.441,-4.634 -0.846,-8.492 0.848,-12.99c2.855,-5.218 7.318,-8.757 12.216,-11.988c5,-1.334 11.266,-2.015 16.194,-0.152c-1.356,-4.63 -1.356,-4.63 -4.529,-8.017c-6.001,-0.824 -10.595,0.869 -16.08,3.093c-5.131,1.03 -5.131,1.03 -7.955,-0.378c-1.863,-2.413 -2.148,-3.614 -1.814,-6.663c6.891,-9.386 20.59,-12.618 31.636,-10.09Zm-13.757,37.41c-0.589,0.724 -1.178,1.449 -1.786,2.194c0.636,3.051 0.636,3.051 1.607,5.867c3.723,0.578 5.647,0.596 9.058,-1.116c2.526,-1.98 4.365,-3.896 6.246,-6.484c-0.429,-0.951 -0.858,-1.901 -1.301,-2.882c-6.111,-1.973 -8.795,-1.05 -13.825,2.422Z" style="fill-rule:nonzero;"/></g><g><path d="M334.971,621.907c3.72,1.593 4.627,2.229 6.874,5.767c0.617,3.522 0.495,5.369 -0.874,8.634c-6.565,0.924 -6.565,0.924 -10.152,-0.97c-2.223,0.164 -2.223,0.164 -4.506,0.776c-1.157,0.268 -1.157,0.268 -2.336,0.542c-2.071,0.513 -2.071,0.513 -3.896,1.794c0.429,0.951 0.858,1.902 1.301,2.882c3.547,1.108 7.036,1.929 10.68,2.639c6.051,1.216 10.162,2.648 14.295,7.491c2.573,5.459 3.112,10.714 1.764,16.595c-4.042,7.276 -9.49,10.468 -17.13,13.081c-7.737,2.04 -14.51,0.656 -21.855,-2.362c-2.815,-3.411 -2.959,-5.381 -3.009,-9.744c3.202,-2.644 3.878,-2.545 7.854,-2.44c3.819,0.024 7.595,-0.002 11.406,-0.289c1.171,-0.082 1.171,-0.082 2.367,-0.164c2.686,-0.688 3.942,-1.948 5.819,-3.942c-0.429,-0.952 -0.858,-1.902 -1.301,-2.882c-2.491,-0.697 -4.863,-1.238 -7.399,-1.692c-7.618,-1.385 -13.925,-3.589 -18.991,-9.751c-2.546,-4.197 -2.266,-8.279 -1.184,-12.998c6.176,-11.554 17.634,-17.016 30.274,-12.967Z" style="fill-rule:nonzero;"/></g><g><path d="M637.782,451.957c3.751,1.012 5.153,2.346 7.526,5.386c1.684,3.667 2.113,7.655 2.733,11.61c0.119,0.741 0.238,1.481 0.361,2.245c0.378,2.358 0.751,4.716 1.124,7.074c0.256,1.602 0.512,3.204 0.769,4.806c0.628,3.92 1.251,7.84 1.872,11.761c1.772,-0.398 1.772,-0.398 3.58,-0.804c2.925,-0.657 5.853,-1.306 8.782,-1.948c2.477,-0.545 4.932,-1.121 7.391,-1.747c5.485,-1.348 8.954,-1.607 14.07,1.032c2.215,3.045 3.666,5.165 3.747,8.978c-0.636,1.761 -0.636,1.761 -2.421,3.955c-2.607,0.757 -2.607,0.757 -5.925,1.428c-1.201,0.249 -2.403,0.497 -3.641,0.752c-1.263,0.252 -2.527,0.504 -3.829,0.764c-2.474,0.505 -4.949,1.012 -7.423,1.518c-1.17,0.236 -2.341,0.471 -3.547,0.714c-2.585,0.538 -5.136,1.135 -7.695,1.781c-4.687,0.97 -8.236,0.567 -12.604,-1.374c-7.254,-6.152 -7.15,-18.196 -8.405,-26.979c-0.637,-4.399 -1.316,-8.766 -2.201,-13.122c-0.147,-0.755 -0.294,-1.511 -0.445,-2.289c-0.279,-1.41 -0.577,-2.817 -0.9,-4.217c-0.734,-3.833 -0.533,-5.22 1.568,-8.584c2.478,-2.304 2.478,-2.304 5.511,-2.74Z" style="fill-rule:nonzero;"/></g><g><path d="M621.714,452.724l0.204,1.99c1.38,0.522 2.761,1.044 4.183,1.582c0.225,2.804 0.225,2.804 -0.383,6.071c-4.602,3.002 -9.41,4.831 -14.593,6.584c-5.949,1.984 -5.949,1.984 -11.349,5.122l0.51,4.974c1.054,-0.44 2.107,-0.879 3.193,-1.333c6.124,-2.186 12.634,-3.784 18.785,-1.234c2.373,2.381 3.345,3.614 3.606,6.981c-2.717,4.553 -6.485,5.816 -11.306,7.379c-0.692,0.236 -1.382,0.471 -2.094,0.715c-1.89,0.644 -3.785,1.275 -5.68,1.903c-1.295,0.461 -2.588,0.926 -3.877,1.403c0.825,1.574 1.65,3.148 2.499,4.77c7.049,-0.297 12.143,-0.828 17.907,-5.008c1.581,-1.01 1.581,-1.01 4.311,-1.353c3.282,1.157 4.755,2.614 6.836,5.393c0.925,3.423 1.084,5.088 -0.602,8.229c-7.42,6.693 -15.641,8.922 -25.499,9.273c-7.308,-0.916 -11.32,-2.784 -16.165,-8.144c-0.404,0.442 -0.809,0.884 -1.225,1.339c-0.548,0.589 -1.096,1.178 -1.66,1.784c-0.535,0.581 -1.07,1.16 -1.621,1.757c-6.133,5.992 -12.217,6.748 -20.488,6.971c-7.334,-0.163 -12.246,-3.499 -17.38,-8.451c-6.515,-6.848 -7.803,-14.156 -7.925,-23.376c0.829,-8.849 4.635,-15.861 10.791,-22.216c5.261,-3.785 10.371,-4.66 16.707,-3.723c3.588,1.895 4.248,3.181 5.621,7.025c0.475,3.407 0.475,3.407 -1.209,6.596c-2.216,0.707 -2.216,0.707 -4.849,1.125c-2.958,0.489 -5.123,0.946 -7.88,2.19c-0.954,1.889 -0.954,1.889 -1.582,4.183c-0.263,0.789 -0.525,1.578 -0.795,2.391c-1.142,4.655 -0.638,9.088 0.437,13.73c2.098,2.803 3.342,4.133 6.581,5.357c5.645,-0.182 9.52,-1.365 14.564,-3.837c2.653,-1.145 5.137,-1.419 8.011,-1.493c-0.372,-1.266 -0.372,-1.266 -0.752,-2.558c-1.378,-5.336 -1.844,-10.745 -2.429,-16.216c-0.139,-1.155 -0.278,-2.309 -0.421,-3.498c-1.192,-11.117 -1.192,-11.117 1.717,-15.734c4.106,-3.364 8.599,-4.744 13.636,-6.11c0.727,-0.201 1.455,-0.404 2.205,-0.611c14.382,-3.844 14.382,-3.844 19.461,-1.923Z" style="fill-rule:nonzero;"/></g><g><path d="M527.817,466.495c4.485,3.308 7.086,7.679 8.801,12.92c-0.716,7.483 -5.279,14.236 -9.615,20.211c0.931,0.438 1.86,0.877 2.818,1.329c1.241,0.591 2.48,1.18 3.72,1.771c0.61,0.287 1.221,0.574 1.85,0.871c11.113,5.309 11.113,5.309 13.139,9.907c0.652,3.15 1.037,5.084 -0.371,8.017c-1.695,1.242 -1.695,1.242 -3.939,1.233c-3.339,-0.56 -6.104,-1.647 -9.224,-2.962c-1.206,-0.504 -2.411,-1.007 -3.653,-1.526c-1.263,-0.535 -2.525,-1.07 -3.788,-1.606c-1.274,-0.535 -2.547,-1.07 -3.822,-1.603c-2.326,-0.976 -4.652,-1.955 -6.975,-2.937c-1.575,-0.661 -3.156,-1.304 -4.754,-1.908c0.67,1.673 0.67,1.673 1.352,3.38c1.506,4.222 2.266,7.832 2.269,12.333c-1.275,2.267 -1.275,2.267 -3.673,3.392c-2.948,0.201 -5.468,0.073 -8.162,-1.174c-3.886,-4.645 -4.749,-9.695 -5.797,-15.49c-0.176,-0.937 -0.354,-1.873 -0.536,-2.837c-1.851,-10.233 -2.876,-20.546 -3.74,-30.903c-0.407,0.384 -0.814,0.767 -1.233,1.162c-5.396,4.671 -10.571,6.17 -17.471,7.604c-0.995,0.223 -1.991,0.446 -3.017,0.676c-2.432,0.543 -4.868,1.067 -7.307,1.575l0.612,5.969c1.422,-0.394 1.422,-0.394 2.872,-0.797c1.328,-0.312 2.658,-0.615 3.99,-0.912c0.732,-0.179 1.462,-0.357 2.214,-0.542c3.455,-0.64 5.71,-0.979 8.816,0.84c1.858,1.644 3.33,3.003 4.606,5.135c-0.014,3.004 -0.439,3.9 -2.373,6.275c-1.767,0.871 -1.767,0.871 -3.909,1.696c-0.771,0.299 -1.54,0.598 -2.334,0.907c-0.806,0.306 -1.612,0.612 -2.442,0.926c-1.207,0.47 -1.207,0.47 -2.439,0.949c-5.975,2.301 -5.975,2.301 -8.262,2.536c0.796,2.904 0.796,2.904 1.607,5.867c5.212,-0.2 8.869,-1.435 13.566,-3.652c2.687,-1.266 4.947,-2.2 7.911,-2.57c3.648,1.348 5.749,2.253 7.683,5.683c0.281,3.6 -0.16,4.852 -2.276,7.836c-5.107,4.572 -10.889,6.704 -17.429,8.321c-0.651,0.168 -1.302,0.338 -1.972,0.511c-6.515,1.427 -10.744,-0.235 -16.481,-3.394c-5.564,-4.529 -7.733,-10.425 -8.679,-17.369c-0.125,-1.267 -0.25,-2.533 -0.377,-3.839c-0.068,-0.678 -0.136,-1.355 -0.206,-2.053c-0.214,-2.149 -0.423,-4.299 -0.63,-6.449c-0.145,-1.463 -0.29,-2.927 -0.436,-4.39c-0.355,-3.573 -0.705,-7.148 -1.051,-10.724c-3.678,13.405 -6.612,26.696 -8.39,40.496c-1.442,10.178 -1.442,10.178 -6.101,14.267c-4.573,0.667 -7.243,-0.831 -10.954,-3.424c-2.594,-2.15 -4.13,-4.677 -5.876,-7.542c-0.385,-0.63 -0.77,-1.26 -1.167,-1.909c-1.399,-2.313 -2.77,-4.642 -4.142,-6.971c-0.605,-1.013 -1.212,-2.026 -1.837,-3.07c-2.012,-3.37 -4.003,-6.752 -5.988,-10.138c-0.647,-1.089 -1.294,-2.177 -1.961,-3.298c-3.457,-5.984 -5.997,-11.08 -6.818,-17.98c1.169,-2.696 1.169,-2.696 2.576,-4.285c6.877,-0.705 6.877,-0.705 9.749,1.439c4.834,5.338 8.257,11.155 11.668,17.475c0.555,1.01 1.111,2.019 1.684,3.059c1.355,2.466 2.701,4.936 4.038,7.412l0.995,-0.102c0.27,-1.21 0.54,-2.419 0.818,-3.666c0.19,-0.841 0.38,-1.681 0.575,-2.548c0.495,-2.239 0.972,-4.483 1.438,-6.729c4.263,-20.306 4.263,-20.306 8.455,-23.665c2.928,-1.406 4.875,-1.215 8.024,-0.555c2.052,2.239 2.052,2.239 3.494,4.668c0.594,0.934 0.594,0.934 1.199,1.888c0.386,-0.667 0.771,-1.334 1.168,-2.021c3.573,-3.518 7.497,-4.065 12.298,-5.14c1.323,-0.325 1.323,-0.325 2.673,-0.655c10.99,-2.598 18.58,-3.831 28.524,2.232c0.424,-0.517 0.846,-1.033 1.281,-1.565c8.598,-9.934 20.737,-14.41 33.124,-7.868Zm-18.77,14.866c-1.169,3.092 -0.469,5.82 -0.077,9.055c5.103,-2.016 8.714,-6.007 12.015,-10.279l-0.204,-1.99c-6.348,0.226 -6.348,0.226 -11.734,3.213Z" style="fill-rule:nonzero;"/></g><g><path d="M243.645,466.472c3.571,0.514 3.571,0.514 5.552,2.07c1.411,2.117 1.411,2.117 2.409,4.112c2.091,3.865 4.51,7.483 6.945,11.139c0.532,0.799 1.064,1.597 1.612,2.42c3.945,5.875 8.078,11.565 12.364,17.195c3.715,4.891 7.308,9.87 10.917,14.838c5.293,7.272 10.608,14.526 15.987,21.733c0.546,0.734 1.09,1.467 1.652,2.223c6.282,8.765 6.282,8.765 13.823,16.359c1.158,1.915 1.158,1.915 2.249,4.167c0.559,1.105 0.559,1.105 1.129,2.233c0.525,2.247 0.525,2.247 -0.456,4.469c-1.596,2.063 -1.596,2.063 -3.602,2.784c-0.789,0.087 -1.579,0.174 -2.394,0.263c-1.349,0.163 -1.349,0.163 -2.726,0.33c-0.976,0.098 -1.952,0.196 -2.958,0.297c-1.522,0.177 -1.522,0.177 -3.073,0.358c-3.258,0.376 -6.517,0.725 -9.778,1.073c-4.248,0.475 -8.493,0.959 -12.739,1.444c-1.034,0.116 -2.067,0.232 -3.132,0.351c-6.803,0.774 -13.545,1.739 -20.293,2.888c-4.744,0.808 -9.456,1.403 -14.25,1.804c-8.972,0.834 -17.871,2.084 -26.785,3.394c-18.626,2.723 -18.626,2.723 -23.118,0.716c-2.814,-3.408 -2.827,-4.914 -2.684,-9.184c0.923,-5.245 3.774,-9.685 6.308,-14.308c2.542,-5.172 4.897,-10.397 7.057,-15.739c2.29,-5.547 4.94,-10.88 7.634,-16.239c8.108,-16.164 14.885,-32.787 21.487,-49.614c0.566,-1.427 1.134,-2.854 1.701,-4.282c0.252,-0.654 0.504,-1.308 0.764,-1.982c1.877,-4.696 3.044,-6.957 8.398,-7.312Z" style="fill-rule:nonzero;"/></g><g><path d="M412.961,334.645c3.1,2.646 4.407,4.32 5.493,8.233c-0.628,2.452 -0.628,2.452 -1.582,4.183c-3.191,0.478 -5.508,0.75 -8.627,-0.183c-3.162,-0.859 -4.428,-0.544 -7.392,0.82c-5.841,3.64 -8.187,8.884 -10.51,15.151c-1.213,5.813 -0.809,11.267 2.422,16.276c3.002,2.785 5.038,3.794 9.121,4.059c6.979,-0.467 10.935,-2.531 16.475,-6.715c3.134,-2.199 5.447,-2.898 9.221,-3.364c1.018,0.227 2.037,0.455 3.086,0.689c-0.429,-0.951 -0.858,-1.902 -1.301,-2.882c-0.673,-4.332 -1.12,-8.689 -1.579,-13.048c-0.23,-2.142 -0.48,-4.279 -0.731,-6.418c-0.147,-1.371 -0.292,-2.743 -0.437,-4.115c-0.136,-1.241 -0.274,-2.482 -0.414,-3.76c-0,-3.799 0.819,-6.332 2.372,-9.772c6.506,-0.174 6.506,-0.174 9.122,1.955c2.671,3.998 3.154,7.882 3.739,12.539c0.097,0.745 0.195,1.489 0.295,2.256c0.31,2.376 0.613,4.751 0.916,7.128c0.208,1.611 0.417,3.222 0.626,4.834c0.512,3.947 1.019,7.896 1.523,11.845c6.222,-0.568 12.179,-1.401 18.261,-2.854c2.932,-0.328 4.943,0.228 7.705,1.198c-0.387,-0.621 -0.776,-1.242 -1.175,-1.882c-3.864,-8.423 -3.972,-19.997 -1.225,-28.732c2.549,-6.016 6.24,-11.092 11.841,-14.584c6.853,-0.833 13.175,1.888 18.65,5.887c4.977,4.355 8.378,9.424 11.651,15.133c-0.087,-1.106 -0.174,-2.211 -0.265,-3.349c-0.094,-1.462 -0.185,-2.923 -0.277,-4.386c-0.061,-0.728 -0.121,-1.454 -0.183,-2.204c-0.202,-3.546 -0.162,-5.673 1.72,-8.737c1.939,-1.73 1.939,-1.73 4.299,-2.6c3.157,0.435 4.905,1.575 7.068,3.905c1.852,3.135 1.801,6.291 2.002,9.867c0.697,8.294 3.751,15.955 7.366,23.371c2.914,-0.469 2.914,-0.469 5.765,-2.601c3.803,-9.571 4.11,-19.109 0.818,-28.796c-1.461,-4.714 -1.461,-4.714 -0.754,-7.439c0.943,-1.754 0.943,-1.754 2.821,-4.271c6.462,-0.052 6.462,-0.052 8.797,1.238c6.18,6.825 7.081,19.08 6.754,27.93c-0.45,7.463 -1.403,13.714 -5.479,20.061c-0.581,1.013 -1.16,2.027 -1.759,3.07c-2.265,3.061 -4.231,4.369 -7.911,5.366c-6.227,0.857 -10.46,0.465 -15.883,-2.824c-5.465,-4.378 -9.335,-10.335 -11.789,-16.863l-0.995,0.102c-0.082,0.641 -0.164,1.281 -0.248,1.941c-1.128,7.262 -3.054,13.308 -8.535,18.443c-4.84,3.5 -9.909,4.573 -15.833,4.254c-4.52,-0.995 -8.464,-2.588 -12.549,-4.745c-0.373,1.22 -0.373,1.22 -0.753,2.465c-2.65,4.333 -7.04,5.002 -11.75,6.197c-2.368,0.54 -4.742,1.037 -7.124,1.517c-0.798,0.168 -1.596,0.337 -2.418,0.511c-13.571,2.8 -13.571,2.8 -19.061,-0.446c-0.826,-0.475 -1.651,-0.951 -2.5,-1.441c-0.61,-0.373 -1.219,-0.746 -1.848,-1.129c-0.524,0.454 -1.05,0.909 -1.591,1.376c-8.105,6.875 -14.506,10.511 -25.345,10.432c-7.167,-0.858 -13.293,-2.361 -18.824,-7.118l-0.204,-1.99l-1.99,0.204c-6.328,-7.317 -8.635,-14.944 -7.989,-24.615c1.792,-11.112 6.597,-21.654 15.192,-29.123c7.401,-5.053 15.9,-6.12 23.706,-1.452Zm71.863,8.466c-4.02,7.34 -4.427,12.25 -2.935,20.406c1.772,3.63 2.799,4.377 6.513,5.929c3.235,0.437 3.235,0.437 5.673,-1.649c2.616,-3.481 4.551,-6.448 4.317,-10.95c-1.057,-5.801 -3.924,-9.531 -8.493,-13.25c-2.624,-0.382 -2.624,-0.382 -5.076,-0.485Z" style="fill-rule:nonzero;"/></g><g><path d="M584.762,317.789c9.493,4.384 19.176,9.627 23.606,19.566c2.394,6.807 1.935,12.277 -0.901,18.901c-4.777,8.733 -12.387,13.836 -20.872,18.643c-0.797,0.46 -1.595,0.92 -2.417,1.395c-4.956,2.328 -10.247,2.823 -15.425,1.062c-6.569,-7.006 -6.874,-19.888 -8.573,-29.09c-0.421,-2.255 -0.843,-4.51 -1.267,-6.763c-0.262,-1.393 -0.521,-2.784 -0.778,-4.177c-0.587,-3.15 -1.255,-6.234 -2.064,-9.337c-0.871,-3.701 -0.743,-5.793 0.634,-9.334c8.447,-5.405 19.031,-4.107 28.058,-0.866Zm-11.811,12.268c-0.295,0.362 -0.589,0.724 -0.893,1.097c0.35,2.763 0.758,5.486 1.221,8.23c0.131,0.802 0.263,1.603 0.398,2.427c1.05,6.345 2.191,12.672 3.43,18.982c6.785,-1.049 11.745,-5.23 15.795,-10.596c1.25,-2.155 2.075,-3.924 2.571,-6.365c-1.653,-5.548 -4.828,-8.005 -9.809,-10.767c-4.101,-1.741 -8.313,-2.445 -12.713,-3.008Z" style="fill-rule:nonzero;"/></g><g><path d="M712.056,293.934c7.843,3.645 11.984,13.808 16.16,20.961c0.617,1.046 1.235,2.092 1.872,3.17c3.566,6.067 7.002,12.189 10.312,18.4c1.169,2.128 2.402,4.172 3.731,6.202c-0.725,-4.484 -1.453,-8.969 -2.183,-13.453c-0.247,-1.522 -0.494,-3.043 -0.74,-4.565c-0.355,-2.202 -0.714,-4.404 -1.073,-6.605c-0.173,-1.065 -0.173,-1.065 -0.349,-2.151c-0.619,-3.742 -1.344,-7.424 -2.243,-11.107c-0.678,-3.595 -0.678,-3.595 0.967,-7.156c3.993,-4.287 8.532,-6.855 14.246,-8.12c0.683,-0.159 1.367,-0.316 2.071,-0.48c7.533,-1.309 13.811,0.459 20.426,4.205c3.527,3.31 4.911,6.951 5.594,11.678c0.024,5.915 -1.314,9.682 -4.932,14.39c-2.602,1.586 -2.602,1.586 -4.77,2.499c2.769,2.551 5.643,4.288 8.97,5.992c12.226,6.313 12.226,6.313 14.955,11.661c0.214,6.456 0.214,6.456 -2.067,9.259c-4.503,0.288 -7.629,-0.243 -11.522,-2.529c-10.325,-6.593 -10.325,-6.593 -21.841,-9.13c0.126,0.896 0.253,1.791 0.384,2.713c0.147,1.171 0.294,2.341 0.446,3.547c0.154,1.162 0.309,2.325 0.467,3.522c0.029,3.15 0.029,3.15 -1.138,5.139c-2.133,1.836 -3.579,2.452 -6.383,2.807c-3.524,-1.766 -5.047,-2.727 -6.683,-6.352c-0.433,1.04 -0.866,2.079 -1.312,3.15c-2.056,3.226 -2.056,3.226 -4.847,4.204c-4.138,-0.477 -6.801,-1.772 -9.656,-4.728c-4.781,-7.415 -4.781,-7.415 -5.203,-11.53c-2.266,0.374 -4.531,0.754 -6.795,1.137c-1.261,0.211 -2.522,0.421 -3.822,0.639c-3.114,0.428 -3.114,0.428 -5.095,1.845c-0.679,2.2 -1.278,4.424 -1.83,6.659c-1.627,6.548 -1.627,6.548 -3.603,8.976c-2.859,0.415 -5.639,0.715 -8.512,0.935c-7.149,0.594 -7.149,0.594 -14.194,1.895c-13.365,3.152 -13.365,3.152 -18.148,1.31c-2.3,-1.517 -4.038,-3.087 -5.518,-5.419c-0.231,-1.373 -0.401,-2.755 -0.539,-4.141c-0.088,-0.857 -0.176,-1.713 -0.266,-2.595c-0.09,-0.926 -0.179,-1.851 -0.272,-2.806c-0.096,-0.946 -0.191,-1.893 -0.29,-2.868c-0.305,-3.032 -0.603,-6.063 -0.901,-9.096c-0.205,-2.052 -0.411,-4.105 -0.617,-6.156c-0.505,-5.038 -1.005,-10.076 -1.5,-15.114c-0.676,0.383 -1.352,0.767 -2.048,1.162c-2.731,1.342 -5.166,2.072 -8.126,2.748c-1.504,0.348 -1.504,0.348 -3.04,0.704c-1.037,0.234 -2.073,0.467 -3.141,0.707c-1.583,0.364 -1.583,0.364 -3.198,0.736c-2.596,0.597 -5.193,1.188 -7.791,1.773l0.816,7.958c0.659,-0.224 1.317,-0.449 1.995,-0.68c6.146,-1.957 12.334,-3.807 18.793,-2.456c2.44,1.601 3.743,3.135 5.586,5.459c-0.772,3.009 -1.283,4.934 -3.265,7.371c-2.074,0.902 -2.074,0.902 -4.634,1.771c-0.914,0.314 -1.828,0.628 -2.768,0.951c-0.957,0.321 -1.914,0.643 -2.901,0.973c-0.963,0.329 -1.928,0.659 -2.92,0.998c-2.384,0.814 -4.77,1.621 -7.157,2.422c0.209,0.997 0.418,1.994 0.635,3.021c0.259,1.333 0.517,2.664 0.775,3.997c0.14,0.654 0.281,1.308 0.425,1.983c0.89,4.749 0.502,7.792 -1.684,12.094c-2.18,1.418 -2.18,1.418 -4.872,1.505c-5.739,-2.831 -6.99,-5.037 -9.182,-11.122c-0.497,-2.314 -0.921,-4.644 -1.282,-6.984c-0.103,-0.645 -0.207,-1.29 -0.313,-1.954c-0.326,-2.042 -0.642,-4.086 -0.955,-6.131c-1.267,-8.226 -2.55,-16.281 -5.203,-24.2c-0.509,-2.105 -0.509,-2.105 0.303,-5.204c4.152,-5.45 8.046,-6.646 14.551,-8.215c0.875,-0.215 1.749,-0.431 2.651,-0.653c18.359,-4.376 18.359,-4.376 26.93,-0.683c1.941,-0.149 1.941,-0.149 3.966,-0.532c3.259,-0.48 4.877,-0.138 7.647,1.666c4.525,3.867 4.517,7.801 5.054,13.411c0.08,0.791 0.159,1.582 0.242,2.396c0.253,2.525 0.499,5.049 0.745,7.575c0.17,1.712 0.341,3.424 0.512,5.137c0.419,4.195 0.832,8.392 1.242,12.589c2.721,-0.421 5.442,-0.847 8.162,-1.277c0.769,-0.118 1.538,-0.236 2.331,-0.359c0.746,-0.119 1.492,-0.236 2.26,-0.359c0.684,-0.106 1.368,-0.214 2.073,-0.324c2.049,-0.423 3.913,-1.054 5.861,-1.812c0.107,-0.728 0.216,-1.456 0.327,-2.205c0.153,-0.979 0.305,-1.957 0.462,-2.965c0.147,-0.96 0.293,-1.92 0.444,-2.908c0.63,-3.171 0.63,-3.171 1.734,-6.645c1.269,-4.129 2.018,-8.186 2.73,-12.437c2.637,-14.677 2.637,-14.677 7.431,-20.049c2.969,-1.687 2.969,-1.687 6.041,-1.75Zm42.331,11.494l0.918,8.953c4.418,-1.947 7.004,-4.588 10.229,-8.085c-0.463,-1.279 -0.926,-2.559 -1.403,-3.877c-3.885,0.398 -6.278,1.331 -9.744,3.009Zm-41.756,14.333c-0.127,2.003 -0.254,4.007 -0.383,6.071l4.974,-0.51c-1.493,-3.592 -1.493,-3.592 -4.591,-5.561Z" style="fill-rule:nonzero;"/></g><g><path d="M828.562,283.751c1.693,3.031 1.693,3.031 2.601,5.765c-3.173,5.05 -5.937,6.326 -11.679,7.688c-0.884,0.188 -1.768,0.375 -2.679,0.569c-1.763,0.404 -3.525,0.81 -5.286,1.217c-0.777,0.168 -1.555,0.337 -2.355,0.511c-2.243,0.506 -2.243,0.506 -4.937,1.823l0.714,6.964c1.843,-0.276 1.843,-0.276 3.724,-0.559c1.629,-0.214 3.257,-0.426 4.886,-0.638c0.807,-0.125 1.616,-0.25 2.448,-0.379c4.426,-0.545 6.224,-0.645 10.146,1.773c2.185,2.431 2.185,2.431 2.571,4.967c-1.162,3.39 -2.677,4.74 -5.437,7.029c-2.534,0.954 -4.881,1.73 -7.482,2.4c-5.036,1.135 -5.036,1.135 -8.919,4.307c0.858,1.902 1.717,3.805 2.601,5.765c2.042,-0.521 4.082,-1.045 6.122,-1.57c1.136,-0.291 2.272,-0.583 3.444,-0.883c2.411,-0.657 4.714,-1.362 7.04,-2.265l-0.204,-1.99c2.777,-1.763 4.559,-1.915 7.856,-1.811c2.704,1.366 4.71,2.971 6.581,5.357c0.561,3.021 0.561,3.021 -0.383,6.071c-6.121,7.905 -14.119,11.087 -23.836,12.519c-7.075,0.67 -11.36,-1.207 -16.86,-5.426c-9.947,-8.617 -10.503,-22.493 -11.78,-34.824c-0.155,-1.278 -0.311,-2.556 -0.471,-3.872c-0.13,-1.231 -0.26,-2.462 -0.395,-3.731c-0.121,-1.105 -0.243,-2.212 -0.369,-3.351c0.215,-3.805 1.226,-5.541 3.643,-8.455c1.87,-1.132 1.87,-1.132 3.895,-1.769c0.752,-0.243 1.504,-0.486 2.28,-0.736c0.798,-0.231 1.596,-0.462 2.418,-0.699c0.822,-0.249 1.643,-0.497 2.489,-0.753c9.103,-2.631 18.692,-5.35 27.613,-1.014Z" style="fill-rule:nonzero;"/></g><g><path d="M232.134,329.657c13.909,-2.289 26.143,-1.098 37.945,7.32c1.283,0.757 1.283,0.757 2.591,1.529c8.803,5.571 13.396,13.368 17.966,22.5l0.306,2.984c0.634,-0.123 1.267,-0.247 1.921,-0.374c11.289,-1.729 22.648,1.446 32.029,7.952c11.251,9.139 16.42,23.332 17.904,37.369c-0.093,3.627 -0.235,7.027 -1.965,10.254c-4.606,2.593 -9.086,3.191 -14.263,3.633c-0.883,0.084 -1.766,0.17 -2.676,0.257c-1.982,0.19 -3.963,0.377 -5.945,0.559c-5.802,0.538 -11.6,1.119 -17.399,1.698c-0.992,0.099 -0.992,0.099 -2.003,0.199c-21.761,2.172 -43.49,4.649 -65.222,7.091c-3.375,0.378 -6.75,0.755 -10.127,1.13c-23.156,2.582 -46.292,5.225 -69.373,8.422c-2.19,0.292 -4.379,0.584 -6.569,0.873c-1.666,0.237 -1.666,0.237 -3.364,0.479c-1.06,0.136 -2.119,0.272 -3.212,0.412c-0.932,0.127 -1.864,0.253 -2.825,0.383c-3.056,-0.061 -4.438,-0.747 -6.822,-2.627c-3.814,-8.45 -2.942,-17.559 -0.194,-26.176c4.017,-10.183 11.159,-15.189 20.577,-20.144l2.984,-0.306c-0.022,-0.581 -0.045,-1.161 -0.067,-1.76c-0.176,-9.66 3.368,-16.032 9.557,-23.338c8.304,-6.836 17.184,-7.243 27.446,-6.834c0.241,-0.62 0.482,-1.239 0.73,-1.877c2.042,-5.035 4.018,-9.072 7.79,-13.069c0.533,-0.588 1.067,-1.177 1.616,-1.783c4.157,-4.32 8.659,-7.619 13.751,-10.724c0.579,-0.359 1.159,-0.719 1.755,-1.089c4.96,-2.912 9.598,-3.946 15.155,-4.943Zm-22.945,34c-2.446,4.851 -4.645,10.648 -4.08,16.168c-4.332,0.812 -6.913,0.931 -10.961,-0.887c-4.947,-2.049 -9.183,-2.017 -14.317,-0.543c-4.401,2.175 -7.454,5.042 -9.517,9.52c-1.58,4.912 -1.14,9.811 -0.774,14.899c0.01,2.771 0.01,2.771 -1.776,4.965c-2.012,0.357 -4.038,0.636 -6.068,0.873c-6.589,1.097 -9.973,3.064 -14.109,8.232c-0.47,0.576 -0.94,1.151 -1.424,1.744c-2.478,3.332 -2.967,4.453 -2.531,8.713c4.299,-0.416 8.597,-0.838 12.895,-1.266c1.457,-0.144 2.913,-0.287 4.369,-0.428c2.118,-0.204 4.235,-0.416 6.352,-0.628c1.267,-0.125 2.533,-0.25 3.837,-0.378c3.37,-0.385 6.663,-0.993 9.992,-1.642c8.388,-1.55 16.838,-2.339 25.322,-3.172c3.035,-0.298 6.071,-0.603 9.107,-0.909c7.552,-0.761 15.104,-1.511 22.657,-2.261c43.928,-3.376 43.928,-3.376 87.21,-10.96c1.258,-1.307 1.258,-1.307 0.853,-4.549c-0.724,-5.999 -3.164,-11.479 -7.499,-15.742c-5.354,-4.01 -10.883,-5.642 -17.517,-5.819c-4.137,0.936 -7.173,2.651 -10.754,4.88c-3.069,1.208 -4.525,0.683 -7.525,-0.556c-2.313,-2.08 -3.389,-3.658 -3.715,-6.786c-0.04,-0.803 -0.079,-1.606 -0.12,-2.434c-0.597,-8.237 -5.155,-16.313 -11.389,-21.725c-11.178,-7.467 -21.35,-9.832 -34.523,-7.534c-9.915,2.482 -18.501,9.823 -23.996,18.225Z" style="fill-rule:nonzero;"/></g><g><path d="M428.061,171.544c2.01,0.257 2.01,0.257 3.843,1.637c2.053,3.02 2.733,6.054 3.437,9.578c0.228,1.088 0.228,1.088 0.462,2.198c1.725,8.464 3.022,16.998 4.184,25.556c0.217,1.589 0.442,3.176 0.676,4.764c0.302,2.058 0.578,4.118 0.844,6.18c0.156,1.147 0.31,2.293 0.47,3.474c-0.151,3.606 -1.175,4.851 -3.695,7.349c-4.045,-0.903 -6.568,-2.174 -9.565,-5.051c-1.13,-2.505 -1.658,-4.335 -2.13,-6.996c-0.148,-0.827 -0.297,-1.654 -0.45,-2.506c-0.155,-0.893 -0.311,-1.785 -0.47,-2.703c-0.163,-0.922 -0.325,-1.844 -0.492,-2.793c-0.343,-1.952 -0.683,-3.905 -1.021,-5.857c-0.518,-2.975 -1.047,-5.947 -1.577,-8.919c-0.331,-1.899 -0.662,-3.798 -0.992,-5.699c-0.159,-0.883 -0.317,-1.767 -0.48,-2.677c-0.832,-4.88 -1.34,-9.333 -0.777,-14.267c2.303,-2.83 4.242,-2.763 7.734,-3.267Z" style="fill-rule:nonzero;"/></g><g><path d="M573.906,153.037c8.238,9.117 8.661,24.386 8.188,36.052c-0.378,2.906 -0.893,5.671 -1.61,8.509c-0.189,0.778 -0.377,1.558 -0.571,2.36c-1.944,6.363 -6.285,10.47 -11.826,13.99c-6.301,1.452 -10.263,0.473 -15.999,-2.467c-8.085,-5.347 -11.87,-13.416 -13.84,-22.621c-0.159,-0.734 -0.318,-1.467 -0.482,-2.223c-3.783,-18.068 -3.783,-18.068 -1.152,-24.751c2.78,-2.295 2.78,-2.295 5.218,-2.42c3.428,0.792 4.632,1.554 7.025,4.18c1.085,3.276 1.612,6.617 2.158,10.02c1.974,12.944 1.974,12.944 8.374,24.084c1.909,-0.236 1.909,-0.236 3.877,-1.403c4.414,-8.843 3.742,-17.883 2.221,-27.369c-0.445,-1.3 -0.911,-2.594 -1.403,-3.877c-0.682,-3.009 -1.112,-5.865 -0.918,-8.953c3.054,-3.752 6.141,-4.443 10.739,-3.111Z" style="fill-rule:nonzero;"/></g><g><path d="M482.182,160.428c1.104,0.884 2.201,1.777 3.29,2.678l3.357,-0.344c4.062,-0.416 5.617,-0.321 8.886,2.105c2.648,5.631 3.677,11.504 4.82,17.6c4.891,-0.833 9.781,-1.666 14.82,-2.524c-0.497,-1.608 -0.993,-3.215 -1.505,-4.872c-0.385,-2.156 -0.709,-4.323 -0.979,-6.496c-0.227,-1.658 -0.227,-1.658 -0.458,-3.35c0.112,-3.086 0.112,-3.086 1.655,-5.655c2.028,-1.818 2.028,-1.818 5.565,-2.243c3.528,0.706 3.528,0.706 5.384,2.675c1.873,3.086 2.643,5.716 3.44,9.237c0.145,0.636 0.29,1.271 0.439,1.926c1.264,5.739 2.168,11.527 3.016,17.341c0.975,6.499 2.525,12.767 4.264,19.103c0.517,3.822 0.128,5.435 -2.024,8.606c-3.287,1.029 -3.287,1.029 -6.964,0.714c-5.292,-3.715 -7.12,-7.997 -8.493,-14.208c-0.404,-2.667 -0.638,-5.263 -0.816,-7.958c-0.888,0.309 -1.776,0.617 -2.692,0.935c-1.154,0.399 -2.308,0.796 -3.497,1.207c-1.148,0.397 -2.298,0.795 -3.481,1.205c-2.956,0.962 -2.956,0.962 -4.946,1.166c0.278,1.091 0.555,2.182 0.842,3.306c2.26,10.153 2.26,10.153 1.989,14.498c-2.219,2.866 -2.219,2.866 -4.566,4.489c-6.982,-1.923 -6.982,-1.923 -9.565,-5.051c-1.107,-2.958 -1.807,-6.034 -2.566,-9.098c-0.225,-0.899 -0.45,-1.797 -0.681,-2.722c-2.393,-10.109 -3.331,-20.311 -4.122,-30.65c-8.763,1.893 -8.763,1.893 -17.702,3.825c0.724,4.466 1.449,8.932 2.178,13.398c0.246,1.515 0.492,3.03 0.737,4.545c0.356,2.195 0.713,4.389 1.072,6.584c0.172,1.065 0.172,1.065 0.348,2.152c0.771,4.689 1.712,9.304 2.898,13.905c0.136,1.887 0.136,1.887 -1.971,5.244c-1.167,1.052 -1.167,1.052 -2.357,2.126c-5.142,-0.74 -7.515,-1.782 -10.662,-5.944c-1.287,-3.687 -2.068,-7.447 -2.852,-11.268c-0.229,-1.053 -0.457,-2.106 -0.693,-3.192c-1.565,-7.281 -3.03,-14.584 -4.207,-21.939c-0.658,0.091 -1.316,0.181 -1.994,0.275c-9.301,1.146 -9.301,1.146 -13.131,-0.735c-2.662,-2.883 -3.105,-5.883 -3.009,-9.744c6.957,-8.589 36.005,-13.861 46.934,-12.853Z" style="fill-rule:nonzero;"/></g><g><path d="M620.661,148.244c3.685,2.908 6.442,5.688 7.407,10.361c0.114,4.944 -1.21,8.742 -2.97,13.31c0.606,0.058 1.212,0.117 1.837,0.177c4.822,0.881 8.031,3.836 10.838,7.634c2.44,4.614 4.177,9.317 3.7,14.637c-2.135,5.205 -5.012,8.183 -9.587,11.286c-0.589,0.406 -1.178,0.811 -1.786,1.23c-7.244,4.844 -13.392,6.247 -21.968,7.299c-1.008,0.131 -1.008,0.131 -2.038,0.264c-5.345,0.538 -9.341,-0.317 -13.798,-3.344c-2.693,-2.609 -2.832,-6.393 -3.468,-9.956c-0.245,-1.283 -0.245,-1.283 -0.496,-2.591c-0.353,-1.868 -0.702,-3.737 -1.043,-5.607c-0.583,-3.18 -1.185,-6.355 -1.79,-9.532c-0.413,-2.185 -0.824,-4.371 -1.234,-6.556c-0.194,-1.032 -0.387,-2.063 -0.588,-3.126c-0.518,-2.821 -1.011,-5.644 -1.481,-8.473c-0.133,-0.78 -0.266,-1.561 -0.402,-2.364c-0.416,-2.928 -0.707,-5.002 0.627,-7.699c10.259,-9.556 25.272,-14.121 38.241,-6.948Zm-22.651,14.385c0.131,2.919 0.131,2.919 0.612,5.969c0.724,0.589 1.448,1.179 2.194,1.786c1.531,-1.066 3.053,-2.146 4.569,-3.233c0.848,-0.6 1.696,-1.2 2.57,-1.819c2.271,-2.002 3.014,-3.237 3.779,-6.12c-6.023,-0.719 -8.799,0.233 -13.723,3.417Zm4.539,24.666l1.224,11.937c4.313,1.631 9.671,-1.694 13.723,-3.417c2.658,-1.468 5.058,-3.05 7.55,-4.795l-0.408,-3.979c-8.498,-3.742 -13.547,-3.073 -22.089,0.254Z" style="fill-rule:nonzero;"/></g><g><path d="M392.921,168.561c3.67,1.7 7.23,3.584 9.397,7.091c0.692,3.07 0.692,3.07 0.612,5.969c-2.78,2.295 -2.78,2.295 -6.418,2.354c-3.427,-0.339 -3.427,-0.339 -4.524,-1.232c-3.969,-0.331 -5.916,-0.102 -9.094,2.373c-5.954,6.077 -8.814,12.537 -10.65,20.761c0.08,1.957 0.225,3.912 0.413,5.863c0.135,1.537 0.135,1.537 0.275,3.105c0.554,3.072 1.314,5.143 3.035,7.739c4.787,1.861 8.212,1.159 13.034,-0.331c0.488,-1.709 0.977,-3.417 1.48,-5.178c-1.118,0.021 -1.118,0.021 -2.257,0.042c-3.818,-0.714 -5.025,-1.982 -7.307,-5.093c-0.93,-3.549 -0.93,-3.549 -0.714,-6.964c6.596,-6.184 18.499,-7.949 27.344,-7.829c4.91,1.181 7.7,2.937 10.764,6.939c0.972,3.475 1.37,6.981 1.773,10.561c0.237,1.886 0.476,3.771 0.717,5.655c0.17,1.387 0.17,1.387 0.343,2.802c0.516,3.536 1.313,6.98 2.184,10.443c0.285,2.632 -0.079,4.037 -1.347,6.351c-3.187,1.394 -3.187,1.394 -6.862,1.709c-3.953,-2.395 -6.31,-4.927 -7.983,-9.234c-0.197,-1.656 -0.371,-3.313 -0.51,-4.974c-0.467,0.532 -0.935,1.065 -1.417,1.614c-0.63,0.699 -1.259,1.399 -1.907,2.119c-0.618,0.693 -1.234,1.386 -1.871,2.1c-5.38,5.106 -11.587,5.641 -18.758,5.669c-8.308,-1.112 -15.688,-4.774 -20.848,-11.469c-5.989,-9.18 -7.183,-17.176 -5.405,-27.978c2.679,-11.002 10.013,-22.11 19.193,-28.814c5.28,-2.897 11.508,-3.908 17.308,-2.163Z" style="fill-rule:nonzero;"/></g><g><path d="M240.145,143.018c0.798,0.267 1.597,0.534 2.419,0.809c17.58,6.165 31.16,18.967 39.247,35.692c11.333,24.734 15.758,50.122 6.077,76.219c-8.694,19.683 -22.438,37.533 -42.472,46.574c-2.12,0.457 -2.12,0.457 -4.445,0.769c-1.148,0.175 -1.148,0.175 -2.32,0.352c-2.188,-0.204 -2.188,-0.204 -4.18,-1.668c-1.869,-2.948 -1.565,-4.565 -1.179,-8.012c0.903,-12.657 0.754,-22.458 -7.643,-32.578c-0.572,-0.625 -1.144,-1.251 -1.733,-1.895c0.807,-2.545 0.807,-2.545 2.475,-5.28c3.106,-0.967 3.106,-0.967 6.881,-1.522c7.842,-1.534 13.109,-4.487 17.964,-11.078c5.616,-10.571 7.457,-20.877 4.214,-32.482c-1.882,-5.257 -4.158,-9.437 -7.849,-13.634c-1.392,-1.806 -2.094,-3.306 -2.662,-5.511c0.382,-1.128 0.382,-1.128 0.772,-2.279c1.016,-4.162 0.023,-7.698 -1.204,-11.75c-0.396,-0.623 -0.791,-1.246 -1.199,-1.888c-4.998,1.912 -8.942,3.983 -12.917,7.607c-3.654,3.139 -3.654,3.139 -7.367,3.519c-1.244,-0.204 -2.489,-0.408 -3.771,-0.619c-16.794,-1.589 -16.794,-1.589 -31.629,5.253c-4.305,0.318 -7.358,-1.561 -11.049,-3.492c-2.622,-1.21 -5.176,-2.009 -7.959,-2.771c-0.92,-0.255 -1.839,-0.509 -2.787,-0.771c-0.695,-0.188 -1.39,-0.376 -2.105,-0.569c0.085,0.625 0.17,1.249 0.257,1.892c0.378,2.861 0.724,5.725 1.068,8.59c0.201,1.473 0.201,1.473 0.408,2.976c0.754,6.502 0.294,10.033 -2.755,15.799c-2.747,8.908 -1.465,21.137 2.585,29.515c4.746,7.578 11.368,13.185 20.114,15.404c3.41,0.302 6.755,0.425 10.177,0.409c3.149,0.27 4.717,0.994 7.244,2.831c-0.768,5.888 -1.917,12.642 -5.23,17.625c-5.823,3.253 -11.165,3.508 -17.461,1.813c-7.399,-2.526 -11.457,-5.615 -15.65,-12.241c-2.619,-3.248 -2.619,-3.248 -6.322,-4.064c-1.629,-0.112 -1.629,-0.112 -3.29,-0.228l0.306,2.984c0.784,0.163 1.567,0.327 2.375,0.494c3.232,1.136 4.197,2.198 6.221,4.907c0.587,0.746 1.174,1.492 1.779,2.26c0.557,0.712 1.115,1.425 1.69,2.159c3.201,3.886 6.319,6.317 11.368,7.435c4.183,0.325 8.233,-0.344 12.36,-1.009c3.547,-0.144 5.377,0.41 8.334,2.35c0.481,3.469 0.481,3.469 0.537,5.583c0.447,3.815 2.155,7.089 3.767,10.546c0.618,2.466 0.618,2.466 -0.064,4.814c-2.805,2.869 -5.862,3.543 -9.751,3.748c-2.798,-0.614 -5.036,-1.25 -7.649,-2.294c-1.018,-0.383 -1.018,-0.383 -2.057,-0.773c-27.174,-10.389 -44.897,-27.355 -57.401,-53.384c-7.922,-18.937 -4.646,-43.183 2.574,-61.768c2.245,-5.399 5.23,-10.074 8.679,-14.778c0.522,-0.811 1.044,-1.623 1.581,-2.459c4.329,-6.557 9.705,-11.384 15.817,-16.231c1.193,-0.978 2.352,-1.996 3.487,-3.04c5.536,-4.959 11.094,-7.405 18.11,-9.721c1.068,-0.362 2.135,-0.724 3.236,-1.096c20.278,-6.649 39.573,-7.23 59.977,-0.044Z" style="fill-rule:nonzero;"/></g><g><path d="M854.299,6.549c1.379,-0.163 1.379,-0.163 2.785,-0.329c2.334,-0.062 2.334,-0.062 5.546,1.242c14.637,14.606 13.037,46.444 14.461,65.801c1.351,18.268 2.87,36.461 5.235,54.63c0.102,0.791 0.204,1.582 0.311,2.397c0.887,6.778 1.793,13.552 2.894,20.299c1.735,10.679 3.065,21.383 4.261,32.134c0.125,1.13 0.125,1.13 0.254,2.282c0.348,3.135 0.696,6.269 1.044,9.404c2.84,25.598 5.88,51.057 10.444,76.415c0.309,1.722 0.618,3.445 0.927,5.167c0.149,0.828 0.298,1.657 0.45,2.51c2.396,13.622 3.917,27.378 5.583,41.104c0.672,5.49 1.481,10.944 2.388,16.399c3.247,20.044 4.731,40.443 6.338,60.675c0.124,1.564 0.25,3.129 0.378,4.693c0.712,8.764 1.193,17.51 1.435,26.3c0.594,21.502 2.1,42.931 3.635,64.381c0.074,1.045 0.148,2.09 0.225,3.167c4.815,67.543 11.947,134.767 21.205,201.841c0.637,4.616 1.266,9.232 1.891,13.849c5.147,41.449 5.147,41.449 12.716,82.496c1.397,6.274 2.325,12.64 3.329,18.986c0.368,2.325 0.74,4.649 1.112,6.972c1.176,7.364 2.321,14.732 3.399,22.111c1.74,13.719 1.74,13.719 6.116,26.683c0.696,3.022 -0.648,4.697 -2.146,7.327c-0.509,0.926 -1.019,1.851 -1.543,2.805c-2.643,3.553 -5.255,4.694 -9.587,5.491c-1.655,0.164 -1.655,0.164 -3.344,0.33c-1.821,0.184 -1.821,0.184 -3.678,0.371c-1.262,0.117 -2.522,0.234 -3.822,0.355c-1.256,0.129 -2.512,0.256 -3.806,0.388c-5.53,0.541 -10.726,0.867 -16.272,0.477c-3.274,0.125 -6.522,0.478 -9.781,0.814c-0.988,0.1 -1.976,0.201 -2.993,0.303c-7.953,0.864 -15.806,2.162 -23.682,3.54c-12.514,2.187 -24.931,3.752 -37.608,4.631c-0.726,0.051 -1.451,0.103 -2.199,0.155c-6.779,0.466 -13.436,0.727 -20.232,0.448c-26.736,0.517 -53.423,3.223 -80.013,5.884c-2.403,0.239 -4.807,0.472 -7.212,0.703c-19.702,1.904 -39.205,4.502 -58.745,7.674c-28.228,4.58 -56.461,7.801 -84.923,10.523c-13.243,1.267 -26.479,2.6 -39.715,3.934c-1.3,0.131 -2.601,0.262 -3.94,0.397c-29.391,2.964 -58.655,6.666 -87.916,10.689c-8.359,1.143 -16.723,2.204 -25.103,3.188c-1.086,0.127 -2.17,0.255 -3.289,0.386c-2.133,0.25 -4.266,0.5 -6.399,0.749c-19.447,2.28 -38.743,5.164 -58.062,8.343c-16.749,2.751 -33.38,5.146 -50.317,6.393c-1.013,0.078 -2.027,0.155 -3.071,0.235c-9.71,0.725 -19.414,1.273 -29.15,1.512c-23.558,0.624 -46.816,3.208 -70.077,6.996c-14.681,2.382 -29.425,3.833 -44.225,5.27c-5.032,0.489 -10.064,0.984 -15.095,1.484c-1.132,0.108 -2.265,0.216 -3.432,0.327c-6.131,0.609 -11.997,1.516 -17.991,2.938c-8.562,1.596 -8.562,1.596 -13.098,-0.291c-2.563,-2.479 -3.563,-4.615 -4.833,-7.923c-0.603,-0.874 -0.603,-0.874 -1.217,-1.766c-1.389,-2.366 -1.677,-4.146 -1.999,-6.866c-0.121,-0.983 -0.242,-1.967 -0.366,-2.979c-0.122,-1.075 -0.245,-2.151 -0.369,-3.258c-0.137,-1.139 -0.273,-2.278 -0.413,-3.451c-0.45,-3.792 -0.885,-7.586 -1.319,-11.38c-0.234,-1.991 -0.467,-3.982 -0.702,-5.974c-1.758,-14.951 -3.383,-29.912 -4.878,-44.891c-0.07,-0.705 -0.14,-1.408 -0.213,-2.133c-0.352,-3.531 -0.703,-7.061 -1.054,-10.592c-0.069,-0.695 -0.138,-1.389 -0.21,-2.105c-0.139,-1.408 -0.28,-2.815 -0.419,-4.223c-1.807,-18.193 -3.865,-36.278 -6.86,-54.318c-2.361,-14.258 -4.129,-28.572 -5.848,-42.919c-0.219,-1.82 -0.437,-3.64 -0.656,-5.461c-0.113,-0.937 -0.225,-1.875 -0.342,-2.841c-0.945,-7.776 -1.994,-15.536 -3.051,-23.297c-1.873,-13.786 -3.597,-27.589 -5.284,-41.399c-0.128,-1.046 -0.257,-2.093 -0.388,-3.171c-1.195,-9.771 -2.384,-19.544 -3.57,-29.316c-0.657,-5.412 -1.319,-10.824 -1.981,-16.236c-0.248,-2.03 -0.495,-4.06 -0.74,-6.09c-1.213,-10.049 -2.525,-20.031 -4.295,-29.998c-1.013,-5.954 -1.748,-11.941 -2.503,-17.932c-0.265,-2.062 -0.53,-4.122 -0.796,-6.184c-0.278,-2.164 -0.556,-4.328 -0.834,-6.492c-2.847,-22.133 -5.823,-44.223 -9.544,-66.229c-0.247,-1.458 -0.247,-1.458 -0.499,-2.945c-0.644,-3.802 -1.29,-7.603 -1.94,-11.405c-1.632,-9.579 -3.15,-19.175 -4.621,-28.78c-0.187,-1.219 -0.187,-1.219 -0.378,-2.463c-1.919,-12.573 -3.632,-25.165 -5.234,-37.781c-1,-7.823 -2.09,-15.624 -3.305,-23.416c-9.504,-61.102 -14.005,-122.92 -17.726,-184.616c-1.012,-16.528 -3.051,-32.929 -5.183,-49.343c-0.095,-0.741 -0.191,-1.483 -0.29,-2.247c-0.878,-6.774 -1.762,-13.529 -3.098,-20.232c-1.418,-7.275 -2.245,-14.611 -3.037,-21.977c-0.178,-1.626 -0.366,-3.253 -0.561,-4.878c-0.287,-2.376 -0.547,-4.755 -0.801,-7.135c-0.092,-0.724 -0.184,-1.448 -0.278,-2.193c-0.34,-3.462 -0.317,-5.298 1.533,-8.3c3.156,-2.833 5.756,-2.41 9.899,-2.557c0.172,-0.648 0.344,-1.295 0.521,-1.962c1.356,-2.84 2.478,-3.189 5.372,-4.296c3.511,-1.345 3.511,-1.345 6.122,-4.02c2.367,-0.422 4.63,-0.707 7.018,-0.915c1.091,-0.108 1.091,-0.108 2.204,-0.218c1.589,-0.155 3.179,-0.306 4.77,-0.453c2.558,-0.236 5.114,-0.485 7.671,-0.737c6.382,-0.628 12.768,-1.234 19.152,-1.84c6.209,-0.589 12.418,-1.188 18.624,-1.804c0.881,-0.087 1.76,-0.174 2.668,-0.264c15.086,-1.514 30.022,-3.647 44.973,-6.156c26.582,-4.453 53.928,-6.506 80.89,-6.352c4.777,-0.003 9.453,-0.346 14.2,-0.844c0.858,-0.087 1.716,-0.174 2.601,-0.263c2.846,-0.29 5.693,-0.589 8.539,-0.887c1.497,-0.155 1.497,-0.155 3.025,-0.313c19.374,-2.006 38.712,-4.306 58.048,-6.649c15.696,-1.902 31.389,-3.686 47.127,-5.198c16.672,-1.604 33.233,-3.843 49.818,-6.174c50.417,-7.068 50.417,-7.068 72.601,-7.99c29.77,-1.245 59.34,-4.252 88.961,-7.365c5.538,-0.581 11.075,-1.15 16.613,-1.718c6.106,-0.625 12.211,-1.256 18.316,-1.889c2.549,-0.265 5.1,-0.529 7.649,-0.79c12.64,-1.304 25.207,-2.737 37.748,-4.789c8.018,-1.303 16.082,-2.286 24.14,-3.294c1.379,-0.172 1.379,-0.172 2.785,-0.35c24.696,-3.088 49.46,-5.521 74.224,-7.983c9.035,-0.899 18.069,-1.802 27.102,-2.716c1.089,-0.11 2.176,-0.22 3.296,-0.333c16.968,-1.724 33.884,-3.722 50.787,-5.992c5.576,-0.746 11.153,-1.486 16.741,-2.136Zm-714.966,91.169c-19.34,3.744 -38.874,5.56 -58.464,7.407c-23.311,1.549 -23.311,1.549 -45.978,6.659c0.532,13.973 1.845,27.619 4.025,41.427c5.462,34.823 8.322,69.675 10.676,104.822c0.796,11.845 1.621,23.659 2.915,35.46c0.52,5.026 0.783,10.056 1.049,15.101c3.708,60.257 14.51,120.098 23.574,179.721c0.17,1.122 0.341,2.246 0.517,3.403c0.989,6.513 1.982,13.026 2.978,19.538c0.305,1.993 0.609,3.986 0.911,5.979c1.382,9.073 2.784,18.126 4.532,27.138c0.652,3.511 1.101,7.019 1.531,10.565c0.184,1.493 0.369,2.987 0.555,4.48c0.095,0.77 0.189,1.54 0.286,2.333c1.561,12.691 3.291,25.336 5.376,37.952c4.507,27.312 7.648,54.792 10.792,82.288c0.726,6.344 1.451,12.688 2.178,19.033c0.092,0.799 0.183,1.599 0.277,2.422c2.777,24.246 5.727,48.464 8.923,72.658c0.291,2.206 0.582,4.412 0.872,6.618c0.54,4.103 1.088,8.207 1.637,12.309c0.157,1.185 0.313,2.371 0.476,3.593c0.935,6.918 2.061,13.78 3.29,20.651c0.785,4.555 1.389,9.123 1.95,13.711c0.116,0.925 0.232,1.851 0.351,2.805c0.368,2.957 0.731,5.913 1.093,8.87c0.127,1.021 0.253,2.044 0.383,3.096c1.354,10.942 2.688,21.882 3.743,32.859c1.147,11.949 2.63,23.855 4.106,35.768c0.121,0.98 0.241,1.961 0.365,2.97c1.489,12.102 3.155,24.146 5.218,36.164c8.003,-0.797 16.006,-1.599 24.009,-2.409c3.719,-0.376 7.438,-0.75 11.158,-1.121c17.245,-1.715 34.414,-3.643 51.555,-6.236c24.242,-3.64 48.254,-6.129 72.757,-6.843c29.694,-0.929 59.386,-4.163 88.595,-9.565c16.459,-3.019 32.986,-5.019 49.61,-6.853c5.291,-0.586 10.58,-1.179 15.869,-1.783c0.693,-0.079 1.384,-0.158 2.098,-0.239c9.303,-1.068 18.574,-2.295 27.838,-3.657c1.015,-0.149 2.03,-0.299 3.076,-0.452c1.035,-0.151 2.07,-0.304 3.136,-0.46c28.426,-4.172 56.888,-7.232 85.481,-9.996c51.462,-4.9 51.462,-4.9 102.645,-12.049c24.222,-3.962 48.463,-6.759 72.877,-9.229c1.761,-0.179 3.523,-0.359 5.285,-0.539c18.177,-1.845 36.363,-3.513 54.582,-4.895c0.747,-0.057 1.494,-0.115 2.263,-0.175c8.142,-0.621 16.234,-1.09 24.404,-0.937c22.158,0.303 44.714,-3.422 66.513,-7.171c11.756,-2.01 23.571,-3.194 35.44,-4.31c0.709,-0.069 1.416,-0.137 2.146,-0.207c1.955,-0.188 3.911,-0.372 5.867,-0.554c2.765,-0.05 2.765,-0.05 3.726,-1.485c-0.031,-2.4 -0.127,-4.764 -0.274,-7.158c-0.048,-0.768 -0.094,-1.536 -0.142,-2.329c-1.435,-22.212 -4.44,-44.043 -8.136,-65.972c-0.18,-1.067 -0.18,-1.067 -0.363,-2.157c-0.608,-3.608 -1.216,-7.216 -1.825,-10.824c-0.12,-0.708 -0.24,-1.418 -0.363,-2.149c-0.241,-1.427 -0.483,-2.855 -0.724,-4.282c-3.695,-21.857 -6.718,-43.804 -9.665,-65.773c-0.268,-1.987 -0.536,-3.974 -0.803,-5.96c-17.916,-133.072 -17.916,-133.072 -18.662,-169.375c-0.261,-9.387 -1.215,-18.718 -2.057,-28.068c-1.687,-18.891 -2.974,-37.745 -3.632,-56.701c-0.072,-2.026 -0.143,-4.054 -0.214,-6.081c-0.052,-1.47 -0.052,-1.47 -0.104,-2.971c-0.051,-1.442 -0.051,-1.442 -0.104,-2.913c-0.033,-0.941 -0.066,-1.881 -0.1,-2.85c-0.467,-12.977 -1.319,-25.913 -2.465,-38.848c-0.067,-0.762 -0.134,-1.523 -0.203,-2.308c-3.739,-42.114 -8.762,-84.34 -17.265,-125.777c-3.158,-15.84 -5.061,-31.815 -6.562,-47.884c-1.864,-19.792 -4.358,-39.457 -7.106,-59.144c-3.889,-27.867 -6.892,-55.792 -9.621,-83.795c-0.32,-3.274 -0.642,-6.549 -0.965,-9.823c-0.218,-2.233 -0.43,-4.467 -0.641,-6.701c-0.609,-14.379 -0.609,-14.379 -4.906,-27.641c-8.974,-1.087 -18.718,0.796 -27.667,1.755c-2.828,0.303 -5.656,0.599 -8.485,0.894c-7.052,0.736 -14.102,1.483 -21.154,2.23c-6.886,0.73 -13.775,1.454 -20.663,2.17c-1.465,0.153 -1.465,0.153 -2.96,0.308c-18.884,1.954 -37.792,3.469 -56.721,4.908c-8.876,0.68 -17.736,1.495 -26.589,2.427c-2.4,0.252 -4.8,0.492 -7.201,0.732c-8.471,0.864 -16.842,1.975 -25.236,3.433c-15.82,2.717 -31.679,4.701 -47.647,6.319c-2.104,0.216 -4.208,0.432 -6.313,0.65c-4.382,0.45 -8.764,0.897 -13.147,1.342c-5.52,0.561 -11.037,1.129 -16.556,1.701c-59.144,6.115 -59.144,6.115 -79.457,6.224c-3.592,0.048 -7.158,0.282 -10.739,0.558c-1.089,0.081 -1.089,0.081 -2.201,0.162c-1.519,0.114 -3.04,0.228 -4.559,0.344c-2.278,0.174 -4.556,0.341 -6.835,0.509c-15.22,1.13 -30.208,2.857 -45.244,5.481c-8.789,1.526 -17.559,2.715 -26.437,3.582c-11.115,1.115 -22.216,2.329 -33.316,3.588c-3.223,0.366 -6.445,0.729 -9.668,1.093c-9.146,1.031 -18.29,2.065 -27.435,3.101c-15.256,1.726 -30.513,3.438 -45.773,5.121c-1.424,0.157 -1.424,0.157 -2.878,0.318c-19.438,2.144 -38.79,4.138 -58.349,4.725c-5.27,0.161 -10.536,0.379 -15.805,0.587c-1.028,0.039 -2.057,0.079 -3.116,0.119c-21.004,0.809 -41.371,2.435 -62.016,6.467Z" style="fill-rule:nonzero;"/></g></g></g></g></svg>