<?xml version="1.0" encoding="UTF-8" standalone="no"?><!DOCTYPE svg PUBLIC "-//W3C//DTD SVG 1.1//EN" "http://www.w3.org/Graphics/SVG/1.1/DTD/svg11.dtd"><svg width="100%" height="100%" viewBox="0 0 855 926" version="1.1" xmlns="http://www.w3.org/2000/svg" xmlns:xlink="http://www.w3.org/1999/xlink" xml:space="preserve" xmlns:serif="http://www.serif.com/" style="fill-rule:evenodd;clip-rule:evenodd;stroke-linejoin:round;stroke-miterlimit:2;"><rect id="Artboard1" x="0" y="0" width="855" height="926" style="fill:none;"/><path d="M594.516,1.816c1.003,0.001 2.005,0.002 3.039,0.003c10.074,0.08 20.042,0.91 30.068,1.833c21.658,1.974 43.209,2.874 64.953,3.019c1.028,0.01 2.057,0.019 3.116,0.029c1.901,0.016 3.801,0.025 5.702,0.022c5.312,0.044 10.197,0.66 15.386,1.799c2.645,0.569 5.271,0.895 7.963,1.154c12.715,1.32 24.749,3.389 37.074,6.757c3.267,0.848 6.559,1.482 9.871,2.129c9.34,1.988 15.595,5.293 22.902,11.438c2.118,1.757 4.272,3.316 6.535,4.875c3.15,2.306 5.207,4.785 7.5,7.938c3.351,4.448 6.785,6.92 11.5,9.688c10.405,6.256 13.193,14.256 16.113,25.594c1.532,7.854 1.89,15.652 1.867,23.637c0.106,21.808 1.331,42.051 6.266,63.311c1.768,8.325 1.821,16.728 1.816,25.208c0.001,1.145 0.001,2.291 0.002,3.471c-0.042,6.948 -0.419,13.752 -1.189,20.654c-1.132,10.249 -1.197,20.451 -1.188,30.75c-0.001,0.807 -0.001,1.615 -0.002,2.446c0,2.312 0.009,4.624 0.022,6.936c0.001,0.697 0.002,1.394 0.004,2.112c0.032,3.309 0.349,6.192 1.164,9.38c0.265,5.203 0.245,10.416 0.25,15.625c0.002,1.155 0.002,1.155 0.004,2.333c-0.004,10.466 -0.551,20.622 -1.971,31.001c-1.564,12.012 -2.203,24.078 -2.908,36.166c-0.062,1.05 -0.124,2.101 -0.188,3.183c-0.747,12.686 -1.387,25.371 -1.813,38.073c-0.035,0.942 -0.07,1.883 -0.105,2.853c-0.042,1.239 -0.042,1.239 -0.085,2.504c-0.184,2.262 -0.184,2.262 -0.692,4.292c-0.539,2.159 -0.621,4.048 -0.624,6.272c-0.002,0.834 -0.004,1.668 -0.006,2.528c0.005,0.893 0.009,1.786 0.014,2.706c0.003,0.935 0.005,1.871 0.008,2.834c0.057,8.519 0.48,16.998 0.972,25.5c2.693,47.796 2.254,96.373 -0.78,144.153c-2.776,43.71 -3.044,89.344 2.812,132.788c9.54,71.993 9.54,71.993 -7.329,95.17c-2.54,3.135 -5.331,5.7 -8.434,8.27c-4.119,3.5 -7.033,7.505 -10.125,11.914c-15.017,21.294 -34.589,31.863 -58.17,41.555c-4.776,1.969 -9.5,4.023 -14.198,6.172c-10.857,4.962 -21.683,9.743 -33.008,13.547c-0.864,0.293 -1.728,0.587 -2.618,0.889c-2.985,0.964 -5.988,1.823 -9.007,2.674c-0.683,0.208 -1.366,0.415 -2.07,0.629c-16.335,4.898 -32.229,5.089 -49.18,5.059c-3.975,0.006 -7.95,0.025 -11.924,0.051c-2.45,0.015 -4.9,0.019 -7.349,0.01c-8.119,0.027 -15.136,0.964 -22.738,3.802c-5.757,1.964 -11.509,2.288 -17.551,2.637c-0.643,0.041 -1.286,0.082 -1.949,0.124c-10.73,0.663 -21.447,0.739 -32.196,0.704c-0.989,-0.003 -0.989,-0.003 -1.998,-0.006c-7.367,-0.023 -14.732,-0.077 -22.099,-0.171c-2.526,-0.021 -5.053,-0.041 -7.579,-0.061c-1.139,-0.022 -2.278,-0.044 -3.451,-0.066c-8.306,-0.05 -15.869,1.293 -23.916,3.289c-27.178,6.461 -27.178,6.461 -37.813,3.494c-2.904,-0.656 -5.639,-0.63 -8.617,-0.639c-1.306,-0.006 -2.611,-0.013 -3.956,-0.019c-1.425,-0.002 -2.849,-0.003 -4.274,-0.003c-1.47,-0.003 -2.94,-0.007 -4.41,-0.01c-3.084,-0.006 -6.168,-0.008 -9.253,-0.007c-3.925,0 -7.849,-0.013 -11.774,-0.031c-3.04,-0.011 -6.079,-0.013 -9.119,-0.013c-1.445,-0.001 -2.89,-0.006 -4.335,-0.013c-7.508,-0.037 -14.716,0.165 -22.08,1.79c-4.347,0.829 -8.71,0.701 -13.119,0.639c-1.51,-0.011 -1.51,-0.011 -3.05,-0.022c-8.819,-0.09 -17.635,-0.333 -26.45,-0.603c-1.284,-0.039 -2.567,-0.078 -3.89,-0.118c-1.238,-0.042 -2.476,-0.084 -3.751,-0.128c-1.083,-0.037 -2.166,-0.073 -3.282,-0.111c-3.112,-0.167 -6.181,-0.429 -9.282,-0.726c-6.737,-0.575 -13.444,-0.565 -20.198,-0.494c-2.238,0.023 -4.477,0.036 -6.715,0.048c-6.357,0.033 -12.714,0.074 -19.07,0.138c-18.284,0.177 -36.004,-0.187 -54.144,-2.833c-8.866,-1.24 -17.781,-1.443 -26.719,-1.629c-11.124,-0.237 -21.867,-0.708 -32.78,-3.021c-4.635,-0.813 -9.16,-1.025 -13.855,-1.188c-15.488,-0.626 -26.319,-6.302 -37.719,-16.926c-4.268,-4.688 -7.249,-10.072 -10.344,-15.574c-0.876,-1.454 -0.876,-1.454 -1.77,-2.938c-3.321,-5.518 -6.408,-11.15 -9.355,-16.875c-0.313,-0.591 -0.625,-1.182 -0.947,-1.79c-6.161,-12.21 -9.335,-26.01 -12.928,-39.147c-0.441,-1.607 -0.883,-3.214 -1.325,-4.821c-0.854,-3.112 -1.706,-6.225 -2.555,-9.339c-0.897,-3.286 -1.813,-6.566 -2.737,-9.844c-2.549,-9.158 -4.328,-18.306 -5.865,-27.687c-1.569,-9.366 -3.966,-18.422 -6.518,-27.559c-2.95,-10.583 -4.75,-20.842 -5.782,-31.782c-0.349,-3.559 -0.778,-7.107 -1.218,-10.656c-0.144,-1.195 -0.289,-2.39 -0.438,-3.621c-0.423,-2.967 -0.938,-5.844 -1.523,-8.777c-1.483,-8.055 -2.049,-16.193 -2.664,-24.352c-0.066,-0.858 -0.133,-1.716 -0.201,-2.599c-1.171,-15.45 -1.433,-30.827 -1.239,-46.315c0.009,-0.807 0.018,-1.613 0.028,-2.444c0.019,-1.49 0.043,-2.98 0.074,-4.47c0.058,-4.086 -0.244,-7.96 -0.803,-11.991c-0.392,-3.335 -0.391,-6.678 -0.41,-10.031c-0.02,-1.551 -0.042,-3.102 -0.064,-4.653c-0.011,-0.805 -0.022,-1.609 -0.034,-2.438c-0.24,-15.516 -1.335,-30.545 -3.691,-45.885c-2.082,-13.648 -3.239,-27.184 -3.697,-40.975c-1.274,-36.132 -4.931,-72.383 -11.29,-107.975c-4.649,-26.135 -5.725,-52.681 -7.163,-79.143c-0.915,-19.338 -0.915,-19.338 -3.385,-38.516c-3.761,-21.636 -3.682,-43.546 -3.688,-65.438c-0.001,-1.153 -0.002,-2.306 -0.003,-3.494c0,-3.305 0.009,-6.611 0.023,-9.916c0.001,-1.003 0.002,-2.006 0.004,-3.039c0.006,-0.928 0.013,-1.856 0.019,-2.813c0.006,-1.214 0.006,-1.214 0.012,-2.454c0.132,-2.198 0.565,-4.101 1.134,-6.222c0.077,-1.656 0.108,-3.315 0.105,-4.973c0.134,-12.107 1.332,-22.346 5.438,-33.734c1.368,-3.818 2.065,-7.521 2.645,-11.543c3.696,-20.363 16.671,-39.188 30.812,-53.75c0.551,-0.577 1.103,-1.154 1.671,-1.749c11.673,-12.201 23.22,-21.177 38.681,-28.122c2.788,-1.253 5.503,-2.55 8.172,-4.039c10.545,-5.809 21.794,-8.459 33.477,-11.09c0.831,-0.189 1.661,-0.377 2.517,-0.571c6.359,-1.363 12.69,-2.063 19.171,-2.554c1.105,-0.084 2.21,-0.168 3.348,-0.255c9.117,-0.625 18.205,-0.808 27.339,-0.807c1.276,-0.001 2.552,-0.002 3.866,-0.002c5.548,0.033 11.031,0.164 16.556,0.69c8.016,0.74 16.035,0.699 24.078,0.688c1.232,-0.001 1.232,-0.001 2.49,-0.003c15.642,-0.039 30.827,-0.867 46.28,-3.431c2.805,-0.463 5.611,-0.922 8.418,-1.379c0.7,-0.114 1.399,-0.228 2.12,-0.346c16.248,-2.602 32.561,-3.208 48.97,-1.541c7.328,0.725 14.677,0.839 22.034,1.014c2.479,0.059 4.958,0.125 7.437,0.191c18.548,0.745 18.548,0.745 37.015,-0.453c5.699,-0.58 11.451,-0.481 17.174,-0.49c0.685,-0.002 1.369,-0.005 2.074,-0.007c9.292,-0.012 18.255,0.54 27.417,2.181c7.867,1.389 16.939,2.485 24.776,0.567c4.31,-0.725 8.566,-0.593 12.928,-0.554c1.444,0.006 1.444,0.006 2.916,0.011c3.067,0.012 6.134,0.031 9.201,0.051c4.044,0.027 8.088,0.047 12.133,0.062c0.931,0.008 1.863,0.017 2.822,0.025c0.865,0.003 1.729,0.007 2.62,0.01c0.76,0.005 1.52,0.01 2.303,0.016c2.207,-0.038 2.207,-0.038 4.998,-1.114c1.942,-0.161 3.889,-0.273 5.836,-0.359c17.02,-0.872 33.318,-2.833 50.07,-6.1c7.262,-1.269 14.248,-1.733 21.61,-1.724Zm-50.033,22.743c-2.807,0.499 -5.492,0.619 -8.342,0.687c-1.116,0.033 -2.233,0.066 -3.383,0.1c-2.323,0.061 -4.646,0.118 -6.969,0.172c-1.121,0.034 -2.243,0.068 -3.398,0.104c-1.01,0.025 -2.021,0.05 -3.062,0.076c-2.634,0.24 -4.724,0.643 -7.245,1.31c-6.838,1.591 -13.84,1.28 -20.818,1.259c-1.525,0.001 -3.051,0.003 -4.576,0.006c-3.187,0.003 -6.374,-0.001 -9.561,-0.011c-4.049,-0.011 -8.097,-0.005 -12.146,0.007c-3.149,0.007 -6.298,0.005 -9.446,-0c-1.491,-0.001 -2.982,0 -4.473,0.005c-6.943,0.017 -13.694,-0.09 -20.561,-1.279c-7.609,-1.31 -15.111,-1.225 -22.799,-1.154c-1.561,0.006 -3.123,0.012 -4.684,0.016c-4.097,0.013 -8.194,0.038 -12.291,0.065c-7.258,0.048 -14.516,0.082 -21.774,0.106c-0.792,0.003 -1.584,0.006 -2.401,0.009c-14.04,0.044 -28.049,-0.284 -42.079,-0.791c-26.227,-1.006 -26.227,-1.006 -52.228,1.857c-26.037,4.631 -52.167,4.186 -78.496,3.897c-42.4,-1.145 -42.4,-1.145 -83.75,7c-0.695,0.221 -1.39,0.442 -2.106,0.67c-18.328,5.883 -36.226,13.95 -49.269,28.432c-2.226,2.458 -4.428,4.511 -7,6.586c-15.526,13.235 -24.403,36.585 -28.379,55.93c-0.969,4.653 -2.495,8.83 -4.414,13.171c-1.376,3.657 -1.286,6.324 -0.832,10.211c0.495,0.928 0.99,1.856 1.5,2.812c3.111,6.611 1.603,13.924 0.5,20.938c-1.482,9.627 -1.267,19.02 -0.48,28.688c0.388,5.23 0.538,10.415 0.473,15.656c-0.008,0.688 -0.016,1.376 -0.024,2.084c-0.036,2.812 -0.078,5.624 -0.14,8.436c-0.176,8.536 0.233,16.403 2.422,24.732c1.897,9.251 1.935,18.819 2.214,28.232c0.079,2.404 0.157,4.807 0.236,7.211c0.118,3.711 0.235,7.422 0.348,11.134c0.671,21.743 1.984,43.323 4.888,64.89c0.157,1.211 0.313,2.422 0.475,3.67c0.687,5.22 1.39,10.427 2.278,15.616c2.451,14.419 3.837,28.927 5.178,43.484c0.197,2.131 0.396,4.261 0.597,6.392c1.662,17.745 3.062,35.462 3.752,53.275c0.474,12.148 1.631,24.086 3.184,36.142c1.692,13.196 3.004,26.421 0.599,39.609c-0.597,5.494 -0.597,5.494 1.812,10.312c0.722,0.557 1.444,1.114 2.188,1.688c2.323,2.151 2.96,2.88 4,6c0.179,5.11 -0.152,10.022 -0.712,15.098c-3.522,32.45 -0.766,65.635 4.389,97.785c0.311,2.035 0.574,4.069 0.815,6.113c1.287,10.846 3.77,21.233 6.48,31.793c2.012,7.87 3.817,15.756 5.465,23.711c0.212,1.022 0.424,2.044 0.643,3.096c1.056,5.116 2.084,10.235 3.068,15.365c5.312,27.272 13.191,55.246 27.71,79.141c1.165,1.938 2.283,3.898 3.395,5.867c9.073,15.926 9.073,15.926 23.746,26.031c4.454,0.851 8.863,1.339 13.382,1.73c2.023,0.209 4.042,0.468 6.057,0.747c11.262,1.558 22.37,1.905 33.727,2.055c2.377,0.034 4.754,0.079 7.131,0.125c0.697,0.005 1.394,0.011 2.113,0.016c5.293,0.103 10.341,0.909 15.551,1.823c21.28,3.532 43.114,2.69 64.602,2.505c5.579,-0.048 11.157,-0.088 16.736,-0.112c2.184,-0.013 4.368,-0.038 6.553,-0.063c8.321,-0.061 16.338,0.521 24.581,1.68c20.378,2.826 40.742,3.774 61.07,0.571c7.369,-1.141 15.27,-2.334 22.624,-0.565c3.833,0.652 7.601,0.572 11.473,0.516c1.706,-0.013 3.413,-0.025 5.119,-0.037c2.663,-0.025 5.327,-0.052 7.99,-0.086c10.029,-0.119 19.419,0.129 29.293,2.096c11.164,1.285 20.819,-0.745 31.625,-3.5c13.814,-3.522 26.755,-4.639 40.961,-3.247c9.098,0.886 18.155,0.898 27.287,0.877c2.753,-0.005 5.506,-0 8.26,0.006c1.781,-0.001 3.563,-0.002 5.344,-0.004c0.808,0.002 1.615,0.004 2.447,0.006c10.787,0.212 10.787,0.212 20.826,-3.014c10.055,-5.523 21.896,-5.522 33.062,-5.277c1.385,0.016 2.769,0.03 4.154,0.042c5.791,0.054 11.582,0.148 17.372,0.248c22.336,0.368 43.312,-0.477 64.349,-8.824c1.134,-0.434 2.269,-0.869 3.438,-1.316c7.519,-2.927 14.84,-6.171 22.075,-9.737c5.603,-2.754 11.295,-5.121 17.112,-7.385c13.671,-5.377 25.306,-11.529 36.688,-20.875c0.859,-0.645 1.717,-1.289 2.602,-1.953c2.705,-2.308 4.619,-4.737 6.711,-7.609c0.78,-1.057 1.56,-2.114 2.363,-3.203c1.478,-2.057 2.936,-4.129 4.367,-6.219c3.844,-5.555 7.536,-9.446 12.977,-13.426c6.462,-5.187 7.063,-12.778 7.98,-20.59c0.24,-4.775 0.236,-9.532 0.188,-14.312c-0.001,-1.223 -0.001,-2.445 -0.002,-3.705c-0.028,-5.783 -0.335,-11.26 -1.186,-16.982c-0.281,-5.539 -0.389,-11.086 -0.518,-16.631c-0.207,-7.086 -0.704,-14.064 -1.447,-21.111c-1.024,-9.723 -1.694,-19.431 -2.16,-29.195c-0.063,-1.305 -0.063,-1.305 -0.127,-2.636c-1.01,-21.48 -0.99,-42.929 -0.748,-64.427c0.014,-1.298 0.029,-2.595 0.044,-3.932c0.106,-9.441 0.229,-18.883 0.363,-28.324c0.031,-2.161 0.06,-4.321 0.09,-6.482c0.057,-4.086 0.121,-8.173 0.187,-12.259c0.017,-1.207 0.033,-2.413 0.051,-3.657c0.099,-5.737 0.32,-11.425 0.777,-17.145c0.623,-8.152 0.634,-16.27 0.621,-24.44c0.001,-1.618 0.002,-3.235 0.003,-4.853c0.001,-3.362 -0.001,-6.725 -0.005,-10.087c-0.006,-4.288 -0.002,-8.575 0.004,-12.863c0.004,-3.33 0.002,-6.659 -0,-9.989c-0.001,-1.581 0,-3.161 0.002,-4.742c0.018,-10.579 0.018,-10.579 -0.909,-21.109c-0.476,-4.449 -0.369,-8.93 -0.36,-13.4c-0.001,-1.054 -0.002,-2.107 -0.003,-3.193c-0.001,-2.215 0.001,-4.431 0.005,-6.646c0.005,-3.37 0,-6.741 -0.006,-10.111c0.001,-2.163 0.002,-4.326 0.004,-6.488c-0.002,-0.997 -0.004,-1.994 -0.006,-3.022c0.017,-5.078 0.275,-9.999 0.903,-15.035c0.43,-4.052 0.453,-8.114 0.517,-12.185c0.038,-1.871 0.076,-3.742 0.113,-5.613c0.054,-2.916 0.106,-5.833 0.158,-8.75c0.052,-2.837 0.109,-5.675 0.167,-8.512c0.014,-0.875 0.027,-1.75 0.041,-2.651c0.017,-0.812 0.033,-1.623 0.051,-2.459c0.013,-0.712 0.025,-1.425 0.038,-2.159c0.151,-1.895 0.151,-1.895 1.151,-4.895c0.128,-2.084 0.202,-4.171 0.246,-6.258c0.032,-1.256 0.063,-2.512 0.096,-3.806c0.023,-0.994 0.023,-0.994 0.047,-2.008c0.425,-17.898 0.425,-17.898 1.674,-26.303c1.146,-8.34 1.13,-16.661 1.125,-25.062c0.001,-1.043 0.001,-1.043 0.002,-2.107c0.008,-9.248 0.008,-9.248 -0.694,-18.463c-0.707,-6.117 -0.646,-12.236 -0.626,-18.387c0.005,-2.036 0,-4.071 -0.006,-6.107c0.001,-1.318 0.003,-2.636 0.004,-3.994c0.002,-1.766 0.002,-1.766 0.003,-3.568c0.101,-3.087 0.317,-6.081 0.621,-9.15c0.904,-9.45 0.811,-18.938 0.859,-28.424c0.016,-2.387 0.044,-4.774 0.082,-7.16c0.557,-25.222 0.557,-25.222 -6.432,-49.202c-0.097,-1.349 -0.135,-2.703 -0.142,-4.056c-0.007,-0.839 -0.014,-1.679 -0.021,-2.544c-0.004,-0.914 -0.008,-1.829 -0.013,-2.771c-0.023,-1.958 -0.047,-3.915 -0.072,-5.873c-0.035,-3.069 -0.064,-6.137 -0.078,-9.206c-0.056,-10.512 -0.336,-20.797 -2.385,-31.135c-0.143,-0.763 -0.287,-1.527 -0.434,-2.313c-1.779,-7.952 -6.704,-11.978 -12.855,-17.101c-1.22,-1.346 -2.412,-2.719 -3.562,-4.125c-13.019,-15.158 -30.049,-26.885 -49.873,-29.643c-4.499,-0.659 -8.833,-1.527 -13.229,-2.697c-7.14,-1.834 -14.336,-2.806 -21.648,-3.66c-0.719,-0.086 -1.438,-0.172 -2.178,-0.26c-17.095,-2.005 -34.195,-2.29 -51.388,-2.547c-13.328,-0.207 -26.343,-1.254 -39.559,-2.975c-7.853,-1.022 -15.643,-1.833 -23.562,-2.093c-0.882,-0.038 -1.764,-0.076 -2.673,-0.115c-19.113,-0.746 -37.202,1.534 -55.844,5.674Z" style="fill-rule:nonzero;"/><path d="M305.938,101.813c3.376,3.581 4.867,6.677 5.5,11.562c-0.801,6.639 -3.632,11.072 -8.438,15.625l2.09,0.883c9.267,4.042 19.361,8.472 23.91,18.117c1.138,5.178 0.605,9.592 -1.938,14.25c-6.088,8.476 -17.728,13.631 -27.625,16.062c-12.639,2.049 -26.008,2.099 -37.438,-4.312c-3.85,-3.905 -4.547,-6.655 -4.793,-12.074l-0.109,-2.053c-0.112,-2.186 -0.199,-4.373 -0.285,-6.56c-0.074,-1.498 -0.149,-2.997 -0.227,-4.495c-0.216,-4.272 -0.404,-8.544 -0.586,-12.818c-0.126,-2.867 -0.253,-5.734 -0.392,-8.601c-0.07,-1.469 -0.13,-2.939 -0.179,-4.41c-0.156,-3.522 -0.411,-4.962 -2.429,-7.99c-0.39,-3.687 0.058,-5.93 2.125,-9c10.667,-13.037 37.461,-12.426 50.812,-4.188Zm-34.938,41.188l1,19l5,2c14.251,1.253 24.738,-1.612 37,-9c0,-3 0,-3 -2,-5c-7.787,-6.035 -16.063,-7.349 -25.766,-7.264l-3.359,0.076c-3.959,0.047 -7.916,0.106 -11.875,0.188Zm10.375,-33.25c-2.517,-0.026 -4.902,-0.126 -7.196,0.254c-1.775,0.293 -3.495,0.874 -5.179,1.996c-0.102,6.769 -0.03,13.303 1,20c5.571,0 5.571,0 19.734,-9.914c3.872,-3.208 5.585,-4.967 6.266,-10.086c-4.245,-1.698 -7.866,-2.258 -12.375,-2.273l-2.25,0.023Z"/><path d="M162,100.938c3.264,2.351 5.788,4.659 8,8.062l1.75,2.688c2.208,5.851 2.123,11.049 -0.125,16.875c-7.382,10.893 -20.126,18.045 -32.625,21.438c-3.43,0.195 -3.43,0.195 -6.875,0.125l-3.492,-0.055l-2.633,-0.07l0.438,2.5c1.079,6.712 1.793,13.269 1.875,20.062l0.051,3.941c-0.414,3.986 -1.512,6.644 -4.363,9.496c-2.339,-0.287 -4.674,-0.619 -7,-1c-2.354,-5.681 -3.589,-10.702 -4.133,-16.809l-0.249,-2.522c-0.261,-2.701 -0.504,-5.403 -0.743,-8.106l-0.254,-2.796c-1.098,-12.149 -2.073,-24.312 -2.59,-36.501c-0.062,-1.419 -0.132,-2.838 -0.21,-4.257c-0.104,-1.957 -0.168,-3.917 -0.231,-5.876l-0.129,-3.316c0.539,-2.817 0.539,-2.817 2.944,-5.121c14.978,-9.786 35.734,-8.035 50.595,1.242Zm-21,6.062c-6.23,-0.744 -13.682,-1.546 -19,2c0.474,9.14 1.273,17.996 3,27c3.15,-0.055 6.265,-0.223 9.406,-0.473c8.757,-1.285 16.872,-5.719 22.594,-12.527c1.312,-3.125 1.312,-3.125 1,-6c-3.798,-5.767 -10.521,-8.273 -17,-10Z"/><path d="M267,656c7.031,3.587 12.778,10.621 16,17.812c2.67,8.582 1.918,19.116 -2,27.188c-4.803,6.998 -10.747,11.761 -19,14c-3.108,0.327 -6.189,0.381 -9.312,0.375c-0.847,-0.002 -1.693,-0.003 -2.565,-0.005c-6.15,-0.121 -10.911,-0.931 -16.122,-4.37c-1.052,-0.598 -2.104,-1.196 -3.188,-1.812c-6.777,-5.271 -10.387,-10.634 -11.812,-19.188c-0.887,-10.252 -0.019,-17.544 6.438,-25.625c10.623,-11.413 27.405,-14.991 41.562,-8.375Z" style="fill-rule:nonzero;"/><path d="M379,525c4.824,5.036 7.213,11.37 9,18c0.428,-0.571 0.856,-1.142 1.297,-1.73c0.562,-0.749 1.124,-1.498 1.703,-2.27c0.521,-0.718 1.042,-1.436 1.578,-2.176c4.465,-5.707 4.465,-5.707 8.984,-6.262c4.424,1.85 6.931,4.375 9.438,8.438c0.664,2.23 0.664,2.23 1,4c0.856,-0.161 1.712,-0.322 2.594,-0.488c3.352,-0.504 6.519,-0.679 9.906,-0.699c1.083,-0.014 2.166,-0.028 3.281,-0.043c3.219,0.23 3.219,0.23 6.129,1.246c4.375,1.394 8.561,1.046 13.08,0.818c5.23,-0.145 8.459,0.802 13.01,3.166c2,2 2,2 2.312,5.375c-0.332,3.848 -0.618,4.982 -3.312,7.625c-2.629,0.426 -2.629,0.426 -5.562,0.312c-0.971,-0.024 -1.941,-0.049 -2.941,-0.074c-2.496,-0.238 -2.496,-0.238 -4.496,-1.238c-2.593,-0.239 -5.185,-0.382 -7.785,-0.523c-2.788,-0.413 -4.866,-1.041 -7.477,-2.016c-4.933,-1.724 -9.317,-1.708 -14.488,-1.461c-9.816,0.461 -9.816,0.461 -14.25,-3c-0.422,0.566 -0.843,1.132 -1.277,1.715c-0.548,0.733 -1.096,1.467 -1.66,2.223c-0.545,0.731 -1.091,1.462 -1.652,2.215c-1.41,1.848 -1.41,1.848 -2.41,2.848c-4.641,0.524 -8.676,0.735 -12.812,-1.562c-7.65,-8.524 -7.65,-8.524 -8.188,-14.438c-2.948,2.504 -4.043,5.117 -5.438,8.688c-5.566,13.814 -5.566,13.814 -8.562,15.312c-2.023,0.238 -2.023,0.238 -4.375,0.312c-0.771,0.037 -1.542,0.075 -2.336,0.113c-3.207,-0.597 -4.241,-1.922 -6.289,-4.426c-1.145,-1.88 -2.228,-3.8 -3.25,-5.75c-0.521,-0.985 -1.042,-1.97 -1.578,-2.984c-0.387,-0.748 -0.773,-1.495 -1.172,-2.266c-2.836,0.354 -3.831,0.807 -5.746,2.996c-1.126,1.625 -2.251,3.25 -3.375,4.875c-2.787,3.158 -5.651,3.883 -9.691,4.691c-5.615,-0.991 -9.349,-5.164 -12.738,-9.586c-0.437,-0.632 -0.874,-1.263 -1.324,-1.914c-1.052,-1.516 -1.052,-1.516 -2.125,-3.062l-2,0c-2.64,5.28 -5.28,10.56 -8,16c-1.32,-0.66 -2.64,-1.32 -4,-2c-1.008,-9.924 1.83,-19.416 8,-27.312c1.928,-1.973 2.812,-2.631 5.5,-3.438c7.226,2.168 10.768,8.675 14.5,14.75c4.837,-0.436 7.578,-2.812 11.062,-5.938c5.228,-4.614 8.897,-7.641 16.039,-7.441c1.898,0.379 1.898,0.379 4.273,2.504c1.646,2.912 2.727,5.657 3.625,8.875l2,0c0.17,-0.701 0.34,-1.403 0.516,-2.125c4.128,-16.159 4.128,-16.159 11.484,-20.875c3.999,-1.333 5.942,-1.238 10,0Z" style="fill-rule:nonzero;"/><path d="M239,426c7.844,4.221 13.856,9.836 17.258,18.199c2.853,10.768 1.262,20.231 -4.129,29.793c-4.701,6.642 -10.547,10.245 -18.129,13.008c-9.293,1.58 -18.293,0.612 -26.477,-4.164c-3.897,-2.835 -6.805,-5.868 -9.523,-9.836l-1.309,-1.797c-4.188,-6.783 -3.678,-15.312 -2.148,-22.895c3.316,-10.826 10.704,-17.512 20.457,-22.746c8.528,-3.997 15.372,-3.129 24,0.438Zm-16,10l-2,4c-3.25,-0.25 -3.25,-0.25 -7,0c-3.611,2.407 -5.087,5.707 -6.469,9.703c-1.041,4.502 -1.643,10.074 0.469,14.297c3.369,4.554 6.479,8.195 12,10c5.226,0.522 10.356,0.709 15,-2c5.236,-3.56 7.674,-6.771 9,-13c0.898,-6.274 0.357,-11.089 -3.387,-16.309c-4.857,-5.092 -10.842,-6.208 -17.613,-6.691Z"/><path d="M261.062,520.688c3.331,3.975 4.178,7.655 4.281,12.77l0.09,3.123l0.066,3.232c0.147,7.088 0.629,13.351 2.5,20.188c0.266,3.047 0.266,3.047 0.25,5.75l0.016,2.734c-0.399,3.783 -1.246,5.683 -4.212,8.105c-4.4,2.033 -8.417,1.859 -13.21,1.844l-2.969,0.016c-2.068,0.006 -4.135,0.005 -6.203,-0.003c-3.161,-0.009 -6.32,0.02 -9.48,0.052c-2.012,0.002 -4.023,0.001 -6.035,-0.002l-2.857,0.034c-4.102,-0.044 -6.668,-0.183 -10.309,-2.186c-4.451,-5.242 -4.309,-10.993 -4.326,-17.539l-0.02,-2.636c-0.01,-1.83 -0.015,-3.661 -0.014,-5.491c-0.004,-2.801 -0.041,-5.6 -0.079,-8.4c-0.006,-1.783 -0.01,-3.565 -0.012,-5.348l-0.044,-2.532c0.045,-5.768 0.045,-5.768 2.318,-8.884c6.338,-4.387 15.562,-4.302 22.999,-5.139l3.369,-0.406c18.687,-2.143 18.687,-2.143 23.881,0.719Zm-8.062,10.312c-6.492,-0.066 -12.959,0.076 -19.446,0.342l-3.679,0.158l-11.875,0.5l3,35c4.442,-0.444 8.883,-0.931 13.338,-1.205l2.888,-0.111l3.184,-0.127l3.215,-0.119c3.11,-0.122 6.22,-0.244 9.331,-0.362l2.044,-0.076c-1.248,-16.067 -1.248,-16.067 -1.924,-32.171l-0.076,-1.829Z"/><path d="M307.312,423.941c3.519,2.207 5.837,5.357 7.688,9.059c0.476,7.145 -1.001,11.001 -5,17l2,0.188c7.876,2.133 13.162,7.46 18,13.812c1.611,3.223 1.452,6.505 1,10c-3.554,7.404 -10.072,11.472 -17.562,14.25c-1.81,0.591 -3.622,1.175 -5.438,1.75l-3.312,1.312c-9.037,1.685 -17.569,0.443 -25.699,-3.766c-3.128,-2.433 -4.724,-4.838 -5.34,-8.824c-0.222,-2.858 -0.351,-5.706 -0.449,-8.571l-0.136,-3.178c-0.091,-2.213 -0.176,-4.426 -0.254,-6.639c-0.122,-3.389 -0.269,-6.777 -0.421,-10.165c-0.086,-2.152 -0.17,-4.303 -0.252,-6.455l-0.135,-3.072l-0.092,-2.862l-0.094,-2.511c0.211,-2.592 0.77,-4.095 2.185,-6.27c2.303,-1.449 4.423,-2.623 6.875,-3.75l2.031,-0.935c8.016,-3.448 16.28,-3.912 24.406,-0.374Zm-13.188,9.746c-5.214,-0.085 -6.31,0.423 -11.125,3.312l1,13c5.756,0 11.054,-4.096 15.5,-7.562c2.348,-2.29 3.262,-3.227 3.5,-6.438c-3,-2 -3,-2 -5.742,-2.301l-3.133,-0.012Zm21.586,32.699c-8.766,-7.105 -19.06,-6.368 -29.711,-4.387l-0.07,1.723l-0.055,2.34c-0.132,4.279 0.858,7.861 2.125,11.938c1.712,0.019 3.424,0.037 5.137,0.049l2.113,0.014c5.267,0.065 9.506,-0.026 14.328,-2.254l2.672,-1.371c1.585,-0.809 3.169,-1.62 4.75,-2.438c0,-4 0,-4 -1.289,-5.613Z"/><path d="M508,427c10.157,4.19 19.543,8.833 25.812,18.188l1.77,2.605c3.458,5.382 2.831,10.953 2.418,17.207c-2.501,7.502 -9.047,14.336 -16,18c-9.972,4.288 -19.962,8.39 -31,7c-3.125,-1.938 -3.125,-1.938 -5,-5c-0.463,-2.141 -0.636,-4.192 -0.766,-6.379c-0.264,-2.957 -0.897,-5.677 -1.609,-8.559c-2.578,-10.819 -4.414,-21.812 -5.562,-32.875l-0.34,-3.27c0.356,-3.745 1.681,-5.265 4.277,-7.918c6.86,-3.43 18.872,-1.25 26,1Zm-16,11c0.237,10.836 0.237,10.836 6,38c7.931,0 17.562,-4.416 23.746,-9.41c2.594,-2.755 3.252,-4.572 3.629,-8.34c-0.417,-3.614 -0.789,-4.625 -3.238,-7.238c-8.833,-8.382 -17.887,-12.714 -30.137,-13.012Z"/><path d="M570.063,88.938c3.763,1.361 4.206,2.505 5.938,6.062c0.623,2.521 1.126,4.931 1.535,7.484c0.124,0.725 0.247,1.449 0.375,2.196c0.397,2.355 0.776,4.712 1.152,7.07c0.131,0.804 0.263,1.608 0.398,2.437c2.261,13.896 3.885,27.741 4.539,41.813c0.044,0.771 0.088,1.541 0.133,2.335c0.583,10.758 0.583,10.758 -1.969,13.989c-2.164,1.676 -2.164,1.676 -5.164,2.176c-3.704,-0.617 -4.755,-1.533 -7,-4.5c-2.272,-4.47 -2.429,-8.713 -2.625,-13.625c-0.038,-0.795 -0.076,-1.589 -0.115,-2.408c-0.268,-5.99 -0.379,-11.972 -0.26,-17.967c-1.042,0.205 -2.083,0.41 -3.156,0.621c-9.959,1.894 -19.717,2.984 -29.844,3.379c0.33,0.66 0.66,1.32 1,2c0.535,3.315 0.764,6.652 1,10c0.118,1.56 0.118,1.56 0.238,3.152c0.344,7.941 0.344,7.941 -2.363,12.16c-2.875,1.688 -2.875,1.688 -6,1.75c-3.248,-1.2 -4.208,-2.079 -5.875,-5.062c-1.937,-5.81 -2.014,-12.165 -2.562,-18.25c-0.068,-0.749 -0.135,-1.497 -0.205,-2.268c-0.996,-11.307 -1.557,-22.569 -1.608,-33.919c-0.014,-1.32 -0.027,-2.639 -0.041,-3.999c0.006,-1.216 0.012,-2.432 0.018,-3.685c0.003,-1.067 0.007,-2.133 0.01,-3.232c0.388,-2.647 0.388,-2.647 1.757,-4.491c2.338,-1.656 3.834,-1.576 6.631,-1.156c3.63,2.286 4.086,6.019 5,10c1.397,7.821 1,14.787 1,23c10.56,-1.32 21.12,-2.64 32,-4c-0.495,-3.96 -0.495,-3.96 -1,-8c-0.229,-3.583 -0.275,-7.16 -0.312,-10.75c-0.029,-0.932 -0.058,-1.864 -0.088,-2.824c-0.063,-6.757 -0.063,-6.757 2.229,-10.062c2.172,-1.363 2.172,-1.363 5.234,-1.426Z" style="fill-rule:nonzero;"/><path d="M231.5,99.875c3.448,1.108 4.885,1.837 6.66,4.992c1.919,4.874 2.877,10 3.84,15.133c0.201,1.071 0.201,1.071 0.406,2.164c0.299,1.95 0.471,3.866 0.594,5.836c0.064,0.928 0.129,1.856 0.195,2.812c0.519,14.121 -3.198,29.395 -12.113,40.598c-5.579,5.946 -10.744,8.664 -18.957,9.152c-7.748,-0.242 -11.992,-3.361 -17.281,-8.766c-11.428,-13.219 -14.06,-29.674 -14.219,-46.609c-0.014,-0.954 -0.028,-1.909 -0.042,-2.892c0.046,-6.818 0.348,-15.226 5.417,-20.296c2.775,-0.356 4.335,-0.484 6.635,1.19c1.841,2.441 1.749,4.04 1.771,7.079c0.02,1.047 0.039,2.094 0.06,3.173c0.011,1.112 0.023,2.224 0.034,3.37c0.408,15.784 2.142,33.412 12.5,46.187c2.86,2.273 2.86,2.273 6.312,2.188c4.652,-1.498 5.9,-3.224 8.332,-7.344c6.631,-13.912 6.491,-26.922 3.039,-41.637c-1.119,-5.251 -1.985,-10.02 0.879,-14.832c2.438,-1.375 2.438,-1.375 5.938,-1.5Z" style="fill-rule:nonzero;"/><path d="M266,329.207c-1.178,-1.385 -1.97,-2.951 -2.221,-5.104l-0.136,-2.337l-0.162,-2.649l-0.164,-2.866l-0.373,-5.969c-0.192,-3.147 -0.382,-6.294 -0.566,-9.441c-0.179,-3.031 -0.369,-6.06 -0.561,-9.09l-0.158,-2.866l-0.172,-2.649l-0.139,-2.337c-0.205,-2.134 -0.205,-2.134 -2.348,-3.897c0.099,-2.862 1.256,-4.396 2.812,-6.812c4.281,-2.938 6.965,-2.493 11.996,-1.832c13.321,2.69 24.983,9.194 33.691,19.645c2.901,5.775 2.361,12.784 1.5,19c-3.666,9.459 -12.647,14.77 -21.414,18.965c-5.672,2.271 -12.484,3.907 -18.586,3.035c-0.225,-0.183 -0.445,-0.363 -0.66,-0.543c1.526,0.771 2.697,0.719 6.66,0.543l-3,-1l0,-2l-6,-1l0,1.207Zm7,-46.207c-0.047,3.511 -0.004,6.956 0.275,10.457l0.381,3.571c0.207,1.964 0.414,3.928 0.625,5.891c0.147,1.359 0.292,2.717 0.437,4.076c0.423,4.002 0.85,8.004 1.282,12.006c4.707,0 4.707,0 14,-5c3.709,-2.388 7.387,-4.673 8.559,-9.121c0.154,-4.929 -1.36,-7.487 -4.496,-11.129c-5.776,-5.621 -12.846,-10.567 -21.062,-10.75Z"/><path d="M484.438,95.313c4.259,2.805 4.259,2.805 5.562,4.688c0.312,2.562 0.312,2.562 0,5c-2,2 -2,2 -4.539,2.055c-1.018,-0.059 -2.037,-0.119 -3.086,-0.18c-5.734,-0.089 -9.757,0.65 -14.375,4.125c-2.46,2.568 -2.46,2.568 -4,5c0.612,0.097 1.223,0.194 1.854,0.295c6.355,1.124 11.843,2.968 17.646,5.768c0.825,0.396 1.65,0.793 2.5,1.201c8.964,4.477 18.393,10.92 22,20.737c0.939,5.919 0.537,11.026 -3,16c-5.201,5.675 -10.754,8.606 -18,11c-0.99,0.33 -1.98,0.66 -3,1c-17.633,1.196 -17.633,1.196 -24,-4c-3.066,-2.695 -4.837,-4.981 -5.5,-9.125c0.559,-3.214 1.068,-4.695 3.5,-6.875c2.312,-0.5 2.312,-0.5 5,0c0.825,0.66 1.65,1.32 2.5,2c4.797,3.47 10.897,2.661 16.5,2c3.365,-0.875 6.192,-1.931 9,-4c1.655,-2.352 1.655,-2.352 1,-5c-6.408,-8.618 -17.445,-12.146 -27.223,-15.464c-6.799,-2.35 -12.963,-5.082 -16.777,-11.536c-0.862,-5.169 -0.294,-8.12 2.375,-12.625c3.649,-5.003 8.158,-7.646 13.625,-10.375c1.733,-0.928 1.733,-0.928 3.5,-1.875c5.868,-1.886 11.158,-2.019 16.938,0.188Z" style="fill-rule:nonzero;"/><path d="M766.625,78.563c2.375,0.438 2.375,0.438 5.375,2.438c0.652,4.815 -0.51,7.613 -3,11.688c-0.629,1.035 -1.258,2.07 -1.906,3.137c-2.698,4.093 -5.632,7.969 -8.688,11.801c-1.598,2.183 -1.598,2.183 -1.271,4.23c1.196,2.966 3.014,4.613 5.303,6.84c0.895,0.88 1.789,1.761 2.711,2.668c0.941,0.911 1.882,1.823 2.852,2.762c1.856,1.813 3.71,3.628 5.562,5.445c0.826,0.802 1.653,1.604 2.504,2.43c2.626,2.716 3.102,4.316 3.184,8c0.026,0.701 0.052,1.402 0.078,2.125c-0.108,0.619 -0.217,1.237 -0.328,1.875c-3,2 -3,2 -6.316,1.941c-4.271,-1.091 -6.598,-2.965 -9.621,-6.004c-0.511,-0.492 -1.023,-0.983 -1.55,-1.49c-1.52,-1.468 -3.018,-2.955 -4.513,-4.448c-0.842,-0.828 -1.684,-1.655 -2.551,-2.508c-1.832,-1.816 -3.649,-3.644 -5.449,-5.492c-2.861,2.709 -5.082,5.413 -7.199,8.73c-0.569,0.885 -1.138,1.77 -1.725,2.682c-0.582,0.916 -1.164,1.832 -1.764,2.775c-1.17,1.827 -2.34,3.654 -3.512,5.48c-0.514,0.807 -1.028,1.614 -1.557,2.446c-1.243,1.886 -1.243,1.886 -2.243,2.886c-2.875,0.312 -2.875,0.312 -6,0c-2.662,-2.219 -2.964,-3.688 -3.363,-7.121c0.473,-5.047 2.386,-8.153 5.051,-12.379c0.435,-0.721 0.87,-1.441 1.318,-2.184c2.143,-3.511 4.378,-6.839 6.889,-10.098c2.374,-2.872 2.374,-2.872 1.851,-5.281c-1.066,-2.771 -2.82,-4.429 -4.87,-6.563c-12.173,-13.184 -12.173,-13.184 -12.875,-21.375c1.125,-1.938 1.125,-1.938 3,-3c3.809,0.399 5.892,1.36 8.688,3.938c0.674,0.619 1.348,1.237 2.043,1.875c4.152,4.002 8.23,8.073 12.27,12.188c3.896,-3.68 7.014,-7.854 10.201,-12.135c7.253,-9.608 7.253,-9.608 11.424,-10.303Z" style="fill-rule:nonzero;"/><path d="M467,275c9.507,3.715 16.786,9.221 22.188,17.91c2.174,5.591 1.536,12.878 -0.438,18.465c-3.164,7.126 -7.129,11.675 -14,15.375c-6.038,2.013 -11.146,2.274 -17,-0.438c-7.469,-4.217 -11.392,-10.221 -13.75,-18.312c-1.028,-9.42 0.011,-17.605 5.719,-25.324c5.054,-5.964 9.11,-9.172 17.281,-7.676Zm-1,14c-3.029,-0.856 -4.193,-1.404 -7,0c-1.353,2.892 -2.223,5.908 -3,9c-0.499,5.884 0.297,10.412 3.562,15.375c3.099,2.066 3.099,2.066 9.414,1.961c2.373,-0.394 2.373,-0.394 6.148,-4.836c2.411,-4.5 2.795,-8.476 1.875,-13.5c-2.655,-4.478 -6.328,-6.084 -11,-8Z"/><path d="M329.277,662.559c8.348,4.419 14.662,10.259 17.723,19.441c0.513,7.693 -1.157,12.886 -5.812,19c-6.407,7.037 -17.905,12.372 -27.312,13.312c-3.373,-0.367 -4.467,-0.959 -6.875,-3.312c-4.057,-13.25 -2.647,-29.275 -3,-43l-4,-1l0,-5c9.01,-6.914 19.638,-3.899 29.277,0.559Zm-14.277,6.441c-0.383,10.468 -0.383,10.468 2,32l2,0c5.074,-1.847 10.41,-3.827 14.188,-7.812c2.423,-4.261 2.438,-6.338 1.812,-11.188c-4.366,-7.053 -12.399,-10.513 -20,-13Z"/><path d="M340,98c3.375,0.312 3.375,0.312 7,1c9.641,14.462 5.289,42.17 5,59c0.55,-0.007 1.101,-0.013 1.668,-0.02c5.743,-0.067 11.485,-0.112 17.228,-0.145c2.142,-0.015 4.283,-0.036 6.425,-0.062c3.083,-0.036 6.166,-0.053 9.249,-0.067c0.953,-0.015 1.907,-0.031 2.889,-0.047c5.251,-0.001 9.041,0.3 13.541,3.34c1.125,2.438 1.125,2.438 1,5c-2.68,3.751 -5.614,4.903 -10,6c-5.743,0.851 -11.336,1.172 -17.137,1.203c-1.264,0.009 -1.264,0.009 -2.553,0.017c-1.767,0.009 -3.535,0.016 -5.302,0.02c-2.699,0.01 -5.397,0.041 -8.096,0.072c-1.725,0.007 -3.449,0.012 -5.174,0.016c-1.203,0.019 -1.203,0.019 -2.431,0.037c-5.548,-0.022 -8.578,-1.243 -12.995,-4.678c-3.106,-3.993 -3.565,-8.705 -3.587,-13.614c-0.014,-1.717 -0.014,-1.717 -0.029,-3.469c0.001,-1.222 0.002,-2.444 0.003,-3.703c-0.004,-1.267 -0.009,-2.534 -0.013,-3.839c-0.006,-2.674 -0.007,-5.347 -0.002,-8.021c0.006,-3.419 -0.011,-6.837 -0.034,-10.255c-0.018,-3.274 -0.015,-6.548 -0.013,-9.822c-0.014,-1.836 -0.014,-1.836 -0.028,-3.709c0.006,-1.141 0.012,-2.283 0.019,-3.459c-0.001,-1.001 -0.001,-2.002 -0.002,-3.034c0.434,-3.205 1.551,-5.123 3.374,-7.763Z" style="fill-rule:nonzero;"/><path d="M240,275c3.895,7.791 3.204,20.238 3.375,28.875c0.028,1.276 0.057,2.552 0.086,3.867c-0.461,3.258 -0.461,3.258 -2.324,5.703c-2.137,1.555 -2.137,1.555 -4.699,1.555c-3.054,-1.253 -3.78,-2.141 -5.438,-5c-0.524,-2.793 -0.917,-5.436 -1.188,-8.25c-0.082,-0.745 -0.164,-1.49 -0.248,-2.258c-0.199,-1.83 -0.383,-3.661 -0.564,-5.492c-0.785,0.929 -1.57,1.859 -2.379,2.816c-9.565,11.272 -9.565,11.272 -14.926,16.426c-2.16,2.24 -4.065,4.64 -6.008,7.07c-3.183,3.928 -6.448,7.715 -9.938,11.375c-0.789,0.829 -1.578,1.658 -2.391,2.512c-2.359,1.801 -2.359,1.801 -5.031,2.195c-2.328,-0.395 -2.328,-0.395 -4.328,-2.395c-0.451,-3.999 -0.448,-6.257 1.652,-9.738c0.754,-0.849 1.508,-1.699 2.285,-2.574c0.826,-0.946 1.653,-1.892 2.504,-2.867c0.844,-0.931 1.689,-1.861 2.559,-2.82c0.731,-0.828 1.462,-1.655 2.215,-2.508c2.239,-2.519 4.507,-5.009 6.785,-7.492c0.441,-0.481 0.883,-0.962 1.337,-1.458c0.46,-0.501 0.919,-1.002 1.393,-1.519c0.471,-0.513 0.941,-1.026 1.426,-1.555c1.322,-1.44 2.647,-2.878 3.972,-4.316c3.672,-4.008 7.267,-8.084 10.871,-12.152c-0.726,0.01 -1.452,0.021 -2.2,0.032c-3.308,0.042 -6.617,0.068 -9.925,0.093c-1.142,0.017 -2.284,0.034 -3.461,0.051c-1.663,0.01 -1.663,0.01 -3.359,0.02c-1.524,0.016 -1.524,0.016 -3.079,0.032c-3.259,-0.249 -5.927,-1.078 -8.976,-2.227c-0.33,-1.65 -0.66,-3.3 -1,-5c5.889,-3.761 12.232,-4.004 19.062,-4.688c1.728,-0.194 1.728,-0.194 3.49,-0.393c22.381,-2.372 22.381,-2.372 28.447,2.08Z" style="fill-rule:nonzero;"/><path d="M392.371,273.199c4.011,2.747 6.841,6.269 8.629,10.801c0.703,4.495 0.442,8.06 -1.5,12.188c-5.393,6.067 -12.218,11.276 -20.559,11.988c-1.648,0.01 -3.296,-0.073 -4.941,-0.176l0.438,2.414l0.562,3.211l0.562,3.164c1.123,8.245 1.123,8.245 -1.25,11.586c-2.312,1.625 -2.312,1.625 -4.875,2.188c-2.438,-0.562 -2.438,-0.562 -4.023,-2.742c-6.426,-12.816 -6.306,-35.651 -5.414,-49.82c7.783,-12.265 20.795,-10.766 32.371,-4.801Zm-21.371,6.801c0.1,1.745 0.201,3.49 0.307,5.234l0.131,2.141c0.188,3.345 0.041,6.583 1.562,9.625c7.046,0 12.038,-3.41 17,-8c-0.438,-2.25 -0.438,-2.25 -2,-5c-5.485,-3.614 -10.556,-4.469 -17,-4Z"/><path d="M373.375,428.438c3.17,0.679 4.467,2.108 6.512,4.566c3.102,5.561 3.502,11.411 3.488,17.621c-0.002,1.177 -0.002,1.177 -0.005,2.378c-0.193,9.277 -2.212,18.783 -8.37,25.997c-6.079,5.765 -9.463,7.375 -17.957,7.273c-5.886,-0.529 -9.308,-3.264 -13.23,-7.586c-7.741,-9.759 -10.052,-19.748 -10.188,-32.062c-0.014,-0.761 -0.028,-1.522 -0.042,-2.306c0.042,-4.99 0.686,-9.588 4.417,-13.319c2.438,-0.188 2.438,-0.188 5,0c2.886,2.886 2.292,5.881 2.375,9.75c0.446,10.59 1.952,21.531 8.965,29.961c1.827,1.644 1.827,1.644 5.535,1.789c1.547,-0.248 1.547,-0.248 3.125,-0.5c0.82,-1.559 1.631,-3.122 2.438,-4.688c0.452,-0.87 0.905,-1.74 1.371,-2.637c1.959,-4.4 2.33,-8.394 2.316,-13.176c0.003,-0.918 0.005,-1.836 0.008,-2.781c-0.131,-2.676 -0.589,-5.1 -1.133,-7.719c-0.133,-1.538 -0.218,-3.081 -0.25,-4.625c-0.026,-0.755 -0.052,-1.511 -0.078,-2.289c0.553,-3.518 2.337,-4.851 5.703,-5.648Z" style="fill-rule:nonzero;"/><path d="M341.062,272.625c0.726,-0.014 1.452,-0.028 2.2,-0.042c4.188,0.037 6.705,0.44 9.738,3.417c-0.335,2.43 -0.749,3.736 -2.453,5.531c-3.813,2.199 -7.727,2.56 -12.047,3.156c-0.855,0.13 -1.709,0.259 -2.59,0.393c-3.711,0.547 -7.143,0.92 -10.91,0.92l0,11c1.629,-0.351 3.259,-0.701 4.938,-1.062c5.131,-0.935 9.977,-1.323 15.062,0.062c2,2 2,2 2,4.938c-1,3.062 -1,3.062 -3.688,4.875c-5.864,2.102 -11.156,2.294 -17.312,2.188c0.33,3.3 0.66,6.6 1,10c4.069,0.173 7.536,-0.035 11.5,-1c3.942,-0.927 7.431,-1.479 11.5,-1c2.5,1.75 2.5,1.75 4,4c0.125,2 0.125,2 -1,4c-6.391,5.7 -16.47,7.796 -24.902,7.398c-4.171,-0.792 -7.044,-2.487 -10.098,-5.398c-4.64,-7.566 -4.518,-15.514 -4.312,-24.125c0.01,-1.223 0.019,-2.447 0.029,-3.707c0.042,-3.394 0.14,-6.777 0.283,-10.168c0.034,-0.827 0.069,-1.655 0.104,-2.507c0.252,-3.217 0.714,-5.239 2.603,-7.884c6.861,-4.816 16.219,-4.89 24.355,-4.984Z" style="fill-rule:nonzero;"/><path d="M708.438,657.5c2.562,0.5 2.562,0.5 4.613,2.383c2.723,4.355 3.119,8.448 3.699,13.492c0.121,0.976 0.241,1.953 0.366,2.959c2.518,21.669 2.518,21.669 -2.116,29.666c-1,1 -1,1 -4.938,1.562c-9.666,-0.138 -16.959,-10.253 -23.227,-16.656c-0.606,-0.629 -1.212,-1.258 -1.836,-1.906c-0.121,1.192 -0.242,2.385 -0.367,3.613c-0.169,1.566 -0.338,3.133 -0.508,4.699c-0.118,1.179 -0.118,1.179 -0.238,2.381c-0.084,0.757 -0.168,1.515 -0.254,2.295c-0.073,0.696 -0.147,1.393 -0.222,2.111c-0.411,1.901 -0.411,1.901 -2.411,4.901c-2.938,0.5 -2.938,0.5 -6,0c-3.212,-3.994 -3.385,-7.326 -3.398,-12.348c-0.003,-0.694 -0.006,-1.387 -0.009,-2.102c-0.002,-1.46 0.003,-2.92 0.016,-4.38c0.016,-2.23 0,-4.458 -0.019,-6.688c0.002,-1.423 0.006,-2.845 0.012,-4.268c0.003,-1.288 0.007,-2.576 0.01,-3.903c0.408,-3.479 0.897,-4.899 3.388,-7.312c2.688,-0.688 2.688,-0.688 6,0c5.192,3.493 9.241,8.268 13.266,13.004c4.777,5.719 4.777,5.719 10.734,9.996c-0.061,-0.589 -0.121,-1.178 -0.184,-1.785c-0.277,-2.717 -0.547,-5.435 -0.816,-8.153c-0.095,-0.926 -0.191,-1.852 -0.289,-2.807c-0.434,-4.414 -0.81,-8.827 -0.961,-13.26c-0.026,-0.701 -0.052,-1.401 -0.078,-2.123c0.598,-3.415 2.496,-4.702 5.766,-5.373Z" style="fill-rule:nonzero;"/><path d="M529.563,269.5c2.438,0.5 2.438,0.5 4.25,1.5c2.858,4.813 1.174,10.464 -0.125,15.562c-0.275,1.022 -0.549,2.044 -0.832,3.098c-0.921,3.595 -1.651,7.197 -2.355,10.84c-1.088,5.588 -2.382,11.075 -3.816,16.582c-0.723,3.086 -1.217,6.159 -1.684,9.293c-0.847,5.395 -2.051,9.676 -6,13.625c-2.375,0.438 -2.375,0.438 -5,0c-2.458,-2.059 -3.835,-3.655 -4.235,-6.914c0.013,-5.926 0.911,-11.383 2.235,-17.148c0.191,-0.866 0.382,-1.731 0.578,-2.623c0.466,-2.107 0.943,-4.211 1.422,-6.314c-0.92,-0.596 -1.841,-1.191 -2.789,-1.805c-7.952,-5.436 -16.493,-14.223 -20.211,-23.195c-0.25,-3.125 -0.25,-3.125 0,-6c0.66,-0.66 1.32,-1.32 2,-2c3.773,0.307 5.871,1.34 8.625,3.875c0.675,0.619 1.351,1.238 2.047,1.875c3.263,3.154 6.478,6.356 9.647,9.605c2.579,2.664 2.579,2.664 5.681,4.645c0.103,-0.908 0.206,-1.815 0.312,-2.75c2.988,-20.333 2.988,-20.333 10.25,-21.75Z" style="fill-rule:nonzero;"/><path d="M652,666c6.079,3.102 10.971,8.186 14.938,13.688c2.049,6.388 2.272,13.474 -0.5,19.688c-2.874,4.916 -7.022,8.82 -12.438,10.625c-5.906,0.579 -10.306,-0.408 -15,-4c-5.082,-6.094 -7.381,-11.388 -7.277,-19.312c0.78,-7.557 5.314,-14.128 10.277,-19.688c3.22,-1.61 6.508,-1.459 10,-1Zm-5,11c-1.924,2.752 -2.957,4.645 -3.363,8.008l0.051,3.117c0.015,4.034 0.03,5.452 2.312,8.875c3.625,0.688 3.625,0.688 7,1c2.119,-2.303 3.066,-4.199 4.062,-7.188c-0.078,-4.776 -0.078,-4.776 -4.324,-10.992c-1.917,-2.008 -3.027,-2.454 -5.738,-2.82Z"/><path d="M521.938,662.688c3.062,0.312 3.062,0.312 4.695,1.575c1.592,2.022 1.931,3.312 2.317,5.843c0.189,1.217 0.189,1.217 0.382,2.459c0.117,0.866 0.235,1.731 0.356,2.623c0.125,0.888 0.25,1.776 0.379,2.692c2.592,19.722 2.592,19.722 -0.153,27c-1.914,2.121 -1.914,2.121 -5.227,3.211c-4.726,-0.115 -6.198,-1.405 -9.688,-4.527c-0.771,-0.68 -0.771,-0.68 -1.558,-1.375c-4.169,-3.748 -7.957,-7.795 -11.442,-12.188c-0.026,1.025 -0.052,2.05 -0.078,3.105c-0.056,1.361 -0.114,2.721 -0.172,4.082c-0.021,1.01 -0.021,1.01 -0.043,2.041c-0.236,4.828 -1.355,7.319 -4.707,10.771c-2.375,-0.25 -2.375,-0.25 -5,-1c-2.592,-3.541 -2.306,-7.515 -2.301,-11.723c-0.004,-0.742 -0.009,-1.484 -0.013,-2.248c-0.006,-1.564 -0.006,-3.128 -0.002,-4.693c0.003,-2.395 -0.02,-4.788 -0.046,-7.182c-0.002,-1.521 -0.003,-3.043 -0.002,-4.564c-0.009,-0.716 -0.018,-1.431 -0.028,-2.169c0.027,-2.923 0.065,-4.94 1.734,-7.398c1.657,-1.023 1.657,-1.023 4.54,-0.988c3.724,1.153 5.316,2.59 7.992,5.402c0.852,0.895 1.704,1.789 2.582,2.711c3.698,4.147 7.144,8.459 10.543,12.852c0.33,0.33 0.66,0.66 1,1c-0.072,-0.883 -0.144,-1.766 -0.219,-2.676c-1.335,-17.259 -1.335,-17.259 -0.781,-22.324c2,-2 2,-2 4.938,-2.312Z" style="fill-rule:nonzero;"/><path d="M551.938,661.5c3.826,0.625 5.222,1.888 8.062,4.5c1.914,2.77 1.914,2.77 3.625,5.812c0.596,1.057 1.191,2.114 1.805,3.203c1.226,2.33 2.332,4.612 3.32,7.047c1.01,2.929 1.01,2.929 2.938,4.5c2.025,2.218 1.312,4.496 1.312,7.438c0.495,1.155 0.99,2.31 1.5,3.5c1.542,3.598 2.014,5.648 1.5,9.5c-1.188,2.375 -1.188,2.375 -3,4c-2.5,0.438 -2.5,0.438 -5,0c-2.69,-2.162 -3.662,-4.244 -4.688,-7.5c-0.251,-0.773 -0.503,-1.547 -0.762,-2.344c-0.551,-2.156 -0.551,-2.156 -0.551,-5.156c-4.62,0.66 -9.24,1.32 -14,2c-1.32,3.63 -2.64,7.26 -4,11c-2.812,0.688 -2.812,0.688 -6,1c-1.71,-1.228 -1.71,-1.228 -3,-3c-0.156,-1.897 -0.156,-1.897 0.168,-4.039c0.179,-1.195 0.179,-1.195 0.361,-2.415c0.803,-4.34 1.741,-8.632 2.784,-12.921c0.334,-1.38 0.334,-1.38 0.676,-2.789c5.462,-22.062 5.462,-22.062 12.949,-23.336Z" style="fill-rule:nonzero;"/><path d="M384,663c-0.573,2.867 -0.861,3.861 -3,6c-2.25,0.622 -4.527,1.151 -6.812,1.625c-1.223,0.26 -2.447,0.521 -3.707,0.789c-3.48,0.586 -3.48,0.586 -8.48,0.586l0,10c1.32,-0.33 2.64,-0.66 4,-1c2.018,-0.141 4.04,-0.22 6.062,-0.25c1.564,-0.039 1.564,-0.039 3.16,-0.078c2.777,0.328 2.777,0.328 4.648,1.719c1.129,1.609 1.129,1.609 1.129,3.609c-1.43,2.861 -3.144,3.637 -6,5c-4.305,1.28 -8.546,1.075 -13,1c0.33,2.97 0.66,5.94 1,9c1.825,-0.247 1.825,-0.247 3.688,-0.5c6.055,-0.665 12.236,-1.014 18.312,-0.5c2,2 2,2 2,4.375c-1.453,3.813 -3.426,4.741 -7,6.625c-6.94,2.352 -14.982,3.624 -21.938,0.812c-3.618,-3.18 -6.224,-6.013 -7.062,-10.812c-0.13,-2.571 -0.212,-5.115 -0.238,-7.688c-0.008,-0.74 -0.016,-1.479 -0.024,-2.241c-0.014,-1.56 -0.025,-3.12 -0.032,-4.68c-0.012,-1.594 -0.032,-3.189 -0.062,-4.783c-0.043,-2.307 -0.059,-4.613 -0.069,-6.921c-0.018,-0.711 -0.035,-1.421 -0.053,-2.153c0.015,-3.417 0.228,-5.209 2.343,-7.949c8.025,-5.956 22.899,-7.236 31.135,-1.585Z" style="fill-rule:nonzero;"/><path d="M430.438,429.563c2.562,0.438 2.562,0.438 4.152,2.629c5.573,11.099 4.028,26.683 4.41,38.809c1.316,-0.031 1.316,-0.031 2.659,-0.063c3.276,-0.068 6.552,-0.118 9.829,-0.156c1.414,-0.02 2.828,-0.047 4.242,-0.082c2.041,-0.049 4.08,-0.071 6.122,-0.089c1.225,-0.021 2.451,-0.042 3.713,-0.063c4.06,0.537 6.229,1.973 9.435,4.454c-0.062,2.812 -0.062,2.812 -1,6c-5.999,3.466 -12.13,3.732 -18.938,4.188c-1.569,0.123 -1.569,0.123 -3.17,0.248c-17.523,1.311 -17.523,1.311 -22.893,-2.436c-3.55,-5.329 -3.423,-10.187 -3.363,-16.359c-0,-0.986 -0.001,-1.971 -0.002,-2.987c0.002,-2.074 0.012,-4.149 0.029,-6.223c0.024,-3.184 0.021,-6.368 0.014,-9.552c0.006,-2.017 0.013,-4.034 0.021,-6.051c-0.001,-0.955 -0.002,-1.91 -0.003,-2.894c0.01,-0.881 0.019,-1.763 0.029,-2.671c0.005,-0.777 0.009,-1.554 0.014,-2.354c0.425,-3.108 1.729,-3.813 4.698,-4.346Z" style="fill-rule:nonzero;"/><path d="M421.062,95.813c2.938,1.188 2.938,1.188 4.523,4.086c1.89,4.826 2.404,9.793 2.977,14.914c0.123,1.033 0.246,2.066 0.373,3.13c1.049,9.148 1.786,18.317 2.419,27.502c0.34,4.915 0.761,9.703 1.646,14.555c0.769,7.788 0.769,7.788 -1.625,11.562c-3.1,1.877 -4.808,2.032 -8.375,1.438c-4.053,-2.815 -4.972,-6.386 -6,-11c-0.476,-2.97 -0.784,-5.943 -1.062,-8.938c-0.082,-0.859 -0.165,-1.718 -0.25,-2.603c-0.89,-9.847 -1.322,-19.71 -1.604,-29.591c-0.055,-1.873 -0.116,-3.746 -0.187,-5.619c-0.091,-2.5 -0.155,-4.998 -0.209,-7.499c-0.03,-0.732 -0.06,-1.465 -0.09,-2.219c-0.038,-3.423 0.17,-5.216 2.231,-8.003c2.172,-1.527 2.172,-1.527 5.234,-1.715Z" style="fill-rule:nonzero;"/><path d="M414,662.125c2,1.875 2,1.875 2.375,5c-0.375,2.875 -0.375,2.875 -1.375,3.875c-2.254,0.283 -4.508,0.448 -6.773,0.621c-2.506,0.271 -2.506,0.271 -5.227,2.379c1.234,0.601 1.234,0.601 2.492,1.215c17.595,8.96 17.595,8.96 21.508,16.785c0.428,4.186 0.447,7.882 -1.125,11.812c-4.455,5.197 -9.959,7.831 -16.711,8.445c-6.396,0.237 -10.323,0.06 -15.164,-4.258c-1,-1 -1,-1 -1.25,-3.375c0.25,-2.625 0.25,-2.625 1.301,-4.281c2.955,-2.037 5.94,-1.621 9.387,-1.469c5.866,0.263 5.866,0.263 11.562,-0.875c-2.388,-5.31 -5.761,-6.747 -10.812,-9c-12.528,-5.681 -12.528,-5.681 -15.188,-11c-0.375,-2.812 -0.375,-2.812 0,-6c2.188,-2.625 2.188,-2.625 5,-5c0.846,-0.722 1.691,-1.444 2.562,-2.188c5.606,-4.168 10.784,-5.183 17.438,-2.688Z" style="fill-rule:nonzero;"/><path d="M410,274c1.65,0.33 3.3,0.66 5,1c1.502,5.396 2.319,10.386 2.414,16c0.019,0.721 0.039,1.442 0.059,2.185c0.059,2.271 0.106,4.543 0.152,6.815c0.038,1.553 0.077,3.107 0.117,4.66c0.095,3.78 0.18,7.56 0.258,11.34c0.645,-0.016 1.291,-0.031 1.956,-0.048c2.931,-0.062 5.862,-0.101 8.794,-0.14c1.016,-0.025 2.032,-0.05 3.078,-0.076c0.98,-0.01 1.959,-0.019 2.969,-0.029c0.901,-0.016 1.801,-0.031 2.729,-0.048c2.927,0.403 4.287,1.406 6.474,3.341c-0.33,2.31 -0.66,4.62 -1,7c-6.008,1.669 -11.777,2.616 -18,3c-1.531,0.099 -1.531,0.099 -3.094,0.199c-8.885,0.319 -8.885,0.319 -12.531,-1.949c-3.128,-2.964 -4.267,-4.839 -4.599,-9.171c0.124,-8.752 0.463,-17.469 1.036,-26.204c0.07,-1.286 0.141,-2.573 0.213,-3.898c0.081,-1.232 0.161,-2.465 0.244,-3.734c0.068,-1.105 0.136,-2.21 0.206,-3.348c0.562,-3.105 1.432,-4.578 3.524,-6.894Z" style="fill-rule:nonzero;"/><path d="M467,665c-0.334,3.093 -0.56,4.589 -2.875,6.75c-3.537,2.08 -6.293,2.365 -10.312,2.312c-0.901,-0.009 -1.802,-0.018 -2.73,-0.027c-0.687,-0.012 -1.374,-0.023 -2.082,-0.035c0.312,2.521 0.624,5.042 0.938,7.562c0.087,0.704 0.174,1.409 0.264,2.135c0.416,3.341 0.854,6.671 1.35,10.002c0.392,2.879 0.644,5.649 0.699,8.551c0.026,0.83 0.052,1.66 0.078,2.516c-0.328,2.234 -0.328,2.234 -1.613,4.051c-1.715,1.184 -1.715,1.184 -5.402,0.871c-1.093,-0.227 -2.186,-0.454 -3.312,-0.688c-3.314,-7.511 -3.127,-14.809 -3.062,-22.875c0.005,-1.07 0.009,-2.14 0.014,-3.242c0.012,-2.628 0.028,-5.255 0.049,-7.883c-1.355,0.035 -1.355,0.035 -2.738,0.07c-1.179,0.018 -2.359,0.036 -3.574,0.055c-1.758,0.035 -1.758,0.035 -3.551,0.07c-3.137,-0.195 -3.137,-0.195 -6.137,-2.195c-0.438,-2.438 -0.438,-2.438 0,-5c8.598,-7.846 34.955,-9.436 44,-3Z" style="fill-rule:nonzero;"/><path d="M612,664c0.562,2.5 0.562,2.5 0,5c-3.527,3.405 -6.909,4.132 -11.688,4.062c-1.212,-0.014 -1.212,-0.014 -2.449,-0.027c-0.922,-0.017 -0.922,-0.017 -1.863,-0.035c0.33,0.66 0.66,1.32 1,2c0.494,3.317 0.753,6.662 1.062,10c0.091,0.909 0.182,1.818 0.275,2.754c0.433,4.576 0.767,9.151 0.908,13.746c0.026,0.794 0.053,1.588 0.08,2.406c-0.326,2.094 -0.326,2.094 -1.65,3.883c-1.676,1.211 -1.676,1.211 -4.739,1.086c-2.938,-0.875 -2.938,-0.875 -4.938,-3.875c-2.156,-10.262 -2.247,-20.565 -2,-31c-0.904,0.035 -1.807,0.07 -2.738,0.105c-1.179,0.027 -2.359,0.054 -3.574,0.082c-1.758,0.052 -1.758,0.052 -3.551,0.105c-3.137,-0.293 -3.137,-0.293 -5.031,-1.645c-1.572,-2.344 -1.529,-3.893 -1.105,-6.648c2.91,-1.94 4.108,-2.362 7.43,-2.852c0.872,-0.129 1.744,-0.259 2.643,-0.392c0.925,-0.126 1.85,-0.252 2.803,-0.381c1.414,-0.195 1.414,-0.195 2.857,-0.393c20.046,-2.617 20.046,-2.617 26.268,2.018Z" style="fill-rule:nonzero;"/><path d="M400,429c4.75,0.75 4.75,0.75 7,3c1.623,5.454 2.418,10.716 2.852,16.375c0.064,0.769 0.128,1.538 0.193,2.33c0.132,1.613 0.262,3.227 0.388,4.84c0.192,2.449 0.394,4.897 0.599,7.346c0.128,1.578 0.256,3.156 0.383,4.734c0.059,0.721 0.119,1.442 0.18,2.185c1.024,13.263 1.024,13.263 -1.594,17.19c-3.375,0.5 -3.375,0.5 -7,0c-3.953,-3.803 -4.647,-7.014 -5.188,-12.375c-0.073,-0.703 -0.147,-1.405 -0.222,-2.129c-0.218,-2.164 -0.408,-4.329 -0.59,-6.496c-0.112,-1.249 -0.224,-2.498 -0.34,-3.785c-0.292,-3.738 -0.498,-7.469 -0.66,-11.215c-0.034,-0.735 -0.068,-1.47 -0.103,-2.228c-0.096,-2.299 -0.158,-4.597 -0.209,-6.897c-0.03,-0.711 -0.06,-1.422 -0.09,-2.154c-0.042,-3.744 0.303,-5.573 2.422,-8.713c0.654,-0.663 1.307,-1.325 1.98,-2.008Z" style="fill-rule:nonzero;"/><path d="M617,666c2.5,-0.375 2.5,-0.375 5,0c5.829,8.744 8.037,29.638 6,40c-1.363,1.758 -1.363,1.758 -3,3c-3.011,-0.075 -4.47,-0.509 -6.688,-2.562c-4.086,-7.589 -3.616,-15.866 -3.562,-24.25c-0.008,-1.227 -0.015,-2.453 -0.023,-3.717c0.003,-1.172 0.005,-2.345 0.008,-3.553c0.002,-1.065 0.005,-2.129 0.007,-3.226c0.259,-2.692 0.259,-2.692 2.259,-5.692Z" style="fill-rule:nonzero;"/><path d="M472,666c2.438,-0.438 2.438,-0.438 5,0c4.04,3.613 3.796,8.687 4.188,13.75c0.079,0.929 0.158,1.857 0.239,2.814c1.298,16.373 1.298,16.373 0.573,24.436c-2,2 -2,2 -4.438,2.375c-2.562,-0.375 -2.562,-0.375 -4.312,-2.188c-2.357,-4.125 -2.484,-7.968 -2.637,-12.594c-0.026,-0.721 -0.051,-1.442 -0.077,-2.185c-0.052,-1.523 -0.101,-3.046 -0.148,-4.569c-0.075,-2.331 -0.165,-4.661 -0.257,-6.992c-0.049,-1.48 -0.096,-2.961 -0.143,-4.441c-0.029,-0.697 -0.058,-1.394 -0.088,-2.112c-0.096,-3.706 -0.021,-5.114 2.1,-8.294Z" style="fill-rule:nonzero;"/></svg>