<?xml version="1.0" encoding="UTF-8" standalone="no"?>
<!DOCTYPE svg PUBLIC "-//W3C//DTD SVG 1.1//EN" "http://www.w3.org/Graphics/SVG/1.1/DTD/svg11.dtd">
<svg width="100%" height="100%" viewBox="0 0 871 893" version="1.1" xmlns="http://www.w3.org/2000/svg" xmlns:xlink="http://www.w3.org/1999/xlink" xml:space="preserve" xmlns:serif="http://www.serif.com/" style="fill-rule:evenodd;clip-rule:evenodd;stroke-linejoin:round;stroke-miterlimit:2;">
    <g id="Artboard1" transform="matrix(0.987528,0,0,0.994432,-67.151927,-61.654788)">
        <rect x="68" y="62" width="882" height="898" style="fill:none;"/>
        <clipPath id="_clip1">
            <rect x="68" y="62" width="882" height="898"/>
        </clipPath>
        <g clip-path="url(#_clip1)">
            <g transform="matrix(1.012629,0,0,1.005599,477.102181,788.105403)">
                <path d="M0,0C3.417,1.068 4.283,1.864 6,4.938C7.26,8.717 7.572,12.477 7.973,16.418C8.06,17.264 8.147,18.109 8.237,18.981C8.422,20.778 8.604,22.577 8.784,24.375C9.057,27.07 9.342,29.765 9.627,32.459C10.469,40.621 11.199,48.781 11.371,56.988C11.4,58.239 11.429,59.49 11.459,60.779C10.915,64.526 9.989,65.689 7,67.938C3.819,68.495 1.049,67.952 -2,66.938C-4.115,64.928 -5.383,63.302 -7,60.938C-8.445,59.135 -9.905,57.344 -11.375,55.562C-12.154,54.61 -12.932,53.657 -13.734,52.676C-16.751,49.03 -19.862,45.478 -23,41.938C-24.313,40.438 -25.626,38.938 -26.938,37.438C-27.524,36.767 -29.563,34.437 -30,33.938C-31.36,35.067 -31.36,35.067 -31.066,38.033C-31.045,39.405 -31.02,40.777 -30.992,42.148C-30.975,43.635 -30.958,45.122 -30.941,46.609C-30.91,48.962 -30.875,51.314 -30.829,53.667C-30.786,55.932 -30.763,58.196 -30.742,60.461C-30.724,61.164 -30.705,61.867 -30.686,62.592C-30.66,67.46 -30.66,67.46 -32.388,69.886C-35.399,71.85 -38.51,71.109 -42,70.938C-42.659,69.757 -43.301,68.568 -43.938,67.375C-44.477,66.383 -44.477,66.383 -45.027,65.371C-48.986,55.466 -47.688,42.46 -48,31.938C-48.035,30.822 -48.071,29.706 -48.107,28.557C-48.201,25.288 -48.262,22.02 -48.312,18.75C-48.342,17.741 -48.372,16.733 -48.403,15.694C-48.438,11.294 -48.421,8.671 -46.195,4.797C-44,2.938 -44,2.938 -40.562,2.375C-33.354,3.513 -29.479,9.628 -25,14.938C-24.117,15.981 -23.234,17.024 -22.352,18.066C-20.924,19.753 -19.497,21.441 -18.073,23.129C-14.431,27.443 -10.742,31.711 -7,35.938C-6.904,30.896 -6.901,25.885 -7.293,20.855C-7.347,20.156 -7.4,19.456 -7.455,18.734C-7.566,17.355 -7.687,15.976 -7.82,14.598C-8.232,9.441 -7.574,5.378 -4.75,1C-3,-0.062 -3,-0.062 0,0Z" style="fill-rule:nonzero;"/>
            </g>
            <g transform="matrix(1.012629,0,0,1.005599,644.185993,786.031355)">
                <path d="M0,0C4.577,3.705 5.376,6.829 6.039,12.629C6.256,15.274 6.45,17.915 6.625,20.562C6.839,23.354 7.068,26.144 7.297,28.934C7.379,29.969 7.379,29.969 7.462,31.025C8.031,37.968 9.07,44.821 10.35,51.666C10.98,55.427 11.239,57.409 9.781,61.016C8,63 8,63 4.625,63.625C0.119,62.848 -1.222,61.572 -4,58C-6.085,53.775 -6.589,49.505 -7.07,44.875C-7.156,44.092 -7.242,43.308 -7.331,42.501C-7.511,40.844 -7.687,39.187 -7.86,37.529C-8.121,35.035 -8.398,32.543 -8.676,30.051C-11.408,4.946 -11.408,4.946 -8.692,1.191C-5.733,-0.892 -3.482,-0.54 0,0Z" style="fill-rule:nonzero;"/>
            </g>
            <g transform="matrix(1.012629,0,0,1.005599,586.351419,785.1436)">
                <path d="M0,0C1.363,1.383 1.363,1.383 3.113,3.883C3.65,3.367 4.186,2.852 4.738,2.32C7.113,0.883 7.113,0.883 10.051,0.82C14.044,2.206 16.247,4.154 18.113,7.883C18.528,10.007 18.528,10.007 18.719,12.375C18.791,13.258 18.862,14.14 18.936,15.05C19.301,20.89 19.514,26.733 19.719,32.58C19.918,37.753 20.256,42.776 21.113,47.883C21.784,47.862 22.454,47.841 23.145,47.819C26.197,47.736 29.248,47.684 32.301,47.633C33.883,47.583 33.883,47.583 35.498,47.531C43.317,47.433 43.317,47.433 47.293,49.68C49.805,52.72 50.044,54.981 50.113,58.883C49.472,61.052 49.472,61.052 48.113,62.883C45.595,63.505 45.595,63.505 42.441,63.676C40.732,63.785 40.732,63.785 38.988,63.896C37.792,63.954 36.596,64.011 35.363,64.07C33.014,64.208 30.665,64.347 28.316,64.488C27.271,64.541 26.226,64.594 25.149,64.649C22.078,64.831 22.078,64.831 18.952,65.474C14.853,66.064 12.666,64.922 9.113,62.883C4.704,57.776 4.463,53.442 4.32,46.996C4.284,46.057 4.248,45.118 4.21,44.151C4.098,41.166 4.011,38.181 3.926,35.195C3.825,32.199 3.719,29.203 3.609,26.207C3.543,24.347 3.482,22.486 3.429,20.625C3.388,19.363 3.388,19.363 3.347,18.075C3.326,17.336 3.304,16.597 3.283,15.836C3.171,13.668 3.171,13.668 2.113,10.883C1.371,11.357 0.628,11.832 -0.137,12.32C-4.991,14.806 -10.541,14.632 -15.887,14.883C-15.509,27.145 -15.113,39.302 -13.289,51.445C-12.153,61.155 -12.153,61.155 -13.949,65.383C-15.887,66.883 -15.887,66.883 -19.324,67.383C-22.887,66.883 -22.887,66.883 -25.199,65.383C-28.902,59.897 -29.246,52.899 -29.738,46.445C-29.834,45.297 -29.834,45.297 -29.931,44.125C-30.131,41.712 -30.322,39.297 -30.512,36.883C-30.647,35.233 -30.782,33.583 -30.918,31.934C-31.248,27.917 -31.57,23.9 -31.887,19.883C-32.839,19.845 -33.792,19.808 -34.773,19.77C-36.028,19.704 -37.282,19.638 -38.574,19.57C-39.816,19.512 -41.057,19.454 -42.336,19.395C-45.993,18.867 -47.848,17.882 -50.887,15.883C-56.602,15.329 -61.803,16.566 -67.324,17.883C-68.151,18.074 -68.978,18.264 -69.83,18.461C-71.851,18.928 -73.869,19.405 -75.887,19.883C-76.217,22.853 -76.547,25.823 -76.887,28.883C-76.102,28.666 -75.317,28.45 -74.508,28.227C-60.751,24.581 -60.751,24.581 -54.449,27.445C-51.887,29.883 -51.887,29.883 -51.262,33.445C-51.887,36.883 -51.887,36.883 -53.614,38.497C-56.031,39.971 -58.146,40.74 -60.871,41.488C-61.806,41.749 -62.74,42.01 -63.703,42.279C-64.671,42.54 -65.639,42.801 -66.637,43.07C-67.62,43.343 -68.604,43.616 -69.617,43.896C-72.038,44.566 -74.461,45.228 -76.887,45.883C-76.288,48.235 -75.617,50.569 -74.887,52.883C-71.568,54.542 -68.459,54.512 -64.887,53.883C-61.754,52.44 -58.793,50.839 -55.816,49.098C-52.317,47.647 -50.497,47.898 -46.887,48.883C-45.012,49.945 -45.012,49.945 -43.887,51.883C-43.355,55.124 -43.084,56.816 -43.887,59.883C-48.167,65.576 -55.973,69.533 -62.887,70.883C-70.334,71.532 -76.76,71.516 -82.887,66.883C-88.514,61.935 -91.304,55.864 -92.172,48.445C-92.296,45.859 -92.329,43.291 -92.32,40.703C-92.326,39.769 -92.331,38.834 -92.336,37.871C-92.343,35.913 -92.341,33.955 -92.333,31.997C-92.324,28.995 -92.353,25.994 -92.385,22.992C-92.386,21.083 -92.386,19.174 -92.383,17.266C-92.394,16.369 -92.405,15.472 -92.417,14.548C-92.348,8.415 -92.348,8.415 -90.143,5.869C-87.833,4.859 -85.766,4.192 -83.289,3.715C-82.41,3.543 -81.531,3.372 -80.625,3.196C-79.701,3.03 -78.777,2.865 -77.824,2.695C-76.408,2.437 -76.408,2.437 -74.963,2.174C-58.595,-0.679 -58.595,-0.679 -53.179,2.444C-49.246,4.163 -47.164,3.964 -42.949,3.336C-41.984,3.2 -41.984,3.2 -41,3.061C-38.959,2.769 -36.924,2.452 -34.887,2.133C-33.52,1.933 -32.153,1.735 -30.785,1.539C-26.063,0.854 -21.348,0.131 -16.643,-0.667C-4.479,-2.652 -4.479,-2.652 0,0Z" style="fill-rule:nonzero;"/>
            </g>
            <g transform="matrix(1.012629,0,0,1.005599,756.58783,774.969765)">
                <path d="M0,0C3,2 3,2 3.793,3.891C5.267,12.705 0.725,18.973 -4,26C-5.003,27.389 -6.01,28.776 -7.02,30.16C-15.304,41.923 -16.397,50.881 -14,65C-13.673,66.668 -13.342,68.335 -13,70C-12.736,74.842 -13.236,78.48 -15,83C-19.338,84.009 -22.134,84.403 -26,82C-28.681,77.537 -29.559,73.645 -30.125,68.5C-30.208,67.804 -30.291,67.107 -30.376,66.39C-30.897,61.815 -31.071,57.292 -31.188,52.688C-31.826,42.841 -37.602,36.044 -44.227,29.145C-46.838,25.987 -48.886,22.503 -51,19C-54.688,19.478 -58.375,19.958 -62.062,20.438C-63.101,20.572 -64.139,20.707 -65.209,20.846C-70.478,21.531 -75.743,22.232 -81,23C-80.34,25.64 -79.68,28.28 -79,31C-78.31,30.856 -77.621,30.711 -76.91,30.562C-61.659,27.55 -61.659,27.55 -55.562,30.875C-53,33 -53,33 -51,35C-51.193,38.031 -51.365,40.208 -53.297,42.618C-55.246,44.2 -56.613,44.643 -59.055,45.168C-59.835,45.339 -60.614,45.51 -61.418,45.686C-62.229,45.851 -63.04,46.017 -63.875,46.188C-64.678,46.365 -65.481,46.542 -66.309,46.725C-70.26,47.568 -73.935,48.239 -78,48C-77.856,49.097 -77.711,50.194 -77.562,51.324C-77.375,52.779 -77.187,54.233 -77,55.688C-76.905,56.409 -76.809,57.13 -76.711,57.873C-75.333,68.652 -75.333,68.652 -79,74C-86.513,73.507 -86.513,73.507 -88.531,71.406C-90.443,68.274 -90.916,65.502 -91.551,61.887C-91.674,61.188 -91.797,60.489 -91.924,59.769C-93.204,52.253 -94.106,44.692 -94.935,37.114C-95.192,34.775 -95.457,32.437 -95.725,30.1C-95.894,28.594 -96.062,27.088 -96.23,25.582C-96.309,24.892 -96.387,24.203 -96.467,23.492C-97.282,15.986 -97.282,15.986 -97,13C-90.099,5.675 -80.03,5.16 -70.422,4.75C-68.927,4.719 -67.432,4.698 -65.938,4.688C-65.248,4.682 -64.559,4.676 -63.848,4.671C-59.262,4.736 -55.38,5.736 -51,7C-50.134,6.649 -49.267,6.299 -48.375,5.938C-46,5 -46,5 -43.5,6.062C-38.415,10.003 -34.527,14.711 -30.688,19.812C-30.233,20.41 -29.779,21.007 -29.311,21.623C-28.204,23.079 -27.101,24.539 -26,26C-23.204,23.325 -20.885,20.62 -18.688,17.438C-18.089,16.571 -17.491,15.705 -16.875,14.812C-14.321,10.981 -11.887,7.078 -9.48,3.152C-6.891,-0.612 -4.345,-0.266 0,0Z" style="fill-rule:nonzero;"/>
            </g>
            <g transform="matrix(1.012629,0,0,1.005599,270.525832,755.863382)">
                <path d="M0,0C2.061,2.124 3.703,4.334 5.387,6.766C7.519,9.719 10.181,11.709 13,14C14.042,15.147 15.061,16.317 16.062,17.5C22.83,25.403 30.204,32.924 38.375,39.375C45.274,44.829 51.32,51.145 57.457,57.425C58.221,58.205 58.221,58.205 59,59C59.505,59.516 60.011,60.032 60.531,60.563C61.855,61.858 63.267,63.061 64.688,64.25C67,67 67,67 67.5,70.438C66.58,76.994 63.092,81.4 58.812,86.25C57.823,87.394 56.835,88.538 55.848,89.684C55.363,90.244 54.879,90.805 54.379,91.382C52.447,93.649 50.596,95.975 48.75,98.312C39.684,109.705 39.684,109.705 34.5,114C30.529,117.295 27.312,121.056 24,125C22.728,126.493 22.728,126.493 21.43,128.016C20.495,129.114 19.56,130.213 18.625,131.312C17.919,132.14 17.919,132.14 17.199,132.984C14.902,135.692 12.655,138.42 10.504,141.246C9.739,142.237 8.975,143.229 8.188,144.25C7.188,145.588 7.188,145.588 6.168,146.953C3.449,149.52 1.688,149.785 -2,150C-7.685,149.173 -10.262,147.081 -14.004,143.047C-17.107,139.865 -20.582,137.176 -24.039,134.391C-27.075,131.939 -30.071,129.444 -33.062,126.938C-36.6,123.976 -40.169,121.079 -43.812,118.25C-50.188,113.176 -56.037,107.536 -61.949,101.938C-64.086,99.919 -66.231,97.91 -68.379,95.902C-69.099,95.23 -69.818,94.557 -70.56,93.864C-71.947,92.567 -73.334,91.271 -74.721,89.974C-75.954,88.819 -77.184,87.661 -78.411,86.5C-79.752,85.234 -81.111,83.986 -82.473,82.742C-83.229,81.88 -83.229,81.88 -84,81C-83.75,78.25 -83.75,78.25 -83,76L-81,76C-81.276,74.975 -81.552,73.95 -81.836,72.895C-82,69 -82,69 -79.789,65.824C-78.754,64.759 -77.699,63.714 -76.625,62.688C-75.595,61.651 -74.566,60.613 -73.539,59.574C-72.975,59.014 -72.41,58.453 -71.829,57.876C-69.803,55.798 -67.889,53.641 -65.969,51.465C-59.885,44.657 -53.364,38.293 -46.875,31.875C-36.78,21.996 -36.78,21.996 -27.306,11.531C-25.335,9.22 -23.175,7.117 -21,5C-20.103,3.948 -20.103,3.948 -19.188,2.875C-13.547,-1.959 -6.777,-3.535 0,0ZM-12.305,13.012C-13.153,13.895 -14.001,14.778 -14.875,15.688C-16.14,16.993 -16.14,16.993 -17.43,18.324C-18.278,19.207 -19.126,20.09 -20,21C-21.294,22.284 -21.294,22.284 -22.613,23.594C-24.611,25.608 -26.485,27.646 -28.312,29.812C-28.824,30.417 -29.336,31.022 -29.863,31.645C-30.238,32.092 -30.614,32.539 -31,33C-25.051,35.691 -19.572,38.153 -13.07,36.23C-8.75,33.662 -6.46,29.251 -4,25C-3.161,23.664 -3.161,23.664 -2.305,22.301C-0.836,20.151 -0.836,20.151 -1,18C-2.486,15.029 -4.494,13.148 -7,11C-10.133,10.671 -10.133,10.671 -12.305,13.012ZM5,25C-1.498,33.042 -1.498,33.042 -3,43C2.862,46.148 8.581,48.264 15,50C16.055,47.915 16.055,47.915 17,45C17.233,44.345 17.467,43.69 17.707,43.016C18.36,40.365 18.542,38.696 18,36C14.553,31.372 10.562,26.854 5,25ZM-41.699,42.406C-42.703,43.43 -43.699,44.462 -44.688,45.5C-45.454,46.287 -45.454,46.287 -46.236,47.09C-47.498,48.387 -48.75,49.692 -50,51C-48.721,53.657 -47.333,56.12 -45.688,58.566C-45.252,59.217 -44.816,59.867 -44.367,60.537C-43.916,61.205 -43.465,61.874 -43,62.562C-42.549,63.235 -42.098,63.907 -41.633,64.6C-40.794,65.849 -39.954,67.098 -39.113,68.346C-38.071,69.894 -37.035,71.447 -36,73L-34,73C-32.676,71.192 -32.676,71.192 -31.375,68.812C-29.579,65.688 -27.762,62.6 -25.793,59.582C-25.423,59.008 -25.053,58.434 -24.672,57.843C-23.601,56.185 -22.522,54.534 -21.441,52.883C-19.882,50.209 -19.882,50.209 -19.816,47.82C-21.804,44.763 -25.083,43.949 -28.375,42.75C-29.061,42.482 -29.747,42.214 -30.453,41.938C-36.448,39.425 -36.448,39.425 -41.699,42.406ZM26,46C26.33,47.32 26.66,48.64 27,50C27.66,49.34 28.32,48.68 29,48C28.67,47.34 28.34,46.68 28,46L26,46ZM-10.188,51.898C-13.829,54.619 -15.636,57.567 -17.812,61.5C-18.206,62.177 -18.6,62.854 -19.006,63.551C-20.603,66.329 -21.984,68.953 -23,72C-19.116,71.375 -15.925,70.196 -12.367,68.531C-11.314,68.043 -10.261,67.554 -9.176,67.051C-8.087,66.539 -6.997,66.027 -5.875,65.5C-3.706,64.488 -1.537,63.478 0.633,62.469C1.591,62.02 2.549,61.57 3.536,61.107C6,60 6,60 9,59C8.67,58.01 8.34,57.02 8,56C5.583,54.862 3.33,53.965 0.812,53.125C0.152,52.875 -0.509,52.625 -1.189,52.367C-4.6,51.209 -6.704,50.917 -10.188,51.898ZM33,58C35.64,58.66 38.28,59.32 41,60L41,58L39,58L39,56C35.815,55.723 35.815,55.723 33,58ZM-61.037,62.764C-61.54,63.275 -62.044,63.786 -62.562,64.312C-63.07,64.812 -63.577,65.312 -64.1,65.826C-66.457,68.196 -67.929,69.786 -69,73C-66.481,73.508 -63.96,74.007 -61.438,74.5C-60.733,74.643 -60.029,74.786 -59.303,74.934C-54.781,75.809 -50.605,76.145 -46,76C-47.308,71.591 -49.024,67.997 -51.5,64.125C-52.108,63.158 -52.717,62.191 -53.344,61.195C-53.89,60.471 -54.437,59.746 -55,59C-57.951,59 -59.044,60.781 -61.037,62.764ZM24,63C22.48,68.049 21.323,73.066 20.375,78.25C20.241,78.956 20.107,79.663 19.969,80.391C19.427,83.307 19,86.027 19,89C24.728,91.44 30.678,93.84 37,93C39.95,91.146 41.849,88.707 44,86C44.666,85.304 45.333,84.608 46.02,83.891C48.72,81.11 48.72,81.11 51,78C51.037,75.977 51.037,75.977 50,74C47.553,72.422 47.553,72.422 44.469,71.203C43.349,70.72 42.228,70.236 41.074,69.738C39.305,69.002 39.305,69.002 37.5,68.25C35.731,67.49 35.731,67.49 33.926,66.715C29.12,64.24 29.12,64.24 24,63ZM5.156,68.211C4.472,68.539 3.788,68.867 3.083,69.205C1.633,69.902 0.184,70.6 -1.265,71.299C-3.488,72.369 -5.715,73.431 -7.941,74.492C-9.347,75.169 -10.752,75.846 -12.156,76.523C-12.826,76.841 -13.496,77.159 -14.186,77.486C-17.728,79.042 -17.728,79.042 -20,82C-16.668,82.82 -13.334,83.629 -10,84.438C-9.065,84.668 -8.131,84.898 -7.168,85.135C-1.779,86.435 3.485,87.434 9,88C12.123,80.126 13.169,73.452 13,65C10.425,65 7.489,67.09 5.156,68.211ZM-64,83C-61.343,86.739 -59.419,88.65 -55,90C-53.35,88.35 -51.7,86.7 -50,85C-56.912,83.271 -56.912,83.271 -64,83ZM-24,90C-20.842,96.605 -16.601,102.66 -12.492,108.703C-7.811,115.598 -3.415,122.362 0,130L2,130C3.98,119.44 5.96,108.88 8,98C5.193,96.129 3.591,95.503 0.395,94.746C-0.507,94.531 -1.409,94.317 -2.338,94.096C-3.278,93.878 -4.219,93.661 -5.188,93.438C-6.569,93.106 -6.569,93.106 -7.979,92.768C-13.312,91.515 -18.55,90.57 -24,90ZM-35,93C-35.869,94.575 -36.72,96.161 -37.562,97.75C-38.038,98.632 -38.514,99.513 -39.004,100.422C-40.139,102.86 -40.139,102.86 -39.934,105.059C-38.616,107.8 -36.791,109.322 -34.5,111.312C-33.593,112.103 -32.685,112.893 -31.75,113.707C-28.667,116.278 -25.512,118.731 -22.316,121.16C-18.03,124.565 -14.026,128.294 -10,132C-10,119.646 -25.205,102.097 -33,93L-35,93ZM-48,95C-48.33,95.66 -48.66,96.32 -49,97C-48.01,96.67 -47.02,96.34 -46,96C-46.66,95.67 -47.32,95.34 -48,95ZM16,99C15.01,104.94 14.02,110.88 13,117C18.243,112.631 23.519,108.167 28,103L28,101C26.762,100.67 23.206,99.722 22.141,99.438C19.711,98.867 19.711,98.867 16,99Z" style="fill-rule:nonzero;"/>
            </g>
            <g transform="matrix(1.012629,0,0,1.005599,175.338691,694.521837)">
                <path d="M0,0C4.543,0.605 8.139,2.498 12.125,4.625C47.934,23.005 89.17,28.373 128,17C134.465,14.878 140.796,12.376 147.047,9.691C148.354,9.133 148.354,9.133 149.688,8.562C150.776,8.069 150.776,8.069 151.887,7.566C154.566,6.848 156.359,7.24 159,8C160,9 160,9 160.312,11.812C159.913,15.883 159.122,16.406 156,19C153.096,20.795 150.097,22.375 147.062,23.938C146.206,24.38 145.35,24.822 144.468,25.278C112.432,41.603 79.097,43.79 45,33C43.969,32.675 43.969,32.675 42.917,32.344C27.061,27.216 11.143,18.535 -1,7C-1.969,4.898 -1.969,4.898 -2,3C-1.34,2.01 -0.68,1.02 0,0Z" style="fill-rule:nonzero;"/>
            </g>
            <g transform="matrix(1.012629,0,0,1.005599,351.536165,690.49944)">
                <path d="M0,0C2,2 2,2 2.375,5.75C2.12,16.271 -1.466,27.466 -9,35C-11.5,35.312 -11.5,35.312 -14,35C-16.623,31.066 -15.874,29.566 -15,25C-14.5,22.517 -13.98,20.037 -13.438,17.562C-13.168,16.326 -12.899,15.09 -12.621,13.816C-12.416,12.887 -12.211,11.958 -12,11C-12.59,11.021 -13.18,11.042 -13.788,11.063C-16.463,11.147 -19.137,11.199 -21.812,11.25C-22.741,11.284 -23.67,11.317 -24.627,11.352C-25.966,11.371 -25.966,11.371 -27.332,11.391C-28.154,11.412 -28.976,11.433 -29.823,11.454C-32,11 -32,11 -33.796,9.104C-35,7 -35,7 -34.938,4.938C-33.684,2.347 -32.456,1.523 -30,0C-19.759,-2.867 -9.757,-5.074 0,0Z" style="fill-rule:nonzero;"/>
            </g>
            <g transform="matrix(1.012629,0,0,1.005599,548.998852,629.157895)">
                <path d="M0,0C3.735,4.772 3.137,8.38 2.538,14.139C1.615,20.76 0.405,27.312 -0.901,33.867C-1.377,36.259 -1.838,38.652 -2.297,41.047C-6.222,61.222 -6.222,61.222 -10,65C-14.296,65.687 -17.253,65.248 -20.875,62.938C-26.856,58.094 -30.517,50.741 -34,44L-34,42L-36,42C-36.248,43.237 -36.495,44.475 -36.75,45.75C-37.63,49.66 -38.682,53.486 -39.875,57.312C-40.182,58.299 -40.489,59.285 -40.805,60.301C-42.123,63.277 -43.494,64.941 -46,67C-49.358,67.181 -51.726,65.783 -54.438,63.938C-60.007,58.864 -61.806,50.983 -64,44C-64.224,43.288 -64.449,42.576 -64.68,41.842C-65.993,37.613 -67.226,33.365 -68.412,29.099C-69.004,26.985 -69.618,24.877 -70.234,22.77C-70.616,21.43 -70.996,20.09 -71.375,18.75C-71.713,17.569 -72.05,16.388 -72.398,15.172C-73.003,11.986 -73.007,10.061 -72,7C-69.877,5.408 -68.151,5.031 -65.562,4.5C-62.404,5.116 -61.091,6.438 -59.188,8.984C-54.581,16.803 -52.58,26.369 -50,35C-49.636,33.88 -49.273,32.76 -48.898,31.605C-48.392,30.132 -47.884,28.66 -47.375,27.188C-47.139,26.45 -46.903,25.712 -46.66,24.951C-45.274,21.024 -44.533,19.362 -40.984,16.953C-37.151,15.729 -35.568,16.216 -32,18C-27.786,21.455 -25.727,25.917 -23.312,30.688C-22.518,32.234 -21.723,33.779 -20.926,35.324C-20.579,36.006 -20.233,36.687 -19.876,37.389C-19.103,38.991 -19.103,38.991 -18,40C-17.839,39.103 -17.678,38.206 -17.513,37.281C-16.904,33.917 -16.284,30.556 -15.656,27.195C-15.388,25.747 -15.124,24.298 -14.865,22.848C-12.129,7.58 -12.129,7.58 -8,1C-5.139,-0.431 -3.16,-0.387 0,0Z" style="fill-rule:nonzero;"/>
            </g>
            <g transform="matrix(1.012629,0,0,1.005599,300.904707,626.141097)">
                <path d="M0,0C2.157,3.236 2.184,4.132 1.525,7.805C0.378,12.599 -1.204,17.26 -2.75,21.938C-5.735,30.951 -5.735,30.951 -8.43,40.055C-8.636,40.786 -8.843,41.517 -9.056,42.27C-9.586,44.172 -10.095,46.08 -10.602,47.988C-12.392,51.844 -14.229,53.115 -18,55C-21.404,55.38 -24.009,54.653 -27,53C-29.174,50.275 -30.027,47.318 -31,44C-31.37,42.777 -31.74,41.553 -32.121,40.293C-33.133,36.876 -34.079,33.443 -35,30C-37.48,36.201 -39.221,42.445 -40.84,48.926C-42.097,52.257 -42.86,53.395 -46,55C-52.83,55 -52.83,55 -56.457,51.9C-59.249,48.716 -60.536,45.754 -61.789,41.793C-62.019,41.109 -62.249,40.425 -62.486,39.72C-63.213,37.547 -63.919,35.368 -64.625,33.188C-65.105,31.736 -65.587,30.285 -66.07,28.834C-66.768,26.739 -67.464,24.644 -68.153,22.546C-69.301,19.055 -70.495,15.596 -71.816,12.168C-72.944,9.15 -73.467,7.178 -73,4C-70.458,1.458 -68.645,1.687 -65.168,1.539C-61.776,2.26 -60.4,3.463 -58,6C-56.415,9.319 -55.299,12.748 -54.188,16.25C-53.876,17.186 -53.565,18.122 -53.244,19.086C-52.481,21.386 -51.734,23.69 -51,26C-48.284,21.926 -47.259,17.471 -45.943,12.805C-43.867,5.794 -43.867,5.794 -41,4C-38.66,3.531 -38.66,3.531 -36.062,3.5C-35.208,3.469 -34.353,3.438 -33.473,3.406C-29.82,4.283 -28.989,5.836 -27,9C-25.595,12.05 -24.409,15.162 -23.25,18.312C-22.934,19.148 -22.618,19.984 -22.293,20.846C-21.52,22.894 -20.756,24.945 -20,27C-19.733,26.253 -19.465,25.506 -19.19,24.737C-17.982,21.366 -16.772,17.995 -15.562,14.625C-15.142,13.449 -14.721,12.274 -14.287,11.062C-13.884,9.941 -13.481,8.82 -13.066,7.664C-12.695,6.627 -12.323,5.59 -11.94,4.522C-11,2 -11,2 -10,0C-6.239,-1.254 -3.846,-0.839 0,0Z" style="fill-rule:nonzero;"/>
            </g>
            <g transform="matrix(1.012629,0,0,1.005599,450.647245,627.020997)">
                <path d="M0,0C4.934,1.776 7.75,5.642 10.261,10.176C11.277,12.346 12.215,14.534 13.125,16.75C13.805,18.349 14.486,19.948 15.168,21.547C15.497,22.326 15.826,23.105 16.166,23.908C17.022,25.886 17.92,27.828 18.863,29.766C21.839,35.879 23.942,41.628 25.398,48.27C26.139,51.179 27.169,53.755 28.375,56.5C30.025,60.446 30.616,62.951 29.125,67.125C27.562,69.5 27.562,69.5 26.125,71.125C19.738,70.756 19.738,70.756 17.094,68.031C14.891,64.779 13.338,61.437 11.875,57.812C11.607,57.167 11.339,56.522 11.062,55.857C10.409,54.283 9.766,52.704 9.125,51.125C2.773,51.674 -3.554,52.29 -9.875,53.125C-10.057,53.693 -10.239,54.262 -10.426,54.848C-14.687,67.937 -14.687,67.937 -17.875,71.125C-24.074,70.9 -24.074,70.9 -26.75,68.312C-28.465,64.977 -29.105,63.11 -28.23,59.367C-27.845,58.256 -27.46,57.145 -27.062,56C-26.844,55.367 -26.625,54.735 -26.4,54.083C-22.873,44.059 -18.95,34.174 -15.09,24.274C-13.972,21.376 -12.885,18.47 -11.812,15.555C-11.503,14.724 -11.193,13.894 -10.875,13.038C-10.309,11.518 -9.753,9.995 -9.208,8.468C-7.311,3.427 -5.666,0.246 0,0ZM-0.875,27.125C-1.535,29.765 -2.195,32.405 -2.875,35.125L4.125,35.125C3.135,32.485 2.145,29.845 1.125,27.125L-0.875,27.125Z" style="fill-rule:nonzero;"/>
            </g>
            <g transform="matrix(1.012629,0,0,1.005599,590.26349,627.900896)">
                <path d="M0,0C4.779,3.309 4.779,3.309 6.25,6.25C6.499,9.362 6.655,11.441 5.25,14.25C-0.199,15.525 -0.199,15.525 -2.75,14.25C-7.959,13.849 -11.327,14.407 -15.75,17.25C-16.08,18.24 -16.41,19.23 -16.75,20.25C-16.193,20.42 -15.636,20.59 -15.062,20.766C-4.856,24.007 5.113,28.314 10.75,38C12.905,42.946 13.038,47.961 12.25,53.25C10.688,56.562 10.688,56.562 8.25,59.25C7.776,59.773 7.301,60.297 6.812,60.836C2.066,65.514 -3.173,67.493 -9.75,68.25C-18.786,68.083 -27.291,65.403 -34.75,60.25C-36.847,57.216 -36.759,56.337 -36.375,52.5C-36.066,50.891 -36.066,50.891 -35.75,49.25C-33.041,47.963 -30.88,46.947 -27.887,47.75C-26.553,48.306 -25.221,48.868 -23.891,49.434C-18.89,51.341 -13.88,51.986 -8.812,50.062C-5.813,48.287 -4.764,47.517 -3.75,44.25C-7.164,40.287 -10.984,38.43 -15.625,36.25C-28.49,30.14 -28.49,30.14 -31.625,25.438C-33.45,20.267 -33.401,16.208 -31.25,11.188C-27.769,4.906 -22.397,1.571 -15.688,-0.625C-10.021,-2.072 -5.325,-2.813 0,0Z" style="fill-rule:nonzero;"/>
            </g>
            <g transform="matrix(1.012629,0,0,1.005599,214.324914,627.335246)">
                <path d="M0,0C4.739,3.436 10.577,8.252 12.094,14.105C12.524,16.97 12.676,19.733 12.746,22.629C12.779,23.723 12.812,24.816 12.846,25.943C12.907,28.235 12.964,30.527 13.018,32.818C13.052,33.911 13.086,35.003 13.121,36.129C13.146,37.123 13.171,38.118 13.197,39.143C13.505,41.857 14.21,43.443 15.5,45.812C15.875,48.875 15.875,48.875 15.5,51.812C12.926,54.577 10.256,55.625 6.5,55.812C5.152,54.832 3.818,53.833 2.5,52.812C-0.626,53.278 -3.224,54.6 -6.062,55.938C-12.894,58.708 -19.451,58.033 -26.375,55.75C-31.125,52.805 -33.399,49.082 -35.168,43.828C-36.129,39.071 -35.144,35.294 -33,30.992C-29.628,26.092 -24.827,23.027 -19.625,20.312C-14.515,19.495 -8.212,19.456 -3.5,21.812C-4.377,17.068 -4.377,17.068 -7.188,13.375C-13.074,11.943 -17.816,13.159 -23.5,14.812C-28.709,15.313 -28.709,15.313 -31.375,13.625C-32.982,11.035 -33.143,9.811 -32.5,6.812C-24.688,-1.822 -10.731,-3.641 0,0ZM-17.5,35.812C-18.16,36.472 -18.82,37.133 -19.5,37.812C-19.178,40.912 -19.178,40.912 -18.5,43.812C-14.855,44.767 -12.943,44.981 -9.375,43.625C-6.66,41.913 -4.635,40.194 -2.5,37.812C-2.83,36.822 -3.16,35.833 -3.5,34.812C-9.378,32.226 -12.142,32.871 -17.5,35.812Z" style="fill-rule:nonzero;"/>
            </g>
            <g transform="matrix(1.012629,0,0,1.005599,335.840413,625.198348)">
                <path d="M0,0C3.538,1.964 4.376,2.689 6.25,6.438C6.505,10.005 6.195,11.829 4.5,14.938C-2.125,15.188 -2.125,15.188 -5.5,12.938C-7.728,12.874 -7.728,12.874 -10.062,13.25C-11.24,13.399 -11.24,13.399 -12.441,13.551C-14.554,13.85 -14.554,13.85 -16.5,14.938C-16.17,15.928 -15.84,16.918 -15.5,17.938C-12.084,19.402 -8.697,20.574 -5.145,21.652C0.75,23.479 4.694,25.322 8.312,30.562C10.315,36.255 10.315,41.537 8.375,47.25C3.612,54.076 -2.133,56.696 -10,58.516C-17.905,59.756 -24.501,57.689 -31.5,53.938C-33.953,50.258 -33.895,48.283 -33.5,43.938C-30.045,41.634 -29.383,41.802 -25.438,42.312C-21.641,42.725 -17.882,43.085 -14.062,43.188C-12.889,43.226 -12.889,43.226 -11.691,43.266C-8.949,42.855 -7.571,41.73 -5.5,39.938C-5.83,38.947 -6.16,37.958 -6.5,36.938C-8.907,35.991 -11.211,35.211 -13.688,34.5C-21.125,32.345 -27.174,29.51 -31.586,22.863C-33.691,18.428 -32.996,14.396 -31.438,9.812C-24.116,-1.052 -12.161,-5.317 0,0Z" style="fill-rule:nonzero;"/>
            </g>
            <g transform="matrix(1.012629,0,0,1.005599,658.426091,486.237122)">
                <path d="M0,0C3.628,1.389 4.887,2.859 6.938,6.125C8.239,9.945 8.259,13.956 8.473,17.953C8.516,18.702 8.559,19.451 8.603,20.223C8.739,22.607 8.869,24.991 9,27.375C9.091,28.995 9.183,30.615 9.275,32.234C9.5,36.198 9.72,40.161 9.938,44.125C11.741,43.91 11.741,43.91 13.581,43.69C16.558,43.335 19.537,42.988 22.516,42.648C25.036,42.358 27.537,42.036 30.047,41.664C35.641,40.882 39.118,40.978 43.938,44.125C45.831,47.38 47.058,49.637 46.75,53.438C45.938,55.125 45.938,55.125 43.938,57.125C41.267,57.612 41.267,57.612 37.898,57.941C36.678,58.066 35.457,58.19 34.199,58.318C32.917,58.44 31.634,58.562 30.312,58.688C27.799,58.938 25.286,59.19 22.773,59.441C21.585,59.556 20.396,59.671 19.172,59.79C16.546,60.062 13.947,60.395 11.336,60.777C6.575,61.264 3.085,60.501 -1.062,58.125C-7.651,51.265 -6.319,39.295 -6.672,30.43C-6.857,25.989 -7.087,21.576 -7.523,17.152C-7.592,16.386 -7.661,15.619 -7.732,14.83C-7.866,13.399 -8.019,11.969 -8.197,10.543C-8.536,6.655 -8.195,5.296 -5.762,2.164C-3.062,0.125 -3.062,0.125 0,0Z" style="fill-rule:nonzero;"/>
            </g>
            <g transform="matrix(1.012629,0,0,1.005599,642.160735,485.357223)">
                <path d="M0,0L0,2C1.32,2.66 2.64,3.32 4,4C3.938,6.812 3.938,6.812 3,10C-1.884,12.517 -6.854,13.846 -12.188,15.062C-18.308,16.429 -18.308,16.429 -24,19L-24,24C-22.907,23.67 -21.814,23.34 -20.688,23C-14.373,21.45 -7.734,20.524 -1.875,23.688C0.243,26.299 1.084,27.624 1,31C-2.167,35.252 -6.044,36.124 -11,37.188C-11.712,37.352 -12.423,37.516 -13.156,37.686C-15.102,38.134 -17.051,38.568 -19,39C-20.335,39.327 -21.669,39.657 -23,40C-22.34,41.65 -21.68,43.3 -21,45C-13.957,45.423 -8.836,45.415 -2.676,41.844C-1,41 -1,41 1.75,40.938C4.897,42.424 6.214,44.023 8,47C8.571,50.499 8.56,52.172 6.562,55.125C-1.502,61.026 -9.907,62.406 -19.75,61.75C-26.927,60.094 -30.727,57.826 -35,52C-35.447,52.398 -35.895,52.797 -36.355,53.207C-36.96,53.737 -37.565,54.267 -38.188,54.812C-38.779,55.335 -39.371,55.857 -39.98,56.395C-46.692,61.73 -52.821,61.862 -61.072,61.241C-68.351,60.331 -72.897,56.512 -77.5,51.062C-83.283,43.585 -83.819,36.184 -83,27C-81.273,18.282 -76.772,11.694 -70,6C-64.38,2.771 -59.208,2.422 -53,4C-49.624,6.251 -49.099,7.598 -48.125,11.562C-48,15 -48,15 -50,18C-52.277,18.477 -52.277,18.477 -54.938,18.625C-57.93,18.81 -60.131,19.044 -63,20C-64.142,21.782 -64.142,21.782 -65,24C-65.342,24.758 -65.683,25.516 -66.035,26.297C-67.646,30.811 -67.596,35.273 -67,40C-65.199,43.002 -64.097,44.452 -61,46C-55.366,46.395 -51.39,45.613 -46.121,43.668C-43.365,42.8 -40.866,42.78 -38,43C-38.241,41.703 -38.241,41.703 -38.487,40.379C-39.314,34.93 -39.226,29.502 -39.25,24C-39.271,22.837 -39.291,21.675 -39.312,20.477C-39.364,9.296 -39.364,9.296 -36,5C-31.572,2.072 -26.962,1.158 -21.812,0.312C-21.068,0.186 -20.323,0.059 -19.556,-0.071C-4.857,-2.428 -4.857,-2.428 0,0Z" style="fill-rule:nonzero;"/>
            </g>
            <g transform="matrix(1.012629,0,0,1.005599,546.150832,489.505319)">
                <path d="M0,0C4.124,3.748 6.266,8.362 7.438,13.75C5.963,21.121 0.735,27.374 -4.188,32.875C-3.307,33.406 -2.427,33.937 -1.52,34.484C-0.346,35.198 0.827,35.911 2,36.625C2.578,36.973 3.156,37.321 3.752,37.68C14.266,44.095 14.266,44.095 15.812,48.875C16.139,52.075 16.325,54.038 14.625,56.812C12.812,57.875 12.812,57.875 10.581,57.637C7.317,56.739 4.677,55.376 1.707,53.75C0.559,53.126 -0.589,52.502 -1.771,51.859C-2.973,51.198 -4.174,50.537 -5.375,49.875C-6.588,49.213 -7.8,48.551 -9.014,47.891C-11.228,46.683 -13.442,45.472 -15.653,44.258C-17.152,43.44 -18.66,42.639 -20.188,41.875C-19.692,43.608 -19.692,43.608 -19.188,45.375C-18.12,49.729 -17.732,53.397 -18.188,57.875C-19.688,60 -19.688,60 -22.188,60.875C-25.141,60.774 -27.635,60.39 -30.188,58.875C-33.58,53.858 -33.924,48.746 -34.375,42.875C-34.455,41.925 -34.536,40.976 -34.619,39.998C-35.417,29.63 -35.385,19.266 -35.188,8.875C-35.632,9.215 -36.076,9.555 -36.533,9.905C-42.377,14.001 -47.678,14.965 -54.688,15.688C-55.701,15.808 -56.714,15.929 -57.758,16.053C-60.233,16.345 -62.709,16.618 -65.188,16.875L-65.188,22.875C-63.733,22.628 -63.733,22.628 -62.25,22.375C-60.897,22.2 -59.543,22.034 -58.188,21.875C-57.442,21.772 -56.697,21.669 -55.93,21.562C-52.428,21.278 -50.15,21.17 -47.246,23.297C-45.565,25.122 -44.24,26.624 -43.188,28.875C-43.508,31.862 -44.022,32.71 -46.188,34.875C-48.035,35.561 -48.035,35.561 -50.25,36.164C-51.047,36.383 -51.843,36.602 -52.664,36.828C-53.497,37.05 -54.33,37.272 -55.188,37.5C-56.437,37.844 -56.437,37.844 -57.711,38.195C-63.89,39.875 -63.89,39.875 -66.188,39.875C-65.692,42.845 -65.692,42.845 -65.188,45.875C-59.983,46.207 -56.219,45.352 -51.32,43.625C-48.518,42.64 -46.174,41.941 -43.188,41.875C-39.696,43.588 -37.699,44.702 -36.125,48.312C-36.213,51.922 -36.779,53.122 -39.188,55.875C-44.735,59.902 -50.704,61.434 -57.375,62.375C-58.04,62.476 -58.705,62.578 -59.389,62.682C-66.016,63.437 -70.053,61.353 -75.438,57.625C-80.511,52.552 -82.068,46.466 -82.301,39.462C-82.296,38.189 -82.291,36.917 -82.285,35.605C-82.284,34.924 -82.282,34.243 -82.281,33.542C-82.275,31.382 -82.263,29.222 -82.25,27.062C-82.245,25.592 -82.24,24.121 -82.236,22.65C-82.225,19.059 -82.208,15.467 -82.188,11.875C-87.214,24.835 -91.488,37.758 -94.664,51.304C-97.136,61.282 -97.136,61.282 -102.188,64.875C-106.805,65.072 -109.309,63.31 -112.736,60.352C-115.097,57.949 -116.368,55.278 -117.812,52.25C-118.131,51.584 -118.449,50.918 -118.778,50.232C-119.934,47.788 -121.06,45.332 -122.188,42.875C-122.687,41.806 -123.187,40.736 -123.702,39.634C-125.36,36.076 -126.996,32.509 -128.625,28.938C-129.158,27.789 -129.69,26.64 -130.239,25.457C-133.068,19.152 -135.075,13.823 -135.188,6.875C-133.75,4.312 -133.75,4.312 -132.188,2.875C-125.275,2.875 -125.275,2.875 -122.637,5.301C-118.372,11.104 -115.561,17.24 -112.812,23.875C-112.363,24.936 -111.913,25.997 -111.449,27.09C-110.352,29.681 -109.265,32.276 -108.188,34.875L-107.188,34.875C-106.796,33.699 -106.404,32.524 -106,31.312C-105.725,30.495 -105.451,29.678 -105.168,28.836C-104.447,26.659 -103.744,24.475 -103.051,22.289C-96.74,2.523 -96.74,2.523 -92.227,-0.391C-89.171,-1.491 -87.253,-1.103 -84.188,-0.125C-82.375,2.312 -82.375,2.312 -81.188,4.875C-80.692,5.865 -80.692,5.865 -80.188,6.875C-79.736,6.251 -79.285,5.627 -78.82,4.984C-74.907,1.849 -70.948,1.705 -66.062,1.125C-64.713,0.937 -64.713,0.937 -63.336,0.746C-52.138,-0.718 -44.462,-1.17 -35.188,5.875C-34.714,5.404 -34.241,4.934 -33.754,4.449C-24.188,-4.557 -11.656,-7.771 0,0ZM-20.188,12.875C-21.666,15.832 -21.248,18.617 -21.188,21.875C-15.906,20.39 -11.907,16.788 -8.188,12.875L-8.188,10.875C-14.526,10.453 -14.526,10.453 -20.188,12.875Z" style="fill-rule:nonzero;"/>
            </g>
            <g transform="matrix(1.012629,0,0,1.005599,259.893226,460.342945)">
                <path d="M0,0C3.5,0.875 3.5,0.875 5.312,2.625C6.5,4.875 6.5,4.875 7.289,6.961C8.975,11.019 11.012,14.865 13.062,18.75C13.51,19.599 13.958,20.447 14.419,21.322C17.744,27.569 21.276,33.65 24.965,39.688C28.162,44.932 31.228,50.252 34.312,55.562C38.836,63.336 43.384,71.094 48,78.812C48.468,79.598 48.935,80.383 49.417,81.192C54.772,90.552 54.772,90.552 61.5,98.875C62.457,100.898 62.457,100.898 63.312,103.25C63.755,104.406 63.755,104.406 64.207,105.586C64.5,107.875 64.5,107.875 63.298,109.985C61.5,111.875 61.5,111.875 59.431,112.387C58.637,112.393 57.842,112.399 57.023,112.405C55.664,112.43 55.664,112.43 54.278,112.455C53.297,112.453 52.316,112.451 51.305,112.449C49.773,112.47 49.773,112.47 48.211,112.492C44.932,112.534 41.654,112.549 38.375,112.562C34.101,112.601 29.828,112.65 25.555,112.699C24.515,112.709 23.475,112.719 22.404,112.729C15.558,112.805 8.752,113.078 1.922,113.533C-2.88,113.853 -7.628,113.964 -12.438,113.875C-21.448,113.79 -30.428,114.126 -39.429,114.52C-58.236,115.33 -58.236,115.33 -62.5,112.875C-64.952,109.198 -64.811,107.698 -64.234,103.465C-62.781,98.341 -59.492,94.215 -56.5,89.875C-53.444,84.989 -50.568,80.032 -47.875,74.938C-45.031,69.653 -41.851,64.618 -38.625,59.562C-28.911,44.309 -20.474,28.464 -12.191,12.398C-11.482,11.036 -10.772,9.674 -10.062,8.312C-9.745,7.687 -9.427,7.062 -9.1,6.418C-6.754,1.938 -5.363,-0.192 0,0Z" style="fill-rule:nonzero;"/>
            </g>
            <g transform="matrix(1.012629,0,0,1.005599,444.065155,345.830347)">
                <path d="M0,0C2.814,2.948 3.944,4.747 4.625,8.75C3.75,11.125 3.75,11.125 2.625,12.75C-0.598,12.9 -2.931,12.934 -5.938,11.688C-8.996,10.511 -10.287,10.695 -13.375,11.75C-19.557,14.775 -22.425,19.753 -25.375,25.75C-27.174,31.409 -27.329,36.876 -24.625,42.188C-21.923,45.265 -20,46.476 -15.965,47.156C-8.975,47.403 -4.829,45.753 1.109,42.156C4.451,40.288 6.823,39.829 10.625,39.75C11.615,40.08 12.605,40.41 13.625,40.75C13.295,39.76 12.965,38.77 12.625,37.75C12.397,33.372 12.397,28.992 12.385,24.609C12.375,22.455 12.344,20.303 12.312,18.15C12.306,16.771 12.301,15.391 12.297,14.012C12.288,12.764 12.278,11.515 12.269,10.229C12.656,6.45 13.729,4.013 15.625,0.75C22.115,1.24 22.115,1.24 24.5,3.625C26.749,7.874 26.834,11.788 26.941,16.48C26.962,17.231 26.983,17.981 27.004,18.754C27.07,21.149 27.129,23.543 27.188,25.938C27.231,27.562 27.274,29.186 27.318,30.811C27.425,34.79 27.527,38.77 27.625,42.75C33.873,42.819 39.883,42.598 46.082,41.773C49.032,41.746 50.976,42.504 53.625,43.75C53.303,43.093 52.98,42.435 52.648,41.758C49.663,32.985 50.736,21.46 54.359,13.051C57.508,7.326 61.698,2.653 67.625,-0.25C74.527,-0.38 80.539,2.972 85.578,7.508C90.085,12.348 92.951,17.737 95.625,23.75C95.651,22.641 95.677,21.533 95.703,20.391C95.759,18.927 95.817,17.464 95.875,16C95.889,15.27 95.903,14.541 95.918,13.789C96.079,10.241 96.335,8.129 98.52,5.273C100.625,3.75 100.625,3.75 103.062,3.125C106.158,3.88 107.781,5.192 109.695,7.73C111.218,11.038 110.845,14.172 110.68,17.75C110.528,26.072 112.785,34.004 115.625,41.75C118.572,41.581 118.572,41.581 121.625,39.75C126.384,30.617 127.662,21.16 125.375,11.188C124.402,6.35 124.402,6.35 125.383,3.711C126.5,2.062 126.5,2.062 128.625,-0.25C135.059,0.357 135.059,0.357 137.25,1.879C142.702,9.299 142.348,21.582 141.121,30.352C139.912,37.73 138.327,43.851 133.625,49.75C132.944,50.699 132.264,51.648 131.562,52.625C128.997,55.439 126.908,56.54 123.145,57.156C116.863,57.374 112.692,56.552 107.633,52.727C102.643,47.815 99.4,41.494 97.625,34.75L96.625,34.75C96.478,35.379 96.331,36.008 96.18,36.656C94.317,43.765 91.785,49.583 85.809,54.133C80.637,57.121 75.485,57.672 69.625,56.75C65.23,55.299 61.469,53.312 57.625,50.75C57.13,51.926 57.13,51.926 56.625,53.125C53.547,57.165 49.112,57.383 44.304,58.092C41.893,58.388 39.481,58.64 37.062,58.875C36.251,58.961 35.44,59.048 34.604,59.137C20.818,60.539 20.818,60.539 15.688,56.75C14.915,56.193 14.143,55.636 13.348,55.062C12.779,54.629 12.211,54.196 11.625,53.75C11.057,54.148 10.488,54.547 9.902,54.957C1.138,60.97 -5.6,63.934 -16.375,62.75C-23.417,61.166 -29.358,59.046 -34.375,53.75L-34.375,51.75L-36.375,51.75C-41.924,43.826 -43.441,36.003 -41.812,26.449C-38.896,15.578 -33.041,5.581 -23.73,-0.973C-15.852,-5.245 -7.289,-5.44 0,0ZM70.625,15.75C65.877,22.642 64.972,27.485 65.625,35.75C67.018,39.542 67.963,40.39 71.5,42.312C74.674,43.077 74.674,43.077 77.312,41.25C80.269,38.054 82.497,35.3 82.723,30.797C82.263,24.918 79.791,20.916 75.625,16.75C73.054,16.102 73.054,16.102 70.625,15.75Z" style="fill-rule:nonzero;"/>
            </g>
            <g transform="matrix(1.012629,0,0,1.005599,618.870264,346.584546)">
                <path d="M0,0C8.997,5.329 18.094,11.532 21.488,21.871C23.175,28.887 22.161,34.281 18.664,40.582C13.021,48.782 4.931,53.083 -4,57C-4.84,57.376 -5.681,57.753 -6.547,58.141C-11.715,59.951 -17.028,59.904 -22,57.625C-27.82,49.986 -26.81,37.14 -27.562,27.812C-27.751,25.526 -27.941,23.24 -28.133,20.955C-28.252,19.543 -28.367,18.132 -28.481,16.72C-28.744,13.527 -29.094,10.39 -29.582,7.221C-30.071,3.45 -29.73,1.382 -28,-2C-19.046,-6.516 -8.649,-4.145 0,0ZM-13,11C-13.33,11.33 -13.66,11.66 -14,12C-13.934,14.784 -13.805,17.535 -13.625,20.312C-13.576,21.123 -13.527,21.933 -13.477,22.767C-13.079,29.186 -12.59,35.596 -12,42C-5.143,41.648 0.217,37.995 4.793,33.07C6.256,31.054 7.257,29.378 8,27C6.921,21.312 4.013,18.544 -0.66,15.289C-4.562,13.139 -8.68,12.009 -13,11Z" style="fill-rule:nonzero;"/>
            </g>
            <g transform="matrix(1.012629,0,0,1.005599,749.562715,335.774356)">
                <path d="M0,0C7.43,4.426 10.514,14.958 13.938,22.5C14.445,23.603 14.953,24.707 15.477,25.844C18.406,32.243 21.2,38.683 23.859,45.2C24.805,47.436 25.823,49.595 26.938,51.75C26.674,47.215 26.407,42.68 26.138,38.145C26.047,36.606 25.957,35.067 25.867,33.528C25.738,31.301 25.606,29.074 25.473,26.848C25.409,25.771 25.409,25.771 25.345,24.673C25.111,20.887 24.765,17.151 24.246,13.395C23.938,9.75 23.938,9.75 25.938,6.375C30.347,2.517 35.124,0.426 40.938,-0.25C41.634,-0.338 42.33,-0.425 43.047,-0.516C50.674,-1.05 56.739,1.349 62.938,5.75C66.109,9.402 67.115,13.166 67.312,17.938C66.733,23.825 65.018,27.436 60.938,31.75C58.188,33.062 58.188,33.062 55.938,33.75C58.432,36.57 61.114,38.591 64.25,40.625C75.769,48.152 75.769,48.152 77.938,53.75C77.493,60.194 77.493,60.194 74.938,62.75C70.429,62.577 67.374,61.73 63.734,59.059C54.135,51.448 54.135,51.448 42.938,47.75C42.972,48.654 43.007,49.557 43.043,50.488C43.07,51.668 43.097,52.847 43.125,54.062C43.16,55.234 43.195,56.406 43.23,57.613C42.938,60.75 42.938,60.75 41.574,62.609C39.265,64.218 37.764,64.683 34.938,64.75C31.612,62.634 30.195,61.523 28.938,57.75C28.401,58.74 27.865,59.73 27.312,60.75C24.938,63.75 24.938,63.75 22.062,64.438C17.994,63.542 15.477,61.982 12.938,58.75C8.938,50.886 8.938,50.886 8.938,46.75C6.646,46.891 4.354,47.038 2.062,47.188C0.786,47.269 -0.49,47.35 -1.805,47.434C-4.946,47.542 -4.946,47.542 -7.062,48.75C-7.962,50.869 -8.784,53.021 -9.562,55.188C-11.848,61.536 -11.848,61.536 -14.062,63.75C-16.948,63.871 -19.744,63.886 -22.625,63.812C-29.797,63.674 -29.797,63.674 -36.938,64.25C-50.555,66.023 -50.555,66.023 -55.125,63.703C-57.258,61.959 -58.827,60.22 -60.062,57.75C-60.152,56.361 -60.18,54.968 -60.176,53.576C-60.176,52.715 -60.176,51.854 -60.176,50.967C-60.171,50.037 -60.165,49.107 -60.16,48.148C-60.159,47.197 -60.157,46.245 -60.156,45.265C-60.15,42.218 -60.138,39.172 -60.125,36.125C-60.12,34.063 -60.115,32 -60.111,29.938C-60.1,24.875 -60.083,19.812 -60.062,14.75C-60.774,15.062 -61.485,15.375 -62.218,15.697C-65.072,16.753 -67.568,17.231 -70.582,17.602C-72.114,17.795 -72.114,17.795 -73.678,17.992C-74.733,18.119 -75.788,18.245 -76.875,18.375C-78.487,18.576 -78.487,18.576 -80.131,18.781C-82.774,19.11 -85.418,19.433 -88.062,19.75L-88.062,27.75C-87.384,27.594 -86.706,27.438 -86.008,27.277C-79.694,25.957 -73.35,24.748 -67.062,26.75C-64.798,28.591 -63.658,30.25 -62.062,32.75C-63.137,35.665 -63.841,37.528 -66.062,39.75C-68.217,40.436 -68.217,40.436 -70.852,41.039C-71.793,41.258 -72.734,41.477 -73.703,41.703C-74.688,41.925 -75.673,42.147 -76.688,42.375C-77.68,42.604 -78.673,42.834 -79.695,43.07C-82.15,43.637 -84.605,44.196 -87.062,44.75C-86.956,45.763 -86.849,46.776 -86.738,47.82C-86.616,49.172 -86.495,50.523 -86.375,51.875C-86.302,52.54 -86.229,53.205 -86.154,53.891C-85.753,58.706 -86.449,61.694 -89.062,65.75C-91.375,66.938 -91.375,66.938 -94.062,66.75C-99.482,63.349 -100.502,61.026 -102.062,54.75C-102.32,52.397 -102.505,50.036 -102.625,47.672C-102.662,47.02 -102.699,46.368 -102.737,45.696C-102.853,43.631 -102.959,41.566 -103.062,39.5C-103.484,31.188 -103.939,23.044 -105.77,14.896C-106.062,12.75 -106.062,12.75 -104.938,9.75C-100.252,4.752 -96.256,3.959 -89.625,3.062C-88.733,2.937 -87.841,2.812 -86.921,2.683C-68.211,0.202 -68.211,0.202 -60.062,4.75C-58.116,4.8 -58.116,4.8 -56.062,4.625C-52.771,4.48 -51.196,4.985 -48.625,7.062C-44.518,11.37 -44.927,15.283 -44.965,20.918C-44.966,21.713 -44.968,22.508 -44.969,23.326C-44.975,25.864 -44.987,28.4 -45,30.938C-45.005,32.658 -45.01,34.379 -45.014,36.1C-45.025,40.316 -45.042,44.533 -45.062,48.75C-42.312,48.609 -39.562,48.462 -36.812,48.312C-36.035,48.273 -35.258,48.234 -34.457,48.193C-33.703,48.151 -32.949,48.11 -32.172,48.066C-31.481,48.03 -30.789,47.993 -30.077,47.955C-27.996,47.743 -26.077,47.305 -24.062,46.75C-23.881,46.037 -23.699,45.324 -23.512,44.59C-23.26,43.632 -23.009,42.674 -22.75,41.688C-22.506,40.748 -22.263,39.808 -22.012,38.84C-21.062,35.75 -21.062,35.75 -19.609,32.406C-17.926,28.428 -16.767,24.468 -15.625,20.312C-11.505,5.98 -11.505,5.98 -6.188,1.125C-3.062,-0.25 -3.062,-0.25 0,0ZM40.938,15.75L40.938,24.75C45.531,23.264 48.373,20.9 51.938,17.75C51.608,16.43 51.278,15.11 50.938,13.75C47.033,13.75 44.557,14.434 40.938,15.75ZM-2.062,25.75C-2.393,27.73 -2.723,29.71 -3.062,31.75L1.938,31.75C0.819,28.024 0.819,28.024 -2.062,25.75Z" style="fill-rule:nonzero;"/>
            </g>
            <g transform="matrix(1.012629,0,0,1.005599,867.977038,337.534155)">
                <path d="M0,0C1.375,3.188 1.375,3.188 2,6C-1.671,10.7 -4.551,11.688 -10.402,12.457C-11.301,12.554 -12.199,12.65 -13.125,12.75C-14.92,12.972 -16.714,13.196 -18.508,13.422C-19.298,13.51 -20.089,13.599 -20.903,13.69C-23.186,13.965 -23.186,13.965 -26,15L-26,22C-24.138,21.913 -24.138,21.913 -22.238,21.824C-20.596,21.777 -18.954,21.732 -17.312,21.688C-16.496,21.646 -15.679,21.604 -14.838,21.561C-10.379,21.47 -8.581,21.554 -4.926,24.359C-3,27 -3,27 -2.875,29.562C-4.377,32.816 -6.021,34.004 -9,36C-11.618,36.691 -14.032,37.223 -16.688,37.625C-21.814,38.241 -21.814,38.241 -26,41C-25.34,42.98 -24.68,44.96 -24,47C-21.916,46.69 -19.833,46.377 -17.75,46.062C-16.59,45.888 -15.43,45.714 -14.234,45.535C-11.769,45.127 -9.406,44.661 -7,44L-7,42C-4.058,40.529 -2.27,40.56 1,41C3.551,42.635 5.382,44.436 7,47C7.25,50.062 7.25,50.062 6,53C-0.895,60.24 -9.176,62.59 -18.988,63.023C-26.094,62.968 -30.166,60.664 -35.207,55.906C-44.224,46.32 -43.362,32.459 -43.375,20.062C-43.399,18.775 -43.424,17.488 -43.449,16.162C-43.453,14.924 -43.457,13.686 -43.461,12.41C-43.469,11.298 -43.477,10.185 -43.486,9.039C-42.884,5.276 -41.701,3.652 -39,1C-37.024,0.065 -37.024,0.065 -34.945,-0.363C-34.172,-0.528 -33.399,-0.693 -32.602,-0.863C-31.785,-1.011 -30.967,-1.16 -30.125,-1.312C-29.282,-1.476 -28.44,-1.639 -27.572,-1.807C-18.248,-3.496 -8.432,-5.223 0,0Z" style="fill-rule:nonzero;"/>
            </g>
            <g transform="matrix(1.012629,0,0,1.005599,262.424057,322.298444)">
                <path d="M0,0C14.07,-0.859 26.119,1.574 37.001,11.151C38.2,12.035 38.2,12.035 39.423,12.936C47.612,19.376 51.386,27.6 55.001,37.151L55.001,40.151C55.644,40.093 56.287,40.035 56.95,39.975C68.356,39.406 79.333,43.723 88.001,51.151C98.261,61.39 101.956,76.036 102.001,90.151C101.539,93.75 101.051,97.117 99.001,100.151C94.155,102.261 89.637,102.399 84.442,102.311C83.555,102.305 82.668,102.3 81.754,102.294C79.763,102.281 77.773,102.265 75.783,102.244C69.956,102.188 64.129,102.174 58.302,102.159C57.305,102.156 57.305,102.156 56.289,102.153C34.42,102.095 12.552,102.343 -9.316,102.556C-12.712,102.588 -16.108,102.619 -19.505,102.648C-42.804,102.855 -66.088,103.125 -89.375,103.952C-91.583,104.019 -93.791,104.086 -95.999,104.151C-97.68,104.217 -97.68,104.217 -99.394,104.285C-100.462,104.312 -101.53,104.339 -102.631,104.367C-103.571,104.398 -104.511,104.429 -105.48,104.46C-108.514,104.088 -109.819,103.264 -111.999,101.151C-114.931,92.356 -113.135,83.384 -109.523,75.092C-104.489,65.372 -96.873,61.12 -86.999,57.151L-83.999,57.151C-83.962,56.571 -83.925,55.991 -83.886,55.393C-83.076,45.765 -78.901,39.788 -71.999,33.151C-63.041,27.197 -54.166,27.698 -43.999,29.151C-43.696,28.559 -43.393,27.968 -43.081,27.358C-40.536,22.557 -38.159,18.743 -33.999,15.151C-33.409,14.62 -32.818,14.089 -32.21,13.542C-27.634,9.668 -22.819,6.846 -17.437,4.276C-16.824,3.978 -16.211,3.679 -15.58,3.372C-10.349,0.981 -5.63,0.425 0,0ZM-26.292,31.483C-29.22,36.059 -31.999,41.602 -31.999,47.151C-36.391,47.517 -38.971,47.372 -42.812,45.151C-47.524,42.608 -51.741,42.208 -56.999,43.151C-61.599,44.866 -64.928,47.407 -67.437,51.651C-69.51,56.376 -69.572,61.295 -69.726,66.393C-69.999,69.151 -69.999,69.151 -71.999,71.151C-74.037,71.301 -76.081,71.372 -78.124,71.401C-84.79,71.82 -88.357,73.432 -92.999,78.151C-93.525,78.676 -94.051,79.2 -94.593,79.741C-97.398,82.803 -97.999,83.868 -97.999,88.151C-93.68,88.176 -89.361,88.194 -85.042,88.206C-83.578,88.211 -82.115,88.218 -80.652,88.226C-78.524,88.239 -76.397,88.244 -74.269,88.249C-72.996,88.254 -71.724,88.259 -70.413,88.264C-67.021,88.225 -63.684,87.956 -60.306,87.649C-51.804,86.962 -43.317,87.039 -34.793,87.076C-31.743,87.089 -28.692,87.095 -25.641,87.1C-18.051,87.113 -10.462,87.137 -2.872,87.161C41.171,88.282 41.171,88.282 85.001,85.151C86.386,83.979 86.386,83.979 86.313,80.713C86.205,74.671 84.336,68.971 80.458,64.288C75.541,59.753 70.207,57.566 63.626,56.713C59.415,57.222 56.22,58.619 52.43,60.471C49.254,61.36 47.859,60.689 45.001,59.151C42.912,56.846 42.003,55.167 41.997,52.022C42.039,51.219 42.082,50.416 42.126,49.588C42.372,41.333 38.661,32.834 33.012,26.815C22.654,18.247 12.776,14.857 -0.563,15.8C-10.679,17.258 -19.969,23.685 -26.292,31.483Z" style="fill-rule:nonzero;"/>
            </g>
            <g transform="matrix(1.012629,0,0,1.005599,476.117241,184.219572)">
                <path d="M0,0C1.973,0.461 1.973,0.461 3.656,2.02C5.39,5.234 5.757,8.321 6.098,11.898C6.214,13.004 6.214,13.004 6.333,14.132C7.186,22.728 7.606,31.35 7.889,39.981C7.943,41.584 8.005,43.186 8.076,44.789C8.167,46.867 8.231,48.944 8.285,51.023C8.323,52.18 8.36,53.336 8.398,54.527C7.88,58.099 6.734,59.233 3.973,61.461C0.041,60.15 -2.339,58.629 -5.027,55.461C-5.896,52.854 -6.234,50.98 -6.432,48.284C-6.495,47.446 -6.559,46.608 -6.624,45.745C-6.687,44.841 -6.751,43.938 -6.816,43.008C-6.884,42.074 -6.951,41.141 -7.021,40.179C-7.163,38.202 -7.302,36.225 -7.439,34.248C-7.651,31.236 -7.874,28.225 -8.098,25.215C-8.234,23.292 -8.369,21.369 -8.504,19.445C-8.572,18.55 -8.639,17.655 -8.709,16.733C-9.039,11.794 -9.09,7.312 -8.027,2.461C-5.447,-0.119 -3.525,0.145 0,0Z" style="fill-rule:nonzero;"/>
            </g>
            <g transform="matrix(1.012629,0,0,1.005599,624.946039,180.660694)">
                <path d="M0,0C7.265,9.909 6.129,25.142 4.469,36.699C3.797,39.551 3.002,42.249 2,45C1.733,45.755 1.466,46.511 1.191,47.289C-1.392,53.421 -6.129,57.064 -12,60C-18.416,60.802 -22.258,59.424 -27.664,55.914C-35.162,49.77 -38.104,41.358 -39.125,32C-39.208,31.254 -39.292,30.508 -39.378,29.739C-41.299,11.379 -41.299,11.379 -38,5C-35,3 -35,3 -32.562,3.125C-29.233,4.262 -28.113,5.143 -26,8C-25.255,11.37 -25.071,14.747 -24.875,18.188C-24.231,31.266 -24.231,31.266 -19,43C-17.077,42.96 -17.077,42.96 -15,42C-9.707,33.653 -9.454,24.592 -10,15C-10.31,13.661 -10.642,12.327 -11,11C-11.372,7.937 -11.508,5.052 -11,2C-7.579,-1.421 -4.438,-1.794 0,0Z" style="fill-rule:nonzero;"/>
            </g>
            <g transform="matrix(1.012629,0,0,1.005599,531.784156,178.649496)">
                <path d="M0,0C1.008,0.992 2.008,1.992 3,3L6.375,3C10.458,3 11.996,3.253 15,6C17.06,11.872 17.485,17.819 18,24C22.95,23.67 27.9,23.34 33,23C32.67,21.35 32.34,19.7 32,18C31.837,15.816 31.736,13.627 31.688,11.438C31.631,9.765 31.631,9.765 31.574,8.059C32,5 32,5 33.797,2.602C36,1 36,1 39.562,0.938C43,2 43,2 44.645,4.148C46.194,7.409 46.691,10.104 47.125,13.688C47.204,14.335 47.284,14.982 47.365,15.649C48.037,21.487 48.346,27.337 48.597,33.207C48.904,39.772 49.807,46.165 50.891,52.645C51.016,56.5 50.464,58.065 48,61C44.625,61.688 44.625,61.688 41,61C36.114,56.765 34.733,52.319 34,46C33.87,43.306 33.902,40.699 34,38C33.085,38.217 32.17,38.433 31.227,38.656C30.038,38.935 28.85,39.213 27.625,39.5C26.442,39.778 25.258,40.057 24.039,40.344C21,41 21,41 19,41C19.165,42.114 19.33,43.227 19.5,44.375C20.713,54.706 20.713,54.706 20,59C17.5,61.625 17.5,61.625 15,63C8.25,60.375 8.25,60.375 6,57C5.2,53.944 4.818,50.813 4.375,47.688C4.243,46.771 4.111,45.855 3.975,44.911C2.625,34.611 2.732,24.366 3,14C-5.91,14.99 -5.91,14.99 -15,16C-14.735,20.517 -14.469,25.033 -14.2,29.55C-14.11,31.082 -14.019,32.614 -13.93,34.146C-13.8,36.366 -13.668,38.585 -13.535,40.805C-13.472,41.882 -13.472,41.882 -13.408,42.981C-13.119,47.724 -12.654,52.411 -11.943,57.109C-12,59 -12,59 -14.438,62.125C-15.706,63.053 -15.706,63.053 -17,64C-22.04,62.74 -24.294,61.461 -27,57C-27.904,53.201 -28.298,49.381 -28.688,45.5C-28.808,44.429 -28.928,43.358 -29.052,42.254C-29.866,34.851 -30.579,27.437 -31,20C-31.664,20.023 -32.328,20.046 -33.012,20.07C-42.381,20.262 -42.381,20.262 -46,18C-48.354,14.861 -48.489,11.831 -48,8C-40.203,0.165 -10.769,-2.117 0,0Z" style="fill-rule:nonzero;"/>
            </g>
            <g transform="matrix(1.012629,0,0,1.005599,672.53961,180.660694)">
                <path d="M0,0C3.369,3.269 5.828,6.315 6.312,11.062C5.921,15.992 4.217,19.635 2,24C2.597,24.12 3.194,24.24 3.809,24.363C8.516,25.731 11.407,28.998 13.812,33.062C15.769,37.901 17.017,42.756 16,48C13.345,52.96 10.18,55.629 5.312,58.25C4.685,58.594 4.057,58.937 3.41,59.291C-4.29,63.371 -10.549,64.14 -19.188,64.312C-20.204,64.34 -20.204,64.34 -21.242,64.367C-26.614,64.357 -30.502,63.099 -34.627,59.633C-37.04,56.763 -36.792,52.985 -37.062,49.375C-37.175,48.074 -37.175,48.074 -37.291,46.747C-37.452,44.853 -37.608,42.958 -37.757,41.063C-38.013,37.84 -38.288,34.62 -38.566,31.398C-38.754,29.182 -38.94,26.966 -39.125,24.75C-39.213,23.704 -39.3,22.658 -39.391,21.58C-39.619,18.721 -39.821,15.862 -40,13C-40.053,12.21 -40.105,11.42 -40.159,10.607C-40.274,7.652 -40.352,5.559 -38.75,3.012C-27.57,-5.448 -12.17,-8.458 0,0ZM-24,12C-24.167,14.917 -24.167,14.917 -24,18C-23.34,18.66 -22.68,19.32 -22,20C-20.368,19.096 -18.744,18.177 -17.125,17.25C-16.22,16.74 -15.315,16.229 -14.383,15.703C-11.92,13.943 -11.055,12.79 -10,10C-15.918,8.671 -18.777,9.335 -24,12ZM-22,37L-22,49C-17.876,51.062 -12.207,48.301 -8,47C-5.206,45.811 -2.657,44.482 0,43L0,39C-8.072,34.411 -13.163,34.562 -22,37Z" style="fill-rule:nonzero;"/>
            </g>
            <g transform="matrix(1.012629,0,0,1.005599,441.027268,177.632113)">
                <path d="M0,0C3.478,2.065 6.827,4.303 8.625,8.012C9,11.137 9,11.137 8.625,14.012C5.625,16.012 5.625,16.012 2,15.699C-1.375,15.012 -1.375,15.012 -2.375,14.012C-6.29,13.278 -8.25,13.307 -11.664,15.445C-18.207,20.883 -21.71,27.018 -24.375,35.012C-24.495,36.967 -24.55,38.927 -24.562,40.887C-24.584,42.43 -24.584,42.43 -24.605,44.004C-24.367,47.116 -23.822,49.254 -22.375,52.012C-17.803,54.351 -14.324,54.002 -9.375,53.012C-8.715,51.362 -8.055,49.712 -7.375,48.012C-8.489,47.919 -8.489,47.919 -9.625,47.824C-13.35,46.724 -14.422,45.34 -16.375,42.012C-16.938,38.387 -16.938,38.387 -16.375,35.012C-9.183,29.533 2.838,28.991 11.625,30.012C16.389,31.688 18.985,33.719 21.625,38.012C22.238,41.568 22.276,45.096 22.312,48.699C22.355,50.599 22.401,52.499 22.449,54.398C22.477,55.795 22.477,55.795 22.505,57.22C22.658,60.79 23.099,64.297 23.613,67.831C23.628,70.478 23.123,71.839 21.625,74.012C18.312,75.074 18.312,75.074 14.625,75.012C10.937,72.226 8.85,69.467 7.625,65.012C7.598,63.345 7.594,61.678 7.625,60.012C7.106,60.494 6.586,60.976 6.051,61.473C5.353,62.104 4.656,62.736 3.938,63.387C3.253,64.013 2.569,64.64 1.863,65.285C-4.01,69.816 -10.239,69.715 -17.375,69.012C-25.526,67.059 -32.494,62.663 -36.945,55.477C-41.967,45.734 -42.339,37.658 -39.469,27.094C-35.682,16.423 -27.254,6.12 -17.438,0.387C-11.89,-1.956 -5.592,-2.327 0,0Z" style="fill-rule:nonzero;"/>
            </g>
            <g transform="matrix(1.012629,0,0,1.005599,289.765786,136.414334)">
                <path d="M0,0C0.767,0.347 1.534,0.694 2.324,1.051C19.184,8.977 31.388,23.097 37.727,40.559C46.479,66.32 48.292,92.027 36,117C25.344,135.694 9.852,152.049 -11,159C-13.156,159.238 -13.156,159.238 -15.5,159.312C-16.66,159.369 -16.66,159.369 -17.844,159.426C-20,159 -20,159 -21.832,157.34C-23.391,154.217 -22.923,152.639 -22.188,149.25C-19.999,136.751 -19.148,126.986 -26.469,116.062C-26.974,115.382 -27.479,114.701 -28,114C-26.938,111.551 -26.938,111.551 -25,109C-21.812,108.355 -21.812,108.355 -18,108.188C-10.042,107.462 -4.502,105.061 1,99C7.665,89.057 10.547,78.992 8.504,67.117C7.168,61.696 5.33,57.305 2.086,52.754C0.885,50.815 0.34,49.252 0,47C0.495,45.917 0.495,45.917 1,44.812C2.435,40.775 1.808,37.156 1,33C0.67,32.34 0.34,31.68 0,31C-5.167,32.392 -9.301,34.05 -13.625,37.25C-17.58,40 -17.58,40 -21.312,40C-22.529,39.67 -23.746,39.34 -25,39C-41.544,35.707 -41.544,35.707 -57,41C-61.315,40.877 -64.16,38.697 -67.635,36.4C-70.12,34.929 -72.579,33.874 -75.27,32.832C-76.159,32.485 -77.048,32.138 -77.964,31.781C-78.636,31.523 -79.308,31.265 -80,31C-79.979,31.63 -79.958,32.26 -79.937,32.908C-79.853,35.793 -79.801,38.677 -79.75,41.562C-79.7,43.048 -79.7,43.048 -79.648,44.564C-79.561,51.109 -80.379,54.575 -84,60C-87.641,68.581 -87.613,80.877 -84.438,89.625C-80.489,97.647 -74.474,103.9 -66,107C-62.639,107.648 -59.324,108.112 -55.918,108.445C-52.813,109.035 -51.327,109.915 -49,112C-50.364,117.779 -52.196,124.381 -56,129C-62.124,131.642 -67.464,131.351 -73.555,129.023C-80.658,125.756 -84.38,122.269 -87.875,115.25C-90.149,111.752 -90.149,111.752 -93.75,110.562C-95.359,110.284 -95.359,110.284 -97,110L-97,113C-96.237,113.242 -95.474,113.485 -94.688,113.734C-91.589,115.194 -90.737,116.349 -89,119.25C-88.492,120.052 -87.984,120.854 -87.461,121.68C-86.979,122.445 -86.497,123.211 -86,124C-83.212,128.192 -80.358,130.928 -75.449,132.555C-71.321,133.305 -67.224,133.052 -63.051,132.812C-59.508,133.03 -57.744,133.768 -55,136C-54.875,139.5 -54.875,139.5 -55.035,141.609C-54.979,145.45 -53.614,148.881 -52.363,152.484C-52,155 -52,155 -52.918,157.266C-56.001,159.834 -59.111,160.193 -63,160C-65.721,159.104 -67.882,158.243 -70.375,156.938C-71.349,156.453 -71.349,156.453 -72.342,155.959C-98.315,142.853 -114.216,124.168 -124,97C-129.95,77.354 -124.218,53.568 -115.141,35.816C-112.357,30.674 -108.911,26.328 -105,22C-104.398,21.246 -103.796,20.492 -103.176,19.715C-98.201,13.634 -92.361,9.38 -85.786,5.181C-84.5,4.33 -83.243,3.435 -82.007,2.512C-75.994,-1.857 -70.216,-3.723 -63,-5.312C-61.901,-5.563 -60.802,-5.814 -59.669,-6.072C-38.819,-10.619 -19.565,-9.229 0,0Z" style="fill-rule:nonzero;"/>
            </g>
            <g transform="matrix(1.012629,0,0,1.005599,922.525759,62.872043)">
                <path d="M0,0C1.388,-0.022 1.388,-0.022 2.804,-0.043C5.132,0.133 5.132,0.133 8.194,1.758C21.265,17.78 16.427,49.289 15.87,68.691C15.351,87.002 15.007,105.255 15.507,123.57C15.528,124.367 15.549,125.165 15.572,125.986C15.763,132.819 15.974,139.65 16.381,146.474C17.018,157.274 17.25,168.058 17.343,178.875C17.352,180.012 17.352,180.012 17.363,181.171C17.39,184.325 17.416,187.478 17.443,190.632C17.658,216.386 18.086,242.022 20.041,267.714C20.173,269.459 20.305,271.204 20.436,272.949C20.5,273.788 20.563,274.628 20.628,275.492C21.623,289.287 21.733,303.127 21.991,316.951C22.1,322.481 22.348,327.989 22.694,333.508C23.88,353.779 23.276,374.223 22.812,394.513C22.776,396.082 22.742,397.651 22.71,399.22C22.525,408.011 22.111,416.76 21.456,425.529C19.854,446.979 19.167,468.45 18.507,489.945C18.474,490.992 18.441,492.039 18.408,493.118C16.311,560.8 16.551,628.401 18.921,696.069C19.084,700.726 19.239,705.382 19.39,710.039C20.284,751.797 20.284,751.797 23.628,793.402C24.378,799.786 24.652,806.213 25.004,812.629C25.133,814.979 25.266,817.329 25.399,819.678C25.818,827.124 26.206,834.57 26.526,842.02C26.858,855.845 26.858,855.845 29.889,869.188C30.273,872.265 28.765,873.794 27.007,876.258C26.406,877.127 25.805,877.995 25.186,878.891C22.194,882.156 19.48,883.025 15.089,883.376C13.426,883.37 13.426,883.37 11.729,883.363C9.899,883.36 9.899,883.36 8.032,883.357C6.765,883.345 5.499,883.333 4.194,883.32C2.931,883.32 1.669,883.319 0.368,883.318C-5.188,883.292 -10.391,883.087 -15.868,882.133C-19.138,881.923 -22.405,881.943 -25.681,881.945C-26.674,881.944 -27.667,881.943 -28.689,881.941C-36.689,881.99 -44.633,882.48 -52.609,883.048C-65.281,883.948 -77.793,884.238 -90.493,883.82C-91.22,883.797 -91.947,883.774 -92.696,883.75C-99.487,883.522 -106.136,883.103 -112.868,882.133C-139.517,879.921 -166.341,879.892 -193.064,879.828C-195.479,879.821 -197.894,879.807 -200.31,879.792C-220.103,879.677 -239.77,880.273 -259.531,881.436C-288.079,883.114 -316.493,883.439 -345.084,883.245C-358.387,883.155 -371.69,883.131 -384.993,883.109C-386.3,883.107 -387.607,883.104 -388.953,883.102C-418.493,883.054 -447.982,883.752 -477.501,884.771C-485.933,885.056 -494.362,885.258 -502.798,885.383C-503.891,885.399 -504.983,885.415 -506.109,885.432C-508.256,885.463 -510.404,885.494 -512.551,885.525C-532.129,885.81 -551.619,886.711 -571.161,887.904C-588.103,888.933 -604.892,889.619 -621.868,889.133C-622.884,889.107 -623.9,889.081 -624.947,889.054C-634.68,888.785 -644.39,888.341 -654.099,887.586C-677.598,885.805 -700.998,886.004 -724.524,887.4C-739.371,888.273 -754.187,888.213 -769.056,888.133C-774.112,888.106 -779.168,888.086 -784.224,888.07C-785.361,888.062 -786.499,888.054 -787.671,888.045C-793.832,888.026 -799.76,888.33 -805.868,889.133C-814.548,889.848 -814.548,889.848 -818.868,887.508C-821.165,884.781 -821.942,882.554 -822.868,879.133C-823.379,878.202 -823.379,878.202 -823.899,877.252C-825.04,874.757 -825.145,872.957 -825.187,870.218C-825.207,869.228 -825.227,868.237 -825.247,867.217C-825.259,866.135 -825.271,865.052 -825.282,863.938C-825.302,862.791 -825.321,861.644 -825.341,860.463C-825.402,856.645 -825.448,852.826 -825.493,849.008C-825.523,847.003 -825.552,844.999 -825.582,842.994C-825.806,827.942 -825.897,812.893 -825.857,797.84C-825.855,797.132 -825.853,796.425 -825.851,795.696C-825.841,792.148 -825.83,788.6 -825.819,785.052C-825.817,784.354 -825.815,783.656 -825.813,782.937C-825.808,781.522 -825.804,780.108 -825.799,778.693C-825.742,760.411 -825.945,742.21 -827.085,723.959C-827.98,709.535 -828.279,695.115 -828.526,680.667C-828.558,678.834 -828.59,677.001 -828.622,675.168C-828.639,674.224 -828.655,673.28 -828.673,672.307C-828.82,664.475 -829.072,656.649 -829.333,648.82C-829.791,634.915 -830.098,621.008 -830.368,607.098C-830.389,606.044 -830.41,604.99 -830.431,603.904C-830.623,594.062 -830.81,584.219 -830.993,574.377C-831.095,568.926 -831.201,563.475 -831.308,558.024C-831.348,555.979 -831.386,553.935 -831.423,551.89C-831.605,541.77 -831.892,531.706 -832.637,521.61C-833.038,515.584 -833.158,509.553 -833.298,503.516C-833.351,501.438 -833.405,499.361 -833.459,497.283C-833.515,495.102 -833.571,492.921 -833.627,490.74C-834.202,468.432 -834.91,446.154 -836.368,423.883C-836.465,422.407 -836.465,422.407 -836.564,420.902C-836.817,417.054 -837.072,413.207 -837.331,409.359C-837.978,399.663 -838.509,389.963 -838.993,380.258C-839.055,379.026 -839.055,379.026 -839.118,377.769C-839.745,365.066 -840.165,352.365 -840.472,339.651C-840.669,331.767 -840.958,323.895 -841.372,316.02C-844.596,254.267 -842.77,192.313 -840.181,130.559C-839.502,114.014 -839.858,97.491 -840.306,80.945C-840.325,80.198 -840.345,79.45 -840.365,78.68C-840.548,71.852 -840.738,65.042 -841.384,58.238C-842.053,50.856 -842.127,43.474 -842.164,36.066C-842.175,34.43 -842.196,32.793 -842.225,31.156C-842.268,28.763 -842.284,26.37 -842.294,23.977C-842.312,23.247 -842.329,22.518 -842.347,21.767C-842.332,18.288 -842.122,16.464 -839.976,13.667C-836.548,11.171 -834.004,11.857 -829.868,12.133C-829.631,11.506 -829.394,10.88 -829.15,10.234C-827.511,7.547 -826.36,7.314 -823.368,6.508C-819.738,5.528 -819.738,5.528 -816.868,3.133C-814.47,2.955 -812.19,2.902 -809.793,2.938C-808.697,2.942 -808.697,2.942 -807.578,2.946C-805.981,2.954 -804.384,2.966 -802.787,2.982C-800.218,3.008 -797.65,3.021 -795.081,3.031C-788.668,3.057 -782.254,3.105 -775.841,3.154C-769.604,3.201 -763.367,3.238 -757.13,3.258C-756.245,3.261 -755.361,3.264 -754.449,3.267C-739.287,3.299 -724.212,2.7 -709.083,1.729C-682.185,0.01 -654.773,0.756 -627.967,3.658C-623.215,4.142 -618.528,4.278 -613.755,4.266C-612.893,4.267 -612.03,4.268 -611.141,4.27C-608.28,4.272 -605.418,4.265 -602.556,4.258C-601.051,4.256 -601.051,4.256 -599.515,4.255C-580.037,4.235 -560.566,3.919 -541.092,3.56C-525.284,3.268 -509.491,3.094 -493.681,3.195C-476.932,3.299 -460.229,2.761 -443.493,2.133C-392.618,0.243 -392.618,0.243 -370.456,1.588C-340.714,3.385 -310.992,3.409 -281.208,3.333C-275.64,3.32 -270.073,3.318 -264.506,3.318C-258.368,3.319 -252.231,3.314 -246.093,3.306C-243.53,3.302 -240.966,3.3 -238.403,3.3C-225.696,3.292 -213.048,3.148 -200.363,2.385C-192.254,1.906 -184.132,1.751 -176.013,1.57C-174.624,1.539 -174.624,1.539 -173.207,1.506C-148.325,0.952 -123.442,1.057 -98.556,1.133C-89.476,1.16 -80.397,1.183 -71.318,1.195C-70.224,1.197 -69.131,1.198 -68.005,1.2C-50.95,1.215 -33.918,0.953 -16.872,0.418C-11.249,0.244 -5.626,0.077 0,0ZM-720.536,17.79C-740.157,19.542 -759.774,19.357 -779.451,19.197C-802.798,18.361 -802.798,18.361 -825.868,21.133C-826.764,35.087 -826.849,48.796 -826.088,62.755C-824.205,97.953 -824.914,132.915 -826.156,168.119C-826.572,179.983 -826.956,191.82 -826.872,203.691C-826.867,208.744 -827.118,213.774 -827.368,218.82C-829.824,279.141 -825.18,339.772 -822.243,400.008C-822.188,401.142 -822.133,402.277 -822.076,403.446C-821.756,410.026 -821.433,416.606 -821.106,423.186C-821.006,425.2 -820.907,427.213 -820.809,429.227C-820.359,438.394 -819.888,447.542 -819.068,456.686C-818.777,460.245 -818.688,463.781 -818.622,467.352C-818.591,468.856 -818.559,470.361 -818.527,471.865C-818.511,472.641 -818.496,473.416 -818.48,474.215C-818.221,486.999 -817.79,499.754 -817.002,512.517C-815.303,540.146 -814.981,567.803 -814.657,595.477C-814.582,601.862 -814.507,608.247 -814.431,614.633C-814.421,615.437 -814.412,616.242 -814.402,617.071C-814.112,641.474 -813.647,665.866 -812.934,690.26C-812.869,692.484 -812.805,694.708 -812.741,696.932C-812.622,701.069 -812.496,705.207 -812.368,709.344C-812.333,710.539 -812.298,711.735 -812.261,712.967C-812.036,719.944 -811.616,726.885 -811.094,733.846C-810.778,738.457 -810.642,743.063 -810.552,747.684C-810.531,748.616 -810.51,749.549 -810.489,750.51C-810.424,753.489 -810.365,756.467 -810.306,759.445C-810.284,760.474 -810.263,761.504 -810.241,762.564C-810.01,773.587 -809.798,784.606 -809.868,795.633C-809.945,807.637 -809.684,819.632 -809.431,831.633C-809.411,832.62 -809.391,833.608 -809.371,834.625C-809.124,846.816 -808.695,858.967 -807.868,871.133C-799.825,871.156 -791.782,871.174 -783.739,871.185C-780.001,871.19 -776.263,871.197 -772.525,871.208C-755.195,871.26 -737.919,871.093 -720.603,870.261C-696.116,869.112 -671.975,869.084 -647.527,870.873C-617.893,872.977 -588.026,872.787 -558.418,870.392C-541.737,869.067 -525.092,868.763 -508.368,868.633C-503.045,868.59 -497.723,868.539 -492.4,868.477C-491.703,868.469 -491.007,868.461 -490.289,868.453C-480.926,868.339 -471.578,868.064 -462.223,867.654C-461.198,867.609 -460.173,867.564 -459.117,867.518C-458.072,867.473 -457.027,867.427 -455.95,867.38C-427.247,866.128 -398.621,865.986 -369.895,866.153C-318.202,866.526 -318.202,866.526 -266.556,864.633C-242.056,863.162 -217.656,862.851 -193.118,862.883C-191.348,862.884 -189.577,862.885 -187.806,862.886C-169.536,862.904 -151.274,863.099 -133.009,863.582C-132.26,863.601 -131.511,863.62 -130.74,863.639C-122.577,863.851 -114.479,864.21 -106.368,865.195C-84.356,867.756 -61.538,866.35 -39.47,864.844C-27.57,864.043 -15.696,864.07 -3.775,864.17C-3.063,864.174 -2.352,864.178 -1.619,864.183C0.345,864.195 2.31,864.212 4.274,864.23C7.03,864.462 7.03,864.462 8.132,863.133C8.346,860.742 8.491,858.381 8.589,855.984C8.62,855.215 8.652,854.446 8.685,853.653C9.522,831.41 8.759,809.387 7.319,787.195C7.249,786.115 7.249,786.115 7.178,785.012C6.941,781.361 6.704,777.71 6.466,774.058C6.419,773.341 6.372,772.623 6.324,771.883C6.23,770.439 6.135,768.994 6.04,767.549C4.593,745.429 3.824,723.288 3.132,701.133C3.068,699.129 3.004,697.125 2.941,695.122C-1.312,560.917 -1.312,560.917 1.647,524.727C2.345,515.362 2.347,505.983 2.463,496.596C2.711,477.631 3.353,458.744 4.632,439.82C4.767,437.797 4.903,435.773 5.039,433.749C5.137,432.281 5.137,432.281 5.238,430.783C5.334,429.343 5.334,429.343 5.432,427.875C5.495,426.936 5.558,425.997 5.623,425.03C6.482,412.073 6.953,399.118 7.132,386.133C7.143,385.368 7.154,384.604 7.165,383.816C7.74,341.54 7.049,299.022 2.815,256.934C1.289,240.855 1.024,224.769 1.17,208.63C1.334,188.751 0.858,168.934 0.132,149.07C-0.895,120.952 -1.035,92.866 -0.894,64.731C-0.878,61.441 -0.865,58.151 -0.852,54.861C-0.841,52.617 -0.824,50.373 -0.806,48.13C0.054,33.764 0.054,33.764 -2.868,20.133C-11.684,18.137 -21.57,19.016 -30.57,19.058C-33.414,19.071 -36.258,19.077 -39.102,19.082C-46.192,19.095 -53.282,19.119 -60.373,19.143C-67.298,19.167 -74.224,19.185 -81.15,19.195C-82.623,19.198 -82.623,19.198 -84.126,19.2C-103.111,19.218 -122.075,18.797 -141.052,18.299C-149.951,18.07 -158.848,17.978 -167.75,18.002C-170.163,18.008 -172.575,18.002 -174.988,17.996C-183.503,17.992 -191.944,18.243 -200.443,18.838C-216.458,19.928 -232.436,20.284 -248.486,20.266C-250.601,20.266 -252.716,20.267 -254.832,20.269C-259.237,20.27 -263.642,20.268 -268.047,20.263C-273.595,20.258 -279.142,20.261 -284.69,20.267C-344.149,20.319 -344.149,20.319 -364.367,18.356C-367.945,18.037 -371.516,17.907 -375.107,17.816C-376.199,17.785 -376.199,17.785 -377.313,17.753C-378.836,17.711 -380.36,17.67 -381.883,17.63C-384.167,17.571 -386.45,17.505 -388.734,17.439C-403.99,17.011 -419.076,17.201 -434.301,18.278C-443.2,18.9 -452.045,19.188 -460.966,19.146C-472.137,19.122 -483.304,19.197 -494.474,19.318C-497.717,19.353 -500.96,19.386 -504.203,19.419C-513.406,19.512 -522.608,19.608 -531.811,19.706C-547.163,19.867 -562.516,20.015 -577.868,20.133C-579.301,20.144 -579.301,20.144 -580.763,20.156C-600.318,20.307 -619.773,20.317 -639.29,18.907C-644.549,18.53 -649.81,18.21 -655.072,17.879C-656.099,17.813 -657.126,17.748 -658.184,17.68C-679.161,16.343 -699.588,15.884 -720.536,17.79Z" style="fill-rule:nonzero;"/>
            </g>
        </g>
    </g>
</svg>
