<?xml version="1.0" encoding="UTF-8" standalone="no"?><!DOCTYPE svg PUBLIC "-//W3C//DTD SVG 1.1//EN" "http://www.w3.org/Graphics/SVG/1.1/DTD/svg11.dtd"><svg width="100%" height="100%" viewBox="0 0 384 86" version="1.1" xmlns="http://www.w3.org/2000/svg" xmlns:xlink="http://www.w3.org/1999/xlink" xml:space="preserve" xmlns:serif="http://www.serif.com/" style="fill-rule:evenodd;clip-rule:evenodd;stroke-linejoin:round;stroke-miterlimit:2;"><path d="M355.875,2.953c0.92,0.007 1.841,0.014 2.789,0.021c1.033,0.013 1.033,0.013 2.086,0.026l0,3c-2.809,1.746 -5.766,1.967 -8.982,2.303c-0.575,0.064 -1.15,0.129 -1.742,0.195c-1.831,0.204 -3.663,0.4 -5.494,0.596c-1.238,0.137 -2.477,0.275 -3.715,0.413c-8.977,0.993 -8.977,0.993 -10.816,0.993c0.27,7.541 0.847,14.975 1.875,22.453c0.098,0.715 0.196,1.429 0.297,2.165c0.378,2.649 0.73,5.087 1.578,7.631c0.498,-0.749 0.996,-1.499 1.509,-2.271c0.668,-0.978 1.337,-1.955 2.007,-2.933c0.326,-0.495 0.653,-0.989 0.989,-1.499c1.476,-2.132 2.495,-3.551 4.847,-4.712c2.838,0.245 4.147,1.636 6.258,3.492c0.732,0.633 1.464,1.267 2.218,1.919c0.552,0.496 1.104,0.992 1.673,1.503c0.181,-0.629 0.362,-1.259 0.548,-1.907c1.087,-2.96 2.501,-5.427 4.187,-8.077c0.284,-0.474 0.568,-0.948 0.86,-1.437c1.291,-2.039 2.293,-3.404 4.49,-4.463c2.795,0.197 4.001,1.45 6.088,3.275c0.697,0.598 1.394,1.197 2.112,1.813c1.705,1.557 3.353,3.145 4.966,4.796c-0.072,-0.686 -0.143,-1.373 -0.217,-2.08c-0.083,-0.891 -0.166,-1.783 -0.252,-2.701c-0.087,-0.888 -0.174,-1.775 -0.264,-2.689c-0.009,-1.128 -0.009,-1.128 -0.018,-2.279c0.495,-0.495 0.99,-0.99 1.5,-1.5c1.594,0.281 1.594,0.281 3,0.75c3.73,22.067 3.73,22.067 1.418,27.43c-1.932,2.479 -3.338,2.567 -6.407,3.077c-0.495,0.086 -0.99,0.171 -1.501,0.259c-1.584,0.266 -3.17,0.504 -4.76,0.734c-0.509,0.076 -1.019,0.151 -1.543,0.229c-3.096,0.452 -6.196,0.852 -9.303,1.222c-1.579,0.189 -3.155,0.39 -4.732,0.592c-17.47,2.168 -17.47,2.168 -21.747,-0.185c-4.168,-4.626 -3.87,-12.544 -4.569,-18.505c-0.196,-1.655 -0.403,-3.308 -0.612,-4.961c-0.685,-5.63 -1.144,-11.229 -1.222,-16.903c-0.014,-0.532 -0.027,-1.064 -0.041,-1.612c0.001,-2.257 0.16,-3.91 1.183,-5.938c1.679,-1.493 2.733,-1.692 4.955,-1.948c1.065,-0.133 1.065,-0.133 2.152,-0.268c0.741,-0.079 1.482,-0.158 2.246,-0.239c1.09,-0.131 1.09,-0.131 2.202,-0.265c1.432,-0.171 2.865,-0.336 4.299,-0.495c1.725,-0.195 3.443,-0.421 5.162,-0.658c2.843,-0.319 5.587,-0.391 8.446,-0.363Z" style="fill-rule:nonzero;"/><path d="M50.766,30.938c5.061,6.747 4.429,19.687 5.25,27.703c0.107,0.966 0.214,1.933 0.324,2.928c1.382,13.471 1.382,13.471 -1.349,17.574c-6.187,3.937 -15.611,3.828 -22.79,4.535c-2.776,0.255 -2.776,0.255 -4.781,0.706c-3.233,0.617 -6.465,0.566 -9.747,0.6c-1.045,0.033 -1.045,0.033 -2.111,0.066c-4.29,0.04 -7.024,-0.243 -10.311,-3.3c-1.531,-3.047 -1.932,-6.146 -2.303,-9.495c-0.097,-0.831 -0.097,-0.831 -0.196,-1.679c-0.206,-1.79 -0.402,-3.581 -0.595,-5.373c-0.066,-0.607 -0.132,-1.214 -0.199,-1.839c-1.519,-14.196 -1.519,-14.196 -1.676,-21.317c-0.026,-0.579 -0.052,-1.157 -0.079,-1.754c0.006,-3.071 0.448,-4.184 2.552,-6.47c10.142,-6.392 38.09,-10.235 48.012,-2.886Zm-45.516,6.562c0.424,16.183 0.424,16.183 2.25,32.25c0.2,1.334 0.2,1.334 0.404,2.695c0.278,3.805 0.278,3.805 1.846,7.055c8.474,0.447 16.849,0.052 25.266,-0.984c0.733,-0.088 1.467,-0.176 2.222,-0.267c7.785,-0.718 7.785,-0.718 14.512,-3.998c0.424,-5.969 -0.296,-11.898 -1.031,-17.812c-0.103,-0.851 -0.206,-1.703 -0.312,-2.58c-0.205,-1.685 -0.412,-3.37 -0.622,-5.054c-0.247,-1.997 -0.484,-3.994 -0.716,-5.992c-0.121,-1.005 -0.243,-2.01 -0.366,-3.015c-0.152,-1.263 -0.152,-1.263 -0.308,-2.552c-0.295,-2.155 -0.295,-2.155 -1.896,-4.245c-13.451,-1.74 -28.164,1.801 -41.25,4.5Z" style="fill-rule:nonzero;"/><path d="M112.5,25.5c2.557,4.017 2.938,8.123 3.469,12.75c0.094,0.772 0.187,1.543 0.284,2.338c0.677,5.714 1.276,11.41 1.498,17.162c0.02,0.508 0.041,1.016 0.062,1.539c0.058,1.628 0.095,3.255 0.126,4.883c0.019,0.975 0.039,1.951 0.059,2.956c-0.264,2.812 -0.739,4.183 -2.496,6.372c-1.348,0.806 -1.348,0.806 -2.812,1.266c-0.476,0.158 -0.951,0.315 -1.441,0.478c-0.576,0.167 -1.152,0.335 -1.746,0.507c-0.724,0.243 -1.448,0.485 -2.194,0.735c-4.277,1.21 -8.727,1.526 -13.134,1.983c-1.402,0.146 -1.402,0.146 -2.832,0.295c-17.163,1.703 -17.163,1.703 -22.132,0.063c-5.216,-4.813 -4.847,-14.732 -5.599,-21.451c-0.065,-0.564 -0.13,-1.128 -0.197,-1.709c-0.746,-6.529 -1.436,-13.039 -1.444,-19.619c-0.001,-0.526 -0.002,-1.052 -0.003,-1.594c0.061,-2.64 0.275,-3.688 1.785,-5.953c1.731,-0.635 3.321,-1.097 5.109,-1.5c0.543,-0.125 1.086,-0.25 1.646,-0.379c5.636,-1.198 11.332,-1.831 17.057,-2.434c1.357,-0.144 1.357,-0.144 2.742,-0.29c17.957,-1.744 17.957,-1.744 22.196,1.603Zm-12.65,2.363c-2.379,0.142 -4.755,0.314 -7.132,0.496c-0.85,0.065 -1.7,0.13 -2.575,0.198c-12.006,0.508 -12.006,0.508 -23.394,3.693c-0.022,2.422 -0.035,4.844 -0.047,7.266c-0.006,0.684 -0.013,1.368 -0.019,2.073c-0.002,0.665 -0.005,1.329 -0.007,2.014c-0.004,0.609 -0.008,1.218 -0.012,1.845c0.091,1.919 0.443,3.674 0.835,5.553c0.135,1.244 0.251,2.491 0.349,3.738c0.058,0.702 0.117,1.404 0.177,2.127c0.117,1.453 0.232,2.906 0.346,4.359c0.214,7.376 0.214,7.376 2.878,13.775c6.631,0.386 13.202,-0.212 19.781,-0.984c0.879,-0.1 1.757,-0.201 2.663,-0.304c10.359,-0.496 10.359,-0.496 19.556,-3.961c0.463,-8.26 -0.275,-16.438 -1.199,-24.638c-0.21,-1.878 -0.407,-3.757 -0.602,-5.636c-0.131,-1.203 -0.263,-2.405 -0.396,-3.608c-0.058,-0.558 -0.116,-1.115 -0.175,-1.69c-0.31,-2.674 -0.606,-4.146 -2.127,-6.428c-3.009,-0.186 -5.894,-0.045 -8.9,0.113Z" style="fill-rule:nonzero;"/><path d="M162.422,17.672c0.656,-0.017 1.311,-0.033 1.987,-0.05c2.905,0.01 4.719,0.186 7.333,1.533c1.979,2.421 2.353,4.693 2.728,7.705c0.171,1.155 0.344,2.309 0.519,3.463c0.125,0.867 0.125,0.867 0.252,1.751c0.379,2.44 0.909,4.842 1.432,7.255c0.856,4.221 1.483,8.426 1.969,12.703c0.063,0.544 0.126,1.088 0.191,1.648c0.17,1.606 0.301,3.21 0.419,4.821c0.056,0.585 0.111,1.17 0.169,1.773c0.184,3.143 0.148,4.527 -1.713,7.171c-9.782,6.898 -26.725,6.157 -38.206,6.29c-0.703,0.013 -1.407,0.027 -2.132,0.04c-0.658,-0.001 -1.316,-0.001 -1.993,-0.002c-0.87,0.003 -0.87,0.003 -1.758,0.007c-2.111,-0.365 -3.094,-1.029 -4.617,-2.529c-0.649,-1.658 -0.649,-1.658 -1.034,-3.604c-0.148,-0.724 -0.296,-1.448 -0.449,-2.194c-0.217,-1.167 -0.217,-1.167 -0.439,-2.358c-0.235,-1.205 -0.235,-1.205 -0.475,-2.435c-5.149,-26.952 -5.149,-26.952 -3.603,-35.159c3.787,-4.095 8.997,-4.379 14.25,-5.25c0.914,-0.156 0.914,-0.156 1.846,-0.314c7.756,-1.286 15.459,-2.157 23.325,-2.264Zm-20.203,6.234c-0.931,0.13 -1.861,0.261 -2.82,0.395c-4.322,0.639 -8.492,1.338 -12.648,2.699c0.237,7.633 1.092,15.128 2.156,22.688c0.121,0.878 0.242,1.756 0.367,2.661c0.728,9.301 0.728,9.301 4.227,17.402c5.708,0.222 11.299,-0.363 16.969,-0.984c1.393,-0.151 1.393,-0.151 2.814,-0.306c11.218,-0.797 11.218,-0.797 21.467,-4.71c0.41,-5.31 -0.456,-10.339 -1.359,-15.562c-0.276,-1.651 -0.55,-3.303 -0.823,-4.954c-0.137,-0.827 -0.275,-1.654 -0.416,-2.506c-0.621,-3.834 -1.172,-7.678 -1.714,-11.524c-0.096,-0.678 -0.191,-1.356 -0.289,-2.054c-0.217,-1.549 -0.433,-3.099 -0.648,-4.649c-9.233,-0.363 -18.123,0.123 -27.281,1.406Z" style="fill-rule:nonzero;"/><path d="M33.469,41.484c3.787,2.691 3.787,2.691 4.494,5.08c0.337,2.994 0.518,4.693 -0.791,7.482l-1.172,1.453l1.688,0.469c2.775,1.387 3.702,2.759 5.062,5.531c0.058,3.306 -0.338,4.746 -2.438,7.312c-4.74,3.879 -8.081,4.799 -14.156,4.875l-2.818,0.059l-2.338,-0.246c-1.775,-2.663 -1.916,-4.396 -2.303,-7.562l-0.195,-1.572c-0.135,-1.097 -0.267,-2.195 -0.397,-3.293c-0.197,-1.67 -0.404,-3.338 -0.612,-5.007c-1.082,-8.863 -1.082,-8.863 -0.993,-13.317c4.944,-3.39 11.462,-3.26 16.969,-1.266Zm-10.969,4.266l0.75,8.25c2.391,-0.234 2.391,-0.234 5.25,-0.75c2.206,-1.007 3.416,-1.537 4.453,-3.75c0.047,-1.5 0.047,-1.5 -1.453,-3.75l-2.115,-0.22l-2.479,0.079c-1.469,0.036 -2.938,0.08 -4.406,0.141Zm7.031,13.312c-2.149,0.035 -3.607,-0.025 -5.531,0.938l0.75,8.25c3.517,-0.234 6.531,-0.355 9.797,-1.688c1.789,-1.616 2.011,-2.696 2.203,-5.062c-1.721,-1.55 -2.716,-2.216 -5.045,-2.496l-2.174,0.059Z"/><path d="M282,20.25c1.488,1.377 1.488,1.377 2.25,3c-0.248,0.742 -0.495,1.485 -0.75,2.25c-1.208,0.123 -1.208,0.123 -2.44,0.249c-1.077,0.12 -2.154,0.24 -3.231,0.36c-0.528,0.053 -1.057,0.105 -1.601,0.16c-3.907,0.45 -8.378,1.103 -11.055,4.247c-0.92,3.784 -1.126,6.577 0.891,9.891c1.996,1.885 3.541,2.99 6.312,3.24c0.572,-0.017 1.143,-0.035 1.733,-0.053c0.94,-0.017 0.94,-0.017 1.898,-0.035c0.972,-0.029 0.972,-0.029 1.963,-0.059c1.291,-0.038 2.582,-0.07 3.873,-0.094c0.57,-0.017 1.14,-0.035 1.727,-0.053c1.431,0.146 1.431,0.146 2.931,1.646c-0.417,3.417 -0.417,3.417 -1.5,4.5c-7.266,1.211 -14.599,2.022 -21,-2.25c-2.968,-2.745 -5.619,-5.889 -6.278,-9.973c-0.151,-5.579 1.331,-8.865 5.095,-12.929c5.16,-4.758 12.503,-5.089 19.184,-4.099Z" style="fill-rule:nonzero;"/><path d="M299.062,17.719c0.58,-0.018 1.16,-0.037 1.758,-0.056c5.055,-0.025 8.857,1.367 12.724,4.646c3.543,4.346 3.543,4.346 3.706,7.69c0.062,0.975 0.124,1.949 0.188,2.953c-0.074,3.592 -1.072,6.07 -3.545,8.745c-5.467,5.08 -10.493,5.803 -17.824,5.777c-2.068,-0.226 -2.068,-0.226 -3.568,-1.726c0.281,-1.969 0.281,-1.969 0.75,-3.75c0.697,-0.082 1.394,-0.164 2.112,-0.249c7.131,-0.774 7.131,-0.774 13.638,-3.501c1.82,-2.848 1.855,-5.687 1.5,-9c-1.65,-2.651 -3.136,-4.073 -6,-5.25c-1.567,-0.192 -1.567,-0.192 -3.193,-0.12c-0.593,0.008 -1.185,0.016 -1.796,0.025c-0.612,0.016 -1.224,0.032 -1.854,0.048c-6.476,0.137 -6.476,0.137 -8.156,-0.703l0,-3.75c2.98,-2.003 6.106,-1.776 9.562,-1.781Z" style="fill-rule:nonzero;"/><path d="M156,29.25c1.828,0.141 1.828,0.141 3.75,0.75c2.162,3.33 1.776,6.899 1.781,10.734c0.018,0.694 0.037,1.387 0.056,2.102c0.02,4.627 -0.562,7.418 -3.337,11.164c-3.261,1.872 -6.009,2.861 -9.75,2.25c-3.23,-1.149 -5.332,-2.706 -7.189,-5.607c-2.772,-5.944 -3.431,-11.891 -3.311,-18.393c0.75,-0.75 0.75,-0.75 2.625,-0.844c1.875,0.094 1.875,0.094 2.625,0.844c0.244,1.637 0.458,3.279 0.656,4.922c0.577,4.196 1.258,7.76 3.094,11.578c2.118,1.731 2.118,1.731 4.547,1.406c2.239,-0.414 2.239,-0.414 3.083,-1.955c0.72,-1.976 0.779,-3.476 0.74,-5.577c-0.008,-0.731 -0.016,-1.463 -0.025,-2.216c-0.016,-0.758 -0.032,-1.517 -0.048,-2.298c-0.026,-1.511 -0.048,-3.021 -0.067,-4.532c-0.02,-1.002 -0.02,-1.002 -0.041,-2.025c0.061,-1.552 0.061,-1.552 0.811,-2.302Z" style="fill-rule:nonzero;"/><path d="M97.365,35.139c1.635,0.111 1.635,0.111 3.135,1.611c-0.402,2.652 -0.402,2.652 -1.5,3.75c-1.5,0.031 -3,0.032 -4.5,0c-0.1,0.828 -0.199,1.655 -0.302,2.508c-0.475,3.799 -1.045,7.582 -1.62,11.367c-0.104,0.688 -0.208,1.377 -0.315,2.086c-0.254,1.68 -0.508,3.359 -0.763,5.039l4.5,0c0.469,1.781 0.469,1.781 0.75,3.75c-3.278,3.278 -9.794,2.347 -14.2,2.423c-1.55,-0.173 -1.55,-0.173 -3.05,-1.673l0,-3c1.98,-0.495 3.96,-0.99 6,-1.5c0.064,-0.454 0.128,-0.907 0.195,-1.374c0.294,-2.073 0.589,-4.146 0.883,-6.219c0.101,-0.713 0.202,-1.427 0.306,-2.162c0.499,-3.506 1.011,-7.005 1.616,-10.494l-5.25,0c-0.248,-1.237 -0.495,-2.475 -0.75,-3.75c2.681,-1.787 4.217,-1.787 7.406,-1.969c0.911,-0.056 1.821,-0.112 2.76,-0.17c1.567,-0.067 3.133,-0.14 4.699,-0.223Z" style="fill-rule:nonzero;"/><path d="M239.766,15.609c0.854,-0.011 1.707,-0.021 2.587,-0.032c2.147,0.173 2.147,0.173 3.647,1.673c-0.281,1.969 -0.281,1.969 -0.75,3.75c-4.234,1.144 -8.342,1.9 -12.703,2.344c-0.914,0.096 -0.914,0.096 -1.847,0.193c-6.155,0.592 -12.274,0.606 -18.45,0.463c-0.495,-1.238 -0.99,-2.475 -1.5,-3.75c1.306,-1.634 2.019,-2.202 4.098,-2.631c1.078,-0.069 1.078,-0.069 2.177,-0.14c0.788,-0.057 1.576,-0.114 2.388,-0.173c1.234,-0.074 1.234,-0.074 2.493,-0.149c1.623,-0.109 3.246,-0.221 4.869,-0.334c1.08,-0.067 1.08,-0.067 2.182,-0.135c3.674,-0.337 7.085,-1.057 10.808,-1.078Z" style="fill-rule:nonzero;"/><path d="M249,54c0.516,1.734 0.516,1.734 0.75,3.75c-1.273,1.875 -2.132,2.224 -4.359,2.712c-1.263,0.124 -1.263,0.124 -2.552,0.25c-0.933,0.094 -1.867,0.189 -2.829,0.286c-1.467,0.133 -1.467,0.133 -2.963,0.268c-1.428,0.146 -1.428,0.146 -2.884,0.294c-12.478,1.21 -12.478,1.21 -17.413,0.69c-0.495,-0.495 -0.99,-0.99 -1.5,-1.5c0.047,-1.875 0.047,-1.875 0.75,-3.75c2.54,-1.27 4.845,-1.741 7.658,-1.975c0.743,-0.063 1.487,-0.126 2.253,-0.191c0.782,-0.059 1.564,-0.118 2.37,-0.178c0.8,-0.064 1.599,-0.127 2.423,-0.193c6.114,-0.459 12.168,-0.64 18.296,-0.463Z" style="fill-rule:nonzero;"/><path d="M241.875,34.406c0.905,-0.002 1.81,-0.004 2.742,-0.006c2.133,0.1 2.133,0.1 2.883,0.85c0.188,1.828 0.188,1.828 0,3.75c-2.492,1.661 -3.783,1.824 -6.721,2.139c-0.896,0.097 -1.792,0.193 -2.716,0.293c-0.939,0.095 -1.878,0.189 -2.845,0.287c-0.91,0.101 -1.82,0.201 -2.757,0.305c-12.233,1.279 -12.233,1.279 -17.962,0.727c-0.495,-0.495 -0.99,-0.99 -1.5,-1.5c0.141,-1.5 0.141,-1.5 0.75,-3c2.833,-1.889 5.419,-1.988 8.719,-2.297c0.577,-0.058 1.154,-0.117 1.749,-0.177c1.172,-0.119 2.345,-0.235 3.518,-0.348c1.745,-0.176 3.486,-0.382 5.227,-0.591c2.978,-0.334 5.914,-0.437 8.912,-0.431Z" style="fill-rule:nonzero;"/><path d="M369,0c1.453,0.281 1.453,0.281 3,0.75c1.016,2.032 0.799,3.757 0.75,6l7.5,0c0.75,3 0.75,3 0,4.5c-1.986,0.445 -3.969,0.557 -6,0.75l0,6c-1.406,0.469 -1.406,0.469 -3,0.75c-1.924,-1.924 -1.905,-3.358 -2.25,-6c-1.98,-0.247 -3.96,-0.495 -6,-0.75c-0.248,-0.99 -0.495,-1.98 -0.75,-3c4.219,-1.5 4.219,-1.5 6.75,-1.5c-0.139,-0.959 -0.278,-1.918 -0.422,-2.906c-0.422,-2.906 -0.422,-2.906 0.422,-4.594Z" style="fill-rule:nonzero;"/><path d="M297.75,30c0.495,0.495 0.99,0.99 1.5,1.5c-0.417,3.417 -0.417,3.417 -1.5,4.5c-2.251,0.306 -4.491,0.568 -6.75,0.797c-0.62,0.068 -1.239,0.136 -1.878,0.207c-8.933,0.93 -8.933,0.93 -12.372,0.497c-0.495,-0.495 -0.99,-0.99 -1.5,-1.5c0.188,-1.922 0.188,-1.922 0.75,-3.75c2.464,-1.232 5.212,-1.253 7.922,-1.547c0.581,-0.068 1.161,-0.136 1.759,-0.207c8.5,-0.941 8.5,-0.941 12.069,-0.497Z" style="fill-rule:nonzero;"/><path d="M199.125,16.031c3.322,0.593 4.419,1.492 6.375,4.219c0.419,2.934 0.174,5.033 -1.5,7.5c-2.813,1.875 -4.169,1.902 -7.5,1.5c-2.769,-1.944 -3.622,-3.031 -4.219,-6.375c0.761,-4.262 2.582,-6.083 6.844,-6.844Z" style="fill-rule:nonzero;"/><path d="M201,34.828c1.843,0.161 3.102,0.464 4.828,1.172c1.807,2.313 2.251,4.591 1.922,7.5c-1.805,2.57 -3.048,3.535 -6.047,4.453c-2.322,0.049 -3.331,-0.116 -5.203,-1.453c-1.767,-2.651 -1.867,-3.627 -1.5,-6.75c1.43,-3.217 2.442,-4.782 6,-4.922Z" style="fill-rule:nonzero;"/><path d="M205.5,54c2.769,1.944 3.622,3.031 4.219,6.375c-0.593,3.322 -1.492,4.419 -4.219,6.375c-2.814,0.528 -4.102,0.199 -6.656,-1.078c-2.029,-2.446 -2.099,-3.969 -1.904,-7.075c0.311,-1.597 0.311,-1.597 1.482,-3.519c2.578,-1.52 4.134,-1.543 7.078,-1.078Z" style="fill-rule:nonzero;"/><path d="M165,57c0.495,0.495 0.99,0.99 1.5,1.5c-0.281,1.594 -0.281,1.594 -0.75,3c-18.737,2.686 -18.737,2.686 -26.25,2.25c0.248,-1.237 0.495,-2.475 0.75,-3.75c3.14,-0.507 6.281,-1.004 9.422,-1.5c1.329,-0.215 1.329,-0.215 2.685,-0.434c8.926,-1.4 8.926,-1.4 12.643,-1.066Z" style="fill-rule:nonzero;"/><path d="M344.25,14.25c2.317,1.585 2.903,2.484 3.422,5.25c-0.422,2.25 -0.422,2.25 -1.969,4.078c-2.864,1.524 -4.369,1.295 -7.453,0.422c-1.746,-2.618 -1.877,-3.669 -1.5,-6.75c2.086,-3.048 3.891,-3.602 7.5,-3Z" style="fill-rule:nonzero;"/></svg>