<?xml version="1.0" encoding="UTF-8" standalone="no"?><!DOCTYPE svg PUBLIC "-//W3C//DTD SVG 1.1//EN" "http://www.w3.org/Graphics/SVG/1.1/DTD/svg11.dtd"><svg width="100%" height="100%" viewBox="0 0 241 284" version="1.1" xmlns="http://www.w3.org/2000/svg" xmlns:xlink="http://www.w3.org/1999/xlink" xml:space="preserve" xmlns:serif="http://www.serif.com/" style="fill-rule:evenodd;clip-rule:evenodd;stroke-linejoin:round;stroke-miterlimit:2;"><path d="M196.735,5.08c3.592,4.437 5.136,7.675 5.812,13.266l0.269,2.07c1.783,14.511 2.317,29.076 2.627,43.677c0.2,9.007 0.854,17.872 1.766,26.838c0.905,9.166 1.305,18.338 1.666,27.54c0.499,12.64 1.013,25.25 2.571,37.815c1.064,8.745 1.412,17.384 1.531,26.187c0.101,6.806 0.438,13.45 1.328,20.201c0.44,3.478 0.618,6.879 0.622,10.391l0.006,2.757c-0.008,1.842 -0.034,3.684 -0.076,5.525c0.04,4.709 0.238,7.752 3.463,11.332c1.083,1.044 2.168,2.084 3.258,3.12c1.682,2.078 3.23,4.246 4.781,6.422l1.25,1.744c2.776,3.91 5.433,7.884 7.984,11.944l0.931,1.48c3.463,5.622 4.65,10.053 3.803,16.661c-1.382,3.457 -3.465,6.389 -6.75,8.25c-4.262,1.421 -8.529,1.174 -12.665,-0.601c-8.05,-4.568 -17.533,-15.254 -20.335,-24.149l-1.547,0.703c-4.923,1.78 -10.269,1.77 -15.451,2.06l-4.758,0.28c-2.464,0.142 -4.929,0.284 -7.393,0.424c-8.063,0.463 -16.112,0.941 -24.148,1.76c-10.27,1.04 -20.575,1.606 -30.878,2.223c-2.136,0.129 -4.272,0.261 -6.408,0.393c-9.634,0.594 -19.266,1.167 -28.911,1.553c-6.961,0.279 -13.893,0.743 -20.835,1.331c-1.791,0.152 -3.582,0.298 -5.373,0.444l-3.5,0.29l-1.582,0.13c-2.558,0.218 -5.105,0.479 -7.652,0.806c-7.569,0.947 -16.458,1.791 -23.066,-2.648c-7.106,-6.361 -8.146,-13.366 -8.763,-22.441l-0.137,-1.951c-0.144,-2.057 -0.286,-4.114 -0.428,-6.17l-0.56,-8.004l-0.146,-2.095c-0.378,-5.4 -0.776,-10.799 -1.178,-16.198c-2.368,-31.837 -4.55,-63.679 -6.174,-95.564c-0.098,-1.916 -0.197,-3.832 -0.297,-5.748c-0.402,-7.775 -0.767,-15.55 -1.068,-23.329l-0.101,-2.532c-0.075,-2.112 -0.128,-4.223 -0.166,-6.336l-0.062,-1.721c-0.035,-6.005 3.259,-9.853 7.078,-14.208l1.086,-1.259c0.756,-0.876 1.514,-1.751 2.273,-2.624c1.114,-1.288 2.215,-2.587 3.312,-3.89c4.42,-5.234 8.983,-10.304 13.682,-15.289c2.157,-2.289 4.283,-4.586 6.319,-6.985c2.74,-3.193 5.757,-6.106 8.748,-9.06c2.272,-2.253 4.458,-4.531 6.533,-6.971c3.523,-4.135 6.676,-7.001 12.278,-7.462l1.994,-0.167l2.175,-0.173l2.282,-0.186c2.491,-0.201 4.982,-0.396 7.474,-0.59l2.61,-0.205c12.255,-0.957 24.5,-1.694 36.783,-2.168c9.249,-0.359 18.484,-0.836 27.721,-1.429l1.608,-0.103c5.305,-0.342 10.609,-0.691 15.912,-1.049c1.5,-0.101 3,-0.2 4.501,-0.299c1.838,-0.122 3.675,-0.246 5.512,-0.374c19.977,-1.318 26.853,4.362 26.853,4.362Zm-140.906,11.719c-1.5,0 -1.5,0 -2.446,0.938l-1.069,1.312l-1.207,1.453c-2.515,3.046 -5.07,6.067 -7.843,8.883c-2.235,2.2 -4.407,4.407 -6.466,6.773c-1.442,1.672 -2.892,3.333 -4.365,4.978c-2.58,2.856 -5.157,5.711 -7.682,8.616c-1.48,1.703 -2.979,3.381 -4.506,5.042c-3.627,3.936 -7.08,7.877 -10.166,12.255c4.007,0.092 7.924,-0.269 11.906,-0.656c3.839,-0.373 7.676,-0.752 11.525,-1.002l2.443,-0.144c1.594,-0.103 3.187,-0.206 4.781,-0.308c5.004,-0.23 8.819,-0.704 13.105,-3.412c2.302,-2.283 3.379,-4.737 3.735,-7.941l-0.059,-2.387c-0.032,-1.432 -0.065,-2.865 -0.119,-4.296l-0.068,-1.604c-0.179,-4.325 -0.398,-8.647 -0.641,-12.969c-0.074,-1.31 -0.147,-2.621 -0.218,-3.932c-0.21,-3.867 -0.424,-7.733 -0.641,-11.6Zm118.166,104.112c-17.079,-12.143 -42.308,-10.61 -57.686,4.107l-1.23,1.28c-9.189,9.075 -13.987,20.014 -14.484,32.918c-0.257,14.961 3.485,26.08 13.916,37.11c10.25,9.964 22.485,12.633 36.334,12.659c11.693,-0.032 21.397,-4.121 29.789,-12.486c9.383,-10.7 14.475,-24.409 14.351,-38.601c-0.46,-11.569 -5.236,-23.023 -13.786,-30.947l-1.62,-1.403c-1.825,-1.603 -3.666,-3.148 -5.584,-4.638Zm-59.735,63.22c-4.854,-8.174 -6.583,-16.885 -6.069,-26.339c0.335,-3.274 1.046,-6.508 2.142,-9.62c3.614,-8.609 7.774,-15.347 14.848,-20.396c1.947,-1.32 4.024,-2.492 6.191,-3.48c13.391,-5.019 26.621,-4.113 38.911,3.143c1.314,0.84 2.589,1.76 3.82,2.761c2.212,1.948 4.128,4.137 5.768,6.51c4.516,6.782 7.206,15.165 7.238,23.203c-0.004,0.569 -0.016,1.142 -0.037,1.718c-1.006,12.246 -4.075,22.137 -12.723,30.489c-2.084,1.89 -4.321,3.55 -6.872,5.054c-7.518,4.304 -15.467,5.612 -24.448,5.01c-2.414,-0.294 -4.802,-0.787 -7.121,-1.459c-0.27,-0.087 -0.539,-0.178 -0.807,-0.271c-8.73,-3.387 -15.771,-8.784 -20.842,-16.323Zm9.819,-48.832c-7.568,8.872 -10.936,20.741 -10.685,32.291c0.766,9.163 5.937,17.736 12.85,23.675c7.808,5.787 17.157,7.098 26.604,6.097c8.836,-1.504 16.604,-7.397 22.093,-14.268c5.88,-8.871 7.464,-20.12 6.138,-30.545c-1.953,-8.396 -6.84,-16.614 -14.039,-21.542c-13.938,-7.804 -31.324,-7.996 -42.961,4.292Zm-16.5,-12l1.5,2.25l4.269,-7.561c0,0 9.73,-2.641 12.231,-4.439c1.421,-0.721 2.855,-1.418 4.312,-2.062l1.957,-0.879l1.98,-0.809l1.913,-0.835c13.032,-3.35 26.689,-0.707 38.212,5.663c13.823,8.612 21.856,22.757 25.582,38.332c2.027,12.729 -1.63,26.746 -7.957,37.84c-0.687,0.918 -1.383,1.83 -2.089,2.733c-1.233,1.694 -1.647,2.269 -1.767,4.406c1.217,2.647 2.892,4.685 4.793,6.876l1.087,1.32c2.121,2.486 3.75,3.979 6.976,4.915c2.671,1.068 3.344,1.899 4.5,4.5c0.966,1.522 1.962,3.026 3,4.5l0.75,0c0.162,-7.225 0.006,-14.321 -0.703,-21.516c-0.647,-6.616 -0.936,-13.183 -1.078,-19.828c-0.231,-9.922 -1.034,-19.747 -1.969,-29.625c-0.964,-10.195 -1.75,-20.303 -1.979,-30.545c-0.181,-7.115 -0.737,-14.165 -1.349,-21.252c-0.98,-11.384 -1.52,-22.754 -1.922,-34.172c-0.397,-11.083 -0.877,-22.137 -1.828,-33.188l-0.127,-1.558c-0.571,-10.734 -0.571,-10.734 -5.967,-19.489c-5.906,-4.483 -14.349,-2.552 -21.422,-2.25l-2.317,0.089l-2.282,0.095l-2.019,0.083c-1.729,0.116 -3.454,0.298 -5.174,0.51c-4.744,0.542 -9.51,0.683 -14.278,0.867c-1.741,0.067 -3.482,0.138 -5.223,0.209c-4.32,0.176 -8.64,0.347 -12.96,0.517c-3.663,0.145 -7.325,0.292 -10.988,0.441c-1.708,0.069 -3.416,0.135 -5.123,0.201l-3.163,0.129l-2.77,0.109c-2.65,0.173 -5.233,0.52 -7.857,0.921c-1.092,0.089 -2.186,0.162 -3.281,0.211l-1.723,0.085l-3.492,0.158c-3.462,0.171 -6.82,0.552 -10.254,1.046c-2.712,0.209 -5.428,0.326 -8.145,0.454c-2.85,0.148 -5.575,0.387 -8.355,1.046c-0.18,6.881 0.085,13.588 0.75,20.438c2.081,22.603 2.081,22.603 -1.125,27.891c-4.613,5.398 -9.641,6.999 -16.533,7.562l-1.587,0.123l-1.679,0.136c-1.181,0.096 -2.363,0.19 -3.544,0.284c-3.053,0.243 -6.106,0.495 -9.158,0.746l-1.811,0.149c-4.737,0.391 -9.472,0.805 -14.203,1.266l-1.83,0.171c-2.613,0.057 -2.613,0.057 -4.78,1.235c-0.466,8.92 0.279,17.887 0.875,26.783c0.215,3.21 0.422,6.42 0.629,9.63l0.314,4.855c0.414,6.383 0.784,12.767 1.135,19.154c0.674,12.077 1.433,24.149 2.198,36.221l0.289,4.582c0.667,10.56 1.355,21.117 2.103,31.672l0.179,2.536c0.384,5.346 0.833,10.684 1.324,16.021c0.448,4.895 0.786,9.768 0.959,14.681c0.185,10.672 0.185,10.672 4.432,20.241c5.443,4.948 10.789,4.366 17.812,4.125c3.95,-0.196 7.892,-0.5 11.834,-0.81c1.93,-0.152 3.861,-0.299 5.792,-0.445c3.418,-0.259 6.835,-0.522 10.252,-0.787c6.089,-0.472 12.179,-0.939 18.269,-1.4l1.974,-0.15c8.078,-0.61 16.146,-1.133 24.242,-1.43c6.957,-0.257 13.887,-0.797 20.826,-1.353c2.488,-0.198 4.976,-0.393 7.465,-0.586l1.848,-0.143c4.244,-0.321 8.488,-0.564 12.739,-0.771c6.683,-0.328 13.333,-0.879 19.995,-1.5c2.138,-0.197 4.275,-0.392 6.413,-0.586l1.548,-0.141c5.014,-0.451 10.032,-0.811 15.055,-1.148c-1.073,-2.288 -2.341,-4.284 -3.812,-6.337l-1.37,-1.929c-0.942,-1.319 -1.886,-2.638 -2.83,-3.955c-7.743,-10.92 -7.743,-10.92 -8.723,-16.935c-1.137,-5.12 -3.709,-9.022 -7.266,-12.844c-2.718,-0.906 -3.225,-0.519 -5.766,0.609c-11.833,5.228 -25.923,4.247 -37.863,-0.243c-8.899,-3.57 -17.547,-8.867 -22.395,-17.493c-1.61,-2.809 -1.61,-2.809 -4.362,-4.259c-1.806,-0.047 -3.521,0.095 -5.317,0.292l-2.109,0.161c-2.565,0.202 -5.126,0.444 -7.688,0.683c-4.139,0.355 -8.28,0.687 -12.421,1.02c-1.249,0.101 -2.499,0.204 -3.748,0.307c-9.379,0.777 -18.665,1.228 -28.081,0.923c-0.422,-1.453 -0.422,-1.453 -0.75,-3c1.446,-1.446 4.088,-1.101 6.068,-1.248l1.685,-0.133c1.846,-0.145 3.693,-0.286 5.539,-0.426l3.831,-0.299c3.367,-0.263 6.734,-0.522 10.102,-0.78c3.434,-0.264 6.867,-0.532 10.3,-0.799c6.741,-0.525 13.483,-1.045 20.225,-1.563c-0.236,-1.081 -0.473,-2.163 -0.71,-3.244l-0.399,-1.825c-0.446,-1.92 -1.029,-3.783 -1.609,-5.666c-3.675,-14.776 -0.093,-29.02 7.215,-42.021c1.49,-2.462 3.224,-4.466 5.254,-6.495l-1.5,-2.25l-0.214,0.779l-0.888,0l-8.871,0.847c-21.116,1.53 -12.116,0.78 -22.389,1.052c-3.569,0.12 -6.971,0.477 -10.491,1.09c-5.802,0.946 -11.527,0.899 -17.382,0.826l-3.227,-0.021c-2.596,-0.016 -5.192,-0.042 -7.789,-0.073l0.75,-3c5.283,-1.232 10.336,-1.741 15.75,-1.875c5.264,-0.179 10.473,-0.444 15.703,-1.078c5.026,-0.605 10.05,-1.119 15.094,-1.547l2.227,-0.194c4.068,-0.337 8.13,-0.598 12.207,-0.76c2.219,-0.088 4.437,-0.19 6.655,-0.291c1.083,-0.045 2.165,-0.082 3.249,-0.111c0.621,-0.017 -0.385,4.355 -0.385,4.355Zm75.75,78c-0.905,1.032 -0.905,1.032 -2.25,2.25c-2.635,1.686 -4.243,2.23 -5.25,5.25l1.075,1.532l1.503,1.608c0.884,0.96 1.772,1.915 2.672,2.859c2.011,-1.715 3.89,-3.074 6.234,-4.312l2.016,-0.938c0,-2.25 0,-2.25 -0.741,-3.592l-0.993,-1.377c-1.43,-2.035 -1.807,-2.462 -4.266,-3.281Z"/><path d="M169.829,80.549c0.743,0.743 0.743,0.743 1.5,1.5c-0.141,1.5 -0.141,1.5 -0.75,3c-2.806,1.871 -5.233,1.898 -8.499,2.112c-0.621,0.046 -1.242,0.092 -1.882,0.14c-1.992,0.146 -3.985,0.283 -5.978,0.42c-1.31,0.095 -2.62,0.19 -3.93,0.286c-4.797,0.348 -9.594,0.689 -14.393,1c-0.933,0.062 -1.865,0.124 -2.826,0.188c-1.205,0.077 -1.205,0.077 -2.434,0.155c-1.955,0.131 -1.955,0.131 -3.395,0.567c-2.111,0.486 -4.149,0.591 -6.313,0.708c-0.947,0.053 -1.894,0.106 -2.87,0.16c-0.507,0.027 -1.013,0.054 -1.535,0.081c-1.609,0.085 -3.217,0.174 -4.825,0.264c-2.294,0.128 -4.587,0.254 -6.881,0.38c-5.925,0.324 -11.848,0.658 -17.772,0.998c-0.581,0.033 -1.163,0.067 -1.761,0.101c-10.339,0.597 -20.661,1.328 -30.973,2.292c-6.437,0.583 -13.02,1.173 -19.481,0.648c-0.495,-0.495 -0.99,-0.99 -1.5,-1.5c0.281,-1.594 0.281,-1.594 0.75,-3c6.409,-1.582 12.841,-1.925 19.406,-2.25c2.077,-0.103 4.153,-0.214 6.229,-0.328c0.911,-0.045 1.821,-0.091 2.759,-0.138c2.483,-0.178 4.889,-0.583 7.339,-1.024c4.964,-0.857 9.882,-1.138 14.91,-1.346c1.42,-0.066 1.42,-0.066 2.87,-0.134c2.501,-0.117 5.003,-0.229 7.504,-0.339c15.775,-0.692 31.509,-1.401 47.171,-3.488c18.922,-2.465 18.922,-2.465 27.562,-1.453Z" style="fill-rule:nonzero;"/><path d="M167.579,49.049c0.743,0.742 0.743,0.742 1.5,1.5c-0.188,1.922 -0.188,1.922 -0.75,3.75c-1.825,0.912 -3.151,0.921 -5.191,1.03c-0.769,0.043 -1.537,0.085 -2.329,0.129c-0.834,0.043 -1.667,0.086 -2.526,0.13c-0.855,0.047 -1.709,0.094 -2.59,0.143c-2.741,0.151 -5.482,0.297 -8.224,0.443c-2.733,0.146 -5.467,0.293 -8.2,0.443c-1.703,0.094 -3.406,0.185 -5.108,0.273c-1.164,0.064 -1.164,0.064 -2.351,0.129c-0.68,0.036 -1.36,0.072 -2.061,0.109c-1.936,0.172 -3.769,0.533 -5.671,0.921c-1.049,0.098 -2.101,0.172 -3.153,0.223c-0.596,0.03 -1.192,0.06 -1.806,0.091c-0.634,0.029 -1.269,0.058 -1.923,0.088c-0.663,0.032 -1.326,0.064 -2.009,0.098c-1.4,0.067 -2.8,0.134 -4.2,0.198c-2.128,0.099 -4.256,0.202 -6.384,0.306c-1.365,0.065 -2.729,0.13 -4.094,0.195c-0.63,0.03 -1.26,0.061 -1.909,0.092c-10.71,0.49 -10.71,0.49 -12.772,-0.541c0.656,-3.656 0.656,-3.656 1.5,-4.5c3.388,-0.576 6.746,-0.888 10.175,-1.072c0.954,-0.054 1.907,-0.107 2.89,-0.163c0.758,-0.042 0.758,-0.042 1.531,-0.084c11.316,-0.626 22.61,-1.46 33.904,-2.391c5.629,-0.462 11.256,-0.89 16.894,-1.224c0.512,-0.03 1.025,-0.061 1.553,-0.092c9.987,-0.568 9.987,-0.568 13.303,-0.224Z" style="fill-rule:nonzero;"/><path d="M156.651,134.297c5.906,2.35 10.884,6.634 14.036,12.164c1.134,2.807 1.455,5.401 0.642,8.338c-2.167,2.115 -3.813,2.81 -6.703,3.609c-3.316,-0.88 -4.364,-3.005 -6.319,-5.716c-2.489,-3.332 -5.217,-3.969 -9.103,-4.925c-3.548,-0.93 -5.824,-1.745 -7.875,-4.969c-0.183,-3.41 0.386,-4.8 2.531,-7.453c3.769,-2.729 8.499,-2.222 12.791,-1.049Zm-1.058,2.798c-3.648,-0.713 -6.567,-0.927 -9.765,1.204c-0.609,1.875 -0.609,1.875 -0.75,3.75c1.5,1.5 1.5,1.5 3.076,2.007c6.723,1.696 11.296,4.295 15.65,9.727l0.773,1.017c1.456,-0.645 1.456,-0.645 3,-1.5c0.968,-2.323 0.842,-3.473 0.047,-5.859c-3.009,-4.65 -6.613,-8.688 -12.032,-10.345Z"/><path d="M118.829,217.049c0.469,1.781 0.469,1.781 0.75,3.75c-2.217,2.217 -4.74,1.965 -7.734,2.203c-0.673,0.058 -1.346,0.117 -2.039,0.177c-1.57,0.135 -3.14,0.265 -4.71,0.393c-1.992,0.163 -3.984,0.329 -5.976,0.5c-18.447,1.577 -36.764,2.906 -55.291,2.727c-0.248,-1.238 -0.495,-2.475 -0.75,-3.75c1.031,-0.236 2.062,-0.47 3.094,-0.703c0.574,-0.131 1.149,-0.261 1.74,-0.396c3.76,-0.788 7.484,-1.284 11.314,-1.581c1.44,-0.113 1.44,-0.113 2.908,-0.227c1.042,-0.079 2.083,-0.158 3.125,-0.237c1.086,-0.083 2.172,-0.166 3.258,-0.249c2.279,-0.174 4.558,-0.345 6.837,-0.516c2.309,-0.173 4.618,-0.35 6.927,-0.53c24.507,-1.911 24.507,-1.911 36.547,-1.561Z" style="fill-rule:nonzero;"/><path d="M79.079,152.549c0.495,0.495 0.99,0.99 1.5,1.5c-0.275,2.201 -0.648,2.898 -2.25,4.5c-2.415,0.528 -4.898,0.644 -7.359,0.844c-0.747,0.064 -1.495,0.127 -2.265,0.193c-9.778,0.744 -19.577,0.599 -29.376,0.463c-0.469,-1.406 -0.469,-1.406 -0.75,-3c3.156,-3.156 8.774,-2.419 13.031,-2.578c4.851,-0.206 9.628,-0.555 14.438,-1.219c9.285,-1.25 9.285,-1.25 13.031,-0.703Z" style="fill-rule:nonzero;"/></svg>