<?xml version="1.0" encoding="UTF-8" standalone="no"?>
<!DOCTYPE svg PUBLIC "-//W3C//DTD SVG 1.1//EN" "http://www.w3.org/Graphics/SVG/1.1/DTD/svg11.dtd">
<svg width="100%" height="100%" viewBox="0 0 241 284" version="1.1" xmlns="http://www.w3.org/2000/svg" xmlns:xlink="http://www.w3.org/1999/xlink" xml:space="preserve" xmlns:serif="http://www.serif.com/" style="fill-rule:evenodd;clip-rule:evenodd;stroke-linejoin:round;stroke-miterlimit:2;">
    <path d="M196.735,5.08C200.327,9.517 201.871,12.755 202.547,18.346L202.816,20.416C204.599,34.927 204.133,58.492 204.443,73.093C204.643,82.1 206.297,81.965 207.209,90.931C208.114,100.097 207.514,116.269 207.875,125.471C208.374,138.111 209.888,143.721 211.446,156.286C212.51,165.031 212.858,173.67 212.977,182.473C213.078,189.279 213.415,195.923 214.305,202.674C214.745,206.152 214.923,209.553 214.927,213.065L214.933,215.822C214.925,217.664 214.899,219.506 214.857,221.347C214.897,226.056 215.095,229.099 218.32,232.679C219.403,233.723 220.488,234.763 221.578,235.799C223.26,237.877 224.808,240.045 226.359,242.221L227.609,243.965C230.385,247.875 233.042,251.849 235.593,255.909L236.524,257.389C239.987,263.011 241.174,267.442 240.327,274.05C238.945,277.507 236.862,280.439 233.577,282.3C229.315,283.721 225.048,283.474 220.912,281.699C212.862,277.131 203.379,266.445 200.577,257.55L199.03,258.253C194.107,260.033 188.761,260.023 183.579,260.313L178.821,260.593C176.357,260.735 173.892,260.877 171.428,261.017C163.365,261.48 155.316,261.958 147.28,262.777C137.01,263.817 126.705,264.383 116.402,265C114.266,265.129 112.13,265.261 109.994,265.393C100.36,265.987 90.728,266.56 81.083,266.946C74.122,267.225 77.19,265.689 70.248,266.277C68.457,266.429 56.666,268.575 54.875,268.721L51.375,269.011L49.793,269.141C47.235,269.359 44.688,269.62 42.141,269.947C34.572,270.894 22.683,265.738 16.075,261.299C8.969,254.938 10.929,253.933 10.312,244.858L10.175,242.907C10.031,240.85 9.889,238.793 9.747,236.737L9.187,228.733L9.041,226.638C8.663,221.238 8.265,208.839 7.863,203.44C5.495,171.603 3.313,146.761 1.689,114.876C1.591,112.96 1.492,111.044 1.392,109.128C0.99,101.353 0.625,93.578 0.324,85.799L0.223,83.267C0.148,81.155 0.095,79.044 0.057,76.931L-0.005,75.21C-0.04,69.205 3.254,65.357 7.073,61.002L8.159,59.743C8.915,58.867 9.673,57.992 10.432,57.119C11.546,55.831 12.647,54.532 13.744,53.229C18.164,47.995 20.727,46.925 25.426,41.94C27.583,39.651 31.709,33.354 33.745,30.955C36.485,27.762 39.502,21.849 42.493,18.895C44.765,16.642 46.951,17.364 49.026,14.924C52.549,10.789 55.702,7.923 61.304,7.462L63.298,7.295L65.473,7.122L67.755,6.936C70.246,6.735 72.737,6.54 75.229,6.346L77.839,6.141C90.094,5.184 102.339,4.447 114.622,3.973C123.871,3.614 133.106,3.137 142.343,2.544L143.951,2.441C149.256,2.099 154.56,1.75 159.863,1.392C161.363,1.291 162.863,1.192 164.364,1.093C166.202,0.971 168.039,0.847 169.876,0.719C189.853,-0.599 196.729,5.081 196.729,5.081L196.735,5.08ZM55.829,16.799C54.329,16.799 54.329,16.799 53.383,17.737L52.314,19.049L51.107,20.502C49.465,21.306 49.688,17.188 43.264,29.385C41.803,32.16 38.857,33.792 36.798,36.158C35.356,37.83 33.906,39.491 32.433,41.136C29.853,43.992 27.276,46.847 24.751,49.752C23.271,51.455 21.772,53.133 20.245,54.794C16.618,58.73 13.165,62.671 10.079,67.049C14.086,67.141 19.003,68.78 22.985,68.393C26.824,68.02 29.661,65.641 33.51,65.391L35.953,65.247C37.547,65.144 41.14,66.041 42.734,65.939C47.738,65.709 49.553,64.235 53.839,61.527C56.141,59.244 57.218,56.79 57.574,53.586L57.515,51.199C57.483,49.767 57.45,48.334 57.396,46.903L57.328,45.299C57.149,40.974 56.93,36.652 56.687,32.33C56.613,31.02 56.54,29.709 56.469,28.398C56.259,24.531 56.045,20.665 55.828,16.798L55.829,16.799ZM173.995,120.911C156.916,108.768 131.687,110.301 116.309,125.018L115.079,126.298C105.89,135.373 99.092,144.312 98.595,157.216C98.338,172.177 104.08,185.296 114.511,196.326C124.761,206.29 136.996,208.959 150.845,208.985C162.538,208.953 172.242,204.864 180.634,196.499C190.017,185.799 195.109,172.09 194.985,157.898C194.525,146.329 189.749,134.875 181.199,126.951L179.579,125.548C177.754,123.945 175.913,122.4 173.995,120.91L173.995,120.911ZM114.26,184.131C109.406,175.957 107.677,167.246 108.191,157.792C108.526,154.518 109.237,151.284 110.333,148.172C113.947,139.563 118.107,132.825 125.181,127.776C127.128,126.456 129.205,125.284 131.372,124.296C144.763,119.277 157.993,120.183 170.283,127.439C171.597,128.279 172.872,129.199 174.103,130.2C176.315,132.148 178.231,134.337 179.871,136.71C184.387,143.492 187.077,151.875 187.109,159.913C187.105,160.482 187.093,161.055 187.072,161.631C186.066,173.877 182.997,183.768 174.349,192.12C172.265,194.01 170.028,195.67 167.477,197.174C159.959,201.478 152.01,202.786 143.029,202.184C140.615,201.89 138.227,201.397 135.908,200.725C135.638,200.638 135.369,200.547 135.101,200.454C126.371,197.067 119.33,191.67 114.259,184.131L114.26,184.131ZM124.079,135.299C116.511,144.171 113.143,156.04 113.394,167.59C114.16,176.753 119.331,185.326 126.244,191.265C134.052,197.052 143.401,198.363 152.848,197.362C161.684,195.858 169.452,189.965 174.941,183.094C180.821,174.223 182.405,162.974 181.079,152.549C179.126,144.153 174.239,135.935 167.04,131.007C153.102,123.203 135.716,123.011 124.079,135.299ZM107.579,123.299L109.079,125.549L113.348,117.988C113.348,117.988 123.078,115.347 125.579,113.549C127,112.828 128.434,112.131 129.891,111.487L131.848,110.608L133.828,109.799L135.741,108.964C148.773,105.614 162.43,108.257 173.953,114.627C187.776,123.239 195.809,137.384 199.535,152.959C201.562,165.688 197.905,179.705 191.578,190.799C190.891,191.717 190.195,192.629 189.489,193.532C188.256,195.226 187.842,195.801 187.722,197.938C188.939,200.585 190.614,202.623 192.515,204.814L193.602,206.134C195.723,208.62 197.352,210.113 200.578,211.049C203.249,212.117 203.922,212.948 205.078,215.549C206.044,217.071 207.04,218.575 208.078,220.049L208.828,220.049C208.99,212.824 208.834,205.728 208.125,198.533C207.478,191.917 209.189,177.35 209.047,170.705C208.816,160.783 206.013,158.958 205.078,149.08C204.114,138.885 203.328,128.777 203.099,118.535C202.918,111.42 202.362,104.37 201.75,97.283C200.77,85.899 200.23,74.529 199.828,63.111C199.431,52.028 198.951,40.974 198,29.923L197.873,28.365C197.302,17.631 197.302,17.631 191.906,8.876C186,4.393 177.557,6.324 170.484,6.626L168.167,6.715L165.885,6.81L163.866,6.893C162.137,7.009 160.412,7.191 158.692,7.403C153.948,7.945 149.182,8.086 144.414,8.27C142.673,8.337 140.932,8.408 139.191,8.479C134.871,8.655 130.551,8.826 126.231,8.996C122.568,9.141 118.906,9.288 115.243,9.437C113.535,9.506 111.827,9.572 110.12,9.638L106.957,9.767L104.187,9.876C101.537,10.049 98.954,10.396 96.33,10.797C95.238,10.886 94.144,10.959 93.049,11.008L91.326,11.093L87.834,11.251C84.372,11.422 81.014,11.803 77.58,12.297C74.868,12.506 72.152,12.623 69.435,12.751C66.585,12.899 63.86,13.138 61.08,13.797C60.9,20.678 60.165,31.385 60.83,38.235C62.911,60.838 63.911,56.838 60.705,62.126C56.092,67.524 51.064,69.125 44.172,69.688L42.585,69.811L40.906,69.947C39.725,70.043 38.543,70.137 37.362,70.231C34.309,70.474 31.256,70.726 28.204,70.977L26.393,71.126C21.656,71.517 16.921,71.931 12.19,72.392L10.36,72.563C7.747,72.62 7.747,72.62 5.58,73.798C5.114,82.718 5.859,91.685 6.455,100.581C6.67,103.791 6.877,107.001 7.084,110.211L7.398,115.066C7.812,121.449 6.182,128.833 6.533,135.22C7.207,147.297 9.966,158.369 10.731,170.441L10.02,177.023C10.687,187.583 12.375,196.14 13.123,206.695L13.302,209.231C13.686,214.577 14.135,219.915 14.626,225.252C15.074,230.147 15.412,235.02 15.585,239.933C15.77,250.605 15.77,250.605 20.017,260.174C25.46,265.122 30.806,264.54 37.829,264.299C41.779,264.103 45.721,263.799 49.663,263.489C51.593,263.337 53.524,263.19 55.455,263.044C58.873,262.785 62.29,262.522 65.707,262.257C71.796,261.785 77.886,261.318 83.976,260.857L85.95,260.707C94.028,260.097 102.096,260.574 110.192,260.277C117.149,260.02 124.079,258.48 131.018,257.924C133.506,257.726 140.331,257.195 140.331,257.195C144.575,256.874 144.819,258.631 149.07,258.424C155.753,258.096 166.403,255.545 173.065,254.924C175.203,254.727 177.34,254.532 179.478,254.338L181.026,254.197C186.04,253.746 191.058,253.386 196.081,253.049C195.008,250.761 193.74,248.765 192.269,246.712L190.899,244.783C189.957,243.464 189.013,242.145 188.069,240.828C180.326,229.908 180.326,229.908 179.346,223.893C178.209,218.773 175.637,214.871 172.08,211.049C169.362,210.143 168.855,210.53 166.314,211.658C154.481,216.886 140.391,215.905 128.451,211.415C119.552,207.845 110.904,202.548 106.056,193.922C104.446,191.113 104.446,191.113 101.694,189.663C99.888,189.616 98.173,189.758 96.377,189.955L94.268,190.116C91.703,190.318 89.142,190.56 86.58,190.799C82.441,191.154 78.3,191.486 74.159,191.819C72.91,191.92 71.66,192.023 70.411,192.126C61.032,192.903 51.746,193.354 42.33,193.049C41.908,191.596 41.908,191.596 41.58,190.049C43.026,188.603 45.668,188.948 47.648,188.801L49.333,188.668C51.179,188.523 53.026,188.382 54.872,188.242L58.703,187.943C62.07,187.68 65.437,187.421 68.805,187.163C72.239,186.899 75.672,186.631 79.105,186.364C85.846,185.839 92.588,185.319 99.33,184.801C99.094,183.72 98.857,182.638 98.62,181.557L98.221,179.732C97.775,177.812 97.192,175.949 96.612,174.066C92.937,159.29 96.519,145.046 103.827,132.045C105.317,129.583 107.051,127.579 109.081,125.55L107.581,123.3L107.367,124.079L106.479,124.079L97.608,124.926C76.492,126.456 85.492,125.706 75.219,125.978C71.65,126.098 68.248,126.455 64.728,127.068C58.926,128.014 53.201,127.967 47.346,127.894L44.119,127.873C41.523,127.857 38.927,127.831 36.33,127.8L37.08,124.8C42.363,123.568 47.416,123.059 52.83,122.925C58.094,122.746 63.303,123.481 68.533,122.847C73.559,122.242 78.583,120.728 83.627,120.3L85.854,120.106C89.922,119.769 93.984,119.508 98.061,119.346C100.28,119.258 102.498,119.156 104.716,119.055C105.799,119.01 106.881,118.973 107.965,118.944C108.586,118.927 107.58,123.299 107.58,123.299L107.579,123.299ZM183.329,201.299C182.424,202.331 182.424,202.331 181.079,203.549C178.444,205.235 176.836,205.779 175.829,208.799L176.904,210.331L178.407,211.939C179.291,212.899 180.179,213.854 181.079,214.798C183.09,213.083 184.969,211.724 187.313,210.486L189.329,209.548C189.329,207.298 189.329,207.298 188.588,205.956L187.595,204.579C186.165,202.544 185.788,202.117 183.329,201.298L183.329,201.299Z"/>
    <path d="M169.829,80.549C170.572,81.292 170.572,81.292 171.329,82.049C171.188,83.549 171.188,83.549 170.579,85.049C167.773,86.92 165.346,86.947 162.08,87.161C161.459,87.207 160.838,87.253 160.198,87.301C158.206,87.447 156.213,87.584 154.22,87.721C152.91,87.816 151.6,87.911 150.29,88.007C145.493,88.355 140.696,88.696 135.897,89.007C134.964,89.069 134.032,89.131 133.071,89.195C131.866,89.272 131.866,89.272 130.637,89.35C128.682,89.481 128.682,89.481 127.242,89.917C125.131,90.403 123.093,90.508 120.929,90.625C119.982,90.678 119.035,90.731 118.059,90.785C117.552,90.812 117.046,90.839 116.524,90.866C114.915,90.951 113.307,91.04 111.699,91.13C109.405,91.258 107.112,91.384 104.818,91.51C98.893,91.834 92.97,92.168 87.046,92.508C86.465,92.541 85.883,92.575 85.285,92.609C74.946,93.206 64.624,93.937 54.312,94.901C47.875,95.484 41.292,96.074 34.831,95.549C34.336,95.054 33.841,94.559 33.331,94.049C33.612,92.455 33.612,92.455 34.081,91.049C40.49,89.467 46.922,89.124 53.487,88.799C55.564,88.696 57.64,88.585 59.716,88.471C60.627,88.426 61.537,88.38 62.475,88.333C64.958,88.155 67.364,87.75 69.814,87.309C74.778,86.452 79.696,86.171 84.724,85.963C86.144,85.897 86.144,87.897 87.594,87.829C90.095,87.712 110.597,85.6 113.098,85.49C128.873,84.798 126.607,84.089 142.269,82.002C161.191,79.537 161.191,79.537 169.831,80.549L169.829,80.549Z" style="fill-rule:nonzero;"/>
    <path d="M167.579,49.049C168.322,49.791 168.322,49.791 169.079,50.549C168.891,52.471 168.891,52.471 168.329,54.299C166.504,55.211 165.178,55.22 163.138,55.329C162.369,55.372 161.601,55.414 160.809,55.458C159.975,55.501 159.142,55.544 158.283,55.588C157.428,55.635 156.574,55.682 155.693,55.731C152.952,55.882 150.211,56.028 147.469,56.174C144.736,56.32 142.002,56.467 139.269,56.617C137.566,56.711 135.863,56.802 134.161,56.89C132.997,56.954 132.997,56.954 131.81,57.019C131.13,57.055 130.45,57.091 129.749,57.128C127.813,57.3 125.98,57.661 124.078,58.049C123.029,58.147 121.977,58.221 120.925,58.272C120.329,58.302 119.733,58.332 119.119,58.363C118.485,58.392 117.85,58.421 117.196,58.451C116.533,58.483 115.87,58.515 115.187,58.549C113.787,58.616 112.387,58.683 110.987,58.747C108.859,58.846 106.731,58.949 104.603,59.053C103.238,59.118 101.874,59.183 100.509,59.248C99.879,59.278 99.249,59.309 98.6,59.34C87.89,59.83 87.89,59.83 85.828,58.799C86.484,55.143 86.484,55.143 87.328,54.299C90.716,53.723 94.074,53.411 97.503,53.227C98.457,53.173 99.41,53.12 100.393,53.064C101.151,53.022 101.151,53.022 101.924,52.98C113.24,52.354 121.534,53.52 132.828,52.589C138.457,52.127 147.084,49.699 152.722,49.365C153.234,49.335 153.747,49.304 154.275,49.273C164.262,48.705 164.262,48.705 167.578,49.049L167.579,49.049Z" style="fill-rule:nonzero;"/>
    <path d="M156.651,134.297C162.557,136.647 167.535,140.931 170.687,146.461C171.821,149.268 172.142,151.862 171.329,154.799C169.162,156.914 167.516,157.609 164.626,158.408C161.31,157.528 160.262,155.403 158.307,152.692C155.818,149.36 153.09,148.723 149.204,147.767C145.656,146.837 143.38,146.022 141.329,142.798C141.146,139.388 141.715,137.998 143.86,135.345C147.629,132.616 152.359,133.123 156.651,134.296L156.651,134.297ZM155.593,137.095C151.945,136.382 149.026,136.168 145.828,138.299C145.219,140.174 145.219,140.174 145.078,142.049C146.578,143.549 146.578,143.549 148.154,144.056C154.877,145.752 159.45,148.351 163.804,153.783L164.577,154.8C166.033,154.155 166.033,154.155 167.577,153.3C168.545,150.977 168.419,149.827 167.624,147.441C164.615,142.791 161.011,138.753 155.592,137.096L155.593,137.095Z"/>
    <path d="M118.829,217.049C119.298,218.83 119.298,218.83 119.579,220.799C117.362,223.016 114.839,222.764 111.845,223.002C111.172,223.06 110.499,223.119 109.806,223.179C108.236,223.314 106.666,223.444 105.096,223.572C103.104,223.735 101.112,223.901 99.12,224.072C80.673,225.649 62.356,226.978 43.829,226.799C43.581,225.561 43.334,224.324 43.079,223.049C44.11,222.813 45.141,222.579 46.173,222.346C46.747,222.215 47.322,222.085 47.913,221.95C51.673,221.162 55.397,220.666 59.227,220.369C60.667,220.256 60.667,220.256 62.135,220.142C63.177,220.063 64.218,219.984 65.26,219.905C66.346,219.822 67.432,219.739 68.518,219.656C70.797,219.482 73.076,219.311 75.355,219.14C77.664,218.967 80.973,220.79 83.282,220.61C107.789,218.699 106.789,216.699 118.829,217.049Z" style="fill-rule:nonzero;"/>
    <path d="M79.079,152.549C79.574,153.044 80.069,153.539 80.579,154.049C80.304,156.25 79.931,156.947 78.329,158.549C75.914,159.077 73.431,159.193 70.97,159.393C70.223,159.457 69.475,159.52 68.705,159.586C58.927,160.33 49.128,160.185 39.329,160.049C38.86,158.643 38.86,158.643 38.579,157.049C41.735,153.893 47.353,154.63 51.61,154.471C56.461,154.265 61.238,153.916 66.048,153.252C75.333,152.002 75.333,152.002 79.079,152.549Z" style="fill-rule:nonzero;"/>
</svg>
