<?xml version="1.0" encoding="UTF-8" standalone="no"?>
<!DOCTYPE svg PUBLIC "-//W3C//DTD SVG 1.1//EN" "http://www.w3.org/Graphics/SVG/1.1/DTD/svg11.dtd">
<svg width="100%" height="100%" viewBox="0 0 1920 330" version="1.1" xmlns="http://www.w3.org/2000/svg" xmlns:xlink="http://www.w3.org/1999/xlink" xml:space="preserve" xmlns:serif="http://www.serif.com/" style="fill-rule:evenodd;clip-rule:evenodd;stroke-linejoin:round;stroke-miterlimit:2;">
    <g id="Artboard1" transform="matrix(1,0,0,0.589286,0,0)">
        <rect x="0" y="0" width="1920" height="560" style="fill:none;"/>
        <g transform="matrix(1,0,0,1.69697,1177.230209,15.184546)">
            <path d="M0,0C11.675,-0.097 23.349,-0.176 35.024,-0.218C40.059,-0.237 45.093,-0.261 50.127,-0.304C72.407,-0.485 93.8,0.197 115.77,4.052C117.29,4.292 118.81,4.529 120.332,4.76C142.169,8.201 162.797,19.185 179.77,33.052C180.329,33.504 180.888,33.957 181.465,34.423C209.707,57.422 225.05,85.353 231.77,121.052C231.946,121.98 232.121,122.909 232.303,123.865C232.797,127.235 232.966,130.537 233.008,133.935C233.023,134.906 233.023,134.906 233.038,135.897C233.216,150.701 232.932,164.724 228.77,179.052C228.4,180.344 228.4,180.344 228.022,181.662C224.691,192.998 220.521,203.653 214.863,214.025C213.693,216.194 212.577,218.386 211.461,220.583C206.473,230.21 200.933,238.054 193.19,245.641C191.867,246.956 190.602,248.304 189.348,249.685C182.389,257.134 174.314,262.574 165.77,268.052C165.133,268.464 164.497,268.875 163.842,269.3C154.554,275.26 145.009,279.962 134.77,284.052C134.043,284.348 133.316,284.645 132.568,284.95C120.726,289.742 108.807,292.992 96.296,295.537C94.66,295.87 93.026,296.217 91.396,296.579C84.163,298.142 76.88,298.892 69.52,299.552C68.489,299.647 68.489,299.647 67.438,299.743C51.881,301.153 36.291,301.806 20.685,302.405C19.734,302.442 18.784,302.479 17.805,302.517C16.045,302.584 14.286,302.649 12.526,302.71C7.917,302.882 3.337,303.17 -1.26,303.556C-10.843,304.282 -20.435,304.221 -30.039,304.241C-32.106,304.249 -34.172,304.258 -36.239,304.267C-40.664,304.284 -45.09,304.3 -49.515,304.312C-55.937,304.331 -62.358,304.355 -68.779,304.382C-79.231,304.424 -89.684,304.463 -100.136,304.5C-100.76,304.502 -101.383,304.504 -102.026,304.506C-106.448,304.522 -110.87,304.537 -115.293,304.552C-120.332,304.569 -125.372,304.587 -130.412,304.604C-131.032,304.606 -131.653,304.609 -132.292,304.611C-142.702,304.647 -153.111,304.687 -163.52,304.73C-170.475,304.758 -177.431,304.781 -184.386,304.801C-188.74,304.815 -193.094,304.832 -197.448,304.851C-199.443,304.858 -201.439,304.865 -203.434,304.869C-215.217,304.895 -226.95,305.19 -238.716,305.821C-244.6,306.136 -250.48,306.254 -256.371,306.333C-258.108,306.361 -259.846,306.39 -261.583,306.418C-263.958,306.456 -266.333,306.491 -268.708,306.526C-287.688,306.786 -287.688,306.786 -306.663,307.287C-307.288,307.308 -307.913,307.329 -308.557,307.351C-309.511,307.383 -309.511,307.383 -310.485,307.416C-328.567,308.027 -346.639,308.258 -364.73,308.355C-368.773,308.378 -372.816,308.405 -376.859,308.431C-383.664,308.475 -390.469,308.516 -397.275,308.555C-404.115,308.594 -410.956,308.635 -417.796,308.68C-435.969,308.798 -454.141,308.904 -472.314,308.984C-480.619,309.021 -488.924,309.069 -497.229,309.136C-502.697,309.179 -508.165,309.212 -513.633,309.237C-516.734,309.251 -519.834,309.27 -522.935,309.303C-542.673,309.5 -561.361,307.41 -580.605,303.114C-581.811,302.849 -583.016,302.583 -584.221,302.317C-587.561,301.577 -590.896,300.816 -594.23,300.052C-595.038,299.87 -595.846,299.688 -596.678,299.501C-650.59,287.204 -686.545,236.205 -697.23,184.052C-697.405,183.203 -697.581,182.353 -697.761,181.478C-699.293,173.3 -699.63,165.342 -699.605,157.052C-699.604,156.035 -699.604,156.035 -699.604,154.997C-699.561,143.302 -698.437,132.345 -695.23,121.052C-695,120.238 -694.77,119.424 -694.532,118.586C-692.921,113.019 -691.134,107.525 -689.23,102.052C-689.023,101.448 -688.815,100.844 -688.602,100.222C-670.038,46.864 -623.773,15.614 -568.615,9.497C-566.17,9.176 -563.789,8.8 -561.369,8.348C-546.305,5.635 -531.323,5.503 -516.072,5.377C-512.284,5.342 -508.496,5.291 -504.707,5.242C-497.504,5.151 -490.301,5.074 -483.097,5.002C-474.312,4.913 -465.528,4.809 -456.744,4.704C-453.607,4.667 -450.47,4.63 -447.333,4.592C-446.175,4.578 -446.175,4.578 -444.993,4.564C-440.31,4.509 -435.626,4.455 -430.942,4.403C-413.449,4.208 -395.961,3.957 -378.471,3.591C-358.238,3.168 -338.01,2.924 -317.773,2.806C-317.082,2.802 -316.391,2.798 -315.679,2.794C-307.676,2.747 -299.673,2.705 -291.671,2.663C-275.239,2.578 -258.807,2.478 -242.375,2.372C-241.506,2.367 -240.637,2.361 -239.742,2.355C-210.522,2.167 -181.304,1.896 -152.086,1.578C-148.924,1.544 -145.762,1.51 -142.6,1.476C-123.963,1.274 -105.326,1.07 -86.689,0.85C-60.87,0.545 -35.05,0.278 -9.23,0.076C-6.153,0.051 -3.077,0.026 0,0ZM-71.882,20.884C-91.179,21.101 -110.476,21.305 -129.774,21.51C-132.992,21.544 -136.21,21.578 -139.428,21.613C-166.836,21.905 -194.243,22.169 -221.652,22.372C-222.771,22.381 -222.771,22.381 -223.913,22.389C-237.612,22.491 -251.311,22.588 -265.009,22.675C-271.558,22.716 -278.107,22.76 -284.656,22.806C-285.8,22.814 -286.944,22.822 -288.122,22.83C-300.934,22.922 -313.744,23.06 -326.555,23.288C-327.158,23.299 -327.761,23.31 -328.383,23.321C-331.472,23.376 -334.561,23.432 -337.65,23.488C-338.904,23.511 -340.157,23.533 -341.41,23.556C-342.342,23.573 -342.342,23.573 -343.293,23.59C-365.123,23.983 -386.951,24.166 -408.785,24.253C-412.069,24.266 -415.353,24.281 -418.637,24.295C-432.823,24.358 -447.009,24.418 -461.195,24.453C-524.291,22.723 -524.291,22.723 -586.23,32.052C-586.983,32.262 -587.735,32.472 -588.51,32.688C-611.028,39.167 -629.612,50.654 -646.23,67.052C-646.959,67.756 -647.687,68.46 -648.437,69.185C-661.317,82.547 -669.851,103.241 -674.23,121.052C-674.445,121.919 -674.659,122.787 -674.88,123.68C-683.591,160.036 -677.878,191.47 -660.23,224.052C-659.931,224.61 -659.632,225.168 -659.324,225.743C-655.334,233.118 -650.723,239.711 -645.23,246.052C-644.812,246.537 -644.394,247.022 -643.964,247.522C-630.581,262.941 -615.095,273.804 -595.051,278.585C-593.145,279.074 -591.286,279.651 -589.414,280.255C-578.185,283.788 -566.896,285.383 -555.248,286.796C-554.609,286.874 -553.969,286.952 -553.311,287.032C-551.554,287.243 -549.797,287.447 -548.039,287.651C-545.23,288.052 -545.23,288.052 -542.23,289.052C-540.873,289.143 -539.511,289.18 -538.151,289.181C-536.899,289.186 -536.899,289.186 -535.621,289.191C-534.703,289.189 -533.785,289.187 -532.84,289.185C-531.864,289.186 -530.889,289.188 -529.884,289.189C-526.583,289.191 -523.282,289.184 -519.98,289.177C-518.798,289.176 -517.615,289.174 -516.432,289.173C-495.383,289.151 -474.34,288.881 -453.294,288.547C-432.466,288.217 -411.638,287.98 -390.809,287.814C-388.87,287.798 -386.93,287.782 -384.991,287.767C-372.702,287.667 -360.413,287.57 -348.124,287.485C-343.207,287.45 -338.29,287.413 -333.373,287.374C-330.504,287.351 -327.636,287.33 -324.767,287.312C-309.878,287.227 -309.878,287.227 -295.015,286.432C-285.59,285.732 -276.128,285.701 -266.681,285.55C-264.85,285.52 -263.018,285.489 -261.187,285.458C-220.384,284.778 -179.572,284.718 -138.764,284.539C-70.991,284.311 -70.991,284.311 -3.23,283.052C-2.513,283.033 -1.795,283.014 -1.056,282.994C7.305,282.772 15.663,282.507 24.02,282.177C25.084,282.136 26.149,282.094 27.246,282.052C58.666,280.804 88.753,277.986 118.77,268.052C119.481,267.818 120.193,267.583 120.926,267.342C166.959,251.873 195.813,219.1 209.77,173.052C209.949,172.469 210.128,171.885 210.313,171.284C215.38,153.915 214.475,132.408 209.77,115.052C209.566,114.268 209.362,113.483 209.152,112.675C196.344,64.159 155.842,30.786 106.77,23.052C106.162,22.953 105.555,22.854 104.929,22.752C91.999,20.658 79.106,19.895 66.018,19.921C64.795,19.92 63.571,19.919 62.347,19.918C59.009,19.915 55.67,19.92 52.332,19.927C50.175,19.931 48.019,19.933 45.863,19.935C6.613,19.972 -32.635,20.444 -71.882,20.884Z" style="fill-rule:nonzero;"/>
        </g>
        <g transform="matrix(1,0,0,1.69697,696.1875,150.075758)">
            <path d="M0,0L0.537,1.697C1.566,5.101 1.886,8.028 1.812,11.562L3.965,11.499C7.226,11.415 10.488,11.364 13.75,11.312L17.135,11.211C32.585,11.03 63.366,41.286 40.812,52.562C38.472,52.695 36.159,52.606 33.812,52.562L33.677,54.457C32.704,67.86 31.602,81.239 30.249,94.61C29.343,103.575 28.565,112.543 27.871,121.527L27.371,127.861C27.123,130.995 26.879,134.13 26.652,137.266C23.994,173.984 23.994,173.984 3.25,174.312L0.333,174.396C-2.509,174.464 -5.351,174.509 -8.195,174.54C-10.347,174.564 -12.498,174.594 -14.65,174.625C-80.544,175.481 -80.544,175.481 -84.625,151.875L-85.012,149.636C-88.963,126.407 -91.485,102.963 -94.188,79.562L-94.474,77.143C-94.907,73.407 -95.315,69.732 -95.285,65.965L-95.275,63.729L-95.25,61.5L-95.236,59.166C-95.225,57.298 -95.207,55.43 -95.188,53.562L-98.504,53.625C-116.916,53.972 -107.735,22.861 -97.461,16.492C-94.473,15.27 -91.493,14.879 -88.312,14.5L-86.342,14.25C-79.642,13.435 -72.923,12.957 -66.188,12.562L-65.637,9.238L-64.875,4.875L-64.518,2.689C-62.028,-11.289 -52.756,-11.884 -40.188,-12.625L-36.544,-12.862C-4.375,-14.895 -4.375,-14.895 0,0ZM-28.125,0.5C-40.851,0.411 -50.312,-2.817 -53.188,11.562C-39.635,11.562 -8.699,19.423 -12.844,6.52L-13.688,4.375C-15.178,0.546 -15.178,0.546 -24.346,0.514L-28.125,0.5ZM18.812,53.562C-84.169,53.562 -84.169,53.562 -76.443,112.14L-76.191,114.055C-75.854,116.619 -75.518,119.184 -75.188,121.75C-72.307,144.845 -75.979,159.568 -50.809,159.611C-47.65,159.616 -44.49,159.621 -41.331,159.631C-24.25,159.694 -7.251,159.452 9.812,158.562C10.445,151.449 11.081,144.336 11.722,137.223L12.062,133.438C13.227,120.481 14.37,107.522 15.743,94.586L16.035,91.871C16.476,87.77 16.92,83.669 17.388,79.571C17.556,78.104 17.722,76.636 17.885,75.167L18.113,73.113C18.812,67.308 18.812,67.308 18.812,53.562ZM-49.066,25.395C-63.139,25.4 -77.139,25.719 -91.188,26.562C-99.136,42.085 -99.136,42.085 -59.78,41.007C-56.677,40.922 -53.573,40.838 -50.47,40.755C-44.597,40.599 -38.725,40.44 -32.853,40.281C-26.122,40.098 -19.392,39.917 -12.662,39.736C-3.931,39.502 33.268,41.295 29.938,33.52L28.812,31.375C25.836,25.64 21.657,25.336 15.511,25.303L13.025,25.32C10.241,25.314 7.456,25.311 4.672,25.32C2.669,25.328 0.667,25.333 -1.336,25.334C-5.537,25.333 -9.738,25.335 -13.939,25.346C-19.366,25.364 -24.793,25.377 -30.219,25.377C-34.457,25.377 -38.695,25.379 -42.933,25.384L-49.066,25.395Z"/>
        </g>
        <g transform="matrix(1,0,0,1.69697,282,69.575758)">
            <path d="M0,0C0.77,0.66 0.77,0.66 1.555,1.334C7.517,6.489 13.008,11.888 18,18C18.651,18.775 18.651,18.775 19.316,19.565C67.264,76.629 75.912,163.701 -7,255C-7.85,255.625 -7.85,255.625 -8.717,256.262C-23.09,266.75 -39.773,274.486 -57,279C-57.618,279.162 -58.237,279.325 -58.874,279.492C-79.338,284.516 -104.621,284.229 -125,279C-125.641,278.839 -126.283,278.678 -126.944,278.512C-149.357,272.672 -170.595,262.293 -188,247C-188.829,246.304 -189.658,245.608 -190.512,244.891C-219.823,219.675 -234.753,182.264 -241,145C-241.201,143.897 -241.402,142.793 -241.609,141.656C-248.479,90.333 -225.582,33.684 -184.395,2.084C-183.033,1.026 -181.703,-0.073 -180.375,-1.172C-129.369,-42.633 -49.738,-42.943 0,0ZM-154,6C-154.831,6.443 -154.831,6.443 -155.679,6.895C-184.57,22.359 -204.723,50.199 -215,80.812C-215.285,81.652 -215.285,81.652 -215.576,82.509C-220.251,96.447 -221.445,109.808 -221.438,124.375C-221.438,125.164 -221.438,125.954 -221.439,126.767C-221.376,148.078 -216.823,166.575 -208,186C-207.676,186.723 -207.353,187.446 -207.019,188.191C-190.881,223.773 -159.63,248.892 -122,259C-121.394,259.164 -120.788,259.327 -120.163,259.496C-110.324,261.998 -100.412,262.306 -90.312,262.375C-89.707,262.383 -89.102,262.391 -88.479,262.399C-76.191,262.523 -64.772,260.265 -53.125,256.312C-52.374,256.058 -51.623,255.803 -50.849,255.54C-32.548,249.107 -17.297,238.8 -3.42,225.369C-2.038,224.037 -0.637,222.729 0.77,221.422C13.328,209.553 22.622,195.562 30,180C30.27,179.446 30.539,178.892 30.817,178.321C33.172,173.219 34.38,167.899 35.625,162.438C35.95,161.058 35.95,161.058 36.281,159.65C37.901,152.696 39.152,146.027 39.238,138.863C39.253,137.855 39.253,137.855 39.268,136.826C39.44,122.109 39.354,108.187 35,94C34.721,93.059 34.442,92.117 34.154,91.147C26.481,65.611 14.844,44.806 -3,25C-3.868,24.024 -3.868,24.024 -4.754,23.027C-44.401,-19.005 -105.572,-20.375 -154,6Z" style="fill-rule:nonzero;"/>
        </g>
        <g transform="matrix(1,0,0,1.69697,1854,122.181818)">
            <path d="M0,0C0.345,0.527 0.691,1.053 1.046,1.596C11.543,17.742 18.205,35.407 23,54C23.179,54.681 23.359,55.363 23.543,56.065C26.002,65.84 26.301,75.658 26.375,85.688C26.387,86.596 26.387,86.596 26.399,87.522C26.492,96.742 25.217,105.046 23,114C22.788,114.934 22.575,115.868 22.356,116.83C12.962,157.568 -17.294,193.017 -55,210C-56.027,210.471 -57.055,210.941 -58.113,211.426C-109.05,233.689 -164.164,223.874 -205,187C-205.777,186.318 -206.555,185.636 -207.355,184.934C-229.418,164.398 -242.261,135.245 -247,106C-247.286,104.331 -247.286,104.331 -247.578,102.629C-251.801,71.494 -242.724,41.117 -228,14C-227.509,13.09 -227.018,12.18 -226.512,11.242C-184.795,-61.851 -85.936,-78.559 0,0ZM-190,-3C-190.677,-2.388 -191.354,-1.775 -192.051,-1.145C-202.829,8.985 -209.957,21.659 -216,35C-216.316,35.685 -216.632,36.369 -216.958,37.075C-224.552,53.701 -227.356,68.926 -227.5,87.125C-227.511,87.84 -227.521,88.554 -227.532,89.29C-227.687,102.89 -225.137,115.506 -220.188,128.188C-219.936,128.841 -219.684,129.495 -219.425,130.169C-213.378,145.438 -204.241,158.057 -193,170C-192.473,170.592 -191.946,171.183 -191.402,171.793C-176.396,187.95 -154.23,198.875 -132.5,201.688C-131.539,201.813 -130.578,201.938 -129.587,202.067C-99.186,205.775 -67.777,198.37 -43,180C-42.139,179.362 -41.278,178.724 -40.391,178.066C-3.812,149.837 11.86,103.69 3,59C2.871,58.351 2.743,57.701 2.61,57.032C-6.777,12.103 -38.744,-23.224 -83,-35C-83.583,-35.177 -84.167,-35.353 -84.768,-35.535C-121.379,-45.965 -163.755,-27.75 -190,-3Z" style="fill-rule:nonzero;"/>
        </g>
        <g transform="matrix(1,0,0,1.69697,196,205.333333)">
            <path d="M0,0C0.761,-0.091 0.761,-0.091 1.537,-0.184C60.088,-6.83 60.088,-6.83 68.938,0.375C69.483,0.816 70.028,1.257 70.59,1.711C74.644,5.417 73.711,12.25 74.062,17.375C74.106,18.011 74.15,18.647 74.195,19.302C74.997,31.389 75.243,43.477 75.299,55.588C75.308,57.567 75.322,59.547 75.341,61.526C75.365,64.332 75.367,67.136 75.363,69.941C75.372,70.783 75.382,71.624 75.391,72.492C75.269,88.004 62.74,87.437 50.535,87.293C49.133,87.287 47.73,87.283 46.328,87.28C42.657,87.269 38.986,87.239 35.315,87.206C30.9,87.17 26.484,87.156 22.069,87.139C15.379,87.11 8.69,87.052 2,87L2,123C-7.876,135.345 -16.948,123.125 -25.644,115.603C-29.299,112.445 -32.991,109.347 -36.75,106.312C-41.998,102.048 -47.008,97.558 -52,93C-58.896,86.765 -58.896,86.765 -65.875,80.625C-68.723,78.149 -71.507,75.614 -74.275,73.05C-75.036,72.344 -75.036,72.344 -75.812,71.625C-76.322,71.153 -76.831,70.681 -77.356,70.195C-80.736,67.088 -84.217,64.165 -87.812,61.312C-107.169,45.771 -96.287,35.103 -82.23,21.1C-80.566,19.441 -78.907,17.776 -77.248,16.111C-72.188,11.048 -67.124,6.057 -61.65,1.436C-59.847,-0.133 -58.173,-1.794 -56.5,-3.5C-54.242,-5.793 -51.94,-7.964 -49.5,-10.062C-45.493,-13.511 -41.658,-17.125 -37.812,-20.75C-8.343,-48.449 1.087,-38.77 0,0ZM-19.203,-15.98C-32.047,-4.207 -32.047,-4.207 -33.525,-2.852C-34.52,-1.94 -35.514,-1.029 -36.508,-0.117C-38.944,2.117 -41.381,4.349 -43.824,6.574C-55.352,17.087 -66.893,27.631 -77.778,38.814C-79.461,40.533 -80.831,41.916 -83,43C-81.414,47.227 -78.459,49.423 -75.062,52.188C-74.483,52.669 -73.903,53.151 -73.306,53.648C-70.561,55.924 -67.793,58.171 -65.012,60.402C-59.736,64.643 -54.831,69.048 -50.098,73.891C-46.889,77.118 -43.469,80.058 -40,83C-38.987,83.866 -37.974,84.732 -36.961,85.598C-33.064,88.92 -12.959,105.903 -13.048,101.784C-13.099,99.054 -13.136,96.324 -13.165,93.594C-13.187,91.838 -13.225,90.082 -13.264,88.326C-13.273,87.214 -13.283,86.103 -13.293,84.957C-13.309,83.936 -13.324,82.915 -13.341,81.863C-12.306,73.164 -6.314,71.773 1.443,71.681C2.068,71.671 2.693,71.661 3.336,71.651C5.387,71.62 7.438,71.603 9.488,71.586C10.916,71.567 12.344,71.548 13.772,71.527C17.518,71.476 21.265,71.436 25.011,71.399C28.839,71.359 32.667,71.308 36.494,71.258C43.996,71.161 51.498,71.077 59,71C59.026,66.9 59.043,62.801 59.055,58.701C59.06,57.32 59.067,55.939 59.075,54.558C63.557,7.272 63.557,7.272 -9,13C-14,8 -14,8 -14.076,6.367C-14.193,3.89 -14.315,1.414 -14.438,-1.062C-14.477,-1.91 -14.516,-2.758 -14.557,-3.631C-14.127,-14.461 -14.127,-14.461 -19.203,-15.98Z" style="fill-rule:nonzero;"/>
        </g>
        <g transform="matrix(1,0,0,1.69697,1758.875,174.622159)">
            <path d="M0,0C1.536,0.002 3.071,0.003 4.607,0.004C8.625,0.008 12.642,0.018 16.66,0.029C20.769,0.039 24.879,0.044 28.988,0.049C69.483,0.103 61.554,36.514 62.125,71.098C62.136,71.715 62.147,72.332 62.158,72.967C62.224,76.746 62.273,80.524 62.299,84.303C62.312,86.047 62.332,87.791 62.352,89.536C62.353,90.587 62.354,91.639 62.355,92.723C62.36,93.643 62.364,94.563 62.368,95.512C61.471,105.062 54.949,108.15 46.141,108.344C44.899,108.376 43.657,108.408 42.416,108.44C41.758,108.455 41.101,108.47 40.424,108.486C29.398,108.749 18.414,109.221 7.414,110.022C-3.007,110.775 -13.408,111.323 -23.858,111.396C-25.098,111.405 -26.338,111.419 -27.577,111.439C-38.426,111.589 -46.304,110.326 -54.375,102.848C-55.501,101.85 -56.629,100.854 -57.758,99.859C-58.294,99.38 -58.831,98.901 -59.384,98.408C-61.279,96.743 -63.246,95.192 -65.25,93.66C-71.28,89.04 -77.184,84.264 -83.109,79.511C-84.663,78.267 -86.221,77.028 -87.781,75.793C-104.029,62.905 -104.029,62.905 -103.938,56.473C-103.928,55.655 -103.919,54.838 -103.91,53.996C-103.807,48.428 -95.724,43.359 -91.875,40.098C-89.581,38.142 -87.29,36.182 -85,34.223C-84.392,33.703 -83.784,33.184 -83.157,32.649C-79.619,29.619 -76.132,26.547 -72.688,23.41C-49.295,2.235 -49.295,2.235 -43.982,2.022C-41.113,1.905 -38.244,1.782 -35.375,1.66C-34.393,1.621 -33.41,1.582 -32.398,1.541C-31.432,1.499 -30.465,1.457 -29.469,1.414C-28.149,1.359 -28.149,1.359 -26.803,1.303C-23.794,1.132 -23.794,1.132 -20.518,0.584C-13.728,-0.292 -6.833,-0.025 0,0ZM-48.875,22.098C-51.329,24.494 -53.786,26.845 -56.312,29.16C-56.973,29.771 -57.633,30.382 -58.313,31.011C-62.125,34.525 -65.97,37.996 -69.902,41.375C-73.023,44.1 -76.066,46.911 -79.108,49.724C-81.264,51.701 -83.362,53.587 -85.875,55.098C-84.381,58.785 -82.353,60.593 -79.25,63.035C-78.255,63.827 -77.26,64.618 -76.266,65.41C-75.724,65.838 -75.182,66.266 -74.623,66.707C-72.751,68.196 -70.897,69.707 -69.047,71.223C-62.214,76.818 -55.353,82.36 -48.299,87.676C-44.356,90.663 -40.605,93.848 -36.875,97.098C-31.825,96.833 -26.776,96.567 -21.726,96.298C-20.014,96.207 -18.301,96.117 -16.588,96.028C-5.19,95.449 -5.19,95.449 6.188,94.566C14.232,93.853 22.305,93.737 30.375,93.535C32.007,93.492 33.638,93.448 35.27,93.404C39.221,93.299 43.173,93.197 47.125,93.098C47.294,75.586 46.798,58.156 46.125,40.66C45.795,31.895 45.465,23.129 45.125,14.098C-7.244,6.265 -7.244,6.265 -48.875,22.098Z" style="fill-rule:nonzero;"/>
        </g>
        <g transform="matrix(1,0,0,1.69697,949.4375,267.80303)">
            <path d="M0,0L-0.03,2.125C-0.459,14.771 -7.248,23.985 -17.438,31.188C-16.827,34.074 -15.942,36.309 -14.434,38.84L-13.199,40.925L-11.875,43.125L-10.523,45.397C-7.386,50.656 -4.2,55.886 -0.951,61.076C5.43,71.309 6.08,82.456 -8.438,82.188C-14.168,78.098 -16.988,73.381 -20.312,67.25L-23.449,61.609L-24.982,58.822C-26.988,55.191 -29.053,51.595 -31.125,48C-34.277,42.508 -34.277,42.508 -35.438,40.188C-53.686,37.355 -53.686,37.355 -52.297,47.344C-52.266,49.654 -52.241,51.964 -52.218,54.274C-52.198,55.869 -52.171,57.463 -52.136,59.058C-51.927,68.857 -54.659,94.861 -69.438,79.188C-70.349,76.453 -70.561,74.878 -70.558,72.068L-70.562,69.532L-70.551,66.759L-70.551,63.832C-70.551,60.634 -70.543,57.436 -70.535,54.238L-70.531,47.592C-70.527,42.354 -70.52,37.116 -70.51,31.879C-70.498,25.915 -70.493,19.951 -70.488,13.988C-70.456,-22.809 -70.456,-22.809 -67.59,-26.215L-65.988,-28.129C-46.386,-49.412 0.424,-27.172 0,0ZM-18.438,5.188C-18.438,-11.404 -37.405,-25.501 -53.438,-14.812C-53.438,21.745 -41.339,37.143 -18.438,5.188Z"/>
        </g>
        <g transform="matrix(1,0,0,1.69697,1232.960327,348.184955)">
            <path d="M0,0C0.039,1.782 0.082,3.563 0.127,5.345C0.199,8.462 0.249,11.577 0.29,14.695C0.311,15.569 0.333,16.443 0.355,17.344C0.416,28.621 -10.264,37.691 -18.099,24.972C-19.058,22.575 -19.274,20.712 -19.374,18.136C-19.413,17.218 -19.452,16.299 -19.492,15.353C-19.523,14.373 -19.554,13.392 -19.585,12.382C-19.642,10.87 -19.642,10.87 -19.7,9.327C-20.05,-0.841 -20.064,-11.008 -19.96,-21.18C-20.654,-21.15 -21.347,-21.12 -22.061,-21.089C-36.034,-20.488 -49.972,-20.018 -63.96,-20.18C-63.888,-19.362 -63.816,-18.543 -63.742,-17.7C-58.718,46.062 -58.718,46.062 -79.96,24.82C-81.018,20.349 -81.271,15.956 -81.495,11.386C-81.539,10.54 -81.582,9.694 -81.626,8.822C-81.765,6.009 -81.895,3.196 -82.023,0.382C-82.09,-1.067 -82.09,-1.067 -82.159,-2.545C-82.724,-15.04 -81.195,-104.9 -66.96,-78.18C-66.494,-75.707 -66.225,-73.608 -66.132,-71.13C-66.093,-70.471 -66.055,-69.813 -66.015,-69.135C-65.896,-67.046 -65.803,-64.958 -65.71,-62.868C-65.634,-61.478 -65.556,-60.088 -65.476,-58.698C-65.099,-51.858 -64.833,-45.033 -64.96,-38.18C-64.395,-38.339 -63.829,-38.497 -63.246,-38.661C-59.167,-39.588 -55.003,-39.568 -50.835,-39.743C-49.515,-39.808 -49.515,-39.808 -48.167,-39.874C-39.078,-40.276 -30.088,-40.18 -20.96,-40.18L-20.96,-81.18C-3.14,-107.91 -0.342,-16.131 0,0Z" style="fill-rule:nonzero;"/>
        </g>
        <g transform="matrix(1,0,0,1.69697,1017.3125,233.757576)">
            <path d="M0,0L1.418,2.921C11.733,24.617 19.221,47.728 27.05,70.411C27.665,72.186 28.289,73.958 28.914,75.729L30.016,78.914L30.974,81.655C34.217,93.444 26.624,109.502 14.688,95.25C13.524,93.087 12.763,90.857 12.012,88.523L11.361,86.616C10.913,85.295 10.472,83.973 10.038,82.647C9.373,80.619 8.688,78.598 7.998,76.578C7.564,75.289 7.131,74 6.699,72.711L6.084,70.883C5.206,68.193 4.688,66.106 4.688,63.25C-31.477,57.546 -31.477,57.546 -33.312,77.25C-34.102,80.118 -34.901,82.926 -35.812,85.75L-36.418,87.719C-38.224,93.424 -51.929,112.594 -53.559,95.699C-54.371,82.764 -50.768,70.823 -47.249,58.522C-46.414,55.605 -45.599,52.683 -44.793,49.758C-43.611,45.503 -42.384,41.263 -41.132,37.028C-40.551,35.058 -39.975,33.086 -39.403,31.112C-36.135,19.87 -32.82,8.683 -28.125,-2.062L-27.19,-4.233C-25.173,-8.628 -22.916,-11.522 -19.312,-14.75C-11.488,-22.574 -2.333,-4.91 0,0ZM-8.613,26.53C-11.523,18.902 -13.442,8.695 -17.703,21.227L-18.687,24.125L-19.648,26.906L-20.586,29.68C-22.062,34 -22.062,34 -24.312,45.25C-3.913,45.25 0.785,51.185 -3.99,38.602L-4.719,36.711C-5.481,34.71 -6.245,32.708 -7.012,30.709C-7.547,29.317 -8.08,27.924 -8.613,26.53Z"/>
        </g>
        <g transform="matrix(1,0,0,1.69697,1118,240.969697)">
            <path d="M-50.035,5.438C-53.475,4.358 -40.733,-10.923 -32.561,-13.8C-23.264,-17.074 -0.594,-17.647 5.75,-14.206C11.919,-10.861 10.915,2.487 5.503,6.842C0.091,11.198 -22.071,3.488 -26.723,11.926C-32.987,23.289 17.511,39.977 17.312,60.75C17.307,61.368 17.301,61.987 17.295,62.624C16.287,100.907 -35.147,107.621 -57,82C-59.577,61.382 -43.717,67.541 -33.137,74.152C-21.315,81.392 -2.708,77.162 -2.938,61.312C-2.947,60.504 -2.956,59.696 -2.965,58.863C-3.18,47.441 -52.559,45.063 -50.035,5.438Z" style="fill-rule:nonzero;"/>
        </g>
        <g transform="matrix(1,0,0,1.69697,832.585407,218.392939)">
            <path d="M0,0C1.851,-0.008 3.701,-0.022 5.552,-0.037C9.068,-0.064 12.583,-0.063 16.098,-0.059C17.165,-0.068 18.232,-0.077 19.33,-0.087C30.791,-0.016 42.333,9.126 28.736,18.456C25.506,19.636 22.414,19.551 19.024,19.499C18.319,19.497 17.615,19.494 16.889,19.491C14.647,19.48 12.406,19.455 10.165,19.429C8.641,19.419 7.118,19.41 5.594,19.402C1.868,19.38 -1.859,19.345 -5.585,19.304C-5.519,19.854 -5.453,20.404 -5.385,20.97C-4.768,26.284 -4.329,31.579 -4.05,36.921C-3.985,38.126 -3.985,38.126 -3.919,39.355C-3.09,55.116 -2.38,70.878 -2.287,86.662C-2.278,88.161 -2.264,89.659 -2.245,91.158C-2.221,93.241 -2.218,95.323 -2.222,97.406C-2.208,98.305 -2.208,98.305 -2.194,99.222C-2.314,110.342 -13.865,122.544 -21.724,108.231C-22.914,104.188 -22.943,100.356 -22.999,96.16C-23.029,94.8 -23.029,94.8 -23.058,93.412C-23.119,90.439 -23.165,87.465 -23.21,84.492C-23.248,82.436 -23.287,80.381 -23.325,78.325C-23.674,58.652 -23.682,38.98 -23.585,19.304L-56.585,19.304C-74.138,7.602 -54.386,1.955 -43.648,1.179C-43.083,1.138 -42.518,1.096 -41.935,1.054C-27.98,0.078 -13.983,0.05 0,0Z" style="fill-rule:nonzero;"/>
        </g>
        <g transform="matrix(1,0,0,1.69697,1783,246.060606)">
            <path d="M0,0C-2.97,3.3 -5.94,6.6 -9,10C-8.399,14.009 -8.399,14.009 -5.848,15.898C-4.919,16.724 -3.991,17.549 -3.062,18.375C-2.594,18.788 -2.125,19.2 -1.643,19.625C1.938,22.819 3.139,24.355 3.062,29.125C3.053,29.849 3.044,30.574 3.035,31.32C2.9,37.778 -6.354,36.501 -10.082,33.102C-10.992,32.276 -11.902,31.45 -12.812,30.625C-13.49,30.006 -13.49,30.006 -14.182,29.375C-18.602,24.428 -18.602,24.428 -23.082,26.336C-23.992,27.349 -24.902,28.362 -25.812,29.375C-26.264,29.883 -26.716,30.391 -27.182,30.914C-27.623,31.404 -28.065,31.894 -28.52,32.398C-28.923,32.849 -29.326,33.299 -29.741,33.763C-37.425,41.315 -43,35.196 -43,26C-39.7,22.04 -36.4,18.08 -33,14C-34.07,9.72 -34.843,8.841 -37.938,5.938C-44.434,-0.205 -48.386,-12.008 -35,-9C-32.367,-7.223 -32.367,-7.223 -29.875,-5.062C-24.468,0.475 -24.468,0.475 -18.883,-1.371C-17.964,-2.393 -17.044,-3.415 -16.125,-4.438C-15.665,-4.954 -15.205,-5.47 -14.73,-6.002C-6.786,-14.81 0,-12.297 0,0Z" style="fill-rule:nonzero;"/>
        </g>
        <g transform="matrix(1,0,0,1.69697,698.455811,328.607244)">
            <path d="M0,0C-0.268,2.983 -0.52,5.966 -0.77,8.95C-4.226,48.586 -4.226,48.586 -15.456,37.356C-15.516,34.482 -15.55,31.607 -15.581,28.731C-15.598,27.943 -15.614,27.154 -15.632,26.341C-15.676,20.747 -15.115,15.362 -14.267,9.844C-13.614,5.57 -13.096,1.3 -12.675,-3.003C-12.614,-3.612 -12.554,-4.221 -12.492,-4.848C-12.25,-7.321 -12.012,-9.794 -11.779,-12.268C-7.973,-52.234 2.587,-28.525 0,0Z" style="fill-rule:nonzero;"/>
        </g>
        <g transform="matrix(1,0,0,1.69697,671.125,322.848485)">
            <path d="M0,0C0.041,0.806 0.083,1.611 0.125,2.441C0.606,11.872 1.076,21.307 1.188,30.75C1.205,31.519 1.223,32.287 1.241,33.079C1.231,41.226 -3.932,49.341 -11.125,39.75C-12.512,25.48 -12.242,11.152 -12.194,-3.167C-12.183,-6.566 -12.179,-9.966 -12.174,-13.365C-12.11,-53.378 -1.207,-24.18 0,0Z" style="fill-rule:nonzero;"/>
        </g>
        <g transform="matrix(1,0,0,1.69697,640.375,295.909091)">
            <path d="M0,0C0.21,1.226 0.421,2.452 0.632,3.677C1.194,6.966 1.74,10.257 2.282,13.548C2.631,15.662 2.985,17.775 3.339,19.888C3.937,23.459 4.523,27.031 5.1,30.606C5.322,31.976 5.547,33.346 5.774,34.716C10.325,62.296 10.325,62.296 -1.375,60.625C-4.008,55.974 -5.04,51.969 -5.691,46.691C-5.793,45.936 -5.895,45.181 -6,44.404C-6.323,41.999 -6.63,39.594 -6.938,37.188C-7.147,35.607 -7.357,34.027 -7.568,32.447C-8.083,28.581 -8.587,24.714 -9.087,20.846C-9.539,17.363 -10.001,13.883 -10.465,10.402C-10.617,9.259 -10.769,8.115 -10.926,6.937C-11.243,4.6 -11.578,2.268 -11.926,-0.064C-12.253,-2.479 -12.496,-4.699 -12.473,-7.121C-12.469,-7.73 -12.466,-8.339 -12.463,-8.967C-12.455,-9.576 -12.446,-10.185 -12.438,-10.812C-12.433,-11.449 -12.428,-12.085 -12.424,-12.74C-12.287,-31 -1.037,-6.232 0,0Z" style="fill-rule:nonzero;"/>
        </g>
        <g transform="matrix(1,0,0,1.69697,1015,310.545455)">
            <path d="M0,0L-5,0C-2,-4 -2,-4 0,0Z" style="fill-rule:nonzero;"/>
        </g>
        <g transform="matrix(1,0,0,1.69697,547,106.909091)">
            <path d="M0,0L-3,0C-2,-2 -2,-2 0,0Z" style="fill-rule:nonzero;"/>
        </g>
        <g transform="matrix(1,0,0,1.69697,551,101.818182)">
            <path d="M0,0L-3,0C-2,-2 -2,-2 0,0Z" style="fill-rule:nonzero;"/>
        </g>
    </g>
</svg>
