<?xml version="1.0" encoding="UTF-8" standalone="no"?><!DOCTYPE svg PUBLIC "-//W3C//DTD SVG 1.1//EN" "http://www.w3.org/Graphics/SVG/1.1/DTD/svg11.dtd"><svg width="100%" height="100%" viewBox="0 0 227 218" version="1.1" xmlns="http://www.w3.org/2000/svg" xmlns:xlink="http://www.w3.org/1999/xlink" xml:space="preserve" xmlns:serif="http://www.serif.com/" style="fill-rule:evenodd;clip-rule:evenodd;stroke-linejoin:round;stroke-miterlimit:2;"><rect id="Artboard4" x="0" y="0" width="227" height="218" style="fill:none;"/><path d="M138.747,29.133c-2.751,0.237 -2.751,0.237 -5.902,0.126l-1.755,-0.05c-1.258,-0.038 -2.517,-0.081 -3.775,-0.13c-2.02,-0.079 -4.04,-0.141 -6.06,-0.2c-2.883,-0.085 -5.766,-0.177 -8.648,-0.273c-7.452,-0.247 -14.906,-0.437 -22.361,-0.611l-2.222,-0.052c-12.09,-0.274 -24.121,-0.212 -36.199,0.492l-2.159,0.12c-31.55,1.828 -30.37,15.875 -30.859,43.786l-0.056,2.873c-0.398,20.926 -0.137,41.739 1.217,62.63c0.648,10.255 1.021,20.521 1.408,30.788l0.104,2.741c0.195,5.172 0.386,10.345 0.575,15.517c2.332,0.6 2.332,0.6 2.579,-2.255c1.099,-3.816 2.989,-7.028 5.009,-10.425l1.185,-2.025c0.829,-1.414 1.662,-2.826 2.498,-4.237c1.245,-2.102 2.479,-4.21 3.712,-6.32c4.111,-7.007 8.321,-13.951 12.68,-20.807l1.186,-1.907c13.942,-21.602 32.447,17.065 39.253,28.285c2.672,4.398 5.469,8.712 8.276,13.025c1.435,2.243 2.801,4.51 4.127,6.818c4.285,-8.454 7.432,-17.396 10.743,-26.261l0.955,-2.546c5.194,-13.85 10.129,-27.779 14.813,-41.809c11.609,-34.536 22.518,-19.522 34.36,6.497l1.81,3.952c1.766,3.857 3.526,7.718 5.282,11.58l0.754,1.658c3.743,8.229 3.743,8.229 5.591,12.322c11.014,24.355 9.909,19.197 10.962,-4.702l0.085,-1.915c0.696,-15.832 1.368,-31.614 0.502,-47.455c-0.345,-6.423 -0.579,-31.319 10.785,-17.018c1.056,23.859 0.667,47.554 -0.377,71.4l-0.144,3.336c-0.091,2.079 -0.186,4.157 -0.285,6.236l-0.126,2.809l-0.116,2.446c-0.014,2.165 0.211,4.174 0.524,6.313c-0.01,3.45 -0.229,6.887 -0.427,10.331l-0.113,2.808c-1.382,23.572 -22.666,24.756 -41.616,24.311l-2.488,-0.044c-21.28,-0.381 -42.536,-1.668 -63.781,-2.904l-8.216,-0.472l-2.003,-0.115c-8.915,-0.506 -17.817,-0.865 -26.749,-0.868c-31.448,-0.054 -42.804,-10.708 -43.66,-42.504l-0.108,-3.389c-0.095,-2.981 -0.181,-5.963 -0.266,-8.944c-0.089,-3.107 -0.184,-6.214 -0.279,-9.321c-0.111,-3.675 -0.222,-7.35 -0.328,-11.025c-0.177,-6.101 -0.367,-12.2 -0.601,-18.299c-0.5,-13.547 -0.509,-27.068 -0.365,-40.621l0.02,-2.558c0.078,-8.767 0.353,-17.452 1.321,-26.171l0.229,-2.087c3.194,-26.004 29.453,-24.579 50.123,-25.107l2.764,-0.08c12.894,-0.368 25.658,-0.326 38.541,0.336c8.377,0.418 16.759,0.392 25.145,0.392l3.381,0.006l2.978,-0.004c7.959,0.225 17.633,6.011 6.565,11.578Zm23.691,116.455c-17.438,-40.024 -17.438,-40.024 -34.784,5.744c-3.405,8.966 -6.769,17.941 -9.983,26.977l-0.587,1.652c-1.323,3.699 -8.046,17.853 -3.394,18.456l3.249,0.399c9.114,1.146 9.114,1.146 33.613,1.713l4.176,0.095c6.514,0.175 32.559,3.008 28.984,-7.902l-0.835,-1.832l-0.946,-2.102l-1.053,-2.283c-1.138,-2.515 -2.278,-5.029 -3.427,-7.539c-1.166,-2.543 -2.327,-5.088 -3.487,-7.634l-2.338,-5.135c-3.125,-6.844 -6.184,-13.713 -9.19,-20.61Zm-90.407,12.484c-7.19,-11.676 -10.053,-18.622 -17.998,-5.151c-0.631,1.075 -1.263,2.149 -1.896,3.223l-1.026,1.74c-6.515,11.061 -13.104,22.061 -19.931,32.933c-1.867,2.958 -1.867,2.958 6.431,3.942l3.439,0.407c6.22,0.76 12.384,1.492 18.654,1.596c6.099,0.072 12.144,0.555 18.221,1.051c2.507,0.206 19.081,2.577 19.409,-0.295c-4.702,-7.25 -9.407,-14.499 -14.094,-21.759l-1.783,-2.768c-1.713,-2.653 -3.417,-5.309 -5.09,-7.988l-1.415,-2.271l-2.923,-4.659Z"/><path d="M75.345,96.676c-16.581,9.913 -36.223,-0.246 -33.642,-20.457l0.239,-1.968c4.655,-38.212 67.382,-1.85 33.403,22.425Zm-2.264,-12.652c1.089,-8.176 -5.472,-24.396 -16.739,-14.587l-1.515,1.49c-1.615,1.577 -2.615,2.069 -2.919,4.313l-0.277,2.178c-1.819,13.909 12.682,14.746 21.45,6.607Z"/><path d="M192.654,24.23c0.587,-0.005 1.174,-0.011 1.779,-0.017c31.156,0.038 31.156,0.038 17.068,11.232c-5.939,-0.347 -11.878,-0.695 -17.997,-1.053c0.098,3.499 0.098,3.499 0.198,7.068c-0.082,1.319 -0.192,2.638 -0.354,3.95c-0.078,0.65 -0.155,1.299 -0.235,1.968c-0.124,0.977 -0.124,0.977 -0.251,1.974c-0.082,0.679 -0.164,1.358 -0.249,2.057c-0.93,7.656 -6.883,9.247 -10.324,1.828c-0.308,-3.116 -0.218,-6.198 -0.128,-9.325c1.72,-12.029 1.72,-12.029 -19.796,-10.066c-5.224,-6.574 -1.192,-10.068 5.521,-9.972c0.855,0.01 1.71,0.021 2.591,0.031c0.894,0.015 1.787,0.029 2.708,0.044c0.902,0.012 1.803,0.023 2.732,0.035c2.23,0.029 4.459,0.063 6.688,0.099c-0.047,-0.857 -0.095,-1.713 -0.143,-2.596c-1.257,-26.02 13.876,-21.251 10.192,2.739Z" style="fill-rule:nonzero;"/></svg>