<?xml version="1.0" encoding="UTF-8" standalone="no"?><!DOCTYPE svg PUBLIC "-//W3C//DTD SVG 1.1//EN" "http://www.w3.org/Graphics/SVG/1.1/DTD/svg11.dtd"><svg width="100%" height="100%" viewBox="0 0 1733 1611" version="1.1" xmlns="http://www.w3.org/2000/svg" xmlns:xlink="http://www.w3.org/1999/xlink" xml:space="preserve" xmlns:serif="http://www.serif.com/" style="fill-rule:evenodd;clip-rule:evenodd;stroke-linejoin:round;stroke-miterlimit:2;"><rect id="Artboard1" x="0" y="0" width="1733" height="1610.937" style="fill:none;stroke:#000;stroke-width:1px;"/><path d="M384.83,1143.317c2.637,3.302 5.217,6.01 8.327,8.94c7.5,7.271 12.998,16.512 17.987,25.605c3.598,5.365 8.195,8.925 13.324,12.802c3.996,23.83 -14.318,1.661 -21.318,-5.298c-1.358,-1.334 -2.716,-2.668 -4.115,-4.042c-6.022,-5.989 -11.83,-12.178 -17.647,-18.362c-1.131,-1.194 -2.263,-2.388 -3.428,-3.618c-1.076,-1.144 -2.153,-2.288 -3.262,-3.466c-0.976,-1.035 -1.952,-2.07 -2.958,-3.136c-12.651,-14.532 3.145,-22.239 13.09,-9.425Zm34.309,49.113l1.777,3.532l-1.777,-3.532Z" style="fill-rule:nonzero;stroke:#000;stroke-width:1px;"/><path d="M1339.76,1177.529c0.804,11.017 0.804,11.017 3.261,21.75c2.723,8.898 2.022,17.482 1.686,26.702c-0.053,2.005 -0.105,4.011 -0.16,6.077c-0.668,17.245 -4.088,33.611 -7.948,50.399c-0.901,4.145 -1.503,8.306 -2.107,12.502c-5.428,27.364 -20.408,52.772 -43.254,68.51c-3.622,2.511 -6.493,5.123 -9.445,8.381c-5.076,5.228 -10.679,6.82 -17.585,8.753c-10.803,3.259 -10.803,3.259 -20.985,8.057c-24.464,12.728 -54.006,9.455 -80.61,7.726c-25.463,-1.632 -50.16,-1.186 -75.502,1.766c-83.497,9.717 -83.497,9.717 -83.497,-6.18l-3.553,0c-1.756,-29.677 26.261,-25.138 48.356,-24.516c13.314,0.346 25.03,-0.258 37.885,-4.257c6.406,-1.831 12.608,-2.17 19.24,-2.35c2.383,-0.094 4.765,-0.19 7.148,-0.29c1.271,-0.047 2.543,-0.095 3.853,-0.144c5.089,-0.27 10.148,-0.745 15.224,-1.202c12.697,-0.998 25.142,-0.61 37.841,-0.021c13.13,0.573 26.259,1.104 39.403,1.249c1.978,0.027 3.957,0.054 5.995,0.081c6.707,-0.423 11.519,-2.289 17.391,-5.393c4.564,-2.324 9.177,-3.835 14.046,-5.429c7.153,-2.525 12.27,-5.178 17.758,-10.354c2.339,-2.118 2.339,-2.118 7.446,-5.098c28.639,-18.754 32.127,-56.58 37.529,-87.079c0.358,-1.826 0.358,-1.826 0.724,-3.689c1.313,-7.313 0.533,-12.981 -1.279,-20.15c-4.386,-18.526 -6.909,-36.699 -6.572,-55.762c0.287,-15.64 0.287,-15.64 -3.643,-30.516c-2.281,-6.388 -1.641,-11.795 -0.999,-18.459c0.101,-1.224 0.202,-2.447 0.305,-3.708c5.217,-62.655 40.748,43.882 42.047,62.642l0.001,0.002Z" style="fill-rule:nonzero;stroke:#000;stroke-width:1px;"/><path d="M305.549,926.932c0.17,4.401 0.365,8.801 0.56,13.202c0.055,1.511 0.11,3.023 0.167,4.58c0.396,8.521 1.642,15.357 4.497,23.453c0.295,3.893 0.471,7.796 0.555,11.699c0.669,15.861 4.87,30.697 9.016,45.952c2.231,8.515 4.025,17.127 5.842,25.737c2.586,11.466 6.169,20.084 13.012,29.626c1.777,3.532 1.777,3.532 0,10.595c2.345,0.583 4.69,1.165 7.106,1.766c0.717,6.417 1.887,35.287 -9.993,16.665c-4.393,-6.582 -20.208,-29.969 -20.208,-9.602l3.553,0c0.646,1.218 1.292,2.436 1.957,3.69c5.022,9.332 10.283,18.295 16.315,27.026c4.788,7.231 9.175,14.701 13.579,22.168c0.655,1.102 1.311,2.205 1.986,3.34c0.875,1.485 0.875,1.485 1.768,3c1.795,2.913 1.795,2.913 5.255,6.112l0,5.298l3.553,0c0.882,1.152 1.763,2.304 2.672,3.49c6.581,8.415 13,16.039 21.582,22.549c7.778,7.193 5.712,8.023 -6.488,3.98l0,-3.532c-1.539,-0.656 -1.539,-0.656 -3.109,-1.324c-5.237,-2.892 -11.103,-6.486 -11.103,-12.802l-3.553,0c-7.787,-8.187 -13.972,-16.193 -19.195,-26.198c-2.075,-3.734 -4.392,-6.959 -7.009,-10.333c-4.123,-5.499 -5.273,-9.641 -5.774,-16.445l-3.553,0c-3.553,-5.298 -3.553,-5.298 -3.553,-10.595l-3.553,0c-5.088,-8.686 -9.409,-16.862 -12.436,-26.488c-2.969,-7.058 -6.211,-13.996 -9.479,-20.921c-0.792,-1.691 -1.585,-3.383 -2.401,-5.125c-0.74,-1.557 -1.479,-3.114 -2.241,-4.718c-5.267,-12.844 -5.267,-12.844 1.686,-15.148c0.073,-1.894 0.305,-7.87 0.347,-8.967c-0.148,-3.502 -0.148,-3.502 -2.051,-6.686c-3.044,-6.206 -3.689,-12.775 -4.736,-19.553c-0.236,-1.493 -0.471,-2.985 -0.714,-4.523c-1.569,-10.57 -2.173,-20.637 -1.743,-31.325c0.015,-5.343 -0.827,-10.218 -1.763,-15.472c-0.871,-14.59 19.012,-51.545 19.648,-34.171l-0.001,0Z" style="fill-rule:nonzero;stroke:#000;stroke-width:1px;"/><path d="M908.46,856.808c2.246,5.063 2.246,5.063 4.552,7.174c0.54,17.39 0.254,34.028 -2.665,51.21c-2.47,14.994 -3.263,29.759 -3.331,44.919c-0.02,1.549 -0.02,1.549 -0.04,3.129c-0.167,15.66 1.381,24.426 11.366,36.713c1.573,19.632 -3.656,38.952 -17.765,52.976c-8.147,11.792 -13.626,23.468 -17.821,37.145c-10.428,31.723 -10.428,31.723 -17.71,31.723c2.679,18.106 11.163,29.191 30.201,26.488c-8.615,14.986 -12.777,16.309 -28.424,10.595c-4.139,-0.765 -8.252,-1.267 -12.436,-1.766c-14.168,-16.431 -15.769,-30.382 -1.777,-46.464c4.561,-6.092 6.59,-12.382 9.008,-19.542c4.172,-11.692 4.172,-11.692 8.758,-11.692c0.497,-1.509 0.994,-3.018 1.506,-4.573c1.988,-5.922 4.144,-11.776 6.377,-17.61c0.363,-0.973 0.726,-1.946 1.1,-2.949c1.724,-4.5 3.46,-8.43 6.214,-12.406c3.884,-7.325 4.506,-14.908 5.566,-23.053c0.23,-1.645 0.46,-3.289 0.697,-4.984c2.656,-9.397 2.656,-9.397 -3.695,-13.889c-7.258,-10.5 -5.87,-21.707 -5.552,-33.993c0.082,-4.166 0.147,-8.332 0.208,-12.499c0.065,-2.756 0.065,-2.756 0.131,-5.568c0.199,-4.442 0.199,-4.442 -1.894,-7.979c-0.933,-12.43 -0.517,-22.958 4.143,-34.593c3.631,-13.021 3.963,-25.556 -7.696,-32.51c-0.586,-2.331 -1.173,-4.662 -1.777,-7.063l-3.553,0c-4.215,-20.949 27.827,-26.165 36.308,-8.94l0.001,0.001Zm-34.531,238.5l1.777,3.532l-1.777,-3.532Z" style="fill-rule:nonzero;stroke:#000;stroke-width:1px;"/><path d="M852.833,536.857c-0.032,1.411 -0.064,2.823 -0.097,4.277c-0.251,6.485 -4.296,9.214 -9.785,11.947c-5.29,2.837 -8.48,5.502 -11.658,10.705l-3.553,0c-0.44,0.947 -0.879,1.894 -1.332,2.87c-7.831,14.789 -7.831,14.789 -12.88,14.789c-0.476,1.002 -0.953,2.003 -1.443,3.035c-2.958,5.648 -6.599,10.756 -10.215,16.003c-13.196,20.246 -6.801,21.484 20.541,25.108c1.085,35.575 -28.703,43.759 -49.902,14.258c-4.408,-9.986 -3.565,-18.587 -0.618,-28.716c0.493,-1.726 0.493,-1.726 0.995,-3.486c5.827,-19.425 15.047,-33.593 28.38,-48.565c5.376,-6.053 10.343,-12.379 15.26,-18.804c0.771,-1.006 1.542,-2.012 2.337,-3.048c1.78,-2.328 3.553,-4.661 5.324,-6.995l3.553,0c1.173,-2.331 2.345,-4.662 3.553,-7.063c14.995,-5.962 21.994,-1.65 21.54,13.685Z" style="fill-rule:nonzero;stroke:#000;stroke-width:1px;"/><path d="M792.043,464.03c10.096,1.119 20.044,0.868 30.18,0.49c7.288,-0.13 28.612,-0.097 28.612,9.209c10.249,0.98 10.249,0.98 15.989,-3.532c2.858,0.109 2.858,0.109 5.774,0.221c4.261,0.017 6.349,-0.065 10.215,-1.987c9.408,-4.676 20.561,-0.986 30.09,1.766c1.215,0.337 2.43,0.674 3.681,1.021c8.831,2.455 8.831,2.455 10.572,5.291c5.111,7.592 9.184,11.951 17.724,15.541c15.735,6.838 29.694,25.404 12.547,38.187c-6.958,-2.379 -11.5,-5.436 -16.988,-10.264c-8.437,-6.938 -16.207,-10.659 -26.419,-14.444c-4.559,-1.78 -4.559,-1.78 -7.189,-3.718c-4.2,-2.479 -8.31,-2.306 -13.137,-2.587c-6.755,-0.412 -13.154,-1.072 -19.764,-2.538c-8.719,4.093 -11.902,9.375 -15.989,17.659c-5.04,-0.771 -7.501,-2.058 -11.665,-5.146c-7.013,-4.738 -14.412,-5.948 -22.644,-7.436c-2.88,-0.556 -5.76,-1.112 -8.64,-1.669c-2.138,-0.399 -2.138,-0.399 -4.32,-0.806c-4.142,-0.815 -8.23,-1.768 -12.335,-2.747c-7.891,-1.77 -15.604,-2.321 -23.671,-2.614c-2.623,-0.106 -5.247,-0.218 -7.869,-0.338c-1.136,-0.042 -2.271,-0.085 -3.441,-0.128c-3.124,-0.307 -3.124,-0.307 -8.453,-2.072c-4.502,-0.37 -8.974,-0.661 -13.484,-0.883c-1.316,-0.072 -2.633,-0.143 -3.989,-0.217c-4.206,-0.229 -8.411,-0.448 -12.618,-0.666c-5.531,-0.286 -11.062,-0.582 -16.592,-0.883c-1.268,-0.063 -2.536,-0.125 -3.842,-0.19c-5.892,-0.321 -11.288,-0.813 -16.984,-2.459c-13.231,-0.885 -27.221,0.057 -40.194,2.725c-4.219,0.807 -4.219,0.807 -9.993,0.586c-6.802,-0.133 -12.401,1.839 -18.723,4.187c-7.233,2.452 -14.473,3.356 -22.068,3.918c-1.759,0.135 -3.519,0.271 -5.332,0.41c-1.854,0.14 -3.708,0.28 -5.619,0.424c-14.547,1.154 -29.031,2.392 -43.462,4.573c-3.49,0.519 -6.993,0.961 -10.506,1.283c-15.494,1.813 -28.164,9.577 -41.522,17.102c-4.007,2.256 -8.054,4.434 -12.1,6.62c-2.411,1.352 -4.817,2.713 -7.217,4.084c-1.39,0.788 -2.78,1.575 -4.212,2.387c-15.583,9.038 -29.823,19.83 -44.177,30.654c-2.758,2.006 -5.553,3.806 -8.459,5.587c-10.776,7.034 -19.229,16.924 -26.398,27.447c-2.515,3.468 -5.489,6.375 -8.577,9.34c-9.834,9.63 -16.856,20.402 -23.65,32.303l-3.553,0c-0.472,1.022 -0.943,2.044 -1.43,3.097c-2.2,4.109 -4.697,7.333 -7.675,10.919c-10.653,13.419 -19.865,27.966 -26.467,43.774c-2.01,4.651 -4.298,9.111 -6.62,13.616c-16.444,32.608 -29.47,66.057 -37.751,101.647c-1.13,4.139 -2.331,8.248 -3.553,12.361c12.832,-3.913 12.832,-3.913 24.094,-10.816c16.639,-12.722 38.172,-4.62 54.073,5.518c16.153,-4.014 4.139,-7.232 -4.254,-10.471c-17.652,-6.86 -51.636,-32.7 -11.735,-37.207c0.879,4.37 0.879,4.37 1.777,8.829c3.518,-0.583 7.035,-1.165 10.659,-1.766c0.882,0.724 1.763,1.448 2.672,2.194c7.88,6.213 14.115,9.891 23.976,11.933l0,7.063c1.221,0.321 2.441,0.642 3.699,0.973c2.401,0.666 2.401,0.666 4.851,1.345c1.587,0.43 3.174,0.86 4.809,1.304c8.958,3.407 10.713,8.704 13.289,17.569c1.759,0.583 3.518,1.165 5.33,1.766l0,3.532c3.518,1.748 3.518,1.748 7.106,3.532c2.01,4.152 4.007,8.309 5.996,12.471c0.563,1.16 1.127,2.32 1.707,3.514c4.729,9.94 8.511,19.431 8.619,30.589c0.85,8.652 4.715,13.151 10.284,19.624c4.07,5.022 7.301,10.26 10.59,15.803c5.476,9.124 11.456,17.32 18.3,25.501c8.114,9.71 8.114,9.71 10.125,16.107c2.052,5.76 4.401,8.404 8.994,12.361c-0.795,8.492 -2.812,16.36 -5.33,24.501c-0.317,1.03 -0.633,2.061 -0.959,3.123c-2.361,7.462 -2.361,7.462 -4.37,9.459c-0.046,1.58 -0.092,3.159 -0.139,4.787c-0.684,16.446 -2.005,31.868 -14.851,43.663c-14.725,13.542 -17.716,34.176 -21.605,52.886c-0.713,2.848 -0.713,2.848 -2.49,6.38c-0.169,2.608 -0.231,5.223 -0.222,7.836c-0.005,1.382 -0.009,2.763 -0.014,4.187c0.087,4.186 0.087,4.186 2.012,9.167c0.07,3.531 0.079,7.064 0,10.595c7.521,8.722 16.219,12.928 26.648,17.659l0,3.532c1.13,-0.04 2.26,-0.079 3.424,-0.12c12.623,-0.244 24.694,1.072 37.129,3.038c16.497,2.603 32.887,4.996 49.627,5.177c11.209,0.277 21.176,3.101 27.07,13.096c1.759,0.583 3.518,1.165 5.33,1.766c0.236,1.234 0.472,2.468 0.715,3.739c0.471,2.411 0.471,2.411 0.951,4.87c0.309,1.598 0.618,3.196 0.937,4.842c2.564,11.35 3.646,7.942 18.716,11.271c0.861,1.769 1.722,3.537 2.609,5.36c6.172,12.295 11.502,22.833 22.859,31.199c2.962,2.295 4.632,4.384 6.509,7.588c5.072,1.681 8.722,2.102 14.011,2.325c1.666,0.074 3.332,0.148 5.049,0.224c2.602,0.104 2.602,0.104 5.257,0.21c1.755,0.076 3.511,0.153 5.319,0.231c11.169,1.638 11.169,1.638 14.764,-7.067c0.327,-1.412 0.654,-2.825 0.991,-4.28c2.667,-11.427 2.667,-11.427 -8.084,-14.6c-3.247,-21.097 -5.104,-40.834 -1.332,-62.026c0.194,-1.118 0.388,-2.235 0.588,-3.386c1.325,-6.731 3.349,-12.332 6.303,-18.535c4.982,-11.96 3.598,-23.961 2.769,-36.572c-0.273,-4.68 -0.522,-9.362 -0.756,-14.044c-0.089,-1.717 -0.089,-1.717 -0.18,-3.469c-0.439,-9.971 0.167,-19.702 1.092,-29.632c0.933,-12.595 -1.703,-57.641 -19.427,-58.565c-15.586,-1.063 -15.586,-1.063 -21.478,-4.215c-15.152,-7.422 -44.079,-6.806 -59.958,-2.649c-26.536,1.034 -26.536,1.034 -33.421,-8.94c-1.391,-1.997 -1.391,-1.997 -2.811,-4.035c-2.23,-3.661 -3.728,-6.741 -5.26,-10.671c-2.981,-7.181 -7.522,-12.437 -12.692,-18.183c-1.723,-1.955 -3.444,-3.912 -5.163,-5.87c-0.799,-0.905 -1.598,-1.809 -2.422,-2.741c-7.516,-8.718 -7.516,-8.718 -7.516,-13.131c-1.467,-0.574 -1.467,-0.574 -2.963,-1.159c-5.569,-3.19 -9.313,-7.359 -13.581,-12.085c-0.859,-0.94 -1.718,-1.881 -2.603,-2.849c-6.357,-7.077 -11.94,-14.39 -17.21,-22.307c-2.718,-4.118 -2.718,-4.118 -6.273,-8.126c-4.125,-5.427 -6.565,-10.777 -9.112,-17.045c-0.447,-1.065 -0.893,-2.131 -1.353,-3.228c-1.953,-4.674 -3.833,-9.346 -5.586,-14.099c-2.357,-5.29 -6.013,-7.45 -10.604,-10.926c-8.633,-9.602 -7.106,-10.203 -7.106,-26.488c-1.173,-1.748 -2.345,-3.496 -3.553,-5.298c-0.383,-7.994 0.752,-13.717 3.553,-21.19c0.346,-1.284 0.692,-2.568 1.048,-3.89c4.266,-15.153 12.161,-19.653 25.94,-26.074c4.613,-2.614 7.093,-6.513 10.319,-10.65c4.104,-2.483 8.213,-4.794 12.436,-7.063c1.578,-0.859 3.155,-1.719 4.781,-2.604c4.526,-2.46 9.057,-4.908 13.593,-7.349c2.823,-1.52 -25.356,22.957 77.465,49.433c29.987,7.722 -41.745,-68.698 -27.332,-74.024c19.948,-5.416 36.308,-39.621 39.861,-39.621c0.985,-7.472 20.527,-21.602 14.212,-24.725c-2.041,-4.921 71.535,-2.087 49.889,-38.63c-12.787,-21.588 -94.181,5.841 -94.303,1.551c-0.61,-18.361 19.007,5.397 0,0c-1.759,-3.496 -3.518,-6.993 -5.33,-10.595c-7.745,-3.654 -15.509,-7.259 -23.3,-10.813c-2.752,-1.273 -5.479,-2.6 -8.198,-3.941c-16.421,-7.573 -34.148,-7.361 -50.221,0.628c-19.092,1.035 -20.029,-20.981 -5.33,-30.019c17.655,-8.02 37.945,-5.808 56.849,-5.298c1.173,-2.914 2.345,-5.827 3.553,-8.829c19.329,-4.803 16.773,3.288 21.318,19.424c1.026,0.364 2.052,0.728 3.109,1.104c8.372,5.085 12.33,15.055 16.433,23.618c14.584,3.277 14.584,3.277 27.633,-0.697c5.42,-3.537 10.729,-4.672 17.002,-5.815c1.174,-0.225 2.348,-0.45 3.557,-0.682c45.702,-8.229 63.959,37.114 38.858,70.764c-1.564,0.514 -3.128,1.029 -4.74,1.559c-16.201,5.454 -16.201,5.454 -27.238,17.865c-0.886,1.293 -1.772,2.586 -2.686,3.918c-5.042,7.669 -8.383,14.365 -10.305,23.342c-3.405,14.332 -14.057,26.26 -26.093,34.544c-0.985,8.533 -0.985,8.533 10.659,14.127c0.492,1.106 0.985,2.213 1.492,3.352c0.644,1.443 1.287,2.886 1.95,4.373c0.958,2.151 0.958,2.151 1.936,4.346c1.119,2.474 2.284,4.927 3.504,7.353c3.114,26.426 -15.501,38.726 -39.639,35.869c-1.451,-0.14 -2.901,-0.28 -4.396,-0.424c-10.825,-1.192 -20.331,-3.879 -30.085,-8.704c-14.672,-7.059 -28.994,-3.454 -44.13,0.63c-1.622,0.421 -3.245,0.842 -4.917,1.276c-12.814,3.334 -15.175,7.671 -21.065,19.583c-0.917,1.847 -0.917,1.847 -1.853,3.732c-0.451,0.917 -0.902,1.835 -1.367,2.78c-7.028,2.418 -9.473,1.374 -17.765,0c9.239,22.076 9.239,22.076 26.981,22.735c13.294,-0.178 28.77,1.362 30.534,16.555c1.467,11.869 6.812,18.513 17.099,24.28c5.694,8.393 11.465,22.1 -1.777,26.488c1.247,9.433 1.247,9.433 17.765,10.595l0,3.532l3.553,0c1.246,1.275 2.492,2.549 3.775,3.863c4.201,4.212 8.659,7.891 13.4,11.485c2.879,2.811 4.285,5.733 5.919,9.374c1.01,0.428 2.02,0.856 3.06,1.297c25.364,10.943 25.364,10.943 25.364,16.362l19.542,0c3.518,2.622 3.518,2.622 7.106,5.298c4.693,1.245 4.693,1.245 9.847,1.814c1.909,0.27 3.818,0.539 5.784,0.817c3.978,0.522 7.957,1.042 11.936,1.559c39.647,5.616 60.022,29.62 79.463,62.243c2.976,4.933 5.873,9.203 10.22,13.03c3.335,23.978 2.33,46.363 -8.445,68.434c-10.899,22.491 -11.929,44.986 -12.759,69.513c-0.115,3.375 -0.242,6.75 -0.373,10.125c-0.502,12.982 -0.502,12.982 -0.913,25.967c-0.055,1.881 -0.11,3.761 -0.167,5.698c-0.043,1.655 -0.085,3.31 -0.129,5.015c-0.308,4.193 -0.308,4.193 -2.085,9.491c-0.314,2.426 -0.562,4.86 -0.763,7.298c-0.131,1.425 -0.261,2.85 -0.396,4.318c-0.26,2.956 -0.51,5.913 -0.749,8.871c-3.154,33.581 -3.154,33.581 -18.966,31.716c-1.237,-0.143 -2.473,-0.287 -3.747,-0.435c-3.803,-0.559 -3.803,-0.559 -6.94,-1.455c-7.21,-1.579 -14.651,-1.511 -22.012,-1.783c-1.227,-0.06 -2.455,-0.121 -3.72,-0.183c-1.108,-0.044 -2.217,-0.088 -3.359,-0.134c-3.303,-0.535 -3.303,-0.535 -6.646,-2.321c-4.819,-2.236 -8.479,-2.147 -13.784,-2.09c-1.901,0.011 -3.801,0.023 -5.76,0.034c-1.974,0.03 -3.948,0.059 -5.982,0.09c-3.002,0.024 -3.002,0.024 -6.065,0.048c-4.937,0.042 -9.873,0.1 -14.809,0.172l0,-3.532c-2.931,-1.165 -5.863,-2.331 -8.883,-3.532c0,-10.611 21.302,-1.766 31.977,-1.766c3.104,-4.705 3.104,-4.705 -7.106,-7.063c-2.931,-4.079 -5.863,-8.158 -8.883,-12.361c-6.492,-1.329 -12.999,-2.473 -19.542,-3.532c0,-3.532 0,-3.532 10.659,-5.298c-1.006,-6.477 -2.751,-11.005 -6.218,-16.555c-4.127,-7.057 -5.697,-12.421 -6.218,-20.528c-0.728,-0.576 -1.456,-1.152 -2.207,-1.745c-0.957,-0.772 -1.914,-1.543 -2.901,-2.338c-0.948,-0.758 -1.896,-1.516 -2.873,-2.297c-2.636,-2.41 -4.311,-4.767 -6.232,-7.746c-14.033,-2.894 -27.79,-4.259 -42.081,-5.077c-16.322,-1.058 -32.465,-2.642 -48.632,-5.187c-2.546,-0.373 -2.546,-0.373 -5.144,-0.754c-11.927,-2.004 -21.538,-6.07 -32.052,-11.938c-1.026,-0.543 -2.051,-1.086 -3.108,-1.645c-11.945,-6.417 -18.92,-12.114 -23.54,-24.843c-0.599,-1.086 -1.198,-2.171 -1.815,-3.289c-8.115,-17.623 -1.17,-43.268 5.368,-60.281c0.684,-2.15 1.355,-4.305 2.012,-6.463c4.039,-12.888 8.541,-21.961 19.306,-30.62c12.805,-11.782 20.678,-22.835 15.989,-40.615c-1.145,-11.05 0.898,-20.56 4.164,-31.109c1.984,-6.235 1.984,-6.235 -0.944,-11.492c-2.58,-2.653 -4.811,-5.285 -7.106,-8.167c-4.727,-5.721 -10.154,-10.373 -15.801,-15.175c-4.353,-3.736 -8.33,-7.605 -12.29,-11.754c-0.767,-0.792 -1.534,-1.584 -2.325,-2.4c-4.18,-4.587 -7.056,-8.8 -9.167,-14.644c-0.675,-1.865 -0.675,-1.865 -1.364,-3.768c-2.23,-6.43 -4.352,-12.892 -6.463,-19.361c-6.813,-28.062 -6.813,-28.062 -28.202,-39.601c-2.093,-0.041 -4.187,-0.084 -6.28,-0.128c-3.278,-0.061 -6.554,-0.113 -9.832,-0.138c-14.409,-0.126 -26.368,-1.751 -39.404,-8.254c-1.329,0.372 -10.363,2.905 -13.532,3.794c-4.492,1.257 -4.492,1.257 -7.786,5.035c-2.817,0.993 -2.817,0.993 -5.996,1.766c-3.786,0.978 -6.644,1.876 -10.104,3.752c-4.762,2.138 -8.947,1.778 -14.101,1.545c-12.616,25.08 -4.045,69.638 -0.333,97.012c0.147,1.105 0.294,2.209 0.446,3.347c1.703,12.547 4.013,24.714 7.654,36.865c1.014,3.674 1.601,7.107 2.004,10.887c0.968,6.015 2.88,9.305 6.218,14.348c3.371,6.899 9.753,22.377 5.33,29.247c-4.546,11.014 -1.06,20.359 3.442,30.682c0.554,1.302 1.109,2.604 1.68,3.945c5.596,12.79 12.383,24.784 19.485,36.793c2.048,3.532 3.998,7.102 5.926,10.699c11.338,21.024 25.285,38.875 41.29,56.59c5.042,6.021 9.244,12.61 13.449,19.224c2.922,0.814 5.847,1.622 8.772,2.428c2.693,0.744 2.693,0.744 5.441,1.504c4.417,1.132 8.721,1.951 13.213,2.69c18.753,4.009 36.027,18.348 49.965,30.792c5.807,5.005 11.381,7.661 18.542,10.264c3.222,1.282 6.442,2.57 9.66,3.863c8.592,4.977 8.592,4.977 4.552,-3.863c-1.282,-0.692 -2.565,-1.384 -3.886,-2.097c-4.415,-2.828 -7.667,-5.772 -11.316,-9.476c-4.739,-4.724 -9.721,-9.192 -14.665,-13.701c-1.061,-0.971 -2.123,-1.942 -3.216,-2.942c-2.59,-2.369 -5.182,-4.736 -7.776,-7.101l0,-3.532c-2.345,-1.165 -4.69,-2.331 -7.106,-3.532c-4.861,-14.495 33.497,8.047 39.771,13.713c6.208,4.722 13.57,7.749 20.631,11.009c0.769,1.348 1.539,2.695 2.332,4.084c4.161,6.587 7.533,10.202 14.989,12.692c6.804,2.375 13.4,5.031 19.986,7.946c1.356,0.583 2.711,1.165 4.108,1.766c3.375,1.988 4.407,3.867 6.551,7.063c3.642,2.105 3.642,2.105 7.106,3.532c-5.923,3.869 -10.733,6.065 -17.765,7.063c-11.194,22.253 46.438,23.921 60.957,23.839c1.138,-0.003 2.276,-0.006 3.449,-0.01c15.261,-0.004 15.261,-0.004 29.75,-4.405c0.586,0.583 1.173,1.165 1.777,1.766l14.212,0c4.932,4.902 1.45,18.635 0,24.722c-0.22,1.748 -0.44,3.496 -0.666,5.298c-5.271,25.151 -41.295,9.975 -59.625,5.298c-3.916,-0.982 -7.833,-1.959 -11.751,-2.933c-2.412,-0.601 -4.822,-1.208 -7.231,-1.822c-8.997,-2.269 -17.916,-4.217 -27.236,-4.385c-15.101,-0.446 -27.304,-1.58 -40.943,-8.519c-2.232,-1.042 -4.467,-2.078 -6.704,-3.111c-13.121,-6.167 -24.587,-12.8 -36.093,-21.597c-7.181,-5.188 -15.237,-8.778 -23.198,-12.615c-13.595,-6.552 -26.163,-13.46 -37.411,-23.578c-4.877,-4.087 -10.214,-7.409 -15.593,-10.802c-3.396,-2.335 -6.031,-4.84 -8.91,-7.76c-3.731,-2.076 -3.731,-2.076 -7.106,-3.532l0,-3.532c-0.953,-0.437 -1.905,-0.874 -2.887,-1.324c-10.964,-5.736 -17.106,-11.47 -24.448,-21.418c-2.54,-3.319 -5.153,-6.183 -8.196,-9.043l0,-3.532l-3.553,0c-3.484,-4.18 -6.684,-8.111 -9.438,-12.802c-2.722,-4.41 -5.633,-8.221 -8.883,-12.251c-12.75,-16.166 -22.008,-34.565 -31.435,-52.773c-1.425,-2.75 -2.871,-5.489 -4.324,-8.225c-10.861,-21.84 -18.262,-47.217 -21.506,-71.331c-1.027,-6.476 -2.612,-12.746 -4.247,-19.093c-0.309,-1.213 -0.619,-2.425 -0.937,-3.674c-1.387,-5.417 -2.797,-10.825 -4.247,-16.226c-7.371,-28.971 -8.115,-59.395 -8.806,-89.141c-0.039,-1.607 -0.078,-3.214 -0.118,-4.87c-0.805,-36.479 2.087,-70.269 12.997,-105.294c1.507,-5.132 2.569,-10.309 3.664,-15.543c2.3,-10.123 5.807,-19.208 10.067,-28.664c1.752,-3.955 3.432,-7.937 5.11,-11.923c7.69,-18.202 15.802,-36.054 24.939,-53.584c1.757,-3.412 3.449,-6.854 5.144,-10.297c3.257,-6.478 6.859,-12.62 10.812,-18.7c0.678,-1.048 1.355,-2.096 2.053,-3.175c5.914,-8.969 12.475,-17.329 19.252,-25.665c4.859,-6.021 9.132,-12.081 13.115,-18.727c10.572,-17.111 25.927,-30.999 40.235,-45.015c4.412,-4.457 8.37,-9.137 12.283,-14.03l3.553,0c0.586,-1.748 1.173,-3.496 1.777,-5.298c1.287,-0.662 2.574,-1.325 3.9,-2.007c9.661,-5.083 18.244,-10.058 26.301,-17.417l3.553,0l0,-3.532c2.66,-1.626 5.326,-3.243 7.994,-4.856c1.484,-0.901 2.968,-1.803 4.497,-2.732c6.37,-3.633 12.895,-6.857 19.486,-10.071c3.515,-1.729 7.029,-3.462 10.542,-5.196c2.447,-1.208 4.895,-2.412 7.345,-3.614c6.418,-3.172 12.567,-6.494 18.644,-10.283c23.078,-12.778 57.795,-12.976 83.503,-12.671c5.853,0.429 5.853,0.429 9.653,-1.787c2.666,0.058 5.332,0.18 7.994,0.331c9.315,0.12 17.364,-1.515 26.315,-3.752c18.675,-4.541 37.142,-5.091 56.294,-5.408c2.558,-0.07 5.117,-0.142 7.675,-0.214c13.738,-0.287 27.012,0.749 40.634,2.493c10.798,1.313 21.381,1.48 32.244,0.967c8.516,-0.258 13.324,1.352 20.708,5.584c15.88,5.261 -5.905,-15.578 12.269,-13.23l0.004,-0.002Zm-225.452,306.362c4.655,1.542 -3.857,-3.118 0,-3.532l0,3.532Zm143.898,305.492c1.759,0.874 1.759,0.874 3.553,1.766c-1.618,-9.118 -1.618,-9.118 -3.553,-1.766Zm-218.512,199.541c8.587,3.237 8.587,3.237 5.33,-5.298c-8.587,-3.237 -8.587,-3.237 -5.33,5.298Z" style="fill-rule:nonzero;stroke:#000;stroke-width:1px;"/><path d="M205.478,296.867c54.033,-1.998 96.102,71.714 38.008,98.833c-1.042,0.527 -2.084,1.054 -3.157,1.597c-23.05,11.153 -55.96,7.272 -78.785,-3.032c-2.089,-0.854 -2.089,-0.854 -4.219,-1.724c-16.744,-6.988 -16.744,-6.988 -18.987,-16.707c-0.851,-3.603 -1.72,-6.391 -3.504,-9.664c-7.757,-16.7 0.183,-42.202 14.275,-53.134c1.246,-1.202 2.492,-2.404 3.775,-3.642c16.315,-10.929 33.587,-11.445 52.595,-12.527l-0.001,0Zm-31.499,67.378c35.762,11.744 90.253,10.729 49.743,-37.083c-25.366,-4.534 -84.41,0.081 -49.743,37.083Z" style="fill-rule:nonzero;stroke:#000;stroke-width:1px;"/><path d="M989.854,296.908c1.519,-0.002 3.039,-0.005 4.604,-0.007c2.389,0.01 2.389,0.01 4.826,0.021c1.545,-0.007 3.089,-0.014 4.681,-0.021c25.992,0.039 51.796,4.119 28.074,35.558c-10.199,3.379 -21.297,2.058 -31.866,0.883c-21.572,-2.342 -43.391,-0.167 -64.978,1.14c-4.215,0.253 -8.431,0.498 -12.647,0.736c-1.378,0.079 -2.756,0.157 -4.176,0.238c-10.96,0.572 -21.883,0.636 -32.853,0.314c-7.156,-0.127 -12.081,0.72 -18.696,3.752c-11.638,2.654 -23.796,1.832 -35.641,1.655c-14.574,-0.107 -28.476,0.327 -42.852,2.635c-10.136,1.616 -20.394,2.316 -30.619,3.151c-7.613,0.665 -14.965,1.613 -22.441,3.208c-8.515,1.788 -16.766,2.335 -25.447,2.594c-13.105,0.532 -25.537,1.897 -38.417,4.415c-18.736,3.151 -37.445,-13.228 -17.34,-26.5c4.847,-2.718 9.921,-3.715 15.342,-4.623c1.156,-0.21 2.312,-0.421 3.503,-0.638c19.63,-3.459 39.452,-5.372 59.282,-7.278c20.032,-1.957 40.021,-4.31 60.017,-6.605c2.543,-0.291 5.086,-0.582 7.63,-0.87c5.013,-0.57 10.021,-1.15 15.026,-1.786c7.496,-0.934 14.618,-1.163 22.164,-0.851c18.484,0.701 35.737,-2.256 53.698,-6.137c2.843,-0.607 2.843,-0.607 5.743,-1.226c1.692,-0.379 3.385,-0.758 5.128,-1.149c4.309,-0.61 4.309,-0.61 9.639,1.156c3.243,0.2 3.243,0.2 6.746,0.066c1.34,-0.03 2.679,-0.06 4.06,-0.09c1.438,-0.042 2.876,-0.084 4.358,-0.128c1.482,-0.038 2.965,-0.075 4.492,-0.114c3.132,-0.082 6.263,-0.168 9.394,-0.259c4.803,-0.138 9.606,-0.256 14.41,-0.372c3.041,-0.082 6.081,-0.164 9.122,-0.248c1.442,-0.035 2.883,-0.07 4.368,-0.106c1.334,-0.041 2.668,-0.082 4.043,-0.124c1.175,-0.033 2.351,-0.066 3.562,-0.099c5.056,-0.498 8.707,-2.284 14.064,-2.292l-0.003,0.001Z" style="fill-rule:nonzero;stroke:#000;stroke-width:1px;"/><path d="M537.5,299.35c1.347,0.361 2.693,0.721 4.081,1.093c8.096,2.388 13.429,5.193 19.68,10.827c1.466,0.983 2.931,1.967 4.441,2.98c23.777,21.862 16.273,51.35 -9.771,65.888c-1.685,1.02 -3.371,2.04 -5.108,3.09c-14.66,5.829 -29.254,6.084 -44.857,6.18c-2.478,0.025 -2.478,0.025 -5.007,0.05c-27.824,-0.125 -46.241,-5.418 -46.845,-34.704c-0.074,-1.873 -0.149,-3.747 -0.226,-5.677c-0.769,-49.84 42.858,-60.664 83.611,-49.727l0.001,0Zm-38.416,31.344l-3.554,0c-14.173,34.339 28.141,39.269 49.743,21.19c0.996,-11.262 0.996,-11.262 -7.106,-15.893c-1.173,-2.331 -2.345,-4.662 -3.553,-7.063c-21.404,-7.791 -21.404,-7.791 -35.53,1.766Z" style="fill-rule:nonzero;stroke:#000;stroke-width:1px;"/><path d="M388.828,301.226c1.26,0.333 2.52,0.665 3.818,1.008c55.099,16.04 32.476,86.324 -15.608,94.624c-4.923,0.503 -9.802,0.758 -14.747,0.938c-1.573,0.132 -3.147,0.264 -4.767,0.4c-32.684,1.792 -67.654,-18.368 -60.742,-53.265c0.367,-1.864 0.367,-1.864 0.741,-3.765c9.712,-45.158 53.716,-50.35 91.305,-39.939l0,-0.001Zm-46.079,61.253c32.002,12.322 54.31,1.544 40.86,-33.551c-28.761,-16.86 -76.112,16.125 -40.86,33.551Z" style="fill-rule:nonzero;stroke:#000;stroke-width:1px;"/><path d="M1118.694,143.665c1.499,0.077 2.998,0.155 4.542,0.235c1.526,0.091 3.053,0.182 4.625,0.276c1.519,0.077 3.039,0.155 4.604,0.235c20.312,1.109 50.829,8.087 22.154,30.889l-3.553,0c-0.53,4.585 -0.53,4.585 7.106,7.063l0,3.532c3.518,1.165 7.035,2.331 10.659,3.532c12.612,26.267 16.405,58.445 16.544,87.299c0.01,1.199 0.019,2.398 0.029,3.633c-0.24,16.471 -13.028,34.426 -25.456,9.721c0.284,-1.284 0.568,-2.568 0.861,-3.89c2.746,-14.806 0.436,-29.035 -2.517,-43.607c-1.149,-5.799 -2.011,-11.074 -1.723,-16.991c-0.249,-8.834 -3.637,-15.73 -7.2,-23.718c-3.688,-8.892 -3.93,-15.421 -1.856,-24.808c-38.332,-0.237 -76.663,-0.042 -114.992,0.465c-4.565,0.06 -9.131,0.108 -13.696,0.146c-28.451,0.246 -56.163,1.665 -84.101,7.479c-3.797,0.711 -7.34,1.01 -11.198,1.111c-2.049,0.075 -2.049,0.075 -4.139,0.152c-2.766,0.089 -5.533,0.168 -8.3,0.235c-9.415,0.37 -18.311,1.745 -27.519,3.601c-15.02,2.989 -29.892,3.985 -45.169,4.691c-5.071,0.254 -10.141,0.519 -15.211,0.786c-1.195,0.061 -2.39,0.123 -3.621,0.186c-6.903,0.37 -13.691,0.987 -20.532,1.945c-7.128,0.858 -14.312,1.011 -21.481,1.277c-2.771,0.111 -2.771,0.111 -5.598,0.225c-13.196,0.492 -26.388,0.771 -39.592,0.975c-3.414,0.058 -6.827,0.117 -10.241,0.176c-6.705,0.116 -13.409,0.201 -20.114,0.269c-19.661,0.286 -38.635,1.986 -58.05,5.095c-9.342,1.475 -18.631,1.989 -28.075,2.413c-6.778,0.381 -13.506,1.077 -20.25,1.835c-42.548,4.715 -85.05,5.805 -127.789,2.765c-8.548,-0.58 -16.68,-0.225 -25.172,0.829c-3.605,0.386 -6.826,0.34 -10.43,0.097c-6.008,0.332 -8.352,1.31 -13.546,3.973c-10.533,5.039 -36.725,5.324 -45.745,-3.642c-2.709,-0.237 -5.417,-0.474 -8.126,-0.71c-1.726,-0.151 -3.452,-0.302 -5.23,-0.457c-5.651,-0.49 -11.303,-0.968 -16.955,-1.447c-5.892,-0.502 -11.776,-1.028 -17.654,-1.669c-8.937,-0.904 -16.859,-1.123 -25.711,0.538c-12.259,2.152 -24.539,3.655 -36.911,4.96c-1.128,0.121 -2.256,0.242 -3.418,0.367c-14.257,1.504 -27.935,2.198 -42.234,0.722c-8.934,-0.832 -15.94,0.761 -24.445,3.339c-5.95,1.445 -11.468,1.941 -17.556,2.341c-21.105,1.451 -38.48,8.011 -57.579,16.739c-1.485,0.673 -2.969,1.346 -4.499,2.04c-25.753,11.737 -36.904,29.073 -42.354,51.541c-2.421,9.982 -3.717,20.978 -4.667,32.946c-0.158,1.89 -0.315,3.781 -0.478,5.729c-2.079,24.985 -3.676,49.554 -2.298,74.618c0.07,1.395 0.14,2.791 0.212,4.228c0.58,10.835 1.611,21.583 3.105,32.332c1.337,10.184 1.076,19.871 0.347,30.101c-0.637,9.102 -1.129,17.096 0.888,26.046c0.27,4.857 0.252,9.705 0.222,14.568c-0.002,1.343 -0.004,2.687 -0.007,4.071c-0.047,6.74 -0.273,13.303 -1.215,19.989c-1.243,9.013 -0.085,17.722 0.999,26.709c1.45,12.07 2.491,23.302 0.82,35.388c-1.071,9.407 -0.59,18.51 0.047,27.935c0.112,1.81 0.225,3.62 0.341,5.485c0.24,3.823 0.487,7.646 0.74,11.469c0.378,5.718 0.735,11.437 1.088,17.156c0.238,3.75 0.478,7.5 0.718,11.25c0.104,1.651 0.208,3.303 0.315,5.004c0.562,8.408 1.22,16.775 2.141,25.151c2.554,23.59 3.115,46.834 2.957,70.546c-0.011,3.864 -0.02,7.728 -0.028,11.591c-0.023,10.052 -0.067,20.104 -0.116,30.155c-0.077,16.149 -0.13,32.298 -0.171,48.447c-0.018,5.597 -0.048,11.194 -0.08,16.79c-0.012,3.449 -0.024,6.898 -0.035,10.346c-0.018,2.294 -0.018,2.294 -0.036,4.635c-0.017,8.944 0.515,17.672 1.552,26.558c0.72,7.258 0.659,14.519 0.642,21.806c0.003,2.428 0.003,2.428 0.005,4.905c0.001,3.395 -0.002,6.79 -0.009,10.185c-0.01,5.149 0,10.298 0.011,15.447c-0.001,3.322 -0.003,6.645 -0.007,9.967c0.004,1.514 0.007,3.029 0.011,4.589c-0.035,9.05 -0.613,17.878 -1.708,26.864c-0.496,6.172 0.506,11.96 1.461,18.046c1.868,13.961 1.92,27.761 1.711,41.823c-0.094,9.245 0.254,18.396 0.898,27.618c1.346,19.477 1.562,38.982 1.925,58.497c0.053,35.022 0.053,35.022 5.325,69.486c1.581,7.678 1.65,15.494 1.91,23.308c0.069,1.648 0.137,3.296 0.208,4.994c0.298,7.58 0.482,15.136 0.416,22.722c-0.124,32.673 7.492,54.505 32.019,76.47l0,3.532l3.553,0c1.173,1.748 2.345,3.496 3.553,5.298c21.562,7.511 43.47,9.311 66.148,10.677c56.476,3.472 56.476,3.472 70.645,10.513c5.394,0.106 10.759,0.041 16.152,-0.069c8.203,-0.095 16.308,0.317 24.486,0.924c15.946,1.148 31.871,1.339 47.855,1.352c1.514,0.002 3.028,0.004 4.588,0.005c26.213,-0.021 51.537,-1.716 77.465,-5.744c2.962,-0.453 2.962,-0.453 5.984,-0.916c9.602,-1.481 19.193,-3.014 28.776,-4.616c8.525,-1.399 17.044,-2.454 25.642,-3.297c1.761,-0.184 3.522,-0.369 5.337,-0.559c8.447,-0.808 16.708,-1.288 25.191,-1.152c4.116,-0.07 8.087,-0.775 12.144,-1.421c10.683,-1.215 21.446,-0.821 32.026,0.966c8.904,1.027 19.362,1.839 28.074,-0.471c7.804,-1.827 15.937,-1.372 23.917,-1.446c1.813,-0.051 3.625,-0.102 5.493,-0.155c26.014,-0.217 41.115,18.505 11.565,31.369c-10.544,3.483 -22.316,2.832 -33.305,2.871c-4.613,0.018 -9.22,0.112 -13.832,0.218c-14.376,0.254 -27.752,-0.238 -41.904,-3.009c-9.42,-1.372 -18.725,-0.422 -28.168,0.381c-2.143,0.167 -4.286,0.333 -6.429,0.5c-36.041,2.908 -36.041,2.908 -71.419,9.866c-25.696,6.093 -54.036,4.948 -80.273,4.787c-5.439,-0.032 -10.878,-0.036 -16.317,-0.036c-18.459,-0.034 -36.832,-0.468 -55.262,-1.502c-10.038,-0.553 -19.956,-0.589 -30.004,-0.26c-12.626,0.227 -23.382,-1.369 -35.465,-4.875c-8.201,-2.283 -15.548,-2.972 -24.049,-2.741c-40.837,1.104 -81.652,-2.641 -110.589,-33.33c-1.733,-1.736 -3.472,-3.465 -5.219,-5.187c-3.664,-3.642 -3.664,-3.642 -5.441,-12.471c-2.931,-0.583 -5.863,-1.165 -8.883,-1.766c-0.931,-2.233 -0.931,-2.233 -1.881,-4.511c-0.816,-1.954 -1.633,-3.909 -2.45,-5.863c-0.409,-0.981 -0.818,-1.962 -1.239,-2.973c-1.608,-3.845 -3.216,-7.649 -5.09,-11.375c-3.166,-16.562 -3.698,-32.839 -3.442,-49.665c0.206,-15.817 -0.851,-30.79 -3.284,-46.405c-2.077,-13.635 -3.301,-27.258 -4.266,-41.004c-0.149,-1.996 -0.297,-3.991 -0.45,-6.048c-0.793,-11.893 -1.019,-23.677 -0.917,-35.595c0.157,-22.332 -1.352,-44.568 -2.741,-66.847c-2.185,-35.093 -3.396,-69.72 -1.665,-104.848c0.935,-21.644 1.464,-43.631 -1.92,-65.109c-1.322,-10.419 -1.052,-20.905 -0.99,-31.387c0.023,-3.945 0.036,-7.889 0.045,-11.834c0.015,-5.617 0.034,-11.233 0.056,-16.85c0.056,-14.452 0.073,-28.903 0.081,-43.355c0.001,-1.411 0.002,-2.823 0.002,-4.277c0.006,-22.309 -0.164,-44.601 -0.828,-66.902c-0.053,-1.888 -0.053,-1.888 -0.106,-3.814c-0.288,-9.977 -0.628,-19.603 -2.67,-29.406c-0.762,-6.975 -1.246,-13.973 -1.777,-20.97c-0.147,-1.81 -0.293,-3.619 -0.444,-5.484c-2.974,-38.569 -3.306,-77.045 -3.109,-115.698c0.042,-8.446 0.078,-16.891 0.099,-25.337c0.011,-3.325 0.034,-6.649 0.056,-9.974c0.029,-9.926 -0.18,-19.367 -1.932,-29.143c-0.553,-10.425 0.224,-20.614 1.374,-30.971c0.809,-8.735 1.434,-17.163 -1.374,-25.536c-0.363,-3.157 -0.649,-6.323 -0.888,-9.491c-0.147,-1.887 -0.293,-3.774 -0.444,-5.718c-0.147,-1.974 -0.293,-3.947 -0.444,-5.98c-0.295,-3.863 -0.591,-7.726 -0.888,-11.588c-0.143,-1.919 -0.285,-3.838 -0.432,-5.815c-0.285,-3.467 -0.614,-6.932 -1.01,-10.388c-1.57,-13.813 -0.88,-27.264 0.109,-41.077c0.124,-1.802 0.124,-1.802 0.249,-3.64c2.806,-40.513 6.414,-92.568 41.055,-119.97c0.859,-0.763 1.718,-1.525 2.602,-2.311c7.793,-6.327 16.884,-9.606 26.231,-13.02c6.375,-2.367 12.169,-5.092 18.064,-8.487c7.944,-4.487 15.864,-7.485 24.608,-10.064c1.508,-0.451 3.017,-0.903 4.571,-1.368c14.496,-4.064 28.899,-5.437 43.881,-6.386c5.019,-0.349 8.478,-0.927 13.296,-2.594c7.477,-2.367 14.407,-1.901 22.193,-1.683c24.781,0.343 49.22,-1.981 73.726,-5.518c20.5,-2.891 40.022,-1.549 60.409,1.097c5.985,0.776 11.961,1.321 17.98,1.773c6.136,0.52 11.534,1.586 17.425,3.449c18.17,4.78 34.699,4.807 52.97,0.966c17.486,-3.513 34.133,-3.572 51.852,-2.649c33.707,1.685 67.637,1.137 100.995,-4.261c8.234,-1.325 16.308,-2.277 24.645,-2.616c1.482,-0.061 2.964,-0.123 4.49,-0.186c1.149,-0.041 2.297,-0.081 3.481,-0.123c7.794,-0.342 15.218,-1.179 22.868,-2.682c18.732,-3.657 37.091,-4.068 56.129,-4.124c58.557,-0.251 116.801,-4.683 174.668,-13.592c15.598,-2.353 31.294,-3.532 47.016,-4.728c5.074,-0.391 10.146,-0.793 15.218,-1.218c1.585,-0.13 3.169,-0.261 4.802,-0.395c4.413,-0.404 4.413,-0.404 9.473,-2.274c2.307,-0.248 4.623,-0.415 6.94,-0.528c1.41,-0.069 2.82,-0.139 4.273,-0.211c1.544,-0.066 3.088,-0.132 4.679,-0.2c1.634,-0.073 3.269,-0.147 4.952,-0.222c23.069,-0.966 46.16,-1.209 69.245,-1.534c5.377,-0.076 10.754,-0.155 16.131,-0.242c3.98,-0.064 7.96,-0.121 11.941,-0.171c12,-0.197 24.091,-2.681 36.001,-2.038l0,-0.007Z" style="fill-rule:nonzero;stroke:#000;stroke-width:1px;"/><path d="M1633.282,33.699c-1.388,0.847 -1.388,0.847 -2.804,1.711c-5.804,3.781 -11.069,8.255 -16.461,12.589c-5.646,4.522 -11.37,8.939 -17.106,13.347c-2.826,2.189 -5.609,4.415 -8.376,6.677c-3.997,3.09 -3.997,3.09 -8.154,5.401c-5.16,3.261 -9.114,7.1 -13.275,11.485c-7.288,7.458 -14.861,13.765 -23.428,19.755c-2.19,1.61 -4.373,3.229 -6.551,4.856c-1.152,0.856 -2.304,1.712 -3.491,2.594c-3.336,2.516 -6.649,5.056 -9.951,7.615c-1.535,1.186 -1.535,1.186 -3.101,2.395c-2.037,1.576 -4.07,3.156 -6.099,4.742c-4.888,3.777 -9.505,7.101 -15.221,9.583l0,3.532c-1.177,0.81 -1.177,0.81 -2.378,1.637c-15.04,10.382 -29.833,20.938 -44.152,32.287c-6.845,5.411 -13.84,10.481 -21.062,15.389c-7.477,5.148 -14.715,10.629 -22.012,16.024c-10.624,7.839 -21.236,15.406 -32.574,22.197c-4.552,2.906 -8.616,6.225 -12.838,9.588c-4.503,3.236 -9.074,6.369 -13.657,9.491c-1.262,0.861 -2.524,1.722 -3.825,2.609c-9.365,6.345 -18.894,12.283 -28.708,17.919c-15.353,9.034 -30.471,18.376 -45.281,28.267c-1.412,0.942 -2.824,1.884 -4.278,2.855c-2.808,1.878 -5.611,3.761 -8.411,5.651c-10.997,7.362 -10.997,7.362 -16.991,10.118c-5.868,3.006 -10.111,6.672 -14.864,11.161c-0.81,0.744 -1.619,1.489 -2.453,2.256c-8.442,7.806 -16.486,15.925 -24.195,24.453c-1.321,1.457 -2.643,2.914 -4.004,4.415c-3.795,4.319 -7.388,8.761 -10.985,13.244c-6.197,6.502 -12.853,12.322 -19.674,18.169c-2.946,2.601 -5.696,5.27 -8.418,8.098c-3.886,3.752 -3.886,3.752 -9.216,5.518l0,3.532c-0.964,0.81 -1.928,1.621 -2.922,2.456c-1.271,1.084 -2.542,2.167 -3.851,3.283c-1.257,1.065 -2.514,2.131 -3.81,3.228c-3.485,3.259 -6.217,6.571 -8.959,10.457l-3.553,0c-0.449,1.045 -0.898,2.09 -1.36,3.166c-2.451,4.357 -4.971,6.612 -8.855,9.747c-5.903,4.955 -10.886,10.116 -15.801,16.024c-2.765,3.272 -5.737,6.294 -8.82,9.271c-1.862,1.814 -3.688,3.665 -5.496,5.532c-7.462,7.644 -15.275,14.454 -23.627,21.092c-4.716,3.776 -9.12,7.649 -13.32,11.983c-4.957,5.116 -10.305,9.587 -15.878,14.016c-7.373,5.867 -14.103,12.057 -20.701,18.79c-7.504,7.504 -14.948,14.863 -24.712,19.286c-0.387,0.958 -0.774,1.917 -1.173,2.904c-3.215,5.618 -7.422,9.695 -12.04,14.203c-0.943,0.928 -1.885,1.855 -2.856,2.811c-10.49,10.183 -21.569,20.248 -34.117,27.871c-5.784,4.051 -9.832,8.743 -14.372,14.099c-3.728,4.36 -7.708,8.287 -11.832,12.278c-1.392,1.384 -2.785,2.768 -4.219,4.194c-0.728,0.722 -1.456,1.443 -2.207,2.187c-1.832,1.826 -3.653,3.663 -5.468,5.504c-5.841,5.894 -11.746,11.257 -18.307,16.369c-1.063,1.093 -2.125,2.185 -3.22,3.311c-3.461,3.342 -6.86,5.938 -10.77,8.719c-5.995,4.378 -10.672,9.015 -15.288,14.796c-8.053,9.527 -17.673,17.77 -26.794,26.26c-2.668,2.484 -5.335,4.97 -8.001,7.457c-1.172,1.09 -2.343,2.181 -3.55,3.305c-3.574,3.384 -7.068,6.836 -10.544,10.319l-3.553,0l0,3.532c-1.179,0.81 -2.359,1.621 -3.574,2.456c-7.883,5.445 -15.697,10.858 -23.074,16.969l-3.553,0c-0.586,1.748 -1.173,3.496 -1.777,5.298c-1.502,1.07 -3.005,2.14 -4.552,3.242c-11.74,8.553 -21.346,16.704 -29.937,28.488c-2.557,3.256 -4.557,5.129 -8.147,7.119c-3.183,9.492 64.387,-4.724 77.859,-7.618c2.79,-0.599 2.79,-0.599 5.637,-1.211c2.208,-0.478 2.208,-0.478 4.461,-0.966c14.137,-2.95 28.423,-4.92 42.728,-6.87c1.409,-0.192 2.817,-0.385 4.269,-0.583c44.86,-6.041 90.19,-9.171 135.437,-10.494c1.523,-0.046 3.047,-0.092 4.616,-0.14c1.928,-0.047 1.928,-0.047 3.895,-0.094c3.731,-0.292 7.046,-1.137 10.671,-2.044c2.768,-0.288 5.543,-0.515 8.321,-0.697c17.335,-1.248 34.273,-2.847 51.304,-6.367c12.371,-2.547 24.488,-4.251 37.085,-5.187c20.719,-1.562 41.021,-5.015 61.47,-8.553c1.05,-0.181 2.101,-0.363 3.183,-0.55c4.955,-0.859 9.907,-1.735 14.853,-2.641c11.579,-2.06 22.76,-3.172 34.523,-3.155c2.556,-0.003 2.556,-0.003 5.163,-0.007c16.181,0.227 106.767,8.652 72.261,38.766c-22.771,19.807 -22.771,19.807 -41.45,43.353c-2.802,4.271 -5.584,7.71 -8.994,11.478c-5.258,5.853 -10.066,11.917 -14.767,18.21c-0.682,0.912 -1.363,1.823 -2.066,2.763c-1.348,1.805 -2.695,3.61 -4.041,5.416c-8.335,11.159 -17.114,21.669 -26.53,31.947c-7.095,7.751 -13.83,15.659 -20.215,23.998c-5.523,7.135 -11.465,13.737 -17.61,20.335c-5.248,5.667 -10.194,11.506 -15.034,17.52c-5.711,7.082 -11.811,13.493 -18.369,19.804c-4.956,5.077 -9.328,10.551 -13.768,16.072c-3.798,4.687 -7.694,9.063 -12.054,13.237c-6.531,6.284 -12.144,13.224 -17.835,20.252c-4.684,5.773 -9.522,11.41 -14.365,17.052c-6.596,7.698 -12.955,15.52 -19.132,23.556c-2.863,3.607 -5.869,7.02 -8.959,10.436c-4.77,5.333 -9.033,10.864 -13.213,16.665c-5.065,7.01 -10.23,13.9 -15.656,20.638c-1.253,1.566 -2.505,3.132 -3.796,4.746c-3.959,4.182 -7.829,6.451 -12.748,9.381c-2.452,3.176 -2.452,3.176 -4.219,6.732c-3.826,6.536 -7.991,10.466 -13.886,15.141c-3.576,3.171 -6.238,6.534 -9.098,10.354c-4.687,6.251 -9.785,11.721 -15.434,17.107c-8.445,8.087 -14.964,16.769 -21.318,26.598l-3.553,0c-0.382,0.924 -0.765,1.848 -1.159,2.801c-3.358,5.978 -7.755,10.821 -12.276,15.962c-0.953,1.097 -1.906,2.193 -2.888,3.323c-5.599,6.42 -11.309,12.72 -17.098,18.971c-5.036,5.49 -9.396,11.04 -13.546,17.217c-9.515,13.945 -22.021,24.812 -34.857,35.69c-5.166,4.732 -9.659,9.988 -14.184,15.32c-3.477,3.732 -3.477,3.732 -7.946,7.139c-4.857,4.024 -7.509,7.88 -10.742,13.258c-11.3,18.652 -11.3,18.652 -16.766,18.652c-0.495,1.748 -0.495,1.748 -0.999,3.532c-2.977,6.176 -6.759,10.347 -11.367,15.389c-3.847,4.285 -7.451,8.713 -11.062,13.196c-7.25,8.951 -15.011,17.378 -22.943,25.734c-0.874,0.925 -1.749,1.85 -2.65,2.803c-1.173,1.229 -1.173,1.229 -2.37,2.484c-5.713,6.598 -2.937,5.509 3.647,2.531c8.368,-4.129 15.304,-9.162 22.54,-15.01c9.782,-7.903 19.795,-14.665 30.617,-21.066c26.403,-15.622 50.207,-35.279 73.72,-54.828c10.347,-8.591 20.868,-16.955 31.505,-25.188c2.094,-1.623 4.187,-3.246 6.28,-4.87c1.053,-0.816 2.105,-1.633 3.19,-2.474c7.347,-5.735 14.488,-11.67 21.571,-17.723c7.765,-6.622 15.69,-12.635 24.17,-18.341c5.737,-4.018 11.203,-8.324 16.69,-12.671c9.583,-7.582 19.363,-14.8 29.391,-21.789c5.923,-4.134 11.598,-8.468 17.243,-12.976c1.756,-1.171 3.529,-2.318 5.33,-3.421c4.384,-2.85 7.855,-6.086 11.485,-9.857c8.343,-7.998 17.864,-14.885 27.265,-21.597c6.684,-4.903 12.619,-10.459 18.653,-16.113c8.314,-7.778 16.838,-14.567 26.197,-21.094c14.25,-10.226 27.225,-22.454 40.067,-34.351c16.112,-14.926 33.306,-28.203 51.452,-40.601c13.148,-9.344 25.175,-20.045 37.099,-30.861c4.763,-4.203 9.657,-8.19 14.622,-12.154c6.597,-5.275 12.651,-10.811 18.529,-16.865c7.159,-6.895 15.101,-12.939 22.887,-19.114c1.227,-0.984 1.227,-0.984 2.479,-1.988c6.105,-4.89 6.105,-4.89 9.068,-6.731c2.731,-1.923 4.791,-4.005 7.106,-6.401c4.441,-4.304 4.441,-4.304 9.771,-6.07c2.195,-2.091 4.383,-4.193 6.489,-6.374c3.846,-3.947 7.955,-7.6 12.053,-11.285c0.857,-0.772 1.714,-1.544 2.596,-2.339c7.321,-6.571 14.757,-12.905 22.608,-18.851c4.383,-3.362 4.383,-3.362 7.328,-7.946c4.069,-4.493 5.649,-5.276 11.103,-7.284c10.28,-4.118 17.161,-11.31 25.045,-18.797c5.31,-5.037 10.969,-9.446 16.821,-13.844c5.638,-4.353 11.088,-8.908 16.537,-13.492c0.995,-0.834 1.99,-1.669 3.015,-2.528c4.574,-3.861 9.05,-7.717 13.196,-12.04l3.553,0c0.698,-1.567 0.698,-1.567 1.41,-3.166c2.259,-4.109 4.556,-6.585 8.007,-9.747c1.151,-1.061 2.301,-2.122 3.487,-3.214c1.201,-1.088 2.402,-2.176 3.64,-3.297c1.181,-1.088 2.361,-2.176 3.577,-3.297c17.6,-16.127 17.6,-16.127 22.515,-16.127c0.403,-1.02 0.806,-2.04 1.221,-3.09c3.525,-6.006 8.456,-9.751 14.767,-12.692c4.048,-2.138 6.784,-4.94 9.937,-8.208c3.617,-3.615 7.525,-6.852 11.439,-10.142c12.7,-10.72 24.863,-21.932 36.929,-33.349c9.76,-9.192 19.094,-17.8 30.742,-24.563c8.088,-5.007 15.09,-10.583 22.095,-16.996c0.911,-0.833 1.821,-1.667 2.759,-2.525c21.483,-20.118 -15.672,-12.183 -31.861,-12.226c-6.556,-0.018 -13.113,-0.042 -19.669,-0.083c-31.435,-0.192 -62.596,0.444 -93.95,2.798c-27.442,2.047 -27.442,2.047 -35.931,-0.766c-14.255,-1.713 -28.52,-1.856 -42.859,-1.766c-25.031,0.137 -49.899,-0.586 -74.663,-4.415c-17.924,-2.522 -36.073,-2.965 -54.144,-3.382c-3.87,-0.09 -7.74,-0.19 -11.61,-0.293c-10.983,-0.29 -21.965,-0.57 -32.949,-0.828c-6.766,-0.16 -13.53,-0.335 -20.295,-0.521c-2.561,-0.067 -5.122,-0.129 -7.683,-0.183c-3.57,-0.077 -7.139,-0.174 -10.708,-0.276c-2.025,-0.05 -4.05,-0.099 -6.137,-0.15c-5.482,-0.552 -9.272,-1.971 -14.314,-4.079c-7.512,-1.589 -14.637,-1.981 -22.306,-1.966c-1.111,0 -2.221,-0.001 -3.365,-0.001c-3.633,0.001 -7.267,0.015 -10.9,0.029c-2.534,0.003 -5.068,0.006 -7.602,0.008c-6.641,0.007 -13.283,0.024 -19.924,0.044c-6.788,0.018 -13.576,0.026 -20.364,0.035c-13.299,0.019 -26.597,0.049 -39.895,0.086c-4.823,-7.991 -10.381,-17.943 -0.432,-25.247c3.862,-2.841 7.718,-5.688 11.572,-8.54c2.472,-1.827 4.95,-3.646 7.427,-5.464c8.024,-5.946 15.41,-11.81 22.293,-19.021c1.772,-1.64 3.559,-3.265 5.357,-4.877c14.783,-13.279 28.242,-26.902 40.499,-42.581c5.562,-7.038 11.562,-13.296 17.987,-19.535c8.882,-8.648 16.803,-17.595 24.51,-27.312c4.544,-5.692 9.181,-11.31 13.797,-16.945c1.969,-2.409 3.937,-4.819 5.906,-7.229c21.516,-26.322 21.516,-26.322 25.184,-26.322c0.431,-1.029 0.861,-2.058 1.305,-3.118c2.656,-4.661 5.646,-7.17 9.799,-10.568c7.606,-6.498 13.482,-13.401 19.098,-21.632l3.553,0c0.469,-1.047 0.939,-2.094 1.423,-3.173c2.208,-4.032 4.447,-6.494 7.793,-9.629c6.822,-6.585 13.005,-13.593 19.209,-20.749c7.309,-8.418 14.328,-16.029 23.095,-22.956c4.296,-4.581 8.362,-9.351 12.436,-14.127c11.375,-13.336 11.375,-13.336 16.877,-17.438c4.397,-3.715 6.73,-6.942 9.882,-11.699c5.941,-8.773 12.863,-15.808 20.489,-23.146c5.138,-4.98 9.768,-9.945 14.042,-15.703c5.02,-6.742 10.632,-12.482 16.655,-18.321c9.798,-9.51 18.425,-19.527 26.87,-30.24c1.223,-1.491 2.446,-2.982 3.706,-4.518c2.971,-3.767 5.531,-7.533 8.064,-11.595c5.087,-7.726 10.961,-14.348 17.36,-21.001c4.515,-4.744 8.208,-9.573 11.761,-15.061c2.752,-4.043 5.992,-7.571 9.296,-11.174c0.696,-0.764 1.393,-1.529 2.11,-2.316c4.237,-4.61 8.647,-8.96 13.212,-13.245c11.517,-11.242 20.444,-24.98 29.673,-38.083c6.001,-8.318 12.87,-15.77 19.847,-23.28c1.03,-1.11 2.06,-2.22 3.122,-3.363c1.464,-1.555 1.464,-1.555 2.957,-3.142c0.881,-0.937 1.762,-1.873 2.67,-2.838c12.005,-11.452 31.431,-0.769 34.332,13.647c-4.045,8.525 -7.918,15.612 -15.434,21.521c-10.705,8.545 -17.801,20.255 -25.426,31.454l-3.553,0c-0.694,1.929 -0.694,1.929 -1.402,3.897c-2.209,5.064 -4.746,8.862 -8.147,13.209c-1.04,1.354 -2.079,2.709 -3.151,4.104c-3.299,3.521 -5.957,5.225 -10.395,7.043c-0.474,1.054 -0.948,2.108 -1.436,3.194c-2.161,3.95 -4.255,6.243 -7.557,9.278c-7.72,7.45 -14.395,15.649 -21.081,24.003c-1.737,2.167 -3.492,4.32 -5.248,6.472c-5.482,6.817 -10.326,13.703 -14.864,21.176c-6.652,10.561 -14.649,19.231 -23.279,28.191c-4.429,4.607 -8.811,9.257 -13.196,13.906c-2.263,2.397 -4.529,4.791 -6.801,7.18c-9.211,9.714 -18.177,19.628 -26.676,29.966c-3.328,4.006 -6.892,7.657 -10.631,11.292c-7.308,7.407 -14.057,15.338 -20.236,23.694l-3.553,0c-0.472,1.029 -0.943,2.058 -1.43,3.118c-2.182,4.055 -4.616,7.13 -7.675,10.568c-1.436,1.625 -1.436,1.625 -2.901,3.283c-2.207,2.456 -2.207,2.456 -5.76,2.456c-0.55,1.42 -0.55,1.42 -1.11,2.87c-3.345,5.743 -9.57,14.789 -16.655,14.789c-0.44,0.983 -0.879,1.967 -1.332,2.98c-7.022,12.913 -7.022,12.913 -12.88,12.913c-0.414,0.992 -0.829,1.985 -1.256,3.007c-2.816,4.972 -6.511,8.549 -10.624,12.444c-6.394,6.203 -12.432,12.535 -18.244,19.286c-4.943,5.599 -10.062,11.028 -15.177,16.472c-7.062,7.523 -14.042,15.083 -20.791,22.887c-2.53,2.854 -5.098,5.643 -7.717,8.415c-9.15,9.708 -17.759,19.487 -25.533,30.332c-4.34,6.001 -9.051,10.926 -14.355,16.063c-1.913,2.111 -3.803,4.244 -5.663,6.401c-5.134,5.893 -10.367,11.682 -15.656,17.438c-13.451,14.669 -26.347,29.746 -39.083,45.029l-3.553,0l0,3.532c-0.708,0.535 -1.415,1.07 -2.144,1.621c-0.941,0.74 -1.882,1.48 -2.852,2.242c-0.927,0.717 -1.855,1.434 -2.811,2.173c-7.905,7.514 -7.905,7.514 -4.23,11.349c4.992,-0.325 9.984,-0.609 14.98,-0.868c2.133,-0.119 4.265,-0.252 6.397,-0.402c12.911,-0.897 24.046,-0.291 36.544,3.214c13.813,3.863 26.802,4.654 41.102,4.713c7.126,0.033 14.25,0.183 21.375,0.315c1.462,0.024 2.924,0.049 4.43,0.074c14.54,0.263 29.05,0.92 43.57,1.722c2.668,0.147 5.335,0.29 8.003,0.428c13.158,0.683 26.139,1.657 39.186,3.495c18.774,2.571 37.679,2.463 56.599,2.704c5.474,0.078 10.947,0.161 16.421,0.252c3.373,0.055 6.747,0.103 10.12,0.142c8.765,0.135 17.319,0.696 26.019,1.751c4.399,0.493 8.739,0.622 13.164,0.628c1.712,0.003 3.423,0.007 5.187,0.01c1.808,-0.008 3.616,-0.016 5.479,-0.024c1.949,-0.002 3.898,-0.004 5.906,-0.006c11.356,-0.052 22.664,-0.373 34.004,-0.939c23.98,-1.193 47.739,-0.759 71.73,-0.006c16.868,0.523 33.656,0.899 50.523,0.214c1.347,-0.054 2.695,-0.107 4.083,-0.163c6.278,-0.265 12.547,-0.588 18.818,-0.989c13.35,-0.741 22.739,0.392 34.447,6.967c3.284,1.347 6.576,2.677 9.882,3.973c2.257,0.888 2.257,0.888 4.559,1.793c1.097,0.428 2.194,0.856 3.324,1.297c4.859,7.245 4.06,19.424 -7.106,19.424l0,3.532c-0.805,0.489 -1.61,0.977 -2.44,1.481c-3.707,2.257 -7.407,4.527 -11.106,6.797c-1.266,0.768 -2.533,1.536 -3.838,2.328c-6.896,4.245 -13.286,8.655 -19.421,13.931c-2.935,2.513 -6.028,4.769 -9.163,7.028c-4.965,3.654 -9.624,7.478 -14.212,11.588c-5.107,4.521 -10.353,8.51 -15.989,12.361c-21.278,14.571 -40.233,31.824 -58.431,50.016c-7.833,7.799 -16.414,14.578 -25.165,21.325c-9.894,7.633 -19.426,15.44 -28.61,23.904c-10.666,9.8 -22.051,18.726 -33.428,27.689c-1.183,0.935 -2.367,1.869 -3.586,2.832c-2.315,1.826 -4.633,3.647 -6.957,5.461c-6.481,5.107 -12.417,10.4 -18.145,16.332l-3.553,0l0,3.532c-1.925,1.435 -3.849,2.87 -5.774,4.304c-1.282,0.961 -2.565,1.921 -3.886,2.911c-3.316,2.462 -6.644,4.896 -9.993,7.312c-1.404,1.023 -1.404,1.023 -2.837,2.066c-1.845,1.344 -3.696,2.679 -5.555,4.003c-5.897,4.319 -10.044,8.958 -14.592,14.72c-3.803,3.18 -3.803,3.18 -7.55,5.849c-1.255,0.904 -2.51,1.807 -3.803,2.738c-2.859,2.007 -2.859,2.007 -8.189,2.007c-1.173,2.331 -2.345,4.662 -3.553,7.063c-0.989,0.401 -1.979,0.801 -2.998,1.214c-4.18,2.358 -6.968,5.12 -10.277,8.54c-7.998,7.686 -17.318,14.002 -26.349,20.425c-9.062,6.399 -9.062,6.399 -17.225,13.857c-3.553,3.642 -3.553,3.642 -8.883,5.408l0,3.532c-0.795,0.662 -1.589,1.325 -2.408,2.007c-4.997,4.204 -9.897,8.344 -14.358,13.113c-4.62,4.761 -10.059,7.878 -15.794,11.168c-3.255,1.802 -3.255,1.802 -4.747,5.498l-3.553,0c-0.635,1.519 -0.635,1.519 -1.284,3.07c-4.636,8.159 -12.922,13.846 -20.034,19.887c-0.811,0.697 -1.622,1.393 -2.457,2.111c-9.81,8.393 -19.755,15.611 -31.026,22.018c-5.128,3.164 -8.624,6.783 -12.706,11.188c-5.381,4.606 -10.996,8.387 -16.988,12.14c-5.942,3.867 -9.163,7.001 -12.706,13.209c-6.474,8.235 -17.357,14.593 -26.44,19.549c-4.987,3.248 -7.707,6.956 -11.374,11.609c-3.266,3.011 -6.719,5.757 -10.215,8.498c-0.9,0.718 -1.8,1.436 -2.727,2.176c-6.547,5.218 -6.547,5.218 -10.153,5.218c-0.33,0.983 -0.66,1.967 -0.999,2.98c-3.171,5.071 -6.864,7.335 -11.79,10.63c-2.971,2.12 -5.357,4.285 -7.862,6.919c-4.219,4.194 -4.219,4.194 -8.327,6.622c-8.251,4.959 -15.092,11.733 -22.227,18.141c-5,4.4 -9.709,8.124 -15.635,11.216c-4.427,2.355 -7.029,4.481 -9.993,8.498c-5.188,6.751 -12.107,10.427 -19.327,14.789c-7.445,4.672 -14.262,10.049 -21.089,15.562l-3.553,0c-0.449,1.054 -0.898,2.108 -1.36,3.194c-2.465,4.349 -4.812,6.357 -8.855,9.278c-1.163,0.858 -2.327,1.716 -3.525,2.6c-4.025,2.587 -4.025,2.587 -9.23,5.029c-5.992,3.137 -10.179,6.719 -15.003,11.354c-6.65,6.206 -13.381,11.879 -20.784,17.196c-6.177,4.62 -11.888,9.786 -17.633,14.92l-3.553,0l0,3.532c-1.484,0.932 -1.484,0.932 -2.998,1.883c-8.443,5.429 -16.081,11.177 -23.539,17.872c-17.815,15.562 -17.815,15.562 -23.206,15.562l0,3.532c-6.863,6.22 -13.562,11.501 -21.735,15.893c-6.596,3.713 -12.993,8.025 -18.355,13.368c-3.403,3.374 -7.303,5.361 -11.429,7.822c-2.089,1.524 -4.159,3.072 -6.218,4.635c-6.281,4.75 -12.705,9.245 -19.209,13.685c-9.019,6.162 -17.896,12.48 -26.731,18.9c-4.761,3.445 -9.544,6.855 -14.351,10.236c-1.39,0.979 -2.78,1.958 -4.212,2.966c-3.573,2.343 -7.128,4.278 -10.999,6.084l0,3.532c-1.308,1.045 -2.615,2.09 -3.962,3.166c-1.751,1.409 -3.502,2.819 -5.253,4.228c-0.858,0.684 -1.715,1.368 -2.599,2.073c-7.309,5.9 -13.794,12.313 -20.288,19.097c-8.538,8.826 -17.286,15.964 -27.446,22.784c-4.579,3.245 -4.579,3.245 -7.925,7.822c-4.022,4.933 -7.92,7.503 -13.359,10.802c-9.268,5.836 -17.155,12.493 -25.122,19.963c-8.127,7.614 -16.682,14.514 -25.509,21.314c-1.831,1.452 -3.661,2.905 -5.489,4.359c-36.299,28.63 -36.299,28.63 -57.244,30.295c-4.122,0.328 -4.122,0.328 -8.327,0.662c-14.611,-26.141 1.001,-35.873 21.318,-52.976c10.945,-9.266 20.289,-18.401 28.799,-29.902c3.235,-3.714 5.744,-5.361 10.284,-7.181c0.477,-1.053 0.954,-2.105 1.446,-3.189c2.118,-3.895 4.193,-6.309 7.395,-9.351c1.039,-1.002 2.077,-2.005 3.147,-3.038c1.1,-1.051 2.201,-2.102 3.334,-3.184c9.976,-9.716 18.961,-19.534 27.314,-30.682c1.063,-1.393 2.125,-2.786 3.22,-4.221c2.499,-3.288 4.979,-6.589 7.439,-9.905l3.553,0c0.465,-1.043 0.93,-2.085 1.409,-3.159c2.258,-4.111 4.616,-6.659 8.029,-9.864c4.707,-4.533 9.009,-9.134 13.06,-14.251c2.788,-3.225 5.81,-6.181 8.847,-9.172c4.021,-4.012 7.883,-8.165 11.736,-12.336c1.278,-1.383 1.278,-1.383 2.582,-2.794c6.771,-7.391 13.087,-15.056 19.382,-22.852c4.776,-5.787 9.955,-11.183 15.121,-16.624c7.46,-7.889 14.021,-15.907 20.097,-24.922c7.774,-11.494 16.732,-21.838 26.187,-31.969c5.028,-5.417 9.666,-11.017 14.229,-16.833c7.404,-9.294 15.958,-17.1 24.751,-25.077c8.295,-7.572 16.192,-15.415 23.882,-23.595c0.993,-1.049 1.986,-2.098 3.01,-3.178c5.997,-6.448 11.36,-13.172 16.592,-20.244c3.372,-4.442 7.022,-8.47 10.822,-12.557c4.625,-4.986 8.993,-9.952 12.991,-15.451l3.553,0l0,-3.532l3.553,0c0.414,-1.263 0.829,-2.527 1.256,-3.828c2.656,-5.782 6.255,-9.856 10.624,-14.382c1.489,-1.573 2.976,-3.148 4.462,-4.725c0.79,-0.835 1.579,-1.669 2.393,-2.529c2.916,-3.149 5.742,-6.366 8.565,-9.598c6.396,-7.301 12.994,-14.395 19.667,-21.445c1.169,-1.24 2.338,-2.479 3.543,-3.757c5.818,-6.149 11.685,-12.21 17.775,-18.096c7.592,-7.433 14.005,-15.713 20.541,-24.06c2.655,-3.319 5.324,-6.626 7.994,-9.933c1.191,-1.48 2.382,-2.959 3.609,-4.484c2.609,-3.242 2.609,-3.242 6.162,-3.242c0.398,-0.924 0.797,-1.848 1.207,-2.801c3.208,-5.83 7.28,-10.785 11.45,-15.962c0.869,-1.09 1.738,-2.18 2.634,-3.304c3.996,-5.006 8.017,-9.99 12.064,-14.955c1.232,-1.514 2.464,-3.027 3.733,-4.587c1.081,-1.313 2.162,-2.627 3.275,-3.98c3.08,-3.88 3.08,-3.88 5.704,-8.526c2.769,-4.485 5.982,-6.929 10.09,-10.161c4.561,-4.113 8.171,-8.889 11.982,-13.683c6.688,-8.27 13.988,-15.906 21.356,-23.579c9.221,-9.618 17.976,-19.31 26.287,-29.716c4.65,-5.606 9.577,-10.896 14.573,-16.196c7.857,-8.349 15.262,-16.88 22.463,-25.798c4.915,-6.055 10.055,-11.914 15.177,-17.796c6.364,-7.327 12.503,-14.689 18.223,-22.528c3.716,-4.882 7.679,-9.541 11.645,-14.223c8.177,-9.664 16.115,-19.452 23.095,-30.019l3.553,0c0.426,-1.284 0.852,-2.568 1.291,-3.89c2.579,-5.631 5.681,-8.927 10.035,-13.327c3.442,-3.595 19.714,-25.927 12.387,-24.653c-9.264,1.354 -16.235,0.789 -25.253,-1.538c-7.241,-1.411 -13.651,0.466 -20.777,2.021c-5.058,0.902 -9.862,0.891 -14.989,0.773c-0.859,0.838 -1.718,1.675 -2.602,2.538c-6.398,3.92 -12.325,3.986 -19.715,4.525c-12.044,1.061 -23.934,2.455 -35.864,4.415c-10.089,1.654 -20.164,3.167 -30.312,4.415c-8.552,1.068 -16.906,2.538 -25.315,4.415c-36.298,8.026 -73.801,9.733 -110.872,10.875c-1.679,0.056 -3.358,0.111 -5.088,0.169c-1.476,0.042 -2.951,0.085 -4.472,0.128c-4.142,0.181 -4.142,0.181 -9.144,2.072c-2.917,0.358 -5.843,0.644 -8.772,0.883c-1.738,0.146 -3.476,0.291 -5.267,0.441c-1.816,0.146 -3.632,0.291 -5.503,0.441c-3.553,0.294 -7.106,0.588 -10.659,0.883c-1.762,0.146 -3.525,0.291 -5.34,0.441c-17.446,1.334 -17.446,1.334 -34.742,3.863c-7.622,1.343 -15.19,2.287 -22.887,3.024c-14.122,1.37 -27.559,3.648 -41.255,7.336c-1.168,0.312 -2.335,0.623 -3.538,0.945c-3.096,0.868 -6.173,1.805 -9.238,2.777c-21.857,6.662 -44.501,8.448 -67.143,10.746c-6.568,0.671 -13.133,1.372 -19.698,2.068c-5.102,0.54 -10.204,1.075 -15.307,1.599c-9.296,0.959 -18.548,1.996 -27.787,3.4c-23.614,-11.736 -18.624,-25.753 -2.144,-39.125c6.462,-5.366 12.255,-11.4 18.133,-17.383l3.553,0c0.449,-1.318 0.898,-2.636 1.36,-3.994c2.346,-5.173 4.686,-7.753 8.855,-11.568c4.807,-4.54 8.64,-8.81 12.214,-14.348c5.711,-7.954 13.298,-12.244 21.542,-17.257c8.685,-5.292 16.109,-11.235 23.537,-18.17c2.471,-2.18 4.951,-4.35 7.439,-6.512c1.759,-1.533 1.759,-1.533 3.553,-3.097c2.611,-2.232 5.293,-4.382 7.994,-6.505c6.985,-5.63 13.069,-12.218 19.327,-18.624c11.623,-11.829 23.033,-23.128 36.633,-32.693c5.433,-3.844 9.436,-7.659 13.387,-12.95c6.212,-7.157 14.572,-13.754 23.587,-16.741c0.472,-1.027 0.943,-2.053 1.43,-3.111c5.845,-10.879 15.56,-19.189 24.92,-27.053c4.453,-3.915 8.588,-8.098 12.734,-12.326c6.159,-6.243 12.502,-11.72 19.667,-16.796c3.702,-2.719 7.101,-5.651 10.534,-8.698c4.631,-4.099 9.334,-7.929 14.323,-11.588c13.52,-9.666 13.52,-9.666 23.539,-22.625c5.494,-9.414 13.843,-15.055 22.54,-21.411c1.422,-1.07 2.844,-2.14 4.309,-3.242c9.777,-7.353 9.777,-7.353 13.456,-7.353c0.605,-1.475 0.605,-1.475 1.221,-2.98c3.861,-6.762 8.801,-11.56 15.545,-15.341c5.356,-3.376 8.616,-7.3 12.616,-12.133c3.56,-4.248 7.501,-8.072 11.478,-11.926c2.371,-2.352 4.74,-4.707 7.106,-7.063c1.834,-1.82 1.834,-1.82 3.706,-3.677c1.98,-1.973 3.955,-3.951 5.912,-5.946c3.596,-3.655 7.179,-6.891 11.256,-10.023c5.279,-4.252 9.35,-9.299 13.546,-14.568c6.763,-8.46 14.029,-15.411 22.429,-22.294c2.823,-2.453 5.636,-4.918 8.438,-7.395c1.273,-1.118 2.547,-2.235 3.858,-3.387c1.218,-1.104 2.437,-2.208 3.692,-3.345c1.296,-1.168 2.592,-2.335 3.928,-3.539c3.339,-3.703 4.073,-5.34 4.733,-10.147c3.4,-15.362 15.383,-24.369 27.286,-33.627c4.27,-3.33 8.195,-6.911 12.13,-10.63c19.004,-16.937 42.046,-29.665 64.08,-42.263c6.047,-3.466 11.965,-7.113 17.87,-10.811c3.914,-2.435 7.887,-4.759 11.873,-7.075c7.582,-4.501 14.766,-9.402 21.957,-14.492c5.694,-3.925 11.504,-7.636 17.349,-11.333c13.04,-8.281 25.689,-16.967 38.112,-26.136c2.951,-2.178 5.903,-4.355 8.855,-6.532c2.225,-1.642 2.225,-1.642 4.496,-3.318c7.46,-5.472 14.913,-10.74 22.818,-15.555c8.747,-5.335 16.619,-11.5 24.605,-17.877c6.919,-5.494 14.001,-10.565 21.363,-15.454c8.666,-5.78 16.283,-12.16 23.859,-19.28c4.712,-4.384 9.432,-8.097 14.891,-11.512c6.415,-4.021 11.914,-8.654 17.432,-13.796c8.184,-7.609 16.754,-14.315 25.78,-20.901c9.401,-6.867 18.503,-14.125 27.645,-21.327c2.598,-2.037 5.21,-4.055 7.83,-6.064c7.381,-5.721 14.181,-11.563 20.687,-18.259c7.273,-7.449 15.052,-13.29 23.587,-19.197c4.154,-2.776 4.154,-2.776 7.613,-6.408c20.98,-7.724 47.519,13.063 23.872,29.688l0.007,-0.008Z" style="fill-rule:nonzero;stroke:#000;stroke-width:1px;"/></svg>