<?xml version="1.0" encoding="UTF-8" standalone="no"?><!DOCTYPE svg PUBLIC "-//W3C//DTD SVG 1.1//EN" "http://www.w3.org/Graphics/SVG/1.1/DTD/svg11.dtd"><svg width="100%" height="100%" viewBox="0 0 631 1004" version="1.1" xmlns="http://www.w3.org/2000/svg" xmlns:xlink="http://www.w3.org/1999/xlink" xml:space="preserve" xmlns:serif="http://www.serif.com/" style="fill-rule:evenodd;clip-rule:evenodd;stroke-linecap:round;stroke-miterlimit:2;"><rect id="Artboard2" x="0" y="0" width="631" height="1004" style="fill:none;"/><rect id="Artboard1" x="8" y="7" width="613.276" height="877" style="fill:none;"/><g><g><clipPath id="_clip1"><rect x="8" y="7" width="613.276" height="877"/></clipPath><g clip-path="url(#_clip1)"><path d="M347.44,9.794c3.554,0.018 7.107,0.021 10.661,0.02c34.074,0.052 34.074,0.052 47.898,3.186c2.228,0.322 4.457,0.634 6.688,0.938c5.093,0.857 8.78,1.746 13.312,4.062c0.66,0.33 1.32,0.66 2,1l0,2l6,0c2.934,1.434 5.865,2.877 8.75,4.406c3.246,1.592 6.432,2.751 9.875,3.844c5.375,1.75 5.375,1.75 7.375,3.75c2.328,0.685 4.662,1.349 7,2c6.617,2.418 12.195,6.058 18,10l0,2c1.011,0.103 2.021,0.206 3.062,0.312c11.316,1.976 20.228,9.611 28.938,16.688c0.33,0.66 0.66,1.32 1,2c1.072,0.371 2.145,0.743 3.25,1.125c4.807,2.404 6.291,5.181 8.75,9.875l0,2l2,0c0.66,1.32 1.32,2.64 2,4c1.32,1.32 2.64,2.64 4,4c1.485,2.475 1.485,2.475 3,5c2.475,0.99 2.475,0.99 5,2c3,4 3,4 4.375,7.938c1.694,4.235 3.378,5.978 6.625,9.062c1.874,3.192 2.994,5.978 3.938,9.562c1.003,3.989 1.003,3.989 5.062,8.438c1.247,1.955 2.455,3.935 3.625,5.938c0.59,0.999 1.181,1.998 1.789,3.027c1.586,3.035 1.586,3.035 3.586,9.035c1.485,1.485 1.485,1.485 3,3c0.289,1.217 0.577,2.434 0.875,3.688c1.27,4.869 3.46,8.061 6.125,12.312c0.897,2.506 0.897,2.506 1.812,5.062c1.805,4.898 3.757,8.873 6.312,13.375c3.678,6.663 4.905,12.068 5.875,19.562c0.99,1.32 1.98,2.64 3,4c3.395,8.473 5.519,16.999 7,26c0.66,1.98 1.32,3.96 2,6c0.186,2.692 0.186,2.692 0.375,5.438c0.211,5.392 0.211,5.392 2.59,8.793c2.509,4.647 2.815,8.4 3.223,13.645c-0.049,5.382 -0.049,5.382 1.812,10.125c1.72,12.983 2.205,25.983 2.25,39.062c0.009,1.27 0.018,2.54 0.028,3.848c-0.038,11.857 -1.355,22.832 -5.278,34.089c-0.144,1.382 -0.289,2.764 -0.438,4.188c-0.562,3.812 -0.562,3.812 -2.43,6.48c-5.225,8.163 -6.942,19.112 -7.508,28.645c-0.937,8.528 -4.486,16.177 -10.23,22.602c-2.864,3.691 -3.542,6.525 -4.457,11.086c-1.186,5.569 -2.453,11.037 -4.062,16.5c-1.066,3.629 -2.019,7.172 -2.812,10.875c-1.609,7.004 -3.852,13.791 -6.062,20.625c-0.44,1.36 -0.879,2.72 -1.332,4.121c-5.621,17.134 -5.621,17.134 -11.668,22.879c-0.99,1.65 -1.98,3.3 -3,5c-1.696,2.09 -3.428,4.15 -5.188,6.188c-3.491,4.072 -6.927,8.165 -10.25,12.375c-3.562,4.438 -3.562,4.438 -7.562,8.438c-0.784,0.825 -1.567,1.65 -2.375,2.5c-6.825,6.5 -6.825,6.5 -10.625,6.5c-0.66,1.32 -1.32,2.64 -2,4c-6.695,6.585 -13.947,11.236 -22,16c-1.382,0.908 -2.764,1.815 -4.188,2.75c-10.59,6.25 -10.59,6.25 -15.812,6.25l0,2c-4.278,1.938 -8.525,3.827 -12.938,5.438c-6.642,2.555 -12.677,5.587 -18.5,9.688c-5.1,3.214 -9.744,4.42 -15.562,5.875c-1.65,0.99 -3.3,1.98 -5,3c-1.939,0.639 -3.878,1.279 -5.875,1.938c-5.835,1.722 -5.835,1.722 -9.562,4.125c-4.402,2.394 -8.662,3.192 -13.539,4.219c-3.334,0.793 -6.042,2.046 -9.023,3.719c-1.98,0.66 -3.96,1.32 -6,2c-1.65,0.66 -3.3,1.32 -5,2c-8.205,2.93 -8.205,2.93 -12.562,3.312c-3.746,0.472 -3.746,0.472 -7.062,3.625c-9.217,6.452 -20.77,5.247 -31.602,5.035c-3.704,-0.168 -3.704,-0.168 -6.773,1.027c-2.284,0.208 -4.573,0.367 -6.863,0.5c-1.362,0.082 -2.724,0.165 -4.127,0.25c-1.426,0.082 -2.853,0.165 -4.322,0.25c-2.809,0.164 -5.617,0.33 -8.426,0.5c-1.248,0.072 -2.496,0.144 -3.782,0.219c-3.178,0.257 -6.334,0.757 -9.479,1.281c-6.268,0.3 -12.538,0.323 -18.812,0.375c-1.71,0.037 -3.42,0.075 -5.182,0.113c-9.077,0.063 -15.375,-0.002 -23.006,-5.488c-2.33,-0.677 -4.663,-1.346 -7,-2c-0.99,-0.99 -1.98,-1.98 -3,-3c-3.158,-0.396 -3.158,-0.396 -6.688,-0.375c-6.509,-0.321 -9.946,-1.805 -15.312,-5.625c-2.996,-1.012 -5.996,-2.013 -9,-3c-0.99,-0.99 -1.98,-1.98 -3,-3c-2.846,-0.65 -2.846,-0.65 -5.75,-1.312c-6.359,-1.717 -8.629,-3.244 -13.25,-7.688c-2.635,-1.717 -5.3,-3.388 -8,-5c-2.475,-1.485 -2.475,-1.485 -5,-3c-1.32,-0.33 -2.64,-0.66 -4,-1c-4,-4 -4,-4 -4,-6c-1.32,-0.66 -2.64,-1.32 -4,-2c-1.98,-1.485 -1.98,-1.485 -4,-3l0,-2c-1.65,-0.33 -3.3,-0.66 -5,-1c-2.711,-2.622 -5.373,-5.294 -8,-8c-2.651,-2.02 -5.319,-4.02 -8,-6c-1.567,-1.403 -3.135,-2.805 -4.75,-4.25c-3.964,-3.821 -3.964,-3.821 -8.25,-5.75l0,-2c-0.99,-0.33 -1.98,-0.66 -3,-1c-1.485,-2.475 -1.485,-2.475 -3,-5c-2.657,-2.473 -2.657,-2.473 -5.625,-4.75c-1.473,-1.168 -1.473,-1.168 -2.977,-2.359c-0.791,-0.624 -1.583,-1.248 -2.398,-1.891c-1,-1 -1,-1 -1,-6c-1.32,-0.66 -2.64,-1.32 -4,-2c-4.49,-4.73 -7.795,-9.366 -11,-15c-4.265,-6.345 -4.265,-6.345 -10,-11c-0.66,-1.65 -1.32,-3.3 -2,-5c-1.521,-3.071 -3.089,-6.115 -4.66,-9.16c-1.34,-2.84 -1.34,-2.84 -2.34,-6.84l-2,0l0,-3l-3,0c-0.557,-1.299 -1.114,-2.599 -1.688,-3.938c-2.941,-6.439 -6.41,-12.493 -9.938,-18.625c-2.375,-4.438 -2.375,-4.438 -3.812,-8.312c-2.021,-5.336 -4.804,-10.136 -7.562,-15.125c-2,-5 -2,-5 -2.812,-8.812c-1.342,-5.861 -3.124,-11.503 -4.969,-17.223c-1.218,-3.962 -2.234,-7.939 -3.219,-11.965c-1.355,-4.644 -2.75,-9.262 -4.305,-13.844c-2.539,-7.63 -4.333,-13.998 -3.695,-22.156l-3,0c-0.061,-1.29 -0.121,-2.581 -0.184,-3.91c-0.126,-2.55 -0.126,-2.55 -0.254,-5.152c-0.081,-1.682 -0.162,-3.364 -0.246,-5.098c-0.228,-4.595 -0.228,-4.595 -0.828,-8.129c-0.529,-4.016 -0.618,-7.875 -0.621,-11.926c-0.001,-1.575 -0.003,-3.149 -0.004,-4.771c0.004,-1.634 0.008,-3.268 0.012,-4.951c-0.004,-1.599 -0.008,-3.198 -0.012,-4.846c0.008,-10.11 0.373,-20.136 1.137,-30.217l2,0c-0.107,-1.007 -0.214,-2.014 -0.324,-3.051c-1.178,-13.817 0.413,-26.662 4.324,-39.949c1.581,-6.572 2.904,-13.016 3.562,-19.75c0.438,-4.25 0.438,-4.25 2.438,-6.25c1.005,-2.665 2.004,-5.332 3,-8c0.99,-1.65 1.98,-3.3 3,-5c0.65,-1.578 0.65,-1.578 1.312,-3.188c1.688,-3.812 1.688,-3.812 4.688,-8.438c2.864,-5.131 3.786,-9.259 4.902,-14.953c1.746,-5.444 5.177,-9.462 8.617,-13.965c2.962,-4.128 4.854,-8.325 6.867,-12.965c5.314,-11.503 11.887,-21.363 20.613,-30.492c0.99,-1.65 1.98,-3.3 3,-5c1.618,-1.714 3.297,-3.371 5,-5c4.605,-4.542 8.957,-8.946 13,-14c5,-4 5,-4 7,-4c0.495,-1.485 0.495,-1.485 1,-3c2.624,-1.446 5.251,-2.886 7.902,-4.281c7.552,-4.19 13.957,-9.498 20.223,-15.406c4.642,-4.354 9.151,-7.451 14.875,-10.312c1.052,-0.763 2.104,-1.526 3.188,-2.312c2.812,-1.688 2.812,-1.688 8.812,-1.688l0,-2c5.95,-4.054 12.343,-7.288 19,-10c2.32,-1.237 2.32,-1.237 4.688,-2.5c7.284,-3.428 14.626,-4.982 22.5,-6.5c4.77,-0.882 4.77,-0.882 9.041,-2.478c4.711,-1.502 9.035,-2.278 13.936,-2.874c1.699,-0.211 3.398,-0.423 5.148,-0.641c1.753,-0.209 3.506,-0.418 5.312,-0.633c3.492,-0.429 6.984,-0.859 10.477,-1.289c1.54,-0.185 3.08,-0.37 4.667,-0.561c3.752,-0.465 7.492,-0.976 11.232,-1.525l0,-2c5.963,-1.988 11.758,-2.467 18,-3c0.33,-0.33 0.66,-0.66 1,-1c5.153,-0.296 10.306,-0.45 15.465,-0.621c4.915,-0.217 9.724,-0.771 14.602,-1.402c11.116,-1.282 22.203,-1.242 33.374,-1.182l-0.003,-0.002Z" style="fill:#f0eeec;fill-rule:nonzero;"/><path d="M347.44,9.794c3.554,0.018 7.107,0.021 10.661,0.02c34.074,0.052 34.074,0.052 47.898,3.186c2.228,0.322 4.457,0.634 6.688,0.938c5.093,0.857 8.78,1.746 13.312,4.062c0.66,0.33 1.32,0.66 2,1l0,2l6,0c2.934,1.434 5.865,2.877 8.75,4.406c3.246,1.592 6.432,2.751 9.875,3.844c5.375,1.75 5.375,1.75 7.375,3.75c2.328,0.685 4.662,1.349 7,2c6.617,2.418 12.195,6.058 18,10l0,2c1.011,0.103 2.021,0.206 3.062,0.312c11.316,1.976 20.228,9.611 28.938,16.688c0.33,0.66 0.66,1.32 1,2c1.072,0.371 2.145,0.743 3.25,1.125c4.807,2.404 6.291,5.181 8.75,9.875l0,2l2,0c0.66,1.32 1.32,2.64 2,4c1.32,1.32 2.64,2.64 4,4c1.485,2.475 1.485,2.475 3,5c2.475,0.99 2.475,0.99 5,2c3,4 3,4 4.375,7.938c1.694,4.235 3.378,5.978 6.625,9.062c1.874,3.192 2.994,5.978 3.938,9.562c1.003,3.989 1.003,3.989 5.062,8.438c1.247,1.955 2.455,3.935 3.625,5.938c0.59,0.999 1.181,1.998 1.789,3.027c1.586,3.035 1.586,3.035 3.586,9.035c1.485,1.485 1.485,1.485 3,3c0.289,1.217 0.577,2.434 0.875,3.688c1.27,4.869 3.46,8.061 6.125,12.312c0.897,2.506 0.897,2.506 1.812,5.062c1.805,4.898 3.757,8.873 6.312,13.375c3.678,6.663 4.905,12.068 5.875,19.562c0.99,1.32 1.98,2.64 3,4c3.395,8.473 5.519,16.999 7,26c0.66,1.98 1.32,3.96 2,6c0.186,2.692 0.186,2.692 0.375,5.438c0.211,5.392 0.211,5.392 2.59,8.793c2.509,4.647 2.815,8.4 3.223,13.645c-0.049,5.382 -0.049,5.382 1.812,10.125c1.72,12.983 2.205,25.983 2.25,39.062c0.009,1.27 0.018,2.54 0.028,3.848c-0.038,11.857 -1.355,22.832 -5.278,34.089c-0.144,1.382 -0.289,2.764 -0.438,4.188c-0.562,3.812 -0.562,3.812 -2.43,6.48c-5.225,8.163 -6.942,19.112 -7.508,28.645c-0.937,8.528 -4.486,16.177 -10.23,22.602c-2.864,3.691 -3.542,6.525 -4.457,11.086c-1.186,5.569 -2.453,11.037 -4.062,16.5c-1.066,3.629 -2.019,7.172 -2.812,10.875c-1.609,7.004 -3.852,13.791 -6.062,20.625c-0.44,1.36 -0.879,2.72 -1.332,4.121c-5.621,17.134 -5.621,17.134 -11.668,22.879c-0.99,1.65 -1.98,3.3 -3,5c-1.696,2.09 -3.428,4.15 -5.188,6.188c-3.491,4.072 -6.927,8.165 -10.25,12.375c-3.562,4.438 -3.562,4.438 -7.562,8.438c-0.784,0.825 -1.567,1.65 -2.375,2.5c-6.825,6.5 -6.825,6.5 -10.625,6.5c-0.66,1.32 -1.32,2.64 -2,4c-6.695,6.585 -13.947,11.236 -22,16c-1.382,0.908 -2.764,1.815 -4.188,2.75c-10.59,6.25 -10.59,6.25 -15.812,6.25l0,2c-4.278,1.938 -8.525,3.827 -12.938,5.438c-6.642,2.555 -12.677,5.587 -18.5,9.688c-5.1,3.214 -9.744,4.42 -15.562,5.875c-1.65,0.99 -3.3,1.98 -5,3c-1.939,0.639 -3.878,1.279 -5.875,1.938c-5.835,1.722 -5.835,1.722 -9.562,4.125c-4.402,2.394 -8.662,3.192 -13.539,4.219c-3.334,0.793 -6.042,2.046 -9.023,3.719c-1.98,0.66 -3.96,1.32 -6,2c-1.65,0.66 -3.3,1.32 -5,2c-8.205,2.93 -8.205,2.93 -12.562,3.312c-3.746,0.472 -3.746,0.472 -7.062,3.625c-9.217,6.452 -20.77,5.247 -31.602,5.035c-3.704,-0.168 -3.704,-0.168 -6.773,1.027c-2.284,0.208 -4.573,0.367 -6.863,0.5c-1.362,0.082 -2.724,0.165 -4.127,0.25c-1.426,0.082 -2.853,0.165 -4.322,0.25c-2.809,0.164 -5.617,0.33 -8.426,0.5c-1.248,0.072 -2.496,0.144 -3.782,0.219c-3.178,0.257 -6.334,0.757 -9.479,1.281c-6.268,0.3 -12.538,0.323 -18.812,0.375c-1.71,0.037 -3.42,0.075 -5.182,0.113c-9.077,0.063 -15.375,-0.002 -23.006,-5.488c-2.33,-0.677 -4.663,-1.346 -7,-2c-0.99,-0.99 -1.98,-1.98 -3,-3c-3.158,-0.396 -3.158,-0.396 -6.688,-0.375c-6.509,-0.321 -9.946,-1.805 -15.312,-5.625c-2.996,-1.012 -5.996,-2.013 -9,-3c-0.99,-0.99 -1.98,-1.98 -3,-3c-2.846,-0.65 -2.846,-0.65 -5.75,-1.312c-6.359,-1.717 -8.629,-3.244 -13.25,-7.688c-2.635,-1.717 -5.3,-3.388 -8,-5c-2.475,-1.485 -2.475,-1.485 -5,-3c-1.32,-0.33 -2.64,-0.66 -4,-1c-4,-4 -4,-4 -4,-6c-1.32,-0.66 -2.64,-1.32 -4,-2c-1.98,-1.485 -1.98,-1.485 -4,-3l0,-2c-1.65,-0.33 -3.3,-0.66 -5,-1c-2.711,-2.622 -5.373,-5.294 -8,-8c-2.651,-2.02 -5.319,-4.02 -8,-6c-1.567,-1.403 -3.135,-2.805 -4.75,-4.25c-3.964,-3.821 -3.964,-3.821 -8.25,-5.75l0,-2c-0.99,-0.33 -1.98,-0.66 -3,-1c-1.485,-2.475 -1.485,-2.475 -3,-5c-2.657,-2.473 -2.657,-2.473 -5.625,-4.75c-1.473,-1.168 -1.473,-1.168 -2.977,-2.359c-0.791,-0.624 -1.583,-1.248 -2.398,-1.891c-1,-1 -1,-1 -1,-6c-1.32,-0.66 -2.64,-1.32 -4,-2c-4.49,-4.73 -7.795,-9.366 -11,-15c-4.265,-6.345 -4.265,-6.345 -10,-11c-0.66,-1.65 -1.32,-3.3 -2,-5c-1.521,-3.071 -3.089,-6.115 -4.66,-9.16c-1.34,-2.84 -1.34,-2.84 -2.34,-6.84l-2,0l0,-3l-3,0c-0.557,-1.299 -1.114,-2.599 -1.688,-3.938c-2.941,-6.439 -6.41,-12.493 -9.938,-18.625c-2.375,-4.438 -2.375,-4.438 -3.812,-8.312c-2.021,-5.336 -4.804,-10.136 -7.562,-15.125c-2,-5 -2,-5 -2.812,-8.812c-1.342,-5.861 -3.124,-11.503 -4.969,-17.223c-1.218,-3.962 -2.234,-7.939 -3.219,-11.965c-1.355,-4.644 -2.75,-9.262 -4.305,-13.844c-2.539,-7.63 -4.333,-13.998 -3.695,-22.156l-3,0c-0.061,-1.29 -0.121,-2.581 -0.184,-3.91c-0.126,-2.55 -0.126,-2.55 -0.254,-5.152c-0.081,-1.682 -0.162,-3.364 -0.246,-5.098c-0.228,-4.595 -0.228,-4.595 -0.828,-8.129c-0.529,-4.016 -0.618,-7.875 -0.621,-11.926c-0.001,-1.575 -0.003,-3.149 -0.004,-4.771c0.004,-1.634 0.008,-3.268 0.012,-4.951c-0.004,-1.599 -0.008,-3.198 -0.012,-4.846c0.008,-10.11 0.373,-20.136 1.137,-30.217l2,0c-0.107,-1.007 -0.214,-2.014 -0.324,-3.051c-1.178,-13.817 0.413,-26.662 4.324,-39.949c1.581,-6.572 2.904,-13.016 3.562,-19.75c0.438,-4.25 0.438,-4.25 2.438,-6.25c1.005,-2.665 2.004,-5.332 3,-8c0.99,-1.65 1.98,-3.3 3,-5c0.65,-1.578 0.65,-1.578 1.312,-3.188c1.688,-3.812 1.688,-3.812 4.688,-8.438c2.699,-4.835 3.673,-8.78 4.711,-13.984c0.227,-1.136 0.573,-2.244 1.033,-3.307c1.913,-4.294 4.832,-7.775 7.758,-11.604c0.148,-0.193 0.291,-0.39 0.431,-0.589c2.695,-3.909 4.496,-7.888 6.393,-12.259c0.049,-0.113 0.1,-0.226 0.152,-0.338c5.054,-10.891 11.245,-20.31 19.335,-29.033c0.782,-0.84 1.475,-1.759 2.065,-2.743c0.574,-0.937 1.142,-1.885 1.719,-2.846c0.272,-0.454 0.593,-0.875 0.959,-1.257c1.433,-1.492 2.909,-2.945 4.403,-4.375c0.026,-0.025 0.052,-0.05 0.077,-0.075c4.189,-4.133 8.169,-8.153 11.897,-12.654c0.743,-0.902 1.58,-1.723 2.497,-2.447c2.397,-1.912 3.279,-2.547 4.132,-2.758c0.842,-0.117 1.545,-0.702 1.813,-1.508c0.191,-0.298 0.291,-0.599 0.463,-1.115c0.103,-0.31 0.32,-0.57 0.606,-0.728c2.452,-1.35 4.908,-2.693 7.384,-3.998c0.063,-0.033 0.125,-0.067 0.186,-0.101c7.502,-4.181 13.874,-9.465 20.109,-15.343c4.642,-4.354 9.151,-7.451 14.875,-10.312c1.052,-0.763 2.104,-1.526 3.188,-2.312c2.812,-1.688 2.812,-1.688 8.812,-1.688l0,-2c5.95,-4.054 12.343,-7.288 19,-10c2.32,-1.237 2.32,-1.237 4.688,-2.5c7.284,-3.428 14.626,-4.982 22.5,-6.5c4.77,-0.882 4.77,-0.882 9.041,-2.478c4.711,-1.502 9.035,-2.278 13.936,-2.874c1.699,-0.211 3.398,-0.423 5.148,-0.641c1.753,-0.209 3.506,-0.418 5.312,-0.633c3.492,-0.429 6.984,-0.859 10.477,-1.289c1.54,-0.185 3.08,-0.37 4.667,-0.561c3.752,-0.465 7.492,-0.976 11.232,-1.525l0,-2c5.963,-1.988 11.758,-2.467 18,-3c0.33,-0.33 0.66,-0.66 1,-1c5.153,-0.296 10.306,-0.45 15.465,-0.621c4.915,-0.217 9.724,-0.771 14.602,-1.402c11.116,-1.282 22.203,-1.242 33.374,-1.182l-0.003,-0.002l0.001,0Zm-38.44,28.206c1.721,5.163 7.374,6.656 12,9c1.285,0.578 2.57,1.155 3.895,1.75c11.296,6.191 19.709,16.747 25.105,28.25c1.237,1.825 1.237,1.825 2.5,3.688c5.234,9.028 8.949,18.836 9.5,29.312c0.33,0.33 0.66,0.66 1,1c0.155,3.885 0.232,7.739 0.25,11.625c0.026,2.137 0.052,4.275 0.078,6.477c-0.455,8.184 -2.246,11.546 -7.328,17.898l0,2c-1.093,0.309 -2.186,0.619 -3.312,0.938c-3.209,0.925 -1.556,12.807 -29.617,23.36c-13.285,4.996 -47.099,3.995 -52.07,0.703c-2.042,-0.33 -4.084,-0.66 -6.188,-1c-6.336,-1.09 -8.33,-2.609 -12.812,-7c-1.65,-0.66 -3.3,-1.32 -5,-2c-1.32,-1.65 -2.64,-3.3 -4,-5c-1.65,-0.99 -3.3,-1.98 -5,-3c-2.133,-2.41 -2.133,-2.41 -4.125,-5.062c-3.376,-4.83 -3.376,-4.83 -6.875,-6.938c-3.02,-9.061 -3.133,-17.51 -3.062,-27c0.005,-1.156 0.009,-2.313 0.014,-3.504c0.012,-2.832 0.03,-5.664 0.049,-8.496l2,0l0,-6l2,0c1.403,-2.807 1.416,-5.507 1.75,-8.625c0.852,-6.268 2.518,-10.187 6.25,-15.375c1.519,-3.31 2.849,-6.548 4,-10c2.475,-0.99 2.475,-0.99 5,-2c3.3,-3.567 3.3,-3.567 3,-7c1.98,-0.495 1.98,-0.495 4,-1l0,-3c1.65,-0.33 3.3,-0.66 5,-1l0,-4c-5.487,-0.164 -8.828,-0.069 -14,2c-2.847,0.481 -5.703,0.913 -8.562,1.312c-5.707,0.898 -10.723,1.953 -16,4.312c-5.092,2.224 -8.935,3.1 -14.438,3.375c-0.354,3.354 -0.354,3.354 3,6c4.455,0.99 4.455,0.99 9,2l0,27l-2,0c-0.11,1.435 -0.219,2.869 -0.332,4.348c-0.159,1.886 -0.317,3.772 -0.48,5.715c-0.151,1.868 -0.302,3.736 -0.457,5.66c-0.658,4.752 -1.686,8.004 -3.73,12.277c-0.289,1.464 -0.577,2.929 -0.875,4.438c-1.125,4.562 -1.125,4.562 -3.75,8.625c-2.669,4.425 -2.828,6.867 -2.375,11.938c-1.98,0.99 -1.98,0.99 -4,2c-2.018,2.218 -3.969,4.497 -5.875,6.812c-5.513,6.69 -9.972,11.215 -17.938,14.812c-1.712,0.784 -3.424,1.567 -5.188,2.375c-0.33,0.99 -0.66,1.98 -1,3c-1.32,0.082 -2.64,0.165 -4,0.25c-4.803,0.6 -9.058,1.461 -13.711,2.678c-0.013,0.003 -0.026,0.007 -0.039,0.01c-15.371,3.965 -30.459,6.005 -46,1.91c-2.253,-0.588 -4.527,-1.096 -6.812,-1.539c-7.4,-1.445 -8.713,-1.702 -11.418,-4.838c-1.597,-1.775 -3.564,-3.18 -5.761,-4.115c-0.516,-0.247 -1.043,-0.467 -1.572,-0.683c-1.125,-0.458 -2.148,-1.136 -3.007,-1.995c-0.037,-0.035 -0.074,-0.072 -0.113,-0.111c-0.388,-0.387 -0.871,-0.665 -1.401,-0.805c-0.138,-0.028 -0.268,-0.063 -0.392,-0.095c-2.855,-0.713 -5.858,0.359 -7.617,2.718c-1.428,1.893 -1.969,2.759 -3.382,5.246c-0.511,0.894 -1.276,1.617 -2.197,2.078c-0.105,0.055 -0.211,0.108 -0.318,0.161c-0.166,0.083 -0.292,0.229 -0.351,0.405c-0.968,2.905 -1.928,5.812 -2.81,8.745c-1.098,2.98 -1.098,2.98 -4.098,6.98c-1.544,3.716 -3.018,7.425 -4.438,11.188c-4.304,11.266 -4.304,11.266 -6.832,16.609c-1.719,4.174 -2.168,6.807 -1.98,11.266c0.082,1.959 0.165,3.919 0.25,5.938l-2,0c-2.67,4.004 -2.61,7.287 -3.062,12.062c-0.842,8.746 -0.842,8.746 -1.938,10.938c-1.064,8.039 -1.079,15.908 -1,24l-2,0c-0.144,2.104 -0.289,4.207 -0.438,6.375c-0.438,6.375 -0.438,6.375 -1.562,8.625l0,6l3,0c0.866,-1.918 1.732,-3.836 2.625,-5.812c7.595,-16.407 7.595,-16.407 13.375,-22.188c0.99,-1.98 0.99,-1.98 2,-4c2,-4 2,-4 6,-8c0.99,-1.65 1.98,-3.3 3,-5c1.997,-2.512 3.995,-5.023 6.012,-7.52c3.64,-4.541 6.756,-9.056 9.551,-14.168c2.438,-4.312 2.438,-4.312 6.438,-8.312c1.355,-2.99 2.691,-5.989 4,-9c0.66,-0.33 1.32,-0.66 2,-1c0.66,-1.65 1.32,-3.3 2,-5c3,-5 3,-5 5,-6c1.061,-2.979 2.064,-5.979 3,-9c8.075,-1.306 14.251,-0.669 22,2c2.312,2.812 2.312,2.812 4,6c1.072,0.907 2.145,1.815 3.25,2.75c5.897,5.111 10.315,11.308 14.938,17.562c5.547,7.273 12.497,12.98 19.562,18.75c3.25,2.938 3.25,2.938 5.161,5.811c3.44,5.15 7.903,9.269 12.276,13.627c0.908,0.924 1.816,1.849 2.752,2.801c5.337,5.34 10.649,9.645 17.061,13.699c11.524,9.286 11.524,9.286 12.414,16.234c0.195,3.255 0.391,6.51 0.586,9.766c-8.728,2.525 -17.253,2.236 -26.25,2.16c-1.65,-0.005 -3.299,-0.01 -4.999,-0.016c-5.25,-0.018 -10.501,-0.049 -15.751,-0.082c-5.279,-0.028 -10.558,-0.052 -15.837,-0.071c-3.282,-0.012 -6.564,-0.03 -9.846,-0.053c-2.209,-0.01 -2.209,-0.01 -4.462,-0.02c-1.303,-0.008 -2.606,-0.017 -3.948,-0.025c-2.8,-0.227 -2.8,-0.227 -3.907,1.107c-3.867,0.136 -7.718,0.211 -11.586,0.246c-2.398,0.033 -4.797,0.066 -7.195,0.1c-3.801,0.047 -7.602,0.092 -11.403,0.131c-3.655,0.04 -7.309,0.091 -10.964,0.144c-1.141,0.008 -2.281,0.017 -3.457,0.025c-6.032,-0.06 -6.032,-0.06 -11.395,2.353c-20.381,2.809 -20.381,2.809 -26,0c-6.681,-0.534 -6.681,-0.534 -13,1c-0.362,14.676 0.224,29.774 4,44c0.144,1.609 0.289,3.217 0.438,4.875c0.186,1.361 0.371,2.722 0.562,4.125c0.99,0.66 1.98,1.32 3,2c0.625,3.703 0.625,3.703 1,8.25c0.48,5.781 1.352,9.642 4,14.75c0.644,2.774 1.204,5.569 1.688,8.375c0.377,2.146 0.377,2.146 0.762,4.336c0.182,1.085 0.364,2.171 0.551,3.289c0.99,0.33 1.98,0.66 3,1c-0.083,1.155 -0.165,2.31 -0.25,3.5c0.366,6.595 3.181,10.87 6.75,16.312c2.5,4.188 2.5,4.188 4.562,10.125c0.639,1.671 1.279,3.341 1.938,5.062c1.32,0.33 2.64,0.66 4,1c0.155,1.547 0.155,1.547 0.312,3.125c0.679,3.826 1.799,6.509 3.688,9.875l2,0c0.33,1.65 0.66,3.3 1,5c0.66,0.66 1.32,1.32 2,2c0.66,1.65 1.32,3.3 2,5c1.207,1.145 1.207,1.145 2.438,2.312c2.562,2.688 2.562,2.688 3.875,6.312c1.889,4.896 4.467,8.324 7.613,12.477c3.156,4.41 5.577,9.091 8.074,13.898l2,0c0.66,1.32 1.32,2.64 2,4l3,0c0.33,1.65 0.66,3.3 1,5c3.487,4.765 7.461,8.974 12.375,12.25c3.248,2.166 3.928,4.285 5.625,7.75c3.877,3.793 5.57,4.914 11,6c0.66,1.65 1.32,3.3 2,5c3.646,4.396 3.646,4.396 8,8c6.294,0 7.346,-0.295 12,-4c1.68,-1.719 3.305,-3.493 4.875,-5.312c4.094,-4.629 8.451,-8.637 13.125,-12.688c2.035,-2.303 4.042,-4.632 6,-7c11.722,-11.722 11.722,-11.722 20.812,-12.312c5.154,0.31 8.451,1.388 13.188,3.312c5.583,1.294 10.248,2 16,2c0.66,1.32 1.32,2.64 2,4c3.314,1.062 6.649,2.06 10,3c1.98,1.485 1.98,1.485 4,3c2.978,1.036 5.959,2.066 8.965,3.02c2.48,0.801 4.921,1.718 7.348,2.668c3.605,1.283 6.891,1.917 10.688,2.312l0,2c11.72,4.199 11.72,4.199 24,6l0,2c0.99,0.33 1.98,0.66 3,1c5.717,7.622 4.473,16.416 3.25,25.5c-1.028,6.145 -2.946,11.704 -5.25,17.5c-0.516,1.444 -1.031,2.887 -1.562,4.375c-1.438,3.625 -1.438,3.625 -4.438,8.625l0,5c0.958,-0.061 1.916,-0.121 2.902,-0.184c1.332,-0.084 2.663,-0.168 4.035,-0.254c1.454,-0.093 2.908,-0.186 4.406,-0.281c3.061,-0.185 6.124,-0.352 9.188,-0.5c7.419,-0.368 14.222,-1.101 21.469,-2.781c2.187,-0.1 4.374,-0.181 6.562,-0.25c7.336,-0.416 19.02,-2.332 24.438,-7.75c1.547,-0.248 3.094,-0.495 4.688,-0.75c5.98,-1.184 11.248,-2.894 16.934,-5.016c4.402,-1.608 8.891,-2.888 13.379,-4.234c1.32,-0.66 2.64,-1.32 4,-2l0,-2c1.98,-0.33 3.96,-0.66 6,-1c8.441,-1.743 14.918,-3.793 22,-9l0,-5c-1.299,-0.268 -2.599,-0.536 -3.938,-0.812c-4.814,-1.129 -9.376,-2.625 -14.062,-4.188l-3,0l0,-2c-1.588,-0.206 -3.176,-0.413 -4.812,-0.625c-2.568,-0.681 -2.568,-0.681 -5.188,-1.375c-1.625,-2.812 -1.625,-2.812 -3,-6c-2.648,-1.696 -5.315,-3.364 -8,-5c-0.99,-1.65 -1.98,-3.3 -3,-5c-0.99,-1.279 -1.98,-2.558 -3,-3.875c-2.672,-3.674 -4.415,-6.898 -6,-11.125l-2,0c-0.382,-6.331 -0.709,-12.664 -1,-19c-0.068,-1.403 -0.137,-2.805 -0.207,-4.25c-0.219,-7.934 0.756,-13.442 4.207,-20.75c0.371,-1.299 0.742,-2.599 1.125,-3.938c0.875,-3.062 0.875,-3.062 2.875,-6.062c0.186,-0.99 0.371,-1.98 0.562,-3c3.246,-9.031 10.079,-15.542 18.438,-20c1.65,-0.99 3.3,-1.98 5,-3c2.321,-1.027 4.653,-2.033 7,-3l0,-2c1.258,0.021 2.516,0.041 3.812,0.062c4.052,0.15 4.052,0.15 7.188,-1.062c3.541,-0.097 7.083,-0.13 10.625,-0.125c1.91,-0.003 3.821,-0.005 5.789,-0.008c4.586,0.133 4.586,0.133 5.586,1.133l5,0l0,3c1.526,0.701 3.053,1.402 4.625,2.125c8.094,4.329 11.649,8.09 14.375,16.875l2,0c0.66,1.32 1.32,2.64 2,4c0.66,0.66 1.32,1.32 2,2c0.671,2.999 1.337,5.999 2,9c0.463,1.071 0.926,2.142 1.402,3.246c1.765,4.146 2.998,8.294 4.223,12.629c1.01,4.891 1.01,4.891 3.375,9.125c-0.353,21.029 -0.353,21.029 -5,28c0.33,0.99 0.66,1.98 1,3c1.32,-0.66 2.64,-1.32 4,-2l0,-2c1.65,-0.66 3.3,-1.32 5,-2c3.042,-3.839 5.477,-7.795 8,-12c2.987,-2.35 5.986,-4.685 9,-7l0,-2c1.32,-0.66 2.64,-1.32 4,-2c2.692,-2.977 5.36,-5.977 8,-9c0.66,-0.33 1.32,-0.66 2,-1c1.512,-2.728 3.02,-5.459 4.488,-8.211c2.345,-4.326 4.936,-8.117 8.137,-11.852c2.705,-3.051 2.705,-3.051 4.375,-7.938c1.614,-2.791 3.231,-5.581 4.867,-8.359c8.929,-15.202 8.929,-15.202 15.863,-31.363c3.044,-7.859 7.187,-15.286 11.082,-22.75c4.366,-8.47 5.315,-15.075 5.188,-24.527l2,0c2.86,-8.959 2.86,-8.959 4.875,-18.125c0.371,-1.279 0.742,-2.558 1.125,-3.875c0.99,-0.454 1.98,-0.908 3,-1.375c1.485,-0.804 1.485,-0.804 3,-1.625c2.433,-9.724 2.716,-19.71 3.25,-29.688c0.103,-1.648 0.206,-3.296 0.312,-4.994c0.131,-2.391 0.131,-2.391 0.266,-4.83c0.082,-1.438 0.163,-2.876 0.247,-4.358c-0.079,-4.346 -0.93,-7.952 -2.075,-12.13c-0.317,-4.751 -0.439,-9.486 -0.559,-14.246c-0.464,-5 -1.762,-9.039 -3.441,-13.754c-0.432,-2.156 -0.816,-4.323 -1.125,-6.5c-0.256,-5.076 -0.256,-5.076 -1.875,-6.5c-0.371,-3.997 -0.705,-7.997 -1,-12c-6.476,0 -7.022,0.647 -12,4c-2.332,0.339 -4.666,0.672 -7,1c-3.846,1.947 -3.846,1.947 -7,4l0,2c-1.114,-0.041 -2.227,-0.082 -3.375,-0.125c-3.669,-0.286 -3.669,-0.286 -5.625,2.125c-3.541,1.33 -7.123,2.499 -10.715,3.684c-3.524,1.162 -3.524,1.162 -6.285,4.316c-3.309,1.393 -6.645,2.722 -10,4c-1.134,0.495 -2.269,0.99 -3.438,1.5c-1.176,0.495 -2.351,0.99 -3.562,1.5c-1.609,0.722 -3.217,1.444 -4.875,2.188c-7.724,2.286 -15.113,2.771 -23.125,1.812c-4.137,-4.137 -4.968,-7.772 -5.117,-13.539c0.6,-12.592 2.355,-22.199 8.117,-33.461c2.834,-7.799 2.741,-16.105 3.211,-24.305c0.344,-5.388 0.769,-9.644 2.789,-14.695c0.079,-3.666 0.088,-7.334 0,-11l5,0c2.598,-1.811 2.598,-1.811 5,-4.25c11.171,-10.683 24,-4.75 24,-4.75c6.629,5.325 15.306,11 24,11c0.33,0.99 0.66,1.98 1,3l6,0c0.429,-5.197 0.429,-5.197 -2.812,-9.688c-3.723,-6.204 -5.853,-11.912 -6.562,-19.125c-0.802,-4.092 -2.617,-5.399 -5.625,-8.188c-0.66,-1.65 -1.32,-3.3 -2,-5c-3.433,-3.2 -3.433,-3.2 -6,-3c-0.33,-1.65 -0.66,-3.3 -1,-5c-1.262,-2.046 -2.603,-4.044 -4,-6c-0.66,-1.072 -1.32,-2.145 -2,-3.25c-1.932,-3.099 -1.932,-3.099 -6,-4.75c-0.66,-1.65 -1.32,-3.3 -2,-5c-1.969,-3.352 -3.97,-6.685 -6,-10c-1.485,-2.475 -1.485,-2.475 -3,-5c-1.961,-2.038 -3.955,-4.046 -6,-6c-1.32,0.66 -2.64,1.32 -4,2l0,8c-1.485,0.495 -1.485,0.495 -3,1c-0.082,1.176 -0.165,2.351 -0.25,3.562c-1.615,11.706 -4.853,23.787 -10.25,34.313c-2.593,5.316 -3.975,10.425 -5.5,16.125c-1.269,2.698 -2.597,5.369 -4,8c-0.495,1.217 -0.99,2.434 -1.5,3.688c-1.5,3.312 -1.5,3.312 -5.5,8.312l0,2l-2,0l0,2l-4,0l0,2c-13.464,4.224 -27.103,2.41 -39.562,-3.75c-2.837,-1.695 -5.673,-3.391 -8.508,-5.09c-4.478,-2.654 -8.593,-5.036 -13.492,-6.848c-3.438,-1.312 -3.438,-1.312 -6.438,-5.312c-1.98,-0.33 -3.96,-0.66 -6,-1l0,-2c-1.403,-0.413 -2.805,-0.825 -4.25,-1.25c-4.75,-1.75 -4.75,-1.75 -8.75,-5.75l-2,0c-0.66,-1.98 -1.32,-3.96 -2,-6c-3.867,-2.183 -3.867,-2.183 -8,-4c-1.32,-1.32 -2.64,-2.64 -4,-4l-2,0c1.485,-2.475 1.485,-2.475 3,-5l0,-5.312c0,-5.61 0.766,-8.64 3,-13.688c0.413,-1.32 0.825,-2.64 1.25,-4c2.142,-4.895 5.147,-8.081 8.75,-12c1.362,-1.981 2.696,-3.981 4,-6c2,-2.667 4,-5.333 6,-8c3.035,-4.215 4.298,-6.895 6,-12c4.333,-6.778 4.333,-6.778 8,-8c0.082,-1.114 0.165,-2.227 0.25,-3.375c0.371,-1.794 0.371,-1.794 0.75,-3.625c1.32,-0.66 2.64,-1.32 4,-2c0.742,-1.732 0.742,-1.732 1.5,-3.5c1.5,-3.5 1.5,-3.5 5.5,-5.5l0,-5c-9.106,-5.501 -16.375,-7.225 -27,-8c-1.15,-0.325 -2.3,-0.65 -3.484,-0.984c-6.251,-1.406 -12.375,-1.533 -18.766,-1.703c-1.359,-0.04 -2.719,-0.08 -4.119,-0.121c-18.91,-0.458 -37.768,0.488 -56.631,1.808l-0.007,0.003l-0.001,0Z" style="fill-rule:nonzero;stroke:#000;stroke-width:0.75px;"/><path d="M447.938,272.688c4.062,0.312 4.062,0.312 7.062,3.312c0.99,1.98 0.99,1.98 2,4c4.751,3.589 9.647,5.523 15.25,7.5c3.75,1.5 3.75,1.5 4.75,3.5c1.072,0.268 2.145,0.536 3.25,0.812c4.254,1.347 5.723,3.005 8.75,6.188c3.971,2.281 7.59,3.53 12,5c3.375,2 3.375,2 6,4l0,2c1.32,0.66 2.64,1.32 4,2c6.037,6.037 5.5,12.734 6,21c-0.238,9.17 -2.425,18.425 -9,25l-2,0l0,4l-2,0c-0.33,1.65 -0.66,3.3 -1,5c-2.25,2.824 -2.25,2.824 -5,5.688c-3.396,3.375 -3.396,3.375 -6,7.312l-2,0c-0.66,1.65 -1.32,3.3 -2,5c-3.694,6.063 -7.379,11.609 -12,17c-0.99,1.65 -1.98,3.3 -3,5c-1.114,1.237 -2.227,2.475 -3.375,3.75c-3.594,4.214 -5.988,8.403 -8.625,13.25c-4,4 -4,4 -8,4.438c-12.682,-1.11 -21.219,-4.41 -30.375,-13c-1.245,-1.156 -2.49,-2.313 -3.773,-3.504c-2.852,-2.934 -2.852,-2.934 -2.852,-4.934c-1.65,-0.33 -3.3,-0.66 -5,-1c-4.409,-2.74 -8.326,-5.326 -12,-9l0,-2c-1.32,-0.33 -2.64,-0.66 -4,-1c-1.32,-1.32 -2.64,-2.64 -4,-4c-1.341,-0.495 -2.681,-0.99 -4.062,-1.5c-3.938,-1.5 -3.938,-1.5 -6.938,-5.5l0,-2c-0.99,-0.33 -1.98,-0.66 -3,-1c-7.929,-9.204 -10.34,-15.83 -10.301,-27.73c0.301,-3.27 0.301,-3.27 2.301,-8.27c2.657,-1.968 5.32,-3.929 8.035,-5.816c6.14,-4.522 11.026,-9.619 14.965,-16.184c5.496,-6.383 11.232,-12.309 17.312,-18.125c3.352,-3.335 6.193,-6.775 8.938,-10.625c6.663,-9.328 12.62,-14.07 23.75,-17.25c2,-2 2,-2 5.938,-2.312Z" style="fill-rule:nonzero;"/><path d="M311,215c4.688,3.625 4.688,3.625 8,7c3.282,1.896 3.282,1.896 6,3l0,2c1.485,0.495 1.485,0.495 3,1c0.495,1.485 0.495,1.485 1,3c2.315,2.021 4.649,4.02 7,6c2,3 2,3 2,7l2,0c4.399,12.317 6.351,24.058 6.312,37.125c0.016,1.102 0.032,2.204 0.049,3.34c0.007,11.834 -3.36,21.657 -9.611,31.598c-0.748,1.208 -1.495,2.416 -2.266,3.66c-2.582,3.406 -4.835,5.116 -8.484,7.277c-1.506,1.072 -3.011,2.145 -4.562,3.25c-4.438,2.75 -4.438,2.75 -9.438,2.75c-0.99,1.98 -0.99,1.98 -2,4c-4.639,1.356 -8.995,2 -13.812,2.375c-4.621,0.265 -4.621,0.265 -8.188,4.625c-3.788,0.429 -6.59,0.118 -10.25,-0.938c-4.007,-1.268 -4.007,-1.268 -9.375,-1.5c-5.375,-0.562 -5.375,-0.562 -10.375,-3.562c-1.299,-0.454 -2.599,-0.908 -3.938,-1.375c-4.203,-1.681 -6.706,-3.641 -10.062,-6.625c-1.65,-0.99 -3.3,-1.98 -5,-3c-0.99,-2.97 -0.99,-2.97 -2,-6c-1.65,-0.99 -3.3,-1.98 -5,-3c-3,-5 -3,-5 -4,-8l-2,0c-0.635,-4.932 -0.635,-4.932 -1.27,-9.863c-0.511,-3.446 -0.511,-3.446 -3.73,-6.137c-0.407,-4.362 -0.13,-8.61 0,-13l2,0c-0.023,-1.183 -0.046,-2.367 -0.07,-3.586c-0.16,-14.038 0.306,-22.929 9.07,-34.414c0.701,-1.093 1.403,-2.186 2.125,-3.312c2.043,-2.929 4.321,-5.193 6.875,-7.688c1.093,-1.299 2.186,-2.599 3.312,-3.938c4.985,-5.492 10.351,-9.261 16.688,-13.062c0.33,-0.66 0.66,-1.32 1,-2l4,0l0,-2c13.175,-4.392 32.606,-1.687 45,4Z" style="fill-rule:nonzero;"/><path d="M193,373c3,3 3,3 3,6c1.485,0.495 1.485,0.495 3,1c1.065,1.966 2.068,3.967 3,6c0.33,0.33 0.66,0.66 1,1c0.309,1.898 0.619,3.795 0.938,5.75c0.821,6.154 0.821,6.154 3.062,11.25c0.217,2.382 0.217,2.382 0.438,4.812c0.295,5.05 0.295,5.05 2.125,8.875c2.671,8.014 2.564,16.495 -0.562,24.312l-2,0c-0.66,1.65 -1.32,3.3 -2,5c-1.238,1.918 -1.238,1.918 -2.5,3.875c-2.587,3.85 -2.587,3.85 -3.438,7.5c-2.562,8.74 -7.665,15.447 -15.062,20.625c-6.325,2.001 -11.366,3 -18,3c-0.495,1.485 -0.495,1.485 -1,3c-8.693,0.209 -0.996,6.896 -33.188,-0.875c-12.261,-2.96 -22.47,-15.18 -18.812,-14.125l0,-3c-1.32,-0.66 -2.64,-1.32 -4,-2c-1.747,-1.434 -3.453,-2.918 -5.125,-4.438c-0.869,-0.782 -1.738,-1.565 -2.633,-2.371c-4.157,-4.062 -5.186,-8.054 -6.742,-13.566c-1.326,-4.681 -2.691,-9.102 -4.5,-13.625c-0.194,-4.091 -0.279,-8.098 -0.25,-12.188c-0.012,-1.629 -0.012,-1.629 -0.023,-3.291c0.023,-9.526 0.491,-17.751 6.273,-25.521c0.66,-1.65 1.32,-3.3 2,-5c2.461,-2.789 2.461,-2.789 5.375,-5.625c0.956,-0.941 1.913,-1.882 2.898,-2.852c3.195,-2.957 6.051,-5.248 10.102,-6.898c3.695,-1.398 3.695,-1.398 6.125,-4.125c20.486,-14.633 51.657,-4.36 70.5,7.5l-0.001,0.001Z" style="fill-rule:nonzero;"/><path d="M348,375c4.485,4.485 3.741,8.851 4,15c-0.33,0.66 -0.66,1.32 -1,2c-0.071,2.374 -0.084,4.75 -0.062,7.125c0.009,1.281 0.018,2.563 0.027,3.883c0.012,0.987 0.023,1.975 0.035,2.992c-0.66,0.33 -1.32,0.66 -2,1c-2.303,5.047 -2.303,5.047 -2.5,11.062c-0.5,5.938 -0.5,5.938 -2.5,9.938c-0.355,2.45 -0.638,4.911 -0.875,7.375c-0.772,6.763 -2.177,12.952 -4.195,19.441c-1.091,3.5 -1.091,3.5 -1.805,8.496c-2.225,9.27 -9.071,16.523 -15.125,23.688l-2,0c-0.495,1.485 -0.495,1.485 -1,3c-13.004,1.027 -21.767,-4.475 -32,-12c-2.686,-2.647 -5.356,-5.311 -8,-8c-1.32,-0.66 -2.64,-1.32 -4,-2c-2.373,-2.632 -4.704,-5.301 -7,-8c-10.8,-11.124 -10.8,-11.124 -24,-19c-0.66,-0.66 -1.32,-1.32 -2,-2c-1.65,-0.33 -3.3,-0.66 -5,-1c-0.329,-6.135 0.587,-10.369 3,-16c0.413,-1.258 0.825,-2.516 1.25,-3.812c2.298,-4.185 4.285,-4.699 8.75,-6.188c1.155,-0.516 2.31,-1.031 3.5,-1.562c3.456,-1.42 6.906,-2.431 10.5,-3.438c0.33,-0.33 0.66,-0.66 1,-1c1.794,-0.041 3.589,-0.082 5.438,-0.125c7.936,-0.503 14.609,-3.332 21.887,-6.379c3.676,-1.496 3.676,-1.496 5.676,-1.496l0,-2c10,-4 10,-4 13,-4l0,-2c2.181,-1.529 4.422,-2.973 6.688,-4.375c4.37,-2.714 8.278,-5.397 12.312,-8.625c6.456,-2.152 11.239,-2.363 18,-2l-0.001,0Z" style="fill-rule:nonzero;"/><path d="M446.062,301.125c8.45,1.497 13.847,6.975 20.062,12.625c4.126,3.461 7.897,5.259 12.875,7.25c5.575,2.389 9.604,5.831 14,10l0,2l2,0c0.189,6.692 -0.326,12.515 -2,19l-2,0c-0.33,0.99 -0.66,1.98 -1,3l-2,0c-0.33,1.32 -0.66,2.64 -1,4c-1.65,1.32 -3.3,2.64 -5,4c-1.033,1.983 -2.034,3.983 -3,6c-4,4 -4,4 -6,4c-0.351,1.32 -0.701,2.64 -1.062,4c-2.179,5.622 -4.86,8.589 -8.938,13c-3.478,4.564 -6.817,9.225 -10,14c-6.487,-1.297 -8.468,-2.365 -13,-7c-3.536,-3.274 -6.366,-5.73 -10.812,-7.625c-3.188,-1.375 -3.188,-1.375 -5.188,-5.375c-2.649,-1.694 -5.318,-3.359 -8,-5c-1.667,-1.667 -3.333,-3.333 -5,-5c-2.298,-1.394 -4.625,-2.743 -7,-4l0,-2c-1.65,-0.66 -3.3,-1.32 -5,-2c-2.676,-2.426 -2.676,-2.426 -5.312,-5.312c-0.883,-0.945 -1.766,-1.89 -2.676,-2.863c-2.012,-2.824 -2.012,-2.824 -2.012,-7.824c2.475,-0.495 2.475,-0.495 5,-1c2.375,-2.63 4.708,-5.298 7,-8c1.65,-0.99 3.3,-1.98 5,-3c0.66,-1.65 1.32,-3.3 2,-5c2.059,-2.57 2.059,-2.57 4.438,-5.125c0.782,-0.848 1.565,-1.696 2.371,-2.57c5.45,-5.731 10.342,-8.735 18.191,-10.305l0,-2c1.667,-1.667 3.333,-3.333 5,-5c0.866,-1.64 0.866,-1.64 1.75,-3.312c2.25,-2.688 2.25,-2.688 6.312,-3.562l0.001,-0.002Z" style="fill:#66b2ff;fill-rule:nonzero;"/><path d="M427,72c6.75,0.875 6.75,0.875 9,2l0,2c1.32,0.412 2.64,0.825 4,1.25c4.591,1.607 8.659,3.58 13,5.75c4.694,1.69 9.105,3.021 14,4l0,2l2,0c4,4 4,4 4,6c1.65,0.66 3.3,1.32 5,2c5.85,2.7 5.85,2.7 7,5c0.233,6.533 0.233,6.533 -1,9l-3,0c0.062,1.939 0.124,3.877 0.188,5.875c0.007,6.201 -1.096,11.252 -3.188,17.125c-0.66,1.98 -1.32,3.96 -2,6c-1.485,-0.495 -1.485,-0.495 -3,-1c0,2.668 0.084,5.337 0.25,8c-0.25,4 -0.25,4 -4.25,8c-1.701,3.651 -3.368,7.318 -5,11c-0.99,1.32 -1.98,2.64 -3,4c-5,-1 -5,-1 -9,-6c-3.739,-1.869 -8.297,-1.357 -12.422,-1.523c-3.77,-0.502 -6.299,-1.596 -9.578,-3.477l0,-2c-2.722,-0.371 -2.722,-0.371 -5.5,-0.75c-5.425,-0.887 -9.704,-2.483 -14.5,-5.25l0,-2c-3.142,-0.786 -6.289,-1.553 -9.438,-2.312c-5.562,-1.688 -5.562,-1.688 -10.562,-5.688c1,-5 1,-5 5,-8c1.128,-3.037 1.128,-3.037 1.875,-6.438c1.747,-6.268 1.747,-6.268 5.25,-9c1.423,-0.773 1.423,-0.773 2.875,-1.562c2.057,-5.741 2.057,-5.741 2.938,-10.812c0.351,-1.382 0.701,-2.764 1.062,-4.188c0.99,-0.33 1.98,-0.66 3,-1c0.722,-2.986 1.44,-5.973 2.117,-8.969c1.141,-3.918 2.903,-6.275 5.883,-9.031c0.99,-0.33 1.98,-0.66 3,-1c0.33,-1.65 0.66,-3.3 1,-5l2,0c0.33,-1.32 0.66,-2.64 1,-4Z" style="fill:#6dd439;fill-rule:nonzero;"/><path d="M305,243c4.447,2.597 4.447,2.597 9,5c0.99,2.475 0.99,2.475 2,5c0.804,1.052 1.609,2.104 2.438,3.188c6.862,10.21 7.613,23.811 6.562,35.812c-1.875,4.562 -1.875,4.562 -4,8c-0.66,1.65 -1.32,3.3 -2,5c-9.599,5.759 -16.259,8.625 -27.625,8.812c-2.137,0.048 -4.275,0.095 -6.477,0.145c-1.616,0.014 -3.233,0.028 -4.898,0.043l0,2c-8.603,1.721 -14.669,2.499 -22.25,-2.375c-1.237,-1.196 -2.475,-2.392 -3.75,-3.625l0,-2l-2,0l0,-2c-1.65,-0.66 -3.3,-1.32 -5,-2c-4.522,-5.143 -6.728,-9.292 -8,-16c-0.33,-0.66 -0.66,-1.32 -1,-2c-1.068,-12.323 -0.851,-20.28 7,-30c1.64,-2.351 1.64,-2.351 3.312,-4.75c5.557,-6.405 13.615,-13.236 22.125,-14.938c12.686,-0.869 23.831,-1.182 34.562,6.688l0.001,0Z" style="fill:#b266ff;fill-rule:nonzero;"/><path d="M265.325,61.623c-5.222,3.554 -5.222,3.554 -10.568,6.842c-1.162,3.387 -1.162,3.387 -2.348,6.842c-0.944,1.44 -1.889,2.879 -2.863,4.362c-8.057,13.971 -8.939,32.582 -7.705,49.004c2.202,6.242 2.202,6.242 4.697,10.947c0.775,2.258 1.55,4.516 2.348,6.842c11.271,7.88 19.092,11.802 32.438,12.058c2.509,0.066 5.02,0.13 7.605,0.198c1.898,0.019 3.796,0.038 5.751,0.059l0,2.737c10.102,2.355 17.225,3.42 26.126,-3.25c1.453,-1.637 2.906,-3.273 4.403,-4.96l0,-2.737l2.348,0l0,-2.737c1.937,-0.903 3.875,-1.806 5.871,-2.737c5.31,-7.037 7.9,-12.715 9.394,-21.894c0.387,-0.903 0.775,-1.806 1.174,-2.737c1.254,-16.862 0.999,-27.75 -8.219,-41.051c-1.926,-3.217 -1.926,-3.217 -3.889,-6.5c-6.525,-8.764 -15.987,-18.112 -25.979,-20.44c-14.896,-1.189 -27.983,-1.617 -40.583,9.152l-0.001,0Z" style="fill:#ff6;fill-rule:nonzero;"/><path d="M197,539c6.891,-0.431 11.031,0.527 17,4l0,2c1.526,0.103 3.053,0.206 4.625,0.312c4.697,0.601 7.406,1.285 11.375,3.688l0,2c1.134,0.082 2.269,0.165 3.438,0.25c4.562,0.75 4.562,0.75 8.625,2.562c5.387,2.386 10.687,3.825 16.387,5.258c3.221,0.843 6.392,1.877 9.551,2.93c1.258,0.351 2.516,0.701 3.812,1.062c3.188,0.938 3.188,0.938 4.188,1.938c1.134,0.144 2.269,0.289 3.438,0.438c3.562,0.562 3.562,0.562 5.562,2.562c0.523,6.07 -0.614,10.433 -3,16l-3,0c-0.33,1.98 -0.66,3.96 -1,6c-1.333,2.667 -2.667,5.333 -4,8c-0.33,1.98 -0.66,3.96 -1,6c0.66,0.33 1.32,0.66 2,1c0.33,1.98 0.66,3.96 1,6c-0.33,0.33 -0.66,0.66 -1,1c-7.057,-0.36 -13.246,-0.922 -20,-3c-2.999,-0.346 -5.998,-0.682 -9,-1c-0.33,-0.33 -0.66,-0.66 -1,-1c-3.792,0.009 -7.574,0.134 -11.363,0.258c-3.637,-0.258 -3.637,-0.258 -7.637,-3.258l0,-2c-1.65,-0.66 -3.3,-1.32 -5,-2c-3.433,-1.873 -6.697,-3.782 -9.875,-6.062c-3.254,-2.198 -3.254,-2.198 -7.938,-3.438c-1.382,-0.495 -2.764,-0.99 -4.188,-1.5c-0.33,-1.32 -0.66,-2.64 -1,-4c-1.32,-0.33 -2.64,-0.66 -4,-1l0,-2c-1.65,-0.33 -3.3,-0.66 -5,-1l0,-2c-5.486,-2.081 -5.486,-2.081 -9.375,-2.312c-4.648,-0.882 -7.753,-3.038 -11.625,-5.688c0.33,-1.65 0.66,-3.3 1,-5c1.65,-0.66 3.3,-1.32 5,-2l0,-2c8.328,-7 8.328,-7 12,-7c0.66,-1.65 1.32,-3.3 2,-5l2,0c0.66,-1.32 1.32,-2.64 2,-4c1.32,-1.32 2.64,-2.64 4,-4c0.33,-0.99 0.66,-1.98 1,-3Z" style="fill:#951d20;fill-rule:nonzero;"/><path d="M156,385c3.993,0.718 7.995,1.355 12,2c0.495,1.485 0.495,1.485 1,3c1.402,0.124 2.805,0.247 4.25,0.375c4.75,0.625 4.75,0.625 8.75,2.625c0.977,3.449 0.977,3.449 1.625,7.688c0.831,5.253 1.911,10.205 3.375,15.312c1.49,11.347 1.49,11.347 -2,16c-0.226,3.265 -0.45,6.53 -0.641,9.797c-0.628,5.597 -2.874,8.826 -6.922,12.578c-7.29,3.446 -15.533,2.625 -23.438,2.625c-1.98,0.495 -1.98,0.495 -4,1c-5.349,0.382 -6.531,0.352 -11,-3c-3.662,-1.347 -7.329,-2.68 -11,-4c-8.545,-5.127 -12.642,-12.284 -17,-21c-0.273,-4.18 -0.416,-8.257 -0.438,-12.438c-0.033,-1.132 -0.066,-2.265 -0.1,-3.432c-0.054,-8.331 -0.054,-8.331 2.752,-12.127c1.379,-0.992 1.379,-0.992 2.785,-2.004c0.825,-0.776 1.65,-1.552 2.5,-2.352c0.825,-0.75 1.65,-1.5 2.5,-2.273c0.825,-0.755 1.65,-1.511 2.5,-2.289c4.52,-3.771 7.66,-5.113 13.5,-6.086c0.66,-0.99 1.32,-1.98 2,-3c6.223,-1.419 10.88,-0.53 17,1l0.002,0.001Z" style="fill:#f66;fill-rule:nonzero;"/><path d="M422,466c11.302,-0.538 19.867,0.693 29,8c1.686,1.647 3.356,3.311 5,5c0.66,0.66 1.32,1.32 2,2c0.66,1.65 1.32,3.3 2,5c0.825,0.99 1.65,1.98 2.5,3c2.841,4.546 3.401,8.5 4.031,13.773c0.62,4.268 2.07,8.157 3.469,12.227c0,5 0,5 -3.75,9.25c-4.25,3.75 -4.25,3.75 -8.25,4.75l0,2c-6.075,2.16 -11.592,2.158 -18,2l0,-2l-5,0c-0.495,1.485 -0.495,1.485 -1,3c-2.97,0.99 -2.97,0.99 -6,2c-0.99,0.557 -1.98,1.114 -3,1.688c-3,1.312 -3,1.312 -9,0.312c-3.25,-1.5 -3.25,-1.5 -6,-4c-1.375,-4.75 -1.375,-4.75 -2,-9l-3,0c-0.65,-2.011 -0.65,-2.011 -1.312,-4.062c-1.518,-4.783 -1.518,-4.783 -3.438,-8.5c-1.531,-4.21 -1.089,-7.088 -0.25,-11.438c-1.32,-0.66 -2.64,-1.32 -4,-2c1.467,-7.335 3.289,-12.112 8,-18c0.99,-1.65 1.98,-3.3 3,-5c8.111,-5 8.111,-5 11,-5l0,-2l3,0c0.33,-0.99 0.66,-1.98 1,-3Z" style="fill:#ffb266;fill-rule:nonzero;"/><path d="M168,84c1,1 21,-12 21.062,-6.438c-0.021,1.794 9.959,14.589 9.938,16.438c0.66,0 1.125,9.75 0,12c-1.32,0 -16.936,21.141 -17,27c-0.99,0 -5,10 -8,15c-5,0 -5,0 -6,-1c-0.217,-2.599 -5.34,-1.02 -5,0c0.04,2.333 -2.956,2.667 -3,5c-1.98,-0.495 -11,4 -16,3c-0.99,-0.33 -10.787,1.992 -11,6c-1.98,0 -36.036,-5.733 -44,-12c-2,-3 -2,-3 -1,-9c1.879,-6.2 2.731,-7.785 8,-12l2,0l0,-3c11.964,-10 11.964,-10 16,-10c0.66,-1.32 1.32,-2.64 2,-4c4,-0.5 4,-0.5 8,-1c0.66,-1.32 1.32,-2.64 2,-4c1.98,-0.66 3.96,-1.32 6,-2c2.012,-1.315 4.014,-2.646 6,-4l2,0l0,-2c3.806,-2.809 7.783,-4.892 12,-7c1.072,-0.722 2.145,-1.444 3.25,-2.188c2.75,-1.812 2.75,-1.812 4.75,-1.812l0,-2c2,-1 2,-1 8,-1Z" style="fill:#69f;fill-rule:nonzero;"/><path d="M108,230c2.475,0.495 2.475,0.495 5,1c1.416,2.624 2.751,5.293 4,8c0.99,0.66 1.98,1.32 3,2c1.338,2.331 2.671,4.664 4,7c3.879,4.202 3.879,4.202 9,7c5.983,5.048 11.449,10.204 16.562,16.125c3.3,3.98 3.3,3.98 7.438,6.875c0.33,0.99 0.66,1.98 1,3c3.759,4.284 3.759,4.284 9,6c0.495,2.475 0.495,2.475 1,5c-6,0 -6,0 -8,-1c-10.69,-1.819 -21.182,-2.226 -32,-2.062c-16.689,0.134 -33.325,-0.309 -50,-0.938l0,-2c-2.64,0.66 -5.28,1.32 -8,2c2.847,-11.389 10.434,-20.014 19,-27.688c2.606,-3.013 2.505,-5.424 3,-9.312c4,-4 4,-4 9,-8c3.655,-4.569 4.652,-6.61 6,-12c0.33,-0.33 0.66,-0.66 1,-1Z" style="fill:#4e78c7;fill-rule:nonzero;"/><path d="M523,200c2.977,-0.328 2.977,-0.328 6.625,-0.25c1.879,0.039 1.879,0.039 3.797,0.078c3.899,0.187 7.723,0.555 11.578,1.172l0,2c1.547,-0.082 3.094,-0.165 4.688,-0.25c5.312,0.25 5.312,0.25 10.312,4.25c0.495,0.99 0.495,0.99 1,2c4.347,-0.609 8.669,-1.278 13,-2c2.668,2.668 2.793,4.892 3.562,8.562c0.549,4.037 0.549,4.037 2.438,7.438c0.041,2.333 0.042,4.667 0,7c-6.663,3.003 -11.679,4.472 -19,4c-0.33,1.65 -0.66,3.3 -1,5c-3.5,1.688 -3.5,1.688 -7,3c-0.495,0.99 -0.495,0.99 -1,2l-4,0l0,-3c-1.32,0.99 -2.64,1.98 -4,3l-2,0c-0.33,0.99 -0.66,1.98 -1,3c-3.644,1.395 -7.314,2.72 -11,4c-5.085,2.325 -8.583,4.467 -13,8c-8.786,3 -8.786,3 -13,3c-0.554,-9.788 2.142,-17.651 7,-26c2.347,-6.692 3.495,-12.933 4,-20l2,0c0.155,-1.547 0.155,-1.547 0.312,-3.125c0.899,-5.067 2.857,-8.629 5.688,-12.875Z" style="fill:#ff66b2;fill-rule:nonzero;"/><path d="M329,407c-0.79,6.798 -2.423,13.35 -4,20l-2,0c0.021,1.464 0.041,2.929 0.062,4.438c-0.062,4.562 -0.062,4.562 -1.062,5.562c-0.288,3.785 -0.449,7.571 -0.621,11.363c-0.452,4.343 -1.534,6.791 -4.629,9.887c-5.645,2.634 -11.621,2.785 -17.75,1.75c-0.99,-1.32 -1.98,-2.64 -3,-4c-1.32,-0.66 -2.64,-1.32 -4,-2c-1.708,-1.624 -3.376,-3.292 -5,-5c-0.99,-0.99 -1.98,-1.98 -3,-3c-0.598,-1.176 -1.196,-2.351 -1.812,-3.562c-2.109,-4.112 -2.109,-4.112 -8.188,-5.438c-0.381,-2.326 -0.713,-4.661 -1,-7c1,-1 1,-1 5,-1.312c6.73,-0.925 11.981,-3.678 18,-6.688l4,0c0.33,-0.99 0.66,-1.98 1,-3c4.685,-2.975 8.921,-4.977 14.25,-6.562c5.482,-1.659 8.039,-5.438 13.75,-5.438Z" style="fill:#6dd439;fill-rule:nonzero;"/></g></g><path d="M145,754.56c12.028,-0.549 19.128,2.683 28.602,10.262l7,8l5,4c2.189,4.755 3,7.725 3,13l4,2c5.234,6.978 8.775,14.576 11,23l2,4.125c2.412,5.878 3.236,11.622 4,17.875c0.353,2.646 0.707,5.292 1.062,7.938l0.473,3.652c0.429,3.145 0.943,6.279 1.465,9.41c0.091,2.735 0.131,5.471 0.133,8.207l0.004,4.713l-0.012,4.893l0.012,4.951l-0.004,4.693l-0.003,4.312c-0.129,3.231 -0.129,3.231 -1.129,4.231l-0.188,5.438c-0.499,7.547 -2.777,14.126 -5.34,21.203c-1.493,4.419 -2.49,8.804 -3.473,13.359c-4.32,11.681 -12.442,19.665 -23,26c-3.322,1.036 -6.657,2.033 -10,3c-3.72,1.342 -7.4,2.759 -11.07,4.23c-6.268,2.479 -12.273,4.528 -18.93,5.77l0,2c-16.598,0.483 -16.598,0.483 -23,-3c-10,-10.917 -10,-10.917 -10,-15l-4,-1l-2,-5c-2.242,-3.718 -4.531,-7.347 -7.062,-10.875c-2.708,-4.367 -5.938,-9.88 -5.938,-15.125l-2,0c-1.351,-4.308 -2,-7.42 -2,-12l-2,0l-0.184,-4.926l-0.254,-6.387l-0.246,-6.363c-0.067,-5.007 -0.067,-5.007 -1.316,-8.324c-0.274,-6.996 -0.232,-13.999 -0.25,-21l-0.062,-5.895c-0.026,-9.672 0.262,-17.93 3.312,-27.105c0.379,-2.742 0.697,-5.493 0.938,-8.25c0.887,-8.234 2.759,-15.815 5.062,-23.75l1.195,-4.621c3.403,-13.022 6.771,-21.966 17.805,-30.379c11.64,-6.529 24.133,-10.24 37.398,-11.262Zm-5.398,21.262c-7.761,0 -7.761,0 -18,17c-1.48,4.44 -2.882,7.921 -5,12c-2.578,4.842 -4.799,9.149 -6.062,14.5l-0.938,4.5c-4.021,8.529 -4.607,15.893 -4.922,25.195l-0.078,3.805l-2,0c-1.732,16.818 -2.392,33.124 -1,50l1,1c0.263,2.675 0.603,5.342 1,8c3.231,3.689 3.231,3.689 3.688,7.75l0.312,3.25l2,0c1,4 1,4 3.125,6.312l2.875,2.688c5.992,7.139 12.199,9.65 21,12c11.31,1.75 23.981,2.73 33.875,-3.938c6.044,-5.923 9.711,-11.401 11,-19.688l0.125,-4.375c1,-1 1,-1 1.938,-4.938l1.062,-5.062c2.146,-8.279 2.261,-16.223 2.273,-24.721l-0.023,-5.467c0.053,-12.149 -0.343,-23.803 -2.25,-35.812l-2,0c0,-9.246 -2.844,-15.98 -7.746,-23.777c-1.764,-2.733 -3.51,-5.477 -5.254,-8.223c-3.908,-9.77 -9.839,-17.327 -17,-25l-4,-1c-2.954,-2.068 -5.956,-4.067 -9,-6l0,0.001Z"/><path d="M288.602,807.822l5.625,0.062c7.645,1.124 9.464,3.18 14.375,8.938l3,2.312c8.617,7.719 14.869,18.322 17,29.688c0.074,2.666 0.095,5.335 0,8l2,0c0.637,11.038 -2.7,21.415 -8,31c-4.869,5.464 -9.961,9.738 -17,12l-4.75,1.688c-9.425,2.356 -18.416,1.197 -27.938,-0.188l-5.887,-0.844l-4.426,-0.656c0.284,3.626 0.578,7.25 0.875,10.875l0.492,6.117c0.507,5.815 0.507,5.815 1.626,10.681c1.639,8.671 1.809,17.401 2.177,26.204c0.142,3.312 0.311,6.622 0.48,9.933l0.275,6.357l0.263,5.79c-0.266,7.111 -2.571,11.013 -6.189,17.042c-1.027,2.321 -2.033,4.653 -3,7l-5,0l-1,-3l-5,-1c-2,-1 -2,-1 -3,-4c-0.061,-2.456 -0.06,-4.914 -0.027,-7.371l0.037,-4.428c0.035,-3.089 0.074,-6.177 0.117,-9.266l0.033,-4.432l0.051,-4.068c0,-3.667 0,-3.667 -2.211,-7.436c-0.28,-2.763 -0.451,-5.538 -0.562,-8.312l-0.223,-5.15l-0.215,-5.537l-0.5,-11.41l-0.25,-5.84c-0.38,-8.731 -0.799,-17.459 -1.25,-26.187l-0.215,-4.627l-0.223,-4.244l-0.184,-3.713c-0.177,-3.158 -0.177,-3.158 -2.379,-5.979c-0.278,-3.41 -0.451,-6.83 -0.562,-10.25c-0.339,-9.867 -1.641,-19.047 -3.438,-28.75l-2,0c-0.054,-2.771 -0.093,-5.542 -0.125,-8.312l-0.07,-4.676c0.195,-4.012 0.195,-4.012 2.195,-7.012c3.521,-0.629 7.07,-1.104 10.625,-1.5c6.997,-0.785 12.839,-1.936 19.375,-4.5c3.994,-0.395 7.995,-0.736 12,-1c4.141,-1.38 8.991,-2.005 13,0l0.003,0.001Zm-5,22c-6.123,-0.901 -11.366,-0.817 -17,2c-3.473,3.806 -3.991,5.856 -4.32,11.074c0.185,5.316 0.383,10.606 0.32,15.926l-2,3c-0.146,4.333 -0.99,9.02 1,13c4.062,2.125 4.062,2.125 10,4c11.84,1.63 21.762,-0.847 32,-7c1,-3 1,-3 0.984,-7.387l-0.234,-5.301c-0.2,-5.183 -0.581,-9.711 -1.984,-14.707c-3.434,-7.012 -11.694,-11.59 -18.766,-14.605Z"/><path d="M405.602,814.822l1,1l6.438,1c8.149,1.653 11.797,5.152 17.562,11l4,2c6.259,13.871 4.451,30.466 4.189,45.335c-0.886,14.866 -0.886,14.866 4.67,28.048l4.141,3.617l3,3c2.991,1.026 5.992,2.024 9,3l5,3c0.312,6.188 0.312,6.188 0,12l-3,1l-1,3l-7,0l-2,4l-2,0l0,-2l-6,-2c-3,-3 -3,-3 -3,-5l-8,0l-2,5c-2.592,2.416 -5.268,4.743 -8,7l-3.688,3.312c-3.312,2.688 -3.312,2.688 -8.312,4.688l-1,1c-7.651,1.876 -14.824,2.269 -22.688,2.25l-3.299,0.023c-5.641,-0.014 -10.756,-0.117 -16.014,-2.273c-3.25,-3.5 -3.25,-3.5 -6,-7l-3,-2c-1.019,-2.659 -2.017,-5.327 -3,-8l-2.062,-2.812c-4.385,-7.215 -4.276,-15.961 -3.938,-24.188l1,-4l2,0l2,-6l2,-4l2,0l1,-3c9.447,-5.095 18.458,-8.834 29,-11l4.5,-1.188c7.602,-1.373 14.129,0.3 21.5,2.188c-0.087,-4.438 -0.194,-8.875 -0.312,-13.312l-0.068,-3.826c0.133,-7.159 0.133,-7.159 -3.619,-12.861l0,-2l-5,-2l0,-2c-15.632,-0.718 -15.632,-0.718 -30,4l-3.875,0.812c-7.05,2.03 -10.635,6.575 -15.125,12.188l-5,4l-3,5l-3,0l-2.832,-9.082c-1.06,-3.204 -1.06,-3.204 -4.168,-5.918c1.168,-7.006 2.941,-8.591 7.812,-13.562c3.948,-4.062 7.644,-8.008 11.188,-12.438c10.556,-12.476 10.556,-12.476 19.285,-13.316c22.924,-1.493 22.924,-1.493 28.715,2.316l0,-0.001Zm11,83c-13.271,-6.636 -31.668,0.376 -41,10l-2,5l-2,2c-0.188,3.438 -0.188,3.438 0,7c1,3 1,3 3,4l5,1l0,2c2,1 2,1 5.152,1.133l3.785,-0.008c2.355,0.005 4.71,-0.03 7.062,-0.125c6.183,-2.061 11.129,-5.916 15.434,-10.711c5.391,-7.322 6.425,-12.277 5.566,-21.289l0.001,0Z"/><path d="M498.602,787.822c4.329,4.26 6.74,7.351 9,13l0,6l2,0c2.663,7.1 4.059,14.179 5.352,21.621c0.462,3.232 0.462,3.232 1.648,5.379c0.21,3.79 0.368,7.582 0.5,11.375c0.19,7.891 0.19,7.891 1.5,15.625c0.314,5.937 0.511,11.875 0.719,17.816c0.036,4.889 0.036,4.889 1.281,8.184c0.124,1.712 0.247,3.424 0.375,5.188c0.413,5.193 1.083,10.298 1.938,15.438c0.223,1.354 0.446,2.707 0.676,4.102c0.334,1.08 0.668,2.16 1.012,3.273c4.058,2.274 4.058,2.274 9.25,2.875c5.389,1.054 9.121,2.232 13.75,5.125c3.163,5.272 3.649,7.065 3,13c-6.182,7.727 -6.182,7.727 -10,9c-2.94,0.085 -5.883,0.107 -8.824,0.098c-1.75,-0.003 -3.5,-0.006 -5.303,-0.01c-1.835,-0.008 -3.67,-0.017 -5.561,-0.025c-1.847,-0.005 -3.693,-0.009 -5.596,-0.014c-4.572,-0.012 -9.145,-0.028 -13.717,-0.049l0,2c-2.413,0.303 -4.831,0.566 -7.25,0.812c-1.346,0.151 -2.692,0.302 -4.078,0.457c-1.212,-0.089 -2.423,-0.178 -3.672,-0.27c-4,-5 -4,-5 -4,-7c-1.32,-0.33 -2.64,-0.66 -4,-1c1.408,-5.634 4.523,-7.418 9,-11c1.279,-0.722 2.558,-1.444 3.875,-2.188c3.5,-1.648 3.5,-1.648 5.125,-5.812c0.902,-11.206 -0.435,-22.449 -1.492,-33.598c-0.666,-8.397 -0.943,-16.785 -1.166,-25.204c-0.204,-7.434 -0.492,-14.807 -1.342,-22.198c-0.99,-0.495 -0.99,-0.495 -2,-1c-0.144,-1.65 -0.289,-3.3 -0.438,-5c-0.52,-5.546 -1.794,-9.771 -3.562,-15c-0.188,-4.062 -0.188,-4.062 0,-7c-6.153,-2.051 -14.831,-4.085 -21,-1c-2.666,0.04 -5.334,0.043 -8,0c-1.375,-9.375 -1.375,-9.375 2,-15c2.603,-1.765 5.279,-3.423 8,-5c1.382,-0.908 2.764,-1.815 4.188,-2.75c8.484,-5.007 18.061,-4.25 26.812,-0.25Z" style="fill-rule:nonzero;"/></g></svg>