<?xml version="1.0" encoding="UTF-8" standalone="no"?><!DOCTYPE svg PUBLIC "-//W3C//DTD SVG 1.1//EN" "http://www.w3.org/Graphics/SVG/1.1/DTD/svg11.dtd"><svg width="100%" height="100%" viewBox="0 0 281 317" version="1.1" xmlns="http://www.w3.org/2000/svg" xmlns:xlink="http://www.w3.org/1999/xlink" xml:space="preserve" xmlns:serif="http://www.serif.com/" style="fill-rule:evenodd;clip-rule:evenodd;stroke-linejoin:round;stroke-miterlimit:2;"><rect id="Artboard2" x="0" y="0" width="281" height="317" style="fill:none;"/><path d="M158.801,132.873l0.113,1.826c1.522,26.615 1.522,26.615 -9.128,29.05l-2.785,0.648c-10.252,1.984 -19.337,1.985 -29.648,0.343c-1.185,-0.177 -2.37,-0.353 -3.555,-0.527c-11.13,-1.659 -14.524,-5.797 -14.762,-17.124l-0.054,-2.022c-0.036,-1.411 -0.069,-2.822 -0.098,-4.233c-0.046,-2.128 -0.107,-4.254 -0.17,-6.382c-0.53,-20.481 -0.53,-20.481 3.883,-26.042l1.382,-1.806c3.908,-4.687 12.003,-3.658 17.408,-3.645c3.045,0.039 3.045,0.039 5.646,-0.206c22.394,-0.956 30.587,8.871 31.768,30.119Zm-8.86,-7.779c-0.729,-12.353 -11.773,-15.272 -22.524,-13.669c1.313,11.096 2.08,20.009 -11.339,19.267c-8.51,-0.668 -8.51,-0.668 -7.771,24.549c24.392,3.809 43.188,7.669 42.057,-21.805l-0.141,-2.87l-0.122,-2.807l-0.159,-2.665Zm-29.239,-1.466c-0.511,-11.607 -1.26,-14.215 -11.661,-10.678c-1.354,9.908 -1.354,9.908 11.661,10.678Z"/><path d="M141.022,177.565l2.604,0.302c19.259,2.656 24.3,52.442 6.143,57.541c-15.835,3.828 -48.974,6.895 -49.833,-14.173c-0.108,-2.547 -0.254,-5.09 -0.415,-7.634c-1.815,-31.325 10.338,-39.895 41.501,-36.035Zm9.198,21.317c-0.693,-13.48 -9.634,-14.649 -21.791,-13.639c1.381,5.946 3.263,12.663 -0.456,18.105c-19.141,1.374 -20.194,-4.104 -20.336,10.514l0.134,1.828l0.138,2.02l0.16,2.031c0.445,6.312 -0.115,7.122 6.268,8.034l2.365,0.337c3.753,0.555 7.436,1.151 11.237,1.094c1.565,-0.167 3.132,-0.321 4.701,-0.45c1.624,-0.129 3.247,-0.261 4.871,-0.396l2.527,-0.212c3.886,-0.325 8.621,0.91 9.257,-3.312l0.496,-3.429c1.009,-6.852 0.896,-13.456 0.545,-20.354l-0.115,-2.17Zm-27.379,-2.292c-1.618,-10.316 -0.204,-12.189 -9.68,-10.407c-14.04,10.026 0.685,11.077 9.68,10.407Z"/><path d="M134.759,248.306l2.376,0.245c22.468,2.999 20.436,27.846 17.902,45.232l-0.412,2.911c-1.55,10.938 -7.688,10.932 -17.966,11.546l-3.279,0.208c-6.69,0.342 -13.176,0.286 -19.82,-0.59l-2.147,-0.275c-13.524,-2.188 -13.46,-12.601 -13.726,-24.352l-0.113,-3.138c-0.761,-28.134 10.355,-34.982 37.185,-31.788Zm-0.048,8.194c-3.296,-0.4 -5.689,-0.579 -8.963,0.036c1.434,11.599 2.908,18.574 -9.942,18.624l-1.94,0.001l-3.865,0.012c-3.725,0.004 -3.725,0.004 -3.78,8.788l0.131,2.79c0.311,7.591 0.083,10.55 7.628,11.627l2.467,0.351c12.618,1.861 29.398,5.857 30.501,-9.125c0.091,-1.254 0.184,-2.509 0.278,-3.763c0.865,-10.174 3.2,-25.848 -9.417,-28.996l-3.099,-0.345Z"/><path d="M39.286,9.487c1.141,0.165 2.281,0.33 3.456,0.5c3.379,0.508 3.753,1.668 5.994,4.198c0.629,0.707 1.259,1.413 1.907,2.141c1.443,1.778 2.316,3.261 3.256,5.314c1.511,0.097 1.511,0.097 3.052,0.196c37.804,2.595 37.804,2.595 37.352,26.333c-0.019,1.111 -0.038,2.222 -0.057,3.367c-0.717,29.969 -0.717,29.969 -14.522,30.774c-0.613,0.036 -1.225,0.072 -1.856,0.109c-7.245,0.364 -14.493,0.223 -21.741,0.018c-2.322,-0.064 -4.643,-0.11 -6.965,-0.156c-27.478,-0.648 -27.478,-0.648 -31.997,-5.445c-0.478,-0.503 -0.956,-1.006 -1.449,-1.525c-3.967,-4.889 -2.457,-13.157 -2.312,-19.088c0.148,-7.637 0.161,-15.225 -0.156,-22.857c-0.781,-21.351 -0.781,-21.351 8.59,-23.617c0.703,-0.173 1.406,-0.346 2.13,-0.525c5.231,-0.932 10.089,-0.509 15.317,0.26Zm-5.536,7.822c-0.622,0.006 -1.244,0.012 -1.885,0.018c-0.633,0.01 -1.266,0.02 -1.918,0.03c-0.652,0.007 -1.304,0.014 -1.976,0.022c-10.754,0.121 -6.624,22.103 -6.373,30.755c0.074,2.564 0.14,5.129 0.204,7.693c0.044,1.638 0.088,3.277 0.132,4.915c0.02,0.763 0.04,1.526 0.06,2.311c0.021,0.708 0.042,1.416 0.064,2.145c0.026,0.929 0.026,0.929 0.053,1.877c0.578,8.9 15.769,6.441 23.042,6.546c1.136,0.02 2.272,0.04 3.442,0.061c31.275,2.984 31.275,2.984 36.933,-22.446c-0.013,-2.018 -0.015,-4.036 -0.016,-6.054c-0.004,-1.287 -0.009,-2.573 -0.014,-3.86c-0.001,-0.601 -0.002,-1.203 -0.003,-1.823c-0.079,-9.567 -10.05,-8.434 -18.245,-8.466c-12.905,-0.051 -16.944,-1.195 -24.969,-13.002c-4.298,-0.59 -4.298,-0.59 -8.531,-0.725Z" style="fill-rule:nonzero;"/><path d="M55.294,98.688c-0.013,1.013 -0.026,2.026 -0.039,3.07c-0.021,1.056 -0.043,2.112 -0.065,3.2c-0.033,2.085 -0.064,4.171 -0.094,6.256c-0.018,0.924 -0.035,1.849 -0.053,2.801c-0.034,2.651 -0.034,2.651 0.183,5.274c0.122,2.359 -0.036,4.424 -0.394,6.752c-0.103,0.69 -0.207,1.379 -0.313,2.09c-0.082,0.513 -0.164,1.026 -0.248,1.555c3.592,0.181 7.185,0.355 10.778,0.527c1.527,0.077 1.527,0.077 3.085,0.156c1.474,0.07 1.474,0.07 2.977,0.141c0.903,0.044 1.806,0.088 2.737,0.134c2.254,0.037 4.355,-0.152 6.59,-0.408c1.907,0.193 3.81,0.435 5.705,0.717c0.975,0.142 1.949,0.285 2.953,0.431c6.561,1.001 3.557,7.223 -0.961,8.988c-2.874,0.114 -2.874,0.114 -6.3,-0.002c-0.913,-0.028 -0.913,-0.028 -1.844,-0.057c-1.285,-0.041 -2.57,-0.087 -3.855,-0.136c-1.955,-0.074 -3.911,-0.137 -5.867,-0.198c-5.131,-0.171 -10.141,-0.409 -15.237,-1.105c-5.419,48.438 -5.419,48.438 19.451,50.601c2.37,0.101 28.658,4.1 15.032,9.585c-2.701,0.794 -4.74,0.804 -7.546,0.656c-0.982,-0.05 -1.964,-0.099 -2.976,-0.151c-1.02,-0.06 -2.039,-0.12 -3.09,-0.182c-0.998,-0.049 -1.995,-0.098 -3.023,-0.149c-25.782,-1.388 -25.782,-1.388 -26.071,-18.21c-0.021,-0.724 -0.041,-1.448 -0.063,-2.193c-0.216,-8.424 -0.277,-16.856 -0.337,-25.282c-0.04,-5.092 -0.113,-10.167 -0.371,-15.253c-0.309,-6.426 -0.305,-12.842 -0.264,-19.273c0.011,-2.034 0.011,-4.068 0.011,-6.102c0.041,-10.971 9.898,-36.45 9.507,-14.232Z" style="fill-rule:nonzero;"/><path d="M134.866,56.932c0.696,-0.675 1.392,-1.35 2.109,-2.046c5.287,-4.943 9.78,-7.85 14.285,0.25c2.831,-0.844 2.831,-0.844 5.36,-2.295c5.945,0.813 5.945,0.813 10.357,5.453c0.347,-0.556 0.693,-1.113 1.05,-1.686c4.512,-6.146 9.25,-5.305 13.091,1.6c0.727,-0.119 1.453,-0.238 2.202,-0.361c7.797,-1.091 28.056,-3.715 24.007,7.981c-1.094,-0.1 -2.187,-0.2 -3.314,-0.303c-1.451,-0.123 -2.902,-0.245 -4.354,-0.366c-0.719,-0.067 -1.438,-0.134 -2.178,-0.203c-4.153,-0.338 -7.314,-0.102 -11.367,1.001c-2.461,-0.139 -2.461,-0.139 -4.785,-0.528c-1.171,-0.187 -1.171,-0.187 -2.365,-0.378c-1.767,-0.312 -1.767,-0.312 -6.179,-4.953c-0.555,0.861 -0.555,0.861 -1.121,1.739c-4.123,5.742 -8.582,3.856 -13.156,-0.663c-1.487,1.129 -2.973,2.258 -4.505,3.421c-5.945,-0.813 -5.945,-0.813 -10.221,-6.444c-0.338,0.513 -0.676,1.026 -1.025,1.555c-0.672,1.005 -0.672,1.005 -1.358,2.03c-0.442,0.666 -0.885,1.331 -1.34,2.017c-8.43,11.35 -12.849,-6.466 -13.434,-12.994c-4.171,-0.57 -6.58,14.911 -7.663,19.139c-11.848,-1.62 5.865,-51.808 15.903,-12.966Z" style="fill-rule:nonzero;"/><path d="M206.901,135.411c3.768,-1.983 3.768,-1.983 7.613,-4.006c1.084,0.294 4.504,1.221 5.132,1.392c1.668,0.547 1.668,0.547 3.514,1.809c8.039,1.788 15.738,1.789 23.914,1.325c4.007,-0.209 24.007,-0.427 14.32,6.929c-1.739,0.346 -1.739,0.346 -3.774,0.529c-0.745,0.069 -1.49,0.138 -2.258,0.21c-0.778,0.065 -1.557,0.129 -2.359,0.196c-0.76,0.071 -1.52,0.142 -2.302,0.216c-7.384,0.659 -14.421,0.645 -21.776,-0.353c-0.677,-0.08 -1.353,-0.16 -2.05,-0.243c-4.352,-0.582 -7.63,-1.66 -11.462,-3.812c-1.858,1.411 -3.717,2.823 -5.631,4.277c-6.633,-0.907 -7.846,-2.237 -9.951,-8.425c-0.25,0.49 -0.501,0.98 -0.759,1.485c-5.584,10.68 -11.611,14.712 -15.771,1.302c-2.707,2.056 -2.506,6.34 -3.336,9.637c-11.094,0.684 -3.556,-17.125 2.844,-20.807c5.584,1.933 6.756,3.414 7.834,9.145c0.442,-0.656 0.885,-1.313 1.34,-1.989c0.575,-0.849 1.151,-1.698 1.743,-2.573c0.572,-0.847 1.145,-1.694 1.735,-2.566c4.435,-6.259 12.473,-1.23 11.441,6.323Z" style="fill-rule:nonzero;"/><path d="M254.478,281.135c0.681,0.098 1.363,0.195 2.065,0.296c7.525,1.082 6.389,4.665 0.075,7.125c-12.116,1.827 -24.969,-1.201 -36.93,-3.03c-2.185,1.367 -4.37,2.733 -6.622,4.141c-8.714,-2.705 -8.714,-2.705 -8.104,-7.164c-2.166,-0.619 -2.166,-0.619 -2.78,1.501c-0.359,0.767 -0.717,1.534 -1.086,2.323c-0.525,1.14 -0.525,1.14 -1.06,2.303c-3.119,5.285 -8.47,6.695 -11.104,0.386c-0.424,-1.006 -0.424,-1.006 -0.858,-2.033c-0.633,-1.829 -0.633,-1.829 -0.362,-3.811c-2.192,-0.623 -2.192,-0.623 -2.835,1.643c-5.612,12.479 -5.612,12.479 -9.96,10.738c0.44,-10.997 10.245,-31.597 19.01,-13.55c0.696,-0.675 1.392,-1.35 2.109,-2.046c5.812,-5.434 9.578,-7.117 15.276,0.385c2.602,-0.845 5.031,-1.795 7.477,-3.015c0.628,0.091 1.257,0.182 1.904,0.276c2.871,0.413 5.742,0.819 8.614,1.225c1.483,0.215 1.483,0.215 2.996,0.435c7.424,1.04 14.767,0.762 22.174,1.87Z" style="fill-rule:nonzero;"/><path d="M190.958,200.532c0.344,0.778 0.688,1.556 1.042,2.358c0.339,0.772 0.679,1.545 1.028,2.341c2.296,5.283 2.296,5.283 7.365,-0.058c5.945,0.813 5.945,0.813 8.375,5.182c2.831,-0.844 2.831,-0.844 5.36,-2.295c0.98,0.187 0.98,0.187 1.979,0.377c1.307,0.22 1.307,0.22 2.64,0.444c1.286,0.228 1.286,0.228 2.598,0.462c2.738,0.28 2.738,0.28 5.127,-1.109c3.582,-1.365 5.743,-1.077 9.516,-0.509c0.608,0.087 1.216,0.175 1.843,0.265c1.926,0.28 3.848,0.581 5.771,0.882c1.312,0.195 2.624,0.388 3.936,0.579c7.709,1.134 16.105,2.617 3.562,8.709c-0.608,-0.094 -1.216,-0.187 -1.843,-0.284c-2.764,-0.42 -5.53,-0.824 -8.296,-1.228c-0.957,-0.148 -1.914,-0.295 -2.9,-0.448c-0.925,-0.133 -1.85,-0.266 -2.803,-0.403c-1.274,-0.19 -1.274,-0.19 -2.574,-0.384c-2.591,-0.106 -4.222,0.433 -6.625,1.342c-2.803,-0.057 -5.551,-0.315 -8.343,-0.577c-3.034,0.087 -4.564,0.842 -7.061,2.508c-4.115,-1.046 -6.576,-2.076 -9.366,-5.318c-0.622,1.351 -0.622,1.351 -1.256,2.73c-6.012,11.509 -10.979,-0.885 -14.19,-7.869c-1.607,4.443 -3.213,8.887 -4.868,13.465c-9.954,0.613 -5.053,-8.416 -2.227,-14.624c0.246,-0.575 0.491,-1.149 0.745,-1.741c1.817,-4.081 7.58,-13.703 11.464,-4.798Z" style="fill-rule:nonzero;"/><path d="M56.846,248.821c0.049,1.318 0.098,2.635 0.148,3.953c0.119,3.183 0.232,6.367 0.341,9.55c0.732,0.008 1.463,0.017 2.217,0.025c2.738,0.033 5.475,0.069 8.213,0.107c1.758,0.024 3.516,0.043 5.274,0.063c1.675,0.024 1.675,0.024 3.384,0.049c1.024,0.013 2.047,0.026 3.102,0.04c5.948,0.259 17.56,5.08 6.721,9.724c-1.794,0.169 -1.794,0.169 -3.755,0.125c-0.731,-0.015 -1.462,-0.03 -2.216,-0.046c-0.777,-0.027 -1.555,-0.054 -2.356,-0.082c-0.797,-0.023 -1.595,-0.047 -2.417,-0.071c-24.552,-0.91 -27.732,-7.996 -28.475,-31.908c-0.036,-1.061 -0.071,-2.121 -0.108,-3.214c-0.798,-29.106 9.364,-4.834 9.926,11.684Z" style="fill-rule:nonzero;"/></svg>