<?xml version="1.0" encoding="UTF-8" standalone="no"?><!DOCTYPE svg PUBLIC "-//W3C//DTD SVG 1.1//EN" "http://www.w3.org/Graphics/SVG/1.1/DTD/svg11.dtd"><svg width="100%" height="100%" viewBox="0 0 1120 944" version="1.1" xmlns="http://www.w3.org/2000/svg" xmlns:xlink="http://www.w3.org/1999/xlink" xml:space="preserve" xmlns:serif="http://www.serif.com/" style="fill-rule:evenodd;clip-rule:evenodd;stroke-linejoin:round;stroke-miterlimit:2;"><path d="M948.652,13.832c1.39,-0.003 2.78,-0.007 4.17,-0.01c2.9,-0.006 5.801,-0.008 8.701,-0.007c2.927,0 5.854,-0.007 8.781,-0.021c42.654,-0.196 42.654,-0.196 60.696,4.518c1.294,0.324 1.294,0.324 2.614,0.654c9.263,2.393 18.741,5.066 26.386,11.033c0.969,0.701 1.939,1.402 2.938,2.125c15.156,13.133 19.952,39.57 21.344,58.75c0.114,2.067 0.219,4.135 0.324,6.203c0.162,2.929 0.367,5.776 0.904,8.662c0.569,3.779 0.63,7.475 0.62,11.285c0.002,0.786 0.003,1.573 0.005,2.383c0.004,2.606 0.001,5.212 -0.002,7.818c0.001,1.846 0.002,3.692 0.004,5.538c0.003,4.934 -0.002,9.868 -0.008,14.802c-0.004,3.059 -0.006,6.117 -0.007,9.176c-0.015,23.651 -0.073,47.299 -0.559,70.946c-0.029,1.438 -0.029,1.438 -0.059,2.904c-0.18,8.463 -0.391,16.924 -0.753,25.382c-1.111,26.954 -0.994,53.931 -1,80.904c-0.001,2.07 -0.002,4.139 -0.003,6.209c-0.017,35.278 0.156,70.533 1.565,105.789c0.03,0.763 0.059,1.526 0.09,2.313c0.735,18.827 1.942,37.594 3.528,56.369c0.725,8.63 1.32,17.25 1.7,25.903c0.228,4.894 0.723,9.683 1.369,14.54c0.438,5.494 0.719,10.996 1,16.5c0.044,0.848 0.088,1.695 0.133,2.569c0.971,19.344 1.153,38.693 1.367,58.056c0.304,29.355 0.304,29.355 1.438,58.688c0.038,0.728 0.075,1.456 0.114,2.205c0.373,6.984 0.922,13.921 1.727,20.868c1.22,10.616 1.494,21.06 1.409,31.739c-0.008,1.812 -0.015,3.625 -0.022,5.438c-0.066,12.981 -0.295,25.96 -0.603,38.938c-0.029,1.247 -0.029,1.247 -0.059,2.518c-0.806,33.288 -0.806,33.288 -3.316,45.357c-0.266,1.323 -0.266,1.323 -0.538,2.673c-3.406,16.373 -9.026,31.652 -23.294,41.598c-13.476,8.706 -27.016,11.744 -42.668,13.979c-1.71,0.253 -3.421,0.507 -5.131,0.762c-3.338,0.496 -6.678,0.98 -10.02,1.454c-2.678,0.382 -5.339,0.795 -8.007,1.248c-22.781,3.764 -46.502,2.648 -69.547,2.937c-20.099,0.193 -20.099,0.193 -40.175,1.078c-6.79,0.428 -13.582,0.648 -20.382,0.861c-1.222,0.039 -2.445,0.078 -3.704,0.118c-5.055,0.159 -10.109,0.316 -15.164,0.467c-13.872,0.418 -27.705,0.983 -41.55,1.958c-14.501,1.003 -28.983,1.422 -43.513,1.71c-1.791,0.036 -3.582,0.072 -5.373,0.108c-2.751,0.055 -5.502,0.11 -8.252,0.165c-21.295,0.426 -42.585,0.882 -63.87,1.671c-53.352,1.975 -106.637,2.587 -160.018,2.494c-2.581,-0.004 -5.162,-0.009 -7.742,-0.013c-30.025,-0.048 -60.049,-0.139 -90.073,-0.244c-3.591,-0.012 -7.182,-0.025 -10.773,-0.037c-0.887,-0.003 -1.774,-0.006 -2.687,-0.009c-15.048,-0.051 -30.095,-0.086 -45.143,-0.108c-8.314,-0.013 -16.627,-0.034 -24.941,-0.077c-47.997,-0.245 -95.713,1.459 -143.622,4.331c-1.402,0.084 -2.803,0.167 -4.205,0.251c-6.2,0.37 -12.4,0.743 -18.599,1.12c-18.784,1.136 -37.499,1.899 -56.321,1.879c-0.937,-0.001 -1.873,-0.001 -2.838,-0.002c-13.043,-0.032 -25.867,-0.269 -38.662,-3.06c-1.231,-0.267 -1.231,-0.267 -2.486,-0.54c-18.472,-4.161 -32.464,-13.852 -42.889,-29.648c-7.996,-14.051 -10.469,-29.357 -11.5,-45.25c-0.113,-1.582 -0.228,-3.164 -0.343,-4.745c-0.33,-4.584 -0.638,-9.17 -0.941,-13.755c-0.236,-3.564 -0.476,-7.127 -0.716,-10.69c-0.723,-10.727 -1.444,-21.454 -2.142,-32.183c-0.083,-1.265 -0.165,-2.53 -0.25,-3.833c-0.155,-2.373 -0.308,-4.746 -0.461,-7.119c-0.07,-1.079 -0.141,-2.158 -0.213,-3.27c-0.06,-0.927 -0.12,-1.854 -0.181,-2.809c-0.215,-2.852 -0.473,-5.695 -0.745,-8.542c-2.322,-25.416 -1.683,-51.136 -1.737,-76.629c-0.016,-7.39 -0.04,-14.779 -0.065,-22.169c-0.07,-20.994 -0.131,-41.988 -0.182,-62.983c-0.029,-11.641 -0.064,-23.282 -0.107,-34.923c-0.022,-6.122 -0.041,-12.243 -0.05,-18.365c-0.044,-26.692 -0.515,-53.263 -2.001,-79.914c-1.227,-22.227 -1.517,-44.473 -1.595,-66.729c-0.016,-4.588 -0.04,-9.176 -0.065,-13.764c-0.065,-12.206 -0.124,-24.413 -0.172,-36.619c-0.041,-10.391 -0.09,-20.782 -0.154,-31.174c-0.005,-0.772 -0.009,-1.543 -0.014,-2.338c-0.144,-22.797 -0.679,-45.518 -2.135,-68.273c-0.584,-9.997 -0.905,-20.017 -1.065,-30.029c-0.014,-0.849 -0.028,-1.699 -0.042,-2.574c-0.21,-13.993 -0.303,-27.988 -0.352,-41.982c-0.012,-3.247 -0.03,-6.494 -0.054,-9.74c-0.124,-17.494 0.207,-34.838 1.686,-52.278c0.064,-0.753 0.127,-1.507 0.193,-2.283c1.764,-20.437 4.446,-39.506 20.405,-54.037c11.713,-9.196 26.746,-10.663 41.062,-12.125c2.908,-0.311 5.815,-0.628 8.723,-0.945c0.703,-0.075 1.405,-0.151 2.129,-0.228c4.375,-0.478 8.712,-1.083 13.058,-1.784c5.145,-0.824 10.199,-1.289 15.402,-1.48c1.487,-0.061 2.974,-0.125 4.461,-0.191c0.635,-0.024 1.269,-0.048 1.923,-0.073c2.368,-0.152 2.368,-0.152 5.191,-0.65c5.008,-0.722 10.036,-0.884 15.087,-1.08c1.058,-0.042 2.115,-0.084 3.205,-0.128c10.725,-0.398 21.439,-0.443 32.17,-0.413c2.126,0.002 4.251,0.003 6.377,0.004c4.544,0.003 9.087,0.009 13.631,0.018c7.321,0.014 14.642,0.019 21.963,0.024c18.261,0.013 36.522,0.037 54.784,0.061c57.681,0.077 115.359,0.089 173.038,-0.416c3.576,-0.031 7.151,-0.061 10.727,-0.091c25.124,-0.214 50.23,-0.599 75.344,-1.344c9.195,-0.267 18.39,-0.368 27.588,-0.441c1.976,-0.018 3.952,-0.036 5.927,-0.055c5.375,-0.049 10.75,-0.093 16.125,-0.136c3.455,-0.028 6.91,-0.058 10.365,-0.088c34.195,-0.297 68.39,-0.5 102.586,-0.674c3.09,-0.016 6.179,-0.032 9.269,-0.047c19.583,-0.101 39.166,-0.201 58.749,-0.286c7.872,-0.034 15.744,-0.072 23.616,-0.111c4.58,-0.023 9.161,-0.044 13.741,-0.061c31.626,-0.121 63.247,-0.616 94.84,-2.135c2.709,-0.13 5.418,-0.253 8.127,-0.375c1.788,-0.083 3.577,-0.166 5.365,-0.25c0.778,-0.035 1.556,-0.071 2.358,-0.107c4.26,-0.208 8.494,-0.518 12.741,-0.913c6.995,-0.597 13.962,-0.641 20.979,-0.647Zm-50.098,18.388c-26.97,1.709 -53.933,1.955 -80.946,2.051c-4.935,0.019 -9.869,0.043 -14.804,0.067c-11.486,0.054 -22.972,0.103 -34.457,0.15c-17.476,0.072 -34.953,0.148 -52.429,0.232c-1.503,0.007 -1.503,0.007 -3.037,0.014c-28.3,0.135 -56.592,0.411 -84.888,0.905c-16.919,0.295 -33.837,0.494 -50.758,0.608c-1.776,0.012 -1.776,0.012 -3.587,0.024c-6.089,0.041 -12.178,0.08 -18.267,0.118c-13.68,0.087 -27.36,0.185 -41.04,0.291c-1.079,0.008 -1.079,0.008 -2.179,0.017c-24.907,0.194 -49.813,0.481 -74.719,0.811c-1.729,0.023 -3.458,0.046 -5.186,0.068c-15.229,0.201 -30.458,0.406 -45.687,0.626c-33.271,0.481 -66.538,0.89 -99.812,0.916c-2.163,0.002 -4.326,0.006 -6.488,0.01c-14.087,0.025 -28.16,-0.072 -42.239,-0.574c-1.1,-0.039 -2.199,-0.078 -3.332,-0.117c-5.626,-0.226 -11.116,-0.701 -16.696,-1.437c-1.927,-0.096 -3.857,-0.157 -5.787,-0.177c-1.079,-0.013 -2.158,-0.025 -3.269,-0.038c-1.734,-0.011 -1.734,-0.011 -3.502,-0.023c-1.233,-0.01 -2.465,-0.019 -3.735,-0.029c-4.048,-0.025 -8.096,-0.038 -12.144,-0.045c-1.04,-0.002 -1.04,-0.002 -2.101,-0.004c-36.426,-0.061 -72.714,2.116 -108.899,6.379c-1.272,0.15 -2.544,0.3 -3.855,0.454c-11.354,1.473 -23.341,3.721 -31.528,12.417c-18.327,25.096 -13.361,70.321 -13.367,99.566c-0.001,1.252 -0.002,2.504 -0.003,3.795c-0.028,17.389 -0.028,17.389 0.948,34.742c0.439,5.353 0.528,10.721 0.68,16.089c0.25,8.005 0.601,15.973 1.283,23.953c1.191,14.321 1.567,28.604 1.811,42.969c0.021,1.145 0.041,2.29 0.062,3.47c0.501,27.923 0.723,55.848 0.933,83.774c0.147,44.353 0.147,44.353 1.961,88.66c1.578,25.043 1.785,50.023 1.757,75.11c-0.008,7.413 0.003,14.825 0.017,22.238c0.037,21.052 0.056,42.103 0.044,63.155c-0.007,15.457 0.009,30.914 0.058,46.37c0.004,1.253 0.008,2.507 0.012,3.798c0.142,40.52 1.62,80.711 5.035,121.082c0.95,11.418 1.578,22.857 2.214,34.296c0.107,1.904 0.215,3.809 0.323,5.713c0.046,0.809 0.091,1.619 0.139,2.453c0.447,7.451 1.22,14.799 2.363,22.177c0.179,1.163 0.179,1.163 0.362,2.349c2.088,12.607 7.96,24.727 18.189,32.745c5.219,3.548 10.649,6.769 17,7.562c-0.308,-0.931 -0.616,-1.861 -0.934,-2.82c-1.406,-4.949 -1.744,-9.941 -2.129,-15.055c-0.082,-1.054 -0.165,-2.107 -0.25,-3.193c-1.222,-16.328 -1.776,-32.673 -1.918,-49.044c-0.019,-1.939 -0.052,-3.879 -0.085,-5.818c-0.048,-13.583 1.893,-26.778 9.44,-38.32c16.945,-16.208 50.636,-15.194 72.359,-15.227c2.198,-0.014 4.395,-0.03 6.593,-0.047c5.728,-0.041 11.456,-0.067 17.183,-0.087c9.177,-0.036 18.353,-0.097 27.53,-0.158c3.17,-0.019 6.341,-0.031 9.511,-0.041c9.842,-0.045 19.611,-0.264 29.429,-0.962c3.862,-0.267 7.688,-0.367 11.559,-0.402c1.5,-0.021 3,-0.042 4.499,-0.064c0.783,-0.011 1.566,-0.022 2.372,-0.034c21.249,-0.33 42.441,-1.491 63.652,-2.726c0.776,-0.045 1.551,-0.09 2.351,-0.136c5.244,-0.304 10.488,-0.613 15.731,-0.926c1.013,-0.06 1.013,-0.06 2.046,-0.121c6.698,-0.399 13.39,-0.831 20.079,-1.359c4.26,-0.335 8.501,-0.601 12.773,-0.703c1.186,-0.032 2.372,-0.063 3.594,-0.096c1.254,-0.032 2.509,-0.063 3.801,-0.096c13.092,-0.36 26.169,-0.922 39.25,-1.562c1.835,-0.089 3.671,-0.178 5.506,-0.267c3.492,-0.17 6.985,-0.339 10.477,-0.51c0.788,-0.038 1.577,-0.077 2.389,-0.116c1.906,-0.093 3.813,-0.186 5.719,-0.279c17.21,-0.822 34.43,-1.118 51.655,-1.453c10.61,-0.209 21.212,-0.456 31.816,-0.875c30.533,-1.148 61.105,-1.416 91.656,-1.715c1.836,-0.018 3.672,-0.036 5.508,-0.054c0.921,-0.009 1.841,-0.018 2.79,-0.027c35.27,-0.347 70.532,-0.811 105.795,-1.638c2.796,-0.065 5.593,-0.129 8.389,-0.193c4.373,-0.1 8.747,-0.205 13.12,-0.313c1.596,-0.039 3.191,-0.077 4.787,-0.114c2.186,-0.051 4.372,-0.107 6.558,-0.164c1.219,-0.03 2.437,-0.061 3.693,-0.092c2.68,-0.137 5.239,-0.361 7.892,-0.693c4.516,-0.511 8.958,-0.64 13.5,-0.63c0.826,-0.002 1.652,-0.005 2.503,-0.007c2.742,-0.006 5.485,-0.006 8.227,-0.005c1.977,-0.003 3.954,-0.006 5.931,-0.01c5.354,-0.009 10.707,-0.011 16.061,-0.012c3.351,-0.001 6.702,-0.003 10.053,-0.005c11.708,-0.009 23.415,-0.013 35.123,-0.013c10.884,0.001 21.768,-0.01 32.652,-0.026c9.368,-0.013 18.735,-0.018 28.103,-0.018c5.584,0 11.169,-0.003 16.753,-0.013c5.258,-0.01 10.516,-0.01 15.774,-0.002c1.919,0.001 3.838,-0.001 5.757,-0.007c37.882,-0.112 37.882,-0.112 50.632,12.267c12.391,14.113 12.819,33.925 13.805,51.797c0.044,0.798 0.088,1.597 0.134,2.419c1.067,19.632 2.098,39.295 -1.196,58.768c10.647,-3.383 21.01,-8.089 27,-18c1.247,-2.74 2.273,-5.529 3.25,-8.375c0.234,-0.676 0.468,-1.352 0.71,-2.048c4.634,-14.72 5.622,-30.2 6.228,-45.515c0.039,-0.918 0.078,-1.836 0.118,-2.781c1.519,-36.277 2.004,-73.051 -2.819,-109.125c-0.643,-5.024 -0.832,-10.054 -1.017,-15.113c-0.042,-1.108 -0.083,-2.216 -0.126,-3.358c-0.629,-18.358 -0.693,-36.732 -0.869,-55.099c-0.051,-5.338 -0.106,-10.675 -0.166,-16.012c-0.026,-2.468 -0.047,-4.935 -0.068,-7.403c-0.017,-1.512 -0.033,-3.025 -0.051,-4.537c-0.013,-1.309 -0.025,-2.619 -0.038,-3.968c-0.15,-3.62 -0.604,-7.087 -1.151,-10.666c-0.115,-1.478 -0.207,-2.959 -0.265,-4.44c-0.034,-0.799 -0.067,-1.598 -0.102,-2.421c-0.048,-1.267 -0.048,-1.267 -0.098,-2.56c-0.079,-1.85 -0.157,-3.701 -0.236,-5.551c-0.118,-2.869 -0.235,-5.738 -0.348,-8.607c-0.388,-9.67 -0.845,-19.283 -1.95,-28.901c-1.225,-10.671 -1.645,-21.354 -2.062,-32.082c-0.117,-2.908 -0.235,-5.816 -0.357,-8.724c-0.074,-1.786 -0.146,-3.573 -0.214,-5.36c-0.168,-4.103 -0.427,-8.166 -0.863,-12.25c-0.585,-5.562 -0.833,-11.118 -1.04,-16.706c-0.043,-1.146 -0.086,-2.293 -0.131,-3.474c-0.139,-3.85 -0.27,-7.7 -0.397,-11.55c-0.022,-0.666 -0.044,-1.332 -0.067,-2.018c-0.92,-27.785 -1.064,-55.566 -1.058,-83.364c0.001,-3.235 -0.001,-6.47 -0.002,-9.705c-0.001,-5.153 0.005,-10.306 0.016,-15.459c0.004,-1.91 0.006,-3.82 0.007,-5.73c0.007,-8.714 0.071,-17.329 0.916,-26.009c0.573,-7.07 0.622,-14.18 0.785,-21.27c0.043,-1.788 0.087,-3.576 0.131,-5.364c0.139,-5.777 0.268,-11.554 0.397,-17.331c0.022,-0.984 0.044,-1.968 0.067,-2.981c0.617,-27.357 1.066,-54.707 1.058,-82.072c-0.001,-2.166 0.001,-4.332 0.002,-6.498c0.321,-31.307 0.321,-31.307 -2.877,-62.386c-0.172,-1.031 -0.345,-2.061 -0.522,-3.123c-2.275,-12.782 -5.272,-29.222 -15.935,-37.787c-23.552,-15.486 -56.976,-12.87 -83.891,-12.669c-3.587,0.021 -7.173,0.021 -10.76,0.02c-19.25,0.001 -38.436,0.37 -57.65,1.591Zm-150.234,728.537c-5.102,0.176 -10.203,0.35 -15.305,0.521c-0.998,0.034 -1.995,0.067 -3.023,0.102c-26.415,0.876 -52.837,0.961 -79.264,1.1c-50.535,0.266 -101.001,1.297 -151.509,2.962c-12.476,0.411 -24.952,0.79 -37.43,1.129c-1.56,0.043 -3.121,0.085 -4.681,0.128c-0.756,0.021 -1.513,0.041 -2.292,0.063c-0.746,0.02 -1.492,0.041 -2.26,0.062c-0.735,0.02 -1.47,0.04 -2.228,0.061c-48.743,1.329 -48.743,1.329 -97.414,4.18c-1.971,0.146 -3.942,0.292 -5.913,0.437c-0.727,0.054 -1.454,0.108 -2.203,0.163c-32.981,2.433 -65.85,3.516 -98.918,3.427c-0.773,-0.002 -1.546,-0.004 -2.343,-0.006c-13.632,-0.036 -27.264,-0.098 -40.896,-0.173c-8.887,-0.049 -17.773,-0.091 -26.66,-0.112c-3.787,-0.009 -7.574,-0.025 -11.362,-0.055c-35.162,-1.618 -35.162,-1.618 -66.619,11.256c-5.422,8.327 -5.299,18.195 -5.266,27.793c-0.002,1.222 -0.004,2.445 -0.006,3.704c-0.001,2.584 0.002,5.169 0.011,7.753c0.011,3.879 0,7.758 -0.013,11.638c-0.007,11.526 0.137,22.989 1.164,34.475c0.077,0.867 0.155,1.735 0.235,2.629c0.743,7.299 2.447,14.072 4.875,21.008c9.468,2.425 18.802,2.31 28.5,2.25c0.898,-0.003 1.796,-0.006 2.721,-0.009c32.075,-0.128 64.013,-2.354 95.999,-4.574c19.584,-1.354 39.116,-2.324 58.746,-2.524c3.506,-0.08 6.985,-0.366 10.48,-0.644c6.826,-0.492 13.598,-0.634 20.439,-0.612c1.218,-0 2.436,-0 3.691,-0c3.338,0.001 6.675,0.006 10.013,0.013c3.619,0.006 7.238,0.007 10.857,0.008c6.269,0.003 12.538,0.009 18.806,0.018c9.124,0.013 18.249,0.019 27.373,0.023c14.888,0.007 29.776,0.018 44.664,0.032c0.89,0.001 1.779,0.002 2.696,0.003c8.084,0.008 16.169,0.015 24.253,0.023c5.332,0.005 10.664,0.01 15.996,0.015c0.876,0.001 1.751,0.002 2.654,0.003c14.786,0.014 29.572,0.024 44.357,0.03c8.259,0.004 16.518,0.01 24.777,0.022c48.927,0.068 97.817,-0.328 146.724,-1.891c7.06,-0.225 14.119,-0.439 21.179,-0.649c0.746,-0.022 1.492,-0.044 2.26,-0.067c13.222,-0.391 26.445,-0.692 39.67,-0.972c1.963,-0.042 3.926,-0.084 5.889,-0.126c15.685,-0.336 15.685,-0.336 23.132,-0.478c18.342,-0.351 36.577,-0.783 54.856,-2.446c7.766,-0.696 15.538,-0.863 23.33,-1.008c2.164,-0.045 4.328,-0.092 6.492,-0.143c1.938,-0.045 3.875,-0.083 5.813,-0.121c4.022,-0.116 8.028,-0.399 12.042,-0.674c7.999,-0.529 15.979,-0.677 23.993,-0.73c2.461,-0.017 4.922,-0.04 7.383,-0.065c6.985,-0.07 13.971,-0.13 20.957,-0.182c25.075,-0.191 49.837,-0.761 74.632,-4.898c1.319,-0.198 2.638,-0.396 3.957,-0.594c1.858,-0.306 1.858,-0.306 3.754,-0.617c1.094,-0.176 2.187,-0.352 3.314,-0.533c2.686,-0.629 2.686,-0.629 3.9,-2.697c2.802,-8.746 3.015,-17.302 2.95,-26.434c-0.003,-0.676 -0.006,-1.352 -0.008,-2.048c-0.057,-11.974 -0.482,-23.93 -1.054,-35.89c-0.035,-0.798 -0.07,-1.595 -0.106,-2.417c-0.872,-21.057 -0.872,-21.057 -11.332,-38.708c-8.24,-5.056 -17.538,-5.805 -27.015,-5.828c-0.687,-0.003 -1.373,-0.006 -2.081,-0.009c-2.282,-0.009 -4.564,-0.01 -6.847,-0.012c-1.652,-0.005 -3.305,-0.01 -4.957,-0.015c-4.501,-0.013 -9.003,-0.019 -13.504,-0.024c-2.847,-0.003 -5.695,-0.008 -8.542,-0.013c-13.304,-0.025 -26.609,-0.033 -39.913,-0.036c-3.202,-0.001 -6.403,-0.002 -9.605,-0.004c-53.019,-0.026 -105.973,0.176 -158.965,2.009Z" style="fill:#060606;fill-rule:nonzero;"/><path d="M939.042,246.77c2.298,-0.013 4.595,-0.031 6.893,-0.054c12.41,-0.116 24.627,0.216 36.967,1.612c1.556,0.175 1.556,0.175 3.143,0.354c15.702,1.961 30.028,5.226 40.954,17.318c5.613,7.922 8.303,16.868 9.625,26.375c0.187,1.322 0.187,1.322 0.378,2.671c1.846,13.646 2.094,27.237 2.171,40.993c0.009,1.493 0.02,2.985 0.035,4.478c0.135,15.835 -0.49,31.063 -11.131,43.779c-4.445,4.161 -9.43,6.563 -15.078,8.703c-0.689,0.306 -1.377,0.612 -2.087,0.927c-13.911,5.122 -29.488,5.956 -44.136,7.029c-3.116,0.229 -6.229,0.478 -9.343,0.73c-11.207,0.878 -22.406,1.477 -33.642,1.831c-1.964,0.063 -1.964,0.063 -3.968,0.128c-12.55,0.397 -25.101,0.707 -37.656,0.918c-1.25,0.021 -2.5,0.042 -3.788,0.064c-28.441,0.466 -56.885,0.451 -85.329,0.436c-1.194,-0.001 -2.387,-0.001 -3.617,-0.002c-19.963,-0.012 -39.925,-0.038 -59.888,-0.066c-18.582,-0.026 -37.163,-0.047 -55.745,-0.057c-1.211,-0.001 -2.422,-0.001 -3.669,-0.002c-48.049,-0.022 -96.088,0.337 -144.131,1.064c-0.693,0.01 -1.386,0.021 -2.1,0.032c-15.13,0.23 -30.258,0.514 -45.386,0.847c-3.695,0.08 -7.391,0.153 -11.086,0.226c-19.016,0.381 -38.021,0.896 -57.027,1.629c-23.554,0.908 -47.095,1.531 -70.663,1.863c-0.725,0.01 -1.451,0.021 -2.198,0.031c-9.581,0.135 -19.161,0.258 -28.742,0.377c-11.26,0.141 -22.52,0.289 -33.78,0.443c-3.503,0.048 -7.005,0.094 -10.508,0.136c-13.189,0.159 -26.352,0.375 -39.524,1.071c-7.154,0.374 -14.291,0.489 -21.454,0.476c-1.27,0.001 -2.54,0.003 -3.848,0.004c-3.369,0.003 -6.738,-0.001 -10.107,-0.008c-2.103,-0.004 -4.205,-0.007 -6.308,-0.01c-17.281,-0.025 -34.564,-0.08 -51.843,-0.384c-1.83,-0.031 -3.661,-0.059 -5.492,-0.081c-8.993,-0.119 -17.79,-0.571 -26.68,-1.998c-0.719,-0.114 -1.438,-0.227 -2.178,-0.344c-9.837,-1.747 -19.554,-6.058 -25.748,-14.144c-5.622,-9.177 -6.353,-18.704 -6.863,-29.195c-0.065,-1.281 -0.065,-1.281 -0.131,-2.589c-0.137,-2.774 -0.268,-5.547 -0.396,-8.321c-0.044,-0.949 -0.088,-1.898 -0.133,-2.876c-0.551,-12.179 -1.025,-24.357 -1.103,-36.55c-0.014,-2.01 -0.04,-4.02 -0.067,-6.03c0.007,-12.026 1.655,-23.033 9.823,-32.252c9.528,-9.157 23.004,-10.765 35.543,-12.355c0.674,-0.088 1.349,-0.175 2.044,-0.265c7.39,-0.85 14.772,-0.929 22.2,-0.995c2.389,-0.021 4.778,-0.048 7.167,-0.077c5.092,-0.059 10.185,-0.111 15.277,-0.163c5.869,-0.06 11.737,-0.123 17.606,-0.192c2.307,-0.026 4.615,-0.047 6.922,-0.068c8.302,-0.088 16.581,-0.342 24.875,-0.732c11.146,-0.521 22.285,-0.72 33.442,-0.871c28.752,-0.408 57.45,-1.562 86.171,-2.907c4.859,-0.226 9.719,-0.444 14.579,-0.662c22.018,-0.99 44.028,-2.024 66.024,-3.415c73.312,-4.608 147.146,-4.853 220.569,-4.813c1.304,0.001 2.608,0.001 3.952,0.002c16.671,0.011 33.342,0.04 50.014,0.075c8.892,0.019 17.785,0.035 26.677,0.049c0.681,0.001 1.363,0.002 2.065,0.003c11.466,0.018 22.932,0.032 34.398,0.044c7.555,0.008 15.109,0.022 22.664,0.041c33.102,0.078 66.111,-0.388 99.181,-1.927c2.899,-0.134 5.799,-0.263 8.698,-0.39c7.847,-0.345 15.694,-0.694 23.539,-1.088c14.318,-0.681 28.647,-0.807 42.98,-0.879Zm-49.363,17.133c-49.265,2.421 -98.423,3.462 -147.738,3.382c-1.496,-0.002 -2.992,-0.004 -4.488,-0.007c-20.646,-0.031 -41.291,-0.105 -61.936,-0.188c-26.004,-0.105 -52.008,-0.192 -78.012,-0.239c-2.248,-0.004 -4.495,-0.008 -6.743,-0.013c-124.845,-2.205 -124.845,-2.205 -249.028,6.686c-4.001,0.509 -7.947,0.663 -11.973,0.721c-1.617,0.032 -3.233,0.064 -4.85,0.096c-0.848,0.015 -1.696,0.031 -2.57,0.047c-14.301,0.264 -28.573,0.723 -42.856,1.478c-38.085,1.997 -76.293,2.193 -114.424,2.259c-0.881,0.003 -1.761,0.005 -2.668,0.008c-8.205,0.019 -16.245,-0.074 -24.394,-1.133c-17.072,-1.077 -42.86,-2.049 -56.746,9.445c-4.353,4.71 -5.506,10.301 -5.52,16.523c-0.004,1.189 -0.008,2.378 -0.012,3.603c0.009,1.296 0.018,2.592 0.028,3.928c0.002,0.672 0.005,1.343 0.007,2.035c0.057,13.643 0.559,27.272 1.118,40.903c0.039,1.006 0.078,2.011 0.119,3.047c0.115,2.9 0.242,5.799 0.374,8.699c0.033,0.858 0.067,1.717 0.101,2.601c0.449,9.221 1.407,17.361 8.406,23.903c9.224,6.826 21.428,6.613 32.469,6.571c1.76,0.005 1.76,0.005 3.556,0.011c3.867,0.009 7.734,0.003 11.601,-0.004c2.754,0 5.507,0.003 8.261,0.006c5.797,0.004 11.593,-0.001 17.39,-0.011c5.813,-0.009 11.626,-0.01 17.439,0c33.606,0.055 67.134,-0.349 100.722,-1.597c16.108,-0.597 32.215,-1.025 48.33,-1.367c2.011,-0.043 4.022,-0.086 6.033,-0.129c6.8,-0.146 13.599,-0.288 20.399,-0.43c14.643,-0.304 29.286,-0.621 43.929,-0.945c1.098,-0.024 1.098,-0.024 2.217,-0.049c19.792,-0.438 39.581,-0.941 59.369,-1.568c1.074,-0.034 2.149,-0.068 3.256,-0.102c9.829,-0.31 19.657,-0.627 29.485,-0.98c65.962,-2.346 132.019,-2.184 198.013,-2.121c1.378,0.001 2.755,0.003 4.133,0.004c23.871,0.022 47.742,0.056 71.613,0.103c0.71,0.001 1.42,0.003 2.152,0.004c0.71,0.001 1.42,0.003 2.152,0.004c1.434,0.003 2.868,0.006 4.302,0.008c0.709,0.001 1.417,0.003 2.147,0.004c11.992,0.023 23.983,0.038 35.975,0.047c6.621,0.005 13.241,0.014 19.862,0.033c94.563,6.357 94.563,6.357 184.322,-14.181c7.306,-8.085 8.156,-15.727 8.168,-26.137c0.003,-0.993 0.007,-1.987 0.01,-3.01c0.005,-2.107 0.007,-4.215 0.007,-6.322c0.002,-3.162 0.02,-6.324 0.039,-9.486c0.909,-29.677 0.909,-29.677 -10.225,-56.045c-3.777,-3.545 -7.063,-4.874 -12.062,-6.125c-0.99,-0.248 -0.99,-0.248 -1.999,-0.501c-34.961,-8.547 -73.559,-5.244 -109.259,-3.47Z" style="fill:#060606;fill-rule:nonzero;"/><path d="M566.21,426.866c5.242,0.003 10.483,0 15.725,-0.001c8.838,-0.002 17.676,0.001 26.514,0.005c8.919,0.005 17.839,0.005 26.758,0c84.684,-0.045 84.684,-0.045 124.485,0.544c2.086,0.031 4.172,0.061 6.257,0.09c12.241,0.181 24.446,0.406 36.659,1.277c5.533,0.357 11.064,0.412 16.607,0.465c2.423,0.033 4.845,0.066 7.268,0.1c3.729,0.047 7.459,0.092 11.188,0.131c48.521,0.533 48.521,0.533 59.845,11.633c9.929,12.646 11.847,29.332 12.309,44.867c0.078,2.501 0.291,4.765 0.68,7.254c0.722,5.485 0.721,10.93 0.746,16.457c0.031,1.662 0.031,1.662 0.062,3.357c0.055,11.808 -1.795,22.618 -9.805,31.635c-17.981,17.293 -59.559,13.562 -82.322,13.727c-23.72,0.187 -47.4,0.824 -71.094,1.933c-2.047,0.096 -4.094,0.19 -6.141,0.285c-12.54,0.584 -25.071,1.229 -37.595,2.095c-17.267,1.183 -34.531,1.896 -51.827,2.46c-3.899,0.128 -7.799,0.262 -11.698,0.395c-6.541,0.222 -13.083,0.441 -19.624,0.658c-9.097,0.301 -18.193,0.608 -27.29,0.917c-7.217,0.245 -14.434,0.487 -21.651,0.73c-0.745,0.025 -1.489,0.05 -2.256,0.076c-8.594,0.289 -17.188,0.572 -25.782,0.843c-4.67,0.148 -9.339,0.314 -14.008,0.484c-27.179,0.942 -54.368,0.919 -81.561,0.983c-7.244,0.017 -14.487,0.041 -21.731,0.064c-12.933,0.042 -25.866,0.082 -38.8,0.118c-0.768,0.002 -1.536,0.004 -2.327,0.007c-7.02,0.02 -14.041,0.039 -21.061,0.059c-4.695,0.013 -9.39,0.026 -14.084,0.039c-0.772,0.002 -1.544,0.004 -2.34,0.007c-12.917,0.036 -25.834,0.076 -38.752,0.119c-7.923,0.026 -15.846,0.049 -23.769,0.067c-6.068,0.014 -12.135,0.033 -18.203,0.054c-2.471,0.008 -4.942,0.014 -7.413,0.018c-12.227,0.022 -24.402,0.146 -36.605,0.953c-4.591,0.296 -9.174,0.429 -13.773,0.512c-0.849,0.018 -1.698,0.037 -2.573,0.056c-3.523,0.076 -7.045,0.146 -10.568,0.215c-12.391,0.24 -12.391,0.24 -24.761,0.967c-10.324,0.751 -20.669,0.666 -31.015,0.666c-3.574,0.002 -7.148,0.02 -10.721,0.039c-2.308,0.003 -4.616,0.005 -6.924,0.006c-1.05,0.007 -2.101,0.014 -3.183,0.022c-13.886,-0.042 -28.112,-2.076 -39.11,-11.182c-4.985,-5.306 -7.808,-12.465 -8.445,-19.656c-0.082,-0.919 -0.164,-1.839 -0.249,-2.786c-0.083,-0.991 -0.166,-1.982 -0.251,-3.003c-0.13,-1.551 -0.13,-1.551 -0.263,-3.132c-1.236,-15.182 -1.838,-30.323 -1.987,-45.555c-0.021,-1.201 -0.043,-2.402 -0.065,-3.639c-0.041,-10.827 1.308,-22.561 8.315,-31.298c6.126,-5.583 13.046,-8.908 21,-11c0.658,-0.177 1.315,-0.353 1.993,-0.535c15.387,-3.903 30.971,-3.897 46.73,-4.104c18.984,-0.259 37.935,-0.987 56.902,-1.798c1.58,-0.067 3.16,-0.134 4.741,-0.201c17.486,-0.745 34.972,-1.512 52.447,-2.486c0.691,-0.038 1.381,-0.077 2.093,-0.116c5.752,-0.324 11.486,-0.698 17.22,-1.254c6.09,-0.561 12.173,-0.805 18.285,-1.004c1.749,-0.061 1.749,-0.061 3.533,-0.123c3.706,-0.129 7.413,-0.253 11.12,-0.377c3.653,-0.125 7.306,-0.251 10.959,-0.377c2.259,-0.078 4.518,-0.155 6.777,-0.23c1.084,-0.037 2.167,-0.073 3.284,-0.111c1.193,-0.04 2.385,-0.081 3.614,-0.122c3.31,-0.117 6.619,-0.258 9.928,-0.403c16.205,-0.695 32.39,-0.946 48.609,-1.026c3.52,-0.019 7.041,-0.043 10.561,-0.067c9.653,-0.064 19.306,-0.12 28.958,-0.176c8.872,-0.051 17.744,-0.105 26.615,-0.165c3.472,-0.023 6.945,-0.045 10.417,-0.062c12.813,-0.065 25.602,-0.185 38.403,-0.77c17.997,-0.793 36.012,-0.637 54.022,-0.625Zm-60.959,15.764c-11.228,0.561 -22.463,0.572 -33.704,0.631c-4.131,0.022 -8.261,0.048 -12.392,0.077c-8.063,0.054 -16.125,0.103 -24.188,0.15c-49.177,0.289 -98.311,0.694 -147.447,2.914c-3.008,0.135 -6.017,0.265 -9.025,0.395c-17.545,0.742 -17.545,0.742 -35.077,1.735c-19.037,1.159 -38.118,1.513 -57.186,1.598c-2.481,0.011 -4.962,0.026 -7.442,0.041c-1.67,0.01 -3.34,0.02 -5.01,0.029c-0.83,0.005 -1.66,0.01 -2.515,0.015c-4.22,0.023 -8.44,0.038 -12.66,0.036c-38.116,-1.668 -38.116,-1.668 -71.479,12.5c-4.397,6.724 -4.449,13.835 -4.375,21.625c0.005,1.036 0.011,2.073 0.016,3.141c0.125,11.169 0.611,22.327 1.109,33.484c0.039,0.923 0.078,1.845 0.119,2.796c0.116,2.673 0.243,5.345 0.374,8.017c0.033,0.793 0.067,1.586 0.101,2.403c0.49,9.965 0.49,9.965 4.781,18.66c11.294,8.727 26.819,8.61 40.502,8.461c2.286,-0.023 4.57,-0.021 6.856,-0.014c9.626,-0.018 19.121,-0.658 28.703,-1.55c29.616,-2.734 59.49,-2.909 89.213,-3.278c2.432,-0.03 4.864,-0.062 7.296,-0.093c28.067,-0.359 56.134,-0.513 84.203,-0.602c3.209,-0.01 6.419,-0.021 9.628,-0.032c19.68,-0.067 39.36,-0.131 59.041,-0.169c51.243,-0.101 102.359,-0.748 153.552,-3.081c11.353,-0.515 22.705,-0.902 34.067,-1.177c1.131,-0.028 1.131,-0.028 2.285,-0.056c3.547,-0.087 7.094,-0.17 10.641,-0.25c7.624,-0.172 15.248,-0.37 22.871,-0.569c1.113,-0.029 1.113,-0.029 2.249,-0.058c27.879,-0.727 55.726,-2.12 83.574,-3.598c12.051,-0.639 24.098,-1.139 36.161,-1.467c5.494,-0.156 10.955,-0.404 16.434,-0.846c7.223,-0.526 14.408,-0.648 21.648,-0.671c2.699,-0.02 5.397,-0.041 8.095,-0.064c1.036,-0.008 1.036,-0.008 2.093,-0.017c30.099,-0.145 30.099,-0.145 60.077,-2.556c1.297,-0.153 2.594,-0.306 3.931,-0.464c7.746,-1.071 15.181,-2.538 21.069,-7.973c4.41,-7.762 3.875,-16.265 3.812,-24.938c-0.003,-0.66 -0.006,-1.321 -0.008,-2.001c0.838,-29.105 0.838,-29.105 -10.242,-54.811c-10.622,-8.528 -25.509,-7.311 -38.395,-7.379c-1.712,-0.016 -3.424,-0.033 -5.136,-0.051c-4.521,-0.046 -9.042,-0.08 -13.563,-0.112c-7.029,-0.051 -14.058,-0.12 -21.086,-0.186c-1.835,-0.017 -3.67,-0.033 -5.505,-0.049c-10.547,-0.091 -21.092,-0.222 -31.637,-0.467c-46.154,-1.052 -92.313,-0.907 -138.477,-0.883c-9.516,0.004 -19.031,0.001 -28.547,-0.004c-9.314,-0.005 -18.629,-0.005 -27.943,-0.003c-5.506,0.002 -11.013,0.002 -16.519,-0.002c-27.48,-0.086 -27.48,-0.086 -54.942,0.766Z" style="fill:#050605;fill-rule:nonzero;"/><path d="M979.496,432.699c0.874,-0.004 1.747,-0.009 2.647,-0.013c1.834,-0.006 3.669,-0.006 5.503,-0.002c2.78,0.003 5.559,-0.02 8.34,-0.046c12.619,-0.047 22.601,0.067 32.107,9.256c12.486,13.791 11.265,35.818 11.222,53.246c-0.003,2.687 0.021,5.374 0.046,8.061c0.046,12.337 -0.146,24.795 -8.361,34.799c-6.655,6.021 -12.869,7.193 -21.5,8.625c-0.674,0.112 -1.348,0.225 -2.043,0.341c-11.386,1.844 -22.618,2.533 -34.145,2.534c-0.731,0.004 -1.462,0.008 -2.216,0.013c-12.286,0.031 -25.775,-0.458 -35.097,-9.513c-4.57,-6.385 -6.094,-13.334 -7,-21c-0.089,-0.663 -0.178,-1.325 -0.269,-2.008c-1.636,-12.494 -1.984,-25.03 -2.083,-37.616c-0.015,-1.736 -0.036,-3.472 -0.064,-5.208c-0.16,-10.929 0.243,-19.46 6.167,-28.98c7.259,-7.057 15.287,-9.244 25.211,-9.844c2.505,-0.283 4.704,-0.737 7.135,-1.346c4.841,-1.089 9.452,-1.304 14.4,-1.298Zm-38.309,19.051c-3.465,6.565 -3.505,12.983 -3.438,20.25c0.006,1.051 0.012,2.102 0.018,3.185c0.136,11 0.978,21.89 2.232,32.815c0.161,1.419 0.161,1.419 0.325,2.866c0.325,2.757 0.68,5.508 1.05,8.259c0.102,0.823 0.203,1.647 0.308,2.495c0.708,4.831 1.671,7.874 5.317,11.38c1.838,1.164 1.838,1.164 3.812,1.75c0.625,0.222 1.25,0.443 1.895,0.672c15.857,3.998 32.943,1.837 48.855,-0.734c0.676,-0.107 1.351,-0.213 2.048,-0.323c9.587,-1.476 9.587,-1.476 18.39,-5.364c3.822,-6.853 4.155,-14.043 4.168,-21.742c0.003,-0.727 0.007,-1.453 0.01,-2.202c0.005,-1.535 0.007,-3.069 0.007,-4.604c0.002,-2.286 0.02,-4.572 0.039,-6.858c0.526,-22.897 0.526,-22.897 -7.412,-43.531c-6.487,-4.757 -12.683,-5.51 -20.473,-5.426c-0.908,-0 -1.815,-0.001 -2.75,-0.002c-1.914,0.002 -3.827,0.012 -5.741,0.029c-2.879,0.023 -5.757,0.021 -8.636,0.014c-21.35,-0.916 -21.35,-0.916 -40.025,7.072Z" style="fill:#050605;fill-rule:nonzero;"/><path d="M140.195,469.613c6.723,2.901 9.288,7.92 12.117,14.387c0.868,3.788 0.821,7.119 0.688,11l2.812,0.25c3.188,0.75 3.188,0.75 4.814,2.517c4.319,7.023 3.766,16.573 3.811,24.546l0.1,3.205c0.053,7.637 0.053,7.637 -2.713,11.6c-8.876,5.917 -20.485,5.177 -30.762,5.258l-3.555,0.042c-6.223,-0.034 -11.093,-0.209 -16.507,-3.417c-4.861,-7.292 -4.365,-16.895 -4.375,-25.375l-0.074,-3.23l-0.012,-3.105l-0.025,-2.791c0.633,-3.258 1.946,-4.434 4.486,-6.499c2.25,-0.75 2.25,-0.75 4,-1l0.043,-2.781c0.34,-8.741 1.201,-14.579 7.551,-20.773c5.513,-4.783 10.524,-5.809 17.602,-3.832Zm-2.195,8.387c-4.745,-0.583 -8.223,-0.61 -11.133,3.664l-0.992,1.961c-1.742,3.308 -1.742,3.308 -2.875,12.375l22,-1l0,-5c-1.642,-4.597 -3.369,-8.671 -7,-12Zm-23,26c0,6.721 -0.086,13.179 0.355,19.83l0.145,1.982c0.162,2.396 0.328,4.792 0.5,7.188c12.85,0.226 25.276,-0.132 38,-2c0.021,-2.93 0.037,-5.859 0.049,-8.789l0.014,-3.586l0.025,-3.562l0.01,-3.398c0.015,-2.977 0.233,-5.002 -1.098,-7.664l-38,0Z" style="fill:#090909;"/><path d="M215.312,671.625c2.688,0.375 2.688,0.375 4.652,2.379c2.456,3.616 3.848,7.205 5.285,11.309c0.268,0.741 0.536,1.481 0.812,2.244c0.654,1.811 1.297,3.627 1.938,5.443c0.41,-0.843 0.82,-1.686 1.242,-2.555c0.539,-1.096 1.078,-2.191 1.633,-3.32c0.801,-1.636 0.801,-1.636 1.617,-3.305c1.508,-2.82 1.508,-2.82 3.508,-4.82c3.188,-0.188 3.188,-0.188 7,1c2.686,2.77 4.867,5.791 7,9c0.619,-0.65 0.619,-0.65 1.25,-1.312c3.069,-2.959 5.424,-5.126 9.812,-5.312c5.471,0.868 8.42,3.185 12.375,6.938c2.521,2.006 2.521,2.006 5.938,1.625c4.46,-1.154 5.533,-2.559 8.188,-6.25c7,-9.089 7,-9.089 12.523,-10.051c7.525,-0.449 12.742,2.651 18.539,7.113c2.329,1.698 3.393,2.253 6.312,2.812c2.858,-0.525 4.335,-1.177 6.812,-2.562c4.768,-2.524 8.944,-2.95 14.25,-2c1.882,0.768 3.737,1.605 5.562,2.5c5.028,2.44 8.904,4.076 14.438,2.5c3.564,-1.882 6.832,-3.908 10.18,-6.152c6.544,-4.287 15.224,-3.426 22.82,-2.848c3,0.69 5.183,1.668 8,3c1.451,0.383 2.91,0.737 4.375,1.062c3.625,0.938 3.625,0.938 5.625,2.938c-0.556,4.556 -0.556,4.556 -2,6c-4.855,0.36 -8.597,-0.07 -13.25,-1.5c-7.463,-2.107 -14.045,-3.338 -21.223,0.223c-2.279,1.363 -4.428,2.819 -6.617,4.332c-5.499,3.676 -10.375,5.093 -16.91,3.945c-3.401,-1.401 -6.634,-2.972 -9.887,-4.688c-4.109,-1.732 -7.192,-2.052 -11.387,-0.438c-1.04,0.557 -1.04,0.557 -2.102,1.125c-4.241,1.968 -7.976,3.156 -12.625,2c-4.197,-2.023 -8.039,-4.523 -11.758,-7.324c-2.56,-1.91 -3.889,-2.684 -7.133,-2.605c-4.019,1.202 -5.156,2.887 -7.609,6.242c-7.016,8.974 -7.016,8.974 -12.961,10.191c-4.553,0.402 -7.448,0.212 -11.332,-2.336c-1.72,-1.45 -3.396,-2.955 -5.016,-4.516c-2.02,-1.887 -2.02,-1.887 -4.332,-1.559c-2.146,0.902 -2.146,0.902 -4.172,3.469c-2.688,2.438 -2.688,2.438 -6.062,3.25c-5.307,-1.189 -7.497,-4.553 -10.625,-8.812c-2.579,3.868 -4.068,7.976 -5.781,12.285c-1.219,2.715 -1.219,2.715 -3.219,4.715c-2.375,0.438 -2.375,0.438 -5,0c-6.884,-6.05 -8.575,-17.358 -10,-26l-2,0c-0.182,0.785 -0.364,1.57 -0.551,2.379c-1.391,5.815 -2.872,11.221 -5.449,16.621l-4,0c-0.747,-9.53 1.963,-19.506 8,-27c1,-1 1,-1 3.312,-1.375Z" style="fill:#0a0a0a;fill-rule:nonzero;"/><path d="M475.812,664.938c3.518,1.173 3.805,1.464 5.438,4.562c2.707,6.293 4.102,12.635 3.75,19.5l2,0c0.11,-0.592 0.219,-1.183 0.332,-1.793c0.92,-4.586 1.805,-8.389 4.668,-12.207c2.875,-1.437 4.819,-1.382 8,-1c3.047,2.962 4.631,6.006 6,10c0.577,-0.928 1.155,-1.856 1.75,-2.812c3.341,-4.733 3.341,-4.733 6.25,-6.188c3,0 3,0 6,1c0.557,0.866 1.114,1.732 1.688,2.625c2.065,2.673 2.065,2.673 4.934,2.445c1.978,-0.211 3.952,-0.468 5.918,-0.773c2.461,-0.297 2.461,-0.297 4.461,0.703c5.035,0.657 7.978,-0.333 12.562,-2.5c9.344,-4.079 17.83,-3.449 27.438,-0.5c11.081,3.301 23.691,3.303 35,1c1.478,-0.137 2.959,-0.243 4.441,-0.316c0.826,-0.042 1.651,-0.084 2.502,-0.128c0.864,-0.039 1.728,-0.078 2.619,-0.118c1.332,-0.062 1.332,-0.062 2.691,-0.124c18.966,-0.833 18.966,-0.833 22.746,1.687c-0.062,1.812 -0.062,1.812 -1,4c-16.859,9.529 -50.763,9.109 -68.918,5.105c-2.405,-0.694 -4.802,-1.42 -7.184,-2.191c-7.542,-2.378 -12.541,-1.296 -19.586,2.086c-1.035,0.557 -2.07,1.114 -3.137,1.688c-4.75,1.963 -8.549,1.887 -13.363,0.188c-3.436,-1.069 -3.769,-0.443 -6.812,1.125c-3.5,-0.062 -3.5,-0.062 -7,-1c-2.438,-2.562 -2.438,-2.562 -4,-5c-0.436,0.638 -0.871,1.276 -1.32,1.934c-4.846,6.723 -4.846,6.723 -8.867,8.379c-2.812,-0.312 -2.812,-0.312 -5,-1.938c-1.808,-2.369 -3.3,-4.81 -4.812,-7.375c-0.242,0.88 -0.485,1.761 -0.734,2.668c-0.503,1.742 -0.503,1.742 -1.016,3.52c-0.325,1.149 -0.65,2.297 -0.984,3.48c-1.298,3.417 -2.84,5.627 -5.266,8.332c-2.75,0 -2.75,0 -6,-1c-3.84,-5.139 -4.891,-11.297 -5.75,-17.5c-0.125,-0.822 -0.25,-1.645 -0.379,-2.492c-0.302,-2.001 -0.589,-4.004 -0.871,-6.008c-2.833,2.833 -3.458,6.25 -4.562,10c-2.34,7.806 -2.34,7.806 -3.438,10c-1.32,-0.33 -2.64,-0.66 -4,-1c-0.555,-6.221 0.426,-11.287 2.25,-17.188c0.205,-0.677 0.409,-1.354 0.62,-2.051c4.115,-12.695 4.115,-12.695 9.943,-12.824Z" style="fill:#090909;fill-rule:nonzero;"/><path d="M131,614c3.498,1.654 6.09,3.813 8.438,6.875c1.193,4.506 0.952,8.092 -0.688,12.438c-1.75,2.688 -1.75,2.688 -5.75,4.688l2,18c3.009,-1.316 6.008,-2.647 9,-4l2.273,-1.016c5.302,-2.428 5.302,-2.428 8.727,-6.984c1.083,-3.417 1.083,-3.417 1,-7l-1.938,-2.312c-2.702,-3.521 -2.689,-5.962 -2.527,-10.309c0.709,-3.63 2.56,-5.235 5.465,-7.379c3.11,-1.555 5.563,-1.286 9,-1c3.793,2.042 7.003,4.118 9,8c0.552,4.258 0.271,6.469 -1.688,10.312c-2.378,2.764 -3.846,3.725 -7.312,4.688l0.312,3c-0.025,6.155 -3.94,10.907 -8.125,15.125c-4.812,3.931 -10.94,5.591 -16.738,7.578c-3.456,1.029 -3.456,1.029 -5.449,3.297c-0.756,2.741 -0.756,2.741 0,6c1.573,1.988 1.573,1.988 3.5,3.938c2.664,2.836 3.439,3.739 4.188,7.688c-0.965,4.736 -2.928,7.803 -6.523,11.016c-3.827,2.404 -7.809,2.094 -12.164,1.359c-3.439,-1.705 -5.485,-4.087 -7.375,-7.438c-1.158,-4.75 -1.197,-7.479 1.125,-11.875c2.342,-2.798 2.881,-3.086 6.25,-3.688c-0.138,-5.198 -0.314,-10.393 -0.525,-15.588c-0.066,-1.767 -0.123,-3.534 -0.168,-5.302c-0.067,-2.544 -0.172,-5.083 -0.284,-7.625l-0.039,-2.39c-0.073,-2.535 -0.073,-2.535 -0.985,-6.094c-2.852,-2.483 -2.852,-2.483 -6,-4c-2.348,-2.989 -2.415,-6.219 -2.324,-9.969c0.534,-3.347 2.193,-5.474 4.324,-8.031c4.048,-2.699 7.244,-2.781 12,-2Zm-3,7.75c-3,0.25 -3,0.25 -5,2.25c0.375,3.125 0.375,3.125 1,6c3.375,0.625 3.375,0.625 7,1l2,-2c0.25,-2.5 0.25,-2.5 0,-5c-2,-2 -2,-2 -5,-2.25Zm-2,59.25c-0.625,3.375 -0.625,3.375 -1,7c2,2 2,2 4.438,2.812c2.562,0.188 2.562,0.188 4.375,-0.938c1.188,-1.875 1.188,-1.875 1.5,-4.438c-0.312,-2.438 -0.312,-2.438 -2.312,-4.438c-3.625,-0.125 -3.625,-0.125 -7,0Zm35,-58c-1.444,1.444 -1.444,1.444 -2,6c2.139,2.139 3.133,2.427 6,3l2,-3c-0.375,-2.688 -0.375,-2.688 -1,-5c-1.656,-0.382 -3.325,-0.714 -5,-1Z" style="fill:#080808;"/><path d="M220,69c4.36,2.221 7.133,4.436 9,9c0.736,5.068 0.736,5.068 0,8c-1.348,1.508 -1.348,1.508 -3,3c-3.21,3.202 -3.376,5.861 -3.422,10.197c0.069,3.276 0.21,6.533 0.422,9.803l2,-1c1.705,-0.181 3.414,-0.321 5.125,-0.438c4.834,-0.395 9.214,-1.243 13.875,-2.562c0.946,-2.75 0.946,-2.75 1,-6c-2.292,-2.792 -2.292,-2.792 -5,-5c-1.638,-3.277 -1.647,-6.472 -1,-10c1.883,-3.766 4.19,-6.342 8.191,-7.797c4.148,-0.702 6.342,-0.428 10.184,1.422c2.737,2.477 4.32,3.921 5.625,7.375c0.204,4.674 -0.386,8.049 -2.938,12c-2.062,2 -2.062,2 -4.062,3c-0.726,1.951 -0.726,1.951 -1.312,4.25c-1.751,5.515 -4.376,8.377 -9.371,11.344c-3.842,1.629 -6.907,1.875 -11.066,2.031c-4.793,0.006 -4.793,0.006 -9.25,1.375c1.131,2.544 2.219,4.239 4.125,6.312c2.457,3.522 2.394,5.463 1.875,9.688c-1.813,5.137 -4.13,7.565 -9,10c-4.338,0.62 -6.379,0.334 -10.25,-1.75c-3.173,-2.596 -5.438,-4.522 -6.184,-8.652c-0.007,-4.335 -0.002,-6.886 2.309,-10.66c2.125,-1.938 2.125,-1.938 4.125,-2.938c0.174,-4.416 0.281,-8.831 0.375,-13.25l0.152,-3.801c0.055,-3.415 0.049,-6.581 -0.527,-9.949c-2.702,-2.842 -2.702,-2.842 -6,-4c-2.373,-2.927 -2.96,-4.683 -3.438,-8.438c0.638,-5.199 2.702,-8.116 6.688,-11.438c3.648,-1.493 6.903,-1.804 10.75,-1.125Zm30.438,14.812c-3.378,0.26 -3.378,0.26 -3.625,4.125c0.188,3.062 0.188,3.062 2.188,5.062c2.625,-0.375 2.625,-0.375 5,-1c0.625,-2.875 0.625,-2.875 1,-6c-2,-2 -2,-2 -4.562,-2.188Zm-34.438,-7.062c-3,0.25 -3,0.25 -5,2.25c-0.312,3 -0.312,3 0,6l3,2c3.188,-0.375 3.188,-0.375 6,-1c0.625,-3.375 0.625,-3.375 1,-7c-2,-2 -2,-2 -5,-2.25Zm-1,50.25l-2,3c0.375,3.188 0.375,3.188 1,6c3.375,0.625 3.375,0.625 7,1l2,-2c-0.375,-3.625 -0.375,-3.625 -1,-7l-7,-1Z" style="fill:#090909;"/><path d="M124.688,304.125c4.129,3.348 7.04,5.965 7.812,11.375c-0.683,4.781 -1.954,8.094 -5.562,11.375c-1.938,1.125 -1.938,1.125 -3.938,1.125l1,11c4.597,1.839 7.474,2.354 12.312,2.625l3.801,0.227l2.887,0.148l0.75,-2.312c1.399,-3.008 2.382,-4.076 5.25,-5.688c4.268,-0.922 8.349,-0.971 12.172,1.277c3.101,2.62 5.575,4.714 6.102,8.895c0.308,7.819 0.308,7.819 -2.523,11.328c-4.176,3.797 -6.817,5.07 -12.648,4.961c-3.889,-0.853 -6.508,-3.559 -9.102,-6.461l-1,-2c-2.912,-0.394 -2.912,-0.394 -6.312,-0.5c-4.093,-0.183 -7.155,-0.337 -10.688,-2.5c-0.502,3.289 -0.502,3.289 0,7c1.799,2.086 3.731,3.379 6,5c1.44,2.879 1.303,4.79 1,8c-1.315,3.278 -2.801,6.245 -5.867,8.176c-3.707,1.432 -7.234,1.505 -11.133,0.824c-3.071,-1.714 -5.405,-3.809 -7,-7c-0.35,-5.342 -0.456,-8.648 3,-13l3,-2c0.511,-2.906 0.511,-2.906 0.512,-6.32l0.107,-3.809l0.068,-3.996c0.033,-1.34 0.068,-2.68 0.104,-4.02c0.083,-3.285 0.152,-6.57 0.209,-9.855l-2.359,-0.902c-3.185,-1.324 -4.619,-2.281 -6.641,-5.098c-1.388,-4.591 -1.628,-8.561 0.625,-12.875c4.8,-6.316 10.683,-8.089 18.062,-5Zm33.312,37.875c-3.082,-0.853 -5.028,-1.502 -7.938,0c-1.388,2.613 -1.388,2.613 -0.062,9c3.31,0.827 5.233,1.363 8.375,-0.125c1.625,-1.875 1.625,-1.875 2,-4.438c-0.375,-2.438 -0.375,-2.438 -2.375,-4.438Zm-38.562,19.812c-4.308,0.235 -4.356,-0.085 -4.625,4.125c0.188,3.062 0.188,3.062 2.188,5.062c2.5,0.25 2.5,0.25 5,0c2.377,-2.377 2.67,-3.703 3,-7c-2,-2 -2,-2 -5.562,-2.188Zm2.562,-50.812c-3.355,-0.793 -5.817,-1.649 -8.938,0.062c-1.516,2.764 -1.392,4.84 -1.062,7.938c2,2 2,2 3.875,2.266l2.125,-0.016c2.125,0.016 2.125,0.016 4,-0.25c2,-2 2,-2 2.25,-5c-0.25,-3 -0.25,-3 -2.25,-5Z" style="fill:#0b0c0b;"/><path d="M325,73c3.239,1.735 5.423,3.423 8,6c0.125,3.125 0.125,3.125 0,6c-0.785,-0.119 -1.57,-0.237 -2.379,-0.359c-7.981,-1.069 -7.981,-1.069 -15.102,2.008c-6.378,5.673 -10.635,12.171 -11.867,20.781c-0.192,4.968 0.801,8.221 3.348,12.57l0,2c4.153,2.014 7.404,2.475 12,2c4.422,-1.799 7.821,-4.439 11,-8c1.32,0.66 2.64,1.32 4,2c0.33,-1.65 0.66,-3.3 1,-5c-0.892,0.035 -1.784,0.07 -2.703,0.105c-1.17,0.027 -2.341,0.054 -3.547,0.082c-1.74,0.052 -1.74,0.052 -3.516,0.105c-3.476,-0.315 -4.836,-0.801 -7.234,-3.293c-0.25,-2.688 -0.25,-2.688 0,-5c7.553,-3.341 13.634,-4.708 22,-4c3.74,1.603 4.732,2.597 7,6c0.715,3.627 0.821,7.313 1,11c0.034,0.697 0.068,1.394 0.103,2.112c0.097,2.275 0.158,4.549 0.209,6.826c0.03,0.734 0.06,1.467 0.09,2.223c0.037,3.451 -0.18,5.504 -2.11,8.406c-2.293,1.434 -2.293,1.434 -4.898,1.5c-2.395,-1.066 -2.395,-1.066 -3.758,-3.352c-0.313,-0.917 -0.626,-1.833 -0.949,-2.777c-0.326,-0.919 -0.652,-1.838 -0.988,-2.785c-0.346,-1.065 -0.346,-1.065 -0.699,-2.152c-0.87,0.831 -0.87,0.831 -1.758,1.68c-6.708,6.22 -11.475,8.845 -20.715,8.637c-6.519,-0.816 -11.363,-4.365 -15.527,-9.316c-6.249,-9.028 -6.917,-17.224 -6,-28c2.477,-11.565 11.257,-20.504 20.812,-26.875c4.466,-1.576 8.504,-1.832 13.188,-1.125Z" style="fill:#070707;fill-rule:nonzero;"/><path d="M304.578,802.395c9.053,1.602 17.496,5.534 23.215,12.922c4.789,7.087 6.405,12.178 4.816,20.805c-2.163,6.892 -7.087,12.611 -13.109,16.488c-7.035,3.646 -13.503,5.717 -21.5,5.391l-0.621,-1.898l-0.816,-2.477l-0.809,-2.461c-0.706,-2.174 -0.706,-2.174 -1.754,-4.164c-1.703,-10.534 -2.201,-21.407 -2.312,-32.062l-0.053,-2.539c0.003,-3.392 0.114,-5.836 1.506,-8.958c3.481,-2.698 7.286,-1.513 11.438,-1.047Zm-1.578,10.605c-0.049,3.082 0.008,6.088 0.275,9.16l0.381,3.333l0.41,3.633l0.434,3.75c0.497,4.375 0.995,8.751 1.5,13.125l1,0c5.63,-3.466 11.216,-6.798 14,-13c0.736,-3.964 0.542,-7.051 -1.5,-10.625c-4.966,-4.718 -9.344,-9.017 -16.5,-9.375Z" style="fill:#080808;"/><path d="M259.562,803.625c6.423,0.105 10.995,0.992 16.438,4.375l2.148,1.32c5.884,4.003 9.6,8.924 11.852,15.68c1.269,8.468 -1.299,14.996 -6,22c-5.722,6.458 -11.679,10.248 -20.125,12c-3.875,0 -3.875,0 -6.75,-2.062c-4.453,-6.156 -4.687,-12.833 -5.25,-20.188l-0.253,-3.198c-0.492,-6.642 -0.827,-13.267 -0.872,-19.927l-0.028,-2.267c0.042,-7.099 2.097,-7.661 8.84,-7.733Zm1.438,9.375c0.479,11.192 1.994,21.987 4,33c2.793,0 2.793,0 9,-6c3.965,-4.474 4.443,-7.874 4.434,-13.633c-0.672,-3.669 -2.563,-5.574 -5.266,-8.035l-1.98,-1.52c-3.315,-2.614 -6.004,-3.317 -10.188,-3.812Z" style="fill:#080808;"/><path d="M271.168,311.637c6.739,2.881 11.913,8.699 14.832,15.363c1.511,9.488 1.192,19.774 -4.246,27.887c-3.54,4.265 -5.999,6.627 -11.586,7.613c-6.402,0.387 -10.698,-0.444 -15.551,-4.723c-6.86,-7.539 -8.096,-16.145 -7.922,-26.012c0.593,-7.323 2.757,-12.634 7.93,-17.891c5.249,-4.127 10.302,-4.071 16.543,-2.238Zm-9.168,9.363c-3.285,4.127 -4.465,6.791 -4.4,12.068l0.088,2.119c0.089,6.532 0.493,10.993 5.312,15.812c3.125,0.438 3.125,0.438 6,0c2.355,-2.355 3.717,-4.595 5.164,-7.582c1.988,-5.751 1.689,-11.341 -0.602,-16.918c-3.445,-3.361 -6.954,-4.377 -11.562,-5.5Z" style="fill:#060605;"/><path d="M114,824c6.788,0.201 9.756,2.861 14.438,7.562l1.928,1.865c1.558,1.511 3.098,3.04 4.635,4.572l5,-2l0.312,-3.312c0.688,-3.688 0.688,-3.688 1.812,-5.625c3.06,-1.734 5.443,-1.484 8.875,-1.062c2.438,1.625 2.438,1.625 4,4c0.5,3 0.5,3 0,6c-1.986,2.648 -3.48,3.797 -6.562,5c-2.845,1.167 -3.816,2.44 -5.438,5l1.789,0.793c2.328,1.271 3.771,2.598 5.586,4.52c2.237,2.343 4.427,4.312 7.062,6.188c2.562,2.5 2.562,2.5 3.438,6c-0.877,3.508 -1.089,4.283 -3.75,6.438c-7.5,4.031 -18.286,3.481 -26.27,1.141c-2.486,-1.176 -4.625,-2.473 -6.855,-4.078l-1.941,-1.246c-6.436,-4.685 -9.6,-12.379 -12.059,-19.754c-0.503,-8.002 -0.557,-15.165 4,-22Zm4,11c-0.129,7.852 1.082,14.74 6.609,20.75c7.524,6.658 13.485,7.683 23.391,7.25l0,-2l-2,-1.688c-6.386,-4.922 -12.11,-10.378 -17.75,-16.125c-3.159,-3.276 -5.901,-6.53 -10.25,-8.188Z" style="fill:#080808;"/><path d="M231.438,477.5c2.562,0.5 2.562,0.5 4.594,2.418c2.657,4.16 3.25,8.072 4.031,12.895c0.329,1.887 0.659,3.773 0.988,5.66c0.158,0.933 0.316,1.867 0.479,2.829c0.427,2.449 0.893,4.884 1.388,7.32c3.608,17.772 3.608,17.772 0.582,22.941c-0.495,0.474 -0.99,0.949 -1.5,1.438c-2.312,-0.188 -2.312,-0.188 -5,-1c-2.927,-3.926 -4.028,-8.181 -5.125,-12.875c-0.253,-1.023 -0.253,-1.023 -0.512,-2.066c-0.808,-3.34 -1.438,-6.593 -1.918,-10.004c-0.116,-2.924 -0.116,-2.924 -1.445,-4.055c-0.472,0.814 -0.472,0.814 -0.953,1.645c-4.681,7.826 -4.681,7.826 -8.047,9.355c-2.812,0.188 -2.812,0.188 -6,-1c-3.135,-2.942 -6.068,-6.136 -8,-10c-0.045,0.827 -0.09,1.655 -0.136,2.507c-0.211,3.749 -0.444,7.496 -0.677,11.243c-0.07,1.302 -0.141,2.604 -0.213,3.945c-0.081,1.25 -0.161,2.501 -0.244,3.789c-0.068,1.152 -0.136,2.304 -0.206,3.491c-0.553,3.192 -1.365,4.66 -3.524,7.024c-4.875,-0.875 -4.875,-0.875 -6,-2c-0.989,-6.885 -1.193,-13.677 -1.188,-20.625c0.001,-1.05 0.002,-2.1 0.002,-3.182c0.166,-21.164 0.166,-21.164 4.185,-27.193c2.871,-0.438 2.871,-0.438 6,0c2.16,1.688 2.16,1.688 4.062,4c0.672,0.813 1.343,1.627 2.035,2.465c2.549,3.397 4.767,6.864 6.902,10.535c1.91,-1.91 2.699,-3.198 3.84,-5.59c0.341,-0.702 0.682,-1.404 1.033,-2.127c0.707,-1.476 1.413,-2.952 2.117,-4.43c0.342,-0.703 0.684,-1.406 1.037,-2.131c0.307,-0.642 0.613,-1.284 0.929,-1.945c1.727,-2.943 3.091,-4.582 6.481,-5.278Z" style="fill:#090909;fill-rule:nonzero;"/><path d="M236.438,308c2.562,1 2.562,1 4.2,3.895c1.917,4.845 1.775,9.635 1.726,14.781c0.001,1.51 0.001,1.51 0.002,3.05c-0.002,2.115 -0.012,4.231 -0.029,6.346c-0.024,3.248 -0.021,6.495 -0.014,9.743c-0.006,2.058 -0.013,4.116 -0.021,6.174c0.001,1.461 0.001,1.461 0.003,2.951c-0.01,0.898 -0.019,1.796 -0.029,2.722c-0.005,0.792 -0.009,1.583 -0.014,2.399c-0.261,1.94 -0.261,1.94 -2.261,3.94c-3.125,0.688 -3.125,0.688 -7,0c-9.125,-7.349 -16.351,-19.816 -22,-30c-0.015,0.827 -0.029,1.655 -0.044,2.507c-0.074,3.748 -0.171,7.495 -0.268,11.243c-0.034,1.953 -0.034,1.953 -0.068,3.945c-0.035,1.25 -0.071,2.501 -0.107,3.789c-0.026,1.152 -0.052,2.304 -0.079,3.491c-0.464,3.243 -1.24,4.646 -3.432,7.024c-2.572,-0.355 -3.797,-0.804 -5.688,-2.625c-2.721,-4.924 -2.44,-10.795 -2.445,-16.305c-0.001,-1.29 -0.003,-2.581 -0.004,-3.91c0.002,-0.664 0.004,-1.327 0.006,-2.011c0.005,-2.012 0,-4.024 -0.006,-6.036c0.019,-18.996 0.019,-18.996 3.137,-22.113c3.223,-0.578 3.223,-0.578 7,0c2.606,2.064 4.468,4.588 6.438,7.25c0.558,0.721 1.117,1.441 1.692,2.184c4.59,5.992 8.827,12.193 12.87,18.566c-0.01,-0.827 -0.021,-1.655 -0.032,-2.507c-0.042,-3.748 -0.068,-7.495 -0.093,-11.243c-0.017,-1.302 -0.034,-2.604 -0.051,-3.945c-0.006,-1.25 -0.013,-2.501 -0.02,-3.789c-0.01,-1.152 -0.021,-2.304 -0.032,-3.491c0.221,-2.949 0.591,-4.591 2.227,-7.024c2,-1 2,-1 4.438,-1Z" style="fill:#080808;fill-rule:nonzero;"/><path d="M229,191c6.848,2.394 11.948,8.269 15.375,14.5c1.984,7.934 -0.327,14.828 -4.188,21.75c-3.662,4.604 -8.241,9.188 -14.301,10.051c-7.511,0.04 -13.401,-1.964 -18.887,-7.301c-3.548,-5.25 -4.691,-9.013 -4.562,-15.312l0.027,-2.255c0.287,-7.778 2.538,-13.574 8.223,-18.995c5.722,-3.557 11.718,-3.068 18.312,-2.438Zm-12,10c-2.401,4.03 -4.286,7.541 -4.312,12.312c0.434,5.125 1.561,8.128 5.312,11.688c3.47,0.625 6.793,0.604 10,-1c2.584,-3.21 4.247,-6.014 4.938,-10.062c0.068,-4.293 -0.172,-5.726 -2.938,-8.938c-4.399,-3.699 -7.294,-4.456 -13,-4Z" style="fill:#060606;"/><path d="M386.5,798.625c4.07,3.866 6.268,6.58 7,12.25c-0.413,7.471 -4.839,12.668 -9.5,18.125l2.922,1.793l3.828,2.395l1.922,1.174c3.856,2.43 6.843,4.713 9.328,8.639c0.489,2.8 0.195,5.13 0,8c-11.048,-1.679 -19.829,-8.029 -29,-14l1,3c0.12,2.331 0.175,4.666 0.188,7l0.043,3.75c-0.23,3.25 -0.23,3.25 -2.23,6.25c-3.2,-0.267 -4.711,-0.735 -7.104,-2.927c-2.649,-4.294 -2.719,-8.081 -2.978,-13.045l-0.192,-2.909c-0.13,-2.024 -0.251,-4.049 -0.365,-6.074c-0.174,-3.1 -0.374,-6.198 -0.578,-9.296c-0.123,-1.969 -0.245,-3.939 -0.365,-5.908l-0.176,-2.806l-0.143,-2.62l-0.132,-2.296c0.048,-3.035 0.68,-5.412 2.033,-8.118c7.358,-4.789 16.466,-6.105 24.5,-2.375Zm-15.5,8.375l1,15c4,-1 4,-1 5.668,-2.488l1.52,-1.824c1.605,-1.873 2.715,-3.457 3.676,-5.73c0.137,-1.957 0.137,-1.957 -1.008,-3.695c-1.855,-1.262 -1.855,-1.262 -4.117,-1.555l-6.738,0.293Z" style="fill:#070707;"/><path d="M225.5,800.812c5.239,1.777 8.048,5.055 10.598,9.859c0.666,1.354 1.321,2.714 1.965,4.078l1.041,2.147c0.978,2.028 1.941,4.063 2.896,6.103l1.367,2.906c3.752,8.217 4.776,15.954 4.695,25.031l-0.014,2.072c-0.012,1.663 -0.03,3.327 -0.049,4.99l-6,1c-4.062,-5.602 -7,-10.961 -7,-18l-16,2l-1.312,5c-1.304,4.799 -2.857,9.379 -4.688,14c-2.375,0.125 -2.375,0.125 -5,0c-2.567,-2.567 -2.305,-3.576 -2.328,-7.148c0.121,-7.011 1.487,-13.658 3.099,-20.452c0.479,-2.026 0.936,-4.055 1.389,-6.087c6.157,-27.008 6.157,-27.008 15.34,-27.5Zm-0.5,15.188c-1.791,5.394 -3.455,10.237 -3,16l10,0c0,-2.227 0,-2.227 -1.777,-7.152l-0.723,-1.973c-0.83,-2.293 -1.663,-4.585 -2.5,-6.875l-2,0Z" style="fill:#060606;"/><path d="M472,798c6.335,0.352 6.335,0.352 8.57,2.531c1.991,3.438 2.924,6.955 3.93,10.781c0.214,0.795 0.427,1.589 0.647,2.408c6.742,25.556 6.742,25.556 3.853,32.78c-0.33,0.495 -0.66,0.99 -1,1.5c-3.166,-0.264 -4.674,-0.689 -7,-2.906c-2.745,-4.245 -3.65,-8.513 -4.75,-13.406c-0.22,-0.931 -0.441,-1.863 -0.668,-2.822c-0.539,-2.286 -1.066,-4.574 -1.582,-6.865c-0.338,0.71 -0.675,1.421 -1.023,2.152c-0.669,1.379 -0.669,1.379 -1.352,2.785c-0.441,0.917 -0.882,1.833 -1.336,2.777c-1.289,2.285 -1.289,2.285 -3.289,3.285c-3.917,0.37 -6.248,0.437 -9.688,-1.562c-2.785,-2.936 -4.353,-5.901 -6.312,-9.438c-0.025,0.671 -0.05,1.341 -0.076,2.032c-0.116,3.052 -0.239,6.104 -0.362,9.156c-0.059,1.583 -0.059,1.583 -0.119,3.197c-0.042,1.022 -0.084,2.043 -0.127,3.096c-0.055,1.406 -0.055,1.406 -0.111,2.841c-0.202,2.63 -0.632,5.107 -1.205,7.679c-2.97,0.495 -2.97,0.495 -6,1c-3.828,-4.795 -3.384,-9.414 -3.25,-15.25c0.013,-0.971 0.026,-1.941 0.04,-2.941c0.049,-2.937 0.126,-5.872 0.21,-8.809c0.021,-0.861 0.042,-1.721 0.063,-2.608c0.063,-2.32 0.149,-4.636 0.25,-6.955c0.022,-0.683 0.044,-1.366 0.067,-2.069c0.236,-4.217 1.163,-6.936 3.62,-10.368c4.94,0.46 7.522,1.435 11,5c6,8.822 6,8.822 6,12l2,0c0.309,-1.887 0.309,-1.887 0.625,-3.812c1.273,-5.846 4.072,-12.885 8.375,-17.188Z" style="fill:#070707;fill-rule:nonzero;"/><path d="M512,800c6.632,1.886 11.153,6.417 15,12c3.331,6.662 3.189,14.859 1.16,21.926c-2.7,5.99 -6.456,9.84 -12.16,13.074c-4.055,1.352 -7.777,1.854 -11.871,0.281c-7.037,-3.753 -9.862,-9.053 -12.367,-16.449c-2.391,-8.889 -0.281,-17.363 4.176,-25.27c4.74,-5.889 8.761,-6.521 16.062,-5.562Zm-7,10c-2.747,4.12 -3.226,7.218 -3.25,12.188c0.089,5.908 0.966,9.529 5.25,13.812c3.125,0.438 3.125,0.438 6,0c2.998,-2.998 4.808,-6.032 5.227,-10.324c0.057,-5.862 -0.822,-8.69 -4.684,-13.344c-2.423,-2.092 -2.423,-2.092 -8.543,-2.332Z" style="fill:#070707;"/><path d="M937.875,588.75c3.125,0.25 3.125,0.25 4.875,1.25c4.159,6.654 3.811,15.419 4.25,23c0.326,-0.615 0.652,-1.23 0.988,-1.863c0.437,-0.808 0.874,-1.616 1.324,-2.449c0.429,-0.801 0.859,-1.601 1.301,-2.426c1.309,-2.136 2.452,-3.681 4.387,-5.262c2.938,-0.5 2.938,-0.5 6,0c3.603,3.311 4.553,6.192 5,11c0.784,-0.784 1.567,-1.567 2.375,-2.375c4.625,-4.625 4.625,-4.625 8,-5c3.625,0.375 3.625,0.375 6,2.25c1.625,2.125 1.625,2.125 2.625,4.125c0.976,-0.023 1.952,-0.046 2.957,-0.07c1.272,-0.018 2.545,-0.036 3.855,-0.055c1.265,-0.023 2.529,-0.046 3.832,-0.07c3.355,0.195 3.355,0.195 6.355,2.195l0,3c-1.247,0.651 -2.498,1.296 -3.75,1.938c-0.696,0.36 -1.392,0.719 -2.109,1.09c-4.472,2.032 -9.266,2.85 -14.141,1.973c-2.39,-1.442 -4.004,-3.004 -6,-5c-0.636,0.975 -0.636,0.975 -1.285,1.969c-4.81,6.85 -4.81,6.85 -9.465,7.781c-4.538,-1.047 -4.538,-1.047 -6.25,-3.75c-1.188,-3.188 -1.188,-3.188 -2,-6c-2.173,2.776 -3.953,5.585 -5.625,8.688c-2.275,4.213 -2.275,4.213 -3.375,5.312c-2.875,0.312 -2.875,0.312 -6,0c-4.935,-5.268 -4.961,-12.964 -5.555,-19.84c-0.085,-0.972 -0.17,-1.944 -0.257,-2.945c-0.062,-0.731 -0.124,-1.462 -0.188,-2.215c-1.384,3.322 -2.726,6.659 -4.062,10c-0.39,0.935 -0.78,1.869 -1.182,2.832c-2.393,6.057 -2.908,9.79 -1.756,16.168c-0.66,0.66 -1.32,1.32 -2,2c-3.442,-0.353 -5.069,-1.046 -8,-3c1.295,-9.126 7.304,-43.244 18.875,-44.25Z" style="fill:#090909;fill-rule:nonzero;"/><path d="M342,474c3.124,0.253 4.572,0.499 6.643,2.925c1.933,4.381 1.786,8.344 1.755,13.083c0.003,0.962 0.006,1.925 0.009,2.916c0.002,2.029 -0.003,4.058 -0.016,6.087c-0.016,3.11 -0,6.219 0.019,9.329c-0.002,1.973 -0.006,3.945 -0.012,5.918c0.009,1.397 0.009,1.397 0.018,2.822c-0.009,0.865 -0.019,1.729 -0.029,2.62c-0.002,0.76 -0.005,1.52 -0.007,2.303c-0.489,2.566 -1.283,3.471 -3.381,4.998c-3.938,-0.059 -6.272,-0.474 -9.484,-2.793c-6.664,-7.043 -12.661,-14.483 -18.516,-22.207c-0.02,0.651 -0.04,1.301 -0.06,1.972c-0.095,2.947 -0.205,5.894 -0.315,8.841c-0.046,1.536 -0.046,1.536 -0.094,3.104c-0.058,1.474 -0.058,1.474 -0.117,2.979c-0.031,0.906 -0.063,1.812 -0.095,2.745c-0.319,2.36 -0.319,2.36 -2.319,5.36c-2.5,0.375 -2.5,0.375 -5,0c-5.357,-8.036 -4.204,-20.284 -4.25,-29.625c-0.009,-1.055 -0.018,-2.111 -0.028,-3.198c0.004,-0.999 0.008,-1.999 0.012,-3.029c0.002,-0.895 0.005,-1.791 0.007,-2.713c0.273,-2.573 0.959,-4.217 2.259,-6.435c2.94,-0.514 5.111,-0.532 7.723,1.031c6.817,5.673 12.394,12.833 18.097,19.589c1.119,1.345 1.119,1.345 2.18,2.379c0.009,-0.761 0.019,-1.523 0.028,-2.307c0.054,-3.461 0.137,-6.92 0.222,-10.38c0.014,-1.198 0.028,-2.396 0.043,-3.631c0.032,-1.157 0.064,-2.314 0.098,-3.506c0.021,-1.063 0.042,-2.126 0.063,-3.221c0.663,-3.586 2.094,-5.313 4.546,-7.954Z" style="fill:#090909;fill-rule:nonzero;"/><path d="M768.562,306.625c6.255,2.363 9.737,5.763 12.566,11.773c2.384,7.119 1.281,14.545 -1.715,21.301c-2.728,4.439 -6.754,7.971 -11.414,10.301c-4.899,0.537 -8.845,0.567 -13.312,-1.625c-5.341,-4.72 -9.305,-9.26 -9.988,-16.609c-0.035,-10.365 0.798,-17.648 7.898,-25.453c4.46,-4.175 10.792,-1.33 15.965,0.312Zm-10.562,7.375c-3.777,5.665 -3.499,11.351 -3,18c1.159,3.478 2.054,4.829 5,7c3.5,0.25 3.5,0.25 7,-1c2.028,-2.448 3.099,-4.967 4,-8c0.422,-4.221 0.536,-7.499 -2,-11c-3.514,-3.417 -6.132,-4.547 -11,-5Z" style="fill:#070707;"/><path d="M816.812,300.625c3.188,0.375 3.188,0.375 5.223,2.359c2.449,3.759 3.492,7.324 4.59,11.641c0.212,0.803 0.423,1.605 0.641,2.432c2.449,9.449 4.914,19.103 3.734,28.943c-2,2 -2,2 -4.438,2.375c-2.562,-0.375 -2.562,-0.375 -4.25,-2.062c-2.946,-5.19 -3.981,-10.305 -4.938,-16.125c-0.201,-1.182 -0.201,-1.182 -0.406,-2.389c-0.328,-1.932 -0.649,-3.865 -0.969,-5.799c-0.381,0.94 -0.381,0.94 -0.77,1.898c-0.344,0.817 -0.688,1.635 -1.043,2.477c-0.336,0.812 -0.673,1.624 -1.02,2.461c-1.168,2.164 -1.168,2.164 -4.168,4.164c-2.875,0.438 -2.875,0.438 -6,0c-3.102,-2.55 -4.726,-4.177 -6,-8l-2,0c0.023,1.074 0.046,2.148 0.07,3.254c0.019,1.436 0.037,2.872 0.055,4.309c0.017,0.704 0.034,1.409 0.051,2.135c0.044,4.823 -0.534,8.752 -2.176,13.303c-0.66,0.66 -1.32,1.32 -2,2c-2,-0.188 -2,-0.188 -4,-1c-2.124,-3.185 -2.249,-3.966 -2.23,-7.613c0.001,-0.912 0.002,-1.824 0.003,-2.764c0.013,-0.969 0.026,-1.937 0.04,-2.936c0.009,-0.988 0.017,-1.976 0.026,-2.994c0.263,-21.671 0.263,-21.671 4.161,-28.693c2.062,-0.438 2.062,-0.438 5,0c5.072,3.804 7.998,8.528 11,14c0.566,-1.143 1.132,-2.287 1.715,-3.465c0.741,-1.491 1.482,-2.982 2.223,-4.473c0.373,-0.755 0.746,-1.509 1.131,-2.287c0.358,-0.719 0.715,-1.437 1.084,-2.178c0.33,-0.665 0.66,-1.33 1,-2.015c1.391,-2.596 1.528,-2.54 4.66,-2.957Z" style="fill:#070707;fill-rule:nonzero;"/><path d="M866.312,300.5c3.165,0.589 4.579,1.662 6.496,4.234c4.149,7.889 5.356,17.623 6.941,26.328c0.128,0.702 0.256,1.403 0.387,2.126c1.781,10.434 1.781,10.434 -1.137,14.811c-2.938,0.438 -2.938,0.438 -6,0c-2.779,-2.922 -3.667,-5.744 -4.562,-9.625c-0.245,-1.049 -0.49,-2.099 -0.742,-3.18c-0.955,-4.388 -1.865,-8.782 -2.695,-13.195c-0.254,0.554 -0.508,1.109 -0.77,1.68c-0.344,0.724 -0.688,1.449 -1.043,2.195c-0.336,0.719 -0.673,1.439 -1.02,2.18c-1.168,1.945 -1.168,1.945 -4.168,3.945c-2.75,0.625 -2.75,0.625 -6,0c-2.646,-2.433 -4.838,-5.135 -7,-8c-0.049,1.146 -0.098,2.292 -0.148,3.473c-0.075,1.53 -0.151,3.06 -0.227,4.59c-0.046,1.128 -0.046,1.128 -0.094,2.279c-0.252,4.848 -1.023,9.041 -2.531,13.658c-2,0.043 -4,0.041 -6,0c-2.06,-2.06 -1.188,-6.399 -1.203,-9.234c-0.006,-0.83 -0.011,-1.66 -0.017,-2.516c-0.009,-1.762 -0.016,-3.524 -0.02,-5.286c-0.01,-2.689 -0.041,-5.377 -0.072,-8.065c-0.007,-1.711 -0.012,-3.422 -0.016,-5.133c-0.012,-0.802 -0.025,-1.605 -0.037,-2.431c0.018,-4.574 0.333,-7.656 3.366,-11.335c2.75,-0.812 2.75,-0.812 6,0c2.677,2.41 4.817,5.145 7,8c1.332,1.668 2.665,3.335 4,5c0.482,-0.987 0.964,-1.975 1.461,-2.992c0.638,-1.294 1.276,-2.589 1.914,-3.883c0.317,-0.651 0.634,-1.302 0.961,-1.973c3.405,-6.88 3.405,-6.88 6.977,-7.652Z" style="fill:#060606;fill-rule:nonzero;"/><path d="M669,307c6.817,2.221 11.311,5.354 15.602,11.172c1.764,3.567 1.934,6.741 1.898,10.641l-0.015,2.157c-0.233,7.016 -2.195,10.773 -7.047,15.577c-4.53,4.032 -8.302,4.816 -14.16,4.73c-4.949,-0.603 -7.719,-3.694 -11.027,-7.152c-4.71,-6.542 -5.203,-13.246 -4.25,-21.125c2.8,-8.926 8.693,-17.777 19,-16Zm-6,10c-2.791,5.466 -3.618,9.871 -3,16c1.159,3.478 2.054,4.829 5,7c3.562,0.125 3.562,0.125 7,-1c2.082,-2.686 2.817,-4.848 3.348,-8.188c0.266,-4.036 0.01,-6.989 -2.41,-10.312c-3.418,-2.909 -5.511,-3.326 -9.938,-3.5Z" style="fill:#070707;"/><path d="M464,306c3.257,0.418 4.634,0.634 7,3c1.654,5.414 2.308,10.412 2.301,16.078c0.004,0.734 0.009,1.468 0.013,2.224c0.006,1.536 0.006,3.072 0.002,4.608c-0.003,2.348 0.02,4.695 0.046,7.043c0.002,1.5 0.003,3 0.002,4.5c0.009,0.698 0.018,1.396 0.028,2.115c-0.039,4.098 -0.51,6.451 -3.391,9.432c-4.754,-0.083 -7.86,-0.348 -11.375,-3.688c-5.098,-5.63 -9.321,-12.069 -13.625,-18.312c-0.049,1.241 -0.098,2.483 -0.148,3.762c-0.075,1.642 -0.151,3.284 -0.227,4.926c-0.046,1.225 -0.046,1.225 -0.094,2.475c-0.211,4.339 -0.549,7.881 -2.531,11.838c-2.375,0.188 -2.375,0.188 -5,0c-5.652,-8.478 -4.068,-23.142 -4.25,-33.25c-0.026,-1.201 -0.052,-2.403 -0.078,-3.641c0.354,-3.352 1.05,-4.688 3.328,-7.109c4.457,0.182 6.494,0.539 9.844,3.59c0.905,1.1 1.79,2.217 2.656,3.348c0.467,0.58 0.934,1.161 1.415,1.759c3.928,4.936 7.579,10.061 11.085,15.304c-0.01,-0.665 -0.021,-1.331 -0.032,-2.016c-0.042,-3.036 -0.068,-6.072 -0.093,-9.109c-0.025,-1.57 -0.025,-1.57 -0.051,-3.172c-0.033,-5.273 -0.051,-9.805 2.176,-14.703c0.33,-0.33 0.66,-0.66 1,-1Z" style="fill:#090909;fill-rule:nonzero;"/><path d="M411,306c4.757,3.416 7.099,6.362 9.625,11.75l0.887,1.858c1.988,4.194 3.883,8.433 5.663,12.72c0.813,1.875 0.813,1.875 2.824,3.672c0.447,3.104 0.324,6.242 0.312,9.375l0.049,2.617c0.005,6.381 0.005,6.381 -1.881,9.609l-1.48,1.398c-2.838,-0.294 -3.8,-0.754 -5.625,-3c-1.809,-3.947 -2.548,-7.738 -3.375,-12l-15,0l-1,7c-0.472,1.661 -0.987,3.31 -1.562,4.938l-0.816,2.34l-0.621,1.723c-1.666,0.043 -3.334,0.041 -5,0c-2.214,-2.214 -1.31,-7.539 -1.319,-10.591c0.211,-13.266 2.842,-28.679 9.319,-40.409c3.041,-2.739 4.884,-3.784 9,-3Zm-3,15c-0.579,2.123 -1.024,4.176 -1.316,6.359l-0.246,2.391c-0.148,1.416 -0.295,2.833 -0.438,4.25l8,0c0,-4 0,-4 -0.875,-6.359l-1.125,-2.391c-0.66,-1.42 -1.324,-2.838 -2,-4.25l-2,0Z" style="fill:#080808;"/><path d="M591.125,791.812c1.199,-0.014 2.398,-0.028 3.633,-0.043c3.045,0.216 4.695,0.628 7.242,2.23c-0.33,1.98 -0.66,3.96 -1,6c-7.777,3.218 -14.643,3.321 -23,3l0,12c1.32,-0.33 2.64,-0.66 4,-1c2.039,-0.116 4.082,-0.175 6.125,-0.188c1.054,-0.014 2.109,-0.028 3.195,-0.043c2.68,0.23 2.68,0.23 4.68,2.23c-0.163,3.174 -0.528,4.56 -2.875,6.75c-3.364,1.979 -5.989,2.368 -9.812,2.312c-2.135,-0.031 -2.135,-0.031 -4.312,-0.062c0.99,5.445 0.99,5.445 2,11c3.469,-0.458 6.674,-0.891 10,-2c1.852,-0.094 3.708,-0.13 5.562,-0.125c0.971,-0.003 1.941,-0.005 2.941,-0.008c2.496,0.133 2.496,0.133 4.496,1.133c-0.322,3.759 -1.345,6.156 -4.156,8.73c-6.446,4.438 -14.027,7.483 -21.844,6.27c-4.258,-1.802 -6.26,-3.907 -8.137,-8.02c-2.706,-7.093 -2.499,-14.351 -2.44,-21.841c0.014,-2.465 -0.02,-4.927 -0.058,-7.391c-0.001,-1.579 0.001,-3.158 0.006,-4.736c-0.013,-0.73 -0.027,-1.461 -0.04,-2.213c0.072,-3.94 0.532,-5.631 3.056,-8.721c6.152,-4.891 13.091,-5.224 20.738,-5.265Z" style="fill:#080808;fill-rule:nonzero;"/><path d="M497,305.812c0.887,-0.014 1.774,-0.028 2.688,-0.043c2.312,0.23 2.312,0.23 4.312,2.23c0.125,2.625 0.125,2.625 0,5c-1.578,0.248 -1.578,0.248 -3.188,0.5c-3.488,0.969 -4.783,2.393 -6.688,5.438c-2.591,4.59 -3.283,8.229 -3.312,13.5c-0.021,1.7 -0.021,1.7 -0.043,3.434c0.22,2.983 0.672,4.622 2.23,7.129c3.878,0.361 5.5,0.372 8.688,-2c0.763,-0.66 1.526,-1.32 2.312,-2l3,0c0.33,-1.32 0.66,-2.64 1,-4c-2.979,0.098 -2.979,0.098 -5.957,0.195c-2.043,-0.195 -2.043,-0.195 -5.043,-2.195c0.188,-2.875 0.188,-2.875 1,-6c3.62,-2.569 8.095,-2.347 12.402,-2.559c2.959,0.636 5.142,1.625 7.405,3.666c2.697,4.277 1.869,9.711 1.693,14.58c-0.01,1.153 -0.021,2.306 -0.031,3.494c-0.16,8.509 -0.16,8.509 -2.469,10.818c-2.438,0.375 -2.438,0.375 -5,0c-2.199,-2.277 -2.993,-3.979 -4,-7c-1.083,0.928 -1.083,0.928 -2.188,1.875c-4.861,3.673 -8.691,4.769 -14.812,4.125c-5.539,-2.881 -9.791,-6.946 -12.113,-12.812c-2.474,-8.894 -1.303,-17.16 2.543,-25.445c3.841,-6.707 7.544,-11.871 15.57,-11.93Z" style="fill:#080808;fill-rule:nonzero;"/><path d="M152,191c1.812,0.188 1.812,0.188 4,1c6.232,8.429 5.211,22.083 5.375,32.188c0.039,1.345 0.039,1.345 0.079,2.717c0.012,4.332 -0.061,6.491 -2.477,10.209c-0.652,0.623 -1.305,1.245 -1.977,1.887c-4.872,-0.239 -7.163,-1.618 -10.44,-5.204c-0.494,-0.572 -0.988,-1.144 -1.497,-1.733c-0.519,-0.58 -1.037,-1.161 -1.571,-1.759c-4.238,-4.82 -8.026,-9.899 -11.491,-15.304c-0.049,1.074 -0.098,2.148 -0.148,3.254c-0.075,1.436 -0.151,2.872 -0.227,4.309c-0.046,1.057 -0.046,1.057 -0.094,2.135c-0.261,4.716 -1.078,8.807 -2.531,13.303c-2.375,-0.188 -2.375,-0.188 -5,-1c-4.139,-7.243 -3.216,-16.636 -3.25,-24.688c-0.021,-1.236 -0.041,-2.471 -0.062,-3.744c-0.005,-1.181 -0.01,-2.363 -0.016,-3.58c-0.009,-1.077 -0.019,-2.155 -0.028,-3.264c0.356,-2.724 0.356,-2.724 1.723,-4.607c1.634,-1.117 1.634,-1.117 4.098,-0.972c9.418,3.178 16.383,14.463 22.535,21.855c-0.051,-0.605 -0.102,-1.209 -0.155,-1.833c-0.221,-2.763 -0.408,-5.527 -0.595,-8.292c-0.081,-0.951 -0.162,-1.903 -0.246,-2.883c-0.381,-6.095 -0.057,-9.326 3.996,-13.992Z" style="fill:#080808;fill-rule:nonzero;"/><path d="M264.438,477.625c7.707,2.975 10.268,11.627 13.438,18.75c3.125,7.061 3.125,7.061 3.125,10.625l2,0c3.127,16.809 3.127,16.809 -1,23c-2.99,-0.323 -4.564,-0.548 -6.688,-2.75c-2.585,-4.431 -3.312,-6.987 -3.312,-12.25l-13,1l-0.875,3.625c-0.373,1.459 -0.748,2.917 -1.125,4.375l-0.875,3.438c-1.125,2.562 -1.125,2.562 -3.125,3.5c-2,0.062 -2,0.062 -4,-0.938c-2.503,-7.508 -0.784,-15.735 0.75,-23.312l0.549,-2.762c3.972,-19.414 3.972,-19.414 8.013,-24.301c2.688,-1.625 2.688,-1.625 6.125,-2Zm-1.438,16.375l-2,12l7,0c0,-5.605 -1.03,-8.03 -5,-12Z" style="fill:#070707;"/><path d="M692,664c1.676,1.223 1.676,1.223 3,3c0.293,2.262 0.293,2.262 0.188,4.688c-0.027,0.808 -0.054,1.616 -0.082,2.449c-0.052,0.922 -0.052,0.922 -0.105,1.863l2,0c0.206,-0.577 0.413,-1.155 0.625,-1.75c1.972,-3.227 4.018,-4.54 7.375,-6.25c3.688,-0.062 3.688,-0.062 7,1c1.875,2.438 1.875,2.438 3,5c0.495,0.99 0.495,0.99 1,2c1.763,-0.217 4.885,-0.6 5.566,-0.684c1.826,-0.237 3.648,-0.517 5.465,-0.816c5.273,-0.756 10.589,-0.868 15.906,-1.062c1.106,-0.041 2.212,-0.082 3.351,-0.124c6.298,-0.222 12.597,-0.433 18.899,-0.501c1.19,-0.014 2.38,-0.028 3.605,-0.043c3.207,0.23 3.207,0.23 6.016,1.203c4.348,1.4 8.525,1.488 13.066,1.652c0.879,0.039 1.758,0.077 2.664,0.117c2.153,0.094 4.307,0.177 6.461,0.258c-0.324,2.883 -0.324,2.883 -1,6c-5.786,3.857 -12.235,3.692 -19,3c-2.308,-0.657 -4.494,-1.474 -6.734,-2.328c-6.921,-2.053 -14.739,-0.564 -21.805,0.113c-5.077,0.315 -10.147,0.226 -15.231,0.09c-4.281,-0.068 -7.285,0.276 -11.23,2.125c-3.5,0.438 -3.5,0.438 -7,0c-3.249,-2.599 -5.427,-5.14 -7,-9c-5.031,2.06 -8.43,6.136 -12.246,9.883c-2.754,2.117 -2.754,2.117 -5.602,2.422c-0.71,-0.101 -1.421,-0.201 -2.152,-0.305c-1.493,-3.881 -0.3,-6.171 1,-10c0.45,-2.991 0.746,-5.987 1,-9c-3.952,1.502 -7.072,2.877 -10.25,5.688c-2.75,2.312 -2.75,2.312 -5.75,2.312c0.487,-4.277 1.578,-6.021 4.875,-8.75c0.699,-0.593 1.397,-1.186 2.117,-1.797c3.562,-2.578 6.718,-2.811 11.008,-2.453Z" style="fill:#090a0a;fill-rule:nonzero;"/><path d="M355,309c2,0.188 2,0.188 4,1c3.921,5.882 3.082,12.153 3,19c4.62,-0.33 9.24,-0.66 14,-1c-0.023,-1.12 -0.046,-2.24 -0.07,-3.395c-0.019,-1.473 -0.037,-2.945 -0.055,-4.418c-0.017,-0.738 -0.034,-1.476 -0.051,-2.236c-0.035,-3.864 -0.018,-5.66 2.176,-8.951c2.438,-0.5 2.438,-0.5 5,0c7.437,9.03 5.106,27.676 5.188,38.875c0.013,0.969 0.026,1.939 0.039,2.938c0.001,0.905 0.002,1.81 0.004,2.742c0.004,0.809 0.008,1.619 0.012,2.453c-0.243,1.993 -0.243,1.993 -2.243,3.993c-2.438,-0.062 -2.438,-0.062 -5,-1c-3.715,-4.909 -4.128,-9.231 -4.062,-15.25c0.009,-1.078 0.018,-2.155 0.027,-3.266c0.012,-0.82 0.023,-1.64 0.035,-2.484c-0.736,0.164 -1.472,0.327 -2.23,0.496c-2.452,0.446 -4.601,0.608 -7.082,0.566c-1.825,-0.031 -1.825,-0.031 -3.688,-0.062c0.023,1.036 0.046,2.073 0.07,3.141c0.019,1.37 0.037,2.74 0.055,4.109c0.017,0.682 0.034,1.364 0.051,2.066c0.036,3.744 -0.096,6.507 -2.176,9.684c-2.312,-0.125 -2.312,-0.125 -5,-1c-5.445,-7.973 -4.186,-18.91 -4.185,-28.166c-0.002,-2.225 -0.02,-4.449 -0.039,-6.674c-0.003,-1.415 -0.005,-2.831 -0.006,-4.246c-0.004,-1.279 -0.008,-2.558 -0.012,-3.876c0.243,-3.038 0.243,-3.038 2.243,-5.038Z" style="fill:#090909;fill-rule:nonzero;"/><path d="M421.625,797.688c0.763,-0.029 1.526,-0.058 2.312,-0.088c5.535,-0.063 5.535,-0.063 8.148,2.232c0.914,2.168 0.914,2.168 -0.086,5.168c-5.995,3.318 -12.336,3.282 -19,3l0,13c0.99,-0.33 1.98,-0.66 3,-1c1.81,-0.119 3.624,-0.175 5.438,-0.188c0.947,-0.014 1.895,-0.028 2.871,-0.043c2.736,0.234 4.356,0.833 6.691,2.23c-1.25,3.653 -1.671,4.781 -5,7c-3.659,0.561 -7.303,0.739 -11,1c0.33,3.63 0.66,7.26 1,11c2.506,-0.495 2.506,-0.495 5.062,-1c11.366,-2.048 11.366,-2.048 15.938,1c-0.278,3.34 -0.72,4.72 -3.125,7.125c-6.948,4.531 -12.58,5.928 -20.875,4.875c-3.651,-1.394 -5.253,-2.609 -7.105,-6.058c-3.239,-8.02 -3.543,-15.5 -3.471,-24.024c0.014,-2.311 -0.021,-4.619 -0.058,-6.93c-0.001,-1.483 0.001,-2.966 0.006,-4.449c-0.013,-0.683 -0.027,-1.367 -0.04,-2.071c0.075,-3.842 0.597,-5.38 3.066,-8.39c4.802,-3.834 10.315,-3.315 16.228,-3.391Z" style="fill:#090909;fill-rule:nonzero;"/><path d="M554,305c0.188,2.625 0.188,2.625 0,5c-6.753,3.859 -13.388,3.285 -21,3c0.33,3.63 0.66,7.26 1,11c0.915,-0.023 1.83,-0.046 2.773,-0.07c1.189,-0.018 2.377,-0.036 3.602,-0.055c1.183,-0.023 2.367,-0.046 3.586,-0.07c3.039,0.195 3.039,0.195 5.039,2.195c-0.375,3.125 -0.375,3.125 -1,6c-4.537,1.452 -8.181,2.235 -13,2c0.33,3.3 0.66,6.6 1,10c1.145,-0.248 1.145,-0.248 2.312,-0.5c3.167,-0.429 6.185,-0.665 9.375,-0.75c1.398,-0.039 1.398,-0.039 2.824,-0.078c2.883,0.38 3.722,1.083 5.488,3.328c-3.475,5.647 -6.563,8.998 -13,11c-5.523,0.928 -10.188,-0.169 -15,-3c-5.643,-8.172 -5.373,-18.741 -5.371,-28.277c-0.004,-2.05 -0.041,-4.098 -0.079,-6.147c-0.004,-1.3 -0.008,-2.6 -0.012,-3.939c-0.008,-1.179 -0.016,-2.357 -0.025,-3.572c0.582,-3.67 1.605,-4.804 4.486,-7.065c6.951,-3.142 20.683,-4.211 27,0Z" style="fill:#0a0a0a;fill-rule:nonzero;"/><path d="M502,602c3.255,0.561 4.998,1.331 7,4c1.579,6 1.223,12.243 1.24,18.402c0.01,2.157 0.041,4.314 0.072,6.471c0.007,1.377 0.012,2.754 0.016,4.131c0.014,1.869 0.014,1.869 0.028,3.776c-0.377,3.409 -1.032,4.765 -3.356,7.22c-3.9,0.081 -5.994,-0.135 -9,-2.719c-4.845,-5.375 -8.985,-11.272 -13,-17.281c-0.049,1.025 -0.098,2.05 -0.148,3.105c-0.075,1.361 -0.151,2.721 -0.227,4.082c-0.046,1.01 -0.046,1.01 -0.094,2.041c-0.232,3.968 -0.815,7.179 -2.531,10.771l-6,0c-1.705,-7.134 -2.311,-13.864 -2.25,-21.188c-0.008,-0.946 -0.015,-1.891 -0.023,-2.865c0.015,-5.375 0.502,-9.866 2.273,-14.947c2.062,-0.875 2.062,-0.875 5,-1c7.17,4.78 11.944,12.144 17,19c0.015,-0.555 0.029,-1.109 0.044,-1.681c0.075,-2.524 0.171,-5.046 0.268,-7.569c0.023,-0.873 0.045,-1.745 0.068,-2.645c0.335,-7.971 0.335,-7.971 3.619,-11.105Z" style="fill:#0b0b0b;fill-rule:nonzero;"/><path d="M404.688,75.625c1.147,-0.014 2.293,-0.027 3.475,-0.042c1.085,0.006 2.169,0.012 3.287,0.018c1.459,0.005 1.459,0.005 2.948,0.01c2.987,0.445 4.375,1.4 6.603,3.388c-0.188,2.812 -0.188,2.812 -1,6c-4.016,3.237 -7.264,3.329 -12.312,3.188c-1.254,-0.027 -2.509,-0.054 -3.801,-0.082c-0.953,-0.035 -1.905,-0.07 -2.887,-0.105c0.464,1.485 0.464,1.485 0.938,3c2.601,8.324 2.276,17.192 2.312,25.812c0.021,1.227 0.041,2.453 0.062,3.717c0.005,1.172 0.01,2.345 0.016,3.553c0.014,1.597 0.014,1.597 0.028,3.226c-0.356,2.692 -0.356,2.692 -1.721,4.535c-1.636,1.157 -1.636,1.157 -4.136,1.595c-2.5,-0.438 -2.5,-0.438 -4.086,-2.172c-6.609,-10.59 -4.623,-30.223 -4.414,-42.266c-0.82,0.035 -1.64,0.07 -2.484,0.105c-1.078,0.027 -2.155,0.054 -3.266,0.082c-1.067,0.035 -2.135,0.07 -3.234,0.105c-3.345,-0.325 -4.671,-0.926 -7.016,-3.293c-0.375,-2.562 -0.375,-2.562 0,-5c6.671,-6.671 22.021,-5.321 30.688,-5.375Z" style="fill:#080808;fill-rule:nonzero;"/><path d="M350.438,607.312c2.562,1.688 2.562,1.688 4.562,4.688c0.626,6.361 -0.273,8.709 -4,14c0.348,3.147 1.509,4.796 3.562,7.125c2.805,3.783 3.11,6.932 2.863,11.57c-0.618,3.345 -1.906,5.065 -4.426,7.305c-4.92,3.052 -10.414,2.709 -16,2c-3.25,-1.875 -3.25,-1.875 -5,-5c-1.351,-7.116 0.633,-12.778 4,-19l-2.875,-1.75c-4.204,-3.027 -4.204,-3.027 -5.125,-6.25c-0.526,-3.486 -0.697,-5.877 1.203,-8.938c5.895,-7.146 12.404,-9.121 21.234,-5.75Zm-7.438,27.688c-0.824,1.714 -1.641,3.432 -2.398,5.176c-0.746,2.261 -0.556,3.655 0.398,5.824l7,-1c0.043,-2 0.04,-4 0,-6c-1.125,-2.25 -1.125,-2.25 -5,-4Zm-0.375,-21.125c-3.625,0.125 -3.625,0.125 -5.625,2.125c0.062,2.5 0.062,2.5 1,5c2.562,1.312 2.562,1.312 5,2c2.062,-2.25 2.062,-2.25 4,-5c-0.25,-2.312 -0.25,-2.312 -1,-4l-3.375,-0.125Z" style="fill:#080808;"/><path d="M799.938,594.5c3.764,0.614 4.622,1.642 7.062,4.5c4.886,9.557 7.574,22.322 7,33c-1.5,2.438 -1.5,2.438 -3,4c-2.435,-0.336 -3.726,-0.732 -5.5,-2.469c-2.2,-3.713 -2.844,-7.58 -3.688,-11.781c-0.177,-0.84 -0.354,-1.681 -0.537,-2.547c-0.434,-2.066 -0.856,-4.134 -1.275,-6.203c-0.266,0.554 -0.531,1.109 -0.805,1.68c-0.53,1.087 -0.53,1.087 -1.07,2.195c-0.348,0.719 -0.696,1.439 -1.055,2.18c-1.07,1.945 -1.07,1.945 -3.07,3.945c-2.75,0.562 -2.75,0.562 -6,0c-2.327,-2.112 -4.133,-4.485 -6,-7c-0.133,1.288 -0.266,2.576 -0.402,3.902c-0.178,1.678 -0.357,3.357 -0.535,5.035c-0.131,1.275 -0.131,1.275 -0.264,2.576c-0.087,0.809 -0.174,1.618 -0.264,2.451c-0.079,0.749 -0.157,1.498 -0.238,2.269c-0.297,1.766 -0.297,1.766 -1.297,2.766c-2.438,0.25 -2.438,0.25 -5,0c-2.32,-3.479 -2.257,-4.881 -2.266,-8.988c-0.003,-1.181 -0.005,-2.363 -0.008,-3.58c0.008,-1.236 0.015,-2.471 0.023,-3.744c-0.008,-1.224 -0.015,-2.448 -0.023,-3.709c0.003,-1.185 0.005,-2.371 0.008,-3.592c0.002,-1.081 0.005,-2.161 0.007,-3.275c0.366,-4.405 1.086,-7.94 4.259,-11.112c2.75,-0.125 2.75,-0.125 6,1c1.783,1.921 3.237,3.919 4.703,6.09c1.29,2.028 1.29,2.028 3.297,3.91c0.381,-0.905 0.381,-0.905 0.77,-1.828c4.699,-10.911 4.699,-10.911 9.168,-11.672Z" style="fill:#0a0a0a;fill-rule:nonzero;"/><path d="M757.562,596.062c2.731,1.05 3.657,1.634 5.438,3.938c0.812,2.519 1.479,4.929 2.062,7.5c0.169,0.716 0.338,1.432 0.513,2.17c0.49,2.107 0.962,4.217 1.425,6.33c0.346,1.576 0.346,1.576 0.699,3.184c1.14,5.699 1.491,11.008 1.301,16.816c-2.97,0.495 -2.97,0.495 -6,1c-4.655,-5.618 -5.621,-11.959 -7,-19c-0.598,0.784 -1.196,1.567 -1.812,2.375c-2.188,2.625 -2.188,2.625 -5.188,4.625c-2.938,-0.062 -2.938,-0.062 -6,-1c-1.388,-1.621 -2.729,-3.285 -4,-5c-0.193,1.204 -0.387,2.408 -0.586,3.648c-0.263,1.576 -0.526,3.151 -0.789,4.727c-0.189,1.191 -0.189,1.191 -0.383,2.406c-0.129,0.761 -0.258,1.521 -0.391,2.305c-0.115,0.702 -0.23,1.403 -0.349,2.126c-0.502,1.788 -0.502,1.788 -2.502,3.788c-4.556,-0.556 -4.556,-0.556 -6,-2c-0.256,-4.16 -0.185,-8.333 -0.188,-12.5c-0.012,-1.16 -0.024,-2.32 -0.037,-3.516c-0.011,-6.651 0.413,-12.573 2.225,-18.984c1,-1 1,-1 4.188,-1.5c4.149,0.544 4.535,0.804 7.062,3.812c0.917,1.229 1.834,2.458 2.75,3.688c0.983,1.017 1.978,2.023 3,3c0.242,-0.675 0.485,-1.351 0.734,-2.047c4.516,-12.02 4.516,-12.02 9.828,-11.891Z" style="fill:#090909;fill-rule:nonzero;"/><path d="M714,600c5.216,2.655 8.424,6.164 11.25,11.25c1.839,6.744 1.094,12.478 -1.969,18.734c-2.337,3.677 -5.377,6.064 -9.281,8.016c-4.533,0.553 -8.074,0.428 -12.25,-1.5c-4.731,-4.301 -7.381,-7.563 -8.199,-14.074c-0.265,-9.189 0.816,-14.912 6.512,-21.988c4.67,-2.285 8.963,-1.579 13.938,-0.438Zm-8,8c-3.32,4.012 -3.32,4.012 -3.398,13.379c0.464,3.051 1.231,4.443 3.398,6.621c3.125,0.312 3.125,0.312 6,0c1.938,-1.938 1.938,-1.938 4,-7c-0.071,-4.075 -0.63,-6.392 -2.75,-9.875c-2.487,-2.349 -3.888,-2.845 -7.25,-3.125Z" style="fill:#070707;"/><path d="M98.062,193.75c1.089,-0.021 2.177,-0.041 3.299,-0.062c1.047,-0.005 2.095,-0.01 3.174,-0.016c1.429,-0.014 1.429,-0.014 2.887,-0.028c2.988,0.413 4.353,1.372 6.578,3.356c-0.125,1.812 -0.125,1.812 -1,4c-4.752,3.245 -8.462,3.286 -14,3c0.246,1.179 0.246,1.179 0.496,2.383c0.63,4.526 0.611,8.93 0.566,13.492c-0.005,0.879 -0.009,1.758 -0.014,2.664c-0.012,2.154 -0.03,4.307 -0.049,6.461c0.664,-0.035 1.328,-0.07 2.012,-0.105c4.077,-0.125 7.267,-0.169 11.113,1.293c1.875,1.812 1.875,1.812 2.312,4.375c-0.438,2.438 -0.438,2.438 -2.438,4.438c-7.921,1.741 -16.096,2.205 -24.188,2.312c-1.077,0.026 -1.077,0.026 -2.176,0.053c-4.167,-0.005 -6.616,-0.408 -9.636,-3.366c0.312,-2.375 0.312,-2.375 1,-5c3.035,-2.024 4.194,-2.321 7.688,-2.625c0.808,-0.075 1.616,-0.15 2.449,-0.227c0.615,-0.049 1.23,-0.098 1.863,-0.148c-0.495,-1.485 -0.495,-1.485 -1,-3c-0.091,-1.349 -0.131,-2.702 -0.133,-4.055c-0.002,-1.17 -0.002,-1.17 -0.004,-2.363c0.004,-0.811 0.008,-1.622 0.012,-2.457c-0.004,-0.803 -0.008,-1.606 -0.012,-2.434c0.007,-4.028 0.134,-7.761 1.137,-11.691c-0.915,0.023 -1.83,0.046 -2.773,0.07c-1.783,0.027 -1.783,0.027 -3.602,0.055c-1.775,0.035 -1.775,0.035 -3.586,0.07c-3.039,-0.195 -3.039,-0.195 -5.039,-2.195c0.062,-2.5 0.062,-2.5 1,-5c6.719,-3.733 14.613,-3.215 22.062,-3.25Z" style="fill:#0a0a0a;fill-rule:nonzero;"/><path d="M595.875,597.5c4.209,0.673 5.345,2.312 8.125,5.5c1.914,3.34 1.914,3.34 3.625,6.938c0.57,1.185 1.14,2.369 1.727,3.59c0.544,1.146 1.088,2.292 1.648,3.473c0.826,1.589 0.826,1.589 1.668,3.211c3.118,6.529 2.739,14.681 2.332,21.789c-0.495,0.99 -0.495,0.99 -1,2c-2.86,-0.309 -4.547,-0.581 -6.688,-2.562c-1.823,-3.386 -2.498,-6.68 -3.312,-10.438c-5.94,0.495 -5.94,0.495 -12,1c-1.32,4.29 -2.64,8.58 -4,13c-4,-2 -4,-2 -6,-5c-0.418,-6.316 0.538,-12.187 1.75,-18.375c0.18,-0.927 0.359,-1.853 0.545,-2.808c4.05,-20.007 4.05,-20.007 11.58,-21.317Z" style="fill:#080708;fill-rule:nonzero;"/><path d="M337,308c3.5,1.413 6.809,2.835 9,6c0.045,1.666 0.049,3.334 0,5c-0.88,-0.046 -1.761,-0.093 -2.668,-0.141c-1.161,-0.036 -2.323,-0.072 -3.52,-0.109c-1.149,-0.046 -2.297,-0.093 -3.48,-0.141c-4.051,0.475 -5.531,1.466 -8.332,4.391c-2.968,5.553 -4.865,11.7 -4,18c1.615,4.199 3.131,6.697 7,9c2.843,0.4 2.843,0.4 5.875,0.25c1.058,-0.024 2.117,-0.049 3.207,-0.074c3.025,-0.182 5.937,-0.641 8.918,-1.176c0.99,0.33 1.98,0.66 3,1c-1.322,5.686 -3.403,7.716 -8,11c-6.161,2.054 -13.653,2.29 -19.746,-0.059c-6.19,-3.852 -9.964,-9.072 -12.254,-15.941c-0.967,-10.563 -0.435,-19.08 6,-28c5.569,-6.071 10.533,-9.73 19,-9Z" style="fill:#070707;fill-rule:nonzero;"/><path d="M221,608l5,1c1.916,5.014 2.62,9.763 3.125,15.062l0.253,2.605c0.589,6.652 0.834,13.281 0.872,19.958l0.028,2.746l-0.012,2.543l-0.007,2.249c-0.259,1.837 -0.259,1.837 -2.259,3.837c-3.297,-0.33 -4.623,-0.623 -7,-3l-1.938,1.5c-4.111,2.013 -7.563,2.37 -12.062,1.5c-3.068,-1.722 -5.403,-3.806 -7,-7c-0.521,-5.228 -0.643,-9.64 1.625,-14.438c5.925,-6.393 5.925,-6.393 10.667,-6.721l2.415,0.057l2.441,0.044l1.852,0.057l-0.032,-1.697c-0.042,-2.539 -0.068,-5.077 -0.093,-7.616l-0.051,-2.67l-0.02,-2.568l-0.032,-2.365c0.227,-2.085 0.227,-2.085 2.227,-5.085Zm-3.688,29.188c-3.312,-0.188 -3.312,-0.188 -6.188,1.875c-2.431,3.36 -2.677,4.887 -2.125,8.938c1,1 1,1 3.25,1.312c3.758,-0.427 5.234,-1.509 7.75,-4.312c0.312,-3.75 0.312,-3.75 0,-7l-2.688,-0.812Z" style="fill:#0c0c0c;"/><path d="M738.562,303.688c2.438,2.312 2.438,2.312 2.812,5.062c-0.186,1.114 -0.186,1.114 -0.375,2.25c-2.769,0.886 -4.41,0.954 -7.375,0.625c-3.991,0.413 -4.422,0.715 -6.938,3.562c-4.864,6.117 -5.442,12.215 -4.688,19.812c1.603,3.74 2.597,4.732 6,7c1.927,0.363 1.927,0.363 4.012,0.414c1.136,0.058 1.136,0.058 2.295,0.117c1.179,0.046 1.179,0.046 2.381,0.094c0.797,0.039 1.595,0.077 2.416,0.117c1.965,0.094 3.931,0.177 5.896,0.258c0.33,0.99 0.66,1.98 1,3c-2.375,4.385 -4.56,6.79 -9,9c-7.53,1.374 -13.562,0.123 -19.867,-4.145c-4.772,-4.152 -7.816,-9.454 -8.406,-15.789c-0.302,-10.408 1.652,-18.856 8.211,-27.129c6.155,-6.405 13.594,-8.054 21.625,-4.25Z" style="fill:#070707;fill-rule:nonzero;"/><path d="M578,304c2.562,1.5 2.562,1.5 4,3c-0.223,1.898 -0.223,1.898 -1,4c-1.996,0.977 -1.996,0.977 -4.438,1.625c-3.666,0.972 -3.666,0.972 -6.562,3.375l0,3c0.736,0.387 1.472,0.773 2.23,1.172c8.786,4.689 14.856,8.364 18.77,17.828c0.669,4.386 0.386,6.271 -1.688,10.188c-4.371,5.317 -8.552,8.247 -15.484,9.07c-4.17,0.21 -6.546,-0.124 -10.391,-1.945c-2.438,-2.312 -2.438,-2.312 -3,-4.875c0.668,-2.894 1.227,-3.641 3.562,-5.438c2.848,-0.695 2.848,-0.695 6.062,-1.125c4.109,-0.484 4.109,-0.484 7.938,-1.875c-0.318,-2.995 -0.491,-4.547 -2.785,-6.59c-0.752,-0.445 -1.503,-0.889 -2.277,-1.348c-3.211,-1.99 -6.337,-4.002 -9.375,-6.25c-0.957,-0.702 -0.957,-0.702 -1.934,-1.418c-2.197,-1.881 -3.5,-3.593 -3.965,-6.48c-0.066,-3.863 -0.009,-6.293 1.898,-9.727c5.777,-5.184 10.659,-7.494 18.438,-6.188Z" style="fill:#080808;fill-rule:nonzero;"/><path d="M253,609c2.5,1.375 2.5,1.375 4,3l0,2l4,1c0.049,5.802 0.086,11.605 0.11,17.407c0.01,1.975 0.024,3.95 0.041,5.925c0.024,2.835 0.036,5.669 0.044,8.504l0.031,2.686c0,2.161 -0.104,4.321 -0.227,6.478l-2,2c-2.5,-0.188 -2.5,-0.188 -5,-1c-1.957,-2.936 -2.302,-3.898 -2.633,-7.23l-0.254,-2.432l-0.238,-2.525l-0.262,-2.561c-0.212,-2.083 -0.414,-4.168 -0.613,-6.252l-1,1c-5.154,0.668 -8.829,0.885 -13.062,-2.312c-3.07,-4.259 -3.288,-7.523 -2.938,-12.688c3.126,-9.01 10.609,-14.076 20,-13Zm-2.75,8.25c-3.25,-0.25 -3.25,-0.25 -5.562,1.25c-2.127,3.151 -2.399,5.749 -2.688,9.5l4,1c3.15,-3.564 5.514,-6.407 7,-11l-2.75,-0.75Z" style="fill:#0a0a0a;"/><path d="M188.672,188.84c3.604,-0.139 5.99,0.029 9.391,1.348c1.938,1.812 1.938,1.812 2.562,4.312c-0.625,2.5 -0.625,2.5 -2.613,4.145c-4.048,1.822 -7.446,1.686 -11.824,1.543c-0.788,-0.014 -1.577,-0.027 -2.389,-0.041c-1.933,-0.035 -3.866,-0.089 -5.799,-0.146c0.33,2.97 0.66,5.94 1,9c1.429,-0.052 1.429,-0.052 2.887,-0.105c1.254,-0.027 2.509,-0.054 3.801,-0.082c1.862,-0.052 1.862,-0.052 3.762,-0.105c3.736,0.308 5.557,1.112 8.551,3.293c-0.125,1.812 -0.125,1.812 -1,4c-5.246,3.866 -10.786,3.299 -17,3c0.023,1.204 0.046,2.408 0.07,3.648c0.019,1.576 0.037,3.151 0.055,4.727c0.025,1.191 0.025,1.191 0.051,2.406c0.018,2.074 -0.072,4.148 -0.176,6.219c-2,2 -2,2 -4.438,2c-2.562,-1 -2.562,-1 -4.148,-3.695c-3.977,-9.294 -3.671,-20.031 -3.852,-29.992c-0.034,-1.064 -0.069,-2.128 -0.104,-3.224c-0.042,-7.498 -0.042,-7.498 2.678,-10.252c6.075,-1.774 12.261,-1.62 18.535,-1.996Z" style="fill:#090a09;fill-rule:nonzero;"/><path d="M938,300c1,1 1,1 1.375,3.312c-0.375,2.688 -0.375,2.688 -2.312,4.938c-3.99,2.28 -7.531,2.553 -12.062,2.75c0.244,1.508 0.244,1.508 0.494,3.047c0.485,3.791 0.62,7.38 0.604,11.199c-0.001,0.656 -0.003,1.312 -0.004,1.988c-0.006,2.068 -0.018,4.136 -0.031,6.204c-0.005,1.413 -0.01,2.827 -0.014,4.24c-0.011,3.441 -0.028,6.882 -0.049,10.322c-3.742,2 -3.742,2 -6.062,2c-3.176,-1.639 -3.716,-3.686 -4.938,-7c-1.197,-7.323 -1.124,-14.728 -1.062,-22.125c0.005,-1.052 0.009,-2.104 0.014,-3.188c0.012,-2.563 0.028,-5.125 0.049,-7.688c-0.675,0.035 -1.351,0.07 -2.047,0.105c-0.892,0.027 -1.784,0.054 -2.703,0.082c-0.882,0.035 -1.763,0.07 -2.672,0.105c-3.025,-0.344 -4.334,-1.295 -6.578,-3.293c0.33,-1.65 0.66,-3.3 1,-5c10.731,-4.121 26.279,-7.178 37,-2Z" style="fill:#090909;fill-rule:nonzero;"/><path d="M314,605c4.875,0.875 4.875,0.875 6,2c1.868,7.763 2.536,15.683 3.125,23.625l0.262,3.234c0.469,6.059 0.897,12.066 0.613,18.141l-2,2c-1.875,-0.375 -1.875,-0.375 -4,-1c-3.776,-0.298 -3.776,-0.298 -6,1c-3.786,0.53 -7.449,0.83 -10.891,-1.012c-2.656,-2.147 -4.023,-3.73 -5.109,-6.988c-0.368,-5.616 -0.216,-9.177 3,-14c4.537,-4.854 4.537,-4.854 8.073,-5.208l5.927,0.208l-0.016,-1.804c-0.021,-2.69 -0.034,-5.38 -0.047,-8.071l-0.025,-2.84l-0.01,-2.715l-0.016,-2.507c0.114,-2.063 0.114,-2.063 1.114,-4.063Zm-1,28c-3,0 -3,0 -5.688,2.062c-2.312,2.938 -2.312,2.938 -2.688,6.688c0.375,3.25 0.375,3.25 1.375,4.25c3.722,0.294 4.778,0.148 8,-2l0.328,-2.094l-0.078,-2.406c-0.051,-2.606 -0.079,-4.159 -1.25,-6.5Z" style="fill:#080808;"/><path d="M551.938,795.625c0.817,-0.026 1.633,-0.052 2.475,-0.079c4.161,-0.013 6.085,0.122 9.654,2.477c0.638,0.652 1.276,1.305 1.934,1.977c-1.25,3.653 -1.671,4.781 -5,7c-2.699,0.195 -2.699,0.195 -5.688,0.125c-1.491,-0.027 -1.491,-0.027 -3.012,-0.055c-0.759,-0.023 -1.519,-0.046 -2.301,-0.07c0.217,1.102 0.433,2.204 0.656,3.34c1.497,7.999 2.642,15.82 2.656,23.973c0.005,0.698 0.01,1.396 0.016,2.115c-0.054,3.946 -0.603,7.018 -2.328,10.573c-3.319,-0.277 -4.71,-0.709 -7.094,-3.102c-2.293,-3.487 -2.701,-5.948 -3.156,-10.086c-0.114,-1.024 -0.114,-1.024 -0.23,-2.068c-0.82,-8.23 -0.692,-16.485 -0.52,-24.744c-1.39,0.017 -1.39,0.017 -2.809,0.035c-1.198,0.009 -2.395,0.018 -3.629,0.027c-1.195,0.012 -2.39,0.023 -3.621,0.035c-2.941,-0.098 -2.941,-0.098 -3.941,-1.098c-0.041,-2 -0.043,-4 0,-6c7.815,-4.316 17.209,-4.226 25.938,-4.375Z" style="fill:#090909;fill-rule:nonzero;"/><path d="M641,302.688c0.825,-0.018 1.65,-0.035 2.501,-0.053c5.893,0.007 5.893,0.007 9.062,1.885c0.474,0.489 0.949,0.977 1.438,1.48c-0.253,3.125 -0.591,4.605 -2.875,6.812c-4.683,1.78 -9.179,1.381 -14.125,1.188c0.141,0.638 0.283,1.276 0.429,1.934c1.54,7.556 1.874,14.807 1.821,22.504c0.008,1.157 0.015,2.314 0.023,3.506c-0.003,1.111 -0.005,2.221 -0.008,3.365c-0.002,0.998 -0.005,1.997 -0.007,3.025c-0.262,2.704 -0.876,4.353 -2.259,6.666c-2.312,-0.188 -2.312,-0.188 -5,-1c-3.882,-5.129 -4.124,-9.667 -4.098,-15.953c0.001,-0.66 0.003,-1.32 0.004,-2.001c0.006,-2.099 0.018,-4.197 0.031,-6.296c0.005,-1.427 0.01,-2.854 0.014,-4.281c0.011,-3.49 0.028,-6.979 0.049,-10.469c-0.904,0.035 -1.807,0.07 -2.738,0.105c-1.179,0.027 -2.359,0.054 -3.574,0.082c-1.758,0.052 -1.758,0.052 -3.551,0.105c-3.137,-0.293 -3.137,-0.293 -5.051,-1.68c-1.086,-1.613 -1.086,-1.613 -1.148,-3.613c1.716,-3.231 3.638,-3.723 7.062,-5c7.244,-1.9 14.55,-2.22 22,-2.312Z" style="fill:#080908;fill-rule:nonzero;"/><path d="M135.548,81c9.506,0.643 15.207,3.831 22.925,9.49c1.549,1.084 1.549,1.084 3.129,2.19c10.385,7.416 10.385,7.416 11.961,15.277c-1.343,8.256 -6.202,12.447 -11.704,18.274c-1.171,1.339 -2.342,2.678 -3.549,4.057c-1.787,1.99 -1.787,1.99 -3.609,4.02c-1.105,1.233 -2.211,2.465 -3.349,3.736c-3.422,2.726 -3.422,2.726 -7.521,3.332c-3.639,-0.606 -3.639,-0.606 -6.735,-3.837c0.13,-7.219 0.718,-10.383 5.508,-15.718c1.247,-1.21 2.494,-2.42 3.779,-3.666c-0.747,-0.016 14.543,-9.498 14.543,-9.498c0,0 -17.176,-6.69 -14.543,-6.656l0,-3.231c-1.772,-0.6 -1.772,-0.6 -3.579,-1.212c-4.649,-2.257 -6.466,-3.739 -8.802,-8.481c0.484,-4.442 0.484,-4.442 1.548,-8.077Z" style="fill:#080808;fill-rule:nonzero;"/><path d="M376,606c0.641,1.781 0.641,1.781 1,4c-0.891,1.719 -0.891,1.719 -2.25,3.5c-3.45,5.074 -4.532,10.558 -5.75,16.5c0.846,-0.66 1.691,-1.32 2.562,-2c3.995,-2.324 5.892,-2.649 10.438,-2c5.538,3.077 5.538,3.077 7,6c0.596,5.73 0.183,10.049 -3,15c-2.342,2.83 -4.337,3.807 -8.051,4.238c-3.904,0.128 -6.557,-0.072 -10.199,-1.613c-5.27,-5.03 -8.022,-10.808 -8.25,-18.125c0.481,-9.453 3.478,-16.57 9.438,-23.875c2.533,-1.996 3.915,-1.975 7.062,-1.625Z" style="fill:#080808;fill-rule:nonzero;"/><path d="M863.25,477.562c2.75,0.438 2.75,0.438 4.75,1.438c0.808,6.814 -1.605,10.217 -5.625,15.562c-0.522,0.729 -1.044,1.458 -1.582,2.209c-8.74,11.988 -8.74,11.988 -14.605,13.479c-6.489,0.321 -10.973,-4.289 -15.547,-8.34c-12.095,-11.547 -12.095,-11.547 -13.078,-19.41c0.438,-2.5 0.438,-2.5 1.438,-3.5c2.191,-0.387 2.191,-0.387 5,0c2.174,1.671 4.013,3.268 5.938,5.188c1.008,0.974 2.017,1.947 3.027,2.918c0.746,0.718 0.746,0.718 1.507,1.451c4.551,4.756 4.551,4.756 10.528,6.444c2.166,-2.25 2.166,-2.25 4.312,-5.125c9.323,-11.691 9.323,-11.691 13.938,-12.312Z" style="fill:#060606;fill-rule:nonzero;"/><path d="M279.875,609.625c0.701,0.124 1.402,0.247 2.125,0.375c0.676,1.711 0.676,1.711 1,4c-1.145,2.227 -1.145,2.227 -2.812,4.625c-3.21,5.005 -4.464,9.516 -5.188,15.375c0.681,-0.495 1.361,-0.99 2.062,-1.5c3.679,-1.879 5.847,-2.002 9.938,-1.5c5.538,3.077 5.538,3.077 7,6c0.543,4.951 0.522,8.895 -1.625,13.438c-3.618,3.904 -6.604,5.341 -11.875,6c-5.607,-0.701 -8.341,-3.354 -12.375,-7.125c-3.942,-5.939 -3.069,-14.512 -2.125,-21.312c1.856,-7.172 5.499,-17.283 13.875,-18.375Z" style="fill:#080808;fill-rule:nonzero;"/><path d="M406,604c4.238,1.83 5.926,3.943 8,8c2.259,10.268 -1.799,17.528 -7.031,25.957c-0.65,1.004 -1.299,2.008 -1.969,3.043c0.976,-0.035 1.952,-0.07 2.957,-0.105c1.272,-0.027 2.545,-0.054 3.855,-0.082c1.265,-0.035 2.529,-0.07 3.832,-0.105c3.355,0.293 3.355,0.293 5.316,1.641c1.039,1.652 1.039,1.652 0.852,4.277c-0.812,2.375 -0.812,2.375 -2.812,3.375c-5.938,1.013 -11.989,1.123 -18,1.188c-1.918,0.021 -1.918,0.021 -3.875,0.043c-3.125,-0.23 -3.125,-0.23 -5.125,-2.23c-0.723,-3.856 -0.681,-5.864 1.355,-9.262c1.217,-1.669 2.447,-3.329 3.688,-4.98c3.988,-5.619 8.857,-12.599 7.957,-19.758c-0.66,-0.66 -1.32,-1.32 -2,-2c-3.042,0.24 -4.688,0.762 -7.125,2.625c-0.619,0.454 -1.238,0.908 -1.875,1.375c-0.99,-0.33 -1.98,-0.66 -3,-1c0.117,-5.99 0.117,-5.99 2.379,-8.578c4.126,-3.212 7.317,-4.208 12.621,-3.422Z" style="fill:#080808;fill-rule:nonzero;"/><path d="M686,597c3.062,1.75 3.062,1.75 5,4l0,4c-0.996,-0.031 -0.996,-0.031 -2.012,-0.062c-5.251,0.095 -5.251,0.095 -9.766,2.488c-3.512,4.916 -3.781,9.837 -3.789,15.742c0.74,3.701 1.746,5.313 4.566,7.832c2.775,0.534 4.978,0.789 7.75,0.812c0.697,0.025 1.395,0.05 2.113,0.076c1.712,0.059 3.424,0.088 5.137,0.111c-0.703,5.711 -0.703,5.711 -3.375,8.312c-4.298,2.763 -7.576,3.101 -12.625,2.688c-5.89,-1.956 -9.494,-4.947 -13,-10c-3.379,-6.853 -3.268,-15.783 -1.09,-23.027c4.35,-9.301 10.651,-14.287 21.09,-12.973Z" style="fill:#090909;fill-rule:nonzero;"/><path d="M851.188,592.812c0.997,-0.012 1.994,-0.024 3.021,-0.037c0.956,-0.002 1.912,-0.004 2.896,-0.006c0.868,-0.004 1.736,-0.008 2.63,-0.012c2.265,0.243 2.265,0.243 5.265,2.243c-0.312,2.875 -0.312,2.875 -1,6c-3.314,2.209 -4.345,2.225 -8.188,2.125c-0.901,-0.018 -1.802,-0.036 -2.73,-0.055c-0.687,-0.023 -1.374,-0.046 -2.082,-0.07c0.091,0.63 0.182,1.26 0.275,1.908c0.413,2.884 0.819,5.769 1.225,8.654c0.143,0.991 0.286,1.981 0.434,3.002c1.069,7.66 1.945,14.058 -0.934,21.436c-3.375,-0.312 -3.375,-0.312 -7,-1c-6.021,-9.031 -4.209,-22.551 -4,-33c-1.396,0.037 -1.396,0.037 -2.82,0.074c-3.704,-0.086 -5.368,-0.676 -8.18,-3.074c-0.312,-2.688 -0.312,-2.688 0,-5c6.497,-3.748 13.918,-3.183 21.188,-3.188Z" style="fill:#0b0b0b;fill-rule:nonzero;"/><path d="M363,78c6.872,12.183 6.18,27.038 6.188,40.625c0.012,1.169 0.024,2.338 0.037,3.543c0.003,1.669 0.003,1.669 0.006,3.371c0.004,1.002 0.008,2.005 0.012,3.038c-0.243,2.423 -0.243,2.423 -2.243,4.423c-2.375,0.438 -2.375,0.438 -5,0c-4.769,-4.224 -5.658,-10.089 -6.192,-16.201c-0.085,-2.213 -0.111,-4.417 -0.108,-6.631c-0.004,-0.799 -0.009,-1.598 -0.013,-2.421c-0.006,-1.671 -0.006,-3.343 -0.002,-5.014c0.003,-2.556 -0.02,-5.112 -0.046,-7.668c-0.002,-1.632 -0.003,-3.264 -0.002,-4.896c-0.009,-0.76 -0.018,-1.521 -0.028,-2.304c0.028,-3.172 0.219,-5.524 1.664,-8.374c1.727,-1.49 1.727,-1.49 5.727,-1.49Z" style="fill:#070707;fill-rule:nonzero;"/><path d="M563,603c-0.312,2.375 -0.312,2.375 -1,5c-3.089,2.059 -3.709,2.239 -7.188,2.125c-1.887,-0.062 -1.887,-0.062 -3.812,-0.125c0.162,0.88 0.325,1.761 0.492,2.668c0.834,5.848 0.652,11.75 0.633,17.645c0.006,1.788 0.006,1.788 0.012,3.611c-0.001,1.135 -0.003,2.27 -0.004,3.439c-0.001,1.034 -0.002,2.068 -0.003,3.134c-0.129,2.503 -0.129,2.503 -1.129,4.503c-2.312,0.25 -2.312,0.25 -5,0c-3.992,-3.564 -3.855,-8.702 -4.171,-13.724c-0.149,-3.071 -0.275,-6.141 -0.391,-9.213c-0.043,-1.065 -0.086,-2.131 -0.131,-3.229c-0.105,-2.611 -0.206,-5.223 -0.307,-7.834c-3.3,-0.33 -6.6,-0.66 -10,-1c-0.33,-1.65 -0.66,-3.3 -1,-5c7.675,-6.766 24.449,-7.401 33,-2Z" style="fill:#09090a;fill-rule:nonzero;"/><path d="M621,600c2.625,0.375 2.625,0.375 5,1c1.494,4.078 2.32,7.727 2.633,12.055c0.084,1.109 0.168,2.217 0.254,3.359c0.079,1.142 0.157,2.284 0.238,3.461c0.086,1.165 0.173,2.331 0.262,3.531c0.211,2.864 0.415,5.729 0.613,8.594c1.68,-0.052 1.68,-0.052 3.395,-0.105c1.473,-0.028 2.945,-0.055 4.418,-0.082c0.738,-0.025 1.476,-0.05 2.236,-0.076c5.501,-0.075 5.501,-0.075 7.963,1.775c0.326,0.491 0.652,0.982 0.988,1.488c-1.29,2.878 -2.574,4.962 -5,7c-3.649,1.216 -7.071,1.3 -10.875,1.375c-1.062,0.056 -1.062,0.056 -2.145,0.113c-4.049,0.068 -5.748,-0.299 -8.926,-2.887c-3.259,-4.126 -3.215,-7.072 -3.223,-12.164c-0.003,-0.747 -0.007,-1.494 -0.01,-2.264c-0.005,-1.58 -0.007,-3.161 -0.007,-4.741c-0.002,-2.423 -0.02,-4.846 -0.039,-7.269c-0.003,-1.534 -0.005,-3.068 -0.006,-4.602c-0.007,-0.727 -0.014,-1.454 -0.022,-2.203c0.023,-5.13 0.023,-5.13 2.252,-7.359Z" style="fill:#060606;fill-rule:nonzero;"/><path d="M149.062,794.812c9.53,0.111 18.126,2.588 25.438,8.938c6.429,6.89 11.962,17.11 12.125,26.625c-0.244,4.244 -0.244,4.244 -2.625,6.625c-2.441,0.094 -2.441,0.094 -5,-1c-1.24,-2.559 -2.11,-4.811 -2.938,-7.5c-2.981,-8.689 -6.128,-16.71 -14.504,-21.445c-4.029,-1.661 -8.218,-2.727 -12.455,-3.712c-4.915,-1.154 -4.915,-1.154 -7.104,-3.343c0.772,-5.097 2.157,-5.154 7.062,-5.188Z" style="fill:#080808;fill-rule:nonzero;"/><path d="M830,661c2,2 2,2 2.195,5.477c-0.013,1.383 -0.037,2.766 -0.07,4.148c-0.009,0.706 -0.018,1.413 -0.027,2.141c-0.024,1.745 -0.059,3.49 -0.098,5.234c0.496,-0.326 0.993,-0.652 1.504,-0.988c3.311,-2.13 6.536,-4.134 10.184,-5.637c3.293,-1.227 3.293,-1.227 5.812,-3.125c3.517,-1.758 5.764,-1.237 9.5,-0.25c2,3 2,3 2,7c0.531,-0.205 1.062,-0.41 1.609,-0.621c0.706,-0.269 1.413,-0.539 2.141,-0.816c0.696,-0.267 1.392,-0.534 2.109,-0.809c2.031,-0.715 4.044,-1.268 6.141,-1.754c-0.215,3.768 -0.997,4.997 -3.625,7.812c-2.606,1.991 -3.61,2.219 -7.062,2.688c-3.312,-0.5 -3.312,-0.5 -5.188,-1.75c-1.23,-1.913 -1.74,-3.517 -2.125,-5.75c-1.98,0.33 -3.96,0.66 -6,1c-0.33,1.98 -0.66,3.96 -1,6l-7,0l0,-2c-2.522,1.027 -2.522,1.027 -5,3c-1.369,3.58 -1.369,3.58 -2,7c-2.312,0.312 -2.312,0.312 -5,0c-3.188,-3.985 -3.522,-7.883 -3.688,-12.812c-0.034,-0.693 -0.068,-1.386 -0.104,-2.1c-0.082,-1.695 -0.147,-3.392 -0.209,-5.088c-0.66,0.66 -1.32,1.32 -2,2c-2.125,-0.375 -2.125,-0.375 -4,-1c0.325,-2.928 0.596,-5.326 2.125,-7.875c2.96,-1.776 5.514,-1.431 8.875,-1.125Z" style="fill:#0f0f0f;fill-rule:nonzero;"/><path d="M291,479c2.312,0.062 2.312,0.062 5,1c7.675,12.508 5.845,31.995 5,46c-0.33,0.66 -0.66,1.32 -1,2c-2.812,0.312 -2.812,0.312 -6,0c-6.68,-8.912 -5.198,-22.618 -5.25,-33.188c-0.009,-1.207 -0.019,-2.413 -0.028,-3.657c0.004,-1.138 0.008,-2.276 0.012,-3.449c0.002,-1.026 0.005,-2.053 0.007,-3.11c0.259,-2.597 0.259,-2.597 2.259,-5.597Z" style="fill:#080808;fill-rule:nonzero;"/><path d="M893,302c5.258,5.258 4.224,14.563 4.233,21.536c-0.006,1.538 -0.015,3.076 -0.028,4.614c-0.018,2.372 -0.021,4.743 -0.02,7.115c-0.005,1.505 -0.011,3.01 -0.018,4.516c-0.001,0.71 -0.002,1.421 -0.003,2.152c-0.048,4.95 -0.048,4.95 -1.165,6.066c-2.312,0.375 -2.312,0.375 -5,0c-4.101,-4.101 -4.947,-7.189 -5.114,-12.851c0,-1.545 0.006,-3.089 0.016,-4.634c0.001,-0.816 0.003,-1.631 0.004,-2.471c0.006,-2.598 0.018,-5.196 0.031,-7.794c0.005,-1.764 0.01,-3.529 0.014,-5.293c0.011,-4.319 0.028,-8.638 0.049,-12.957c2.706,-1.353 4.133,-0.788 7,0Z" style="fill:#060606;fill-rule:nonzero;"/><path d="M462.625,601.875c0.784,0.041 1.567,0.082 2.375,0.125c2.792,8.839 3.445,17.229 3.336,26.412c-0.024,2.179 -0.02,4.356 -0.014,6.535c-0.042,10.633 -0.042,10.633 -2.322,14.053c-2.312,-0.188 -2.312,-0.188 -5,-1c-3.619,-4.381 -3.424,-8.543 -3.363,-13.949c-0,-0.854 -0.001,-1.708 -0.002,-2.587c0.002,-1.798 0.012,-3.596 0.029,-5.393c0.024,-2.759 0.021,-5.516 0.014,-8.275c0.006,-1.748 0.013,-3.496 0.021,-5.244c-0.001,-0.827 -0.002,-1.654 -0.003,-2.506c0.099,-7.94 0.099,-7.94 4.929,-8.17Z" style="fill:#060606;fill-rule:nonzero;"/><path d="M519,602c2.5,0.188 2.5,0.188 5,1c5.282,7.923 4.205,19.504 4.25,28.688c0.009,1.076 0.018,2.152 0.028,3.26c-0.004,1.011 -0.008,2.022 -0.012,3.064c-0.002,0.912 -0.005,1.825 -0.007,2.764c-0.259,2.224 -0.259,2.224 -2.259,4.224c-2.438,0 -2.438,0 -5,-1c-5.324,-7.796 -4.182,-18.337 -4.188,-27.375c-0.012,-1.187 -0.024,-2.374 -0.037,-3.598c-0.002,-1.131 -0.004,-2.261 -0.006,-3.426c-0.004,-1.028 -0.008,-2.056 -0.012,-3.115c0.243,-2.487 0.243,-2.487 2.243,-4.487Z" style="fill:#0c0c0c;fill-rule:nonzero;"/><path d="M568,601c4.75,0.75 4.75,0.75 7,3c2.208,8.548 2.205,17.48 2.25,26.25c0.009,1.024 0.018,2.049 0.028,3.104c-0.004,0.961 -0.008,1.922 -0.012,2.911c-0.002,0.864 -0.005,1.728 -0.007,2.618c-0.259,2.116 -0.259,2.116 -2.259,4.116c-2.438,-0.062 -2.438,-0.062 -5,-1c-5.131,-6.047 -4.182,-15.472 -4.188,-23c-0.012,-0.851 -0.024,-1.702 -0.037,-2.578c-0.013,-5.483 0.683,-10.157 2.225,-15.422Z" style="fill:#101010;fill-rule:nonzero;"/><path d="M819,595c2.438,0.25 2.438,0.25 5,1c6.261,9.392 5.91,26.14 5,37c-0.66,0.99 -1.32,1.98 -2,3c-2.438,0.438 -2.438,0.438 -5,0c-3.461,-3.09 -3.496,-6.562 -4,-11c-0.088,-2.33 -0.131,-4.661 -0.133,-6.992c-0.001,-1.281 -0.003,-2.563 -0.004,-3.883c0.002,-0.656 0.004,-1.312 0.006,-1.988c0.005,-2.027 0,-4.055 -0.006,-6.082c0.001,-1.274 0.003,-2.547 0.004,-3.859c0.001,-1.165 0.002,-2.33 0.003,-3.531c0.129,-2.665 0.129,-2.665 1.129,-3.665Z" style="fill:#0b0a0a;fill-rule:nonzero;"/><path d="M911,604l3,0l0,3l2,0c0,6.002 -3.248,8.877 -7.188,12.949c-2.017,2.013 -2.017,2.013 -2.812,5.051c-1.65,0.33 -3.3,0.66 -5,1c-4,-5.625 -4,-5.625 -4,-9c-0.495,0.165 -0.99,0.33 -1.5,0.5c-3.534,0.707 -6.897,0.56 -10.5,0.5c-0.66,-1.32 -1.32,-2.64 -2,-4c5.445,-0.495 5.445,-0.495 11,-1c-0.33,-1.98 -0.66,-3.96 -1,-6c1.132,0.035 2.264,0.07 3.43,0.105c1.482,0.028 2.964,0.055 4.445,0.082c0.746,0.025 1.493,0.05 2.262,0.076c2.425,0.066 2.425,0.066 5.863,-0.264c0.66,-0.99 1.32,-1.98 2,-3Z" style="fill:#0d0d0d;fill-rule:nonzero;"/><path d="M148.062,809.688c7.047,0.078 12.936,3.45 17.938,8.312c3.802,5.28 5.36,10.428 5,17c-0.66,0.66 -1.32,1.32 -2,2c-2.48,-0.016 -2.48,-0.016 -5,-1c-1.301,-2.547 -1.301,-2.547 -2.312,-5.75c-2,-5.285 -3.618,-7.787 -8.621,-10.379c-1.986,-0.837 -3.989,-1.606 -6.004,-2.371c-3.062,-1.5 -3.062,-1.5 -4.062,-4.125c0,-3.926 1.552,-3.573 5.062,-3.688Z" style="fill:#0b0b0b;fill-rule:nonzero;"/><path d="M964,91c3,2.062 3,2.062 5,5c0,3.544 -0.341,5.866 -2.125,8.938c-3.109,1.762 -5.383,1.544 -8.875,1.062c-3.421,-2.475 -4.795,-3.883 -5.562,-8.062c0.562,-2.938 0.562,-2.938 2.125,-5.312c3.412,-2.275 5.414,-2.26 9.438,-1.625Z" style="fill:#0d0d0d;fill-rule:nonzero;"/><path d="M1016.902,90.652c2.098,0.348 2.098,0.348 4.16,1.973c1.235,3.129 1.483,5.035 0.938,8.375c-2.062,2.938 -2.062,2.938 -5,5c-3.819,0.066 -5.98,-0.144 -8.938,-2.625c-1.48,-3.307 -1.453,-5.795 -1.062,-9.375c2.755,-3.743 5.543,-3.511 9.902,-3.348Z" style="fill:#0b0c0c;fill-rule:nonzero;"/><path d="M992,91c2.5,2.062 2.5,2.062 4,5c0,3.814 -0.15,6.024 -2.688,8.938c-3.049,1.401 -4.992,1.547 -8.312,1.062c-2.375,-1.562 -2.375,-1.562 -4,-4c-0.563,-3.94 -0.604,-6.058 1.562,-9.438c3.405,-2.182 5.472,-2.2 9.438,-1.562Z" style="fill:#0a0a0a;fill-rule:nonzero;"/><path d="M72,77c2.5,1.562 2.5,1.562 4,4c0,3.788 -0.163,6.039 -2.688,8.938c-3.081,1.415 -4.96,1.621 -8.312,1.062c-2.438,-2.062 -2.438,-2.062 -4,-5c0.062,-3.688 0.062,-3.688 1,-7c3.721,-2.48 5.598,-2.463 10,-2Z" style="fill:#0d0d0d;fill-rule:nonzero;"/><path d="M73,127c2.312,1.625 2.312,1.625 4,4c0.61,3.659 0.445,5.305 -1.562,8.438c-2.438,1.562 -2.438,1.562 -6,1.562c-3.438,-1 -3.438,-1 -5.375,-2.75c-1.309,-2.773 -1.667,-4.225 -1.062,-7.25c3.094,-3.27 5.466,-4.93 10,-4Z" style="fill:#0c0d0d;fill-rule:nonzero;"/><path d="M74,103c2.469,3.704 2.469,5.621 2,10c-2.233,2.663 -3.62,2.953 -7.062,3.375c-2.938,-0.375 -2.938,-0.375 -4.812,-1.375c-1.814,-3.225 -1.784,-6.4 -1.125,-10c3.051,-4.027 6.451,-3.179 11,-2Z" style="fill:#0a0a0a;fill-rule:nonzero;"/><path d="M138,512c1.812,1.188 1.812,1.188 3,3c0.394,3.149 0.529,5.119 -1.125,7.875c-2.756,1.654 -4.726,1.519 -7.875,1.125c-1.875,-1.062 -1.875,-1.062 -3,-3c-0.438,-3.5 -0.438,-3.5 0,-7c2.819,-3.341 4.989,-3.44 9,-2Z" style="fill:#0a0a0a;fill-rule:nonzero;"/><path d="M964,485c1.812,1 1.812,1 3,3c0.367,2.801 0.227,5.138 0,8c-2,2 -2,2 -4.938,2.312c-3.062,-0.312 -3.062,-0.312 -4.938,-1.375c-1.768,-3.044 -1.493,-5.501 -1.125,-8.938c2.048,-3.342 4.245,-3.563 8,-3Z" style="fill:#0a0a0a;fill-rule:nonzero;"/><path d="M985,485c2.375,1.625 2.375,1.625 4,4c-0.148,3.699 -0.358,5.358 -3,8c-3.5,0.312 -3.5,0.312 -7,0c-2.313,-3.469 -2.425,-4.922 -2,-9c2.09,-3.3 4.246,-3.641 8,-3Z" style="fill:#0c0c0c;fill-rule:nonzero;"/><path d="M1023,613l0,4c-0.638,0.349 -1.276,0.699 -1.934,1.059c-0.826,0.455 -1.653,0.91 -2.504,1.379c-0.824,0.452 -1.647,0.905 -2.496,1.371c-1.989,1.028 -1.989,1.028 -3.066,2.191c-7.459,0.361 -7.459,0.361 -11,-2l0,-3c0.664,-0.11 1.328,-0.219 2.012,-0.332c6.776,-1.217 12.179,-5.143 18.988,-4.668Z" style="fill:#141514;fill-rule:nonzero;"/><path d="M1006,485c2.375,1.688 2.375,1.688 4,4c0,3.227 -0.551,4.519 -2.75,6.875c-2.25,1.125 -2.25,1.125 -4.875,1c-2.375,-0.875 -2.375,-0.875 -4.375,-3.875c-0.358,-2.867 -0.411,-4.372 1.188,-6.812c2.502,-1.639 3.873,-1.689 6.812,-1.188Z" style="fill:#121212;fill-rule:nonzero;"/><path d="M90.375,77.625c2.625,0.375 2.625,0.375 5,2.062c1.625,2.312 1.625,2.312 1.5,4.938c-0.875,2.375 -0.875,2.375 -2.875,4.375c-3.13,0.333 -5.179,0.477 -7.938,-1.125c-1.619,-2.856 -0.914,-4.798 -0.062,-7.875c2,-2 2,-2 4.375,-2.375Z" style="fill:#111;fill-rule:nonzero;"/><path d="M89,104c6.577,0.577 6.577,0.577 8,2c0.188,2.938 0.188,2.938 0,6c-2,2 -2,2 -5,2.312c-0.99,-0.103 -1.98,-0.206 -3,-0.312c-2.149,-3.224 -2.383,-4.267 -2,-8c0.66,-0.66 1.32,-1.32 2,-2Z" style="fill:#101010;fill-rule:nonzero;"/><path d="M1036,614c-0.253,3.421 -1.308,4.308 -3.812,6.812c-3.188,2.188 -3.188,2.188 -5.562,2c-0.536,-0.268 -1.072,-0.536 -1.625,-0.812l0,-7c3.734,-0.879 7.168,-1.089 11,-1Z" style="fill:#171717;fill-rule:nonzero;"/><path d="M90,129c3.297,0.33 4.623,0.623 7,3c-0.536,3.536 -0.536,3.536 -2,5c-2,0.041 -4,0.043 -6,0c-0.625,-2.875 -0.625,-2.875 -1,-6c0.66,-0.66 1.32,-1.32 2,-2Z" style="fill:#3e3d3e;fill-rule:nonzero;"/><path d="M880,671c0.99,0.33 1.98,0.66 3,1c0.309,0.66 0.619,1.32 0.938,2c0.883,2.206 0.883,2.206 3.188,2.75c0.619,0.082 1.237,0.165 1.875,0.25c-0.33,1.32 -0.66,2.64 -1,4c-3.511,-0.293 -4.805,-0.81 -7.375,-3.312c-1.625,-2.688 -1.625,-2.688 -1.375,-5c0.247,-0.557 0.495,-1.114 0.75,-1.688Z" style="fill:#1c1c1c;fill-rule:nonzero;"/></svg>