<?xml version="1.0" encoding="UTF-8" standalone="no"?><!DOCTYPE svg PUBLIC "-//W3C//DTD SVG 1.1//EN" "http://www.w3.org/Graphics/SVG/1.1/DTD/svg11.dtd"><svg width="100%" height="100%" viewBox="0 0 777 724" version="1.1" xmlns="http://www.w3.org/2000/svg" xmlns:xlink="http://www.w3.org/1999/xlink" xml:space="preserve" xmlns:serif="http://www.serif.com/" style="fill-rule:evenodd;clip-rule:evenodd;stroke-linejoin:round;stroke-miterlimit:2;"><rect id="Artboard2" x="0" y="0" width="776.708" height="723.988" style="fill:none;"/><clipPath id="_clip1"><rect x="0" y="0" width="776.708" height="723.988"/></clipPath><g clip-path="url(#_clip1)"><rect id="Artboard1" x="-45" y="-28" width="887" height="861" style="fill:none;stroke:#000;stroke-width:1px;"/><path d="M170.754,259.438c0.146,0.603 0.293,1.205 0.444,1.826c0.463,1.91 0.915,3.823 1.365,5.737c0.456,1.913 0.914,3.825 1.376,5.737c0.418,1.734 0.829,3.469 1.24,5.205c0.754,2.806 1.73,5.372 2.822,8.059c0.583,3.305 1.007,6.613 1.438,9.941c2.031,11.046 11.838,8.943 20.938,7.059c6.248,-1.242 50.804,-0.965 33.75,13.438c-0.534,0.452 -1.067,0.905 -1.617,1.371c-2.965,2.343 -4.971,2.289 -8.68,2.219c-1.051,-0.014 -2.102,-0.027 -3.184,-0.041c-1.12,-0.016 -2.24,-0.032 -3.394,-0.049c-8.33,-0.071 -16.287,0.11 -24.48,1.625c-2.964,0.468 -5.774,0.509 -8.77,0.438c0.266,0.811 0.531,1.622 0.805,2.457c3.287,10.22 5.355,19.751 5.195,30.543c0.751,0.015 1.502,0.029 2.276,0.044c2.816,0.061 5.632,0.136 8.448,0.218c1.213,0.033 2.426,0.061 3.64,0.084c10.462,0.202 29.047,2.44 17.636,17.654c-9.495,2.482 -18.321,1.84 -28,1c0.325,9.144 0.88,17.984 2.984,26.912c2.713,11.81 -5.594,27.416 -16.984,15.088c-6.579,-12.878 -6.604,-28.859 -8,-43c-7.598,-0.278 -15.006,0.182 -22.562,0.938c-1.321,0.13 -1.321,0.13 -2.669,0.263c-6.989,-0.006 -6.989,-0.006 -9.721,4.657c0.054,3.513 0.089,7.026 0.117,10.539c0.015,1.518 0.035,3.036 0.062,4.554c0.037,2.187 0.053,4.374 0.067,6.561c0.015,0.674 0.031,1.348 0.047,2.043c0.002,5.805 -1.608,9.997 -7.027,12.758c-0.623,0.326 -1.245,0.652 -1.887,0.988c-14.557,7.139 -13.973,-17.367 -13.738,-24.863c0.025,-1.404 0.048,-2.809 0.068,-4.213c0.055,-3.409 0.141,-6.816 0.244,-10.225c-0.507,0.03 -1.015,0.061 -1.538,0.092c-2.383,0.14 -4.766,0.274 -7.15,0.408c-1.196,0.072 -1.196,0.072 -2.416,0.145c-11.339,0.627 -22.285,0.477 -33.51,-1.189c-1.845,-0.271 -3.692,-0.522 -5.54,-0.77c-1.197,-0.171 -2.395,-0.344 -3.592,-0.518c-1.059,-0.152 -2.118,-0.304 -3.209,-0.46c-9.718,-2.259 -15.251,-8.543 -5.045,-16.708c2.563,-0.027 5.125,-0.047 7.688,-0.062c0.721,-0.008 1.442,-0.017 2.186,-0.025c3.88,-0.018 7.322,0.273 11.127,1.088c2.662,0.266 5.329,0.417 8,0.562c0.75,0.042 1.499,0.083 2.272,0.126c19.628,1.023 52.001,-23.053 22.728,-37.689c-4.031,-0.212 -8.066,-0.186 -12.102,-0.185c-1.995,-0.002 -3.989,-0.02 -5.984,-0.039c-6.617,-0.028 -12.519,0.366 -18.914,2.225c-14.663,-0.64 -12.275,-12.138 -1.188,-17.312c8.129,-1.753 16.28,-1.781 24.562,-1.812c0.868,-0.005 1.737,-0.009 2.631,-0.014c4.126,0.01 7.971,0.096 11.994,1.139c-0.277,-1.085 -0.554,-2.171 -0.84,-3.289c-0.366,-1.445 -0.732,-2.891 -1.098,-4.336c-0.274,-1.069 -0.274,-1.069 -0.553,-2.16c-2.856,-11.32 1.3,-33.405 17.49,-17.215c0.182,1.123 0.364,2.246 0.551,3.402c4.229,25.419 11.505,24.635 35.449,22.598c-0.187,-0.619 -0.374,-1.237 -0.566,-1.875c-2.312,-8.009 -3.705,-16.033 -4.996,-24.25c-0.414,-2.607 -0.833,-5.214 -1.254,-7.82c-0.149,-0.928 -0.149,-0.928 -0.302,-1.875c-0.686,-4.186 -1.514,-8.314 -2.518,-12.434c-3.613,-17.317 18.09,-11.203 21.39,2.693l-0.002,-0.006Zm-20.809,62.781c-1.109,0.045 -2.217,0.09 -3.359,0.137c-1.142,0.048 -2.284,0.095 -3.461,0.145c-1.177,0.048 -2.354,0.096 -3.531,0.145c-14.34,0.588 -8.709,9.788 -7.031,21.918c0.208,1.513 0.208,1.513 0.42,3.057c1.232,8.966 4.41,9.791 13.51,9.357c0.591,-0.025 1.182,-0.05 1.79,-0.076c1.865,-0.081 3.728,-0.178 5.592,-0.276c1.273,-0.058 2.547,-0.116 3.82,-0.172c6.82,0.415 6.82,0.415 10.777,-3.797c0.273,-0.621 0.547,-1.241 0.828,-1.881c1.545,-3.925 1.079,-6.335 -1.114,-9.775c-2.748,-4.394 -3.544,-9.204 -4.574,-14.207c-1.572,-7.158 -7.348,-4.835 -13.668,-4.574l0.001,-0.001Z" style="fill-rule:nonzero;stroke:#000;stroke-width:1px;"/><path d="M413,239c0.115,0.466 0.23,0.931 0.348,1.411c3.038,12.2 6.682,24.092 10.761,35.982c1.468,4.298 2.896,8.609 4.328,12.92c0.499,1.496 0.997,2.992 1.496,4.488c0.352,1.056 0.704,2.111 1.066,3.199c0.862,0.161 1.723,0.322 2.611,0.487c3.239,0.608 6.476,1.23 9.712,1.856c1.393,0.268 2.786,0.531 4.181,0.791c34.525,6.442 34.525,6.442 23.184,19.803c-0.615,0.731 -1.23,1.462 -1.863,2.215c-2.43,2.461 -3.839,3.185 -7.176,2.043c-20.361,-6.658 -26.467,-7.753 -21.665,14.918c0.837,4.145 1.13,7.989 0.969,12.218c0.163,5.758 7.319,4.05 11.735,4.293c1.007,0.064 2.015,0.129 3.053,0.195c1.465,0.077 1.465,0.077 2.959,0.156c1.343,0.079 1.343,0.079 2.714,0.159c2.895,-0.151 4.97,-0.927 7.587,-2.135c14.659,1.832 21.494,16.622 5,22c-9.055,1.432 -17.935,0.883 -27,0c0.053,2.835 0.148,5.667 0.25,8.5c0.014,0.791 0.028,1.583 0.043,2.398c0.213,5.207 1.262,8.781 3.785,13.329c5.559,10.692 0.784,19.325 -11.078,18.773c-2.339,-5.082 -2.995,-10.287 -3.855,-15.762c-0.508,-3.083 -0.985,-5.846 -2.168,-8.75c-1.384,-3.527 -1.693,-7.052 -2.102,-10.801c-0.086,-0.741 -0.173,-1.481 -0.262,-2.244c-0.211,-1.814 -0.413,-3.628 -0.613,-5.443c-12.396,-12.396 -76.656,-8.187 -71.75,13.5c0.137,0.653 0.274,1.306 0.415,1.979c0.762,3.483 1.695,6.728 3.085,10.021c4.552,11.069 -4.61,22.742 -15.75,22.5c-2.971,-3.294 -3.596,-6.218 -4,-10.5c-0.073,-0.663 -0.145,-1.325 -0.22,-2.008c-0.169,-1.556 -0.332,-3.112 -0.49,-4.668c-0.344,-3.347 -0.711,-6.69 -1.079,-10.034c-0.549,-5.01 -1.093,-10.02 -1.625,-15.031c-0.113,-1.061 -0.226,-2.121 -0.342,-3.214c-0.244,-2.543 -0.244,-2.543 -0.244,-4.543l-38,0c-11.575,-9.646 -2.983,-19.207 9.609,-19.414c0.727,-0.019 1.454,-0.039 2.202,-0.059c2.313,-0.06 4.625,-0.106 6.938,-0.152c1.572,-0.038 3.143,-0.077 4.715,-0.117c3.845,-0.096 7.69,-0.18 11.535,-0.258c-0.617,-3.71 -1.245,-7.417 -1.875,-11.125c-0.174,-1.047 -0.348,-2.093 -0.527,-3.172c-0.174,-1.018 -0.348,-2.037 -0.527,-3.086c-0.157,-0.932 -0.314,-1.864 -0.476,-2.825c-4.456,-20.938 -7.613,-8.792 -42.594,-8.792c-21.116,-16.893 13.62,-20.189 24.625,-20.562c1.207,-0.043 2.414,-0.087 3.621,-0.131c2.918,-0.105 5.836,-0.207 8.754,-0.307c-0.121,-0.776 -0.242,-1.552 -0.367,-2.352c-0.452,-2.914 -0.899,-5.829 -1.342,-8.745c-0.192,-1.255 -0.386,-2.51 -0.582,-3.765c-1.672,-10.706 3.591,-41.41 17.291,-20.139c0.926,2.809 1.526,5.668 2.125,8.562c0.26,1.203 0.26,1.203 0.525,2.43c1.105,5.291 1.854,10.438 2.077,15.843c1.312,10.387 22.042,5.537 30.536,5.227c1.495,-0.054 2.991,-0.107 4.487,-0.16c26.396,-1.002 30.879,-5.003 20.519,-30.719c-1.996,-5.023 -3.16,-9.918 -4.019,-15.247c-0.138,-0.764 -0.276,-1.528 -0.418,-2.314c-2.133,-12.856 -2.133,-12.856 6.168,-15.623c0,-4.958 6.941,0.359 9,2l0,0.001Zm-6.469,78.84c-9.597,1.673 -19.322,2.093 -29.031,2.723c-2.857,0.188 -5.714,0.377 -8.571,0.571c-1.764,0.119 -3.528,0.235 -5.292,0.347c-13.968,0.936 -17.925,24.327 -5.637,32.519c1.427,-0.008 1.427,-0.008 2.883,-0.016c3.606,-0.018 7.213,-0.03 10.819,-0.039c1.547,-0.005 3.093,-0.012 4.64,-0.021c13.739,-0.076 27.27,0.716 40.951,1.99c10.903,0.346 6.523,-11.027 4.832,-18.664c-0.261,-1.255 -0.261,-1.255 -0.527,-2.535c-0.842,-3.908 -1.802,-7.138 -3.598,-10.715c-0.383,-1.991 -0.726,-3.991 -1,-6c-3.832,-0.981 -6.6,-0.902 -10.469,-0.16Z" style="fill-rule:nonzero;stroke:#000;stroke-width:1px;"/><path d="M141.25,1.312c0.603,0.244 1.207,0.487 1.828,0.738c18.192,8.985 7.205,23.629 8.922,49.949c15.71,3.046 30.781,5.619 46.759,6.191c7.159,0.338 32.385,10.079 12.667,17.82c-3.452,1.144 -6.637,1.105 -10.23,0.817c-0.637,-0.042 -1.274,-0.084 -1.93,-0.127c-2.048,-0.138 -4.094,-0.294 -6.14,-0.451c-1.406,-0.099 -2.812,-0.198 -4.219,-0.296c-8.341,-0.599 -16.635,-1.365 -24.91,-2.586c-10.386,-1.273 -9.325,1.017 -6.121,9.82c3.332,9.913 3.797,20.715 4.8,31.064c1.456,12.293 15.571,7.756 26.263,7.311c0.995,-0.039 1.989,-0.078 3.014,-0.119c4.77,-0.21 9.344,-0.588 14.049,-1.444c13.209,-0.746 32.97,-1.598 25,17c-7.205,1.968 -14.179,2.398 -21.621,2.598c-1.193,0.039 -2.386,0.078 -3.579,0.119c-3.111,0.104 -6.222,0.198 -9.334,0.29c-5.003,0.148 -10.006,0.307 -15.009,0.472c-1.743,0.056 -3.485,0.105 -5.228,0.154c-1.578,0.05 -1.578,0.05 -3.188,0.102c-0.928,0.027 -1.855,0.055 -2.811,0.083c-6.506,0.533 -3.559,6.037 -2.855,11.058c0.126,0.918 0.253,1.836 0.383,2.781c1.597,11.342 4.125,22.454 6.713,33.603c1.521,6.566 2.84,13.02 3.304,19.759c0.155,2.166 0.155,2.166 1.35,4.731c3.762,9.674 -6.598,13.382 -15.125,11.25l0,-2c-0.99,-0.33 -1.98,-0.66 -3,-1c-3.021,-4.615 -4.583,-8.513 -5,-14.062c-0.701,-6.91 -1.724,-13.724 -2.938,-20.562c-0.158,-0.936 -0.316,-1.872 -0.479,-2.836c-0.914,-5.082 -2.156,-9.005 -4.584,-13.539c-2.27,-8.762 -2.533,-17.995 -3,-27c-26.66,-26.66 -48.213,-12.636 -47.688,11.125c0.025,1.459 0.05,2.919 0.075,4.422c0.032,1.174 0.066,2.349 0.1,3.523c0.006,0.595 0.012,1.191 0.019,1.804c0.149,4.402 1.458,7.276 3.493,11.125c0.752,2.846 0.752,2.846 1.281,5.781c0.201,1.083 0.402,2.166 0.609,3.282c0.201,1.134 0.403,2.268 0.61,3.436c0.426,2.338 0.858,4.675 1.289,7.012c0.205,1.119 0.411,2.239 0.622,3.392c0.923,4.855 2.038,9.658 3.206,14.459c1.547,10.659 -13.212,22.86 -20.082,11.809c-2.982,-5.374 -3.16,-9.882 -3.098,-15.922c-0.15,-8.896 -1.242,-15.905 -4.438,-24.25c-3.447,-10.216 -5.368,-20.457 -4.973,-31.27c-0.024,-2.367 -0.224,-4.56 -0.529,-6.901c-0.093,-0.718 -0.185,-1.436 -0.281,-2.175c-0.006,-2.147 -0.006,-2.147 -3.24,-1.73c-3.757,-0.095 -7.515,-0.195 -11.272,-0.296c-1.616,-0.043 -3.231,-0.085 -4.847,-0.125c-47.177,-1.185 -47.177,-1.185 -30.859,-17.503c6.141,-0.746 12.259,-1.262 18.438,-1.562c0.852,-0.042 1.705,-0.085 2.583,-0.129c8.661,-0.397 17.311,-0.403 25.979,-0.309c-0.193,-0.937 -0.387,-1.874 -0.586,-2.84c-2.541,-12.968 -3.53,-25.988 -4.414,-39.16c-3.031,-1.01 -5.122,-1.142 -8.294,-1.174c-1.082,-0.013 -2.163,-0.027 -3.277,-0.041c-0.577,-0.005 -1.154,-0.01 -1.748,-0.015c-1.812,-0.016 -3.625,-0.04 -5.437,-0.065c-5.152,-0.071 -10.305,-0.131 -15.457,-0.182c-3.155,-0.032 -6.309,-0.073 -9.464,-0.12c-1.198,-0.016 -2.396,-0.028 -3.594,-0.037c-5.66,-0.041 -25.961,-0.256 -17.603,-11.241c0.394,-0.534 0.789,-1.067 1.195,-1.617c5.446,-4.889 13.46,-3.856 20.297,-3.922c1.225,-0.019 2.449,-0.038 3.674,-0.059c3.206,-0.051 6.411,-0.091 9.617,-0.128c3.278,-0.04 6.556,-0.091 9.834,-0.141c6.419,-0.096 12.838,-0.181 19.258,-0.258c-0.602,-4.631 -0.602,-4.631 -1.556,-9.194c-0.482,-1.963 -0.558,-3.678 -0.541,-5.696c0.003,-0.709 0.006,-1.418 0.01,-2.148c0.013,-1.094 0.013,-1.094 0.025,-2.211c0.005,-0.745 0.009,-1.49 0.014,-2.258c0.094,-14.65 11.945,-12.182 21.049,-6.492c0.754,6.354 1.292,12.697 1.719,19.082c0.638,6.615 2.899,11.109 11.281,6.918c1.572,-0.141 3.149,-0.226 4.727,-0.281c0.95,-0.037 1.9,-0.075 2.879,-0.113c0.996,-0.035 1.993,-0.07 3.02,-0.105c12.212,0.506 12.212,0.506 20.393,-4.155c0.064,-5.711 0.149,-11.422 0.245,-17.132c0.033,-2.128 0.061,-4.256 0.084,-6.384c0.034,-3.069 0.086,-6.136 0.142,-9.205c0.006,-0.943 0.013,-1.886 0.019,-2.858c0.15,-6.835 1.507,-21.648 11.742,-17.455l-0.001,0.001Zm-51.895,90.941c0.062,0.664 0.125,1.328 0.189,2.012c0.134,1.393 0.275,2.786 0.422,4.177c0.221,2.116 0.415,4.233 0.606,6.352c0.134,1.361 0.27,2.723 0.408,4.084c0.056,0.625 0.113,1.25 0.171,1.894c0.913,8.23 3.076,12.35 11.606,12.359c0.576,0.001 1.152,0.003 1.746,0.004c1.874,0.002 3.747,-0.004 5.621,-0.012c0.632,-0.001 1.264,-0.002 1.916,-0.003c29.373,0.102 29.373,0.102 26.647,-27.685c-0.2,-1.085 -0.401,-2.169 -0.607,-3.287c-4.932,-25.149 -51.397,-24.929 -48.725,0.104l0,0.001Z" style="fill-rule:nonzero;stroke:#000;stroke-width:1px;"/></g><path d="M210.562,487.125c0.124,0.662 0.247,1.323 0.375,2.005c0.363,1.955 0.714,3.912 1.063,5.87c0.186,1.003 0.371,2.006 0.562,3.039c0.33,1.792 0.655,3.585 0.973,5.379c0.305,1.693 0.625,3.383 0.961,5.07c1.308,6.682 2.091,13.367 2.719,20.143c1.886,18.905 17.876,14.707 33.848,13.931c1.524,-0.073 1.524,-0.073 3.08,-0.147c1.004,-0.048 2.007,-0.096 3.042,-0.146c5.147,-0.246 10.289,-0.447 15.441,-0.52c0.668,-0.021 1.336,-0.042 2.024,-0.064c15.238,-0.112 15.581,13.199 3.351,19.314c-2.116,0.062 -4.202,0.066 -6.316,0.031c-6.304,-0.052 -12.596,0.027 -18.898,0.188c-0.875,0.022 -1.75,0.044 -2.651,0.067c-2.691,0.07 -5.381,0.142 -8.072,0.214c-1.859,0.048 -3.717,0.097 -5.576,0.145c-8.262,-0.392 -8.262,-0.392 -13.319,1.929c1.815,17.052 1.815,17.052 2.395,23.411c0.075,0.81 0.15,1.619 0.227,2.453c0.145,1.588 0.285,3.177 0.422,4.766c0.99,10.511 2.101,16.221 14.164,14.109c1.11,-0.188 2.22,-0.376 3.363,-0.57c0.648,-0.114 1.296,-0.228 1.963,-0.345c2.778,-0.48 5.559,-0.935 8.341,-1.39c6.388,-1.047 6.388,-1.047 12.773,-2.105c0.902,-0.15 1.804,-0.299 2.733,-0.453c1.532,-0.281 3.058,-0.604 4.568,-0.99c15.573,-3.798 21.837,8.609 9.883,18.541c-0.743,0.619 -1.485,1.237 -2.25,1.875c-3.569,1.46 -6.461,1.213 -10.285,1.105c-6.676,0.038 -13.299,0.967 -19.925,1.729c-2.588,0.297 -5.177,0.584 -7.767,0.869c-14.691,1.618 -14.083,5.484 -10.523,19.484c0.227,0.929 0.455,1.858 0.689,2.815c0.99,4.011 2.011,8.009 3.143,11.982c2.491,8.753 4.014,17.502 5.409,26.496c1.028,6.401 2.457,12.094 4.759,18.153c2.097,6.97 -1.485,26.826 -13.062,14.574c-2.935,-3.693 -3.96,-7.905 -5.188,-12.395c-0.256,-0.912 -0.511,-1.824 -0.775,-2.764c-2.684,-9.974 -4.227,-20.106 -5.805,-30.301c-1.263,-7.878 -3.018,-15.527 -5.483,-23.123c-2.174,-6.755 -3.137,-13.476 -3.938,-20.5c-11.479,0.094 -22.018,1.164 -33.106,4.195c-5.191,1.414 -10.094,2.335 -15.484,2.625c-9.078,0.154 -9.078,0.154 -12.535,6.18c-0.023,0.743 -0.046,1.485 -0.07,2.25c0.11,2.879 0.11,2.879 1.137,6.055c1.788,6.767 1.765,13.864 2.121,20.82c0.117,2.148 0.236,4.296 0.355,6.444c0.078,1.413 0.154,2.826 0.229,4.24c0.182,3.397 0.391,6.787 0.667,10.177c0.051,0.63 0.101,1.261 0.153,1.91c0.14,1.704 0.289,3.407 0.439,5.11c0.349,11.078 -9.88,22.046 -16.906,7.994c-0.107,-1.313 -0.156,-2.631 -0.174,-3.949c-0.013,-0.816 -0.027,-1.632 -0.041,-2.473c-0.016,-1.334 -0.016,-1.334 -0.032,-2.695c-0.033,-1.908 -0.066,-3.815 -0.1,-5.723c-0.047,-2.987 -0.091,-5.975 -0.131,-8.962c2.062,-27.489 2.062,-27.489 -11.398,-41.823c-0.947,0.046 -0.947,0.046 -1.914,0.094c-4.646,0.279 -9.062,1.052 -13.614,2.01c-4.34,0.871 -8.715,1.472 -13.097,2.084c-0.873,0.126 -1.745,0.251 -2.645,0.381c-2.616,0.37 -5.235,0.719 -7.855,1.057c-0.903,0.12 -1.807,0.239 -2.738,0.363c-0.878,0.105 -1.756,0.209 -2.661,0.317c-0.786,0.097 -1.571,0.193 -2.38,0.292c-13.396,0.168 -11.107,-12.598 -1.193,-17.06c5.099,-2.151 10.131,-3.022 15.589,-3.764c0.979,-0.145 1.958,-0.29 2.967,-0.439c3.095,-0.457 6.193,-0.897 9.291,-1.334c3.119,-0.446 6.238,-0.896 9.355,-1.356c1.932,-0.284 3.865,-0.56 5.799,-0.828c0.872,-0.127 1.743,-0.254 2.641,-0.385c0.766,-0.108 1.531,-0.216 2.32,-0.327c9.399,-2.243 3.411,-21.625 1.509,-28.792c-2.504,-9.661 -2.792,-19.766 -3.5,-29.688c-15.998,0.435 -31.525,1.788 -47.062,5.75c-3.497,0.865 -15.938,3.441 -15.938,-1.75c-0.99,-0.33 -1.98,-0.66 -3,-1c2.687,-16.124 24.559,-16.738 38,-19c1.137,-0.196 2.274,-0.392 3.445,-0.594c7.508,-1.23 14.967,-1.934 22.555,-2.406c-0.417,-14.896 -0.417,-14.896 -2.062,-29.688c-5.295,-33.527 -5.295,-33.527 10.062,-24.312c3.233,7.086 4.858,13.65 5.688,21.375c0.12,1.031 0.241,2.061 0.365,3.123c1.092,9.811 1.648,19.637 1.948,29.502c43.783,4.011 43.783,4.011 59.758,-23.18c-0.128,-0.853 -0.257,-1.706 -0.389,-2.584c-0.271,-1.794 -0.545,-3.587 -0.822,-5.38c-0.419,-2.715 -0.829,-5.432 -1.238,-8.149c-1.712,-11.421 -1.712,-11.421 -3.963,-22.745c-3.628,-20.575 14.409,-13.914 17.217,2.163l0,0.001Zm-30.312,75.375c-8.201,2.033 -16.482,2.054 -24.895,2.289c-19.324,0.584 -15.143,13.469 -11.512,29.572c1.238,5.597 1.864,11.209 2.334,16.918c1.689,17.45 22.292,8.3 34.709,5.619c9.322,-1.994 18.681,-3.531 28.113,-4.899c3.596,-3.596 2.226,-9.527 1.023,-14.168c-1.142,-4.915 -1.384,-9.677 -1.523,-14.707c-0.816,-21.664 -6.261,-26.58 -28.25,-20.625l0.001,0.001Z" style="fill-rule:nonzero;stroke:#000;stroke-width:1px;"/><path d="M694.312,458.375c0.801,0.255 1.601,0.51 2.426,0.773c4.453,1.677 5.274,2.858 6.637,7.289c0.255,0.824 0.51,1.647 0.773,2.496c1.95,7.023 3.193,13.94 3.852,21.195c0.122,1.251 0.122,1.251 0.246,2.527c0.343,3.523 0.673,7.048 1.004,10.572c0.245,2.592 0.497,5.184 0.75,7.776c0.106,1.175 0.106,1.175 0.215,2.374c1.792,18.318 9.502,15.856 26.434,15.495c22.039,-0.248 22.039,-0.248 16.352,11.127l-2,0c-0.33,0.99 -0.66,1.98 -1,3c-6.921,5.73 -12.711,7.002 -21.562,7.375c-1.104,0.068 -2.208,0.137 -3.346,0.207c-2.697,0.163 -5.393,0.302 -8.092,0.418c0.133,1.004 0.266,2.008 0.402,3.043c1.123,8.644 2.032,17.257 2.598,25.957c9.074,-0.21 17.72,-0.625 26.5,-3.062c5.989,-1.655 11.249,-2.493 17.5,-1.938c0.933,0.079 1.867,0.157 2.828,0.238c17.743,1.66 7.861,14.596 -0.828,21.762c-0.528,-0.015 -1.056,-0.03 -1.6,-0.046c-6.075,-0.097 -11.895,0.48 -17.9,1.359c-1.328,0.177 -1.328,0.177 -2.684,0.357c-16.56,2.371 -19.033,5.491 -12.867,21.342c1.537,4.37 2.474,8.81 3.438,13.336c0.494,2.61 0.494,2.61 1.613,4.652c0.179,1.601 0.319,3.206 0.438,4.812c0.263,2.999 0.541,5.134 1.688,7.938c2.642,6.792 -1.647,10.744 -7.312,13.438c-1.073,0.516 -1.073,0.516 -2.168,1.043c-8.5,3.978 -11.576,-10.097 -12.457,-15.355c-1.695,-9.272 -4.357,-17.893 -7.474,-26.768c-1.795,-5.299 -3.239,-10.712 -4.714,-16.107c-5.512,-2.756 -10.699,-1.163 -16.695,-0.401c-1.435,0.182 -2.87,0.362 -4.306,0.541c-9.669,1.181 -9.669,1.181 -19.249,2.922c-5.581,1.188 -11.193,1.622 -16.875,2.062c-1.052,0.086 -2.104,0.173 -3.188,0.262c-2.562,0.21 -5.125,0.414 -7.688,0.613c0.223,3.773 0.484,7.542 0.75,11.312c0.062,1.053 0.124,2.105 0.188,3.189c0.483,6.539 1.719,12.007 4.14,18.098c1.13,2.939 1.675,5.599 2.11,8.713c0.138,0.945 0.276,1.89 0.418,2.863c0.13,0.932 0.26,1.864 0.395,2.824c0.178,1.024 0.356,2.047 0.539,3.102c1.424,8.956 -4.341,30.297 -16.227,17.398c-1.634,-1.772 -1.634,-1.772 -3.312,-3.5c-0.342,-1.978 -0.673,-3.957 -1,-5.938c-0.186,-1.102 -0.371,-2.204 -0.562,-3.34c-0.405,-2.773 -0.415,-5.385 -0.316,-8.184c0.054,-4.656 -1.228,-8.01 -3.059,-12.227c-4.052,-10.173 -4.084,-20.484 -4.062,-31.312c-0.605,-0.015 -1.209,-0.029 -1.833,-0.044c-2.765,-0.075 -5.528,-0.171 -8.292,-0.268c-0.951,-0.023 -1.903,-0.045 -2.883,-0.068c-12.287,-0.469 -18.75,-4.483 -9.992,-17.619c5.94,-0.99 11.88,-1.98 18,-3c0,-6.124 -0.033,-9.752 -1.422,-15.316c-1.254,-5.822 -1.847,-11.777 -2.578,-17.684c-4.004,-1.831 -7.852,-2.516 -12.188,-3c-12.948,-1.574 -26.798,-4.018 -14.812,-19l23,0c-0.719,-14.204 -3.32,-28.149 -5.707,-42.152c-3.753,-22.705 -3.753,-22.705 5.895,-23.035c0.777,-0.035 1.555,-0.07 2.355,-0.105c13.454,1.604 12.47,29.069 13.832,39.555c0.366,2.797 0.745,5.591 1.125,8.386c0.106,0.85 0.213,1.7 0.322,2.576c2.44,17.745 15.704,13.144 30.219,10.986c8.528,-1.235 17.061,-1.931 25.659,-2.475c9.096,-0.038 9.096,-0.038 14.127,-4.802c-0.081,-0.971 -0.162,-1.941 -0.245,-2.941c-0.138,-1.648 -0.138,-1.648 -0.279,-3.329c-0.206,-2.476 -0.406,-4.951 -0.603,-7.428c-0.266,-3.349 -0.548,-6.696 -0.838,-10.043c-0.116,-1.374 -0.228,-2.748 -0.334,-4.123c-0.676,-8.695 -1.96,-16.596 -4.713,-24.89c-1.461,-5.693 -1.41,-9.389 2.122,-14.117c0.545,-0.731 1.091,-1.462 1.652,-2.215c2.537,-3.325 2.801,-2.736 6.723,-1.473l-0.003,0.002Zm-14.57,94.176c-0.778,0.059 -1.556,0.117 -2.357,0.177c-2.504,0.191 -5.007,0.387 -7.51,0.584c-1.273,0.099 -1.273,0.099 -2.571,0.201c-33.084,-0.152 -33.084,-0.152 -39.367,25.299c0.075,0.634 0.149,1.267 0.226,1.92c2.345,18.162 22.459,12.087 36.212,10.054c2.814,-0.412 5.631,-0.79 8.45,-1.166c16.616,-2.326 41.9,-17.895 22.174,-37.621c-5.119,-0.059 -10.155,0.158 -15.258,0.551l0.001,0.001Z" style="fill-rule:nonzero;stroke:#000;stroke-width:1px;"/><path d="M469,484.875c0.087,0.732 0.174,1.464 0.263,2.219c1.411,11.97 2.441,23.937 3.141,35.968c0.066,1.122 0.133,2.243 0.201,3.399c0.08,1.466 0.08,1.466 0.161,2.962c0.95,10.472 14.079,7.349 22.234,4.577c7.687,-1.485 39.577,-1.218 22.938,13.812c-0.568,0.522 -1.137,1.044 -1.723,1.582c-5.305,3.845 -10.259,4.997 -16.715,5.105c-22.165,0.836 -25.815,4.24 -21,26.625c0.242,1.159 0.483,2.318 0.723,3.477c2.473,11.87 8.292,10.786 19.715,10.773c1.141,0.002 2.281,0.004 3.457,0.006c8.869,-0.066 17.358,-1.186 26.043,-3.046c15.563,-3.26 15.563,-3.26 15.563,1.665l2,0c6.29,12.58 -9.487,18.584 -19,19.75c-0.845,0.116 -1.69,0.233 -2.561,0.353c-9.948,1.264 -19.968,1.533 -29.986,1.739c-9.888,0.636 -8.339,6.203 -5.641,14.408c2.084,6.665 3.203,13.354 4.148,20.265c0.583,4.135 1.349,7.635 3.04,11.485c3.758,13.867 1.686,23.854 -15,22c-4.636,-6.416 -6.041,-11.721 -7.062,-19.5c-0.318,-2.147 -0.641,-4.292 -0.969,-6.438c-0.159,-1.039 -0.317,-2.078 -0.48,-3.148c-0.648,-3.865 -1.538,-7.63 -2.551,-11.414c-2.073,-7.761 -3.549,-15.59 -4.938,-23.5c-16.106,1.605 -16.106,1.605 -30,8c-12.974,2.486 -25.982,4.76 -39,7c-0.191,13.879 0.581,26.645 4.062,40.125c0.918,3.612 1.472,7.177 1.938,10.875c0.093,0.684 0.39,2.873 0.5,3.688c0.378,2.508 0.818,4.876 1.5,7.312c-14.836,38.574 -26.149,-25.584 -28.05,-38.586c-0.256,-1.746 -0.519,-3.492 -0.781,-5.238c-0.879,-6.107 -1.409,-12.006 -1.169,-18.177c-0.66,0.046 -1.32,0.092 -2,0.139c-3.02,0.2 -6.041,0.374 -9.062,0.548c-1.038,0.073 -2.077,0.146 -3.146,0.221c-9.887,0.534 -28.202,-10.202 -12.791,-17.908c1.664,-0.22 3.335,-0.391 5.008,-0.535c0.986,-0.087 1.972,-0.174 2.988,-0.264c1.033,-0.087 2.065,-0.174 3.129,-0.264c1.04,-0.091 2.081,-0.182 3.152,-0.275c2.574,-0.224 5.148,-0.445 7.723,-0.662c-0.066,-0.581 -0.133,-1.162 -0.201,-1.76c-1.033,-10.008 -1.139,-20.034 -1.351,-30.086c-0.052,-2.393 -0.109,-4.785 -0.167,-7.177c-0.014,-0.727 -0.027,-1.454 -0.041,-2.203c-0.247,-10.134 -1.58,-11.799 -12.021,-11.984c-1.089,-0.028 -2.179,-0.057 -3.301,-0.086c-2.278,-0.052 -4.557,-0.096 -6.836,-0.133c-1.089,-0.031 -2.179,-0.062 -3.301,-0.094c-0.989,-0.02 -1.979,-0.04 -2.998,-0.06c-6.007,-0.899 -8.947,-2.904 -8.408,-8.729c0.07,-0.801 0.139,-1.601 0.211,-2.426c1.578,-8.618 12.223,-6.356 19.039,-6.262c1.867,0.026 3.734,0.047 5.602,0.062c0.821,0.012 1.641,0.023 2.487,0.035c11.807,-0.504 7.137,-16.835 6.474,-25.473c-0.129,-1.713 -0.129,-1.713 -0.261,-3.46c-0.619,-7.653 -1.624,-15.146 -2.954,-22.703c-2.029,-12.004 1.777,-37.53 16.028,-16.462c1.074,2.713 1.645,5.451 2.188,8.312c0.162,0.797 0.323,1.594 0.49,2.415c3.564,18.213 4.233,36.785 5.323,55.272c2.642,0.731 5.039,1.137 7.777,1.193c1.095,0.024 1.095,0.024 2.213,0.048c0.785,0.011 1.569,0.021 2.378,0.033c0.824,0.012 1.648,0.025 2.496,0.037c2.67,0.032 5.341,0.051 8.011,0.064c0.902,0.006 1.803,0.011 2.732,0.017c38.367,0.12 46.463,-8.357 39.862,-46.458c-1.557,-9.742 -1.551,-19.895 -1.719,-29.746c-0.021,-0.651 -0.043,-1.302 -0.065,-1.972c-0.215,-29.735 18.807,5.775 20.315,18.66l-0.004,0.003Zm-20.938,73c-14.688,4.351 -30.143,4.275 -45.312,4.188c-1.535,-0.005 -3.07,-0.01 -4.605,-0.014c-3.715,-0.011 -7.43,-0.028 -11.145,-0.049c-21.765,21.765 4.682,56.625 31.027,50.458c2.018,-0.468 4.041,-0.904 6.066,-1.336c9.904,-2.163 19.43,-5.118 28.998,-8.458c2.628,-0.913 5.267,-1.79 7.909,-2.663c0.184,-6.246 -0.308,-12.1 -1.375,-18.25c-0.275,-1.658 -0.55,-3.315 -0.824,-4.973c-0.136,-0.806 -0.272,-1.612 -0.412,-2.442c-0.556,-3.336 -1.069,-6.679 -1.577,-10.023c-0.159,-1.035 -0.317,-2.07 -0.48,-3.137c-0.164,-1.077 -0.164,-1.077 -0.332,-2.176c-2.825,-2.825 -4.237,-2.227 -7.938,-1.125Z" style="fill-rule:nonzero;stroke:#000;stroke-width:1px;"/></svg>