<?xml version="1.0" encoding="UTF-8" standalone="no"?><!DOCTYPE svg PUBLIC "-//W3C//DTD SVG 1.1//EN" "http://www.w3.org/Graphics/SVG/1.1/DTD/svg11.dtd"><svg width="100%" height="100%" viewBox="0 0 1280 832" version="1.1" xmlns="http://www.w3.org/2000/svg" xmlns:xlink="http://www.w3.org/1999/xlink" xml:space="preserve" xmlns:serif="http://www.serif.com/" style="fill-rule:evenodd;clip-rule:evenodd;stroke-linejoin:round;stroke-miterlimit:2;"><path d="M17,781l2,0l0,12l-4,-2l-2,-3l-2,6l-1,0l0,-12l4,2l2,3l1,-6Z" style="fill-rule:nonzero;"/><path d="M69,780l5,0l1,1l0,8l1,4l-6,-3l0,4l-2,0l-1,-3l-2,2l-5,0l-2,-3l-2,3l-3,-1l0,-2l-2,0l-1,3l-2,0l-2,-7l0,-5l2,0l2,4l4,2l2,-6l2,0l1,2l2,-2l4,1l2,3l2,-5Zm2,2l-1,3l3,-1l-2,-2Zm-10,2l0,6l4,0l-1,-6l-3,0Z" style="fill-rule:nonzero;"/><path d="M29,781l2,1l2,3l4,1l1,-5l2,0l0,8l-2,5l-4,-3l-1,2l-3,0l-1,-5l0,-7Z" style="fill-rule:nonzero;"/><path d="M122,780l6,0l0,2l-4,1l-1,3l4,1l-4,1l0,3l5,0l0,2l-7,1l-1,-2l0,-10l2,-2Z" style="fill-rule:nonzero;"/><path d="M115,780l3,1l0,2l-3,1l-1,7l5,-1l0,3l-6,0l-2,-2l0,-6l4,-5Z" style="fill-rule:nonzero;"/><path d="M105,780l2,0l4,11l0,3l-3,-1l0,-3l-3,0l-2,4l-2,0l2,-11l2,-3Zm0,5l0,2l2,0l0,-2l-2,0Z" style="fill-rule:nonzero;"/><path d="M89,780l3,0l0,2l-3,2l4,3l1,-7l6,0l2,2l-1,5l-4,1l0,6l-4,-1l-1,1l-9,-1l-2,-2l-2,3l-2,0l0,-13l2,0l1,3l4,-3l-1,4l-1,3l7,3l0,-3l-3,-2l1,-5l2,-1Zm8,2l0,4l3,-1l-1,-3l-2,0Z" style="fill-rule:nonzero;"/><path d="M23,780l5,0l-1,3l-4,0l0,3l4,0l0,2l-4,0l0,3l5,0l-1,3l-6,0l-1,-2l0,-7l1,-4l2,-1Z" style="fill-rule:nonzero;"/><path d="M67,722l3,0l2,10l8,0l2,1l-1,4l-10,0l0,10l-4,0l-1,-3l0,-7l-9,0l-1,-3l2,-1l8,0l0,-9l1,-2Z" style="fill-rule:nonzero;"/><path d="M66,709l7,0l11,4l1,4l0,2l6,8l2,5l0,11l-4,8l-8,7l-8,3l-9,0l-9,-4l-6,-5l-4,-6l-2,-8l1,-10l4,-8l7,-7l11,-4Zm-1,5l-8,4l-7,8l-2,6l0,8l4,8l8,7l3,1l11,0l8,-5l5,-6l2,-5l-1,-9l-5,-9l-5,-6l-3,-2l-10,0Z" style="fill-rule:nonzero;"/><rect x="343" y="706" width="3" height="3" style="fill-rule:nonzero;"/><path d="M329,693l9,0l1,1l0,16l-3,5l-5,1l-4,-2l-1,-3l3,0l6,2l1,-5l-6,1l-3,-3l-1,-2l0,-7l3,-4Zm2,2l-3,5l2,6l3,1l3,-2l0,-8l-2,-2l-3,0Z" style="fill-rule:nonzero;"/><path d="M312,693l9,0l2,2l0,14l-2,0l-1,-12l-4,-1l-1,1l-1,12l-3,0l0,-15l1,-1Z" style="fill-rule:nonzero;"/><rect x="305" y="693" width="3" height="16" style="fill-rule:nonzero;"/><rect x="291" y="693" width="3" height="16" style="fill-rule:nonzero;"/><path d="M282,693l7,0l0,3l-3,1l-2,12l-2,0l0,-16Z" style="fill-rule:nonzero;"/><path d="M260,693l3,0l3,9l3,-9l3,1l2,8l4,-9l2,0l-4,16l-3,0l-2,-5l0,-5l-2,0l-1,9l-4,1l-4,-16Z" style="fill-rule:nonzero;"/><path d="M239,693l3,0l3,9l2,-3l3,-6l2,0l-3,11l-4,10l-4,2l-1,-3l3,0l0,-7l-4,-11l0,-2Z" style="fill-rule:nonzero;"/><path d="M225,693l9,0l3,3l1,6l-2,6l-7,1l-2,-1l1,4l-1,3l-2,0l0,-22Zm4,2l-2,3l0,6l2,3l5,-1l1,-2l0,-6l-2,-3l-4,0Z" style="fill-rule:nonzero;"/><path d="M210,693l9,0l3,4l0,8l-3,4l-6,0l-1,6l-2,0l-1,-8l0,-9l1,-5Zm4,2l-2,2l0,8l2,2l4,-1l1,-1l0,-8l-2,-2l-3,0Z" style="fill-rule:nonzero;"/><path d="M197,693l7,0l2,3l0,13l-11,0l-2,-3l1,-4l5,-3l4,0l-1,-3l-5,1l-3,1l1,-4l2,-1Zm4,8l-5,2l1,4l6,-1l0,-5l-2,0Z" style="fill-rule:nonzero;"/><path d="M298,688l2,0l1,4l2,1l0,2l-2,1l0,10l2,1l0,2l-5,-1l0,-13l-2,0l0,-2l2,0l-1,-3l1,-2Z" style="fill-rule:nonzero;"/><path d="M343,687l3,0l0,16l-2,1l-1,-5l0,-12Z" style="fill-rule:nonzero;"/><path d="M305,687l3,0l0,3l-3,-1l0,-2Z" style="fill-rule:nonzero;"/><rect x="291" y="687" width="3" height="3" style="fill-rule:nonzero;"/><path d="M175,687l2,0l1,8l9,1l0,-9l3,0l0,22l-3,0l0,-10l-10,0l0,10l-2,0l0,-22Z" style="fill-rule:nonzero;"/><path d="M82,634l4,0l0,2l-3,1l-1,2l5,2l1,5l-2,2l-6,0l0,-3l4,0l-1,-3l-4,-4l1,-3l2,-1Z" style="fill-rule:nonzero;"/><path d="M50,634l7,1l2,4l2,0l2,-4l5,1l2,3l2,-4l5,-1l0,3l-3,1l-1,5l4,1l2,0l-1,3l-4,1l-5,-3l-3,3l-5,-2l-1,-2l-5,4l-4,0l-1,-4l0,-10Zm2,3l1,8l4,-2l-1,-5l-4,-1Zm12,0l-1,1l0,6l4,0l0,-5l-3,-2Z" style="fill-rule:nonzero;"/><path d="M198,610l5,2l1,6l-2,3l-4,1l-4,-2l-1,-6l2,-3l3,-1Z" style="fill-rule:nonzero;"/><path d="M480,610l9,0l2,3l0,13l-2,0l-1,-11l-1,-2l-4,1l-1,12l-3,0l0,-15l1,-1Z" style="fill-rule:nonzero;"/><path d="M467,610l6,0l3,3l0,6l-10,0l2,4l4,0l1,-2l3,0l-1,4l-3,2l-6,-1l-3,-4l0,-7l4,-5Zm1,2l-2,4l7,1l1,-2l-3,-3l-3,0Z" style="fill-rule:nonzero;"/><path d="M441,610l9,0l2,2l0,14l-2,0l-1,-12l-5,-1l-1,13l-2,0l0,-16Z" style="fill-rule:nonzero;"/><path d="M428,610l6,0l4,5l-1,9l-4,3l-6,-1l-3,-5l1,-8l3,-3Zm2,2l-3,3l0,6l2,3l5,-1l1,-1l0,-8l-2,-2l-3,0Z" style="fill-rule:nonzero;"/><path d="M414,610l6,0l3,3l0,2l-3,0l-1,-2l-4,0l-1,2l0,6l1,2l4,0l2,-3l2,0l-1,5l-6,2l-4,-2l-2,-8l2,-5l2,-2Z" style="fill-rule:nonzero;"/><path d="M395,610l7,0l0,3l-4,1l-1,12l-3,0l0,-15l1,-1Z" style="fill-rule:nonzero;"/><path d="M379,610l3,1l1,12l4,-1l1,-12l3,0l0,16l-8,1l-4,-3l0,-14Z" style="fill-rule:nonzero;"/><path d="M367,610l6,0l3,4l0,9l-5,4l-5,-1l-3,-4l0,-8l4,-4Zm1,2l-2,2l0,9l1,1l5,0l2,-4l-1,-6l-2,-2l-3,0Z" style="fill-rule:nonzero;"/><path d="M349,610l3,1l3,10l4,-11l3,1l-7,20l-2,2l-3,0l-1,-3l3,-1l1,-4l-4,-11l0,-4Z" style="fill-rule:nonzero;"/><path d="M330,610l6,0l3,4l0,5l-10,0l2,4l4,0l1,-2l3,0l-2,5l-6,1l-5,-5l0,-7l2,-4l2,-1Zm1,2l-2,4l7,0l0,-3l-5,-1Z" style="fill-rule:nonzero;"/><path d="M312,610l12,0l-2,5l-6,8l8,1l0,2l-13,0l2,-5l7,-9l-8,0l0,-2Z" style="fill-rule:nonzero;"/><rect x="306" y="610" width="3" height="16" style="fill-rule:nonzero;"/><path d="M291,610l10,0l2,3l0,13l-3,0l-1,-13l-4,1l-1,12l-3,0l0,-16Z" style="fill-rule:nonzero;"/><path d="M278,610l7,0l2,2l1,14l-10,1l-3,-3l0,-5l2,-2l8,-1l-1,-3l-6,0l0,2l-2,0l1,-4l1,-1Zm5,8l-5,2l0,4l5,0l2,-5l-2,-1Z" style="fill-rule:nonzero;"/><path d="M263,610l8,0l1,1l0,18l-4,4l-7,-1l-1,-4l8,1l0,-3l-7,-1l-2,-5l1,-7l3,-3Zm1,2l-2,3l0,6l2,3l4,-1l2,-4l-1,-5l-2,-2l-3,0Z" style="fill-rule:nonzero;"/><path d="M251,610l7,0l0,3l-3,1l-2,12l-2,0l0,-16Z" style="fill-rule:nonzero;"/><path d="M496,605l2,0l0,5l2,0l0,2l-2,0l0,12l3,1l-1,2l-5,-2l0,-13l-2,0l0,-2l2,0l1,-5Z" style="fill-rule:nonzero;"/><path d="M457,605l2,0l0,5l3,0l0,2l-3,0l1,11l2,1l0,2l-3,1l-2,-1l-1,-3l0,-10l-1,-3l2,-5Z" style="fill-rule:nonzero;"/><path d="M307,604l2,0l0,3l-3,-1l1,-2Z" style="fill-rule:nonzero;"/><path d="M238,603l6,2l3,3l1,3l0,8l-3,5l-5,3l-6,-1l-4,-4l-1,-3l0,-8l3,-5l2,-2l4,-1Zm-1,3l-5,5l0,8l4,5l5,0l4,-5l0,-8l-5,-5l-3,0Z" style="fill-rule:nonzero;"/><path d="M87,564l6,1l1,3l1,35l-2,2l-16,2l-6,5l-5,-1l-5,-4l-6,-2l-10,-1l-2,-3l0,-33l3,-3l11,0l9,3l3,2l7,-4l11,-2Zm-40,4l0,32l14,1l5,2l1,-17l0,-11l-4,-4l-13,-3l-3,0Zm38,1l-11,3l-4,4l0,28l9,-3l11,-1l0,-18l1,-13l-6,0Z" style="fill-rule:nonzero;"/><path d="M447,545l6,0l3,3l1,6l-11,0l2,4l4,0l1,-2l3,0l-1,4l-1,1l-8,0l-3,-5l0,-6l2,-4l2,-1Zm1,2l-2,4l8,0l-2,-4l-4,0Z" style="fill-rule:nonzero;"/><path d="M432,545l2,0l0,16l-3,0l1,-16Z" style="fill-rule:nonzero;"/><path d="M404,545l6,0l3,4l0,5l-10,0l2,4l4,0l1,-2l3,0l-1,4l-2,1l-7,0l-3,-4l0,-8l4,-4Zm1,2l-2,4l7,0l-1,-4l-4,0Z" style="fill-rule:nonzero;"/><path d="M379,545l10,0l3,7l-2,8l-7,1l-1,6l-3,0l0,-22Zm4,2l-1,1l0,9l2,2l4,-1l1,-2l0,-7l-2,-2l-4,0Z" style="fill-rule:nonzero;"/><rect x="373" y="545" width="2" height="16" style="fill-rule:nonzero;"/><path d="M343,545l3,0l1,12l5,1l1,-13l2,0l0,16l-10,0l-2,-3l0,-13Z" style="fill-rule:nonzero;"/><path d="M321,545l17,0l2,2l0,14l-3,0l-1,-13l-3,0l-1,2l-1,11l-2,0l-1,-12l-4,0l-1,12l-3,0l0,-15l1,-1Z" style="fill-rule:nonzero;"/><path d="M300,545l7,0l3,5l0,4l-10,0l2,4l4,-1l3,-1l-1,4l-5,2l-5,-2l-1,-2l0,-10l3,-3Zm1,2l-1,4l6,1l0,-4l-5,-1Z" style="fill-rule:nonzero;"/><path d="M277,545l7,0l2,3l0,13l-8,1l-5,-3l1,-6l9,-2l-1,-3l-5,1l-3,1l1,-4l2,-1Zm4,8l-5,2l1,4l5,-1l1,-5l-2,0Z" style="fill-rule:nonzero;"/><path d="M261,545l7,0l3,4l0,5l-9,0l1,4l5,0l0,-2l3,0l-2,4l-1,1l-7,0l-3,-4l0,-8l3,-4Zm2,2l-2,4l7,0l-1,-4l-4,0Z" style="fill-rule:nonzero;"/><path d="M255,544l2,1l-1,3l-3,1l-1,12l-3,0l0,-16l6,-1Z" style="fill-rule:nonzero;"/><path d="M197,545l5,1l2,3l-1,5l-2,2l-5,0l-3,-3l0,-5l4,-3Z" style="fill-rule:nonzero;"/><path d="M463,544l6,2l1,3l-3,0l-5,-1l0,2l7,3l1,1l0,5l-2,2l-7,0l-2,-2l0,-3l2,0l1,2l5,0l-1,-3l-7,-3l0,-5l4,-3Z" style="fill-rule:nonzero;"/><path d="M366,540l2,0l0,5l2,0l0,2l-2,0l1,11l2,1l0,2l-5,0l-1,-11l-1,-5l2,-5Z" style="fill-rule:nonzero;"/><path d="M290,540l3,0l0,5l2,0l0,2l-2,0l0,12l3,1l-5,1l-1,-1l0,-13l-2,0l0,-2l2,0l0,-5Z" style="fill-rule:nonzero;"/><rect x="438" y="539" width="2" height="22" style="fill-rule:nonzero;"/><rect x="432" y="539" width="2" height="3" style="fill-rule:nonzero;"/><rect x="394" y="539" width="3" height="22" style="fill-rule:nonzero;"/><rect x="373" y="539" width="2" height="3" style="fill-rule:nonzero;"/><path d="M359,539l3,1l-1,21l-2,0l0,-22Z" style="fill-rule:nonzero;"/><path d="M427,538l4,1l-1,2l-3,0l0,4l3,0l0,2l-3,0l0,14l-3,0l0,-14l-2,0l0,-2l2,0l1,-6l2,-1Z" style="fill-rule:nonzero;"/><path d="M237,538l6,1l3,4l-1,3l-4,-4l-7,0l-1,4l0,8l3,4l6,-1l2,-4l2,0l-1,5l-3,3l-5,1l-5,-2l-3,-6l0,-8l3,-5l5,-3Z" style="fill-rule:nonzero;"/><path d="M85,488l8,0l0,2l-3,1l-1,11l-2,0l0,-11l-4,0l-1,9l-2,2l-4,-1l-2,-4l-2,4l-4,1l-3,-3l0,-7l2,-3l5,1l5,0l1,8l2,-4l1,-5l4,-1Zm-17,4l-1,1l0,5l4,0l0,-5l-3,-1Z" style="fill-rule:nonzero;"/><path d="M56,488l6,0l1,5l1,7l-2,2l-6,0l0,-14Zm2,2l0,3l2,0l0,-3l-2,0Zm0,6l0,4l4,-2l-1,-2l-3,0Z" style="fill-rule:nonzero;"/><path d="M49,488l3,1l3,9l0,4l-3,-1l0,-3l-4,0l-1,4l-2,0l2,-10l2,-4Zm0,5l0,2l2,0l0,-2l-2,0Z" style="fill-rule:nonzero;"/><path d="M198,479l5,2l1,6l-4,4l-6,-2l-1,-6l2,-3l3,-1Z" style="fill-rule:nonzero;"/><path d="M452,479l4,1l6,-1l3,4l0,12l-4,1l-1,-12l-3,0l-1,2l-1,10l-4,-1l0,-15l1,-1Z" style="fill-rule:nonzero;"/><path d="M429,479l3,1l2,6l3,-7l4,1l1,8l2,0l1,-8l4,-1l-1,7l-3,10l-4,0l-2,-6l-1,0l-2,6l-4,-1l-4,-13l1,-3Z" style="fill-rule:nonzero;"/><path d="M417,479l7,1l3,4l0,7l-5,5l-6,0l-4,-5l0,-7l5,-5Zm0,4l-1,7l3,3l3,-1l1,-7l-1,-2l-5,0Z" style="fill-rule:nonzero;"/><path d="M370,479l4,1l4,-1l1,2l-2,3l-2,0l-1,11l-4,1l-1,-1l1,-16Z" style="fill-rule:nonzero;"/><path d="M357,479l6,0l3,3l1,13l-4,1l-8,0l-2,-3l1,-5l7,-3l0,-2l-7,1l2,-4l1,-1Zm3,9l-3,2l1,3l4,-2l0,-3l-2,0Z" style="fill-rule:nonzero;"/><path d="M313,479l5,1l2,4l0,11l-3,1l-1,-13l-4,0l-1,2l-1,11l-2,0l0,-16l5,-1Z" style="fill-rule:nonzero;"/><rect x="302" y="479" width="2" height="17" style="fill-rule:nonzero;"/><path d="M282,479l5,0l4,5l0,4l-10,1l1,3l3,1l5,-3l1,2l-4,4l-6,0l-3,-4l0,-9l4,-4Zm0,3l-1,4l7,0l-1,-4l-5,0Z" style="fill-rule:nonzero;"/><path d="M265,479l2,0l0,17l-3,-1l0,-15l1,-1Z" style="fill-rule:nonzero;"/><path d="M256,479l1,2l5,-2l1,3l-4,1l-1,12l-3,1l0,-16l1,-1Z" style="fill-rule:nonzero;"/><path d="M272,474l2,0l0,5l2,0l0,3l-2,0l1,11l2,2l-4,1l-2,-2l-1,-12l0,-3l2,-5Z" style="fill-rule:nonzero;"/><path d="M406,473l3,0l0,23l-10,0l-3,-3l-1,-2l0,-7l4,-5l5,1l2,-7Zm-5,9l-2,2l0,6l2,3l4,-2l0,-7l-4,-2Z" style="fill-rule:nonzero;"/><path d="M381,473l3,0l0,11l2,0l2,-4l5,-1l-2,4l-1,4l4,9l-5,-1l-3,-5l-2,6l-4,-1l0,-21l1,-1Z" style="fill-rule:nonzero;"/><path d="M331,473l6,0l4,12l3,-12l6,0l0,23l-4,-1l-1,-8l-3,9l-4,-1l-2,-9l-1,10l-4,0l0,-23Z" style="fill-rule:nonzero;"/><rect x="302" y="473" width="2" height="4" style="fill-rule:nonzero;"/><path d="M265,473l2,1l0,3l-3,-1l1,-3Z" style="fill-rule:nonzero;"/><path d="M228,473l3,0l4,16l4,-16l4,1l4,15l4,-16l2,0l-1,9l-3,12l-1,2l-3,-1l-4,-15l-5,16l-3,0l-5,-21l0,-2Z" style="fill-rule:nonzero;"/><path d="M68,440l3,2l0,15l-4,1l-1,-2l0,-12l2,-4Z" style="fill-rule:nonzero;"/><path d="M66,430l5,0l1,4l-1,1l-5,0l0,-5Z" style="fill-rule:nonzero;"/><path d="M63,416l12,0l2,1l-1,4l5,1l7,6l5,10l0,14l-6,10l-10,6l-5,1l-7,0l-9,-3l-8,-7l-5,-10l0,-10l3,-9l9,-10l8,-4Zm5,4l-9,3l-5,4l-5,8l-1,4l0,10l3,6l5,5l5,3l11,1l8,-3l7,-8l2,-6l-1,-10l-5,-8l-10,-6l-3,0l0,-3l-2,0Z" style="fill-rule:nonzero;"/><path d="M333,384l9,0l5,5l0,2l-5,1l-2,-2l-6,-1l1,3l10,4l3,4l-1,7l-3,3l-3,1l-7,0l-6,-4l-1,-4l1,-1l5,0l1,3l6,0l1,-3l-11,-4l-2,-3l0,-6l5,-5Z" style="fill-rule:nonzero;"/><path d="M310,384l8,0l5,5l1,2l0,8l-14,0l2,5l4,1l2,-3l6,1l-2,5l-4,3l-7,0l-5,-3l-2,-4l0,-13l3,-5l3,-2Zm3,5l-3,3l0,3l8,0l1,-2l-3,-4l-3,0Z" style="fill-rule:nonzero;"/><path d="M289,384l5,0l1,2l2,-2l6,1l-2,6l-5,1l-1,18l-6,0l0,-26Z" style="fill-rule:nonzero;"/><path d="M263,384l6,0l1,21l6,-1l1,-19l1,-1l5,0l0,26l-8,0l-1,1l-6,0l-4,-3l-1,-3l0,-21Z" style="fill-rule:nonzero;"/><path d="M229,384l10,0l4,4l1,22l-8,0l-2,1l-6,0l-4,-4l-1,-5l3,-5l3,-2l8,-1l-1,-4l-5,0l-1,2l-5,0l1,-6l3,-2Zm7,14l-6,2l-1,3l2,3l5,-1l1,-1l0,-6l-1,0Z" style="fill-rule:nonzero;"/><path d="M206,384l8,0l5,5l1,2l0,8l-14,0l2,5l4,1l2,-3l6,1l-2,5l-5,3l-6,0l-5,-3l-2,-4l0,-13l3,-5l3,-2Zm3,5l-3,3l0,3l9,0l-2,-5l-4,-1Z" style="fill-rule:nonzero;"/><path d="M253,376l2,0l0,8l4,1l0,5l-4,0l1,14l4,2l0,4l-7,1l-4,-4l0,-17l-2,0l-1,-5l2,-1l2,-6l3,-2Z" style="fill-rule:nonzero;"/><path d="M176,374l20,0l1,1l0,5l-1,1l-14,0l0,8l13,0l0,6l-13,0l0,15l-6,0l0,-36Z" style="fill-rule:nonzero;"/><path d="M50,344l4,1l2,2l0,7l-5,3l-3,-2l-1,-6l3,-5Zm1,2l-1,1l0,6l3,1l1,-6l-3,-2Z" style="fill-rule:nonzero;"/><path d="M103,343l5,0l0,2l-3,1l-1,2l4,2l1,5l-2,2l-5,0l0,-3l3,0l1,-3l-4,-2l-1,-4l2,-2Z" style="fill-rule:nonzero;"/><path d="M93,343l8,0l0,2l-3,0l0,12l-2,0l-1,-2l0,-9l-3,0l-2,10l-3,1l-4,-4l0,-8l2,-1l2,9l1,0l1,-8l4,-2Z" style="fill-rule:nonzero;"/><path d="M78,343l4,1l-1,2l-3,1l0,6l5,0l-1,3l-6,0l-2,-3l1,-7l3,-3Z" style="fill-rule:nonzero;"/><path d="M67,343l8,0l0,2l-4,0l0,12l-2,0l0,-11l-4,-1l2,-2Z" style="fill-rule:nonzero;"/><path d="M58,343l6,0l1,4l-2,4l3,3l0,2l-6,-3l-1,5l-2,-1l0,-13l1,-1Zm2,2l1,4l0,-4l-1,0Z" style="fill-rule:nonzero;"/><path d="M39,343l1,0l0,5l4,0l0,-4l2,0l0,13l-2,-1l0,-5l-4,0l0,6l-2,0l-1,-7l2,-7Z" style="fill-rule:nonzero;"/><path d="M31,343l4,0l0,2l-2,1l0,2l4,4l-1,4l-1,1l-6,0l0,-2l4,-1l-2,-4l-2,-2l1,-4l1,-1Z" style="fill-rule:nonzero;"/><path d="M68,304l13,0l3,3l-2,2l-25,0l-3,-1l0,-2l2,-1l12,-1Z" style="fill-rule:nonzero;"/><path d="M270,300l4,0l1,3l4,-3l5,1l4,6l1,4l0,7l-4,1l-3,-6l-1,-6l-3,3l-3,8l-3,1l-3,-3l0,-15l1,-1Z" style="fill-rule:nonzero;"/><path d="M215,299l3,2l0,2l5,-3l5,2l4,6l1,9l-4,2l-2,-2l-3,-9l-3,4l-3,7l-4,-1l-1,-2l0,-16l2,-1Z" style="fill-rule:nonzero;"/><path d="M589,298l7,0l5,4l3,3l6,-5l6,-1l5,3l4,1l2,-1l9,0l7,3l15,1l2,2l-1,4l-7,2l-11,0l-8,-3l-13,1l-5,-3l-4,2l-4,3l-7,0l-7,-8l-4,1l-6,7l-2,-1l1,-7l7,-8Z" style="fill-rule:nonzero;"/><path d="M341,299l7,1l5,4l1,7l-3,5l-4,3l-7,-1l-4,-5l0,-8l3,-5l2,-1Zm2,6l-2,5l2,3l4,-1l1,-5l-2,-2l-3,0Z" style="fill-rule:nonzero;"/><path d="M198,299l8,1l4,5l0,9l-6,5l-7,-1l-4,-5l0,-8l2,-4l3,-2Zm2,6l-1,1l0,6l4,1l2,-2l-1,-5l-4,-1Z" style="fill-rule:nonzero;"/><path d="M479,298l5,1l4,4l4,14l-2,2l-4,-1l-3,-4l-4,4l-6,0l-3,-3l0,-7l4,-7l5,-3Zm1,6l-4,5l1,3l4,-5l-1,-3Z" style="fill-rule:nonzero;"/><path d="M375,298l6,0l5,3l0,22l-3,6l-4,3l-5,1l-5,-2l-1,-4l5,-1l5,0l1,-11l-7,1l-3,-3l-1,-5l3,-7l4,-3Zm2,6l-3,5l3,0l2,-2l0,-3l-2,0Z" style="fill-rule:nonzero;"/><path d="M534,296l6,2l1,1l0,7l-4,4l-5,0l2,3l10,1l-1,5l-2,1l-9,0l-7,-6l-1,-6l2,-6l5,-5l3,-1Zm0,5l-2,4l4,-1l0,-3l-2,0Z" style="fill-rule:nonzero;"/><path d="M181,297l6,0l1,4l-7,5l-1,6l11,-1l1,5l-6,3l-6,0l-5,-3l-2,-4l1,-8l5,-6l2,-1Z" style="fill-rule:nonzero;"/><path d="M445,296l5,0l2,3l-1,2l-6,1l0,2l5,2l5,5l-1,6l-4,3l-9,0l-2,-2l1,-4l8,-1l-9,-7l0,-6l3,-3l3,-1Z" style="fill-rule:nonzero;"/><path d="M397,296l5,1l3,3l-1,7l-4,3l-4,2l1,1l10,1l0,4l-3,2l-8,0l-5,-3l-3,-4l0,-8l4,-7l5,-2Zm0,5l-2,4l4,-1l0,-3l-2,0Z" style="fill-rule:nonzero;"/><path d="M257,296l6,1l2,2l0,6l-5,5l-4,2l11,2l0,4l-2,2l-9,0l-5,-3l-3,-6l1,-8l4,-5l4,-2Zm1,5l-3,4l4,0l1,-3l-2,-1Z" style="fill-rule:nonzero;"/><path d="M80,295l2,1l-1,3l-3,-1l0,-2l2,-1Z" style="fill-rule:nonzero;"/><path d="M69,295l2,1l-1,3l-3,-1l0,-2l2,-1Z" style="fill-rule:nonzero;"/><path d="M57,296l4,0l-1,3l-3,0l0,-3Z" style="fill-rule:nonzero;"/><path d="M557,286l4,1l1,1l2,22l1,8l-1,2l-4,-1l-3,-3l-5,3l-5,-1l-3,-5l2,-9l5,-5l5,0l0,-11l1,-2Zm-4,19l-3,5l0,2l4,-1l1,-6l-2,0Z" style="fill-rule:nonzero;"/><path d="M514,286l5,1l0,10l7,1l-1,4l-6,1l1,6l0,11l-5,-1l-2,-7l0,-8l-7,-1l-5,5l-2,9l-5,1l-2,-5l0,-14l4,0l2,2l3,-3l12,0l0,-8l1,-4Z" style="fill-rule:nonzero;"/><path d="M460,286l4,0l1,2l0,9l7,1l-1,4l-6,1l1,16l-4,1l-3,-5l-1,-11l-5,-2l0,-3l5,-2l1,-10l1,-1Z" style="fill-rule:nonzero;"/><path d="M413,286l4,0l1,2l0,9l7,1l-1,4l-5,1l0,16l-4,1l-3,-5l-1,-12l-5,0l1,-5l4,-1l1,-10l1,-1Z" style="fill-rule:nonzero;"/><path d="M326,286l4,1l0,10l6,0l2,4l-4,2l-3,0l1,15l-1,2l-5,-1l-2,-10l0,-5l-5,-1l-1,-3l3,-2l3,0l0,-7l2,-5Z" style="fill-rule:nonzero;"/><path d="M295,286l4,1l0,10l6,0l2,4l-7,3l0,15l-4,1l-2,-3l-1,-5l0,-9l-5,0l-1,-4l6,-1l0,-9l2,-3Z" style="fill-rule:nonzero;"/><path d="M238,286l4,0l1,2l0,9l7,1l-1,4l-6,1l1,16l-4,1l-3,-4l-1,-12l-5,-1l1,-5l4,-1l1,-10l1,-1Z" style="fill-rule:nonzero;"/><path d="M82,286l2,0l0,4l-3,0l1,-4Z" style="fill-rule:nonzero;"/><path d="M72,286l3,1l0,3l-4,-1l1,-3Z" style="fill-rule:nonzero;"/><path d="M63,286l3,3l-4,1l0,-3l1,-1Z" style="fill-rule:nonzero;"/><path d="M53,286l3,1l0,3l-4,-1l1,-3Z" style="fill-rule:nonzero;"/><path d="M60,275l29,0l5,5l2,15l0,15l-2,7l-4,2l-20,1l-19,-1l-7,-3l-1,-5l0,-28l2,-5l7,-2l8,-1Zm-13,5l0,34l43,0l0,-19l-1,-14l-29,-1l-13,0Z" style="fill-rule:nonzero;"/><path d="M716,264l5,1l-1,5l-5,0l-1,-4l2,-2Z" style="fill-rule:nonzero;"/><path d="M1008,252l4,1l1,4l0,11l-5,1l-2,-7l1,-9l1,-1Z" style="fill-rule:nonzero;"/><path d="M928,252l4,1l1,1l0,14l-4,1l-2,-3l0,-12l1,-2Z" style="fill-rule:nonzero;"/><path d="M677,252l4,2l0,15l-5,-1l-1,-3l0,-10l2,-3Z" style="fill-rule:nonzero;"/><path d="M405,252l4,1l1,2l0,13l-4,1l-2,-2l0,-14l1,-1Z" style="fill-rule:nonzero;"/><path d="M264,252l4,1l0,16l-5,-1l-1,-3l0,-10l2,-3Z" style="fill-rule:nonzero;"/><path d="M224,252l4,1l0,16l-5,-1l-1,-3l0,-10l2,-3Z" style="fill-rule:nonzero;"/><path d="M777,251l4,0l1,2l1,9l2,-2l2,-8l5,1l3,11l1,4l-4,2l-3,-3l-4,2l-6,-1l-3,-5l0,-10l1,-2Z" style="fill-rule:nonzero;"/><path d="M619,250l4,1l0,10l-3,7l-5,1l-5,-4l-2,4l-5,-1l-3,-6l-1,-10l4,-1l3,7l4,-4l4,1l2,5l3,-10Z" style="fill-rule:nonzero;"/><path d="M340,251l5,1l1,10l2,-2l2,-7l4,-1l3,9l2,7l-5,1l-1,-3l-6,3l-5,-1l-3,-6l0,-9l1,-2Z" style="fill-rule:nonzero;"/><path d="M853,250l3,1l2,2l3,-2l5,1l4,6l1,3l0,7l-4,1l-2,-2l-2,-8l-2,0l-4,10l-5,-1l-1,-4l0,-12l2,-2Z" style="fill-rule:nonzero;"/><path d="M762,250l6,0l5,4l1,2l0,8l-4,5l-6,1l-6,-4l-1,-2l0,-8l3,-5l2,-1Zm2,6l-2,4l2,4l4,-1l1,-5l-2,-2l-3,0Z" style="fill-rule:nonzero;"/><path d="M627,250l3,1l2,2l3,-2l5,1l4,6l1,3l0,7l-4,1l-3,-7l-1,-3l-2,-1l-3,10l-5,1l-2,-7l0,-8l2,-4Z" style="fill-rule:nonzero;"/><path d="M586,250l7,1l4,3l1,3l0,7l-5,5l-5,1l-5,-3l-2,-3l0,-9l5,-5Zm2,6l-2,5l2,3l4,-1l1,-4l-2,-3l-3,0Z" style="fill-rule:nonzero;"/><path d="M511,250l7,0l1,3l3,1l2,9l1,6l-3,1l-5,-5l-5,4l-5,0l-3,-3l0,-7l4,-6l3,-3Zm3,5l-4,5l1,3l4,-5l-1,-3Z" style="fill-rule:nonzero;"/><path d="M476,250l3,1l0,2l4,-3l5,1l2,4l5,-3l4,1l3,6l1,9l-3,1l-2,-1l-2,-5l0,-3l-2,0l-1,6l-2,2l-4,-1l-3,-9l-3,11l-5,1l-1,-1l0,-18l1,-1Z" style="fill-rule:nonzero;"/><path d="M326,250l7,1l4,4l1,6l-2,5l-3,3l-6,1l-5,-3l-2,-4l1,-9l5,-4Zm1,6l-1,1l0,5l4,2l2,-2l-1,-5l-4,-1Z" style="fill-rule:nonzero;"/><path d="M302,250l3,1l4,7l0,2l2,0l2,-6l3,-4l4,2l-3,10l-8,20l-4,2l-2,-2l2,-9l2,-7l-6,-9l-1,-5l2,-2Z" style="fill-rule:nonzero;"/><path d="M817,248l6,0l1,4l-6,3l-1,7l5,1l6,-1l3,-7l5,-5l5,-1l3,2l0,2l2,0l4,13l0,3l-5,0l-2,-4l-6,4l-7,-1l-2,-2l-4,3l-5,1l-7,-3l-3,-4l0,-6l4,-6l4,-3Zm21,7l-3,4l0,3l3,-1l1,-6l-1,0Z" style="fill-rule:nonzero;"/><path d="M413,249l4,1l0,2l4,-3l5,0l1,4l-5,4l-2,10l-2,2l-4,-1l-2,-10l0,-7l1,-2Z" style="fill-rule:nonzero;"/><path d="M361,249l3,1l0,2l4,-3l5,0l1,4l-5,5l-2,9l-2,2l-4,-1l-2,-10l0,-7l2,-2Z" style="fill-rule:nonzero;"/><path d="M1020,247l7,0l1,4l-1,1l-5,0l9,9l0,6l-3,3l-9,1l-4,-3l1,-3l8,-1l-4,-4l-5,-4l1,-6l4,-3Z" style="fill-rule:nonzero;"/><path d="M702,247l5,1l3,3l-1,6l-4,4l-4,2l8,1l3,1l-1,5l-2,1l-7,0l-7,-4l-2,-5l1,-8l5,-6l3,-1Zm0,5l-2,4l4,-1l0,-3l-2,0Z" style="fill-rule:nonzero;"/><path d="M434,247l5,0l1,4l-5,2l-1,2l6,2l3,3l1,5l-2,4l-4,2l-7,0l-3,-2l0,-4l9,-1l-5,-4l-5,-5l2,-5l5,-3Z" style="fill-rule:nonzero;"/><path d="M277,247l5,0l1,4l-5,2l-1,2l6,2l3,3l1,5l-2,4l-4,2l-7,0l-3,-2l0,-4l9,0l0,-3l-5,-2l-4,-4l1,-7l5,-2Z" style="fill-rule:nonzero;"/><path d="M236,247l6,0l2,3l-6,4l8,6l1,1l-1,7l-5,3l-9,-1l-1,-4l1,-1l8,-1l-3,-3l-6,-5l0,-5l5,-4Z" style="fill-rule:nonzero;"/><path d="M405,244l5,1l-1,5l-5,-1l1,-5Z" style="fill-rule:nonzero;"/><path d="M263,243l5,0l1,4l-4,2l-3,-3l1,-3Z" style="fill-rule:nonzero;"/><path d="M223,243l5,0l1,4l-4,2l-3,-3l1,-3Z" style="fill-rule:nonzero;"/><path d="M1009,242l4,2l0,4l-5,0l-1,-5l2,-1Z" style="fill-rule:nonzero;"/><path d="M929,242l4,1l1,4l-4,2l-3,-2l1,-4l1,-1Z" style="fill-rule:nonzero;"/><path d="M543,238l4,1l0,13l9,-5l1,5l-6,5l5,4l4,3l1,-8l4,-5l5,-1l1,-11l5,-1l1,2l3,29l-5,1l-1,-4l-7,4l-5,-2l-3,0l-6,-1l-6,-3l0,6l-3,1l-2,-2l-2,-16l-5,5l-3,11l-5,-1l-1,-3l0,-15l4,0l0,2l5,-3l5,1l2,-11l1,-1Zm26,18l-3,3l0,4l3,-1l2,-5l-2,-1Z" style="fill-rule:nonzero;"/><path d="M972,237l5,1l0,10l6,0l2,-10l4,0l1,1l2,14l5,-3l4,2l3,7l1,9l-4,1l-3,-7l-1,-3l-2,-1l-3,10l-5,1l-2,-6l0,-11l-7,2l0,16l-3,1l-3,-3l-1,-4l0,-10l-5,0l-1,-4l6,-2l0,-9l1,-2Z" style="fill-rule:nonzero;"/><path d="M917,237l5,1l2,22l1,9l-4,2l-2,-2l0,-3l-5,3l-6,0l-2,-2l-3,3l-9,1l-6,-3l-3,-6l1,-8l5,-6l6,-1l4,2l1,7l-4,4l-6,1l0,2l8,1l4,0l2,-8l4,-5l6,-1l0,-10l1,-3Zm-23,15l-2,4l4,-1l0,-3l-2,0Zm19,4l-2,3l0,4l3,-1l2,-5l-3,-1Z" style="fill-rule:nonzero;"/><path d="M687,237l3,1l1,6l0,26l-4,0l-2,-3l-1,-21l1,-8l2,-1Z" style="fill-rule:nonzero;"/><path d="M186,237l17,0l2,1l2,14l2,0l4,-2l5,4l3,13l-1,2l-4,0l-3,-9l0,-2l-2,0l-3,10l-5,1l-2,-5l-2,-22l-10,1l0,28l-4,1l-2,-3l0,-25l-10,1l-1,-5l14,-3Z" style="fill-rule:nonzero;"/><path d="M942,236l4,2l0,10l7,0l0,4l-6,2l0,16l-3,1l-3,-3l-1,-4l0,-10l-5,0l-1,-4l5,-2l1,-9l2,-3Z" style="fill-rule:nonzero;"/><path d="M666,236l8,0l4,4l0,3l4,3l-2,4l-4,-1l-1,-3l1,-2l-7,-1l-1,2l0,6l5,1l0,4l-5,1l1,4l0,7l-1,2l-4,0l-3,-12l-4,-2l1,-3l3,0l0,-9l3,-6l2,-2Z" style="fill-rule:nonzero;"/><path d="M450,236l3,1l1,11l6,0l0,4l-1,1l-5,0l0,17l-4,0l-2,-4l-1,-12l-5,0l0,-4l5,-1l1,-11l2,-2Z" style="fill-rule:nonzero;"/><path d="M395,236l8,0l4,5l-2,3l-8,-2l-1,10l5,-1l1,5l-5,1l1,9l-2,4l-4,-1l-1,-4l0,-7l-5,-2l1,-3l2,-1l2,-12l4,-4Z" style="fill-rule:nonzero;"/><path d="M757,235l4,1l-1,5l-8,14l-2,18l-4,1l-2,-2l-1,-18l-7,-13l1,-5l4,2l7,10l7,-11l2,-2Z" style="fill-rule:nonzero;"/><path d="M88,197l1,0l0,5l4,0l1,-5l1,0l1,13l-3,0l0,-5l-4,0l0,6l-2,0l0,-13l1,-1Z" style="fill-rule:nonzero;"/><path d="M81,197l4,0l-1,3l-3,0l0,7l5,0l-1,3l-6,0l-1,-1l0,-9l3,-3Z" style="fill-rule:nonzero;"/><path d="M69,197l6,0l1,1l0,5l-2,0l3,4l-1,3l-5,-3l0,5l-2,0l0,-15Zm3,2l-1,3l3,-1l-2,-2Z" style="fill-rule:nonzero;"/><path d="M44,197l4,0l0,2l-3,2l4,3l3,-7l6,0l-1,2l-3,1l-1,2l5,1l-1,2l-4,0l0,3l6,0l2,-9l1,-2l3,0l3,10l0,4l-2,0l-1,-4l-3,1l-1,3l-10,0l0,-3l-2,0l-1,3l-6,0l0,-2l4,-1l1,-3l-5,-2l0,-5l2,-1Zm19,4l1,4l-1,-4Z" style="fill-rule:nonzero;"/><path d="M547,161l6,0l0,11l-9,0l0,-10l3,-1Z" style="fill-rule:nonzero;"/><path d="M331,161l8,0l1,1l0,9l-2,8l-4,4l-3,0l-1,-4l3,-3l1,-4l-4,0l0,-10l1,-1Z" style="fill-rule:nonzero;"/><path d="M463,133l7,1l1,2l3,-3l8,0l1,5l-2,5l-7,0l-2,6l-1,23l-9,0l0,-38l1,-1Z" style="fill-rule:nonzero;"/><path d="M433,133l11,0l7,4l4,7l1,3l0,12l-4,8l-6,5l-10,1l-7,-3l-5,-6l-2,-6l0,-11l4,-9l5,-4l2,-1Zm3,8l-4,5l-1,3l0,7l3,7l2,1l7,0l3,-4l1,-3l0,-9l-3,-5l-2,-2l-6,0Z" style="fill-rule:nonzero;"/><path d="M302,133l11,0l8,6l3,7l0,13l-4,8l-6,5l-10,1l-8,-4l-4,-5l-2,-8l0,-7l3,-9l6,-6l3,-1Zm3,8l-5,5l-1,8l2,7l3,3l4,1l5,-3l2,-4l0,-10l-3,-5l-2,-2l-5,0Z" style="fill-rule:nonzero;"/><path d="M234,132l9,2l6,7l2,8l0,6l-22,1l3,7l1,1l7,0l1,-4l9,1l-1,5l-5,5l-5,2l-7,0l-6,-3l-4,-5l-2,-4l0,-16l4,-8l6,-4l4,-1Zm0,8l-5,5l0,4l13,0l-1,-6l-4,-3l-3,0Z" style="fill-rule:nonzero;"/><path d="M61,127l7,0l9,5l6,7l2,5l0,9l-3,8l8,7l5,6l-1,4l-4,-1l-8,-7l-3,-4l-5,1l-5,2l-10,-1l-8,-5l-5,-7l-1,-3l0,-10l4,-8l7,-6l5,-2Zm-2,5l-6,5l-3,6l0,10l4,6l6,4l7,1l7,-3l6,-7l0,-10l-4,-6l-3,-3l-12,-2l-2,-1Z" style="fill-rule:nonzero;"/><path d="M544,119l9,0l1,1l0,15l-2,21l-1,2l-5,0l-2,-20l0,-19Z" style="fill-rule:nonzero;"/><path d="M526,119l9,0l0,53l-8,0l-1,-4l-5,4l-7,1l-6,-3l-5,-8l-1,-12l2,-9l3,-5l5,-3l9,0l4,3l1,-17Zm-10,22l-3,3l-1,2l0,14l5,5l5,-1l3,-4l1,-3l0,-8l-3,-7l-1,-1l-6,0Z" style="fill-rule:nonzero;"/><rect x="487" y="119" width="9" height="53" style="fill-rule:nonzero;"/><path d="M362,119l9,0l6,28l0,5l2,0l1,-9l5,-22l1,-2l11,0l4,16l3,15l1,1l6,-31l1,-1l9,0l-2,12l-8,39l-1,2l-10,0l-4,-15l-5,-21l-8,36l-10,0l-2,-5l-9,-42l0,-6Z" style="fill-rule:nonzero;"/><rect x="275" y="119" width="9" height="53" style="fill-rule:nonzero;"/><path d="M258,119l8,0l0,53l-8,0l-1,-24l0,-28l1,-1Z" style="fill-rule:nonzero;"/><path d="M177,119l9,0l0,20l18,0l0,-20l9,0l0,53l-9,0l0,-23l-18,0l0,23l-9,0l0,-53Z" style="fill-rule:nonzero;"/><path d="M141,2l5,1l2,48l0,31l47,-1l63,-2l47,-1l74,0l256,3l154,3l150,0l97,-2l141,-4l74,0l27,1l2,2l-1,5l-1,1l-120,1l-144,4l-48,1l-199,0l-159,-3l-157,-2l-82,-1l-59,0l-90,2l-66,0l-6,-1l-1,43l-1,23l0,109l4,137l1,59l0,37l-2,91l-2,68l0,31l2,73l2,33l0,31l-1,9l-8,0l0,-34l-3,-60l-1,-35l0,-66l3,-99l0,-121l-4,-139l0,-128l2,-49l0,-96l2,-3Z" style="fill-rule:nonzero;"/><path d="M414,55l20,0l0,4l-23,0l0,-3l3,-1Z" style="fill-rule:nonzero;"/><path d="M827,52l17,0l1,2l-1,2l-17,0l0,-4Z" style="fill-rule:nonzero;"/><path d="M777,52l18,0l0,3l-1,1l-16,0l-2,-1l1,-3Z" style="fill-rule:nonzero;"/><path d="M768,50l4,2l-1,5l-4,1l-2,-5l3,-3Z" style="fill-rule:nonzero;"/><path d="M815,49l7,0l0,10l-5,1l-2,-1l0,-2l2,-1l-1,-4l-1,-3Z" style="fill-rule:nonzero;"/><path d="M880,48l14,0l-1,4l-11,0l-3,-1l1,-3Z" style="fill-rule:nonzero;"/><path d="M1147,46l3,1l0,5l-4,4l-7,1l-5,-4l-2,-5l4,-1l3,5l5,0l3,-6Z" style="fill-rule:nonzero;"/><path d="M876,42l2,1l-1,4l-7,8l-4,-1l-4,-5l0,-3l4,2l4,0l4,-5l2,-1Z" style="fill-rule:nonzero;"/><path d="M942,40l13,0l0,3l-1,1l-11,0l-1,-4Z" style="fill-rule:nonzero;"/><path d="M782,40l12,0l2,1l-1,3l-19,0l1,-3l5,-1Z" style="fill-rule:nonzero;"/><path d="M1146,39l11,0l0,3l-12,0l1,-3Z" style="fill-rule:nonzero;"/><path d="M1126,39l11,0l0,3l-12,0l1,-3Z" style="fill-rule:nonzero;"/><path d="M1068,39l17,0l2,1l-1,4l-27,0l-2,-1l1,-3l10,-1Z" style="fill-rule:nonzero;"/><path d="M830,39l14,0l0,4l-2,1l-14,0l-3,-3l5,-2Z" style="fill-rule:nonzero;"/><path d="M767,39l5,1l0,5l-5,1l-2,-4l2,-3Z" style="fill-rule:nonzero;"/><path d="M815,37l6,0l1,4l-3,3l3,1l0,3l-7,-1l1,-5l0,-2l-1,-3Z" style="fill-rule:nonzero;"/><path d="M690,37l17,0l0,3l-4,4l-4,6l-5,-4l-4,-6l0,-3Z" style="fill-rule:nonzero;"/><path d="M578,36l9,0l2,3l0,7l-4,4l-5,-1l0,6l-2,0l0,-19Zm3,2l-1,2l0,6l4,2l3,-3l0,-5l-2,-2l-4,0Z" style="fill-rule:nonzero;"/><path d="M566,36l7,0l2,2l0,12l-3,-1l-6,1l-2,-2l1,-5l7,-3l0,-1l-5,-1l0,2l-2,0l1,-4Zm4,7l-4,2l1,3l5,-1l1,-3l-3,-1Z" style="fill-rule:nonzero;"/><path d="M557,36l6,0l0,2l-3,1l-1,11l-2,0l0,-14Z" style="fill-rule:nonzero;"/><path d="M545,36l8,0l1,2l0,12l-3,5l-6,0l-2,-4l7,1l0,-3l-4,1l-4,-5l1,-7l2,-2Zm1,2l-1,1l0,7l4,2l2,-2l0,-7l-5,-1Z" style="fill-rule:nonzero;"/><path d="M531,36l8,0l1,2l0,12l-3,-1l-1,1l-5,0l-2,-2l1,-5l5,-2l3,0l-2,-3l-6,2l1,-4Zm3,7l-3,2l1,3l5,-1l1,-4l-4,0Z" style="fill-rule:nonzero;"/><path d="M521,36l7,0l0,2l-3,1l-1,10l-3,0l0,-13Z" style="fill-rule:nonzero;"/><path d="M510,36l7,0l1,1l1,12l-3,0l-6,1l-3,-3l1,-4l4,-2l4,0l0,-3l-5,1l-3,1l2,-4Zm2,7l-2,1l1,4l4,-1l1,-4l-4,0Z" style="fill-rule:nonzero;"/><path d="M937,34l9,0l0,3l-9,2l-1,5l0,2l10,1l2,1l-1,3l-6,1l-7,-3l-3,-4l1,-7l5,-4Z" style="fill-rule:nonzero;"/><path d="M881,34l12,0l0,4l-12,0l-2,-1l0,-2l2,-1Z" style="fill-rule:nonzero;"/><path d="M1005,33l6,0l1,5l-2,2l-5,-1l-1,-4l1,-2Zm3,2l1,2l-1,-2Z" style="fill-rule:nonzero;"/><path d="M952,33l8,0l6,4l1,7l-5,6l-3,1l-7,0l0,-4l10,-2l0,-5l-2,-2l-9,-1l0,-3l1,-1Z" style="fill-rule:nonzero;"/><path d="M592,30l2,1l1,5l5,0l2,2l0,12l-2,0l-1,-11l-4,0l-1,10l-2,1l0,-20Z" style="fill-rule:nonzero;"/><path d="M493,30l9,0l3,2l1,5l-2,4l-2,1l-7,0l0,8l-2,0l-1,-2l0,-16l1,-2Zm2,3l0,7l7,-1l1,-5l-1,-1l-7,0Z" style="fill-rule:nonzero;"/><path d="M781,29l12,0l3,1l-1,3l-19,0l0,-3l5,-1Z" style="fill-rule:nonzero;"/><path d="M416,29l2,1l1,16l4,2l2,0l2,-8l1,-9l1,-2l3,1l0,14l-3,6l-3,3l-5,1l-5,-3l-2,-3l-1,-11l2,-7l1,-1Z" style="fill-rule:nonzero;"/><path d="M369,29l15,0l1,4l-6,1l-6,18l5,0l0,3l-2,1l-12,0l-2,-3l4,-2l2,1l3,-12l3,-7l-5,0l0,-4Z" style="fill-rule:nonzero;"/><path d="M828,28l15,0l0,4l-17,0l-1,-3l3,-1Z" style="fill-rule:nonzero;"/><path d="M320,28l6,0l5,3l1,6l-2,3l5,4l0,7l-5,4l-7,2l-7,-1l-1,-1l0,-21l2,-5l3,-1Zm0,5l0,6l6,-2l0,-4l-6,0Zm1,11l0,8l8,-2l1,-4l-4,-2l-5,0Z" style="fill-rule:nonzero;"/><path d="M192,28l3,0l-2,5l-1,2l8,-1l9,3l4,5l0,7l-4,5l-4,0l2,-4l1,-7l-6,-3l-8,0l1,5l-4,-1l-6,-4l-1,-4l6,-7l2,-1Z" style="fill-rule:nonzero;"/><path d="M1138,27l6,0l5,5l-1,3l-2,0l-3,-4l-5,1l-4,4l-1,-4l5,-5Z" style="fill-rule:nonzero;"/><path d="M875,27l3,0l-1,4l-7,9l-3,1l-5,-4l-1,-3l8,0l6,-7Z" style="fill-rule:nonzero;"/><path d="M767,27l4,0l1,6l-1,1l-5,0l-1,-4l2,-3Z" style="fill-rule:nonzero;"/><path d="M1215,25l10,1l3,3l1,6l0,18l-3,5l-4,1l-16,0l-9,-2l-1,-2l0,-27l6,-2l13,-1Zm-15,5l0,5l1,1l22,0l1,-5l-1,-1l-23,0Zm0,9l0,6l6,0l0,-6l-6,0Zm9,0l0,6l6,0l0,-6l-6,0Zm9,0l0,6l6,0l0,-5l-1,-1l-5,0Zm-18,9l0,7l6,0l0,-7l-6,0Zm9,0l0,7l6,0l0,-7l-6,0Zm9,0l0,7l5,0l1,-1l0,-6l-6,0Z" style="fill-rule:nonzero;"/><path d="M995,26l22,0l3,3l1,7l0,18l-1,3l-9,2l-11,0l-11,-1l-2,-3l0,-26l3,-2l5,-1Zm-5,4l0,12l1,6l5,-5l0,-2l5,0l4,5l4,-2l3,-1l5,4l0,-15l-1,-2l-26,0Zm8,14l-6,9l0,2l15,0l-2,-4l-5,-7l-2,0Zm13,2l-3,2l2,5l4,2l3,-1l-2,-5l-4,-3Z" style="fill-rule:nonzero;"/><path d="M816,25l4,0l1,9l-3,1l0,-7l-3,0l1,-3Z" style="fill-rule:nonzero;"/><path d="M1105,24l2,0l1,10l0,25l-2,2l-1,-1l0,-36Z" style="fill-rule:nonzero;"/><path d="M1037,24l2,3l0,34l-2,-1l-1,-13l0,-20l1,-3Z" style="fill-rule:nonzero;"/><path d="M912,24l2,1l0,36l-3,0l0,-36l1,-1Z" style="fill-rule:nonzero;"/><path d="M1177,23l2,2l1,30l-2,6l-1,0l-1,-6l0,-30l1,-2Z" style="fill-rule:nonzero;"/><path d="M743,23l3,0l1,8l0,30l-3,1l-1,-10l0,-29Z" style="fill-rule:nonzero;"/><path d="M458,23l2,0l1,37l-2,3l-2,-6l-1,-22l1,-10l1,-2Z" style="fill-rule:nonzero;"/><path d="M285,23l2,0l1,9l0,29l-1,2l-2,0l-1,-4l0,-35l1,-1Z" style="fill-rule:nonzero;"/><path d="M524,15l45,0l22,1l39,1l83,0l9,3l4,5l1,3l0,29l-3,5l-6,4l-11,2l-16,0l-19,-1l-62,0l-22,1l-38,1l-41,0l-20,-2l-8,-3l-3,-4l-1,-6l0,-27l3,-6l10,-3l34,-3Zm-1,5l-31,2l-9,0l-2,5l0,13l1,19l4,3l17,2l45,0l52,-2l18,-1l47,0l18,1l26,0l10,-3l3,-3l0,-27l-4,-5l-12,-2l-93,0l-50,-2l-40,0Z" style="fill-rule:nonzero;"/></svg>