<?xml version="1.0" encoding="UTF-8" standalone="no"?><!DOCTYPE svg PUBLIC "-//W3C//DTD SVG 1.1//EN" "http://www.w3.org/Graphics/SVG/1.1/DTD/svg11.dtd"><svg width="100%" height="100%" viewBox="0 0 1918 1264" version="1.1" xmlns="http://www.w3.org/2000/svg" xmlns:xlink="http://www.w3.org/1999/xlink" xml:space="preserve" xmlns:serif="http://www.serif.com/" style="fill-rule:evenodd;clip-rule:evenodd;stroke-linejoin:round;stroke-miterlimit:2;"><path d="M21,1143c0.562,8.625 0.562,8.625 0,17c-6,-2 -6,-2 -9,-5c-0.99,2.31 -1.98,4.62 -3,7l-1,0c-0.438,-8.625 -0.438,-8.625 0,-17c6,2 6,2 8,5c2,-7 2,-7 5,-7Z" style="fill-rule:nonzero;"/><path d="M102,1141c3.355,3.355 2,14.597 2,19c-2.31,-0.99 -4.62,-1.98 -7,-3c-0.495,2.475 -0.495,2.475 -1,5c-4,-1 -4,-1 -5,-3c-0.99,0.66 -1.98,1.32 -3,2c-6,0 -6,0 -10,-4c-0.66,0.99 -1.32,1.98 -2,3c-5,-1 -5,-1 -5,-4c-3.471,0.764 -3.471,0.764 -5,5c-6.82,-2.273 -5.411,-11.996 -5,-18c3,0 3,0 5,6c2.31,0.66 4.62,1.32 7,2c0.33,-1.98 0.66,-3.96 1,-6c1,-2 1,-2 5,-2l0,2c0.99,-0.66 1.98,-1.32 3,-2c7,1 7,1 9,4c3,-6 3,-6 11,-6Zm-6,8c1.32,-0.33 2.64,-0.66 4,-1c-1.68,-5.041 -2.873,-3.51 -4,1Zm-13,-2l0,9l5,0c0.436,-9.663 0.436,-9.663 -5,-9Z" style="fill-rule:nonzero;"/><path d="M36,1143c3,1 3,1 5,6c2.31,0.33 4.62,0.66 7,1c0.33,-2.31 0.66,-4.62 1,-7c3,0 3,0 3.375,5.562c-0.375,6.438 -0.375,6.438 -3.375,13.438c-1.98,-0.99 -3.96,-1.98 -6,-3c-0.66,0.66 -1.32,1.32 -2,2c-8.091,-2.023 -5.261,-10.943 -5,-18Z" style="fill-rule:nonzero;"/><path d="M181,1141c-1,4 -1,4 -5,5c-1.795,4.416 -1.795,4.416 3,6c-1.65,0.33 -3.3,0.66 -5,1l0,4l7,0c0,4 0,4 -4.875,4.938c-5.125,0.062 -5.125,0.062 -7.125,-2.938c-0.75,-18 -0.75,-18 12,-18Z" style="fill-rule:nonzero;"/><path d="M151,1142c0.701,1.959 1.403,3.919 2.125,5.938c0.619,1.671 1.238,3.341 1.875,5.062c0.66,-1.98 1.32,-3.96 2,-6c5,-6 5,-6 9,-5c0,4 0,4 -4,5c-1.405,5.041 -1.405,5.041 -1,10c3.465,-0.495 3.465,-0.495 7,-1c-1,5 -1,5 -8,5c-0.99,-0.66 -1.98,-1.32 -3,-2c-0.66,0.99 -1.32,1.98 -2,3c-3,-1 -3,-1 -3,-6c-5.791,-0.791 -5.791,-0.791 -7,6l-3,0c0.817,-22.046 0.817,-22.046 9,-20Zm-4,7l0,2l3,0l0,-2l-3,0Z" style="fill-rule:nonzero;"/><path d="M128,1141c0,4 0,4 -3,6c1.65,1.32 3.3,2.64 5,4c0.083,-1.568 0.165,-3.135 0.25,-4.75c0.75,-5.25 0.75,-5.25 9.75,-5.25c3,3 3,3 2,10c-1.98,0.66 -3.96,1.32 -6,2l0,9c-8.404,0.966 -18.085,1.186 -25,-4c-0.66,1.32 -1.32,2.64 -2,4c-3,0 -3,0 -3.434,-4.191c-0.004,-4.938 0.205,-9.876 0.434,-14.809c4,1 4,1 4,4c1.32,-0.99 2.64,-1.98 4,-3l2,0c-0.33,2.97 -0.66,5.94 -1,9c4.303,2.998 4.303,2.998 9,4c-0.574,-4.202 -0.574,-4.202 -4,-6c1.111,-10 1.111,-10 8,-10Zm8,3l0,6c1.32,-0.33 2.64,-0.66 4,-1c-1.226,-5.309 -1.226,-5.309 -4,-5Z" style="fill-rule:nonzero;"/><path d="M34,1141c-1,5 -1,5 -7,5l0,4l6,0l0,3l-6,0l0,4l7,0c-1,5 -1,5 -10,5c-4.148,-6.221 -1.932,-13.239 0,-20c2,-1 2,-1 10,-1Z" style="fill-rule:nonzero;"/><path d="M96,1056c0.33,2.475 0.66,4.95 1,7.5c2.768,10.382 5.194,8.461 15,7.5c1,5 1,5 0,7c-3.743,-0.402 -3.743,-0.402 -7.562,-0.812c-8.581,-0.294 -8.581,-0.294 -8.062,8.312c0.206,2.475 0.412,4.95 0.625,7.5c-5,0 -5,0 -7,-3c0.227,-2.042 0.454,-4.084 0.688,-6.188c0.159,-6.814 0.159,-6.814 -7.125,-6.25c-2.166,0.144 -4.331,0.289 -6.562,0.438c-1,-5 -1,-5 1,-6c2.021,0.268 4.043,0.536 6.125,0.812c6.917,0.013 6.917,0.013 6.562,-7.688c-0.227,-2.351 -0.454,-4.703 -0.688,-7.125c1,-2 1,-2 6,-2Z" style="fill-rule:nonzero;"/><path d="M118,1047c0.66,2.31 1.32,4.62 2,7c2.627,3.695 5.293,7.363 8,11c8.126,20.316 -3.009,38.183 -21.312,47.062c-21.271,6.163 -41.836,-4.395 -49.625,-25.25c-5.628,-30.789 46.127,-76.839 60.938,-39.812Zm-54.5,28.688c1.254,20.849 14.759,30.953 34.602,30.848c14.743,-1.611 25.636,-15.15 26.086,-29.535c-6.933,-40.866 -57.926,-43.765 -60.688,-1.312Z" style="fill-rule:nonzero;"/><rect x="497" y="1033" width="5" height="4" style="fill-rule:nonzero;"/><path d="M380,1014c3,8 3,8 3,11c3.464,0.325 3.464,0.325 4,-9c1,-2 1,-2 6,-1c0.474,1.918 0.949,3.836 1.438,5.812c0.773,2.073 0.773,2.073 1.562,4.188c3.243,-5.482 3.243,-5.482 6,-12l2,0c-2.667,24 -2.667,24 -10,24c-3,-7 -3,-7 -3,-15l-3,0l0,8c-1,6 -1,6 -7,7c-8.077,-24.769 -8.077,-24.769 -1,-23Z" style="fill-rule:nonzero;"/><path d="M491,1014c0.255,4.223 0.352,8.457 0.375,12.688c0.028,2.334 0.057,4.669 0.086,7.074c-0.789,10.683 -2.786,12.052 -13.461,13.238c-5,-3 -5,-3 -6,-7c4.685,0.521 9.377,1.075 14,2l0,-5l-8,0c-10.053,-11.728 -5.585,-32.293 13,-23Zm-16,9c1.021,8.2 1.021,8.2 8,11c5.875,-4.406 4.441,-8.011 4,-15c-5.664,-5.664 -8.591,-1.113 -12,4Z" style="fill-rule:nonzero;"/><path d="M468,1016c0.496,4.887 0.496,4.887 0.438,10.688c-0.001,1.922 -0.003,3.844 -0.004,5.824c-0.434,4.488 -0.434,4.488 -3.434,4.488c-1,-3 -1,-3 -1.188,-10.688c0.303,-8.306 0.303,-8.306 -6.812,-7.312c-0.708,5.995 -1.375,11.996 -2,18c-5,0 -5,0 -5.559,-4.742c0.04,-2.024 0.08,-4.048 0.121,-6.133c0.022,-2.019 0.044,-4.037 0.066,-6.117c0.767,-10.356 11.397,-9.239 18.371,-4.008Z" style="fill-rule:nonzero;"/><path d="M446,1013c0.664,5.25 0.664,5.25 0.625,12c0.013,2.227 0.026,4.455 0.039,6.75c-0.664,5.25 -0.664,5.25 -5.664,5.25c-0.664,-5.25 -0.664,-5.25 -0.625,-12c-0.013,-2.227 -0.026,-4.455 -0.039,-6.75c0.664,-5.25 0.664,-5.25 5.664,-5.25Z" style="fill-rule:nonzero;"/><path d="M425,1013c0.531,5.25 0.531,5.25 0.5,12c0.01,2.227 0.021,4.455 0.031,6.75c-0.531,5.25 -0.531,5.25 -4.531,5.25c-0.531,-5.25 -0.531,-5.25 -0.5,-12c-0.01,-2.227 -0.021,-4.455 -0.031,-6.75c0.531,-5.25 0.531,-5.25 4.531,-5.25Z" style="fill-rule:nonzero;"/><path d="M417,1013c0.33,1.65 0.66,3.3 1,5c-1.65,0.33 -3.3,0.66 -5,1c-0.772,5.236 -0.772,5.236 -1,11c-2,7 -2,7 -5,7c-0.328,-4.996 -0.328,-4.996 -0.25,-11.438c0.015,-2.123 0.031,-4.246 0.047,-6.434c0.243,-6.129 0.243,-6.129 10.203,-6.129Z" style="fill-rule:nonzero;"/><path d="M345,1013c4,1 4,1 6.062,6.812c0.639,1.712 1.279,3.424 1.938,5.188c2.884,-3.846 5.452,-7.923 8,-12l2,0c-4.3,30.1 -4.3,30.1 -16,34c-0.33,-1.32 -0.66,-2.64 -1,-4l4,0c0.116,-9.502 -2.774,-17.17 -6,-26c0.33,-1.32 0.66,-2.64 1,-4Z" style="fill-rule:nonzero;"/><path d="M330.25,1011.594c10.657,2.22 11.58,5.875 12.75,16.406c-3.677,9.806 -4.301,9.111 -14,9c-0.66,-0.33 -1.32,-0.66 -2,-1c0.33,2.31 0.66,4.62 1,7c-1,3 -1,3 -4,3c-0.75,-7.219 -0.75,-7.219 -1,-16.5c-0.124,-3.063 -0.248,-6.126 -0.375,-9.281c1.375,-7.219 1.375,-7.219 7.625,-8.625Zm-3.25,8.406c-0.639,7.397 -0.639,7.397 2,14c11.699,-1.462 9.342,-4.057 9,-15c-3.894,-3.894 -8.049,-3.427 -11,1Z" style="fill-rule:nonzero;"/><path d="M314,1013c7.441,7.441 7.597,15.754 1,24l-9,0c-0.33,2.64 -0.66,5.28 -1,8c-4,0 -4,0 -5,-8c-0.526,-25.614 -0.526,-25.614 14,-24Zm-9,5c-1.524,9.731 -1.524,9.731 4,16c8.291,-3.316 6.27,-6.281 6,-15c-2.704,-2.704 -6.778,-4.222 -10,-1Z" style="fill-rule:nonzero;"/><path d="M296,1017c1.422,6.855 1.975,13.231 0,20c-15.254,2.618 -15.254,2.618 -19,-3c1.332,-9.321 4.521,-12 14,-12c-0.33,-1.32 -0.66,-2.64 -1,-4c-2.64,0.66 -5.28,1.32 -8,2c-1.32,-0.33 -2.64,-0.66 -4,-1c2.285,-9.139 12.214,-7.786 18,-2Zm-15,11c0.241,7.601 0.241,7.601 10,5l0,-8c-3.81,-0.197 -3.81,-0.197 -10,3Z" style="fill-rule:nonzero;"/><path d="M434,1006c0.66,1.98 1.32,3.96 2,6c0.66,0.33 1.32,0.66 2,1c0,4 0,4 -2,5c-1.089,8.634 -1.089,8.634 2,16l0,3c-9.218,-1.317 -7.775,-2.057 -7.25,-10.5c1.286,-6.812 1.286,-6.812 -2.75,-10.5c0.66,-1.32 1.32,-2.64 2,-4l0,-5c1,-1 1,-1 4,-1Z" style="fill-rule:nonzero;"/><path d="M497,1005c5,0 5,0 5.629,4.996c-0.022,2.126 -0.044,4.251 -0.066,6.441c0.001,2.123 0.003,4.246 0.004,6.434c-0.566,5.129 -0.566,5.129 -4.566,6.129c-1.62,-8.102 -1.337,-15.74 -1,-24Z" style="fill-rule:nonzero;"/><path d="M441,1005l5,0l0,4c-5,-2 -5,-2 -5,-4Z" style="fill-rule:nonzero;"/><rect x="421" y="1005" width="4" height="4" style="fill-rule:nonzero;"/><path d="M253,1005c2,8.211 2,8.211 2,12c3.333,0.043 6.667,0.04 10,0c0.99,0.33 1.98,0.66 3,1c-0.021,-2.124 -0.041,-4.249 -0.062,-6.438c0.021,-2.166 0.041,-4.331 0.062,-6.562c4,0 4,0 4.531,7c-0.01,2.97 -0.021,5.94 -0.031,9c0.01,2.97 0.021,5.94 0.031,9c-0.531,7 -0.531,7 -4.531,7c0.227,-2.475 0.454,-4.95 0.688,-7.5c0.413,-8.479 0.413,-8.479 -8.188,-9.375c-10.99,2.748 -8.527,6.605 -7.5,16.875c-3,0 -3,0 -3.398,-7c0.008,-2.97 0.015,-5.94 0.023,-9c-0.008,-2.97 -0.015,-5.94 -0.023,-9c0.398,-7 0.398,-7 3.398,-7Z" style="fill-rule:nonzero;"/><path d="M71.875,926c5.125,2 5.125,2 7.125,8c4.65,0.619 4.65,0.619 6,-5c4.595,-2.297 8.45,1.337 12,4c0.66,-1.65 1.32,-3.3 2,-5c3.465,-0.495 3.465,-0.495 7,-1c-1,5 -1,5 -4,7c-1.647,4.63 -1.647,4.63 0,6c2.31,0.33 4.62,0.66 7,1c-1,5 -1,5 -9,6c-1.98,-0.99 -3.96,-1.98 -6,-3c-0.99,0.99 -1.98,1.98 -3,3c-9,-1.5 -9,-1.5 -9,-5c-3.465,2.475 -3.465,2.475 -7,5c-10.278,0 -7.872,-0.288 -8.688,-11.188c0.688,-8.812 0.688,-8.812 5.562,-9.812Zm-1.875,6c-0.74,7.492 -0.74,7.492 2,11c6.307,-2.69 6.307,-2.69 3,-10c-1.65,-0.33 -3.3,-0.66 -5,-1Zm16,0l0,9l5,0c1.307,-8.588 1.307,-8.588 -5,-9Z" style="fill-rule:nonzero;"/><path d="M119,927c0,3 0,3 -4,5c-0.298,2.969 -0.298,2.969 6,5c1,8 1,8 -1,10l-9,0l0,-4l5,0c-2.779,-6.081 -2.779,-6.081 -7,-11c3,-5 3,-5 10,-5Z" style="fill-rule:nonzero;"/><path d="M506,892c6.816,1.704 6.958,7.873 9,14c1.145,-3.31 1.145,-3.31 2.312,-6.688c2.688,-7.312 2.688,-7.312 7.688,-6.312c-0.75,3.875 -0.75,3.875 -3,10c-0.563,1.579 -1.127,3.158 -1.707,4.785c-6.199,17.215 -6.199,17.215 -13.293,17.215c-1,-4 -1,-4 3,-6c1.31,-7.86 -1.31,-12.587 -4,-20l0,-7Z" style="fill-rule:nonzero;"/><path d="M292,895c1,9 1,9 -2,13c-7.915,1.131 -11.273,1.379 -13.062,-6.938c0.123,-9.957 7.11,-11.364 15.062,-6.062Z" style="fill-rule:nonzero;"/><path d="M715,896c0.689,6.451 0.31,12.484 0,19c-5.965,0 -4.177,-4.098 -4.688,-10.125c-0.146,-8.861 -0.146,-8.861 -7.312,-7.875c-0.378,5.664 -0.71,11.331 -1,17c-1.65,0.33 -3.3,0.66 -5,1c-0.559,-4.898 -0.559,-4.898 -0.438,-11.375c0.022,-2.132 0.044,-4.264 0.066,-6.461c0.781,-10.868 13.164,-7.672 18.371,-1.164Z" style="fill-rule:nonzero;"/><path d="M693,896c0,8 0,8 -1,9c-2.186,0.103 -4.372,0.206 -6.625,0.312c-3.156,0.34 -3.156,0.34 -6.375,0.688c0.606,5.241 0.606,5.241 8,3c1.65,-0.33 3.3,-0.66 5,-1c-1.433,8.597 -2.276,8 -11,8c-7.843,-4.706 -9.064,-8.06 -8,-17c5.889,-9.079 11.704,-11.296 20,-3Zm-15,4c4.797,1.76 4.797,1.76 10,2c1.657,-4.2 1.657,-4.2 -2,-7c-6.526,-0.928 -6.526,-0.928 -8,5Z" style="fill-rule:nonzero;"/><path d="M654,891c4.344,4.344 3.399,7.654 3.375,13.688c0.008,1.922 0.015,3.844 0.023,5.824c-0.398,4.488 -0.398,4.488 -3.398,4.488c-0.082,-2.97 -0.165,-5.94 -0.25,-9c0.658,-10.163 0.658,-10.163 -7.75,-9c-0.83,5.98 -1.499,11.984 -2,18c-3,0 -3,0 -3.328,-4.996c0.026,-2.126 0.052,-4.251 0.078,-6.441c0.015,-2.123 0.031,-4.246 0.047,-6.434c0.361,-9.121 5.028,-6.463 13.203,-6.129Z" style="fill-rule:nonzero;"/><path d="M630,891c7.677,7.677 7.407,11.716 5,22c-5.213,3.91 -8.79,3.553 -15,2c-6.526,-11.421 -5.684,-24 10,-24Zm-9.312,12.5c-0.163,5.336 -0.163,5.336 2.312,8.5c12.347,-1.543 9.315,-4.228 9,-16c-7.849,-3.925 -10.904,0.302 -11.312,7.5Z" style="fill-rule:nonzero;"/><path d="M615,896l0,3c-5,0 -5,0 -6,-2c-7.389,-0.028 -7.389,-0.028 -7.562,7.625c-0.199,6.701 -0.199,6.701 8.562,5.375c0.66,-1.32 1.32,-2.64 2,-4l2,0c0,7.667 0,7.667 -7,10c-10.971,-1.567 -11,-6.106 -11,-17c5.394,-9.44 10.29,-11.71 19,-3Z" style="fill-rule:nonzero;"/><path d="M583,891c0.33,1.65 0.66,3.3 1,5c-1.98,0.33 -3.96,0.66 -6,1c-0.372,5.998 -0.706,11.998 -1,18c-5,0 -5,0 -5.559,-4.742c0.04,-2.024 0.08,-4.048 0.121,-6.133c0.022,-2.019 0.044,-4.037 0.066,-6.117c0.646,-8.716 1.892,-7.008 11.371,-7.008Z" style="fill-rule:nonzero;"/><path d="M568,892c0.531,5.094 0.531,5.094 0.5,11.5c0.01,2.114 0.021,4.228 0.031,6.406c-0.889,8.523 -5.202,6.094 -13.531,6.094c-6.305,-5.044 -5.656,-6.531 -5.562,-14.312c-0.001,-1.832 -0.003,-3.664 -0.004,-5.551c0.187,-1.365 0.374,-2.73 0.566,-4.137c6.964,1.741 4.984,1.317 5.188,10.125c0.268,2.599 0.536,5.197 0.812,7.875c7.48,-0.233 7.48,-0.233 6,-10c1.152,-9.212 1.152,-9.212 6,-8Z" style="fill-rule:nonzero;"/><path d="M541,891c5.997,7.197 6.052,9.886 5,19c-9.897,8.483 -9.897,8.483 -18,2c-6.165,-12.329 0.462,-21 13,-21Zm-10,6c-0.869,7.898 -0.869,7.898 1,15c8.286,1.143 8.286,1.143 11,-5c-0.807,-6.087 -3.321,-18.679 -12,-10Z" style="fill-rule:nonzero;"/><path d="M491,896l0,9c-7.125,0.312 -7.125,0.312 -14,0c1.789,4.949 1.789,4.949 9,5l0,-2l5,0c-2.646,7.938 -3.79,8 -12,8c-7.213,-5.236 -8.1,-9.299 -7,-18c5.79,-8.686 10.836,-10.164 19,-2Zm-14,4c4.916,0.75 4.916,0.75 10,0c0,-8.51 -7.464,-6.341 -10,0Z" style="fill-rule:nonzero;"/><path d="M460.688,890.188c4.115,0.402 4.115,0.402 8.312,0.812c-3,9 -3,9 -7.625,15.062c-1.114,1.629 -2.228,3.259 -3.375,4.938l7,0c4,1 4,1 4,4c-6.615,0.938 -12.257,0.547 -19,0c0.517,-6.416 4.705,-9.795 8.875,-14.5c1.031,-1.485 2.062,-2.97 3.125,-4.5c-4.636,-1.033 -4.636,-1.033 -10,-1c0,-4 0,-4 8.688,-4.812Z" style="fill-rule:nonzero;"/><path d="M447,891c0.531,5.25 0.531,5.25 0.5,12c0.01,2.227 0.021,4.455 0.031,6.75c-0.531,5.25 -0.531,5.25 -4.531,5.25c-0.531,-5.25 -0.531,-5.25 -0.5,-12c-0.01,-2.227 -0.021,-4.455 -0.031,-6.75c0.531,-5.25 0.531,-5.25 4.531,-5.25Z" style="fill-rule:nonzero;"/><path d="M427.812,889.25c10.64,2.591 10.618,5.869 10.625,16c0.029,2.73 0.029,2.73 0.059,5.516c-0.496,4.234 -0.496,4.234 -4.496,4.234c-0.309,-2.991 -0.619,-5.981 -0.938,-9.062c-0.351,-2.949 -0.701,-5.899 -1.062,-8.938c-8.72,1.744 -6.134,10.205 -7,18c-4,0 -4,0 -4.883,-5.25c-0.659,-18.354 -0.659,-18.354 7.695,-20.5Z" style="fill-rule:nonzero;"/><path d="M415,894c0.75,4.5 0.75,4.5 1,10c0.124,2.001 0.248,4.001 0.375,6.062c-0.566,7.455 -3.747,5.837 -10.438,6.25c-8.973,-0.568 -8.938,-3.757 -8.938,-12.312c5,-3 5,-3 13,-4c0.33,-1.32 0.66,-2.64 1,-4c-9.053,-1.423 -9.053,-1.423 -10,3l-2,0c1.628,-9.766 7.599,-11.301 16,-5Zm-13,12l0,6c7.81,1.072 7.81,1.072 10,-7c-4.333,-2.833 -4.333,-2.833 -10,1Z" style="fill-rule:nonzero;"/><path d="M391,891c3.804,3.804 2.392,10.247 2.438,15.312c0.04,2.43 0.08,4.86 0.121,7.363c-0.738,8.357 -2.643,11.228 -11.246,11.512c-5.312,-1.188 -5.312,-1.188 -7.312,-7.188c4.006,0.256 8.007,0.593 12,1c0.665,-4.753 0.665,-4.753 -4.812,-4.375c-9.065,-1.092 -8.188,-6.46 -8.188,-14.625c3.741,-9.352 7.515,-9.662 17,-9Zm-13.312,11.938c-0.143,5.218 -0.143,5.218 3.312,9.062c6.649,-0.277 6.649,-0.277 9,-7c-2.295,-10.327 -11.445,-15.769 -12.312,-2.062Z" style="fill-rule:nonzero;"/><path d="M367.051,889.938c4.949,1.062 4.949,1.062 4.949,6.062c-1.32,0.33 -2.64,0.66 -4,1c-1.034,5.994 -2.034,11.994 -3,18c-3,0 -3,0 -3.645,-5.25c-0.055,-2.227 -0.111,-4.455 -0.168,-6.75c-0.089,-2.227 -0.178,-4.455 -0.27,-6.75c1.082,-5.25 1.082,-5.25 6.133,-6.312Z" style="fill-rule:nonzero;"/><path d="M725,884l0,7c0.99,0.33 1.98,0.66 3,1c-1,3 -1,3 -3,3c-1.08,10.737 -1.08,10.737 4,18c-1,3 -1,3 -6,2c-3.708,-1.854 -2.043,-6.87 -1.938,-10.562c-0.031,-4.672 -0.031,-4.672 -0.062,-9.438l-3,0l0,-4l3,0c1,-7 1,-7 4,-7Z" style="fill-rule:nonzero;"/><path d="M668,885l0,6l4,0l0,4l-4,0c-1.115,10.212 -1.115,10.212 4,17c-1,4 -1,4 -8,3c-1.206,-4.825 -1.459,-9.408 -1.75,-14.375c-0.119,-1.843 -0.237,-3.687 -0.359,-5.586c0.26,-11.989 0.26,-11.989 6.109,-10.039Z" style="fill-rule:nonzero;"/><path d="M447,883c-0.33,1.32 -0.66,2.64 -1,4c-0.99,-0.33 -1.98,-0.66 -3,-1c1,-3 1,-3 4,-3Z" style="fill-rule:nonzero;"/><path d="M357,890c3.795,11.384 -0.244,19.496 -10,26c-12.368,0 -16.597,-4.346 -17.688,-16.938c1.543,-18.098 15.741,-23.398 27.688,-9.062Zm-23.688,8.438c1.169,11.162 3.401,13.562 14.688,13.562c7.289,-10.205 8.054,-16.946 -1,-26c-9.649,0 -12.661,2.83 -13.688,12.438Z" style="fill-rule:nonzero;"/><path d="M131,828c1.05,11.166 1.486,22.357 1.875,33.562c0.085,1.816 0.17,3.631 0.258,5.502c0.623,19.025 -5.682,18.143 -23.133,19.936c-6.969,2.474 -6.969,2.474 -11,7c-8.543,0 -10.966,-2.311 -18,-7c-6.254,-2.322 -6.254,-2.322 -14.188,-2.875c-15.829,-2.279 -11.291,-16.418 -11.25,-29.562c-0.02,-2.277 -0.04,-4.554 -0.061,-6.9c0.001,-2.177 0.001,-4.353 0.002,-6.596c-0.003,-3.002 -0.003,-3.002 -0.006,-6.064c1.139,-11.353 7.74,-10.813 17.646,-10.573c7.941,0.933 14.76,4.023 21.855,7.57c1.629,-0.928 3.259,-1.856 4.938,-2.812c6.517,-3.427 27.734,-11.174 31.062,-1.188Zm-70.241,6.283c-0.299,6.368 -0.492,12.718 -0.571,19.092c-0.14,2.225 -0.28,4.45 -0.424,6.742c-0.363,14.922 -0.363,14.922 12.412,19.234c3.609,-0.099 7.217,-0.215 10.824,-0.352c2.31,0.66 4.62,1.32 7,2c1.058,-8.467 1.28,-16.655 1.375,-25.188c0.049,-3.025 0.098,-6.051 0.148,-9.168c-0.834,-12.185 -26.84,-25.903 -30.765,-12.362Zm34.179,28.28c-0.078,2.014 -0.156,4.028 -0.236,6.104c-0.208,6.226 -0.208,6.226 1.299,14.334c5.866,-0.511 5.866,-0.511 12,-4c3.032,0.186 6.064,0.371 9.188,0.562c13.873,-4.55 9.272,-18.754 8.812,-31.562c0.347,-3.443 0.731,-6.883 1.188,-10.312c0.846,-7.015 0.846,-7.015 -4.125,-8.062c-23.701,5.376 -27.981,9.591 -28.125,32.938Z" style="fill-rule:nonzero;"/><path d="M664,802c0.33,2.31 0.66,4.62 1,7c-5.333,0.041 -10.667,0.042 -16,0c1.315,7.107 1.315,7.107 9,6c0.33,-0.99 0.66,-1.98 1,-3l4,0c-1.603,9.618 -4.781,8.912 -14,8c-6.033,-8.446 -7.464,-13.894 -2,-23c7.71,-3.855 12.017,-0.98 17,5Zm-15,3c5.5,1 5.5,1 11,0c-2.971,-8.913 -8.029,-8.913 -11,0Z" style="fill-rule:nonzero;"/><path d="M631,796c0.434,4.996 0.434,4.996 0.438,11.438c0.019,2.123 0.039,4.246 0.059,6.434c-0.496,5.129 -0.496,5.129 -4.496,6.129c-1.956,-3.913 -0.606,-8.907 -0.25,-13.125c0.16,-2.024 0.32,-4.048 0.484,-6.133c0.766,-4.742 0.766,-4.742 3.766,-4.742Z" style="fill-rule:nonzero;"/><path d="M596,796c4,5 4,5 4,13c-4.665,0.123 -9.335,0.127 -14,0c1.474,5.928 1.474,5.928 8,5c0.33,-0.66 0.66,-1.32 1,-2l5,0c-2.875,10.061 -3.207,8 -14,8c-9.51,-11.412 -6.861,-26.134 10,-24Zm-10,6l0,3l9,0c0.589,-4.646 0.589,-4.646 -1,-6c-6.046,-0.832 -6.046,-0.832 -8,3Z" style="fill-rule:nonzero;"/><path d="M565,796c5.441,7.255 4.296,13.759 1,22c-3,1 -3,1 -10,1c-0.33,2.97 -0.66,5.94 -1,9c-5,0 -5,0 -6.016,-7c-0.077,-2.97 -0.155,-5.94 -0.234,-9c-0.129,-2.97 -0.258,-5.94 -0.391,-9c2.482,-10.589 6.88,-8.603 16.641,-7Zm-11,4c-0.734,8.415 -0.734,8.415 2,16c10.248,-1.464 9.597,-4.443 9,-14c-2.943,-2.943 -6.946,-6.054 -11,-2Z" style="fill-rule:nonzero;"/><path d="M544,796c0.398,5.031 0.398,5.031 0.375,11.5c0.008,2.135 0.015,4.269 0.023,6.469c-0.398,5.031 -0.398,5.031 -3.398,5.031c-0.398,-5.031 -0.398,-5.031 -0.375,-11.5c-0.008,-2.135 -0.015,-4.269 -0.023,-6.469c0.398,-5.031 0.398,-5.031 3.398,-5.031Z" style="fill-rule:nonzero;"/><path d="M502,796c0.124,2.949 0.248,5.899 0.375,8.938c-0.793,10.024 -0.793,10.024 7.625,10.062c1.013,-7.274 1.013,-7.274 1,-15c1,-4 1,-4 4,-4c0.328,4.996 0.328,4.996 0.25,11.438c-0.015,2.123 -0.031,4.246 -0.047,6.434c-0.241,6.085 -0.241,6.085 -8.078,6.441c-8.274,-0.363 -9.787,-0.878 -10.594,-9.078c-0.01,-1.81 -0.021,-3.62 -0.031,-5.484c-0.031,-1.82 -0.062,-3.64 -0.094,-5.516c0.594,-4.234 0.594,-4.234 5.594,-4.234Z" style="fill-rule:nonzero;"/><path d="M476.875,795.75c2.369,-0.026 4.739,-0.052 7.18,-0.078c10.011,0.553 9.376,4.519 9.383,13.453c0.029,2.726 0.029,2.726 0.059,5.508c-0.496,4.367 -0.496,4.367 -4.496,5.367c-3.491,-3.491 -2,-15.976 -2,-20c-5.55,-0.819 -5.55,-0.819 -5.785,4.156c-0.092,1.763 -0.183,3.527 -0.277,5.344c-0.507,9.5 -0.507,9.5 -4.938,9.5c-0.186,-4.207 -0.186,-4.207 -0.375,-8.5c0.722,-9.497 0.722,-9.497 -6.625,-8.5c-0.419,5.661 -0.752,11.329 -1,17c-4,1 -4,1 -5,0c-0.1,-3.666 -0.13,-7.333 -0.125,-11c-0.003,-2.021 -0.005,-4.043 -0.008,-6.125c0.248,-9.104 5.93,-6.072 14.008,-6.125Z" style="fill-rule:nonzero;"/><path d="M445,796c4,7 4,7 4,13c-4.661,0.409 -9.328,0.745 -14,1c1.667,4.949 1.667,4.949 7.188,2.875c1.588,-0.289 3.176,-0.577 4.812,-0.875c-1,6 -1,6 -7,9c-13.206,-2.641 -10.658,-10.152 -10,-22c4.677,-4.677 8.671,-3.652 15,-3Zm-10,3c-0.33,1.98 -0.66,3.96 -1,6c2.97,0.33 5.94,0.66 9,1c0.992,-7.22 0.992,-7.22 -8,-7Z" style="fill-rule:nonzero;"/><path d="M413,799c2.551,20.054 2.551,20.054 -5.562,23.062c-6.438,-1.062 -6.438,-1.062 -13.438,-5.062c1.219,-9.753 1.219,-9.753 9.312,-10.875c1.877,-0.371 3.754,-0.742 5.688,-1.125c-2.722,-4.89 -2.722,-4.89 -8.25,-2.875c-1.567,0.289 -3.135,0.577 -4.75,0.875c1.361,-8.167 11.744,-11.884 17,-4Zm-14,11c0.33,1.98 0.66,3.96 1,6c8.979,0.184 8.979,0.184 9,-8c-5.124,-0.309 -5.124,-0.309 -10,2Z" style="fill-rule:nonzero;"/><path d="M387,796c4,5 4,5 4,13c-4.333,0.083 -8.667,0.084 -13,0c0.205,7.315 0.205,7.315 9,6l0,-3l4,0c-3.086,9.259 -3.74,8 -14,8c-9.838,-11.805 -6.849,-25.915 10,-24Zm-10,9c4.957,1 4.957,1 10,0c-1.612,-9.671 -7.224,-8.329 -10,0Z" style="fill-rule:nonzero;"/><path d="M290,797c4.187,5.582 4.039,9.961 -1,15c-8,0 -8,0 -12,-3c0,-11.748 1.307,-13.462 13,-12Z" style="fill-rule:nonzero;"/><path d="M683,798l0,4c-3.341,-0.251 -6.676,-0.584 -10,-1c0,4.091 6.771,5.446 10,7c1,1 1,1 1,9c-5.577,4.183 -10.753,5.247 -16,0l0,-5c3,0 3,0 4,2c2.31,0.33 4.62,0.66 7,1c-1.667,-4.478 -1.667,-4.478 -6.625,-5.688c-4.375,-2.312 -4.375,-2.312 -4.375,-11.312c5.571,-4.178 8.977,-3.011 15,0Z" style="fill-rule:nonzero;"/><path d="M371,797c-2,4 -2,4 -5,5c-0.754,5.322 -1.42,10.657 -2,16c-1,2 -1,2 -5,2c-0.496,-5.215 -0.496,-5.215 -0.438,-11.938c0.001,-2.216 0.003,-4.432 0.004,-6.715c0.431,-5.31 8.228,-12.759 12.434,-4.348Z" style="fill-rule:nonzero;"/><path d="M534,789l0,7l3,0l0,3l-3,0c-0.145,9.624 -0.145,9.624 4,17l0,4c-9.443,0 -8.057,-1.436 -9,-10.062c-0.227,-1.868 -0.454,-3.736 -0.688,-5.66c-1.037,-17.519 -1.037,-17.519 5.688,-15.277Z" style="fill-rule:nonzero;"/><path d="M424,789l0,7l3,0l0,3l-3,0c-1.856,11.2 -1.856,11.2 3,19c-1,1 -1,1 -7,1c-2.144,-2.144 -0.935,-7.831 -0.875,-10.562c-0.041,-3.114 -0.082,-6.229 -0.125,-9.438l-3,0l0,-3l3,0l0,-7c1,-1 1,-1 5,0Z" style="fill-rule:nonzero;"/><path d="M640,787c0.303,5.326 0.389,10.665 0.375,16c0.008,2.97 0.015,5.94 0.023,9c-0.398,7 -0.398,7 -3.398,7c-0.303,-5.326 -0.389,-10.665 -0.375,-16c-0.008,-2.97 -0.015,-5.94 -0.023,-9c0.398,-7 0.398,-7 3.398,-7Z" style="fill-rule:nonzero;"/><rect x="628" y="787" width="3" height="5" style="fill-rule:nonzero;"/><path d="M576,787c0.531,7 0.531,7 0.5,16c0.01,2.97 0.021,5.94 0.031,9c-0.531,7 -0.531,7 -4.531,7c-0.531,-7 -0.531,-7 -0.5,-16c-0.015,-4.455 -0.015,-4.455 -0.031,-9c0.531,-7 0.531,-7 4.531,-7Z" style="fill-rule:nonzero;"/><rect x="541" y="787" width="3" height="5" style="fill-rule:nonzero;"/><path d="M521,787c6.752,1.688 4.278,6.665 4,13c-0.044,1.646 -0.088,3.292 -0.133,4.988c-0.48,13.883 -0.48,13.883 -3.867,15.012c-0.333,-5.492 -0.435,-10.998 -0.438,-16.5c-0.019,-3.083 -0.039,-6.167 -0.059,-9.344c0.164,-2.362 0.327,-4.723 0.496,-7.156Z" style="fill-rule:nonzero;"/><path d="M626,787c-1,3 -1,3 -5,3l0,6l4,0l0,3l-4,0c-0.3,5.21 0.017,10.316 0.25,15.527c-0.25,4.473 -0.25,4.473 -4.25,5.473c-2.827,-2.827 -0.833,-12.818 -0.742,-16.66c0.437,-4.839 0.437,-4.839 -3.258,-4.34l0,-3l3,0c0.33,-2.64 0.66,-5.28 1,-8c2,-2 2,-2 9,-1Z" style="fill-rule:nonzero;"/><path d="M354,792c-0.33,1.65 -0.66,3.3 -1,5c-1.65,-1.32 -3.3,-2.64 -5,-4c-8.181,-1.584 -8.181,-1.584 -12,4c-0.687,8.615 -0.687,8.615 3,16l0,2c9.158,-0.893 9.158,-0.893 12,-7l3,0c-1.421,11.367 -2.56,11.729 -14,13c-11.247,-5.623 -10.862,-13.505 -10,-25c6.959,-9.743 15.34,-14.824 24,-4Z" style="fill-rule:nonzero;"/><path d="M130,712c0,3 0,3 -4,5c-0.697,5.329 -1.365,10.663 -2,16l-3,0c0.062,-2.64 0.124,-5.28 0.188,-8c-0.062,-2.64 -0.124,-5.28 -0.188,-8c-9.467,0 -6.539,4.774 -7,13c-4,3 -4,3 -10,1c-0.66,-1.32 -1.32,-2.64 -2,-4c-1.32,1.65 -2.64,3.3 -4,5c-5,1 -5,1 -9,-3c-0.679,-10.981 -0.679,-10.981 2,-15c14.551,-0.606 14.551,-0.606 16.625,6.812c0.124,1.382 0.248,2.764 0.375,4.188c1.769,-3.956 3.417,-7.966 5,-12c5.73,-1.432 11.124,-1.235 17,-1Zm-38,6l0,9l5,0c1.307,-8.588 1.307,-8.588 -5,-9Z" style="fill-rule:nonzero;"/><path d="M84,712c4.667,16.333 4.667,16.333 0,21c-8,0 -8,0 -9,-1c-0.1,-3.165 -0.13,-6.333 -0.125,-9.5c-0.003,-1.743 -0.005,-3.486 -0.008,-5.281c0.228,-7.244 0.54,-5.219 9.133,-5.219Zm-6,3l0,4l3,0l0,-4l-3,0Zm0,9l0,5c4.985,-0.313 4.985,-0.313 6,-3c-1,-2.745 -1,-2.745 -6,-2Z" style="fill-rule:nonzero;"/><path d="M70,714c2.758,6.784 4,11.636 4,19c-5,-2 -5,-2 -5,-6c-6.849,-0.986 -6.849,-0.986 -7,6l-3,0c3.235,-22.106 3.235,-22.106 11,-19Zm-5,6l0,2l3,0l0,-2l-3,0Z" style="fill-rule:nonzero;"/><path d="M463,705c0.841,17.79 0.841,17.79 -4,19c-0.289,-2.929 -0.577,-5.857 -0.875,-8.875c0.262,-9.879 0.262,-9.879 -7.125,-10.125c-1.081,4.241 -1.081,4.241 -1.188,9.438c-0.522,9.562 -0.522,9.562 -3.812,9.562c-0.469,-5.215 -0.469,-5.215 -0.5,-11.938c-0.031,-2.216 -0.062,-4.432 -0.094,-6.715c1.142,-10.284 12.999,-8.006 17.594,-0.348Z" style="fill-rule:nonzero;"/><path d="M379,700c0,4 0,4 -4,5c-1.567,2.837 -1.567,2.837 -1.812,10.062c-1.188,7.938 -1.188,7.938 -5.188,8.938c-0.461,-5.152 -0.461,-5.152 -0.375,-11.938c0.013,-2.237 0.026,-4.473 0.039,-6.777c0.336,-5.285 0.336,-5.285 2.336,-5.285l0,2c7,-3 7,-3 9,-2Z" style="fill-rule:nonzero;"/><path d="M292,703c1,8 1,8 -4,13c-10.261,-1.466 -10.751,-1.682 -11,-12c4.354,-5.806 9.116,-6.884 15,-1Z" style="fill-rule:nonzero;"/><path d="M672,699c6.226,7.782 4.596,14.198 4,24c-5,1 -5,1 -6,0c-0.103,-2.846 -0.206,-5.692 -0.312,-8.625c-0.227,-2.764 -0.454,-5.528 -0.688,-8.375c-7.722,1.93 -6.148,11.181 -7,18c-8.82,-1.47 -6.673,-4.27 -6.438,-12.5c0.043,-2.114 0.085,-4.228 0.129,-6.406c0.601,-9.923 7.765,-6.511 16.309,-6.094Z" style="fill-rule:nonzero;"/><path d="M623,699c6.099,1.22 7,2.784 7,9c2.784,0.327 2.784,0.327 3,-5c2,-4 2,-4 8,-3c0.787,3.643 1.455,7.313 2,11c0.99,0.33 1.98,0.66 3,1l0,-7c1,-5 1,-5 7,-6c-1.648,25 -1.648,25 -12,25c-0.99,-2.64 -1.98,-5.28 -3,-8c-2.275,3.189 -2.275,3.189 -4,8c-9.665,-1.611 -10.076,-10.399 -12,-19c0.33,-1.98 0.66,-3.96 1,-6Z" style="fill-rule:nonzero;"/><path d="M616,700c6.337,7.604 7.457,12.047 2.125,20.625c-5.172,4.232 -7.601,4.546 -14.125,3.375c-10.269,-12.323 -5.655,-28.059 12,-24Zm-11.75,9.75c-0.914,5.572 -0.914,5.572 3.75,9.25c6.322,-0.472 6.322,-0.472 7,-10c-1.965,-7.862 -8.379,-5.686 -10.75,0.75Z" style="fill-rule:nonzero;"/><path d="M549,699c1,4 1,4 -1,7l-4,0c-0.339,5.333 -0.672,10.666 -1,16c-4,2 -4,2 -8,1c0.512,-25.264 0.512,-25.264 14,-24Z" style="fill-rule:nonzero;"/><path d="M527,699c6.522,6.522 5.495,15.185 5,24c-6.211,1.553 -16.115,3.828 -20,-2c0.978,-8.803 2.292,-13 12,-13l0,-3c-1.691,0.227 -3.383,0.454 -5.125,0.688c-2.413,0.155 -2.413,0.155 -4.875,0.312c2.89,-8.669 4.037,-7.54 13,-7Zm-9,15c0.33,1.65 0.66,3.3 1,5c6.791,-1.209 6.791,-1.209 6,-7c-3.298,-0.224 -3.298,-0.224 -7,2Z" style="fill-rule:nonzero;"/><path d="M440,699c0.398,5.469 0.398,5.469 0.375,12.5c0.008,2.32 0.015,4.641 0.023,7.031c-0.398,5.469 -0.398,5.469 -3.398,5.469c-0.398,-5.469 -0.398,-5.469 -0.375,-12.5c-0.008,-2.32 -0.015,-4.641 -0.023,-7.031c0.398,-5.469 0.398,-5.469 3.398,-5.469Z" style="fill-rule:nonzero;"/><path d="M415,699c6,7 6,7 6,13c-4.319,0.755 -8.654,1.421 -13,2c-0.33,1.32 -0.66,2.64 -1,4c6.971,0.6 6.971,0.6 12,-3c1,4 1,4 -4,9c-11.462,0 -12.718,-1.236 -13.562,-12.5c0.803,-10.705 2.825,-12.5 13.562,-12.5Zm-9,10c4.957,1 4.957,1 10,0c-1.612,-9.671 -7.224,-8.329 -10,0Z" style="fill-rule:nonzero;"/><path d="M385,699c0.434,5.504 0.434,5.504 0.438,12.562c0.019,2.332 0.039,4.664 0.059,7.066c-0.164,1.772 -0.327,3.545 -0.496,5.371c-6.633,-1.658 -4.422,-6.318 -4.312,-12.5c0.024,-2.114 0.049,-4.228 0.074,-6.406c0.285,-6.094 0.285,-6.094 4.238,-6.094Z" style="fill-rule:nonzero;"/><path d="M396,692l0,7l3,0l0,4l-3,0c0.336,10.488 0.336,10.488 4,20c-6,1 -6,1 -9,-2c-0.923,-5.79 -4.807,-32.269 5,-29Z" style="fill-rule:nonzero;"/><path d="M385,691l0,5c-1.32,-0.33 -2.64,-0.66 -4,-1c1,-4 1,-4 4,-4Z" style="fill-rule:nonzero;"/><path d="M594,690c0.713,5.78 1.065,11.202 1.188,17c0.108,1.622 0.215,3.243 0.326,4.914c0.232,11.74 0.232,11.74 -8.775,13.523c-12.879,-2.392 -13.889,-8.473 -12.738,-20.438c5,-6 5,-6 13,-5c0.66,-2.97 1.32,-5.94 2,-9c1,-1 1,-1 5,-1Zm-15,16c-0.9,8.633 -0.9,8.633 3,13c8.285,-2.762 7.092,-4.902 6,-13c-5.842,-4.107 -5.842,-4.107 -9,0Z" style="fill-rule:nonzero;"/><path d="M557,690l0,16c4.65,0.619 4.65,0.619 6,-5c2.31,-0.66 4.62,-1.32 7,-2c-0.454,1.671 -0.908,3.341 -1.375,5.062c-1.972,8.419 0.279,12.111 3.375,19.938c-7,-1 -7,-1 -11,-7c-2,3.764 -2,3.764 -3,7c-10.572,-1.762 -7.164,-6.858 -7.188,-16.938c-0.014,-2.752 -0.028,-5.504 -0.043,-8.34c0.299,-8.723 0.299,-8.723 6.23,-8.723Z" style="fill-rule:nonzero;"/><path d="M488,690c2.841,5.391 3.998,9.988 5,16c3.131,0.33 3.131,0.33 3,-7c3,-9 3,-9 11,-9c0.791,5.987 1.022,11.143 0.875,17.125c0.014,1.638 0.028,3.277 0.043,4.965c-0.051,4.668 -0.051,4.668 -0.918,11.91c-6,-2 -6,-2 -7,-10c-0.557,1.506 -1.114,3.011 -1.688,4.562c-2.312,5.438 -2.312,5.438 -8.312,4.438c-1.057,-3.316 -2.076,-6.645 -3,-10c-0.713,4.528 -0.713,4.528 -1,10c-1,1 -1,1 -7,1c-0.621,-7.184 -0.621,-7.184 -0.438,-16.438c0.043,-3.051 0.085,-6.102 0.129,-9.246c0.351,-8.316 0.351,-8.316 9.309,-8.316Z" style="fill-rule:nonzero;"/><rect x="437" y="690" width="3" height="6" style="fill-rule:nonzero;"/><path d="M328,690c7.245,1.449 6.206,4.261 7.625,11.125c1.176,4.393 1.176,4.393 2.375,8.875c2.999,-8.444 2.999,-8.444 4.312,-15.125c1.688,-4.875 1.688,-4.875 7.688,-3.875c5,14.457 5,14.457 5,21c3.302,0.331 3.302,0.331 3,-8c3.5,-14 3.5,-14 7,-14c-0.836,11.238 -1.895,23.79 -7,34c-7.526,-1.505 -6.359,-5.296 -7.875,-12.375c-1.547,-4.269 -1.547,-4.269 -3.125,-8.625c-2.635,5.014 -3.808,10.225 -5.191,15.703c-1.809,5.297 -1.809,5.297 -6.809,5.297c-2.02,-6.168 -2.02,-6.168 -3.812,-14.188c-0.907,-3.95 -0.907,-3.95 -1.832,-7.98c-1.355,-6.832 -1.355,-6.832 -1.355,-11.832Z" style="fill-rule:nonzero;"/><path d="M97,644c0.602,5.191 0.602,5.191 0.625,11.562c0.05,3.158 0.05,3.158 0.102,6.379c-0.727,5.059 -0.727,5.059 -6.727,6.059c-2.551,-5.102 -4.4,-29.2 6,-24Z" style="fill-rule:nonzero;"/><path d="M90,627c8,0 8,0 9,6c-1,1 -1,1 -9,1l0,-7Z" style="fill-rule:nonzero;"/><path d="M106,607c-0.33,2.31 -0.66,4.62 -1,7c4.455,0.99 4.455,0.99 9,2c17.448,12.261 21.026,33.168 12.375,51.812c-16.356,18.829 -38.072,22.107 -58.188,6.75c-16.204,-17.375 -16.835,-38.413 -1.062,-56c9.741,-9.751 24.405,-18.798 38.875,-11.562Zm-42.676,34.301c-0.465,18.973 7.944,33.288 27.988,35.699c16.717,0 27.306,-7.855 32.688,-24c-0.168,-18.142 -6.405,-27.064 -22,-36l-6,0l0,-5c-17.227,0 -30.521,12.396 -32.676,29.301Z" style="fill-rule:nonzero;"/><path d="M500.375,562.25c2.625,3.75 2.625,3.75 2.625,7.75c-8,1 -8,1 -10,-1c-2.97,-0.66 -5.94,-1.32 -9,-2c0.732,5.317 0.732,5.317 10,7c10.256,5.128 12.504,9.74 8,21c-10.161,6.774 -16.89,5.319 -27,-1c-0.33,-2.64 -0.66,-5.28 -1,-8c9,0 9,0 10,3c2.97,0.33 5.94,0.66 9,1c0,-7.12 -8.044,-6.895 -14,-9c-5.412,-6.765 -6.122,-11.666 -1.375,-19.125c7.636,-5.018 15.39,-5.093 22.75,0.375Z" style="fill-rule:nonzero;"/><path d="M465.812,562.625c4.271,7.203 5.402,11.227 3.188,19.375c-5.509,0.82 -10.383,0.48 -15.918,-0.094c-2.021,0.046 -2.021,0.046 -4.082,0.094c2.351,6.723 2.351,6.723 9,7c0.66,-0.99 1.32,-1.98 2,-3c2.97,0.33 5.94,0.66 9,1c-3.319,11.615 -8.734,13.161 -20,12c-8.982,-6.416 -9.312,-8.74 -9.438,-19.25c-0.04,-1.82 -0.08,-3.64 -0.121,-5.516c1.619,-15.172 14.312,-20.693 26.371,-11.609Zm-16.812,7.375c-0.83,5.923 -0.83,5.923 5.938,5.5c6.267,0.418 6.267,0.418 7.062,-3.5c-4.534,-5.667 -7.405,-7.595 -13,-2Z" style="fill-rule:nonzero;"/><path d="M425,559c0.66,0.66 1.32,1.32 2,2c1.32,-0.66 2.64,-1.32 4,-2c2.31,0.66 4.62,1.32 7,2c-3,9 -3,9 -10,10c-1.046,5.976 -1.046,5.976 -0.875,13c-0.098,12.973 -0.098,12.973 -1.125,14c-8,0 -8,0 -9.027,-8.531c-0.012,-3.656 0.02,-7.313 0.09,-10.969c-0.023,-1.86 -0.045,-3.72 -0.068,-5.637c0.107,-13.863 0.107,-13.863 8.006,-13.863Z" style="fill-rule:nonzero;"/><path d="M388,559c2.524,7.573 1.001,17.155 0.938,25.078c0.332,7.518 0.332,7.518 10.062,4.922c0.67,-7.498 0.67,-7.498 0,-16c0.824,-14 0.824,-14 10,-14c0.645,6.543 0.788,12.409 0.562,18.938c-0.028,1.804 -0.055,3.608 -0.084,5.467c-0.333,17.355 -2.495,14.964 -18.916,15.908c-13.733,-0.941 -10.92,-12.858 -11.125,-23.438c-0.063,-1.613 -0.125,-3.225 -0.189,-4.887c-0.167,-11.988 -0.167,-11.988 8.752,-11.988Z" style="fill-rule:nonzero;"/><path d="M350,565c0.858,6.863 1.332,13.534 1.625,20.438c0.095,2.144 0.191,4.287 0.289,6.496c0.101,5.97 0.101,5.97 -6.852,6.629c-2.331,0.144 -4.661,0.289 -7.062,0.438c-1.794,0.144 -3.589,0.289 -5.438,0.438c-9.278,-0.89 -10.521,-6.102 -11.562,-14.438c4.509,-7.891 5.864,-9.833 14.875,-10.312c2.537,-0.34 2.537,-0.34 5.125,-0.688c-0.205,-7.315 -0.205,-7.315 -9,-6c-0.33,0.99 -0.66,1.98 -1,3l-7,0c1.771,-15.937 15.612,-16.388 26,-6Zm-20,19c-0.462,4.908 -0.462,4.908 2,8c10.532,-2.288 10.532,-2.288 9,-12c-4.097,0 -7.941,0.941 -11,4Z" style="fill-rule:nonzero;"/><path d="M315,566c2.848,5.695 2.081,9.999 1,16c-6.399,1.44 -12.398,1.044 -19,1c1.491,5.794 1.491,5.794 8,6c0.66,-0.99 1.32,-1.98 2,-3c2.97,0.33 5.94,0.66 9,1c-3.183,11.139 -9.179,13.23 -20,12c-8.982,-6.416 -9.312,-8.74 -9.438,-19.25c-0.04,-1.82 -0.08,-3.64 -0.121,-5.516c1.804,-16.902 18.461,-21.544 28.559,-8.234Zm-19,4c-0.828,6.029 -0.828,6.029 6.688,5.75c2.083,-0.247 4.166,-0.495 6.312,-0.75c-3.001,-7.003 -6.33,-11.67 -13,-5Z" style="fill-rule:nonzero;"/><path d="M368,548c0.124,1.794 0.248,3.589 0.375,5.438c-0.141,6.108 -0.141,6.108 5.625,7.562l0,7l-6,0c0.043,4.56 0.043,4.56 1,10c-0.103,1.98 -0.206,3.96 -0.312,6c-0.414,5.788 -0.414,5.788 6.312,7c0,7 0,7 -5.188,8.25c-8.553,-0.368 -10.673,-2.995 -11.195,-11.426c0.085,-2.355 0.17,-4.71 0.258,-7.137c0.143,-4.227 0.215,-8.459 0.125,-12.688l-3,0c-1,-2 -1,-2 -1,-8c0.66,-0.33 1.32,-0.66 2,-1c0.619,-1.444 1.238,-2.888 1.875,-4.375c3.852,-8.383 3.852,-8.383 9.125,-6.625Z" style="fill-rule:nonzero;"/><path d="M275.34,543.039c7.66,2.255 7.66,2.255 7.66,9.961c-1.891,3.782 -7.875,1.625 -11.562,1.375c-8.909,-0.768 -8.909,-0.768 -12.938,6.625c3.749,8.997 8.458,6.654 17.344,5.641c4.156,0.359 4.156,0.359 4.156,8.359c-1,1 -1,1 -10.062,-0.25c-11.002,1.539 -10.163,1.589 -10,11.688c0.317,3.524 0.661,7.047 1.062,10.562c-1,1 -1,1 -9,1c-7.063,-24.825 -9.633,-60.51 23.34,-54.961Z" style="fill-rule:nonzero;"/><path d="M73,502c3.803,3.803 2.361,9.004 2,14c-4.944,2.966 -7.559,4.441 -12,0c-1.147,-10.322 -1.597,-15.657 10,-14Zm-6,2c-1.542,7.595 -1.542,7.595 4,11c2.5,-9.332 2.5,-9.332 -4,-11Z" style="fill-rule:nonzero;"/><path d="M141,499l0,2c0.99,-0.66 1.98,-1.32 3,-2l8,0c0,3 0,3 -5,6c-0.33,0.66 -0.66,1.32 -1,2c1.98,0.66 3.96,1.32 6,2c1,8 1,8 -2,11l-7,0l0,-5l5,0c0.572,-4.629 0.572,-4.629 -5,-7c-0.33,-1.98 -0.66,-3.96 -1,-6l-5,0c-0.083,5.999 -0.083,12.001 0,18c-3,0 -3,0 -4,-2c0.083,-2.351 0.165,-4.702 0.25,-7.125c-0.083,-2.269 -0.165,-4.538 -0.25,-6.875c-8.317,0 -6.191,5.856 -7,13c-1,2 -1,2 -5,3c-6.94,-6.94 -6.925,-8.645 -6,-18c0.99,-0.33 1.98,-0.66 3,-1c1.1,3.638 2.098,7.308 3,11c0.33,0.33 0.66,0.66 1,1c0.248,-1.733 0.495,-3.465 0.75,-5.25c2.259,-10.393 8.959,-9.261 18.25,-8.75Z" style="fill-rule:nonzero;"/><path d="M113,500c-1,4 -1,4 -4,5c-0.33,2.97 -0.66,5.94 -1,9l7,0c-1.598,6.392 -5.155,4.505 -11,4c-5.652,-8.477 -1.786,-19.798 9,-18Z" style="fill-rule:nonzero;"/><path d="M103,499l0,3l-6,0c-0.124,5.999 -0.126,12.001 0,18c-3,-1 -3,-1 -2.875,-9c1.169,-8.588 1.169,-8.588 -5.125,-9c3.419,-5.129 8.345,-3.361 14,-3Z" style="fill-rule:nonzero;"/><path d="M87,499c2.122,4.244 0.886,8.571 0,13c0.99,0.99 1.98,1.98 3,3c-0.33,0.99 -0.66,1.98 -1,3c-2.64,-1.32 -5.28,-2.64 -8,-4c-0.33,2.31 -0.66,4.62 -1,7c-5.131,-1.71 -3.319,-6.109 -3.25,-11c0.015,-1.836 0.031,-3.671 0.047,-5.562c0.357,-7.808 0.667,-5.438 10.203,-5.438Zm-6,3c0.66,1.32 1.32,2.64 2,4l0,-4l-2,0Z" style="fill-rule:nonzero;"/><path d="M52,499l0,7l6,0l0,-6c6.478,2.159 3.233,13.441 3,19l-3,0l0,-8l-6,0l0,9c-5.75,0 -4.526,-6.352 -5,-11c2.198,-10 2.198,-10 5,-10Z" style="fill-rule:nonzero;"/><path d="M44,499c-0.33,2.64 -0.66,5.28 -1,8c1.32,1.32 2.64,2.64 4,4c-1.125,9 -1.125,9 -11,9c1,-4 1,-4 5,-4c-1.32,-2.64 -2.64,-5.28 -4,-8c-1.509,-7.544 -0.915,-9 7,-9Z" style="fill-rule:nonzero;"/><path d="M98.875,441.75c2.576,-0.026 5.151,-0.052 7.805,-0.078c6.32,0.328 6.32,0.328 9.32,3.328c-3.669,7.339 -14.006,4.43 -21.438,4.312c-1.826,-0.01 -3.652,-0.019 -5.533,-0.029c-13.525,-0.115 -13.525,-0.115 -17.029,-1.283c2.443,-9.771 18.701,-6.201 26.875,-6.25Z" style="fill-rule:nonzero;"/><path d="M396,436c0.66,0.99 1.32,1.98 2,3c1.32,-0.99 2.64,-1.98 4,-3c12.113,1.514 15.544,9.133 16.438,20.625c-0.438,5.375 -0.438,5.375 -6.438,7.375c-3.664,-5.246 -5.231,-9.808 -7,-16c-4.112,4.682 -4.112,4.682 -6,9.688c-2,4.312 -2,4.312 -6,6.312c-6.617,-5.293 -5.569,-7.467 -5.375,-15.688c0.034,-2.087 0.067,-4.174 0.102,-6.324c0.328,-5.988 0.328,-5.988 8.273,-5.988Z" style="fill-rule:nonzero;"/><path d="M875.5,437.625c2.227,2.166 2.227,2.166 4.5,4.375c4.372,-2.012 4.372,-2.012 9,-6c6.423,-2.141 10.393,-1.364 16,2c7.99,1.188 7.99,1.188 16.062,0.875c7.938,0.125 7.938,0.125 14.938,3.125c4.258,0.615 8.532,1.128 12.812,1.562c11.973,1.223 11.973,1.223 14.188,3.438c-2.125,12.748 -17.624,10.387 -28,10c-1.589,-0.665 -3.179,-1.33 -4.816,-2.016c-5.916,-2.265 -10.197,-2.293 -16.496,-2.047c-10.158,0.38 -10.158,0.38 -15.688,-2.938c-6.502,1.841 -6.502,1.841 -13,7c-10.541,2.19 -13.436,-3.498 -20,-11c-7.224,-1.043 -7.224,-1.043 -9,4c-5,6 -5,6 -9,5c-1.233,-17.265 14.483,-29.162 28.5,-17.375Z" style="fill-rule:nonzero;"/><path d="M508,438c7.271,7.271 5.836,13.537 1,22c-9.937,6.625 -14.291,3.709 -22,-4c-1.084,-16.563 3.403,-25.542 21,-18Zm-14,13c2.786,4.948 2.786,4.948 9,3c2.119,-8.401 2.119,-8.401 -1,-11c-6.131,-0.78 -6.131,-0.78 -8,8Z" style="fill-rule:nonzero;"/><path d="M312,436c0.33,1.32 0.66,2.64 1,4c2.31,-1.32 4.62,-2.64 7,-4c13.89,4.63 15,11.484 15,25c-6,3 -6,3 -9,0c-3,-9 -3,-9 -3,-12c-5.22,4.627 -5.22,4.627 -7.438,10.438c-2.562,4.562 -2.562,4.562 -8.562,2.562c-2.051,-4.103 -1.13,-9.6 -1.125,-14.062c-0.003,-2.198 -0.005,-4.396 -0.008,-6.66c0.163,-6.471 0.163,-6.471 6.133,-5.277Z" style="fill-rule:nonzero;"/><path d="M297,437c6.767,8.121 8.486,16.072 1.062,24.438c-9.758,4.939 -14.085,1.54 -21.062,-5.438c-0.888,-15.986 2.991,-25.804 20,-19Zm-12,8c-1.193,8.149 -1.193,8.149 4,10c6.053,-1.503 6.053,-1.503 4,-10c-5.702,-2.894 -5.702,-2.894 -8,0Z" style="fill-rule:nonzero;"/><path d="M707.688,436.438c5.155,7.1 8.312,16.727 8.312,25.562c-5.605,2.803 -7.73,1.27 -12,-3l0,-2c-1.98,1.65 -3.96,3.3 -6,5c-10.111,0.889 -10.111,0.889 -14,-3c-1.269,-13.819 6.545,-33.894 23.688,-22.562Zm-9.688,5.562c-5.799,5.376 -5.799,5.376 -4,11c6.07,-5.064 6.07,-5.064 4,-11Z" style="fill-rule:nonzero;"/><path d="M560,437c0.762,7.512 0.762,7.512 0.688,16.688c0.006,4.523 0.006,4.523 0.012,9.137c-1.201,14.045 -5.552,21.176 -20.699,21.176c-5,-3 -5,-3 -6,-9c5,-1 5,-1 10.312,-0.438c5.363,0.126 5.363,0.126 5.25,-5.188c-0.186,-1.774 -0.371,-3.548 -0.562,-5.375c0.33,-1.98 0.66,-3.96 1,-6c-0.99,0.33 -1.98,0.66 -3,1c-11.535,0 -11.735,-1.611 -13,-13c5.334,-13.106 13.436,-17.376 26,-9Zm-17,11l0,1c4.882,0.589 4.882,0.589 7,-2l0,-5c-3.925,-0.416 -3.925,-0.416 -7,6Z" style="fill-rule:nonzero;"/><path d="M269,434c-1.101,5.505 -3.198,10 -10,10c-0.33,2.97 -0.66,5.94 -1,9c5.336,-0.296 10.669,-0.631 16,-1c1,8 1,8 -7,12c-9.792,0.967 -15.38,-0.759 -20,-10c0.368,-7.428 11.455,-35.818 22,-20Z" style="fill-rule:nonzero;"/><path d="M788,434c0.966,9.013 0.743,10.257 -6,17l-6,0c0.62,5.19 0.62,5.19 8.562,4.375c7.438,0.625 7.438,0.625 7.438,6.625c-4.012,6.019 -11.628,3.562 -18,3c-11.549,-7.659 -12.377,-13.869 -8,-27c7.448,-7.333 11.776,-10.816 22,-4Zm-13,9c6.822,-0.123 6.822,-0.123 6,-6c-3.894,-0.447 -3.894,-0.447 -6,6Z" style="fill-rule:nonzero;"/><path d="M657,433c-1,4 -1,4 -10,6c-0.481,4.076 -0.481,4.076 7,5c7.498,5.752 9.499,8.951 6,18c-6.861,4.116 -12.132,3.471 -20,3c-2,-4 -2,-4 0,-9c3.96,-0.495 3.96,-0.495 8,-1c0.271,-2.83 0.271,-2.83 -5,-5.562c-5,-4.438 -5,-4.438 -5,-13.438c4.898,-4.898 13.404,-11.394 19,-3Z" style="fill-rule:nonzero;"/><path d="M588,435c0.424,9.121 -1.18,12.379 -9,17c-0.99,0.66 -1.98,1.32 -3,2c2.413,0.227 4.826,0.454 7.312,0.688c7.688,1.312 7.688,1.312 7.688,8.312c-7.728,5.152 -16.667,2.19 -24,-2c-6.807,-10.211 -5.286,-18.42 2,-28c7.748,-3.874 12.634,-4.366 19,2Zm-14,8c5.817,-0.314 5.817,-0.314 5,-6c-3.896,-0.474 -3.896,-0.474 -5,6Z" style="fill-rule:nonzero;"/><path d="M382,433c1.274,10.57 -1.563,15.281 -11,20c3.341,0.588 3.341,0.588 6.75,1.188c7.25,1.812 7.25,1.812 7.25,8.812c-6.685,6.685 -17.865,1.382 -24,-3c-5.489,-10.979 -3.764,-19.236 5,-28c5.67,-2.835 10.629,-2.581 16,1Zm-14,10c6.654,0.981 6.654,0.981 7,-5c-3.848,-1.819 -3.848,-1.819 -7,5Z" style="fill-rule:nonzero;"/><path d="M77,430l6,0c-2,5 -2,5 -6,5l0,-5Z" style="fill-rule:nonzero;"/><path d="M113,429c-0.33,1.65 -0.66,3.3 -1,5c-1.32,-0.33 -2.64,-0.66 -4,-1c1,-4 1,-4 5,-4Z" style="fill-rule:nonzero;"/><path d="M92,429c1.65,0.33 3.3,0.66 5,1c-0.33,1.32 -0.66,2.64 -1,4c-1.65,-0.33 -3.3,-0.66 -5,-1c0.33,-1.32 0.66,-2.64 1,-4Z" style="fill-rule:nonzero;"/><path d="M84,416c4,1 4,1 6,4c-1.98,0.33 -3.96,0.66 -6,1l0,-5Z" style="fill-rule:nonzero;"/><path d="M818,417c2.156,7.548 2.89,14.561 3.625,22.375c0.391,4.064 0.391,4.064 0.789,8.211c1.283,16.24 1.283,16.24 -3.414,17.414c-1.65,-0.99 -3.3,-1.98 -5,-3c-4.354,-1.589 -4.354,-1.589 -9,2c-12.607,-2.802 -12.741,-6.214 -11,-18c3.439,-8.598 6.587,-12 16,-12c0.417,-7.875 0.417,-7.875 0,-16c2,-3 2,-3 8,-1Zm-17,33l0,3c8.449,-1.408 7,-1.244 7,-10c-3.24,-0.271 -3.24,-0.271 -7,7Z" style="fill-rule:nonzero;"/><path d="M756,417l0,15l7,0c3,1 3,1 2,7c-2.97,0.33 -5.94,0.66 -9,1c0.495,2.475 0.495,2.475 1,5c0.242,3.454 0.401,6.914 0.5,10.375c0.108,2.734 0.108,2.734 0.219,5.523c-0.237,1.354 -0.474,2.707 -0.719,4.102c-10.732,-1.533 -10.201,-7.188 -9.5,-17c0.375,-6.575 0.375,-6.575 -5.625,-7.75c-11.547,1.474 -12.513,9.979 -14.875,19.75c-4,2 -4,2 -9,1c-2.272,-5.68 -2.233,-9.656 -2.188,-15.75c0.006,-1.892 0.013,-3.785 0.02,-5.734c0.168,-4.516 0.168,-4.516 1.168,-5.516c5,0 5,0 9,2c0.99,-0.99 1.98,-1.98 3,-3c3.032,0.227 6.064,0.454 9.188,0.688c9.73,0.681 9.73,0.681 9.812,-7.438c-0.33,-2.392 -0.66,-4.785 -1,-7.25c2,-4 2,-4 9,-2Z" style="fill-rule:nonzero;"/><path d="M675,415c1,1 1,1 0.938,8.438c1.337,9.516 2.257,8.762 11.062,9.562c-2,6 -2,6 -10,8c-0.522,5.396 -0.522,5.396 0.375,11.562c1.263,11.331 1.263,11.331 -5.375,12.438c-5,-8 -5,-8 -5.938,-15.812c-0.143,-7.752 -0.143,-7.752 -7.062,-10.188c0,-5 0,-5 7,-7c0.919,-6.943 0.919,-6.943 1,-14c2,-3 2,-3 8,-3Z" style="fill-rule:nonzero;"/><path d="M606,415c1,2 1,2 0.938,9c1.375,9.056 2.667,8.128 11.062,9c-2,6 -2,6 -9,7c-0.587,5.539 -0.587,5.539 0,12c0.778,11.889 0.778,11.889 -7,13c-4,-7 -4,-7 -4.312,-16.438c0.651,-9.725 0.651,-9.725 -7.688,-8.562c1,-7 1,-7 7,-8c0.503,-4.986 0.834,-9.992 1,-15c2,-2 2,-2 8,-2Z" style="fill-rule:nonzero;"/><path d="M478,417c-0.041,2.351 -0.082,4.702 -0.125,7.125c0.041,2.269 0.082,4.538 0.125,6.875l8,0c3,4 3,4 3,7c-4,2 -4,2 -9,2c-0.347,5.206 -0.347,5.206 0.25,11.375c0.814,11.497 0.814,11.497 -0.25,13.625c-13.014,-1.627 -10.703,-11.326 -12,-23c-1.98,-0.66 -3.96,-1.32 -6,-2c-1,-5 -1,-5 2,-7l5,0c0.091,-3.666 0.077,-7.334 0,-11c3,-7 3,-7 9,-5Z" style="fill-rule:nonzero;"/><path d="M432,417c-0.082,2.351 -0.165,4.702 -0.25,7.125c0.124,3.403 0.124,3.403 0.25,6.875l9,0c3,5 3,5 3,7c-7,3 -7,3 -10,3c-0.098,5.976 0.209,11.901 0.48,17.871c-0.48,5.129 -0.48,5.129 -6.48,6.129c-5.055,-5.055 -4.018,-8.223 -4.125,-15.688c0.381,-9.288 0.381,-9.288 -7.875,-9.312c-0.33,-1.98 -0.66,-3.96 -1,-6c2.97,-0.33 5.94,-0.66 9,-1c0.5,-7.416 0.5,-7.416 0,-15c3,-3 3,-3 8,-1Z" style="fill-rule:nonzero;"/><path d="M349,415c1,2 1,2 1,9c0.067,8.265 0.067,8.265 10,9c-1,6 -1,6 -10,7c0.33,1.98 0.66,3.96 1,6c1.432,16.712 1.432,16.712 -2,19c-8.907,-1.781 -8.016,-5.18 -8.812,-14.125c0.088,-9.448 0.088,-9.448 -7.188,-10.875c1,-7 1,-7 7,-8c0.503,-4.986 0.834,-9.992 1,-15c2,-2 2,-2 8,-2Z" style="fill-rule:nonzero;"/><path d="M114,415c3,1 3,1 3,6l-5,0c0.66,-1.98 1.32,-3.96 2,-6Z" style="fill-rule:nonzero;"/><path d="M99,415c4,1 4,1 4,6c-1.65,-0.33 -3.3,-0.66 -5,-1c0.33,-1.65 0.66,-3.3 1,-5Z" style="fill-rule:nonzero;"/><path d="M71,415c4,1 4,1 4,6c-1.65,-0.33 -3.3,-0.66 -5,-1c0.33,-1.65 0.66,-3.3 1,-5Z" style="fill-rule:nonzero;"/><path d="M101.625,398.5c2.047,-0.054 4.094,-0.108 6.203,-0.164c1.967,-0.018 3.934,-0.036 5.961,-0.055c1.791,-0.03 3.583,-0.061 5.428,-0.092c10.077,1.708 12.63,8.471 13.783,17.811c0.495,3.96 0.495,3.96 1,8c0.143,4.832 0.22,9.666 0.25,14.5c0.026,2.527 0.052,5.053 0.078,7.656c-1.118,23.328 -19.435,18.884 -37.828,18.969c-39.793,-0.204 -39.793,-0.204 -40.775,-16.756c-0.028,-5.623 -0.047,-11.246 -0.038,-16.869c-0.024,-2.941 -0.024,-2.941 -0.049,-5.941c-0.001,-1.886 -0.001,-3.772 -0.002,-5.715c-0.003,-1.72 -0.006,-3.441 -0.009,-5.213c1.682,-20.925 30.122,-15.95 45.997,-16.131Zm-43.382,52.52c12.897,17.095 49.311,12.304 66.757,4.98c7.574,-9.841 3.908,-23.194 1.113,-34.398c-1.113,-4.602 -1.113,-4.602 -2.113,-13.602c-5.977,-1.073 -5.977,-1.073 -14,-1c-3.959,-0.586 -7.914,-1.195 -11.867,-1.82c-33.442,-3.917 -52.679,9.043 -39.89,45.84Z" style="fill-rule:nonzero;"/><path d="M1052,384c0,6 0,6 -1,8c-7,0 -7,0 -9,-6c3,-3 3,-3 10,-2Z" style="fill-rule:nonzero;"/><path d="M994,368c0.33,3.698 0.49,7.413 0.562,11.125c0.063,2.044 0.126,4.089 0.191,6.195c-0.249,1.544 -0.498,3.089 -0.754,4.68c-12.766,-1.824 -9.334,-9.633 -9,-21c2.837,-4.255 4.675,-3.162 9,-1Z" style="fill-rule:nonzero;"/><path d="M1474,365c11.685,3.339 8.753,12.955 8,24c-8,1 -8,1 -10,-5c-0.272,-7.075 -0.248,-12.255 2,-19Z" style="fill-rule:nonzero;"/><path d="M1363,367c2.305,2.305 1.373,8.587 1.438,11.5c0.061,1.928 0.121,3.857 0.184,5.844c-0.621,4.656 -0.621,4.656 -6.621,5.656c-5.308,-7.077 -8.368,-27.456 5,-23Z" style="fill-rule:nonzero;"/><path d="M909,364c1.033,9.552 0.752,17.09 -5,25c-8,1 -8,1 -13,-3c-2.596,-0.298 -2.596,-0.298 -4,4c-13.789,-1.724 -13.396,-12.812 -14,-25c6,-1 6,-1 8.5,3.75c0.825,1.402 1.65,2.805 2.5,4.25c1.98,-1.65 3.96,-3.3 6,-5c6,2 6,2 8,7c0.557,-1.897 1.114,-3.795 1.688,-5.75c2.312,-6.25 2.312,-6.25 9.312,-5.25Z" style="fill-rule:nonzero;"/><path d="M595,367c2.08,6.241 3.878,19.082 -2,23c-8.46,-1.692 -6.135,-4.799 -6.125,-13c-0.003,-2.021 -0.005,-4.043 -0.008,-6.125c0.168,-6.151 0.168,-6.151 8.133,-3.875Z" style="fill-rule:nonzero;"/><path d="M387,367c0.832,5.262 0.832,5.262 0.812,11.688c0.041,3.192 0.041,3.192 0.082,6.449c-0.443,2.407 -0.443,2.407 -0.895,4.863c-12.742,-1.82 -9.415,-9.638 -9,-21c3,-4 3,-4 9,-2Z" style="fill-rule:nonzero;"/><path d="M328,367c0.832,5.262 0.832,5.262 0.812,11.688c0.041,3.192 0.041,3.192 0.082,6.449c-0.443,2.407 -0.443,2.407 -0.895,4.863c-12.439,-1.777 -9.429,-10.03 -9,-21c3,-4 3,-4 9,-2Z" style="fill-rule:nonzero;"/><path d="M1141,364c2,5 2,5 3,14c2.752,-1.065 5,-12 7,-13c10.159,3.386 10.364,14.183 12,24c-4,2 -4,2 -8,1c-4.605,-1.453 -4.605,-1.453 -7,0c-9.491,0.123 -9.513,-0.221 -15,-9c-1.017,-17 -1.017,-17 8,-17Z" style="fill-rule:nonzero;"/><path d="M500,365c1,5 1,5 1,14c3.564,-1.897 3.564,-1.897 4.312,-7c1.688,-5 1.688,-5 7.688,-7c2.188,4.25 2.188,4.25 4,10c0.577,1.774 1.155,3.548 1.75,5.375c1.25,4.625 1.25,4.625 1.25,8.625c-7,1 -7,1 -9,-2c-1.98,0.99 -3.96,1.98 -6,3c-15.326,-1.703 -14.702,-10.671 -14,-24c1,-2 1,-2 9,-1Z" style="fill-rule:nonzero;"/><path d="M1256,365c1.65,-0.33 3.3,-0.66 5,-1c11.158,3.719 13.665,13.985 12,25c-9.958,1.423 -8.512,0.953 -11,-9l0,-4c-5.37,-0.632 -5.37,-0.632 -7,9c-2,5 -2,5 -10,4c-1.552,-4.657 -1.172,-9.235 -1.188,-14.125c-0.014,-2.003 -0.028,-4.006 -0.043,-6.07c0.418,-8.717 5.209,-5.56 12.23,-3.805Z" style="fill-rule:nonzero;"/><path d="M924,365c1.65,-0.33 3.3,-0.66 5,-1c11.795,2.359 12.755,14.868 12,25c-8.572,1.429 -7.974,-1.564 -11,-9c-0.33,-1.65 -0.66,-3.3 -1,-5c-3.112,-0.319 -3.112,-0.319 -4.125,6.938c-2.875,7.062 -2.875,7.062 -10.875,8.062c-4.012,-14.044 -7.264,-28.453 10,-25Z" style="fill-rule:nonzero;"/><path d="M868,366c5.992,5.992 5.967,14.337 1,21.062c-8.405,6.173 -11.26,5.4 -20,-0.062c-10.62,-15.93 3.353,-27.706 19,-21Zm-14,13c2.786,4.948 2.786,4.948 9,3c2.083,-4.166 1.454,-7.319 -1,-11c-6.131,-0.78 -6.131,-0.78 -8,8Z" style="fill-rule:nonzero;"/><path d="M697,364l0,2c1.32,-0.99 2.64,-1.98 4,-3c7,0 7,0 12,5c2.82,0.149 2.82,0.149 8,-3c11.135,3.712 11.2,13.52 11,24c-7.699,1.283 -6.749,0.501 -10,-6l0,-6c-4.454,-0.497 -4.454,-0.497 -4,9c-3,3 -3,3 -10,1c-0.722,-1.959 -1.444,-3.919 -2.188,-5.938c-0.598,-1.341 -1.196,-2.681 -1.812,-4.062c-1.406,4.31 -2.725,8.649 -4,13c-6,2 -6,2 -9,1c-0.247,-4.494 -0.297,-8.999 -0.25,-13.5c0.015,-2.485 0.031,-4.971 0.047,-7.531c0.244,-7.161 0.244,-7.161 6.203,-5.969Z" style="fill-rule:nonzero;"/><path d="M484,365c7.229,8.675 7.026,11.948 2,22c-7.804,6.243 -11.432,5.896 -20,1c-7.275,-14.549 0.615,-29.954 18,-23Zm-12,7c-1.143,8.286 -1.143,8.286 5,11c2.774,0.309 2.774,0.309 4,-5c-0.721,-3.606 -3.545,-11.455 -9,-6Z" style="fill-rule:nonzero;"/><path d="M442,364c5,7.5 5,7.5 5,13c4.951,-1.65 5.195,-6.375 7,-11c3,-3 3,-3 8,-2c2.908,11.63 -8.855,41.913 -19,48c-4,-1 -4,-1 -5,-3c1.199,-5.364 2.592,-10.667 3.969,-15.988c1.416,-6.884 0.681,-9.119 -3.469,-14.824c-5.101,-7.56 -8.523,-16.191 3.5,-14.188Z" style="fill-rule:nonzero;"/><path d="M1202,359c2,4 2,4 2,7c-3.96,1.98 -3.96,1.98 -8,4c-2.695,5.022 -2.695,5.022 -2,10c11.316,1.573 11.316,1.573 18.25,-5.625c4.677,-9.142 7.377,-12.078 17.75,-13.375c3,2 3,2 4,5c0.99,0.33 1.98,0.66 3,1c5,15.233 5,15.233 5,23c-8,0 -8,0 -10,-4c-4.811,1.725 -4.811,1.725 -8,4c-5.638,-0.259 -9.923,-0.462 -15,-3c-1.98,1.32 -3.96,2.64 -6,4c-9.812,1.402 -14.856,-1.32 -21,-9c-1.825,-13.869 6.058,-23 20,-23Zm18,16l0,5c6.136,-1.608 6.136,-1.608 6,-10c-2.859,-0.26 -2.859,-0.26 -6,5Z" style="fill-rule:nonzero;"/><path d="M1129,368c5.62,8.43 1.871,15.15 -4,22c-8.63,3.362 -13.006,2.058 -19,-5c-1.852,-17.237 6.74,-31.297 23,-17Zm-16,8c1.167,6.167 1.167,6.167 5,7c4.949,-1.789 4.949,-1.789 5,-9c-5.034,-5.034 -6.439,-3.935 -10,2Z" style="fill-rule:nonzero;"/><path d="M754,362c0.66,1.32 1.32,2.64 2,4c1.32,0.66 2.64,1.32 4,2c2.313,7.902 4,14.749 4,23c-4,1 -4,1 -10,-5c-4.811,1.725 -4.811,1.725 -8,4c-11.7,0 -11.7,0 -12.562,-8.625c1.095,-12.409 7.832,-20.681 20.562,-19.375Zm-6,8c-5.799,5.376 -5.799,5.376 -4,11c6.07,-5.064 6.07,-5.064 4,-11Z" style="fill-rule:nonzero;"/><path d="M606,362c0.33,0.66 0.66,1.32 1,2c1.32,-0.99 2.64,-1.98 4,-3c8,0 8,0 9,7c-1.98,1.65 -3.96,3.3 -6,5c-1.454,4.966 -2.796,9.967 -4,15c-2,2 -2,2 -8,1c-3.447,-8.617 -9.825,-29.304 4,-27Z" style="fill-rule:nonzero;"/><path d="M528,362c0.33,0.66 0.66,1.32 1,2c1.32,-0.99 2.64,-1.98 4,-3c8,0 8,0 10,6c-1.052,1.011 -2.104,2.021 -3.188,3.062c-5.037,5.202 -5.415,9.95 -6.812,16.938c-3,3 -3,3 -9,2c-2.633,-7.898 -9.673,-29.735 4,-27Z" style="fill-rule:nonzero;"/><path d="M1502,358c2,6 2,6 1,7l-7,0c3.576,4.795 7.77,8.77 12,13c1,9 1,9 -4,14c-12.922,1.863 -12.922,1.863 -19,-3c1.805,-7.219 1.685,-4.93 11,-7c-5.015,-5.166 -5.015,-5.166 -11,-10c-0.453,-12.22 5.388,-15.366 17,-14Z" style="fill-rule:nonzero;"/><path d="M1036,363c0,9.001 -2.462,13.731 -11,18c3.434,0.526 3.434,0.526 6.938,1.062c7.062,1.938 7.062,1.938 6.062,9.938c-8.536,4.268 -17.37,0.651 -24,-5c-5.278,-10.557 -1.079,-19.505 6,-28c6.888,-2.296 11.154,-0.846 16,4Zm-14,8c1.98,-0.33 3.96,-0.66 6,-1c-1.619,-8.094 -2.687,-5.626 -6,1Z" style="fill-rule:nonzero;"/><path d="M638,358c2,6 2,6 -6,10c-0.33,0.66 -0.66,1.32 -1,2c2.97,0.99 5.94,1.98 9,3c6.197,4.648 5,5.695 5,14c-6.305,6.305 -14.59,9.607 -23,4c0,-7 0,-7 9,-8c0.66,-0.33 1.32,-0.66 2,-1c-1.959,-1.712 -3.919,-3.424 -5.938,-5.188c-6.062,-5.812 -6.062,-5.812 -5.062,-11.812c7,-7 7,-7 16,-7Z" style="fill-rule:nonzero;"/><path d="M408,358c1,6 1,6 -6,9c0,5.071 4.757,5.133 9,7c5.176,6.902 4.708,9.938 0,17c-6.807,3.404 -13.873,3.595 -20,-1c0,-5 0,-5 1,-6c2.166,0.062 4.331,0.124 6.562,0.188c3.187,-0.093 3.187,-0.093 6.438,-0.188c0.641,-5.03 0.641,-5.03 -7,-6c-7.183,-5.305 -8.204,-8.604 -5,-17c6,-3 6,-3 15,-3Z" style="fill-rule:nonzero;"/><path d="M349,358c2,5 2,5 -5,10c2.475,1.98 2.475,1.98 5,4c7.892,6.765 8.444,7.444 6,17c-8.155,4.66 -11.895,4.632 -21,3c-1,-7 -1,-7 0,-8c1.897,-0.144 3.795,-0.289 5.75,-0.438c1.402,-0.516 2.805,-1.031 4.25,-1.562c-3.618,-3.386 -7.294,-6.71 -11,-10c0,-12.112 4.297,-15.54 16,-14Z" style="fill-rule:nonzero;"/><path d="M588,354c7,1 7,1 7,7c-1,1 -1,1 -8,0c0.33,-2.31 0.66,-4.62 1,-7Z" style="fill-rule:nonzero;"/><path d="M387,352c1,6 1,6 -5,9c-7.037,-7.037 -4.353,-9 5,-9Z" style="fill-rule:nonzero;"/><path d="M328,352c1,1 1,1 1,7c-6,2 -6,2 -10,-3c2,-4 2,-4 9,-4Z" style="fill-rule:nonzero;"/><path d="M1480,352c2,2 2,2 2,7c-1,1 -1,1 -7,1c-2.845,-7.112 -3.511,-9.419 5,-8Z" style="fill-rule:nonzero;"/><path d="M1364,352c2,6 2,6 -3,9c-8.853,-3.541 -7.454,-10.493 3,-9Z" style="fill-rule:nonzero;"/><path d="M797,346c0.062,3.114 0.124,6.229 0.188,9.438c0.268,2.826 0.536,5.651 0.812,8.562c6.263,-1.795 6.263,-1.795 12,-6c3.753,7.505 -0.286,9.102 -6,14c5.015,5.166 5.015,5.166 11,10c0.768,-3.647 1.411,-7.32 2,-11c6,-7 6,-7 13,-9c0.464,-3.991 0.464,-3.991 0.938,-8.062c1.062,-7.938 1.062,-7.938 9.062,-8.938c2.065,7.226 2.871,13.903 3.625,21.375c0.26,2.524 0.521,5.048 0.789,7.648c1.324,15.766 1.324,15.766 -6.414,17.977c-0.99,-2.475 -0.99,-2.475 -2,-5c-3.359,1.614 -6.691,3.286 -10,5c-1.65,-0.66 -3.3,-1.32 -5,-2c-2.413,-0.289 -4.826,-0.577 -7.312,-0.875c-7.688,-1.125 -7.688,-1.125 -15.688,-5.125c-0.33,2.64 -0.66,5.28 -1,8c-5,1 -5,1 -8,-2c-0.826,-5.949 -1.342,-11.896 -1.863,-17.879c-0.375,-1.36 -0.75,-2.72 -1.137,-4.121c-6.643,5.676 -6.643,5.676 -8.438,14.438c-2.562,7.562 -2.562,7.562 -9.562,6.562c-3.099,-4.649 -2.38,-9.109 -2.438,-14.625c-0.04,-2.096 -0.08,-4.192 -0.121,-6.352c0.559,-5.023 0.559,-5.023 5.559,-6.023c0.66,0.66 1.32,1.32 2,2c1.65,-0.99 3.3,-1.98 5,-3c2.97,0.33 5.94,0.66 9,1c1.116,-4.631 1.116,-4.631 1,-10c2,-7 2,-7 9,-6Zm28,29l0,6c4.926,-1.232 7,-3.453 7,-9c-3.522,-1.671 -3.522,-1.671 -7,3Z" style="fill-rule:nonzero;"/><path d="M1007,345c2.316,9.264 2.254,17.968 2.188,27.438c-0.001,1.768 -0.001,3.536 -0.002,5.357c-0.045,13.065 -0.045,13.065 -1.186,14.205c-10.065,0 -8.889,-7.114 -9.387,-15.578c-0.099,-2.532 -0.199,-5.063 -0.301,-7.672c-0.107,-2.521 -0.214,-5.043 -0.324,-7.641c0.032,-19.701 0.032,-19.701 9.012,-16.109Z" style="fill-rule:nonzero;"/><path d="M1429,345c-0.041,2.351 -0.082,4.702 -0.125,7.125c0.041,2.269 0.082,4.538 0.125,6.875c10.344,1.491 10.344,1.491 10,-9c1,-5 1,-5 8,-5c2,5 2,5 2.75,13.5c0.412,2.475 0.825,4.95 1.25,7.5c1.98,-0.99 3.96,-1.98 6,-3c11.976,1.996 13.109,15.355 13,26c-9.416,1.569 -9.329,-4.987 -12,-13c-0.99,-0.33 -1.98,-0.66 -3,-1c-1.11,3.971 -2.106,7.975 -3,12c-1,2 -1,2 -9,3c-2.025,-6.075 -1.91,-9.252 -1.438,-15.5c0.795,-9.344 0.795,-9.344 -6.074,-8.785c-7.992,3.328 -6.509,6.139 -5.863,14.348c0.847,11.843 0.847,11.843 -4.625,12.938c-6.049,-6.049 -5.01,-7.773 -4.625,-16.75c-0.124,-2.723 -0.247,-5.445 -0.375,-8.25l-7,0c-2,-5 -2,-5 4,-8l3,0c0.042,-5 0.041,-10 0,-15c2,-2 2,-2 9,0Z" style="fill-rule:nonzero;"/><path d="M1348,345c1.312,6.812 1.312,6.812 2,16c0.371,3.646 0.746,7.292 1.125,10.938c1.847,18.739 1.847,18.739 -5.125,21.062c-2,-2 -2,-2 -3,-6c-1.65,0.99 -3.3,1.98 -5,3c-5.287,0.238 -9.858,0.285 -15,-1c-0.99,0.99 -1.98,1.98 -3,3c-12.065,1.724 -19.993,2.013 -26,-10c0,-14.346 3.07,-22.341 18,-24c6.36,3.816 6.564,5.768 7,13c-6,6 -6,6 -15,7c-0.66,5.412 -0.66,5.412 8.938,5.25c10.218,1.212 10.218,1.212 10.062,-8.25c3.765,-9.413 5.769,-10.863 16,-12c0.583,-7.875 0.583,-7.875 0,-16c2,-4 2,-4 9,-2Zm-44,26c6.822,-0.123 6.822,-0.123 6,-6c-3.894,-0.447 -3.894,-0.447 -6,6Zm28,4l0,6c4.589,-0.646 4.589,-0.646 7,-6c-1.902,-5.706 -3.761,-4.318 -7,0Z" style="fill-rule:nonzero;"/><path d="M295,346c1.104,6.391 2,12.509 2,19c2.258,-0.526 2.258,-0.526 4.562,-1.062c8.052,-1.388 11.47,2.225 14.031,9.734c2.517,14.106 2.517,14.106 1.406,16.328c-9.894,0 -8.781,-3.124 -11,-12l0,-4c-5.707,0 -4.964,7.336 -6,12c-1,3 -1,3 -9,4c-2.75,-6.417 -3.607,-10.44 -4.188,-17.25c-0.175,-1.843 -0.351,-3.687 -0.531,-5.586c-0.281,-5.164 -0.281,-5.164 0.531,-12.039c-0.363,-5.27 -0.363,-5.27 -8.328,-5.16c-12.018,3.268 -8.883,11.861 -8.047,22.473c1.24,20.337 1.24,20.337 -5.438,22.562c-5.46,-7.279 -2.536,-19.213 -1.828,-28.131c0.38,-5.517 0.38,-5.517 -1.172,-12.869c-7.52,-0.43 -7.52,-0.43 -15,1c-1.397,-9.782 1.067,-8.153 9.625,-10.625c31.567,-5.183 31.567,-5.183 38.375,1.625Z" style="fill-rule:nonzero;"/><path d="M1383,344c-0.082,2.516 -0.165,5.033 -0.25,7.625c-0.933,7.996 -0.933,7.996 5.188,8.25c1.671,-0.289 3.341,-0.577 5.062,-0.875c1,1 1,1 1,6c-2.97,0.99 -5.94,1.98 -9,3c-0.906,5.681 -0.906,5.681 -0.25,12.125c0.749,11.775 0.749,11.775 -4.75,12.875c-6.252,-7.503 -6.095,-8.033 -5.625,-17.75c-0.186,-3.589 -0.186,-3.589 -0.375,-7.25l-7,0c-1,-6 -1,-6 6,-8c0.838,-6.904 0.838,-6.904 1,-14c3,-4 3,-4 9,-2Z" style="fill-rule:nonzero;"/><path d="M984,342c5,5 5,5 7,11c1.32,0.99 2.64,1.98 4,3c-2,6 -2,6 -9,5c-1,-5 -1,-5 0,-8c-8.31,-1.698 -8.31,-1.698 -11.562,5.438c-0.241,6.603 -0.241,6.603 7.562,6.562c0,6 0,6 -6,8c-0.417,8.5 -0.417,8.5 0,17c-1,2 -1,2 -7,2c-1.74,-5.645 -3.404,-11.313 -5,-17c-1.65,-0.99 -3.3,-1.98 -5,-3c1,-5 1,-5 5,-5c-0.021,-1.939 -0.041,-3.877 -0.062,-5.875c0.136,-15.52 5.366,-20.086 20.062,-19.125Z" style="fill-rule:nonzero;"/><path d="M659,343c0.082,2.661 0.165,5.321 0.25,8.062c-0.438,9.431 -0.438,9.431 9.75,7.938c0,7 0,7 -1,8l-8,0c-0.75,5.722 -0.75,5.722 -0.125,12.5c0.43,7.031 0.43,7.031 0.125,12.5c-6,0 -6,0 -9,-6c-0.082,-3.094 -0.165,-6.188 -0.25,-9.375c0.592,-9.787 0.592,-9.787 -7.75,-8.625c0,-6 0,-6 7,-7c0.507,-5.32 0.836,-10.659 1,-16c3,-3 3,-3 8,-2Z" style="fill-rule:nonzero;"/><path d="M586,342c5,6 5,6 3,11c-9,-1 -9,-1 -13,-2l0,9c-0.33,1.65 -0.66,3.3 -1,5c3.465,-0.495 3.465,-0.495 7,-1c0.66,2.31 1.32,4.62 2,7c-1.98,0.66 -3.96,1.32 -6,2c-0.128,4.665 -0.122,9.335 0,14c-3,5 -3,5 -9,3c-1,-2 -1,-2 -0.625,-9c0.683,-7.891 0.683,-7.891 -7.375,-9c1,-6 1,-6 3,-7c0.413,-2.516 0.825,-5.033 1.25,-7.625c2.816,-13.475 7.406,-17.059 20.75,-15.375Z" style="fill-rule:nonzero;"/><path d="M1111,342c-0.999,7.992 -2.064,10.096 -6.375,16.438c-6.067,9.975 -7.31,18.946 -8.16,30.469c-0.707,7.742 -0.707,7.742 -7.465,9.094c-4.701,-4.701 -3.438,-9.679 -3.625,-16.188c-0.739,-13.044 -3.496,-19.946 -10.375,-30.812c0.33,-2.97 0.66,-5.94 1,-9c6,2 6,2 11.125,9.438c1.609,2.166 3.217,4.331 4.875,6.562c4.098,-5.122 7.486,-10.468 11,-16c2,-2 2,-2 8,0Z" style="fill-rule:nonzero;"/><path d="M124,285l0,7c7.037,0.99 7.037,0.99 7,-7c4.102,0 2.792,6.918 3,10l0,9l-4,0l0,-8l-6,0l0,9c-3,0 -3,0 -3.398,-4.375c0.008,-1.856 0.015,-3.712 0.023,-5.625c-0.008,-1.856 -0.015,-3.712 -0.023,-5.625c0.398,-4.375 0.398,-4.375 3.398,-4.375Z" style="fill-rule:nonzero;"/><path d="M117,284c1,2 1,2 0,5l-5,0c-1,5 -1,5 0,10l7,0c-1,5 -1,5 -9,5c-4.592,-2.296 -2.207,-11.752 -2,-16c4,-4 4,-4 9,-4Z" style="fill-rule:nonzero;"/><path d="M103,284c2,2 2,2 2,9c-0.99,0.495 -0.99,0.495 -2,1c0.99,1.32 1.98,2.64 3,4c-0.33,1.65 -0.66,3.3 -1,5c-2.475,-0.99 -2.475,-0.99 -5,-2c-0.99,-0.33 -1.98,-0.66 -3,-1l0,7c-5.217,-1.739 -3.316,-6.563 -3.25,-11.5c0.015,-1.928 0.031,-3.857 0.047,-5.844c0.333,-7.643 0.277,-5.656 9.203,-5.656Zm-5,4l0,3l3,0c-0.578,-3.316 -0.578,-3.316 -3,-3Z" style="fill-rule:nonzero;"/><path d="M63,284c0,4 0,4 -2,7c1.65,0.99 3.3,1.98 5,3c0.33,-1.65 0.66,-3.3 1,-5c3,-5 3,-5 11,-5c-1,4 -1,4 -6,5c-0.316,2.949 -0.316,2.949 6,4c-1,3 -1,3 -7,3l0,5c10.158,1.488 10.158,1.488 10,-8c2,-7 2,-7 4,-9c8.289,2.072 8,13.667 8,21c-3,0 -3,0 -4,-5c-4.416,0.566 -4.416,0.566 -6,5c-7.625,0.5 -7.625,0.5 -15,0l0,-4c-3.333,0.667 -3.333,0.667 -4,4l-9,0c0,-3 0,-3 6,-4c2.055,-5.956 2.055,-5.956 -6,-7c0,-10 0,-10 8,-10Z" style="fill-rule:nonzero;"/><path d="M806,232c1.682,15.499 1.682,15.499 -6.5,17.938c-9.971,-2.972 -7.809,-7.54 -6.5,-16.938c9.333,-4.667 9.333,-4.667 13,-1Z" style="fill-rule:nonzero;"/><path d="M491,231c5.909,5.909 1.627,19.996 -1,27c-6,6 -6,6 -11,6c-1,-6 -1,-6 3,-11c0.33,-1.32 0.66,-2.64 1,-4c-1.65,-0.33 -3.3,-0.66 -5,-1c-1.038,-17.638 -1.038,-17.638 13,-17Z" style="fill-rule:nonzero;"/><path d="M701,190c2.22,6.66 2.08,8.841 -1,15c-1.65,0.124 -3.3,0.248 -5,0.375c-10.318,1.29 -8.173,16.041 -8.5,24.625c-0.679,17.845 -0.679,17.845 -7.966,19.217c-9.479,-1.765 -8.151,-4.554 -8.085,-13.686c0.006,-2.572 0.012,-5.143 0.018,-7.793c0.073,-2.719 0.146,-5.437 0.221,-8.238c-0.008,-2.719 -0.017,-5.437 -0.025,-8.238c0.19,-14.873 0.19,-14.873 1.338,-20.262c8,0 8,0 15,2c4.461,-4.461 7.939,-3.627 14,-3Z" style="fill-rule:nonzero;"/><path d="M662,206c5.276,15.828 0.624,32.505 -13,42c-19.482,2.435 -29.073,-1.529 -36,-20c-2.001,-30.909 30.82,-58.838 49,-22Zm-36.438,12.625c0.778,9.557 2.714,16.986 12.75,17.812c10.49,-0.807 11.57,-7.522 12.125,-16.562c-1.225,-22.045 -22.739,-23.835 -24.875,-1.25Z" style="fill-rule:nonzero;"/><path d="M467.289,203.137c5.885,16.727 2.608,34.481 -12.289,44.863c-19.627,2.453 -31.818,-2.529 -36,-23c-2.053,-27.856 30.594,-53.841 48.289,-21.863Zm-34.289,9.863c-0.562,12.931 -0.237,22.22 14,24c11.098,-7.399 12.403,-18.701 6.062,-30.438c-7.529,-8.758 -17.404,-4.198 -20.062,6.438Z" style="fill-rule:nonzero;"/><path d="M361,206.938c2.193,11.102 2.193,11.102 1,16.062c-8.658,1.469 -16.56,0.962 -25.312,0.375c-2.207,0.206 -4.414,0.412 -6.688,0.625c1.167,7.813 3.078,10.478 10.75,12.562c6.113,0.198 6.113,0.198 6.25,-6.562c6.625,-0.375 6.625,-0.375 13,1c-1.977,15.814 -12.469,18.942 -27,18c-18.333,-7.426 -18.446,-23.642 -17,-41c9.197,-23.566 35.234,-25.173 45,-1.062Zm-31,0.062c-1.135,7.455 -1.135,7.455 4.227,8c6.075,0.095 6.075,0.095 14.773,-1c-2.948,-13.265 -8.715,-17.285 -19,-7Z" style="fill-rule:nonzero;"/><path d="M116,200c3.439,10.316 2.79,18.894 -1,29c1.631,6.523 7.089,9.623 12,14c7.727,9.273 7.727,9.273 4,13c-8.217,-1.174 -9.578,-3.053 -15,-9c-1.65,-1.65 -3.3,-3.3 -5,-5c-0.33,-0.99 -0.66,-1.98 -1,-3c-4.672,1.315 -9.338,2.651 -14,4c-16.367,1.155 -31.503,-5.509 -37,-22c-2.571,-37.924 34.629,-52.907 57,-21Zm-49,3c-0.957,16.993 1.706,29.541 19.938,33.188c13.845,-0.428 23.22,-8.387 24.938,-22.25c-2.205,-17.481 -12.804,-21.557 -28.875,-23.938c-8.11,-2.027 -12.766,6.533 -16,13Z" style="fill-rule:nonzero;"/><path d="M806,170c7.347,7.347 0.749,47.626 -3,57c-14.478,0 -10.359,-16.925 -11,-29c-0.218,-2.693 -0.436,-5.386 -0.66,-8.16c-0.133,-2.525 -0.266,-5.051 -0.402,-7.652c-0.135,-2.337 -0.271,-4.674 -0.41,-7.082c2.433,-8.436 7.775,-6.012 15.473,-5.105Z" style="fill-rule:nonzero;"/><path d="M772.459,168.371c10.306,2.566 8.373,9.476 8.197,18.691c0.008,1.731 0.015,3.463 0.023,5.246c0,3.672 -0.032,7.345 -0.095,11.016c-0.085,5.653 -0.042,11.295 0.017,16.948c-0.016,3.555 -0.039,7.109 -0.07,10.664c0.016,1.706 0.032,3.412 0.048,5.17c-0.305,11.567 -0.305,11.567 -6.988,13.271c-5.592,-1.379 -5.592,-1.379 -8.592,-6.379c-1.98,1.65 -3.96,3.3 -6,5c-14.452,2.89 -20.862,-2.348 -27,-15c-1.86,-16.739 -3.109,-34.445 14,-43c8.43,-0.621 11.469,-0.304 19,4c0.503,-6.957 0.503,-6.957 0,-15c1,-9 1,-9 7.459,-10.629Zm-27.803,45.953c-0.052,1.77 -0.103,3.54 -0.156,5.363c-0.072,1.757 -0.144,3.514 -0.219,5.324c0.912,6.327 2.495,8.369 7.719,11.988c15.273,-1.697 14.673,-10.659 14,-24c-5.598,-13.35 -19.965,-16.021 -21.344,1.324Z" style="fill-rule:nonzero;"/><path d="M715.5,167.867c10.042,3.295 8.371,9.859 8.227,19.195c0.012,1.731 0.025,3.463 0.038,5.246c0.009,3.672 -0.015,7.345 -0.069,11.016c-0.07,5.654 -0.001,11.295 0.083,16.948c-0.009,3.555 -0.025,7.109 -0.051,10.664c0.026,1.706 0.053,3.412 0.08,5.17c-0.299,11.398 -0.299,11.398 -8.306,14.025c-10.042,-3.295 -8.371,-9.859 -8.227,-19.195c-0.012,-1.731 -0.025,-3.463 -0.038,-5.246c-0.009,-3.672 0.015,-7.345 0.069,-11.016c0.07,-5.654 0.001,-11.295 -0.083,-16.948c0.009,-3.555 0.025,-7.109 0.051,-10.664c-0.026,-1.706 -0.053,-3.412 -0.08,-5.17c0.299,-11.398 0.299,-11.398 8.306,-14.025Z" style="fill-rule:nonzero;"/><path d="M531.375,168.938c11.113,1.782 10.015,12.789 12.25,22.812c0.947,4.2 0.947,4.2 1.914,8.484c1.175,6.244 1.498,11.486 1.461,17.766c5.693,0 3.679,-8.43 4,-13c1.059,-5.372 2.208,-10.727 3.438,-16.062c0.617,-2.713 1.235,-5.427 1.871,-8.223c2.632,-10.448 2.632,-10.448 11.879,-12.777c14.963,3.502 13.72,17.289 15.812,31.062c0.847,10.415 0.847,10.415 5,17c0.359,-3.664 0.685,-7.332 1,-11c0.924,-5.322 1.907,-10.635 2.938,-15.938c0.525,-2.732 1.049,-5.463 1.59,-8.277c2.573,-11.857 5.365,-12.536 17.473,-10.785c0.59,4.797 0.59,4.797 -1.062,11.75c-0.862,3.906 -0.862,3.906 -1.742,7.891c-0.35,1.469 -0.701,2.938 -1.062,4.451c-1.263,5.466 -2.368,10.951 -3.454,16.455c-7.365,37.253 -7.365,37.253 -16.055,38.578c-14.395,-2.124 -14.577,-26.866 -17.27,-39.926c-1.087,-5.285 -1.087,-5.285 -3.355,-11.199c-1.92,5.061 -2.974,9.701 -4,15c-0.623,2.759 -1.245,5.517 -1.887,8.359c-0.594,2.769 -1.189,5.538 -1.801,8.391c-4.292,19.96 -4.292,19.96 -19.312,18.25c-5.786,-11.982 -7.493,-26.061 -10.25,-39c-0.554,-2.529 -1.109,-5.058 -1.68,-7.664c-0.523,-2.441 -1.047,-4.883 -1.586,-7.398c-0.477,-2.218 -0.955,-4.437 -1.446,-6.723c-2.826,-16.917 -2.826,-16.917 5.337,-18.277Z" style="fill-rule:nonzero;"/><path d="M403.5,167.867c10.042,3.295 8.371,9.859 8.227,19.195c0.012,1.731 0.025,3.463 0.038,5.246c0.009,3.672 -0.015,7.345 -0.069,11.016c-0.07,5.654 -0.001,11.295 0.083,16.948c-0.009,3.555 -0.025,7.109 -0.051,10.664c0.026,1.706 0.053,3.412 0.08,5.17c-0.299,11.398 -0.299,11.398 -8.306,14.025c-10.042,-3.295 -8.371,-9.859 -8.227,-19.195c-0.012,-1.731 -0.025,-3.463 -0.038,-5.246c-0.009,-3.672 0.015,-7.345 0.069,-11.016c0.07,-5.654 0.001,-11.295 -0.083,-16.948c0.009,-3.555 0.025,-7.109 0.051,-10.664c-0.026,-1.706 -0.053,-3.412 -0.08,-5.17c0.299,-11.398 0.299,-11.398 8.306,-14.025Z" style="fill-rule:nonzero;"/><path d="M384,170c1.338,6.171 1.682,10.834 1.594,17.062c0.011,1.731 0.023,3.463 0.035,5.246c0.008,3.672 -0.014,7.345 -0.064,11.016c-0.064,5.653 -0.001,11.295 0.076,16.948c-0.008,3.555 -0.023,7.109 -0.047,10.664c0.024,1.706 0.049,3.412 0.074,5.17c-0.28,11.552 -0.28,11.552 -7.689,13.369c-9.817,-2.425 -7.267,-9.794 -6.978,-18.477c-0.036,-4.917 -0.081,-9.833 -0.133,-14.75c-0.003,-5.417 0,-10.833 0.008,-16.25c-0.004,-2.777 -0.008,-5.553 -0.012,-8.414c0.001,-2.627 0.003,-5.254 0.004,-7.961c0.001,-2.4 0.002,-4.8 0.003,-7.273c0.219,-9.078 4.81,-7.907 13.129,-6.352Z" style="fill-rule:nonzero;"/><path d="M259.588,168.537c10.039,2.29 6.892,6.718 5.537,15.963c-1.256,11.241 -1.256,11.241 6.836,17.445c15.262,1.727 15.262,1.727 22.375,-9.516c-0.349,-7.991 -0.349,-7.991 -1.656,-16.086c0.32,-6.344 0.32,-6.344 6.732,-7.807c10.415,2.313 8.457,9.314 8.314,18.525c0.012,1.731 0.025,3.463 0.038,5.246c0.009,3.672 -0.015,7.345 -0.069,11.016c-0.07,5.654 -0.001,11.295 0.083,16.948c-0.009,3.555 -0.025,7.109 -0.051,10.664c0.026,1.706 0.053,3.412 0.08,5.17c-0.303,11.543 -0.303,11.543 -8.394,13.424c-10.42,-2.488 -6.704,-9.695 -5.537,-18.531c0.698,-14.082 0.674,-19.659 -14.375,-21.25c-15.049,1.591 -15.073,7.168 -14.375,21.25c0.213,1.616 0.427,3.232 0.646,4.897c1.391,11.825 1.391,11.825 -6.184,13.634c-10.387,-2.414 -8.457,-9.363 -8.314,-18.594c-0.012,-1.731 -0.025,-3.463 -0.038,-5.246c-0.009,-3.672 0.015,-7.345 0.069,-11.016c0.07,-5.654 0.001,-11.295 -0.083,-16.948c0.009,-3.555 0.025,-7.109 0.051,-10.664c-0.026,-1.706 -0.053,-3.412 -0.08,-5.17c0.303,-11.559 0.303,-11.559 8.394,-13.355Z" style="fill-rule:nonzero;"/><path d="M208,0c1.297,5.604 1.297,5.604 1.535,13.477c0.1,2.882 0.2,5.763 0.302,8.732c0.074,3.107 0.148,6.215 0.225,9.416c0.161,3.121 0.322,6.242 0.489,9.457c0.705,14.669 0.793,28.392 -2.34,42.812c-3.624,16.353 -3.624,16.353 2.789,31.105c23.519,5.566 49.242,1.42 73.008,-0.972c14.832,-1.465 29.661,-1.787 44.554,-2.09c4.543,-0.151 9.086,-0.309 13.629,-0.473c33.607,-1.098 67.193,-1.632 100.816,-1.668c4.144,-0.007 8.287,-0.014 12.431,-0.021c13.562,-0.019 27.124,-0.024 40.686,-0.026c3.516,-0.001 3.516,-0.001 7.103,-0.003c85.202,-0.028 170.389,0.633 255.585,1.628c4.112,0.048 4.112,0.048 8.307,0.096c59.695,0.693 119.389,1.51 179.08,2.505c3.732,0.062 3.732,0.062 7.54,0.125c24.735,0.414 49.469,0.858 74.2,1.459c72.079,1.729 144.151,1.78 216.246,1.753c12.093,-0.003 24.186,0.006 36.279,0.023c109.521,0.146 218.921,-1.338 328.389,-5.023c58.144,-1.951 116.225,-2.678 174.396,-2.626c2.632,0.002 2.632,0.002 5.318,0.004c11.649,0.009 23.298,0.035 34.948,0.071c4.413,0.011 4.413,0.011 8.916,0.023c38.531,0.179 38.531,0.179 41.568,3.215c-1.481,13.33 -3.033,10.129 -15.792,10.202c-3.041,0.021 -6.082,0.042 -9.215,0.063c-2.491,0.014 -2.491,0.014 -5.031,0.028c-9.111,0.054 -18.222,0.129 -27.334,0.201c-1.957,0.015 -3.915,0.03 -5.931,0.046c-101.876,0.794 -203.669,3.305 -305.496,6.483c-11.067,0.344 -22.134,0.67 -33.201,0.977c-2.686,0.075 -2.686,0.075 -5.426,0.151c-36.135,0.968 -72.268,1.045 -108.414,1.088c-3.203,0.005 -6.407,0.01 -9.61,0.015c-22.366,0.034 -44.732,0.051 -67.098,0.058c-5.411,0.002 -10.822,0.004 -16.233,0.006c-87.733,0.031 -175.442,-0.096 -263.157,-2.067c-1.955,-0.044 -3.909,-0.088 -5.923,-0.133c-10.051,-0.226 -20.101,-0.453 -30.152,-0.68c-2.044,-0.046 -4.088,-0.092 -6.194,-0.14c-4.164,-0.094 -8.329,-0.188 -12.493,-0.283c-67.175,-1.519 -134.363,-2.375 -201.549,-3.264c-1.642,-0.022 -3.285,-0.044 -4.977,-0.066c-80.929,-1.073 -161.858,-2.062 -242.796,-2.059c-5.251,0 -10.501,-0.003 -15.752,-0.005c-38.989,-0.008 -77.941,0.57 -116.916,1.532c-30.208,0.744 -60.396,1.138 -90.615,1.054c-7.121,-0.019 -14.241,-0.021 -21.362,-0.02c-4.592,-0.005 -9.185,-0.011 -13.777,-0.018c-3.149,-0.002 -3.149,-0.002 -6.361,-0.003c-14.496,-0.048 -14.496,-0.048 -21.194,-1.165c-4.964,4.964 -1.839,24.91 -2.035,32.348c-0.044,1.65 -0.088,3.3 -0.133,5c-1.137,43.775 -1.267,87.553 -1.269,131.34c-0,6.847 -0.005,13.693 -0.009,20.54c-0.024,81.137 1.756,162.139 4.583,243.221c1.5,43.836 2.093,87.69 2.113,131.551c0.002,2.055 0.003,4.111 0.005,6.229c0.003,69.748 -1.907,139.507 -4.183,209.214c-1.815,55.797 -1.366,111.456 0.302,167.244c0.063,2.122 0.126,4.245 0.191,6.431c0.591,19.505 1.245,38.985 2.524,58.459c0.984,15.177 1.175,30.279 1.098,45.484c-0.001,2.503 -0.001,5.005 -0.002,7.584c-0.068,28.107 -0.068,28.107 -7.676,28.992c-10.482,-1.215 -6.669,-14.583 -6.447,-23.139c0.026,-5.022 0.036,-10.044 0.035,-15.066c0.004,-4.152 0.004,-4.152 0.008,-8.387c-0.197,-16.849 -1.187,-33.662 -2.106,-50.484c-0.271,-5.024 -0.541,-10.048 -0.807,-15.072c-0.238,-4.462 -0.483,-8.925 -0.728,-13.387c-1.193,-24.273 -1.629,-48.546 -1.668,-72.846c-0.006,-2.874 -0.011,-5.748 -0.017,-8.71c-0.009,-6.083 -0.016,-12.165 -0.02,-18.248c-0.009,-8.924 -0.04,-17.849 -0.072,-26.773c-0.062,-34.827 0.607,-69.558 1.797,-104.363c1.734,-51.213 2.067,-102.392 2.021,-153.632c-0.006,-7.439 -0.005,-14.879 -0.004,-22.318c-0.004,-66.197 -0.907,-132.287 -3.179,-198.443c-2.049,-59.705 -2.808,-119.344 -2.765,-179.085c0.004,-6.4 0.005,-12.799 0.006,-19.199c0.025,-74.636 0.025,-74.636 1.709,-107.859c0.921,-19.513 0.984,-39.031 1.072,-58.562c0.008,-1.765 0.016,-3.53 0.025,-5.348c0.064,-14.601 0.107,-29.202 0.147,-43.803c0.031,-11.011 0.07,-22.021 0.12,-33.032c0.02,-5.122 0.028,-10.244 0.036,-15.366c0.013,-3.065 0.027,-6.13 0.041,-9.288c0.007,-2.708 0.015,-5.416 0.022,-8.206c0.422,-9.581 1.009,-8.023 11.265,-8.023Z" style="fill-rule:nonzero;"/><path d="M615.125,75.562c4.428,-0.091 4.428,-0.091 8.945,-0.184c6.93,0.621 6.93,0.621 6.93,6.621c-5.832,0.597 -11.171,0.787 -17,0.688c-1.622,0.015 -3.243,0.03 -4.914,0.045c-4.648,-0.033 -4.648,-0.033 -12.086,-0.732c0,-9.967 9.98,-6.32 18.125,-6.438Z" style="fill-rule:nonzero;"/><path d="M1220.938,70.688c2.195,-0.037 4.391,-0.075 6.652,-0.113c5.41,0.426 5.41,0.426 7.41,4.426c-2.063,4.127 -10.143,2.402 -14.062,2.438c-3.606,0.06 -3.606,0.06 -7.285,0.121c-5.652,-0.559 -5.652,-0.559 -5.652,-5.559c2.371,-2.371 10.01,-1.28 12.938,-1.312Z" style="fill-rule:nonzero;"/><path d="M1148.062,70.5c3.606,-0.077 3.606,-0.077 7.285,-0.156c5.652,0.656 5.652,0.656 5.652,6.656c-5.652,0.727 -5.652,0.727 -12.938,0.625c-2.402,-0.008 -4.803,-0.015 -7.277,-0.023c-5.785,-0.602 -5.785,-0.602 -6.785,-4.602c2.068,-4.135 10.133,-2.449 14.062,-2.5Z" style="fill-rule:nonzero;"/><path d="M1126,70c2.538,2.538 1.426,6.148 0,9c-6,1 -6,1 -9,-6c4,-4 4,-4 9,-3Z" style="fill-rule:nonzero;"/><path d="M1195.875,65.5c8.822,2.582 6.366,8.596 5.125,16.5c-9,1 -9,1 -10,-4c0.66,-0.66 1.32,-1.32 2,-2c-2,-9 -2,-9 2.875,-10.5Z" style="fill-rule:nonzero;"/><path d="M1683,64c0,12.153 -4.49,13.721 -16,15c-5.962,-3.527 -10,-6.551 -10,-14c6,-1 6,-1 9,4l0,2c9.58,1.423 9.58,1.423 11,-6c1,-2 1,-2 6,-1Z" style="fill-rule:nonzero;"/><path d="M1306,65c1,2 1,2 -1,7c-7.328,0.438 -13.132,0.747 -20,-2c3.508,-8.769 12.447,-5.397 21,-5Z" style="fill-rule:nonzero;"/><path d="M1283,58c-1.176,7.057 -5.23,14.615 -12,18c-11,-4.714 -11,-4.714 -11,-13c1.32,0.33 2.64,0.66 4,1c8.448,1.024 8.448,1.024 13,-6c2,-1 2,-1 6,0Z" style="fill-rule:nonzero;"/><path d="M1378,54c13.225,-0.963 13.225,-0.963 19,0c0,7.979 -1.497,5.973 -10.062,6.438c-7.938,-0.438 -7.938,-0.438 -8.938,-6.438Z" style="fill-rule:nonzero;"/><path d="M1150.125,53.812c2.974,-0.021 2.974,-0.021 6.008,-0.043c4.867,0.23 4.867,0.23 6.867,2.23c-3.312,6.625 -8.765,4.566 -15.688,4.562c-2.499,0.022 -4.999,0.044 -7.574,0.066c-2.84,-0.311 -2.84,-0.311 -5.738,-0.629c1.703,-8.514 8.498,-6.163 16.125,-6.188Z" style="fill-rule:nonzero;"/><path d="M1693,52c0,5 0,5 -8.562,5.625c-2.784,-0.206 -5.569,-0.413 -8.438,-0.625c1.788,-8.938 9.384,-5.6 17,-5Z" style="fill-rule:nonzero;"/><path d="M1664,52c0,5 0,5 -8.562,5.625c-2.784,-0.206 -5.569,-0.413 -8.438,-0.625c1.788,-8.938 9.384,-5.6 17,-5Z" style="fill-rule:nonzero;"/><path d="M1574.5,51.875c2.485,-0.003 4.971,-0.005 7.531,-0.008c5.969,0.133 5.969,0.133 7.969,1.133c-1.659,11.615 -11.177,7.78 -20.938,7.5c-1.887,-0.023 -3.773,-0.046 -5.717,-0.07c-13.927,-0.22 -13.927,-0.22 -16.346,-1.43c2.172,-10.858 18.446,-7.134 27.5,-7.125Z" style="fill-rule:nonzero;"/><path d="M1222.875,51.375c2.842,-0.081 2.842,-0.081 5.742,-0.164c4.383,0.789 4.383,0.789 4.383,7.789c-3.773,1.886 -8.237,1.302 -12.375,1.375c-1.885,0.049 -3.769,0.098 -5.711,0.148c-4.914,-0.523 -4.914,-0.523 -8.914,-5.523c6.372,-3.186 9.855,-3.519 16.875,-3.625Z" style="fill-rule:nonzero;"/><path d="M1128,54c0,7 0,7 -2,8c-6,0 -6,0 -8,-3c1.2,-7.2 1.2,-7.2 10,-5Z" style="fill-rule:nonzero;"/><path d="M1199,49c2.231,4.463 2.644,6.356 -1,10c0.99,0.66 1.98,1.32 3,2l0,4c-9.909,0 -9.909,0 -10.688,-8.562c0.688,-7.438 0.688,-7.438 8.688,-7.438Z" style="fill-rule:nonzero;"/><path d="M1020.062,48.375c2.218,-0.013 4.437,-0.026 6.723,-0.039c5.215,0.664 5.215,0.664 5.215,5.664c-2.256,2.733 -4.597,5.396 -7,8c-1.98,2.97 -1.98,2.97 -4,6c-13.589,-6.794 -20.661,-19.74 -0.938,-19.625Z" style="fill-rule:nonzero;"/><path d="M848.812,46.062c10.678,2.878 11.126,6.491 10.188,16.938c-5,5 -5,5 -14,4l0,9c-9.836,-3.279 -5.129,-27.395 3.812,-29.938Zm-3.812,7.938c-1.067,8.033 -1.067,8.033 4,11c7.242,-1.811 7,-3.458 7,-11c-3.26,-4.89 -7.74,-4.89 -11,0Z" style="fill-rule:nonzero;"/><path d="M836,48c5.076,5.076 2.715,13.654 2,20c-11.846,2.154 -11.846,2.154 -16,-2c1.025,-8.199 2.973,-12 12,-12c0.331,-3.302 0.331,-3.302 -8,-3l0,3l-2,0c0,-8.764 4.199,-6.263 12,-6Zm-11,13c0.644,5.389 0.644,5.389 9,3c2.026,-8.103 -4.195,-5.883 -9,-3Z" style="fill-rule:nonzero;"/><path d="M820,48c0,3 0,3 -4,4c-0.375,5.331 -0.708,10.664 -1,16c-0.99,0.33 -1.98,0.66 -3,1c-0.574,-4.496 -0.574,-4.496 -0.688,-10.438c-0.066,-1.958 -0.131,-3.916 -0.199,-5.934c0.887,-4.629 0.887,-4.629 8.887,-4.629Z" style="fill-rule:nonzero;"/><path d="M806,48c2.258,2.258 1.275,8.337 1.312,11.188c0.037,1.87 0.075,3.741 0.113,5.668c-0.851,10.279 -3.273,11.145 -13.426,11.145c-0.99,-1.98 -1.98,-3.96 -3,-6c3.34,0.26 6.674,0.599 10,1l0,-4c-1.98,0.33 -3.96,0.66 -6,1c-11.923,-14.308 -3.3,-20.275 11,-20Zm-12,4c-1.256,8.144 -1.256,8.144 4,13c7.333,-1.833 5.717,-5.992 5,-13c-7.284,-1.979 -7.284,-1.979 -9,0Z" style="fill-rule:nonzero;"/><path d="M785,48c4.17,6.256 2.794,12.905 2,20c-6.18,1.652 -10.439,2.707 -16,-1c0,-8.511 0.373,-8.949 8,-12l4,0c-2.266,-4.409 -2.266,-4.409 -11,-1c1.498,-8.986 4.877,-6.754 13,-6Zm-11,13c0.606,5.241 0.606,5.241 8,3c1.589,-1.354 1.589,-1.354 1,-6c-6,-0.707 -6,-0.707 -9,3Z" style="fill-rule:nonzero;"/><path d="M764,46.625c5,1.375 5,1.375 5,4.375c-1.98,0.99 -1.98,0.99 -4,2c-0.33,2.351 -0.66,4.703 -1,7.125c-1,6.875 -1,6.875 -5,6.875c-3.234,-18.111 -3.234,-18.111 5,-20.375Z" style="fill-rule:nonzero;"/><path d="M753,48c3.259,6.518 3.492,11.804 3,19c-8.571,2.243 -12.246,3.193 -18,-4c2.884,-7.209 5.357,-8 13,-8l0,-4c-2.784,0.526 -2.784,0.526 -5.625,1.062c-1.774,0.309 -3.548,0.619 -5.375,0.938c2.914,-7.285 5.739,-5.743 13,-5Zm-10,11c0.33,1.98 0.66,3.96 1,6c6.833,-0.167 6.833,-0.167 7,-7c-5.478,-0.447 -5.478,-0.447 -8,1Z" style="fill-rule:nonzero;"/><path d="M1383,45c0,5 0,5 -9,7l-4,0c-1.579,5.452 -1.579,5.452 -1,11l9,0c2.64,0.66 5.28,1.32 8,2c-1.585,7.924 -3.691,6 -12,6c-10.414,-3.7 -14.383,-7.788 -12,-19c7.579,-7.579 9.941,-7.704 21,-7Z" style="fill-rule:nonzero;"/><path d="M1305,45l0,6c-16.385,0.808 -16.385,0.808 -20,-1c0,-9.489 13.179,-5.336 20,-5Z" style="fill-rule:nonzero;"/><path d="M1478,43c2,4 2,4 2,9c-4,2 -4,2 -10,0c-1.286,-9 -1.286,-9 8,-9Z" style="fill-rule:nonzero;"/><path d="M1413,49c2.36,9.242 1.107,17.631 -9,21c-6.188,0.438 -6.188,0.438 -12,0c0,-6 0,-6 7.562,-7.375c8.908,-0.653 8.908,-0.653 6.438,-9.625c-4.926,-2.287 -4.926,-2.287 -10.312,-2.25c-4.688,-0.75 -4.688,-0.75 -4.688,-6.75c7.925,-3.963 16.151,-0.66 22,5Z" style="fill-rule:nonzero;"/><path d="M863,39c3,1 3,1 4,9l8,0c5.412,5.412 3.322,12.806 3,20c-0.99,0.33 -1.98,0.66 -3,1c-2,-12.316 -2,-12.316 -2,-17c-8.16,1.632 -6.07,7.557 -7,15c-0.99,0.33 -1.98,0.66 -3,1c-0.306,-4.825 -0.389,-9.665 -0.375,-14.5c-0.008,-2.712 -0.015,-5.424 -0.023,-8.219c0.197,-3.109 0.197,-3.109 0.398,-6.281Z" style="fill-rule:nonzero;"/><path d="M732,39c5.759,7.199 6.18,9.23 1,17c-2,1 -2,1 -7.125,0.375c-7.714,0.989 -5.336,4.858 -4.875,11.625c-4,0 -4,0 -5,-2c-0.099,-4.166 -0.13,-8.333 -0.125,-12.5c-0.003,-2.279 -0.005,-4.558 -0.008,-6.906c0.264,-11.114 6.292,-8.154 16.133,-7.594Zm-12.312,10.125c0.685,5.649 0.685,5.649 6.25,5c6.188,-1.737 6.188,-1.737 6.062,-10.125c-8.737,-2.025 -8.737,-2.025 -12.312,5.125Z" style="fill-rule:nonzero;"/><path d="M607,39c2.575,5.15 0.996,13.392 0.938,19.062c0.564,6.257 0.564,6.257 10.062,6.938c1.701,-4.751 1.701,-4.751 2,-11c1.954,-13.908 1.954,-13.908 3,-16c9.439,1.888 5.83,14.907 5,23c-4.519,9.824 -7.157,12.872 -18,13c-8.043,-5.745 -17.272,-38.568 -3,-35Z" style="fill-rule:nonzero;"/><path d="M1163,39c-3.13,7.824 -7.645,5.666 -15.562,5.625c-3.714,0.019 -3.714,0.019 -7.504,0.039c-5.934,-0.664 -5.934,-0.664 -6.934,-5.664c9.958,-2.49 20.27,-3.892 30,0Z" style="fill-rule:nonzero;"/><path d="M546.438,36.562c1.917,-0.061 3.834,-0.121 5.809,-0.184c4.754,0.621 4.754,0.621 6.754,6.621c-6,2 -6,2 -9,2c-1.097,3.639 -2.07,7.315 -3,11c-1.011,2.702 -2.021,5.404 -3.062,8.188c-0.639,2.248 -1.279,4.496 -1.938,6.812l6,0c1,4 1,4 -1,6c-3.326,0.248 -6.664,0.351 -10,0.375c-1.815,0.028 -3.63,0.057 -5.5,0.086c-4.5,-0.461 -4.5,-0.461 -6.5,-4.461c5,-3 5,-3 9,-2c1.059,-4.436 2.097,-8.881 2.961,-13.359c1.039,-4.641 1.039,-4.641 3.664,-10.266c0.454,-1.114 0.908,-2.227 1.375,-3.375l-6,0c-1,-1 -1,-1 -1,-6c2.3,-2.3 8.53,-1.373 11.438,-1.438Z" style="fill-rule:nonzero;"/><path d="M1220.688,35.562c3.161,-0.091 3.161,-0.091 6.387,-0.184c4.926,0.621 4.926,0.621 4.926,6.621c-5.434,0.762 -5.434,0.762 -12.438,0.688c-3.463,0.006 -3.463,0.006 -6.996,0.012c-5.566,-0.699 -5.566,-0.699 -6.566,-5.699c4.818,-1.606 9.631,-1.335 14.688,-1.438Z" style="fill-rule:nonzero;"/><path d="M480,41c1,9 1,9 -1,13c1.98,1.65 3.96,3.3 6,5c1.843,13.611 -3.456,15.819 -16,20c-12.854,-0.448 -12.854,-0.448 -13.398,-9.949c0.008,-2.884 0.015,-5.767 0.023,-8.738c-0.008,-2.871 -0.015,-5.741 -0.023,-8.699c0.897,-17.135 10.682,-20.411 24.398,-10.613Zm-17,3l0,8c9.976,-0.68 9.976,-0.68 9,-8l-9,0Zm0.938,21.562c0.404,6.871 0.404,6.871 9.062,4.438c4.784,-1.718 4.784,-1.718 5,-8c-7.03,-3.515 -12.363,-5.337 -14.062,3.562Z" style="fill-rule:nonzero;"/><path d="M279,36c-1,5 -1,5 -3,10c1.691,-0.144 3.382,-0.289 5.125,-0.438c11.733,-0.96 17.242,1.533 24.875,10.438c1.001,8.823 0.836,10.996 -5,18l-6,0c0.66,-2.599 1.32,-5.197 2,-7.875c3.575,-8.708 3.575,-8.708 -4,-10.125c-0.66,-0.33 -1.32,-0.66 -2,-1c-6.601,-1.156 -6.601,-1.156 -13,-1c0.33,2.31 0.66,4.62 1,7c-9.316,-2.662 -13.571,-4 -15,-14c7.674,-11 7.674,-11 15,-11Z" style="fill-rule:nonzero;"/><path d="M1681,41c-0.33,1.98 -0.66,3.96 -1,6c-4,-1 -4,-1 -6,-6c-8.834,1.118 -8.834,1.118 -13,6c-2,0 -2,0 -3,-5c7.447,-10.095 14.496,-9.504 23,-1Z" style="fill-rule:nonzero;"/><path d="M1283,35c-1.612,9.672 -7.03,18.338 -17,20c-6,-5 -6,-5 -7,-10c4,-0.043 8,-0.04 12,0c0.66,-1.32 1.32,-2.64 2,-4c5,-6 5,-6 10,-6Z" style="fill-rule:nonzero;"/><path d="M1126,35c1,2 1,2 1,10c-8,0 -8,0 -10,-6c3,-4 3,-4 9,-4Z" style="fill-rule:nonzero;"/><path d="M1471.062,32.688c4.596,-0.056 4.596,-0.056 9.285,-0.113c16.35,0.91 13.933,15.521 13.902,28.801c0.008,3.384 0.008,3.384 0.016,6.836c-0.69,15.034 -11.609,13.953 -24.328,14.039c-23.507,-0.389 -23.507,-0.389 -25.938,-5.25c-0.206,-6.653 -0.325,-13.283 -0.375,-19.938c-0.037,-1.874 -0.075,-3.747 -0.113,-5.678c-0.135,-20.765 9.205,-18.55 27.551,-18.697Zm-25.5,16.5c0.893,5.664 0.893,5.664 2.438,10.812c0.33,1.65 0.66,3.3 1,5c6.431,-3.467 6.431,-3.467 8,-10c7,1 7,1 12,7c5.373,-1.004 5.373,-1.004 12,-3c1.98,1.65 3.96,3.3 6,5l1,0c0.129,-3.602 0.176,-7.208 0.188,-10.812c0.014,-2.007 0.028,-4.014 0.043,-6.082c-0.595,-13.191 -16.503,-9.504 -26.735,-9.718c-13.322,0.242 -13.322,0.242 -15.933,11.8Zm5.438,22.812c-0.659,4.742 -0.659,4.742 4.988,4.742c5.817,0.122 11.272,0.236 17.012,-0.742c-3.303,-18.801 -13.569,-18.052 -22,-4Zm24,-7c1.269,8.203 1.269,8.203 9,11c4.048,-0.801 4.048,-0.801 2,-7c-5.048,-6 -5.048,-6 -11,-4Z" style="fill-rule:nonzero;"/><path d="M1799,42c0.2,5.289 0.313,10.582 0.375,15.875c0.049,2.844 0.098,5.687 0.148,8.617c-1.107,15.876 -8.627,15.666 -22.023,15.758c-3.357,0.039 -3.357,0.039 -6.781,0.078c-21.299,-1.04 -20.001,-6.274 -20.281,-25.766c-0.063,-1.921 -0.125,-3.843 -0.189,-5.822c-0.19,-16.374 -0.19,-16.374 13.252,-18.428c33.185,-1.886 33.185,-1.886 35.5,9.688Zm-42,5c2.549,2.549 13.983,1.395 16.938,1.438c4.407,0.091 4.407,0.091 8.902,0.184c7.832,0.424 7.832,0.424 9.16,-6.621c-1.997,-5.99 -12.415,-3.649 -18.062,-3.688c-1.617,-0.053 -3.234,-0.107 -4.9,-0.162c-10.896,-1.204 -10.896,-1.204 -12.037,8.85Zm0,5l0,9l8,0l0,-9l-8,0Zm13,0l0,9l9,0c0.943,-7.293 0.943,-7.293 -1,-9l-8,0Zm13,0l0,9l9,0c0.943,-7.293 0.943,-7.293 -1,-9l-8,0Zm-27,19c0.412,6.307 0.412,6.307 9,5c1.333,-5 1.333,-5 0,-10c-8.588,-1.307 -8.588,-1.307 -9,5Zm12.938,0c0.488,6.304 0.488,6.304 9.062,5c2.061,-1.825 2.061,-1.825 1,-10c-9.54,-1.467 -9.54,-1.467 -10.062,5Zm13,0c0.488,6.304 0.488,6.304 9.062,5c2.061,-1.825 2.061,-1.825 1,-10c-9.54,-1.467 -9.54,-1.467 -10.062,5Z" style="fill-rule:nonzero;"/><path d="M1198,32c1.688,6.438 1.688,6.438 2,13c-1.65,0.33 -3.3,0.66 -5,1c-0.042,-3.333 -0.041,-6.667 0,-10l-4,0c1,-4 1,-4 7,-4Z" style="fill-rule:nonzero;"/><path d="M1517,31c4.449,4.449 3.388,8.06 3.398,14.266c0.004,2.251 0.008,4.501 0.012,6.82c-0.012,2.364 -0.023,4.728 -0.035,7.164c0.012,2.38 0.023,4.759 0.035,7.211c-0.004,2.246 -0.008,4.491 -0.012,6.805c-0.003,2.081 -0.007,4.162 -0.01,6.306c-0.128,1.461 -0.256,2.923 -0.388,4.429c-6.231,-2.077 -4.129,-12.577 -4.133,-18.273c-0.001,-1.958 -0.003,-3.916 -0.004,-5.934c0.004,-2.035 0.008,-4.071 0.012,-6.168c-0.004,-2.059 -0.008,-4.117 -0.012,-6.238c0.01,-15.26 0.01,-15.26 1.137,-16.387Z" style="fill-rule:nonzero;"/><path d="M1620,30c1.645,9.871 1.268,19.823 1.312,29.812c0.029,2.206 0.058,4.412 0.088,6.686c0.008,2.09 0.017,4.18 0.025,6.334c0.015,1.926 0.029,3.851 0.044,5.835c-0.47,4.333 -0.47,4.333 -4.47,5.333c-0.502,-4.844 -0.502,-4.844 -0.496,-11.715c-0.001,-2.44 -0.001,-4.879 -0.002,-7.393c0.02,-2.584 0.04,-5.168 0.061,-7.83c-0.007,-2.58 -0.014,-5.16 -0.021,-7.818c0.066,-19.244 0.066,-19.244 3.459,-19.244Z" style="fill-rule:nonzero;"/><path d="M1336,31c0.717,8.994 0.462,18.043 0.438,27.062c0.02,2.571 0.04,5.142 0.061,7.791c-0.001,2.432 -0.001,4.864 -0.002,7.369c0.002,2.256 0.004,4.512 0.006,6.836c-0.502,4.941 -0.502,4.941 -4.502,4.941c-0.47,-4.941 -0.47,-4.941 -0.426,-11.777c0.008,-2.432 0.017,-4.864 0.025,-7.369c0.029,-2.571 0.058,-5.142 0.088,-7.791c0.01,-2.567 0.019,-5.134 0.029,-7.779c0.126,-20.669 0.126,-20.669 4.283,-19.283Z" style="fill-rule:nonzero;"/><path d="M1722,29c5.931,2.966 4.593,5.722 4.75,12.125c0.052,2.065 0.103,4.13 0.156,6.258c0.031,2.184 0.062,4.367 0.094,6.617c0.052,2.184 0.103,4.367 0.156,6.617c0.242,16.454 0.242,16.454 -3.156,24.383c-4.493,-4.493 -3.129,-12.628 -3.133,-18.578c-0.001,-2.047 -0.003,-4.094 -0.004,-6.203c0.004,-2.135 0.008,-4.269 0.012,-6.469c-0.004,-2.15 -0.008,-4.3 -0.012,-6.516c0.001,-2.042 0.003,-4.084 0.004,-6.188c0.002,-2.818 0.002,-2.818 0.003,-5.692c0.129,-4.354 0.129,-4.354 1.129,-6.354Z" style="fill-rule:nonzero;"/><path d="M1090,29c1.353,10.823 1.305,21.54 1.375,32.438c0.056,3.367 0.056,3.367 0.113,6.803c0.012,2.126 0.023,4.253 0.035,6.443c0.02,1.955 0.04,3.91 0.06,5.924c-0.583,4.393 -0.583,4.393 -5.583,5.393c-1.246,-11.216 -1.303,-22.286 -1.375,-33.562c-0.037,-2.249 -0.075,-4.498 -0.113,-6.814c-0.012,-2.125 -0.023,-4.25 -0.035,-6.439c-0.02,-1.954 -0.04,-3.907 -0.06,-5.92c0.583,-4.263 0.583,-4.263 5.583,-4.263Z" style="fill-rule:nonzero;"/><path d="M669,29c0.512,4.985 0.793,9.993 1,15c0.076,1.63 0.151,3.26 0.229,4.939c0.232,5.269 0.413,10.539 0.583,15.811c0.077,1.815 0.153,3.63 0.232,5.5c0.415,13.405 0.415,13.405 -4.045,16.75c-3.523,-8.893 -3.557,-17.91 -3.812,-27.375c-0.089,-2.813 -0.178,-5.625 -0.27,-8.523c0.224,-22.102 0.224,-22.102 6.082,-22.102Z" style="fill-rule:nonzero;"/><path d="M415,29c1.748,10.488 1.269,21.137 1.312,31.75c0.029,2.389 0.058,4.777 0.088,7.238c0.008,2.267 0.017,4.535 0.025,6.871c0.015,2.088 0.029,4.176 0.044,6.327c-0.47,4.813 -0.47,4.813 -4.47,6.813c-2.152,-6.456 -2.243,-11.14 -2.23,-17.926c0.002,-2.322 0.004,-4.644 0.006,-7.037c0.012,-2.425 0.024,-4.851 0.037,-7.35c0.001,-2.445 0.001,-4.889 0.002,-7.408c0.048,-19.279 0.048,-19.279 5.186,-19.279Z" style="fill-rule:nonzero;"/><path d="M800.438,16.688c1.789,0.002 3.578,0.005 5.421,0.007c16.812,0.041 33.601,0.161 50.394,1.028c26.021,1.253 52.053,1.363 78.099,1.453c4.635,0.018 4.635,0.018 9.364,0.036c12.933,0.049 25.865,0.098 38.798,0.114c6.454,0.008 12.908,0.027 19.362,0.057c6.03,0.028 12.06,0.041 18.09,0.037c2.719,0.016 5.439,0.033 8.241,0.05c2.381,0.006 4.763,0.012 7.216,0.018c16.479,1.283 26.506,6.998 26.402,24.461c-0.005,2.064 -0.009,4.129 -0.014,6.256c-0.041,2.139 -0.081,4.278 -0.123,6.482c0.002,2.151 0.004,4.302 0.006,6.518c-0.218,23.998 -10.362,31.046 -34.266,32.142c-2.734,-0.013 -5.467,-0.025 -8.284,-0.038c-3.126,-0.007 -6.252,-0.013 -9.473,-0.02c-2.49,-0.016 -2.49,-0.016 -5.031,-0.033c-5.291,-0.034 -10.582,-0.05 -15.874,-0.061c-11.318,-0.027 -22.636,-0.08 -33.954,-0.133c-14.743,-0.066 -29.487,-0.119 -44.23,-0.152c-1.809,-0.004 -3.619,-0.009 -5.483,-0.013c-29.806,-0.057 -59.544,0.551 -89.333,1.633c-117.819,4.153 -117.819,4.153 -121.766,-19.53c-0.305,-7.102 -0.324,-14.205 -0.375,-21.312c-0.037,-1.948 -0.075,-3.897 -0.113,-5.904c-0.012,-1.884 -0.023,-3.768 -0.035,-5.709c-0.02,-1.716 -0.04,-3.432 -0.06,-5.2c3.757,-31.385 82.655,-22.221 107.021,-22.186Zm-79.496,8.949c-1.778,0.044 -3.556,0.088 -5.387,0.134c-12.051,0.523 -15.284,1.482 -15.882,14.218c0.078,8.338 0.174,16.675 0.328,25.012c0.008,1.896 0.015,3.792 0.023,5.746c0.456,20.204 20.021,17.985 36.275,18.534c8.23,0.104 16.452,0.141 24.682,0.111c5.013,-0.016 10.024,-0 15.037,0.019c23.302,0.013 46.518,-0.882 69.795,-1.938c26.415,-1.185 52.766,-1.72 79.207,-1.625c1.643,0.006 3.287,0.011 4.98,0.017c13.32,0.051 26.64,0.139 39.96,0.235c10.119,0.073 20.238,0.129 30.357,0.163c4.645,0.022 9.289,0.067 13.934,0.114c4.205,0.015 4.205,0.015 8.495,0.03c2.448,0.018 4.896,0.036 7.419,0.054c21.844,-1.473 24.53,-8.369 24.461,-28.773c0.032,-1.879 0.064,-3.758 0.098,-5.693c0.002,-2.714 0.002,-2.714 0.004,-5.482c0.006,-1.656 0.012,-3.311 0.018,-5.017c-2.898,-17.496 -25.077,-14.871 -38.636,-14.911c-3.075,-0.017 -6.15,-0.033 -9.318,-0.05c-3.322,-0.003 -6.644,-0.007 -9.966,-0.01c-3.455,-0.014 -6.91,-0.03 -10.365,-0.047c-9.076,-0.042 -18.151,-0.067 -27.227,-0.087c-14.483,-0.036 -28.966,-0.098 -43.449,-0.158c-5.015,-0.019 -10.03,-0.031 -15.045,-0.041c-15.874,-0.052 -31.7,-0.301 -47.56,-0.962c-9.884,-0.362 -19.762,-0.389 -29.651,-0.394c-2.126,-0.003 -4.252,-0.007 -6.443,-0.01c-4.464,-0.005 -8.929,-0.007 -13.393,-0.007c-6.687,-0.002 -13.373,-0.02 -20.06,-0.039c-20.903,-0.031 -41.799,0.118 -62.689,0.861Z" style="fill-rule:nonzero;"/></svg>