<?xml version="1.0" encoding="UTF-8" standalone="no"?><!DOCTYPE svg PUBLIC "-//W3C//DTD SVG 1.1//EN" "http://www.w3.org/Graphics/SVG/1.1/DTD/svg11.dtd"><svg width="100%" height="100%" viewBox="0 0 538 310" version="1.1" xmlns="http://www.w3.org/2000/svg" xmlns:xlink="http://www.w3.org/1999/xlink" xml:space="preserve" xmlns:serif="http://www.serif.com/" style="fill-rule:evenodd;clip-rule:evenodd;stroke-linejoin:round;stroke-miterlimit:2;"><rect id="Artboard1" x="0" y="0" width="538" height="310" style="fill:none;"/><path d="M96.782,34.405c0.074,0.934 0.147,1.868 0.223,2.83c0.602,8.442 0.811,16.882 0.932,25.342c0.01,0.641 0.02,1.282 0.031,1.942c0.027,1.844 0.045,3.687 0.06,5.531c0.009,1.062 0.019,2.124 0.028,3.218c-0.631,17.777 -10.591,22.132 -26.855,23.365c-1.031,0.087 -2.062,0.174 -3.125,0.264c-9.995,0.798 -19.974,1.206 -30,1.195c-0.853,0.002 -1.706,0.004 -2.584,0.006c-2.531,-0.006 -5.059,-0.046 -7.59,-0.101c-0.749,-0.004 -1.499,-0.008 -2.271,-0.012c-19.723,-0.679 -21.171,-19.81 -21.314,-35.57c-0.022,-1.386 -0.045,-2.772 -0.069,-4.158c-0.045,-2.707 -0.081,-5.413 -0.111,-8.12c-0.034,-3.008 -0.095,-6.015 -0.174,-9.023c-0.49,-20.691 1.694,-34.271 24.841,-35.996c1.007,-0.085 2.014,-0.17 3.051,-0.257c8.533,-0.652 17.071,-0.914 25.626,-1.056c0.615,-0.012 1.231,-0.024 1.865,-0.036c25.33,-0.441 35.468,4.551 37.434,30.638Zm-27.841,-20.812c-0.915,-0.024 -1.829,-0.049 -2.771,-0.074c-46.016,-0.932 -54.64,4.208 -52.097,50.604c0.042,0.817 0.084,1.634 0.127,2.476c0.88,16.814 3.864,21.984 21.474,21.917c0.97,0.006 1.94,0.011 2.94,0.017c37.488,2.338 37.488,2.338 49.774,-24.95c-0.007,-1.128 -0.014,-2.256 -0.021,-3.417c2.028,-32.429 2.028,-32.429 -19.425,-46.572Z" style="fill-rule:nonzero;"/><path d="M177.257,232.315c0.135,1.043 0.135,1.043 0.272,2.108c0.898,7.95 1.074,15.954 1.283,23.946c0.018,0.676 0.036,1.353 0.054,2.05c0.812,33.107 -20.057,32.082 -48.615,32.447c-1.99,0.03 -3.978,0.091 -5.967,0.157c-20.918,0.452 -23.373,-14.189 -23.4,-32.053c-0.019,-2.225 -0.04,-4.449 -0.063,-6.674c-0.014,-1.592 -0.014,-1.592 -0.029,-3.216c-0.074,-4.696 -0.347,-9.372 -0.669,-14.057c-0.048,-4.715 0.553,-8.821 2.89,-12.945c0.502,-0.903 0.502,-0.903 1.014,-1.824c3.462,-5.952 16.656,-6.292 22.787,-6.76c0.713,-0.055 1.426,-0.111 2.161,-0.168c9.256,-0.678 18.489,-0.971 27.767,-0.704c0.767,0.014 1.533,0.027 2.323,0.041c11.154,0.46 16.909,6.61 18.193,17.651Zm-28.293,-9.414c-1.144,0.009 -2.289,0.018 -3.468,0.027c-26.045,-1.285 -26.045,-1.285 -36.234,16.189c-0.008,0.766 -0.016,1.531 -0.024,2.32c-0.018,2.581 -0.019,5.162 -0.012,7.743c0.002,0.964 0.004,1.928 0.006,2.921c0.015,3.016 0.05,6.031 0.091,9.046c0.007,0.943 0.014,1.885 0.022,2.856c0.296,15.514 3.504,20.869 19.471,20.577c1.029,-0.009 2.058,-0.019 3.119,-0.028c10.256,-0.191 20.359,-1.352 30.506,-2.796c1.903,-0.262 3.803,-0.485 5.714,-0.678c1.583,-4.219 2.116,-7.678 2.061,-12.175c-0.006,-0.599 -0.012,-1.199 -0.017,-1.817c-0.023,-1.932 -0.062,-3.863 -0.102,-5.795c-0.011,-0.656 -0.021,-1.312 -0.032,-1.989c1.322,-28.283 1.322,-28.283 -21.099,-36.401Z" style="fill-rule:nonzero;"/><path d="M160.763,186.969c-38.699,6.524 -38.699,6.524 -51.799,-0.888c-0.919,-0.51 -1.838,-1.021 -2.784,-1.546c-7.26,-4.21 -6.212,-16.805 -6.409,-24.194c-0.044,-1.344 -0.089,-2.689 -0.133,-4.033c-1.175,-39.425 -1.175,-39.425 22.813,-41.024c1.461,-0.109 1.461,-0.109 2.951,-0.219c55.85,-3.847 63.774,63.809 35.361,71.905Zm-53.009,-46.644c-0.003,0.746 -0.006,1.492 -0.01,2.261c0.008,6.91 0.199,13.82 0.417,20.726c0.03,1.056 0.06,2.112 0.091,3.199c0.038,0.989 0.075,1.979 0.114,2.998c0.031,0.882 0.063,1.764 0.095,2.673c1.328,10.651 15.661,9.132 23.653,8.854c1.215,-0.03 2.431,-0.06 3.647,-0.089c22.392,0.58 22.392,0.58 28.832,-17.149c0.005,-0.762 0.009,-1.523 0.014,-2.308c0.006,-2.502 -0.011,-5.003 -0.037,-7.505c-0.009,-0.903 -0.018,-1.806 -0.028,-2.737c-0.035,-2.761 -0.085,-5.52 -0.142,-8.28c-0.016,-0.859 -0.032,-1.718 -0.049,-2.603c-0.68,-25.339 -56.799,-26.69 -56.598,-0.041Z" style="fill-rule:nonzero;"/><path d="M210.357,79.394l-0.863,1.623c-5.306,9.97 -17.585,12.096 -27.101,6.832l-2.596,-1.417c-10.911,-6.142 -9.228,-22.494 -4.4,-31.637l0.925,-1.877c13.612,-26.13 46.22,3.919 34.034,26.476Zm-13.654,2.248c19.091,-12.321 -3.402,-39.446 -11.256,-26.337l-1.614,3.048c-2.529,4.699 -4.318,8.46 -2.773,13.768l0.983,2.219c2.661,6.144 7.965,8.398 14.66,7.302Z"/><path d="M238.201,174.875c-3.93,0.786 -6.35,-0.291 -9.747,-2.128l-2.158,-1.158c-8.565,-4.68 -9.58,-20.62 -5.457,-28.355l0.944,-1.787l0.991,-1.842l0.997,-1.879c13.774,-25.949 50.562,22.41 14.43,37.15Zm3.576,-11.035c6.831,-10.781 -3.682,-35.997 -11.049,-22.155l-0.863,1.623c-5.005,9.266 -2.456,31.292 11.912,20.533Z"/><path d="M240.109,45.504l1.604,0.869c17.605,9.551 1.563,26.943 -12.667,27.34c-0.603,4.523 -0.483,8.876 -0.235,13.414c-11.793,14.625 -10.818,-18.487 -10.886,-24.909l-0.035,-2.888l-0.019,-2.585c-0.115,-2.521 -0.464,-4.918 -0.92,-7.397c3.679,-4.876 3.679,-4.876 7.875,-5.9l2.369,-0.587c5.225,-0.973 8.333,0.084 12.914,2.645Zm-11.368,20.152c3.222,-1.07 18.088,-6.87 10.059,-11.788c-9.215,-5.283 -22.955,-1.568 -10.059,11.788Z"/><path d="M273.896,54.12l0.775,1.608c1.053,2.218 1.988,4.379 2.665,6.741c0.744,2.14 1.661,3.088 3.349,4.574c2.56,2.253 2.56,2.253 1.873,4.785c-0.8,4.673 1.043,8.824 2.648,13.157c-2.17,4.157 -8.203,11.131 -10.139,0.074l-0.394,-2.048l-0.373,-2.019c-2.176,-7.126 -12.984,-10.823 -15.796,-2.122c-4.695,13.413 -4.695,13.413 -12.271,9.457c1.996,-11.056 14.471,-63.204 27.661,-34.207Zm-4.449,11.356c-3.821,-9.169 -3.698,-14.32 -8.519,1.192c2.798,1.461 6.957,1.799 8.519,-1.192Z"/><path d="M446.631,252.894c0.102,0.799 0.203,1.598 0.308,2.421c0.63,9.324 -7.515,22.93 -17.579,15.837c-0.891,-0.623 -0.891,-0.623 -1.799,-1.258c-4.401,-3.134 -4.539,-10.55 -4.833,-15.431c-9.879,-2.798 -6.953,6.062 -5.962,14.087c-4.824,7.085 -7.823,5.009 -8.7,-1.992c-0.116,-0.921 -0.233,-1.843 -0.353,-2.792c-0.802,-7.394 -0.802,-7.394 0.594,-9.444c-1.921,-0.11 -3.842,-0.221 -5.821,-0.334c-5.823,-5.938 -1.998,-7.538 4.802,-8.829c0.122,-3.111 0.244,-6.222 0.37,-9.427c8.117,-7.959 7.906,2.14 8.231,9.233c2.09,0.338 5.399,0.873 6.599,1.067c2.333,0.133 3.553,-0.17 5.607,-1.225c3.57,3.641 3.57,3.641 3.528,5.909c-0.015,0.979 -0.029,1.958 -0.044,2.966c-0.024,1.457 -0.024,1.457 -0.048,2.944c0.09,8.386 2.18,10.679 6.975,1.319c-0.337,-3.024 -0.673,-6.048 -1.02,-9.163c5.14,-4.582 8.358,-2.287 9.147,4.111Z" style="fill-rule:nonzero;"/><path d="M31.386,46.089c1.339,-0.627 1.339,-0.627 2.706,-1.266c15.657,-6.525 22.945,20.069 15.132,29.758c-3.259,1.023 -5.68,-0.803 -5.976,-3.975c-0.845,-8.531 -3.078,-25.7 -9.439,-9.714c-0.333,2.561 -0.424,5.047 -0.475,7.627c-0.462,7.007 -3.655,8.693 -9.127,4.281c-0.954,-4.362 -1.422,-8.444 -1.539,-12.927c-0.017,-0.611 -0.034,-1.222 -0.052,-1.851c-0.035,-1.283 -0.068,-2.565 -0.098,-3.848c-0.046,-1.945 -0.099,-3.89 -0.153,-5.835c-0.574,-21.55 10.386,-25.621 9.021,-2.25Z" style="fill-rule:nonzero;"/><path d="M279.569,152.902l0.982,2.297c2.671,8.297 -5.673,15.856 -13.412,16.242c-0.97,4.875 -1.026,9.348 -0.698,14.301c-1.497,1.856 -7.679,8.077 -8.206,1.078c-0.174,-2.302 -0.35,-4.604 -0.526,-6.906l-0.194,-2.557c-0.326,-4.232 -0.675,-8.46 -1.094,-12.684l-0.221,-2.257c-0.14,-1.41 -0.286,-2.819 -0.439,-4.227c-1.546,-15.616 18.029,-19.006 23.807,-5.288Zm-10.12,6.265c4.458,-8.278 -0.084,-9.032 -4.006,-1.105c1.694,5.397 1.694,5.397 2.705,3.537l1.301,-2.432Z"/><path d="M246.434,243.309c1.564,-1.143 1.564,-1.143 3.16,-2.309c2.009,-1.422 16.93,-8.47 12.406,-0.82c-3.209,5.098 -6.795,8.4 -11.768,11.765c0.697,0.52 1.394,1.04 2.112,1.575c17.478,13.419 17.478,13.419 6.874,15.432c-4.842,-3.17 -9.33,-6.362 -13.489,-10.394c-0.035,3.569 -0.035,3.569 -0.071,7.211c-11.405,16.75 -8.23,-20.508 -7.939,-26.653c0.038,-1.01 0.077,-2.02 0.116,-3.06c0.049,-0.953 0.098,-1.907 0.149,-2.889c0.038,-0.848 0.077,-1.696 0.117,-2.57c3.32,-17.868 8.502,6.264 8.332,12.712Z" style="fill-rule:nonzero;"/><path d="M139.971,52.021c4.9,0.925 4.9,0.925 9.829,0.62c11.298,5.899 1.155,9.741 -6.903,11.061c-0.585,-0.305 -1.17,-0.611 -1.773,-0.926c-0.078,4.427 -0.155,8.853 -0.235,13.414c-8.268,10.254 -10.455,-2.78 -10.559,-10.026c0.305,-0.585 0.611,-1.17 0.926,-1.773c-1.462,-0.038 -2.925,-0.072 -4.387,-0.105c-0.814,-0.019 -1.629,-0.039 -2.468,-0.059c-1.992,-0.096 -1.992,-0.096 -3.437,0.431c-11.882,-6.204 -0.899,-9.783 6.903,-11.061c0.585,0.305 1.17,0.611 1.773,0.926c-0.018,-0.745 -0.036,-1.491 -0.055,-2.258c-0.098,-14.204 9.058,-22.647 10.386,-0.244Z" style="fill-rule:nonzero;"/><path d="M140.832,151.623c-0.15,5.254 0.254,10.205 1.146,15.385c-7.216,13.821 -9.072,-3.324 -9.672,-9.563l0.926,-1.773l-7.17,0.769c-27.302,-14.255 16.194,-42.601 14.771,-4.818Z"/><path d="M424.535,148.709l7.939,6.401c-2.688,9.215 -11.447,5.366 -15.187,-1.161l-4.126,5.742c-17.969,3.522 -18.998,-16.433 -7.885,-25.41c12.692,-5.376 16.482,3.338 19.259,14.428Zm-14.379,3.773c2.996,-4.633 3.074,-18.497 -1.499,-10.169l-1.04,1.933c-1.407,2.592 -3.312,12.465 2.539,8.235Z"/><path d="M299.272,67.229c0.081,1.015 0.162,2.03 0.245,3.076c0.578,7.385 0.578,7.385 0.532,10.021c2.833,0.803 5.101,1.026 8.026,0.731c0.735,-0.071 1.47,-0.141 2.227,-0.214c0.757,-0.08 1.514,-0.159 2.294,-0.241c1.159,-0.114 1.159,-0.114 2.341,-0.23c1.899,-0.187 3.798,-0.383 5.696,-0.58c14.747,10.597 -12.582,12.307 -20.781,11.712c-12.784,-4.014 -10.415,-18.148 -10.594,-29.353c-0.046,-2.813 -0.125,-5.624 -0.204,-8.436c-0.493,-19.9 9.641,5.781 10.218,13.514Z" style="fill-rule:nonzero;"/><path d="M73.127,63.371c2.785,1.082 5.571,2.164 8.441,3.279c3.384,10.779 -21.073,7.584 -26.021,4.463c1.428,-4.895 1.428,-4.895 6.825,-6.589c0.997,-4.999 1.028,-9.612 0.761,-14.691c-0.051,-1.111 -0.051,-1.111 -0.102,-2.243c0.223,-7.086 0.223,-7.086 -5.201,-4.615c-6.755,-5.728 12.094,-35.349 15.297,20.396Z" style="fill-rule:nonzero;"/><path d="M354.103,237.982c-2.779,0.528 -2.779,0.528 -9.655,-5.364c-2.451,4.506 -3.466,7.917 -4.01,12.997c-0.371,0.546 -0.743,1.091 -1.126,1.653c2.38,0.023 4.759,0.047 7.211,0.071c5.47,5.578 2.629,7.688 -4.239,8.002c-0.546,-0.371 -1.091,-0.743 -1.653,-1.126c0.618,7.008 0.618,7.008 1.248,14.158c-7.375,10.832 -8.957,-3.206 -9.884,-10.359c0.371,-0.546 0.743,-1.091 1.126,-1.653c-0.969,-0.061 -0.969,-0.061 -1.958,-0.123c-5.926,-1.138 -6.993,-2.377 -4.62,-7.985c1.376,-0.261 2.751,-0.522 4.168,-0.791c0.582,-2.504 1.124,-4.985 1.471,-7.533c2.804,-19.357 28.453,-17.381 21.92,-1.946Z" style="fill-rule:nonzero;"/><path d="M397.897,254.063c0.528,6.481 1.747,10.595 6.1,15.472c-3.451,8.154 -5.569,4.681 -11.643,-0.669l-5.03,3.834c-17.133,0.784 -13.285,-15.018 -6.7,-23.919c5.931,-2.581 16.68,-6.068 17.273,5.282Zm-12.155,10.301c2.931,-4.304 8.846,-11.756 -0.457,-9.99c-3.315,4.869 -4.7,6.479 0.457,9.99Z"/><path d="M309.212,263.824c-2.549,6.729 -4.861,13.432 -6.775,20.368c-2.687,7.437 -3.878,9.127 -10.682,4.494c1.336,-7.448 3.54,-13.938 6.86,-20.735c-0.368,-0.428 -0.736,-0.857 -1.115,-1.298c-5.213,-6.395 -12.309,-16.027 -5.585,-22.621c3.906,2.186 5.327,4.574 7.249,8.565c0.493,1.01 0.986,2.019 1.494,3.059c0.547,1.158 0.547,1.158 1.105,2.34c0.338,-1.105 0.338,-1.105 0.684,-2.233c0.312,-0.968 0.623,-1.937 0.944,-2.935c0.302,-0.959 0.604,-1.918 0.916,-2.907c7.063,-16.377 8.082,5.661 4.905,13.902Z" style="fill-rule:nonzero;"/><path d="M303.946,151.317c1.36,6.067 4.799,10.622 8.449,15.552c-4.862,6.029 -8.355,3.71 -12.489,-2.008l-3.664,4.856c-16.506,5.182 -14.764,-13.708 -9.9,-22.091c6.301,-3.667 15.888,-7.22 17.603,3.692Zm-9.745,7.321c4.458,-8.278 -0.084,-9.032 -4.006,-1.105c1.694,5.397 1.694,5.397 2.705,3.537l1.301,-2.432Z"/><path d="M358.851,262.992c4.845,4.054 4.845,4.054 11.344,2.885c4.486,5.032 1.925,7.645 -3.635,8.337c-0.815,0.105 -1.63,0.209 -2.47,0.317c-3.687,0.223 -5.925,-0.972 -8.841,-3.028c-0.879,-0.615 -0.879,-0.615 -1.777,-1.243c-6.545,-4.664 -4.705,-15.864 -0.81,-21.388c0.41,-0.586 0.82,-1.173 1.243,-1.777c9.023,-12.662 33.096,8.487 4.947,15.896Z" style="fill-rule:nonzero;"/><path d="M123.064,250.765c2.163,1.466 2.163,1.466 5.397,-1.694c11.917,0.209 15.68,17.422 9.398,25.213c-4.432,-2.314 -4.432,-2.314 -6.895,-14.881c-2.282,-3.02 -2.282,-3.02 -2.738,-0.368c-3.09,10.752 -9.216,22.565 -11.607,4.397c-0.759,-6.468 -1.02,-12.984 -1.34,-19.485c-0.113,-1.809 -0.291,-3.602 -0.498,-5.403c7.075,-8.345 12.121,4.874 8.284,12.222Z" style="fill-rule:nonzero;"/><path d="M282.362,242.291l1.799,1.258c9.618,6.848 -4.744,15.663 -11.805,14.991c1.32,6.952 6.571,6.063 10.781,3.711c8.438,3.571 3.409,8.256 -3.503,9.032l-2.079,0.243c-17.797,0.724 -15.823,-20.245 -8.363,-29.659c1.204,-0.369 2.41,-0.732 3.616,-1.091l2.034,-0.614c3.322,-0.786 4.856,0.251 7.52,2.129Zm-3.252,6.33c-3.141,-2.139 -3.141,-2.139 -7.51,2.145c3.149,0.311 4.861,-0.47 7.51,-2.145Z"/><path d="M480.343,262.238c4.951,4.227 4.951,4.227 11.906,2.058c6.664,7.477 -5.152,10.731 -11.186,9.321c-2.241,-1.29 -2.241,-1.29 -4.41,-2.851l-2.204,-1.567c-37.118,-27.184 61.452,-29.475 5.893,-6.961Zm3.412,-8.565c2.369,-2.054 4.382,-5.15 -0.791,-4.168c-2.046,3.005 -4.1,6.9 0.791,4.168Z"/><path d="M154.591,263.842c0.795,-0.073 0.795,-0.073 1.607,-0.148c6.98,-0.486 13.252,-0.223 8.991,7.938c-2.664,0.298 -5.328,0.587 -7.995,0.863c-2.006,0.211 -4.01,0.451 -6.011,0.709c-3.77,-0.107 -9.599,-1.501 -7.418,-6.078c1.332,-2.8 2.657,-5.604 3.982,-8.407c0.465,-0.976 0.93,-1.952 1.409,-2.957c0.44,-0.934 0.88,-1.867 1.334,-2.829c0.409,-0.862 0.817,-1.724 1.238,-2.612c3.077,-7.41 -2.569,-5.178 -7.156,-1.862c-11.311,-2.723 1.042,-10.922 6.48,-12.41c17.029,0.299 8.082,19.889 3.538,27.794Z" style="fill-rule:nonzero;"/><path d="M514.287,251.476c-2.882,-0.165 -2.882,-0.165 -5.821,-0.334c-4.443,2.1 -4.443,2.1 10.447,9.533c2.639,13.898 -11.122,18.66 -20.911,11.167c-1.182,-6.227 3.332,-6.311 7.98,-5.516c11.182,0.402 -0.061,-4.819 -6.45,-9.169c-6.979,-22.7 23.432,-13.414 14.756,-5.68Z" style="fill-rule:nonzero;"/><path d="M372.768,141.986c-1.628,0.267 -3.257,0.533 -4.934,0.808c0.561,0.335 1.122,0.67 1.7,1.015c10.07,6.261 17.213,22.82 -1.259,23.258c-5.13,-1.174 -14.449,-8.017 -5.147,-10.937c3.301,1.165 3.301,1.165 6.668,2.353c2.897,-4.471 2.897,-4.471 -10.559,-10.026c-6.128,-19.52 20.704,-14.548 13.532,-6.472Z" style="fill-rule:nonzero;"/><path d="M208.563,246.898c2.366,-0.254 4.732,-0.507 7.17,-0.769c9.757,5.094 2.882,8.896 -5.091,9.751c0.101,2.659 0.202,5.317 0.306,8.056c-6.581,8.162 -8.196,1.825 -9.288,-5.978c-0.948,-0.1 -1.897,-0.199 -2.874,-0.302c-10.409,-2.169 -7.093,-7.686 1.721,-10.453c-0.171,-1.276 -0.171,-1.276 -0.346,-2.578c0.005,-14.389 12.894,-6.329 8.403,2.272Z" style="fill-rule:nonzero;"/><path d="M321.27,145.415c0.662,6.492 1.382,12.959 2.343,19.414c-8.3,15.897 -11.254,-16.073 -11.752,-21.648c-0.094,-0.969 -0.188,-1.939 -0.285,-2.937c-1.797,-21.763 8.178,-9.864 9.695,5.171Z" style="fill-rule:nonzero;"/><path d="M469.633,251.316c-2.107,0.162 -4.214,0.325 -6.384,0.492c-4.485,4.772 -3.973,10.325 -4.045,16.602c-11.133,10.917 -10.073,-13.039 -10.64,-18.133c2.814,-4.133 2.814,-4.133 7.51,-2.145c0.929,-1.364 1.857,-2.728 2.814,-4.133c6.349,-1.205 16.846,-1.643 10.746,7.317Z" style="fill-rule:nonzero;"/><path d="M151.721,168.034c-9.285,11.515 -9.475,-24.52 -9.743,-31.034c9.285,-11.515 9.475,24.52 9.743,31.034Z" style="fill-rule:nonzero;"/><path d="M202.962,158.238c-13.339,5.875 -17.195,-4.245 -11.83,-14.073c11.473,-2.488 17.631,2.963 11.83,14.073Z" style="fill-rule:nonzero;"/><path d="M351.328,165.763c-8.749,-2.552 -9.272,-16.812 -5.389,-24.248c8.725,-2.739 9.385,19.748 5.389,24.248Z" style="fill-rule:nonzero;"/><path d="M446.735,158.045c-8.819,2.769 -4.969,-5.606 -3.428,-8.559c8.288,-2.602 5.983,5.39 3.428,8.559Z" style="fill-rule:nonzero;"/><path d="M464.197,157.009c-8.174,-2.673 -8.174,-2.673 -3.428,-8.559c8.819,-2.769 4.969,5.606 3.428,8.559Z" style="fill-rule:nonzero;"/><path d="M349.642,134.423c-6.327,1.986 -6.691,-2.275 -5.24,-7.249c6.327,-1.986 6.691,2.275 5.24,7.249Z" style="fill-rule:nonzero;"/><path d="M482.122,155.088c-8.288,2.602 -5.983,-5.39 -3.428,-8.559c6.289,0.11 5.71,4.188 3.428,8.559Z" style="fill-rule:nonzero;"/><path d="M289.065,251.769c-0.546,-0.371 -1.091,-0.743 -1.653,-1.126c-1.114,1.637 -2.229,3.273 -3.377,4.96c-1.743,-1.187 4.868,-5.936 5.03,-3.834Z" style="fill-rule:nonzero;"/></svg>