<?xml version="1.0" encoding="UTF-8" standalone="no"?>
<!DOCTYPE svg PUBLIC "-//W3C//DTD SVG 1.1//EN" "http://www.w3.org/Graphics/SVG/1.1/DTD/svg11.dtd">
<svg width="100%" height="100%" viewBox="0 0 1217 1020" version="1.1" xmlns="http://www.w3.org/2000/svg" xmlns:xlink="http://www.w3.org/1999/xlink" xml:space="preserve" xmlns:serif="http://www.serif.com/" style="fill-rule:evenodd;clip-rule:evenodd;stroke-linejoin:round;stroke-miterlimit:2;">
    <g id="Artboard1" transform="matrix(1,0,0,1.147357,12,14.915636)">
        <rect x="-12" y="-13" width="1217" height="889" style="fill:none;"/>
        <g transform="matrix(0.992088,-0.109422,0.125545,0.864673,21.129521,145.75806)">
            <path d="M828,0L1043,0C1058.84,1.485 1058.84,1.485 1075,3C1078.63,3.99 1082.26,4.98 1086,6C1087.65,7.98 1089.3,9.96 1091,12C1091.66,15.96 1092.32,19.92 1093,24C1093.99,37.2 1094.98,50.4 1096,64L1096,95C1095.67,100.28 1095.34,105.56 1095,111L1095,122C1093.515,125.465 1093.515,125.465 1092,129C1089.03,131.475 1089.03,131.475 1086,134C1082.37,134.99 1078.74,135.98 1075,137C1073.02,137.33 1071.04,137.66 1069,138C1045.9,138.33 1022.8,138.66 999,139C744.9,140.32 490.8,141.64 229,143L31,143C25.39,142.01 19.78,141.02 14,140C12.02,138.68 10.04,137.36 8,136C6.515,133.525 6.515,133.525 5,131C4.505,128.525 4.505,128.525 4,126C3.67,112.47 3.34,98.94 3,85L3,22C3.99,18.7 4.98,15.4 6,12C7.65,10.68 9.3,9.36 11,8C17.93,6.515 17.93,6.515 25,5C27.64,4.67 30.28,4.34 33,4C55.275,3.505 55.275,3.505 78,3C449.25,1.515 449.25,1.515 828,0ZM706,12C555.19,12.33 404.38,12.66 249,13C175.41,13.33 101.82,13.66 26,14C22.7,14.66 19.4,15.32 16,16C15.34,17.32 14.68,18.64 14,20L14,70C14.33,84.19 14.66,98.38 15,113C15.33,117.95 15.66,122.9 16,128C16.99,128.66 17.98,129.32 19,130C24.94,130.66 30.88,131.32 37,132L120,132C559.56,129.525 559.56,129.525 1008,127C1038.69,126.505 1038.69,126.505 1070,126C1073.63,125.01 1077.26,124.02 1081,123C1081.66,121.35 1082.32,119.7 1083,118C1083.33,112.72 1083.66,107.44 1084,102L1084,56C1083.01,44.12 1082.02,32.24 1081,20C1080.67,18.68 1080.34,17.36 1080,16C1073.07,15.01 1066.14,14.02 1059,13C1053.72,12.67 1048.44,12.34 1043,12L706,12ZM58,28L100,28C103.3,28.99 106.6,29.98 110,31C111.65,32.32 113.3,33.64 115,35C115.99,37.31 116.98,39.62 118,42C118.495,44.475 118.495,44.475 119,47C119.495,56.405 119.495,56.405 120,66L120,83C119.67,88.61 119.34,94.22 119,100C118.34,103.3 117.68,106.6 117,110C115.68,111.65 114.36,113.3 113,115C111.35,115.66 109.7,116.32 108,117C102.72,117.66 97.44,118.32 92,119L49,119C45.7,118.01 42.4,117.02 39,116C37.35,114.35 35.7,112.7 34,111C33.34,109.68 32.68,108.36 32,107C31.34,102.05 30.68,97.1 30,92L30,45C31.32,41.37 32.64,37.74 34,34C36.31,32.68 38.62,31.36 41,30C49.415,29.01 49.415,29.01 58,28ZM83,37C81.68,39.31 80.36,41.62 79,44C79.33,48.29 79.66,52.58 80,57C79.67,58.32 79.34,59.64 79,61L73,61C71.68,60.01 70.36,59.02 69,58C66.69,58.33 64.38,58.66 62,59C59.525,62.465 59.525,62.465 57,66C59.64,67.98 62.28,69.96 65,72C67.97,71.505 67.97,71.505 71,71C71.66,69.68 72.32,68.36 73,67C77.95,68.98 77.95,68.98 83,71C84.98,70.505 84.98,70.505 87,70C88.32,68.35 89.64,66.7 91,65C90.505,62.03 90.505,62.03 90,59C89.34,58.34 88.68,57.68 88,57L88,50C88.33,49.67 88.66,49.34 89,49L89,43C87.35,41.02 85.7,39.04 84,37L83,37ZM44,42C42.02,44.97 42.02,44.97 40,48C40.33,49.32 40.66,50.64 41,52L51,52C53.31,51.34 55.62,50.68 58,50C63.445,50.495 63.445,50.495 69,51C69.66,50.34 70.32,49.68 71,49C70.67,46.69 70.34,44.38 70,42L44,42ZM103,44C101.02,46.97 101.02,46.97 99,50C99.33,51.65 99.66,53.3 100,55C101.32,55.66 102.64,56.32 104,57C105.98,56.34 107.96,55.68 110,55C109.67,52.03 109.34,49.06 109,46C108.34,45.34 107.68,44.68 107,44L103,44ZM46,58C44.68,59.32 43.36,60.64 42,62C41.67,63.32 41.34,64.64 41,66L39,66L39,71L42,71L42,68C44.97,68.33 47.94,68.66 51,69C51.99,68.34 52.98,67.68 54,67C53.67,64.69 53.34,62.38 53,60C52.01,59.34 51.02,58.68 50,58L46,58ZM68,75C64.04,77.475 64.04,77.475 60,80C60.99,84.29 61.98,88.58 63,93C64.65,92.67 66.3,92.34 68,92C69.98,91.01 71.96,90.02 74,89C73.67,87.02 73.34,85.04 73,83C71.68,80.36 70.36,77.72 69,75L68,75ZM110,77L110,79L103,79C102.67,80.65 102.34,82.3 102,84C103.32,87.3 104.64,90.6 106,94L110,94C110.33,88.39 110.66,82.78 111,77L110,77ZM39,81L39,95C42.63,95.33 46.26,95.66 50,96C50.33,95.67 50.66,95.34 51,95C51.33,91.04 51.66,87.08 52,83C51.67,82.34 51.34,81.68 51,81L39,81ZM83,85C82.67,85.33 82.34,85.66 82,86L82,106C83.32,107.65 84.64,109.3 86,111C87.98,110.67 89.96,110.34 92,110C93.65,108.35 97.66,104.34 98,104L98,98C97.67,97.67 97.34,97.34 97,97L85,97C84.67,93.04 84.34,89.08 84,85L83,85ZM68,97C65.03,98.98 65.03,98.98 62,101C61.67,102.32 61.34,103.64 61,105L65,105C65.33,106.32 65.66,107.64 66,109C66.99,108.67 67.98,108.34 69,108C69.33,107.01 69.66,106.02 70,105L70,97L68,97ZM410,48C413.3,48.33 416.6,48.66 420,49C422.64,50.98 425.28,52.96 428,55C428.66,56.65 429.32,58.3 430,60C430.99,58.68 431.98,57.36 433,56C434.65,54.35 436.3,52.7 438,51C440.31,51.33 442.62,51.66 445,52C446.65,54.64 448.3,57.28 450,60C450.99,62.31 451.98,64.62 453,67L453,72L457,72C457.99,67.545 457.99,67.545 459,63C460.65,60.36 462.3,57.72 464,55C465.98,54.01 467.96,53.02 470,52C472.64,52.33 475.28,52.66 478,53C478.99,53.99 478.99,53.99 480,55C479.67,56.65 479.34,58.3 479,60C477.35,60.66 475.7,61.32 474,62L471,62C470.34,63.98 469.68,65.96 469,68L469,79C469.99,79.99 469.99,79.99 471,81C477.93,81.495 477.93,81.495 485,82L485,54C485.99,53.01 486.98,52.02 488,51C490.475,50.505 490.475,50.505 493,50L508,50C508.99,50.99 508.99,50.99 510,52L510,57C509.34,57.66 508.68,58.32 508,59L493,59C493.495,63.455 493.495,63.455 494,68C498.29,68.33 502.58,68.66 507,69L507,75C504.69,75.66 502.38,76.32 500,77L495,77L495,85C496.65,84.34 498.3,83.68 500,83L510,83C510.33,83.33 510.66,83.66 511,84C510.67,86.31 510.34,88.62 510,91C508.02,92.32 506.04,93.64 504,95C502.68,95.33 501.36,95.66 500,96L493,96C491.35,94.68 489.7,93.36 488,92C487.34,91.34 486.68,90.68 486,90C484.68,90.99 483.36,91.98 482,93C479.36,93.33 476.72,93.66 474,94C471.03,93.01 468.06,92.02 465,91C462.69,88.36 460.38,85.72 458,83C457.505,87.95 457.505,87.95 457,93C456.67,93.33 456.34,93.66 456,94C453.69,93.67 451.38,93.34 449,93C448.34,92.34 447.68,91.68 447,91L447,81L436,81C435.34,84.63 434.68,88.26 434,92C433.67,92.33 433.34,92.66 433,93L427,93L427,73C423.04,74.98 423.04,74.98 419,77L413,77C413.495,78.485 413.495,78.485 414,80L414,92C413.34,92.99 412.68,93.98 412,95C410.35,94.67 408.7,94.34 407,94C406.01,92.02 405.02,90.04 404,88C402.35,88.66 400.7,89.32 399,90C397.35,91.32 395.7,92.64 394,94C389.05,94.495 389.05,94.495 384,95C382.35,94.34 380.7,93.68 379,93L379,87C379.66,86.01 380.32,85.02 381,84L391,84L391,78C389.68,77.34 388.36,76.68 387,76C384.03,74.02 381.06,72.04 378,70C377.34,69.34 376.68,68.68 376,68L376,58C377.32,56.35 378.64,54.7 380,53C381.65,52.34 383.3,51.68 385,51L394,51C394.66,51.66 395.32,52.32 396,53L396,58C394.35,58.99 392.7,59.98 391,61C389.35,61.66 387.7,62.32 386,63C385.67,63.66 385.34,64.32 385,65C387.64,65.66 390.28,66.32 393,67C395.64,68.65 398.28,70.3 401,72C401.33,66.06 401.66,60.12 402,54C403.65,52.35 405.3,50.7 407,49C407.99,48.67 408.98,48.34 410,48ZM429,63L430,66L429,63ZM440,63C439.34,65.31 438.68,67.62 438,70L438,74L444,74C443.67,72.02 443.34,70.04 443,68C442.34,66.35 441.68,64.7 441,63L440,63ZM322,49L330,49C332.475,50.485 332.475,50.485 335,52C336.32,53.65 337.64,55.3 339,57L339,64C338.01,65.98 337.02,67.96 336,70C335.34,72.31 334.68,74.62 334,77C336.475,77.99 336.475,77.99 339,79C340.98,80.65 342.96,82.3 345,84L345,91C342.03,90.67 339.06,90.34 336,90C332.37,88.02 328.74,86.04 325,84L325,93C324.67,93.33 324.34,93.66 324,94L319,94C318.01,93.01 317.02,92.02 316,91C315.34,88.03 314.68,85.06 314,82C313.505,81.505 313.505,81.505 313,81C310.03,85.455 310.03,85.455 307,90C305.02,91.32 303.04,92.64 301,94L294,94C292.35,93.01 290.7,92.02 289,91C287.35,89.02 285.7,87.04 284,85C283.34,83.02 282.68,81.04 282,79L282,70C282.99,66.7 283.98,63.4 285,60C286.65,58.02 288.3,56.04 290,54C291.65,53.67 293.3,53.34 295,53C299.455,53.99 299.455,53.99 304,55C306.31,56.98 308.62,58.96 311,61C311.33,61.66 311.66,62.32 312,63C312.66,60.03 313.32,57.06 314,54C315.65,52.68 317.3,51.36 319,50C319.99,49.67 320.98,49.34 322,49ZM322,58L322,65C322.33,65.99 322.66,66.98 323,68C324.32,67.67 325.64,67.34 327,67C327.33,66.67 327.66,66.34 328,66L328,58L322,58ZM294,63C292.515,64.98 292.515,64.98 291,67L291,81C292.32,82.32 293.64,83.64 295,85C296.98,84.67 298.96,84.34 301,84C302.32,81.36 303.64,78.72 305,76L305,68C303.68,66.68 302.36,65.36 301,64C298.69,63.67 296.38,63.34 294,63ZM313,65L314,69L313,65ZM170,51L175,51C176.32,52.65 177.64,54.3 179,56C180.32,65.24 181.64,74.48 183,84L183,93C182.34,93.66 181.68,94.32 181,95L176,95C175.01,93.68 174.02,92.36 173,91C171.515,82.585 171.515,82.585 170,74C169.67,73.67 169.34,73.34 169,73C168.01,75.31 167.02,77.62 166,80C165.01,80.66 164.02,81.32 163,82C161.35,81.67 159.7,81.34 158,81C156.68,79.35 155.36,77.7 154,76C153.67,75.34 153.34,74.68 153,74C152.34,80.27 151.68,86.54 151,93C150.34,93.99 149.68,94.98 149,96L144,96C143.34,95.01 142.68,94.02 142,93L142,68C142.33,64.37 142.66,60.74 143,57C143.99,55.35 144.98,53.7 146,52C147.65,52.33 149.3,52.66 151,53C152.98,55.64 154.96,58.28 157,61C158.98,63.97 158.98,63.97 161,67C163.64,62.05 166.28,57.1 169,52C169.33,51.67 169.66,51.34 170,51ZM346,51L352,51C352.66,51.66 353.32,52.32 354,53C354.33,55.97 354.66,58.94 355,62C357.97,59.69 360.94,57.38 364,55C366.64,54.67 369.28,54.34 372,54L372,60C369.03,63.3 366.06,66.6 363,70L363,73C364.98,74.32 366.96,75.64 369,77C371.31,78.98 373.62,80.96 376,83C376.33,83.66 376.66,84.32 377,85L377,91C376.67,91.33 376.34,91.66 376,92L370,92C367.03,90.02 364.06,88.04 361,86C359.68,84.68 358.36,83.36 357,82C356.505,86.95 356.505,86.95 356,92C355.34,92.66 354.68,93.32 354,94L349,94C348.34,93.34 347.68,92.68 347,92C346.34,88.7 345.68,85.4 345,82L345,54C345.33,53.01 345.66,52.02 346,51ZM182,52C184.31,52.33 186.62,52.66 189,53C191.64,56.63 194.28,60.26 197,64C199.31,60.37 201.62,56.74 204,53C207.465,52.505 207.465,52.505 211,52C211.33,52.33 211.66,52.66 212,53L212,60C210.02,63.63 208.04,67.26 206,71C205.34,71.66 204.68,72.32 204,73C203.67,79.27 203.34,85.54 203,92C202.34,93.32 201.68,94.64 201,96L195,96C194.34,95.01 193.68,94.02 193,93C192.34,86.73 191.68,80.46 191,74C188.36,70.37 185.72,66.74 183,63C182.34,61.35 181.68,59.7 181,58L181,53C181.33,52.67 181.66,52.34 182,52ZM276,50C277.98,50.33 279.96,50.66 282,51C282.495,51.495 282.495,51.495 283,52L283,63C281.35,71.58 279.7,80.16 278,89C277.01,90.98 276.02,92.96 275,95C274.67,95.33 274.34,95.66 274,96C270.535,95.505 270.535,95.505 267,95C265.35,92.69 263.7,90.38 262,88C261.34,87.67 260.68,87.34 260,87C259.01,89.475 259.01,89.475 258,92C257.01,92.99 256.02,93.98 255,95C253.02,94.67 251.04,94.34 249,94C248.01,93.01 247.02,92.02 246,91C244.68,86.05 243.36,81.1 242,76C241.34,72.37 240.68,68.74 240,65L240,53C240.33,52.67 240.66,52.34 241,52L246,52C247.32,53.65 248.64,55.3 250,57C250.66,59.64 251.32,62.28 252,65L252,75L254,75C254.66,73.35 255.32,71.7 256,70C256.33,69.67 256.66,69.34 257,69L264,69C265.32,70.65 266.64,72.3 268,74L268,78L270,78L270,68C271.32,62.72 272.64,57.44 274,52C274.66,51.34 275.32,50.68 276,50ZM217,71L233,71C233.66,71.33 234.32,71.66 235,72L235,78C234.01,78.66 233.02,79.32 232,80L219,80C217.35,79.01 215.7,78.02 214,77C214.33,75.35 214.66,73.7 215,72C215.66,71.67 216.32,71.34 217,71ZM1007,161L1015,161C1015.66,161.99 1016.32,162.98 1017,164L1017,170C1016.34,170.66 1015.68,171.32 1015,172L1008,172C1007.34,171.01 1006.68,170.02 1006,169L1006,163C1006.33,162.34 1006.66,161.68 1007,161ZM1028,161L1060,161C1060.99,161.33 1061.98,161.66 1063,162L1063,169C1061.35,169.99 1059.7,170.98 1058,172L1031,172C1028.69,171.67 1026.38,171.34 1024,171C1023.34,170.34 1022.68,169.68 1022,169L1022,164C1022.66,163.34 1023.32,162.68 1024,162C1025.32,161.67 1026.64,161.34 1028,161ZM1009,178L1015,178C1015.66,178.33 1016.32,178.66 1017,179L1017,187C1016.34,187.66 1015.68,188.32 1015,189L1009,189C1008.01,188.01 1007.02,187.02 1006,186L1006,181C1006.99,180.01 1007.98,179.02 1009,178ZM1046,177L1056,177C1058.31,177.99 1060.62,178.98 1063,180C1063.495,182.475 1063.495,182.475 1064,185C1062.68,185.99 1061.36,186.98 1060,188C1058.35,188.33 1056.7,188.66 1055,189L1029,189C1026.69,188.01 1024.38,187.02 1022,186L1022,181C1022.66,180.34 1023.32,179.68 1024,179C1025.32,178.67 1026.64,178.34 1028,178C1033.94,177.67 1039.88,177.34 1046,177ZM1033,195L1058,195C1060.475,195.99 1060.475,195.99 1063,197C1063.495,197.495 1063.495,197.495 1064,198L1064,203C1062.35,203.99 1060.7,204.98 1059,206L1027,206C1025.68,205.34 1024.36,204.68 1023,204L1023,198C1023.66,197.34 1024.32,196.68 1025,196C1027.64,195.67 1030.28,195.34 1033,195ZM1008,196L1016,196C1016.66,197.32 1017.32,198.64 1018,200C1017.67,201.98 1017.34,203.96 1017,206L1009,206C1008.34,205.67 1007.68,205.34 1007,205L1007,197C1007.33,196.67 1007.66,196.34 1008,196ZM832,242L1002,242C1014.54,242.66 1027.08,243.32 1040,244C1045.94,244.66 1051.88,245.32 1058,246C1061.96,247.98 1061.96,247.98 1066,250C1066.99,251.65 1067.98,253.3 1069,255C1069.66,258.3 1070.32,261.6 1071,265C1071.33,268.3 1071.66,271.6 1072,275L1072,296C1071.34,302.6 1070.68,309.2 1070,316C1069.34,317.98 1068.68,319.96 1068,322C1066.02,322.99 1064.04,323.98 1062,325C1059.36,325.33 1056.72,325.66 1054,326C969.19,327.98 884.38,329.96 797,332C771.92,332.33 746.84,332.66 721,333L524,333C450.245,332.505 450.245,332.505 375,332L259,332C241.18,332.33 223.36,332.66 205,333L87,333C80.07,332.34 73.14,331.68 66,331C62.04,330.01 58.08,329.02 54,328C52.35,326.68 50.7,325.36 49,324C47.68,320.37 46.36,316.74 45,313C44.67,310.69 44.34,308.38 44,306C43.67,300.06 43.34,294.12 43,288L43,269C43.66,266.03 44.32,263.06 45,260C46.32,258.02 47.64,256.04 49,254C50.65,253.01 52.3,252.02 54,251C59.94,250.01 65.88,249.02 72,248C81.24,247.67 90.48,247.34 100,247C126.07,246.67 152.14,246.34 179,246L525,246C561.3,245.67 597.6,245.34 635,245C694.895,244.01 694.895,244.01 756,243C781.08,242.67 806.16,242.34 832,242ZM928,253C872.065,253.495 872.065,253.495 815,254C773.42,254.66 731.84,255.32 689,256C647.915,256.495 647.915,256.495 606,257L80,257C71.585,257.495 71.585,257.495 63,258C61.02,258.99 59.04,259.98 57,261C56.34,262.32 55.68,263.64 55,265C54.67,266.98 54.34,268.96 54,271L54,284C54.66,293.57 55.32,303.14 56,313C56.66,314.98 57.32,316.96 58,319C58.66,319.33 59.32,319.66 60,320C63.3,320.33 66.6,320.66 70,321C83.86,321.495 83.86,321.495 98,322L160,322C218.905,321.01 218.905,321.01 279,320L360,320C403.89,320.33 447.78,320.66 493,321L737,321C794.42,320.01 794.42,320.01 853,319C877.75,318.34 902.5,317.68 928,317C979.975,316.01 979.975,316.01 1033,315C1040.92,314.67 1048.84,314.34 1057,314C1057.66,312.68 1058.32,311.36 1059,310C1059.33,307.03 1059.66,304.06 1060,301L1060,272C1059.67,268.37 1059.34,264.74 1059,261C1058.67,260.01 1058.34,259.02 1058,258C1057.34,257.67 1056.68,257.34 1056,257C1047.42,256.34 1038.84,255.68 1030,255C1021.75,254.67 1013.5,254.34 1005,254C979.59,253.67 954.18,253.34 928,253ZM100,269C101.32,269.33 102.64,269.66 104,270L104,279C101.03,287.91 98.06,296.82 95,306C94.67,306.66 94.34,307.32 94,308L89,308L89,298C91.64,289.75 94.28,281.5 97,273C97.99,271.68 98.98,270.36 100,269ZM557,270L562,270C562.66,271.65 563.32,273.3 564,275C564.66,281.93 565.32,288.86 566,296L566,302C565.34,302.66 564.68,303.32 564,304C559.05,304.33 554.1,304.66 549,305C547.68,303.68 546.36,302.36 545,301C544.01,302.485 544.01,302.485 543,304L538,304C537.34,303.34 536.68,302.68 536,302C535.34,295.07 534.68,288.14 534,281C534.33,278.36 534.66,275.72 535,273C536.65,272.67 538.3,272.34 540,272C540.66,272.66 541.32,273.32 542,274C542.66,279.61 543.32,285.22 544,291C545.32,289.02 546.64,287.04 548,285C548.66,284.67 549.32,284.34 550,284L557,284L557,270ZM553,290C552.01,291.485 552.01,291.485 551,293L551,298C552.65,297.67 554.3,297.34 556,297C556.33,294.69 556.66,292.38 557,290L553,290ZM489,270C493.455,270.99 493.455,270.99 498,272C498.99,273.32 499.98,274.64 501,276C500.67,279.3 500.34,282.6 500,286C501.32,286.99 502.64,287.98 504,289C504.99,287.68 505.98,286.36 507,285C509.475,285.495 509.475,285.495 512,286C512.33,289.63 512.66,293.26 513,297L516,297L516,290C516.66,288.35 517.32,286.7 518,285C520.475,285.495 520.475,285.495 523,286C523.33,286.33 523.66,286.66 524,287L524,298C523.01,299.65 522.02,301.3 521,303C520.01,303.66 519.02,304.32 518,305L511,305C509.35,303.02 507.7,301.04 506,299C504.35,300.65 502.7,302.3 501,304C499.02,304.99 497.04,305.98 495,307L486,307C485.01,306.67 484.02,306.34 483,306C482.34,303.03 481.68,300.06 481,297L481,274C481.99,273.01 482.98,272.02 484,271C485.65,270.67 487.3,270.34 489,270ZM487,277L487,282C488.32,282.33 489.64,282.66 491,283C491.99,282.34 492.98,281.68 494,281L494,277L487,277ZM488,290L488,300L494,300C495.32,299.34 496.64,298.68 498,298C498.33,296.35 498.66,294.7 499,293C497.35,292.01 495.7,291.02 494,290L488,290ZM583,272L587,272C587.33,272.66 587.66,273.32 588,274L588,284L595,284C595.33,284.66 595.66,285.32 596,286C596.99,285.34 597.98,284.68 599,284L605,284C606.98,285.65 608.96,287.3 611,289C611.495,289.99 611.495,289.99 612,291C611.67,293.97 611.34,296.94 611,300C609.68,301.32 608.36,302.64 607,304C604.03,304.495 604.03,304.495 601,305C598.69,304.01 596.38,303.02 594,302C593.34,300.68 592.68,299.36 592,298C592.33,295.36 592.66,292.72 593,290C591.68,289.67 590.36,289.34 589,289C589.33,291.31 589.66,293.62 590,296L590,304C587.525,304.495 587.525,304.495 585,305C584.01,303.68 583.02,302.36 582,301C581.67,298.69 581.34,296.38 581,294C581.33,292.35 581.66,290.7 582,289L576,289C575.67,287.68 575.34,286.36 575,285C575.33,284.67 575.66,284.34 576,284L582,284L582,273C582.33,272.67 582.66,272.34 583,272ZM601,290C600.34,290.66 599.68,291.32 599,292L599,297C601.475,297.495 601.475,297.495 604,298C604.33,296.35 604.66,294.7 605,293C604.34,292.01 603.68,291.02 603,290L601,290ZM654,272L666,272C667.65,272.66 669.3,273.32 671,274C671.33,273.67 671.66,273.34 672,273L677,273C679.475,277.455 679.475,277.455 682,282L684,282C685.65,279.03 687.3,276.06 689,273C690.65,272.67 692.3,272.34 694,272C694.99,273.32 695.98,274.64 697,276C697.99,282.6 698.98,289.2 700,296L700,302C699.34,302.66 698.68,303.32 698,304C696.68,303.67 695.36,303.34 694,303C693.01,301.68 692.02,300.36 691,299C690.34,296.03 689.68,293.06 689,290C687.68,291.65 686.36,293.3 685,295C683.68,294.67 682.36,294.34 681,294C680.01,292.68 679.02,291.36 678,290C677.34,294.29 676.68,298.58 676,303C674.35,303.33 672.7,303.66 671,304C670.34,303.01 669.68,302.02 669,301L669,279L661,279C661.33,280.32 661.66,281.64 662,283L662,303C661.67,303.33 661.34,303.66 661,304L656,304C655.34,302.68 654.68,301.36 654,300C654.33,293.07 654.66,286.14 655,279L646,279C646.33,277.35 646.66,275.7 647,274C649.31,273.34 651.62,272.68 654,272ZM640,272C641.32,272.33 642.64,272.66 644,273C644.66,274.98 645.32,276.96 646,279C646.33,286.26 646.66,293.52 647,301C646.34,301.99 645.68,302.98 645,304L640,304C639.67,303.34 639.34,302.68 639,302L639,291L630,291C630.33,294.96 630.66,298.92 631,303C630.34,303.66 629.68,304.32 629,305C627.68,304.67 626.36,304.34 625,304C624.34,302.35 623.68,300.7 623,299L623,274C623.33,273.67 623.66,273.34 624,273L629,273C629.33,276.96 629.66,280.92 630,285C632.97,285.33 635.94,285.66 639,286C638.67,282.04 638.34,278.08 638,274C638.66,273.34 639.32,272.68 640,272ZM702,273C703.65,273.33 705.3,273.66 707,274C707.33,274.33 707.66,274.66 708,275C708.33,282.26 708.66,289.52 709,297C715.93,297.495 715.93,297.495 723,298C722.67,299.65 722.34,301.3 722,303C720.02,303.66 718.04,304.32 716,305L705,305C703.68,303.68 702.36,302.36 701,301L701,274C701.33,273.67 701.66,273.34 702,273ZM81,276L86,276L86,282C84.02,283.65 82.04,285.3 80,287C80.66,288.32 81.32,289.64 82,291C84.475,292.98 84.475,292.98 87,295C87.33,296.65 87.66,298.3 88,300C87.67,300.33 87.34,300.66 87,301L81,301C79.02,299.68 77.04,298.36 75,297C73.35,295.35 71.7,293.7 70,292C69.67,290.35 69.34,288.7 69,287C70.32,285.35 71.64,283.7 73,282C75.64,280.02 78.28,278.04 81,276ZM106,277C108.97,277.495 108.97,277.495 112,278C114.97,279.98 117.94,281.96 121,284C121.66,285.32 122.32,286.64 123,288C122.67,289.65 122.34,291.3 122,293C119.03,295.64 116.06,298.28 113,301C111.02,301.33 109.04,301.66 107,302C106.67,301.67 106.34,301.34 106,301C106.33,298.69 106.66,296.38 107,294C108.65,292.68 110.3,291.36 112,290C111.34,288.68 110.68,287.36 110,286C108.35,284.35 106.7,282.7 105,281C105.33,279.68 105.66,278.36 106,277ZM527,285C528.65,285.33 530.3,285.66 532,286C532.33,286.99 532.66,287.98 533,289L533,303C531.35,303.33 529.7,303.66 528,304C527.34,303.01 526.68,302.02 526,301C525.67,299.35 525.34,297.7 525,296L525,288C525.66,287.01 526.32,286.02 527,285ZM882,340L977,340C997.295,340.495 997.295,340.495 1018,341C1034.335,341.99 1034.335,341.99 1051,343C1055.62,343.66 1060.24,344.32 1065,345C1067.475,346.98 1067.475,346.98 1070,349C1070.66,350.32 1071.32,351.64 1072,353C1072.66,359.93 1073.32,366.86 1074,374L1074,400C1072.515,406.435 1072.515,406.435 1071,413C1068.69,414.98 1066.38,416.96 1064,419C1061.03,419.99 1061.03,419.99 1058,421C1049.585,421.495 1049.585,421.495 1041,422C986.55,423.32 932.1,424.64 876,426C858.84,426.33 841.68,426.66 824,427C769.055,427.495 769.055,427.495 713,428L617,428C564.53,427.67 512.06,427.34 458,427C420.05,426.67 382.1,426.34 343,426L290,426C269.54,426.33 249.08,426.66 228,427C196.98,427.33 165.96,427.66 134,428L104,428C96.41,427.67 88.82,427.34 81,427C73.74,426.01 66.48,425.02 59,424C57.02,423.01 55.04,422.02 53,421C51.68,419.68 50.36,418.36 49,417C48.01,411.72 47.02,406.44 46,401L46,381C46.99,370.605 46.99,370.605 48,360C49.485,356.535 49.485,356.535 51,353C52.98,351.35 54.96,349.7 57,348C63.93,347.01 63.93,347.01 71,346C91.79,345.01 91.79,345.01 113,344C125.21,343.67 137.42,343.34 150,343C178.71,342.505 178.71,342.505 208,342L728,342C757.7,341.67 787.4,341.34 818,341C839.12,340.67 860.24,340.34 882,340ZM886,352C824.95,352.66 763.9,353.32 701,354L500,354C455.78,353.67 411.56,353.34 366,353L229,353C187.42,353.495 187.42,353.495 145,354C116.785,354.495 116.785,354.495 88,355C78.1,355.33 68.2,355.66 58,356C57.67,356.33 57.34,356.66 57,357L57,398C57.66,403.28 58.32,408.56 59,414C59.33,414.33 59.66,414.66 60,415C70.23,415.33 80.46,415.66 91,416L154,416C175.78,415.67 197.56,415.34 220,415L453,415C497.55,415.33 542.1,415.66 588,416L723,416C773.49,415.505 773.49,415.505 825,415C888.69,413.68 952.38,412.36 1018,411C1029.88,410.67 1041.76,410.34 1054,410C1056.31,409.34 1058.62,408.68 1061,408C1061.33,407.01 1061.66,406.02 1062,405C1062.33,401.37 1062.66,397.74 1063,394C1062.67,383.44 1062.34,372.88 1062,362C1061.67,360.35 1061.34,358.7 1061,357C1058.69,356.34 1056.38,355.68 1054,355C1044.43,354.34 1034.86,353.68 1025,353C1004.705,352.505 1004.705,352.505 984,352L886,352ZM91,364C96.94,364.99 96.94,364.99 103,366C105.475,368.97 105.475,368.97 108,372C108.495,373.98 108.495,373.98 109,376C110.98,376.33 112.96,376.66 115,377C116.98,378.32 118.96,379.64 121,381C121.66,382.32 122.32,383.64 123,385L123,392C121.02,394.97 121.02,394.97 119,398C117.68,398.66 116.36,399.32 115,400L105,400L105,395C107.97,394.01 110.94,393.02 114,392C114.33,389.69 114.66,387.38 115,385C111.7,384.67 108.4,384.34 105,384C104.01,382.68 103.02,381.36 102,380C101.34,377.69 100.68,375.38 100,373C97.69,372.67 95.38,372.34 93,372C91.35,372.33 89.7,372.66 88,373C87.34,375.97 86.68,378.94 86,382C84.68,382.99 83.36,383.98 82,385L79,385L79,392C83.455,393.98 83.455,393.98 88,396L88,401L81,401C79.02,400.01 77.04,399.02 75,398C73.68,396.35 72.36,394.7 71,393L71,385C72.32,383.02 73.64,381.04 75,379L80,379C80.33,376.36 80.66,373.72 81,371C82.65,369.35 84.3,367.7 86,366C87.65,365.34 89.3,364.68 91,364ZM499,367L510,367C511.98,368.32 513.96,369.64 516,371C516.66,372.32 517.32,373.64 518,375L518,381C519.32,381.66 520.64,382.32 522,383C522.66,385.64 523.32,388.28 524,391L524,395L526,395C526.33,391.37 526.66,387.74 527,384C527.33,383.34 527.66,382.68 528,382L533,382C533.495,382.99 533.495,382.99 534,384C534.495,377.565 534.495,377.565 535,371C535.33,370.67 535.66,370.34 536,370L541,370L541,380L550,380C552.475,381.98 552.475,381.98 555,384C555.495,385.485 555.495,385.485 556,387L556,395C554.68,396.65 553.36,398.3 552,400C550.68,400.66 549.36,401.32 548,402L540,402C538.68,400.68 537.36,399.36 536,398L536,391L534,391C533.67,393.31 533.34,395.62 533,398C531.35,399.32 529.7,400.64 528,402L522,402C520.35,400.68 518.7,399.36 517,398C516.01,394.37 515.02,390.74 514,387C510.04,387.99 506.08,388.98 502,390L502,402C499.525,402.495 499.525,402.495 497,403C496.34,402.01 495.68,401.02 495,400C494.67,397.03 494.34,394.06 494,391L494,371C494.66,370.01 495.32,369.02 496,368C496.99,367.67 497.98,367.34 499,367ZM631,367L638,367C639.65,367.99 641.3,368.98 643,370C643.66,371.32 644.32,372.64 645,374C644.67,375.98 644.34,377.96 644,380C643.67,380.66 643.34,381.32 643,382C644.32,382.66 645.64,383.32 647,384C647.33,384.66 647.66,385.32 648,386C648.66,384.68 649.32,383.36 650,382L655,382C655.66,383.65 656.32,385.3 657,387L657,394L660,394C660.33,390.37 660.66,386.74 661,383C661.33,382.67 661.66,382.34 662,382L667,382C667.495,382.495 667.495,382.495 668,383L668,394C667.01,395.98 666.02,397.96 665,400C663.68,400.66 662.36,401.32 661,402C658.69,401.67 656.38,401.34 654,401C652.68,399.68 651.36,398.36 650,397C649.67,396.34 649.34,395.68 649,395C648.01,396.65 647.02,398.3 646,400C644.35,400.99 642.7,401.98 641,403C636.05,403.495 636.05,403.495 631,404C629.35,403.01 627.7,402.02 626,401C625.67,399.35 625.34,397.7 625,396C624.67,388.41 624.34,380.82 624,373C625.32,371.35 626.64,369.7 628,368C628.99,367.67 629.98,367.34 631,367ZM631,374L631,380C632.32,379.67 633.64,379.34 635,379C635.99,378.34 636.98,377.68 638,377L638,374L631,374ZM632,387L632,397L638,397C639.32,395.68 640.64,394.36 642,393C641.67,391.35 641.34,389.7 641,388C640.34,387.67 639.68,387.34 639,387L632,387ZM701,367L706,367C706.66,367.99 707.32,368.98 708,370C708.66,377.59 709.32,385.18 710,393L710,399C709.67,399.33 709.34,399.66 709,400C701.575,400.99 701.575,400.99 694,402C692.35,400.68 690.7,399.36 689,398C687.515,399.485 687.515,399.485 686,401C684.35,400.67 682.7,400.34 681,400C680.34,398.02 679.68,396.04 679,394C678.67,390.7 678.34,387.4 678,384L678,372C678.66,370.68 679.32,369.36 680,368C681.65,368.33 683.3,368.66 685,369C685.33,369.66 685.66,370.32 686,371C686.66,376.61 687.32,382.22 688,388C689.32,386.02 690.64,384.04 692,382C692.66,381.67 693.32,381.34 694,381L701,381L701,367ZM697,387C696.67,387.66 696.34,388.32 696,389L696,395C697.32,394.67 698.64,394.34 700,394C700.33,391.69 700.66,389.38 701,387L697,387ZM558,369C559.65,369.33 561.3,369.66 563,370C563.33,370.99 563.66,371.98 564,373C564.33,376.96 564.66,380.92 565,385L565,400C564.67,400.33 564.34,400.66 564,401L559,401C558.34,399.35 557.68,397.7 557,396C556.67,393.03 556.34,390.06 556,387L556,371C556.66,370.34 557.32,369.68 558,369ZM593,370C595.475,370.495 595.475,370.495 598,371C598.66,373.31 599.32,375.62 600,378L600,382L608,382C609.32,383.65 610.64,385.3 612,387C612.495,387.99 612.495,387.99 613,389L613,400C611.35,400.33 609.7,400.66 608,401C607.01,399.35 606.02,397.7 605,396C604.34,394.68 603.68,393.36 603,392C602.01,394.64 601.02,397.28 600,400C598.35,400.33 596.7,400.66 595,401C594.01,400.34 593.02,399.68 592,399C591.01,399.99 590.02,400.98 589,402C587.515,402.495 587.515,402.495 586,403L579,403C578.01,402.01 577.02,401.02 576,400C576.33,398.35 576.66,396.7 577,395C579.64,395.33 582.28,395.66 585,396L585,393C583.02,392.67 581.04,392.34 579,392C578.01,391.34 577.02,390.68 576,390L576,383C577.32,381.68 578.64,380.36 580,379L588,379C588.66,379.66 589.32,380.32 590,381C589.67,382.32 589.34,383.64 589,385C588.01,385.495 588.01,385.495 587,386C588.32,387.32 589.64,388.64 591,390C591.33,383.73 591.66,377.46 592,371C592.33,370.67 592.66,370.34 593,370ZM671,382C672.65,382.33 674.3,382.66 676,383C676.33,383.99 676.66,384.98 677,386L677,400C675.68,400.33 674.36,400.66 673,401C672.01,400.34 671.02,399.68 670,399C669.67,397.35 669.34,395.7 669,394L669,384C669.66,383.34 670.32,382.68 671,382ZM567,383L572,383C572.66,383.99 573.32,384.98 574,386L574,400C572.35,400.33 570.7,400.66 569,401C568.34,400.34 567.68,399.68 567,399C566.67,397.35 566.34,395.7 566,394L566,385C566.33,384.34 566.66,383.68 567,383ZM94,384C95.65,384.33 97.3,384.66 99,385C100.98,386.65 102.96,388.3 105,390L105,395C103.35,395.33 101.7,395.66 100,396L100,405C99.01,405.99 98.02,406.98 97,408C95.68,407.34 94.36,406.68 93,406L93,395L88,395C88.33,392.69 88.66,390.38 89,388C90.65,386.68 92.3,385.36 94,384ZM825,434L916,434C925.57,434.33 935.14,434.66 945,435C951.93,435.495 951.93,435.495 959,436C963.29,437.32 967.58,438.64 972,440C973.32,440.66 974.64,441.32 976,442C977.32,445.63 978.64,449.26 980,453C980.66,458.28 981.32,463.56 982,469C982.33,475.6 982.66,482.2 983,489L983,510C982.34,518.58 981.68,527.16 981,536C979.35,539.3 977.7,542.6 976,546C973.36,547.65 970.72,549.3 968,551C963.71,551.99 959.42,552.98 955,554C951.7,554.33 948.4,554.66 945,555L926,555C910.82,554.67 895.64,554.34 880,554L790,554C744.46,554.66 698.92,555.32 652,556C586.99,557.32 521.98,558.64 455,560C435.2,560.33 415.4,560.66 395,561C343.52,561.495 343.52,561.495 291,562L161,562C132.95,561.67 104.9,561.34 76,561C72.7,560.34 69.4,559.68 66,559C62.7,557.35 59.4,555.7 56,554C54.02,551.03 52.04,548.06 50,545C49.01,542.03 49.01,542.03 48,539C47.67,524.48 47.34,509.96 47,495L47,461C48.32,456.71 49.64,452.42 51,448C52.65,446.35 54.3,444.7 56,443C57.65,442.01 59.3,441.02 61,440C62.32,439.67 63.64,439.34 65,439L78,439C88.23,438.34 98.46,437.68 109,437C118.9,436.67 128.8,436.34 139,436C157.48,435.67 175.96,435.34 195,435L337,435C376.93,435.33 416.86,435.66 458,436L665,436C717.8,435.34 770.6,434.68 825,434ZM850,446C758.92,446.99 758.92,446.99 666,448L477,448C432.78,447.67 388.56,447.34 343,447L71,447C68.36,447.99 65.72,448.98 63,450C61.35,453.3 59.7,456.6 58,460L58,489C58.33,504.51 58.66,520.02 59,536C59.99,538.64 60.98,541.28 62,544C64.31,545.32 66.62,546.64 69,548C70.32,548.33 71.64,548.66 73,549C79.93,549.495 79.93,549.495 87,550L293,550C343.49,549.505 343.49,549.505 395,549C463.97,547.68 532.94,546.36 604,545C637,544.34 670,543.68 704,543C747.065,542.505 747.065,542.505 791,542L954,542C957.63,541.34 961.26,540.68 965,540C966.32,539.01 967.64,538.02 969,537C969.66,528.75 970.32,520.5 971,512L971,486C970.34,476.1 969.68,466.2 969,456C968.34,454.35 967.68,452.7 967,451C963.04,449.515 963.04,449.515 959,448C952.07,447.505 952.07,447.505 945,447C933.12,446.67 921.24,446.34 909,446L850,446ZM1025,435L1045,435C1051.93,435.495 1051.93,435.495 1059,436C1061.31,436.99 1063.62,437.98 1066,439C1067.65,440.65 1069.3,442.3 1071,444C1071.99,446.475 1071.99,446.475 1073,449C1073.99,456.425 1073.99,456.425 1075,464C1075.495,472.91 1075.495,472.91 1076,482L1076,523C1075.01,529.27 1074.02,535.54 1073,542C1072.01,543.65 1071.02,545.3 1070,547C1067.36,548.32 1064.72,549.64 1062,551C1053.09,551.99 1053.09,551.99 1044,553L1024,553C1018.39,552.34 1012.78,551.68 1007,551C1004.69,550.01 1002.38,549.02 1000,548C998.68,546.35 997.36,544.7 996,543C995.01,539.04 994.02,535.08 993,531C992.67,521.76 992.34,512.52 992,503L992,455C992.99,451.7 993.98,448.4 995,445C996.65,443.35 998.3,441.7 1000,440C1002.97,439.01 1005.94,438.02 1009,437C1014.28,436.34 1019.56,435.68 1025,435ZM1011,445C1008.36,445.99 1005.72,446.98 1003,448C1002.34,449.98 1001.68,451.96 1001,454L1001,492C1001.33,503.22 1001.66,514.44 1002,526C1002.66,529.96 1003.32,533.92 1004,538C1004.99,538.99 1005.98,539.98 1007,541C1008.65,541.33 1010.3,541.66 1012,542L1056,542C1059.465,541.01 1059.465,541.01 1063,540C1063.66,536.04 1064.32,532.08 1065,528C1065.33,523.71 1065.66,519.42 1066,515L1066,482C1065.01,467.645 1065.01,467.645 1064,453C1063.34,451.02 1062.68,449.04 1062,447C1056.06,446.01 1056.06,446.01 1050,445L1011,445ZM90,459L99,459C101.64,460.32 104.28,461.64 107,463C108.32,464.65 109.64,466.3 111,468C111.66,469.65 112.32,471.3 113,473L113,482C112.01,484.31 111.02,486.62 110,489C107.69,490.98 105.38,492.96 103,495C101.515,495.495 101.515,495.495 100,496L89,496C87.02,495.01 85.04,494.02 83,493C81.35,491.35 79.7,489.7 78,488C77.34,486.35 76.68,484.7 76,483L76,471C77.98,468.36 79.96,465.72 82,463C84.64,461.68 87.28,460.36 90,459ZM196,459C197.32,459.33 198.64,459.66 200,460C200.66,461.65 201.32,463.3 202,465C202.33,469.29 202.66,473.58 203,478L203,490C201.35,490.33 199.7,490.66 198,491L198,488L196,488L196,491L187,491C186.01,490.34 185.02,489.68 184,489C183.67,489.66 183.34,490.32 183,491L178,491C177.34,489.68 176.68,488.36 176,487C175.67,484.36 175.34,481.72 175,479L175,463C175.33,462.67 175.66,462.34 176,462L181,462C181.66,464.31 182.32,466.62 183,469C183.33,471.97 183.66,474.94 184,478C185.65,476.35 187.3,474.7 189,473L195,473L195,460C195.33,459.67 195.66,459.34 196,459ZM191,478C190.67,480.31 190.34,482.62 190,485L194,485C194.33,482.69 194.66,480.38 195,478L191,478ZM476,459C478.97,459.33 481.94,459.66 485,460C486.65,460.99 488.3,461.98 490,463C490.66,462.01 491.32,461.02 492,460C493.32,460.33 494.64,460.66 496,461C497.65,463.64 499.3,466.28 501,469C501.99,468.01 502.98,467.02 504,466C504.99,464.02 505.98,462.04 507,460C508.32,459.67 509.64,459.34 511,459C511.99,460.32 512.98,461.64 514,463C514.99,468.94 515.98,474.88 517,481L517,486C516.505,486.495 516.505,486.495 516,487L510,487C509.01,483.37 508.02,479.74 507,476C506.01,477.32 505.02,478.64 504,480C502.35,479.67 500.7,479.34 499,479C498.34,478.34 497.68,477.68 497,477C496.34,480.3 495.68,483.6 495,487C493.68,487.33 492.36,487.66 491,488C490.34,487.01 489.68,486.02 489,485C488.505,480.05 488.505,480.05 488,475C486.02,475.99 484.04,476.98 482,478L478,478C478.33,480.64 478.66,483.28 479,486C478.34,486.99 477.68,487.98 477,489L473,489C472.34,486.36 471.68,483.72 471,481L471,462C472.65,461.01 474.3,460.02 476,459ZM477,465L477,472C478.65,471.67 480.3,471.34 482,471C482.33,469.35 482.66,467.7 483,466C482.67,465.67 482.34,465.34 482,465L477,465ZM234,460L239,460L239,467C236.69,475.25 234.38,483.5 232,492C231.67,492.66 231.34,493.32 231,494L226,494C225.67,492.35 225.34,490.7 225,489C226.32,483.39 227.64,477.78 229,472C230.32,468.37 231.64,464.74 233,461C233.33,460.67 233.66,460.34 234,460ZM266,460L271,460C270.67,463.3 270.34,466.6 270,470C268.02,476.6 266.04,483.2 264,490C263.34,491.32 262.68,492.64 262,494C260.35,493.67 258.7,493.34 257,493L257,485C259.31,477.74 261.62,470.48 264,463C264.66,462.01 265.32,461.02 266,460ZM130,461L140,461C141.65,462.65 143.3,464.3 145,466C144.34,468.97 143.68,471.94 143,475C144.65,475.66 146.3,476.32 148,477C148.66,476.01 149.32,475.02 150,474C152.475,474.495 152.475,474.495 155,475C155.33,478.3 155.66,481.6 156,485C156.66,484.67 157.32,484.34 158,484C158.33,481.03 158.66,478.06 159,475C159.33,474.67 159.66,474.34 160,474L165,474C165.495,474.99 165.495,474.99 166,476L166,485C165.01,486.65 164.02,488.3 163,490C161.02,490.99 161.02,490.99 159,492C157.02,491.67 155.04,491.34 153,491C151.68,489.35 150.36,487.7 149,486C148.01,487.65 147.02,489.3 146,491C145.01,491.66 144.02,492.32 143,493L130,493C129.34,492.34 128.68,491.68 128,491C127.67,488.69 127.34,486.38 127,484L127,464C127.99,463.01 128.98,462.02 130,461ZM133,466L133,472C134.65,471.67 136.3,471.34 138,471L138,466L133,466ZM134,478C133.67,478.33 133.34,478.66 133,479L133,487C135.475,487.495 135.475,487.495 138,488C139.65,487.01 141.3,486.02 143,485L143,480C140.525,479.01 140.525,479.01 138,478L134,478ZM410,461L414,461C413.67,463.31 413.34,465.62 413,468C411.02,470.97 411.02,470.97 409,474L418,474C419.32,475.65 420.64,477.3 422,479C421.67,480.98 421.34,482.96 421,485C419.68,486.32 418.36,487.64 417,489C416.34,489.33 415.68,489.66 415,490L409,490C407.35,489.01 405.7,488.02 404,487C403.34,486.01 402.68,485.02 402,484C401.34,485.32 400.68,486.64 400,488L395,488C394.34,486.02 393.68,484.04 393,482L393,463C394.65,462.67 396.3,462.34 398,462C398.66,463.32 399.32,464.64 400,466C400.33,469.63 400.66,473.26 401,477C401.66,474.03 402.32,471.06 403,468C404.65,466.02 406.3,464.04 408,462C408.66,461.67 409.32,461.34 410,461ZM412,479C411.67,480.32 411.34,481.64 411,483L416,483L416,479L412,479ZM446,461L457,461C458.32,461.99 459.64,462.98 461,464C460.67,465.98 460.34,467.96 460,470C459.01,471.485 459.01,471.485 458,473C458.33,474.65 459.66,481.3 460,483C459.01,485.475 459.01,485.475 458,488C457.34,488.66 456.68,489.32 456,490L449,490C447.68,488.68 446.36,487.36 445,486L445,474C444.34,473.34 443.68,472.68 443,472L443,464C443.99,463.01 444.98,462.02 446,461ZM449,467L449,470L453,470L453,467L449,467ZM451,480L451,484L453,484L453,480L451,480ZM333,462L338,462L338,467C336.68,468.65 335.36,470.3 334,472C333.67,472.99 333.34,473.98 333,475C335.64,474.67 338.28,474.34 341,474C342.32,475.32 343.64,476.64 345,478L345,486C343.68,487.32 342.36,488.64 341,490L332,490C330.35,488.68 328.7,487.36 327,486C326.34,484.35 325.68,482.7 325,481C325.495,476.545 325.495,476.545 326,472C327.32,469.69 328.64,467.38 330,465C330.99,464.01 331.98,463.02 333,462ZM336,480C335.01,481.485 335.01,481.485 334,483C336.475,483.495 336.475,483.495 339,484C339.33,482.68 339.66,481.36 340,480L336,480ZM364,462L378,462L378,467C374.7,467.33 371.4,467.66 368,468L368,471C370.97,471.33 373.94,471.66 377,472C377.99,472.66 378.98,473.32 380,474C380.33,476.97 380.66,479.94 381,483C379.35,484.98 377.7,486.96 376,489C375.01,489.33 374.02,489.66 373,490L366,490C365.34,489.34 364.68,488.68 364,488L364,483L373,483C373.33,481.35 373.66,479.7 374,478L364,478C363.34,477.34 362.68,476.68 362,476L362,464C362.66,463.34 363.32,462.68 364,462ZM435,462L439,462C439.66,464.64 440.32,467.28 441,470L441,487C440.34,487.66 439.68,488.32 439,489C437.68,488.67 436.36,488.34 435,488C434.67,487.34 434.34,486.68 434,486C433.67,482.7 433.34,479.4 433,476L433,465C433.66,464.01 434.32,463.02 435,462ZM243,463L255,463C255.99,463.99 256.98,464.98 258,466C257.34,469.96 256.68,473.92 256,478C254.35,481.96 252.7,485.92 251,490C249.68,490.33 248.36,490.66 247,491C246.67,490.67 246.34,490.34 246,490L246,481C247.32,477.04 248.64,473.08 250,469L240,469C240.33,467.35 240.66,465.7 241,464C241.66,463.67 242.32,463.34 243,463ZM277,463L283,463C284.32,464.32 285.64,465.64 287,467L287,474C285.68,476.64 284.36,479.28 283,482C284.98,482.99 286.96,483.98 289,485C288.67,486.65 288.34,488.3 288,490C287.34,490.33 286.68,490.66 286,491L274,491C273.01,490.34 272.02,489.68 271,489L271,484C273.64,480.7 276.28,477.4 279,474C279.33,472.68 279.66,471.36 280,470C277.36,470.33 274.72,470.66 272,471C272.33,469.35 272.66,467.7 273,466C274.32,465.01 275.64,464.02 277,463ZM312,463L320,463C320.99,463.66 321.98,464.32 323,465L323,475C321.35,477.97 319.7,480.94 318,484L326,484C325.67,485.65 325.34,487.3 325,489C324.34,489.33 323.68,489.66 323,490L309,490C308.34,489.34 307.68,488.68 307,488C307.33,486.35 307.66,484.7 308,483C310.31,480.03 312.62,477.06 315,474C315.66,472.35 316.32,470.7 317,469C316.01,469.495 316.01,469.495 315,470L308,470C308.33,468.35 308.66,466.7 309,465C309.99,464.34 310.98,463.68 312,463ZM217,464L222,464C222.33,464.66 222.66,465.32 223,466C223.33,468.97 223.66,471.94 224,475L224,487C223.67,487.99 223.34,488.98 223,490L218,490C217.34,487.69 216.68,485.38 216,483L216,466C216.33,465.34 216.66,464.68 217,464ZM293,465L302,465C303.65,466.32 305.3,467.64 307,469C307.33,469.99 307.66,470.98 308,472L308,482C307.01,483.65 306.02,485.3 305,487C302.525,488.485 302.525,488.485 300,490C297.69,489.67 295.38,489.34 293,489C291.35,487.02 289.7,485.04 288,483C287.67,480.36 287.34,477.72 287,475C287.99,472.69 288.98,470.38 290,468C290.99,467.01 291.98,466.02 293,465ZM296,470C295.01,471.65 294.02,473.3 293,475C293.33,477.31 293.66,479.62 294,482C296.97,482.495 296.97,482.495 300,483C300.66,482.34 301.32,481.68 302,481L302,473C301.67,472.34 301.34,471.68 301,471C299.35,470.67 297.7,470.34 296,470ZM384,465L390,465C390.33,465.33 390.66,465.66 391,466C390.67,468.31 390.34,470.62 390,473L383,473L383,466C383.33,465.67 383.66,465.34 384,465ZM166,467L172,467L172,472C171.67,472.33 171.34,472.66 171,473L166,473L166,467ZM168,474C169.65,474.33 171.3,474.66 173,475C173.33,475.99 173.66,476.98 174,478L174,490C172.35,490.33 170.7,490.66 169,491C168.34,490.01 167.68,489.02 167,488L167,475C167.33,474.67 167.66,474.34 168,474ZM384,479L389,479C389.66,479.66 390.32,480.32 391,481L391,487C390.67,487.33 390.34,487.66 390,488L384,488C383.67,487.67 383.34,487.34 383,487L383,480C383.33,479.67 383.66,479.34 384,479ZM348,483C349.65,483.33 351.3,483.66 353,484C353.33,485.32 353.66,486.64 354,488C353.01,490.31 352.02,492.62 351,495C349.35,494.67 347.7,494.34 346,494C346.33,490.7 346.66,487.4 347,484C347.33,483.67 347.66,483.34 348,483ZM941,483C943.475,483.495 943.475,483.495 946,484C946.33,485.32 946.66,486.64 947,488C945.02,490.97 945.02,490.97 943,494C940.69,496.64 938.38,499.28 936,502C935.34,502.33 934.68,502.66 934,503L928,503C925.69,501.02 923.38,499.04 921,497C919.35,494.69 917.7,492.38 916,490L916,484L921,484C923.31,486.31 925.62,488.62 928,491L933,491C934.98,488.69 936.96,486.38 939,484C939.66,483.67 940.32,483.34 941,483ZM1016,488L1021,488C1021.66,488.66 1022.32,489.32 1023,490L1023,497C1022.34,497.66 1021.68,498.32 1021,499C1019.35,498.67 1017.7,498.34 1016,498C1015.34,497.34 1014.68,496.68 1014,496L1014,490C1014.66,489.34 1015.32,488.68 1016,488ZM1031,488L1036,488C1036.66,488.66 1037.32,489.32 1038,490L1038,497C1037.34,497.66 1036.68,498.32 1036,499C1033.03,498.505 1033.03,498.505 1030,498C1029.67,497.67 1029.34,497.34 1029,497L1029,490C1029.66,489.34 1030.32,488.68 1031,488ZM1046,488L1051,488C1051.66,488.66 1052.32,489.32 1053,490L1053,497C1052.67,497.33 1052.34,497.66 1052,498L1044,498C1043.67,495.69 1043.34,493.38 1043,491C1043.99,490.01 1044.98,489.02 1046,488ZM166,506L172,506C173.32,507.32 174.64,508.64 176,510L176,514L171,514L171,512L169,512C168.67,514.97 168.34,517.94 168,521L175,521L175,525L168,525C168.33,525.66 168.66,526.32 169,527L169,536C167.35,535.67 165.7,535.34 164,535C163.67,532.03 163.34,529.06 163,526L159,526L159,522L162,522L162,512C162.99,510.35 163.98,508.7 165,507C165.33,506.67 165.66,506.34 166,506ZM80,507L91,507C91.99,507.66 92.98,508.32 94,509L94,513C95.32,512.67 96.64,512.34 98,512L110,512C110.99,512.66 111.98,513.32 113,514C113.495,515.485 113.495,515.485 114,517L114,532C113.01,533.65 112.02,535.3 111,537C110.505,537.495 110.505,537.495 110,538C107.69,538.33 105.38,538.66 103,539L83,539C80.525,538.01 80.525,538.01 78,537C77.34,536.01 76.68,535.02 76,534L76,511C77.32,509.68 78.64,508.36 80,507ZM81,513C80.67,513.99 80.34,514.98 80,516L80,528C80.66,529.32 81.32,530.64 82,532C83.32,532.33 84.64,532.66 86,533L98,533C100.97,532.67 103.94,532.34 107,532C107.33,531.67 107.66,531.34 108,531C108.33,527.7 108.66,524.4 109,521C108.67,520.01 108.34,519.02 108,518C105.36,517.67 102.72,517.34 100,517L93,517C91.68,515.68 90.36,514.36 89,513L81,513ZM136,508L142,508C143.32,508.99 144.64,509.98 146,511C146.33,513.64 146.66,516.28 147,519C145.35,522.3 143.7,525.6 142,529C144.31,529.33 146.62,529.66 149,530C149.33,531.65 149.66,533.3 150,535C149.34,535.66 148.68,536.32 148,537L131,537C130.67,535.35 130.34,533.7 130,532C131.32,530.02 132.64,528.04 134,526C135.32,524.35 136.64,522.7 138,521C138.66,519.02 139.32,517.04 140,515C138.35,515.66 136.7,516.32 135,517L131,517C131.33,514.69 131.66,512.38 132,510C133.32,509.34 134.64,508.68 136,508ZM281,509L286,509C286.99,509.99 287.98,510.98 289,512C289.66,513.98 290.32,515.96 291,518L291,522L293,522C293.66,519.69 294.32,517.38 295,515C295.66,514.34 296.32,513.68 297,513L302,513C302.99,513.99 303.98,514.98 305,516C305.33,517.98 305.66,519.96 306,522C307.65,520.35 309.3,518.7 311,517C311.99,516.34 312.98,515.68 314,515C315.32,515.33 316.64,515.66 318,516C318.99,516.99 319.98,517.98 321,519C322.65,518.67 324.3,518.34 326,518C326.99,517.67 327.98,517.34 329,517L336,517C339.96,518.65 343.92,520.3 348,522L355,522C358.3,521.01 361.6,520.02 365,519L411,519C412.65,519.66 414.3,520.32 416,521L416,526C414.68,526.66 413.36,527.32 412,528C406.72,528.33 401.44,528.66 396,529L379,529C377.35,528.67 375.7,528.34 374,528L366,528C361.05,529.485 361.05,529.485 356,531L347,531C342.38,529.35 337.76,527.7 333,526C331.35,526.33 329.7,526.66 328,527C327.01,527.66 326.02,528.32 325,529L319,529C317.68,528.01 316.36,527.02 315,526C313.35,527.98 311.7,529.96 310,532L304,532C303.01,530.68 302.02,529.36 301,528C300.67,527.01 300.34,526.02 300,525C299.34,524.67 298.68,524.34 298,524C297.67,526.64 297.34,529.28 297,532C295.68,533.32 294.36,534.64 293,536C291.68,535.67 290.36,535.34 289,535C288.01,533.35 287.02,531.7 286,530C285.34,528.02 284.68,526.04 284,524L284,517L282,517C281.67,519.64 281.34,522.28 281,525C280.01,527.64 279.02,530.28 278,533L274,533L274,524C275.32,520.04 276.64,516.08 278,512C278.99,511.01 279.98,510.02 281,509ZM177,514L183,514L183,519C182.67,519.33 182.34,519.66 182,520L177,520L177,514ZM185,508L190,508C190.99,512.29 191.98,516.58 193,521C193.99,519.35 194.98,517.7 196,516C200.455,515.505 200.455,515.505 205,515C205.99,515.66 206.98,516.32 208,517L208,524C206.68,525.32 205.36,526.64 204,528C203.34,528.33 202.68,528.66 202,529C204.31,529.66 206.62,530.32 209,531C208.67,532.65 208.34,534.3 208,536C207.34,536.33 206.68,536.66 206,537L200,537C198.02,535.68 196.04,534.36 194,533C193.01,533.99 192.02,534.98 191,536C189.68,535.67 188.36,535.34 187,535C186.34,533.35 185.68,531.7 185,530C184.67,523.4 184.34,516.8 184,510C184.33,509.34 184.66,508.68 185,508ZM201,520L201,522L203,522L203,520L201,520ZM214,515L219,515C219.66,515.66 220.32,516.32 221,517L221,520L215,520L215,522C216.65,522.33 218.3,522.66 220,523C221.32,523.99 222.64,524.98 224,526L224,533C223.01,533.99 222.02,534.98 221,536C220.34,536.33 219.68,536.66 219,537L213,537C212.01,536.34 211.02,535.68 210,535C210.33,533.35 210.66,531.7 211,530L217,530L217,528C214.69,527.34 212.38,526.68 210,526L210,518C210.33,517.34 210.66,516.68 211,516C211.99,515.67 212.98,515.34 214,515ZM177,521L182,521C182.33,521.66 182.66,522.32 183,523L183,534L178,534C177.34,531.36 176.68,528.72 176,526C176.33,524.35 176.66,522.7 177,521ZM455,601C457.475,601.495 457.475,601.495 460,602C460.66,603.65 461.32,605.3 462,607C462.66,613.6 463.32,620.2 464,627C464.495,628.485 464.495,628.485 465,630C465.495,629.505 465.495,629.505 466,629C468.64,629.33 471.28,629.66 474,630L474,627C472.02,626.67 470.04,626.34 468,626C466.68,624.68 465.36,623.36 464,622C464.33,619.69 464.66,617.38 465,615C465.99,614.34 466.98,613.68 468,613L477,613C477.495,615.475 477.495,615.475 478,618C476.68,618.33 475.36,618.66 474,619C476.31,620.98 478.62,622.96 481,625C481.495,628.465 481.495,628.465 482,632C480.68,633.32 479.36,634.64 478,636C477.01,636.495 477.01,636.495 476,637L467,637C465.68,636.34 464.36,635.68 463,635C460.525,635.495 460.525,635.495 458,636L447,636C445.35,635.01 443.7,634.02 442,633C441.34,633.99 440.68,634.98 440,636L435,636C434.34,633.36 433.68,630.72 433,628C432.67,620.74 432.34,613.48 432,606C432.66,605.01 433.32,604.02 434,603C435.65,603.33 437.3,603.66 439,604C439.66,607.3 440.32,610.6 441,614C441.33,616.97 441.66,619.94 442,623C442.99,621.35 443.98,619.7 445,618C445.66,617.34 446.32,616.68 447,616L455,616C454.67,615.01 454.34,614.02 454,613L454,602C454.33,601.67 454.66,601.34 455,601ZM451,621C450.01,622.485 450.01,622.485 449,624L449,629L453,629C453.33,628.34 453.66,627.68 454,627L454,621L451,621ZM384,603L394,603C395.65,604.65 397.3,606.3 399,608L399,618C399.99,618.99 400.98,619.98 402,621C402.99,619.68 403.98,618.36 405,617C407.475,617.495 407.475,617.495 410,618C411.485,622.95 411.485,622.95 413,628C413.495,627.505 413.495,627.505 414,627C414.33,624.03 414.66,621.06 415,618C415.33,617.67 415.66,617.34 416,617L421,617C421.495,617.99 421.495,617.99 422,619L422,629C420.68,631.31 419.36,633.62 418,636C417.01,636.495 417.01,636.495 416,637L410,637C408.35,635.68 406.7,634.36 405,633C404.67,632.34 404.34,631.68 404,631C400.04,634.465 400.04,634.465 396,638C394.515,638.495 394.515,638.495 393,639L385,639C383.35,637.68 381.7,636.36 380,635C379.67,630.38 379.34,625.76 379,621L379,607C380.65,605.68 382.3,604.36 384,603ZM386,609L386,615C387.65,614.67 389.3,614.34 391,614C391.33,612.35 391.66,610.7 392,609L386,609ZM386,622L386,632L393,632C394.32,631.01 395.64,630.02 397,629C396.67,627.35 396.34,625.7 396,624C394.68,623.34 393.36,622.68 392,622L386,622ZM1011,604C1012.32,604.33 1013.64,604.66 1015,605C1015.33,605.33 1015.66,605.66 1016,606L1016,613C1018.97,613.495 1018.97,613.495 1022,614C1022.66,613.34 1023.32,612.68 1024,612L1031,612L1031,616C1030.34,616.33 1029.68,616.66 1029,617C1031.475,618.98 1031.475,618.98 1034,621C1034.495,624.465 1034.495,624.465 1035,628C1034.34,628.99 1033.68,629.98 1033,631C1032.01,631.33 1031.02,631.66 1030,632L1023,632C1022.34,631.67 1021.68,631.34 1021,631C1021.33,629.35 1021.66,627.7 1022,626C1022.99,625.34 1023.98,624.68 1025,624C1023.68,622.68 1022.36,621.36 1021,620L1021,618L1016,618C1016.33,618.99 1016.66,619.98 1017,621L1017,631C1015.35,630.67 1013.7,630.34 1012,630C1011.34,628.68 1010.68,627.36 1010,626C1010.33,623.36 1010.66,620.72 1011,618C1009.68,618.33 1008.36,618.66 1007,619C1007.33,622.3 1007.66,625.6 1008,629C1006.35,629.33 1004.7,629.66 1003,630C1002.01,627.03 1001.02,624.06 1000,621C998.68,624.3 997.36,627.6 996,631C994.35,630.67 992.7,630.34 991,630L991,616C992.98,615.34 994.96,614.68 997,614L1003,614C1003.66,614.66 1004.32,615.32 1005,616C1005.33,615.01 1005.66,614.02 1006,613L1010,613L1010,605C1010.33,604.67 1010.66,604.34 1011,604ZM139,606L156,606C156.33,607.65 156.66,609.3 157,611C156.01,611.66 155.02,612.32 154,613L142,613C141.67,615.64 141.34,618.28 141,621C146.94,620.505 146.94,620.505 153,620C153.33,621.65 153.66,623.3 154,625C153.67,625.33 153.34,625.66 153,626C149.37,626.33 145.74,626.66 142,627L142,641L137,641C136.34,640.01 135.68,639.02 135,638C134.67,633.38 134.34,628.76 134,624L134,609C135.65,608.01 137.3,607.02 139,606ZM602,606L609,606C612.465,607.98 612.465,607.98 616,610C617.65,611.65 619.3,613.3 621,615C621.66,616.65 622.32,618.3 623,620C624.32,618.68 625.64,617.36 627,616C628.65,615.67 630.3,615.34 632,615C634.475,615.99 634.475,615.99 637,617C637.495,619.97 637.495,619.97 638,623C636.68,624.65 635.36,626.3 634,628L630,628L630,630L637,630C637.495,632.475 637.495,632.475 638,635C637.01,635.66 636.02,636.32 635,637L629,637C627.02,635.35 625.04,633.7 623,632C622.34,631.01 621.68,630.02 621,629C618.03,631.64 615.06,634.28 612,637L603,637C602.34,636.34 601.68,635.68 601,635C600.67,631.04 600.34,627.08 600,623L600,608C600.66,607.34 601.32,606.68 602,606ZM605,612C605.33,616.95 605.66,621.9 606,627C606.33,627.99 606.66,628.98 607,630C608.98,629.67 610.96,629.34 613,629C613.99,627.68 614.98,626.36 616,625L616,618C613.69,616.02 611.38,614.04 609,612L605,612ZM630,620L630,622L632,622L632,620L630,620ZM858,605L868,605C869.65,605.99 871.3,606.98 873,608C874.65,609.98 876.3,611.96 878,614C878.99,615.485 878.99,615.485 880,617C881.65,615.68 883.3,614.36 885,613L891,613C891.66,613.33 892.32,613.66 893,614L893,622C891.68,623.32 890.36,624.64 889,626C891.475,626.99 891.475,626.99 894,628L894,618C895.32,616.68 896.64,615.36 898,614L906,614C907.32,614.99 908.64,615.98 910,617C910.33,613.7 910.66,610.4 911,607C911.33,606.67 911.66,606.34 912,606L917,606C917.66,610.62 918.32,615.24 919,620C919.66,618.68 920.32,617.36 921,616C921.66,615.67 922.32,615.34 923,615L930,615C931.32,615.99 932.64,616.98 934,618C934.33,617.34 934.66,616.68 935,616C936.32,616.33 937.64,616.66 939,617C939.99,618.32 940.98,619.64 942,621L942,624L944,624C944.33,621.69 944.66,619.38 945,617C947.31,616.34 949.62,615.68 952,615L972,615C972.99,615.99 973.98,616.98 975,618C976.32,616.35 977.64,614.7 979,613C979.66,612.67 980.32,612.34 981,612L987,612C987.99,612.99 988.98,613.98 990,615L990,620C988.02,621.65 986.04,623.3 984,625C985.98,625.66 987.96,626.32 990,627C989.67,628.65 989.34,630.3 989,632C986.69,632.33 984.38,632.66 982,633C980.35,632.01 978.7,631.02 977,630C976.505,629.01 976.505,629.01 976,628C975.67,628.66 975.34,629.32 975,630L970,630C969.01,627.03 969.01,627.03 968,624C967.01,625.98 966.02,627.96 965,630L961,630C960.505,629.01 960.505,629.01 960,628L960,620L958,620L958,629C957.67,629.66 957.34,630.32 957,631C955.35,630.67 953.7,630.34 952,630C951.01,627.525 951.01,627.525 950,625C948.02,630.28 946.04,635.56 944,641C943.01,641.99 943.01,641.99 942,643C940.35,642.67 938.7,642.34 937,642C937.33,637.05 937.66,632.1 938,627C937.01,626.01 937.01,626.01 936,625C934.68,626.98 933.36,628.96 932,631C931.34,631.33 930.68,631.66 930,632L923,632C921.68,631.34 920.36,630.68 919,630C918.505,630.495 918.505,630.495 918,631L913,631C912.34,629.68 911.68,628.36 911,627C909.68,628.32 908.36,629.64 907,631L901,631C901.495,636.445 901.495,636.445 902,642C899.525,642.495 899.525,642.495 897,643C896.34,641.68 895.68,640.36 895,639C894.505,636.03 894.505,636.03 894,633C893.01,633.495 893.01,633.495 892,634L885,634C883.35,632.68 881.7,631.36 880,630C879.34,628.68 878.68,627.36 878,626C875.36,628.31 872.72,630.62 870,633C869.34,633.33 868.68,633.66 868,634L861,634C860.34,633.34 859.68,632.68 859,632C858.34,626.06 857.68,620.12 857,614L857,606C857.33,605.67 857.66,605.34 858,605ZM863,610C863.33,615.61 863.66,621.22 864,627C865.98,626.67 867.96,626.34 870,626C870.99,625.01 871.98,624.02 873,623L873,616C871.68,614.35 870.36,612.7 869,611C866.03,610.505 866.03,610.505 863,610ZM983,617L983,619L985,619L985,617L983,617ZM886,618L886,620L889,620L889,618L886,618ZM925,620L925,626C926.32,625.67 927.64,625.34 929,625C928.67,623.35 928.34,621.7 928,620L925,620ZM714,607L719,607C719.495,611.455 719.495,611.455 720,616C722.475,616.495 722.475,616.495 725,617L725,621L720,621C720.495,627.435 720.495,627.435 721,634L716,634C715.34,633.01 714.68,632.02 714,631L714,622L710,622C710.66,623.65 711.32,625.3 712,627L712,634L704,634C701.69,634.33 699.38,634.66 697,635C696.01,634.34 695.02,633.68 694,633C693.67,633.33 693.34,633.66 693,634L688,634C687.34,632.02 686.68,630.04 686,628L686,624L684,624C683.34,627.3 682.68,630.6 682,634C680.35,634.33 678.7,634.66 677,635C676.67,634.67 676.34,634.34 676,634L676,619C676.33,618.67 676.66,618.34 677,618L689,618C689.99,618.99 690.98,619.98 692,621C692.33,621.99 692.66,622.98 693,624C694.32,622.02 695.64,620.04 697,618C697.66,617.67 698.32,617.34 699,617L705,617C705.99,617.66 706.98,618.32 708,619C708.33,618.34 708.66,617.68 709,617L714,617L714,607ZM701,622C700.34,622.66 699.68,623.32 699,624L699,628L702,628L702,622L701,622ZM656,608L661,608L661,618L667,618L667,622L662,622C662.33,625.96 662.66,629.92 663,634C661.35,634.33 659.7,634.66 658,635C657.67,634.67 657.34,634.34 657,634L657,623L652,623L652,618L656,618L656,608ZM424,609L430,609L430,614C429.67,614.33 429.34,614.66 429,615L424,615L424,609ZM167,606C168.65,606.33 170.3,606.66 172,607C172.66,610.3 173.32,613.6 174,617C174.33,620.63 174.66,624.26 175,628C175.99,625.03 176.98,622.06 178,619C179.32,618.01 180.64,617.02 182,616L190,616C191.32,616.99 192.64,617.98 194,619L194,625C193.01,626.65 192.02,628.3 191,630C188.525,631.485 188.525,631.485 186,633C188.64,633.33 191.28,633.66 194,634L194,639C193.34,639.66 192.68,640.32 192,641L183,641C180.69,639.02 178.38,637.04 176,635C175.01,637.475 175.01,637.475 174,640L168,640C167.34,636.7 166.68,633.4 166,630L166,607C166.33,606.67 166.66,606.34 167,606ZM185,622C184.67,622.66 184.34,623.32 184,624C184.99,623.67 185.98,623.34 187,623C186.34,622.67 185.68,622.34 185,622ZM201,616L207,616C207.66,616.33 208.32,616.66 209,617L209,622C208.01,622.66 207.02,623.32 206,624C208.31,625.98 210.62,627.96 213,630L213,636C211.68,637.32 210.36,638.64 209,640C208.34,640.33 207.68,640.66 207,641L197,641C196.67,639.02 196.34,637.04 196,635C196.33,634.67 196.66,634.34 197,634L204,634L204,631C201.525,630.01 201.525,630.01 199,629C198.01,628.01 197.02,627.02 196,626L196,620C196.66,619.01 197.32,618.02 198,617C198.99,616.67 199.98,616.34 201,616ZM643,616L649,616C649.33,617.65 649.66,619.3 650,621L646,621L646,623C647.65,623.33 649.3,623.66 651,624C651.66,624.66 652.32,625.32 653,626L653,633C651.35,634.32 649.7,635.64 648,637L641,637C640.34,636.34 639.68,635.68 639,635C639.33,633.35 639.66,631.7 640,630C642.31,630.33 644.62,630.66 647,631L647,628C645.35,627.67 643.7,627.34 642,627C641.01,626.34 640.02,625.68 639,625L639,619C640.32,618.01 641.64,617.02 643,616ZM771,615L779,615L779,620C778.01,620.495 778.01,620.495 777,621C778.65,622.32 780.3,623.64 782,625L782,632C781.01,632.99 780.02,633.98 779,635L770,635C769.01,634.34 768.02,633.68 767,633C765.68,633.33 764.36,633.66 763,634C762.34,633.01 761.68,632.02 761,631L761,623L758,623C757.67,625.97 757.34,628.94 757,632C756.67,632.66 756.34,633.32 756,634C754.35,633.67 752.7,633.34 751,633C750.67,632.67 750.34,632.34 750,632L750,619C752.31,618.01 754.62,617.02 757,616C759.31,616.33 761.62,616.66 764,617C764.99,618.65 765.98,620.3 767,622C767.66,624.31 768.32,626.62 769,629L776,629L776,627C774.02,626.34 772.04,625.68 770,625C769.67,624.67 769.34,624.34 769,624L769,617C769.66,616.34 770.32,615.68 771,615ZM425,617C426.65,617.33 428.3,617.66 430,618C430.33,618.66 430.66,619.32 431,620L431,635C429.35,635.33 427.7,635.66 426,636C425.34,635.34 424.68,634.68 424,634C423.67,629.71 423.34,625.42 423,621C423.66,619.68 424.32,618.36 425,617ZM737,617L744,617C745.65,617.99 747.3,618.98 749,620L749,630C747.68,631.32 746.36,632.64 745,634C742.69,634.33 740.38,634.66 738,635C736.35,633.35 734.7,631.7 733,630L733,622C733.66,620.68 734.32,619.36 735,618C735.66,617.67 736.32,617.34 737,617ZM740,622C739.67,623.98 739.34,625.96 739,628L743,628C743.33,626.35 743.66,624.7 744,623C742.68,622.67 741.36,622.34 740,622ZM727,618L731,618C731.33,618.66 731.66,619.32 732,620L732,633C730.68,633.33 729.36,633.66 728,634C727.34,633.34 726.68,632.68 726,632C725.67,628.7 725.34,625.4 725,622C725.66,620.68 726.32,619.36 727,618ZM669,619C670.65,619.33 672.3,619.66 674,620C674.33,621.65 674.66,623.3 675,625L675,633C674.34,633.66 673.68,634.32 673,635C671.68,634.67 670.36,634.34 669,634C668.67,633.34 668.34,632.68 668,632L668,620C668.33,619.67 668.66,619.34 669,619ZM158,621C159.98,621.495 159.98,621.495 162,622C162.66,622.99 163.32,623.98 164,625L164,639C162.35,639.33 160.7,639.66 159,640C158.34,639.01 157.68,638.02 157,637L157,622C157.33,621.67 157.66,621.34 158,621ZM528,649L557,649C557.99,649.66 558.98,650.32 560,651L560,657C557.525,658.485 557.525,658.485 555,660C543.12,660.33 531.24,660.66 519,661C453.99,661.33 388.98,661.66 322,662C316.39,661.67 310.78,661.34 305,661C304.34,660.34 303.68,659.68 303,659L303,654C306.3,653.34 309.6,652.68 313,652C322.24,651.67 331.48,651.34 341,651C356.51,650.67 372.02,650.34 388,650C434.2,649.67 480.4,649.34 528,649ZM1012,695L1017,695C1017.99,695.99 1018.98,696.98 1020,698L1020,703C1019.01,703.99 1018.02,704.98 1017,706L1012,706C1011.01,705.01 1010.02,704.02 1009,703L1009,698C1009.99,697.01 1010.98,696.02 1012,695ZM1027,695L1034,695C1034.66,696.32 1035.32,697.64 1036,699C1035.67,700.65 1035.34,702.3 1035,704C1034.34,704.66 1033.68,705.32 1033,706C1030.69,705.67 1028.38,705.34 1026,705C1025.67,704.67 1025.34,704.34 1025,704L1025,697C1025.66,696.34 1026.32,695.68 1027,695ZM1042,695L1050,695C1050.66,695.66 1051.32,696.32 1052,697L1052,703C1051.01,703.99 1050.02,704.98 1049,706L1043,706C1042.01,705.01 1041.02,704.02 1040,703C1040.33,700.69 1040.66,698.38 1041,696C1041.33,695.67 1041.66,695.34 1042,695ZM124,720L133,720C136.465,721.485 136.465,721.485 140,723C141.98,725.31 143.96,727.62 146,730C146.495,731.485 146.495,731.485 147,733L147,744C146.01,745.98 145.02,747.96 144,750C142.02,752.475 142.02,752.475 140,755C137.03,755.99 134.06,756.98 131,758C127.04,757.34 123.08,756.68 119,756C116.69,754.02 114.38,752.04 112,750C111.01,747.36 110.02,744.72 109,742L109,735C110.32,732.36 111.64,729.72 113,727C115.31,725.02 117.62,723.04 120,721C121.32,720.67 122.64,720.34 124,720ZM232,720C234.475,720.495 234.475,720.495 237,721C237.66,723.97 238.32,726.94 239,730C239.495,740.395 239.495,740.395 240,751C239.67,751.33 239.34,751.66 239,752L232,752C231.67,752.33 231.34,752.66 231,753L225,753C223.68,751.68 222.36,750.36 221,749C220.01,750.32 219.02,751.64 218,753C216.68,752.67 215.36,752.34 214,752C213.34,751.01 212.68,750.02 212,749C211.67,745.7 211.34,742.4 211,739L211,724C211.33,723.34 211.66,722.68 212,722C213.65,722.33 215.3,722.66 217,723C217.66,725.31 218.32,727.62 219,730C219.33,733.3 219.66,736.6 220,740C220.99,738.35 221.98,736.7 223,735C223.99,734.34 224.98,733.68 226,733L232,733L232,720ZM229,739C228.01,739.99 227.02,740.98 226,742C226.33,743.32 226.66,744.64 227,746C228.32,745.67 229.64,745.34 231,745L231,739L229,739ZM272,720C273.65,720.33 275.3,720.66 277,721C276.67,723.97 276.34,726.94 276,730C274.02,737.26 272.04,744.52 270,752C269.34,752.99 268.68,753.98 268,755C266.35,754.67 264.7,754.34 263,754C263.33,750.7 263.66,747.4 264,744C265.98,737.07 267.96,730.14 270,723C270.66,722.01 271.32,721.02 272,720ZM305,720L309,720L309,729C307.02,736.26 305.04,743.52 303,751C302.01,752.32 301.02,753.64 300,755C298.35,754.67 296.7,754.34 295,754C295.66,749.71 296.32,745.42 297,741C298.98,734.73 300.96,728.46 303,722C303.66,721.34 304.32,720.68 305,720ZM517,720L527,720C528.65,721.65 530.3,723.3 532,725C532.99,723.68 533.98,722.36 535,721C536.32,721.33 537.64,721.66 539,722C540.65,724.64 542.3,727.28 544,730C544.99,728.68 545.98,727.36 547,726C547.99,724.02 548.98,722.04 550,720C552.475,720.495 552.475,720.495 555,721C555.66,721.66 556.32,722.32 557,723C557.66,725.97 558.32,728.94 559,732C559.495,739.92 559.495,739.92 560,748C558.35,748.33 556.7,748.66 555,749C554.01,747.35 553.02,745.7 552,744C551.34,741.69 550.68,739.38 550,737C549.01,738.32 548.02,739.64 547,741C545.35,740.67 543.7,740.34 542,740C541.34,739.34 540.68,738.68 540,738C539.67,740.97 539.34,743.94 539,747C538.67,747.66 538.34,748.32 538,749L533,749C532.67,748.34 532.34,747.68 532,747C531.67,743.04 531.34,739.08 531,735C529.68,735.99 528.36,736.98 527,738L520,738C520.33,741.63 520.66,745.26 521,749C519.35,749.33 517.7,749.66 516,750C515.34,749.01 514.68,748.02 514,747C513.67,743.04 513.34,739.08 513,735L513,723C513.33,722.34 513.66,721.68 514,721C514.99,720.67 515.98,720.34 517,720ZM520,726L520,733C521.98,732.34 523.96,731.68 526,731C525.67,729.35 525.34,727.7 525,726L520,726ZM167,721L174,721C175.65,721.99 177.3,722.98 179,724C179.33,724.66 179.66,725.32 180,726L180,732C179.34,733.32 178.68,734.64 178,736C179.65,736.66 181.3,737.32 183,738C183.99,736.68 184.98,735.36 186,734C187.32,734.33 188.64,734.66 190,735C190.66,736.98 191.32,738.96 192,741L192,746L194,746L194,739C194.66,737.35 195.32,735.7 196,734C198.475,734.495 198.475,734.495 201,735C201.495,735.99 201.495,735.99 202,737L202,745C201.01,746.98 200.02,748.96 199,751C198.01,751.66 197.02,752.32 196,753L190,753C188.35,751.02 186.7,749.04 185,747C183.35,748.98 181.7,750.96 180,753C178.68,753.66 177.36,754.32 176,755L167,755C165.35,753.35 163.7,751.7 162,750C161.67,742.08 161.34,734.16 161,726C161.99,724.68 162.98,723.36 164,722C164.99,721.67 165.98,721.34 167,721ZM168,727L168,733C169.65,732.34 171.3,731.68 173,731C173.33,729.68 173.66,728.36 174,727L168,727ZM168,739L168,748L176,748C176.33,747.67 176.66,747.34 177,747L177,741C175.68,740.34 174.36,739.68 173,739L168,739ZM453,721C454.32,721.33 455.64,721.66 457,722C456.67,723.65 456.34,725.3 456,727C454.68,728.65 453.36,730.3 452,732L452,734L459,734C460.65,735.65 462.3,737.3 464,739C463.67,741.31 463.34,743.62 463,746C461.68,747.32 460.36,748.64 459,750C458.34,750.33 457.68,750.66 457,751L450,751C448.35,749.68 446.7,748.36 445,747C444.34,745.35 443.68,743.7 443,742L443,734C444.65,730.7 446.3,727.4 448,724C449.65,723.01 451.3,722.02 453,721ZM454,740C453.34,740.66 452.68,741.32 452,742L452,745L457,745C457.33,743.35 457.66,741.7 458,740L454,740ZM406,722L418,722C418.33,723.65 418.66,725.3 419,727C418.67,727.33 418.34,727.66 418,728L408,728L408,732L417,732C418.65,733.65 420.3,735.3 422,737L422,745C420.68,746.65 419.36,748.3 418,750C417.01,750.33 416.02,750.66 415,751L406,751C405.34,750.34 404.68,749.68 404,749L404,745C407.3,744.67 410.6,744.34 414,744C414.33,742.35 414.66,740.7 415,739L405,739C404.01,737.68 403.02,736.36 402,735L402,725C402.33,724.34 402.66,723.68 403,723C403.99,722.67 404.98,722.34 406,722ZM436,722C437.32,722.33 438.64,722.66 440,723C440.33,723.33 440.66,723.66 441,724C441.33,726.31 441.66,728.62 442,731L442,749C440.35,749.33 438.7,749.66 437,750C436.34,749.34 435.68,748.68 435,748C434.67,744.04 434.34,740.08 434,736L434,726C434.66,724.68 435.32,723.36 436,722ZM488,722L498,722C500.475,722.99 500.475,722.99 503,724C502.67,726.31 501.34,735.62 501,738C501.33,738.66 501.66,739.32 502,740L502,748C501.34,748.99 500.68,749.98 500,751C498.02,751.33 496.04,751.66 494,752C492.02,751.34 490.04,750.68 488,750L488,736C487.01,735.01 486.02,734.02 485,733L485,725C485.99,724.01 486.98,723.02 488,722ZM491,727L491,731C492.65,730.67 494.3,730.34 496,730L496,727L491,727ZM494,740L494,745L496,745C495.67,743.35 495.34,741.7 495,740L494,740ZM353,723C355.31,723.33 357.62,723.66 360,724C360.99,724.99 361.98,725.98 363,727L363,736C361.68,738.31 360.36,740.62 359,743C360.98,743.66 362.96,744.32 365,745L365,750C364.67,750.33 364.34,750.66 364,751C360.04,751.33 356.08,751.66 352,752C350.68,751.67 349.36,751.34 348,751C347.67,749.35 347.34,747.7 347,746C348.98,743.03 354.32,735.02 355,734L355,731L348,731C348.33,729.35 348.66,727.7 349,726C350.32,725.01 351.64,724.02 353,723ZM372,723L379,723C378.67,724.65 378.34,726.3 378,728C376.35,730.31 374.7,732.62 373,735L382,735C382.99,735.99 383.98,736.98 385,738C385.33,740.31 385.66,742.62 386,745C385.01,746.65 384.02,748.3 383,750C381.35,750.66 379.7,751.32 378,752C375.69,751.67 373.38,751.34 371,751C369.35,749.35 367.7,747.7 366,746C365.67,745.01 365.34,744.02 365,743L365,736C365.99,733.36 366.98,730.72 368,728C369.32,726.35 370.64,724.7 372,723ZM376,740C375.34,740.66 374.68,741.32 374,742L374,745C375.98,744.67 377.96,744.34 380,744L380,740L376,740ZM477,723C478.65,723.33 480.3,723.66 482,724C482.33,725.65 482.66,727.3 483,729L483,749C481.35,749.33 479.7,749.66 478,750C477.34,749.01 476.68,748.02 476,747L476,724C476.33,723.67 476.66,723.34 477,723ZM255,724C256.32,724.33 257.64,724.66 259,725C259.66,726.98 260.32,728.96 261,731L261,750C260.67,750.33 260.34,750.66 260,751L255,751C254.67,750.67 254.34,750.34 254,750C253.67,747.69 253.34,745.38 253,743L253,729C253.66,727.35 254.32,725.7 255,724ZM279,724L294,724C294.66,724.66 295.32,725.32 296,726L296,733C294.35,738.28 292.7,743.56 291,749C290.01,749.99 289.02,750.98 288,752C286.68,751.67 285.36,751.34 284,751L284,743C285.32,738.71 286.64,734.42 288,730L278,730C277.67,728.68 277.34,727.36 277,726C277.66,725.34 278.32,724.68 279,724ZM315,724L322,724C323.32,725.32 324.64,726.64 326,728L326,736C323.525,739.96 323.525,739.96 321,744C323.31,744.66 325.62,745.32 328,746C327.67,747.65 327.34,749.3 327,751C326.67,751.33 326.34,751.66 326,752L312,752C311.34,751.67 310.68,751.34 310,751L310,745C312.64,741.7 315.28,738.4 318,735C318.33,733.68 318.66,732.36 319,731C316.36,731.33 313.72,731.66 311,732C311.33,729.69 311.66,727.38 312,725C312.99,724.67 313.98,724.34 315,724ZM203,725L209,725L209,730C208.67,730.33 208.34,730.66 208,731L203,731L203,725ZM333,725L341,725C342.65,726.65 344.3,728.3 346,730C346.66,731.65 347.32,733.3 348,735C347.67,737.97 347.34,740.94 347,744C345.02,746.97 345.02,746.97 343,750C340.03,750.33 337.06,750.66 334,751C332.35,750.01 330.7,749.02 329,748C328.01,745.36 327.02,742.72 326,740C326.33,737.36 326.66,734.72 327,732C328.32,730.02 329.64,728.04 331,726C331.66,725.67 332.32,725.34 333,725ZM335,731C334.34,731.66 333.68,732.32 333,733C332.67,735.64 332.34,738.28 332,741C332.99,742.32 333.98,743.64 335,745C336.65,744.67 338.3,744.34 340,744C340.66,742.02 341.32,740.04 342,738C341.67,736.35 341.34,734.7 341,733C340.01,732.34 339.02,731.68 338,731L335,731ZM204,735C205.65,735.33 207.3,735.66 209,736C209.33,736.99 209.66,737.98 210,739L210,751C208.35,751.33 206.7,751.66 205,752C204.34,751.34 203.68,750.68 203,750L203,736C203.33,735.67 203.66,735.34 204,735ZM389,744C390.65,744.33 392.3,744.66 394,745L394,752C393.34,753.32 392.68,754.64 392,756L387,756L387,748C387.66,746.68 388.32,745.36 389,744ZM118,768L124,768C125.65,769.65 127.3,771.3 129,773C133.95,773.33 138.9,773.66 144,774C144.99,774.66 145.98,775.32 147,776C147.495,777.485 147.495,777.485 148,779L148,795C147.34,796.32 146.68,797.64 146,799C145.01,799.495 145.01,799.495 144,800L113,800C112.34,799.67 111.68,799.34 111,799C110.34,796.36 109.68,793.72 109,791L109,779C109.33,776.69 109.66,774.38 110,772C110.99,771.01 111.98,770.02 113,769C114.65,768.67 116.3,768.34 118,768ZM115,774L115,792C115.33,792.66 115.66,793.32 116,794L141,794C141.33,793.67 141.66,793.34 142,793L142,780C139.03,779.505 139.03,779.505 136,779L128,779C126.02,777.35 124.04,775.7 122,774L115,774ZM306,770L312,770C312.99,771.32 313.98,772.64 315,774C315.66,776.64 316.32,779.28 317,782C318.98,779.36 320.96,776.72 323,774L328,774C329.98,776.97 329.98,776.97 332,780L332,786L334,786C334.33,784.02 334.66,782.04 335,780C335.99,779.01 336.98,778.02 338,777L344,777C344.99,777.99 345.98,778.98 347,780C348.65,779.67 350.3,779.34 352,779C352.99,778.67 353.98,778.34 355,778L363,778C365.64,779.32 368.28,780.64 371,782C373.97,782.33 376.94,782.66 380,783C382.97,782.01 385.94,781.02 389,780L440,780C440.99,780.66 441.98,781.32 443,782C442.67,783.65 442.34,785.3 442,787C440.68,787.66 439.36,788.32 438,789C432.06,789.33 426.12,789.66 420,790L406,790C404.35,789.67 402.7,789.34 401,789L392,789C389.03,789.99 386.06,790.98 383,792L373,792C368.05,790.02 368.05,790.02 363,788C362.67,787.67 362.34,787.34 362,787L356,787C354.35,787.99 352.7,788.98 351,790L345,790C343.68,789.01 342.36,788.02 341,787C339.35,788.98 337.7,790.96 336,793C333.69,792.67 331.38,792.34 329,792C328.01,790.68 327.02,789.36 326,788L326,782L324,782C323.67,785.3 323.34,788.6 323,792C322.34,793.32 321.68,794.64 321,796C319.35,796.33 317.7,796.66 316,797C314.68,795.35 313.36,793.7 312,792C311.01,788.37 310.02,784.74 309,781C307.35,784.96 305.7,788.92 304,793C302.35,793.33 300.7,793.66 299,794L299,787C300.65,782.05 302.3,777.1 304,772C304.66,771.34 305.32,770.68 306,770ZM174,771C175.65,771.33 177.3,771.66 179,772C179.99,773.32 180.98,774.64 182,776C182.66,778.97 183.32,781.94 184,785C185.98,782.36 187.96,779.72 190,777L195,777C196.32,778.65 197.64,780.3 199,782L199,785C200.65,783.35 202.3,781.7 204,780C204.99,779.34 205.98,778.68 207,778C209.475,778.495 209.475,778.495 212,779C212.99,779.99 213.98,780.98 215,782C216.65,781.01 218.3,780.02 220,779C222.475,779.495 222.475,779.495 225,780C225.99,780.99 226.98,781.98 228,783C229.32,782.67 230.64,782.34 232,782L239,782C241.64,783.32 244.28,784.64 247,786C247.495,788.475 247.495,788.475 248,791C246.68,791.33 245.36,791.66 244,792C240.37,791.67 236.74,791.34 233,791C232.505,791.495 232.505,791.495 232,792L226,792C224.35,791.01 222.7,790.02 221,789C219.68,790.32 218.36,791.64 217,793C215.35,792.67 213.7,792.34 212,792C209.525,790.02 209.525,790.02 207,788C206.34,789.65 205.68,791.3 205,793C204.01,793.66 203.02,794.32 202,795C200.02,794.67 198.04,794.34 196,794C195.01,792.35 194.02,790.7 193,789L193,784L191,784C190.67,786.97 190.34,789.94 190,793C189.01,794.65 188.02,796.3 187,798L182,798C180.68,796.35 179.36,794.7 178,793C177.01,789.7 176.02,786.4 175,783C173.35,787.62 171.7,792.24 170,797L165,797L165,790C166.65,785.05 168.3,780.1 170,775C171.32,773.68 172.64,772.36 174,771ZM278,789L283,789C283.33,790.65 283.66,792.3 284,794C283.34,794.66 282.68,795.32 282,796C280.68,795.67 279.36,795.34 278,795L278,789Z" style="fill-rule:nonzero;"/>
        </g>
    </g>
</svg>
