<?xml version="1.0" encoding="UTF-8" standalone="no"?><!DOCTYPE svg PUBLIC "-//W3C//DTD SVG 1.1//EN" "http://www.w3.org/Graphics/SVG/1.1/DTD/svg11.dtd"><svg width="100%" height="100%" viewBox="0 0 1109 824" version="1.1" xmlns="http://www.w3.org/2000/svg" xmlns:xlink="http://www.w3.org/1999/xlink" xml:space="preserve" xmlns:serif="http://www.serif.com/" style="fill-rule:evenodd;clip-rule:evenodd;stroke-linejoin:round;stroke-miterlimit:2;"><path d="M828,0l215,0c15.84,1.485 15.84,1.485 32,3c3.63,0.99 7.26,1.98 11,3c1.65,1.98 3.3,3.96 5,6c0.66,3.96 1.32,7.92 2,12c0.99,13.2 1.98,26.4 3,40l0,31c-0.33,5.28 -0.66,10.56 -1,16l0,11c-1.485,3.465 -1.485,3.465 -3,7c-2.97,2.475 -2.97,2.475 -6,5c-3.63,0.99 -7.26,1.98 -11,3c-1.98,0.33 -3.96,0.66 -6,1c-23.1,0.33 -46.2,0.66 -70,1c-254.1,1.32 -508.2,2.64 -770,4l-198,0c-5.61,-0.99 -11.22,-1.98 -17,-3c-1.98,-1.32 -3.96,-2.64 -6,-4c-1.485,-2.475 -1.485,-2.475 -3,-5c-0.495,-2.475 -0.495,-2.475 -1,-5c-0.33,-13.53 -0.66,-27.06 -1,-41l0,-63c0.99,-3.3 1.98,-6.6 3,-10c1.65,-1.32 3.3,-2.64 5,-4c6.93,-1.485 6.93,-1.485 14,-3c2.64,-0.33 5.28,-0.66 8,-1c22.275,-0.495 22.275,-0.495 45,-1c371.25,-1.485 371.25,-1.485 750,-3Zm-122,12c-150.81,0.33 -301.62,0.66 -457,1c-73.59,0.33 -147.18,0.66 -223,1c-3.3,0.66 -6.6,1.32 -10,2c-0.66,1.32 -1.32,2.64 -2,4l0,50c0.33,14.19 0.66,28.38 1,43c0.33,4.95 0.66,9.9 1,15c0.99,0.66 1.98,1.32 3,2c5.94,0.66 11.88,1.32 18,2l83,0c439.56,-2.475 439.56,-2.475 888,-5c30.69,-0.495 30.69,-0.495 62,-1c3.63,-0.99 7.26,-1.98 11,-3c0.66,-1.65 1.32,-3.3 2,-5c0.33,-5.28 0.66,-10.56 1,-16l0,-46c-0.99,-11.88 -1.98,-23.76 -3,-36c-0.33,-1.32 -0.66,-2.64 -1,-4c-6.93,-0.99 -13.86,-1.98 -21,-3c-5.28,-0.33 -10.56,-0.66 -16,-1l-337,0Zm-648,16l42,0c3.3,0.99 6.6,1.98 10,3c1.65,1.32 3.3,2.64 5,4c0.99,2.31 1.98,4.62 3,7c0.495,2.475 0.495,2.475 1,5c0.495,9.405 0.495,9.405 1,19l0,17c-0.33,5.61 -0.66,11.22 -1,17c-0.66,3.3 -1.32,6.6 -2,10c-1.32,1.65 -2.64,3.3 -4,5c-1.65,0.66 -3.3,1.32 -5,2c-5.28,0.66 -10.56,1.32 -16,2l-43,0c-3.3,-0.99 -6.6,-1.98 -10,-3c-1.65,-1.65 -3.3,-3.3 -5,-5c-0.66,-1.32 -1.32,-2.64 -2,-4c-0.66,-4.95 -1.32,-9.9 -2,-15l0,-47c1.32,-3.63 2.64,-7.26 4,-11c2.31,-1.32 4.62,-2.64 7,-4c8.415,-0.99 8.415,-0.99 17,-2Zm25,9c-1.32,2.31 -2.64,4.62 -4,7c0.33,4.29 0.66,8.58 1,13c-0.33,1.32 -0.66,2.64 -1,4l-6,0c-1.32,-0.99 -2.64,-1.98 -4,-3c-2.31,0.33 -4.62,0.66 -7,1c-2.475,3.465 -2.475,3.465 -5,7c2.64,1.98 5.28,3.96 8,6c2.97,-0.495 2.97,-0.495 6,-1c0.66,-1.32 1.32,-2.64 2,-4c4.95,1.98 4.95,1.98 10,4c1.98,-0.495 1.98,-0.495 4,-1c1.32,-1.65 2.64,-3.3 4,-5c-0.495,-2.97 -0.495,-2.97 -1,-6c-0.66,-0.66 -1.32,-1.32 -2,-2l0,-7c0.33,-0.33 0.66,-0.66 1,-1l0,-6c-1.65,-1.98 -3.3,-3.96 -5,-6l-1,0Zm-39,5c-1.98,2.97 -1.98,2.97 -4,6c0.33,1.32 0.66,2.64 1,4l10,0c2.31,-0.66 4.62,-1.32 7,-2c5.445,0.495 5.445,0.495 11,1c0.66,-0.66 1.32,-1.32 2,-2c-0.33,-2.31 -0.66,-4.62 -1,-7l-26,0Zm59,2c-1.98,2.97 -1.98,2.97 -4,6c0.33,1.65 0.66,3.3 1,5c1.32,0.66 2.64,1.32 4,2c1.98,-0.66 3.96,-1.32 6,-2c-0.33,-2.97 -0.66,-5.94 -1,-9c-0.66,-0.66 -1.32,-1.32 -2,-2l-4,0Zm-57,14c-1.32,1.32 -2.64,2.64 -4,4c-0.33,1.32 -0.66,2.64 -1,4l-2,0l0,5l3,0l0,-3c2.97,0.33 5.94,0.66 9,1c0.99,-0.66 1.98,-1.32 3,-2c-0.33,-2.31 -0.66,-4.62 -1,-7c-0.99,-0.66 -1.98,-1.32 -3,-2l-4,0Zm22,17c-3.96,2.475 -3.96,2.475 -8,5c0.99,4.29 1.98,8.58 3,13c1.65,-0.33 3.3,-0.66 5,-1c1.98,-0.99 3.96,-1.98 6,-3c-0.33,-1.98 -0.66,-3.96 -1,-6c-1.32,-2.64 -2.64,-5.28 -4,-8l-1,0Zm42,2l0,2l-7,0c-0.33,1.65 -0.66,3.3 -1,5c1.32,3.3 2.64,6.6 4,10l4,0c0.33,-5.61 0.66,-11.22 1,-17l-1,0Zm-71,4l0,14c3.63,0.33 7.26,0.66 11,1c0.33,-0.33 0.66,-0.66 1,-1c0.33,-3.96 0.66,-7.92 1,-12c-0.33,-0.66 -0.66,-1.32 -1,-2l-12,0Zm44,4c-0.33,0.33 -0.66,0.66 -1,1l0,20c1.32,1.65 2.64,3.3 4,5c1.98,-0.33 3.96,-0.66 6,-1c1.65,-1.65 5.66,-5.66 6,-6l0,-6c-0.33,-0.33 -0.66,-0.66 -1,-1l-12,0c-0.33,-3.96 -0.66,-7.92 -1,-12l-1,0Zm-15,12c-2.97,1.98 -2.97,1.98 -6,4c-0.33,1.32 -0.66,2.64 -1,4l4,0c0.33,1.32 0.66,2.64 1,4c0.99,-0.33 1.98,-0.66 3,-1c0.33,-0.99 0.66,-1.98 1,-3l0,-8l-2,0Zm342,-49c3.3,0.33 6.6,0.66 10,1c2.64,1.98 5.28,3.96 8,6c0.66,1.65 1.32,3.3 2,5c0.99,-1.32 1.98,-2.64 3,-4c1.65,-1.65 3.3,-3.3 5,-5c2.31,0.33 4.62,0.66 7,1c1.65,2.64 3.3,5.28 5,8c0.99,2.31 1.98,4.62 3,7l0,5l4,0c0.99,-4.455 0.99,-4.455 2,-9c1.65,-2.64 3.3,-5.28 5,-8c1.98,-0.99 3.96,-1.98 6,-3c2.64,0.33 5.28,0.66 8,1c0.99,0.99 0.99,0.99 2,2c-0.33,1.65 -0.66,3.3 -1,5c-1.65,0.66 -3.3,1.32 -5,2l-3,0c-0.66,1.98 -1.32,3.96 -2,6l0,11c0.99,0.99 0.99,0.99 2,2c6.93,0.495 6.93,0.495 14,1l0,-28c0.99,-0.99 1.98,-1.98 3,-3c2.475,-0.495 2.475,-0.495 5,-1l15,0c0.99,0.99 0.99,0.99 2,2l0,5c-0.66,0.66 -1.32,1.32 -2,2l-15,0c0.495,4.455 0.495,4.455 1,9c4.29,0.33 8.58,0.66 13,1l0,6c-2.31,0.66 -4.62,1.32 -7,2l-5,0l0,8c1.65,-0.66 3.3,-1.32 5,-2l10,0c0.33,0.33 0.66,0.66 1,1c-0.33,2.31 -0.66,4.62 -1,7c-1.98,1.32 -3.96,2.64 -6,4c-1.32,0.33 -2.64,0.66 -4,1l-7,0c-1.65,-1.32 -3.3,-2.64 -5,-4c-0.66,-0.66 -1.32,-1.32 -2,-2c-1.32,0.99 -2.64,1.98 -4,3c-2.64,0.33 -5.28,0.66 -8,1c-2.97,-0.99 -5.94,-1.98 -9,-3c-2.31,-2.64 -4.62,-5.28 -7,-8c-0.495,4.95 -0.495,4.95 -1,10c-0.33,0.33 -0.66,0.66 -1,1c-2.31,-0.33 -4.62,-0.66 -7,-1c-0.66,-0.66 -1.32,-1.32 -2,-2l0,-10l-11,0c-0.66,3.63 -1.32,7.26 -2,11c-0.33,0.33 -0.66,0.66 -1,1l-6,0l0,-20c-3.96,1.98 -3.96,1.98 -8,4l-6,0c0.495,1.485 0.495,1.485 1,3l0,12c-0.66,0.99 -1.32,1.98 -2,3c-1.65,-0.33 -3.3,-0.66 -5,-1c-0.99,-1.98 -1.98,-3.96 -3,-6c-1.65,0.66 -3.3,1.32 -5,2c-1.65,1.32 -3.3,2.64 -5,4c-4.95,0.495 -4.95,0.495 -10,1c-1.65,-0.66 -3.3,-1.32 -5,-2l0,-6c0.66,-0.99 1.32,-1.98 2,-3l10,0l0,-6c-1.32,-0.66 -2.64,-1.32 -4,-2c-2.97,-1.98 -5.94,-3.96 -9,-6c-0.66,-0.66 -1.32,-1.32 -2,-2l0,-10c1.32,-1.65 2.64,-3.3 4,-5c1.65,-0.66 3.3,-1.32 5,-2l9,0c0.66,0.66 1.32,1.32 2,2l0,5c-1.65,0.99 -3.3,1.98 -5,3c-1.65,0.66 -3.3,1.32 -5,2c-0.33,0.66 -0.66,1.32 -1,2c2.64,0.66 5.28,1.32 8,2c2.64,1.65 5.28,3.3 8,5c0.33,-5.94 0.66,-11.88 1,-18c1.65,-1.65 3.3,-3.3 5,-5c0.99,-0.33 1.98,-0.66 3,-1Zm19,15l1,3l-1,-3Zm11,0c-0.66,2.31 -1.32,4.62 -2,7l0,4l6,0c-0.33,-1.98 -0.66,-3.96 -1,-6c-0.66,-1.65 -1.32,-3.3 -2,-5l-1,0Zm-118,-14l8,0c2.475,1.485 2.475,1.485 5,3c1.32,1.65 2.64,3.3 4,5l0,7c-0.99,1.98 -1.98,3.96 -3,6c-0.66,2.31 -1.32,4.62 -2,7c2.475,0.99 2.475,0.99 5,2c1.98,1.65 3.96,3.3 6,5l0,7c-2.97,-0.33 -5.94,-0.66 -9,-1c-3.63,-1.98 -7.26,-3.96 -11,-6l0,9c-0.33,0.33 -0.66,0.66 -1,1l-5,0c-0.99,-0.99 -1.98,-1.98 -3,-3c-0.66,-2.97 -1.32,-5.94 -2,-9c-0.495,-0.495 -0.495,-0.495 -1,-1c-2.97,4.455 -2.97,4.455 -6,9c-1.98,1.32 -3.96,2.64 -6,4l-7,0c-1.65,-0.99 -3.3,-1.98 -5,-3c-1.65,-1.98 -3.3,-3.96 -5,-6c-0.66,-1.98 -1.32,-3.96 -2,-6l0,-9c0.99,-3.3 1.98,-6.6 3,-10c1.65,-1.98 3.3,-3.96 5,-6c1.65,-0.33 3.3,-0.66 5,-1c4.455,0.99 4.455,0.99 9,2c2.31,1.98 4.62,3.96 7,6c0.33,0.66 0.66,1.32 1,2c0.66,-2.97 1.32,-5.94 2,-9c1.65,-1.32 3.3,-2.64 5,-4c0.99,-0.33 1.98,-0.66 3,-1Zm0,9l0,7c0.33,0.99 0.66,1.98 1,3c1.32,-0.33 2.64,-0.66 4,-1c0.33,-0.33 0.66,-0.66 1,-1l0,-8l-6,0Zm-28,5c-1.485,1.98 -1.485,1.98 -3,4l0,14c1.32,1.32 2.64,2.64 4,4c1.98,-0.33 3.96,-0.66 6,-1c1.32,-2.64 2.64,-5.28 4,-8l0,-8c-1.32,-1.32 -2.64,-2.64 -4,-4c-2.31,-0.33 -4.62,-0.66 -7,-1Zm19,2l1,4l-1,-4Zm-143,-14l5,0c1.32,1.65 2.64,3.3 4,5c1.32,9.24 2.64,18.48 4,28l0,9c-0.66,0.66 -1.32,1.32 -2,2l-5,0c-0.99,-1.32 -1.98,-2.64 -3,-4c-1.485,-8.415 -1.485,-8.415 -3,-17c-0.33,-0.33 -0.66,-0.66 -1,-1c-0.99,2.31 -1.98,4.62 -3,7c-0.99,0.66 -1.98,1.32 -3,2c-1.65,-0.33 -3.3,-0.66 -5,-1c-1.32,-1.65 -2.64,-3.3 -4,-5c-0.33,-0.66 -0.66,-1.32 -1,-2c-0.66,6.27 -1.32,12.54 -2,19c-0.66,0.99 -1.32,1.98 -2,3l-5,0c-0.66,-0.99 -1.32,-1.98 -2,-3l0,-25c0.33,-3.63 0.66,-7.26 1,-11c0.99,-1.65 1.98,-3.3 3,-5c1.65,0.33 3.3,0.66 5,1c1.98,2.64 3.96,5.28 6,8c1.98,2.97 1.98,2.97 4,6c2.64,-4.95 5.28,-9.9 8,-15c0.33,-0.33 0.66,-0.66 1,-1Zm176,0l6,0c0.66,0.66 1.32,1.32 2,2c0.33,2.97 0.66,5.94 1,9c2.97,-2.31 5.94,-4.62 9,-7c2.64,-0.33 5.28,-0.66 8,-1l0,6c-2.97,3.3 -5.94,6.6 -9,10l0,3c1.98,1.32 3.96,2.64 6,4c2.31,1.98 4.62,3.96 7,6c0.33,0.66 0.66,1.32 1,2l0,6c-0.33,0.33 -0.66,0.66 -1,1l-6,0c-2.97,-1.98 -5.94,-3.96 -9,-6c-1.32,-1.32 -2.64,-2.64 -4,-4c-0.495,4.95 -0.495,4.95 -1,10c-0.66,0.66 -1.32,1.32 -2,2l-5,0c-0.66,-0.66 -1.32,-1.32 -2,-2c-0.66,-3.3 -1.32,-6.6 -2,-10l0,-28c0.33,-0.99 0.66,-1.98 1,-3Zm-164,1c2.31,0.33 4.62,0.66 7,1c2.64,3.63 5.28,7.26 8,11c2.31,-3.63 4.62,-7.26 7,-11c3.465,-0.495 3.465,-0.495 7,-1c0.33,0.33 0.66,0.66 1,1l0,7c-1.98,3.63 -3.96,7.26 -6,11c-0.66,0.66 -1.32,1.32 -2,2c-0.33,6.27 -0.66,12.54 -1,19c-0.66,1.32 -1.32,2.64 -2,4l-6,0c-0.66,-0.99 -1.32,-1.98 -2,-3c-0.66,-6.27 -1.32,-12.54 -2,-19c-2.64,-3.63 -5.28,-7.26 -8,-11c-0.66,-1.65 -1.32,-3.3 -2,-5l0,-5c0.33,-0.33 0.66,-0.66 1,-1Zm94,-2c1.98,0.33 3.96,0.66 6,1c0.495,0.495 0.495,0.495 1,1l0,11c-1.65,8.58 -3.3,17.16 -5,26c-0.99,1.98 -1.98,3.96 -3,6c-0.33,0.33 -0.66,0.66 -1,1c-3.465,-0.495 -3.465,-0.495 -7,-1c-1.65,-2.31 -3.3,-4.62 -5,-7c-0.66,-0.33 -1.32,-0.66 -2,-1c-0.99,2.475 -0.99,2.475 -2,5c-0.99,0.99 -1.98,1.98 -3,3c-1.98,-0.33 -3.96,-0.66 -6,-1c-0.99,-0.99 -1.98,-1.98 -3,-3c-1.32,-4.95 -2.64,-9.9 -4,-15c-0.66,-3.63 -1.32,-7.26 -2,-11l0,-12c0.33,-0.33 0.66,-0.66 1,-1l5,0c1.32,1.65 2.64,3.3 4,5c0.66,2.64 1.32,5.28 2,8l0,10l2,0c0.66,-1.65 1.32,-3.3 2,-5c0.33,-0.33 0.66,-0.66 1,-1l7,0c1.32,1.65 2.64,3.3 4,5l0,4l2,0l0,-10c1.32,-5.28 2.64,-10.56 4,-16c0.66,-0.66 1.32,-1.32 2,-2Zm-59,21l16,0c0.66,0.33 1.32,0.66 2,1l0,6c-0.99,0.66 -1.98,1.32 -3,2l-13,0c-1.65,-0.99 -3.3,-1.98 -5,-3c0.33,-1.65 0.66,-3.3 1,-5c0.66,-0.33 1.32,-0.66 2,-1Zm790,90l8,0c0.66,0.99 1.32,1.98 2,3l0,6c-0.66,0.66 -1.32,1.32 -2,2l-7,0c-0.66,-0.99 -1.32,-1.98 -2,-3l0,-6c0.33,-0.66 0.66,-1.32 1,-2Zm21,0l32,0c0.99,0.33 1.98,0.66 3,1l0,7c-1.65,0.99 -3.3,1.98 -5,3l-27,0c-2.31,-0.33 -4.62,-0.66 -7,-1c-0.66,-0.66 -1.32,-1.32 -2,-2l0,-5c0.66,-0.66 1.32,-1.32 2,-2c1.32,-0.33 2.64,-0.66 4,-1Zm-19,17l6,0c0.66,0.33 1.32,0.66 2,1l0,8c-0.66,0.66 -1.32,1.32 -2,2l-6,0c-0.99,-0.99 -1.98,-1.98 -3,-3l0,-5c0.99,-0.99 1.98,-1.98 3,-3Zm37,-1l10,0c2.31,0.99 4.62,1.98 7,3c0.495,2.475 0.495,2.475 1,5c-1.32,0.99 -2.64,1.98 -4,3c-1.65,0.33 -3.3,0.66 -5,1l-26,0c-2.31,-0.99 -4.62,-1.98 -7,-3l0,-5c0.66,-0.66 1.32,-1.32 2,-2c1.32,-0.33 2.64,-0.66 4,-1c5.94,-0.33 11.88,-0.66 18,-1Zm-13,18l25,0c2.475,0.99 2.475,0.99 5,2c0.495,0.495 0.495,0.495 1,1l0,5c-1.65,0.99 -3.3,1.98 -5,3l-32,0c-1.32,-0.66 -2.64,-1.32 -4,-2l0,-6c0.66,-0.66 1.32,-1.32 2,-2c2.64,-0.33 5.28,-0.66 8,-1Zm-25,1l8,0c0.66,1.32 1.32,2.64 2,4c-0.33,1.98 -0.66,3.96 -1,6l-8,0c-0.66,-0.33 -1.32,-0.66 -2,-1l0,-8c0.33,-0.33 0.66,-0.66 1,-1Zm-176,46l170,0c12.54,0.66 25.08,1.32 38,2c5.94,0.66 11.88,1.32 18,2c3.96,1.98 3.96,1.98 8,4c0.99,1.65 1.98,3.3 3,5c0.66,3.3 1.32,6.6 2,10c0.33,3.3 0.66,6.6 1,10l0,21c-0.66,6.6 -1.32,13.2 -2,20c-0.66,1.98 -1.32,3.96 -2,6c-1.98,0.99 -3.96,1.98 -6,3c-2.64,0.33 -5.28,0.66 -8,1c-84.81,1.98 -169.62,3.96 -257,6c-25.08,0.33 -50.16,0.66 -76,1l-197,0c-73.755,-0.495 -73.755,-0.495 -149,-1l-116,0c-17.82,0.33 -35.64,0.66 -54,1l-118,0c-6.93,-0.66 -13.86,-1.32 -21,-2c-3.96,-0.99 -7.92,-1.98 -12,-3c-1.65,-1.32 -3.3,-2.64 -5,-4c-1.32,-3.63 -2.64,-7.26 -4,-11c-0.33,-2.31 -0.66,-4.62 -1,-7c-0.33,-5.94 -0.66,-11.88 -1,-18l0,-19c0.66,-2.97 1.32,-5.94 2,-9c1.32,-1.98 2.64,-3.96 4,-6c1.65,-0.99 3.3,-1.98 5,-3c5.94,-0.99 11.88,-1.98 18,-3c9.24,-0.33 18.48,-0.66 28,-1c26.07,-0.33 52.14,-0.66 79,-1l346,0c36.3,-0.33 72.6,-0.66 110,-1c59.895,-0.99 59.895,-0.99 121,-2c25.08,-0.33 50.16,-0.66 76,-1Zm96,11c-55.935,0.495 -55.935,0.495 -113,1c-41.58,0.66 -83.16,1.32 -126,2c-41.085,0.495 -41.085,0.495 -83,1l-526,0c-8.415,0.495 -8.415,0.495 -17,1c-1.98,0.99 -3.96,1.98 -6,3c-0.66,1.32 -1.32,2.64 -2,4c-0.33,1.98 -0.66,3.96 -1,6l0,13c0.66,9.57 1.32,19.14 2,29c0.66,1.98 1.32,3.96 2,6c0.66,0.33 1.32,0.66 2,1c3.3,0.33 6.6,0.66 10,1c13.86,0.495 13.86,0.495 28,1l62,0c58.905,-0.99 58.905,-0.99 119,-2l81,0c43.89,0.33 87.78,0.66 133,1l244,0c57.42,-0.99 57.42,-0.99 116,-2c24.75,-0.66 49.5,-1.32 75,-2c51.975,-0.99 51.975,-0.99 105,-2c7.92,-0.33 15.84,-0.66 24,-1c0.66,-1.32 1.32,-2.64 2,-4c0.33,-2.97 0.66,-5.94 1,-9l0,-29c-0.33,-3.63 -0.66,-7.26 -1,-11c-0.33,-0.99 -0.66,-1.98 -1,-3c-0.66,-0.33 -1.32,-0.66 -2,-1c-8.58,-0.66 -17.16,-1.32 -26,-2c-8.25,-0.33 -16.5,-0.66 -25,-1c-25.41,-0.33 -50.82,-0.66 -77,-1Zm-828,16c1.32,0.33 2.64,0.66 4,1l0,9c-2.97,8.91 -5.94,17.82 -9,27c-0.33,0.66 -0.66,1.32 -1,2l-5,0l0,-10c2.64,-8.25 5.28,-16.5 8,-25c0.99,-1.32 1.98,-2.64 3,-4Zm457,1l5,0c0.66,1.65 1.32,3.3 2,5c0.66,6.93 1.32,13.86 2,21l0,6c-0.66,0.66 -1.32,1.32 -2,2c-4.95,0.33 -9.9,0.66 -15,1c-1.32,-1.32 -2.64,-2.64 -4,-4c-0.99,1.485 -0.99,1.485 -2,3l-5,0c-0.66,-0.66 -1.32,-1.32 -2,-2c-0.66,-6.93 -1.32,-13.86 -2,-21c0.33,-2.64 0.66,-5.28 1,-8c1.65,-0.33 3.3,-0.66 5,-1c0.66,0.66 1.32,1.32 2,2c0.66,5.61 1.32,11.22 2,17c1.32,-1.98 2.64,-3.96 4,-6c0.66,-0.33 1.32,-0.66 2,-1l7,0l0,-14Zm-4,20c-0.99,1.485 -0.99,1.485 -2,3l0,5c1.65,-0.33 3.3,-0.66 5,-1c0.33,-2.31 0.66,-4.62 1,-7l-4,0Zm-64,-20c4.455,0.99 4.455,0.99 9,2c0.99,1.32 1.98,2.64 3,4c-0.33,3.3 -0.66,6.6 -1,10c1.32,0.99 2.64,1.98 4,3c0.99,-1.32 1.98,-2.64 3,-4c2.475,0.495 2.475,0.495 5,1c0.33,3.63 0.66,7.26 1,11l3,0l0,-7c0.66,-1.65 1.32,-3.3 2,-5c2.475,0.495 2.475,0.495 5,1c0.33,0.33 0.66,0.66 1,1l0,11c-0.99,1.65 -1.98,3.3 -3,5c-0.99,0.66 -1.98,1.32 -3,2l-7,0c-1.65,-1.98 -3.3,-3.96 -5,-6c-1.65,1.65 -3.3,3.3 -5,5c-1.98,0.99 -3.96,1.98 -6,3l-9,0c-0.99,-0.33 -1.98,-0.66 -3,-1c-0.66,-2.97 -1.32,-5.94 -2,-9l0,-23c0.99,-0.99 1.98,-1.98 3,-3c1.65,-0.33 3.3,-0.66 5,-1Zm-2,7l0,5c1.32,0.33 2.64,0.66 4,1c0.99,-0.66 1.98,-1.32 3,-2l0,-4l-7,0Zm1,13l0,10l6,0c1.32,-0.66 2.64,-1.32 4,-2c0.33,-1.65 0.66,-3.3 1,-5c-1.65,-0.99 -3.3,-1.98 -5,-3l-6,0Zm95,-18l4,0c0.33,0.66 0.66,1.32 1,2l0,10l7,0c0.33,0.66 0.66,1.32 1,2c0.99,-0.66 1.98,-1.32 3,-2l6,0c1.98,1.65 3.96,3.3 6,5c0.495,0.99 0.495,0.99 1,2c-0.33,2.97 -0.66,5.94 -1,9c-1.32,1.32 -2.64,2.64 -4,4c-2.97,0.495 -2.97,0.495 -6,1c-2.31,-0.99 -4.62,-1.98 -7,-3c-0.66,-1.32 -1.32,-2.64 -2,-4c0.33,-2.64 0.66,-5.28 1,-8c-1.32,-0.33 -2.64,-0.66 -4,-1c0.33,2.31 0.66,4.62 1,7l0,8c-2.475,0.495 -2.475,0.495 -5,1c-0.99,-1.32 -1.98,-2.64 -3,-4c-0.33,-2.31 -0.66,-4.62 -1,-7c0.33,-1.65 0.66,-3.3 1,-5l-6,0c-0.33,-1.32 -0.66,-2.64 -1,-4c0.33,-0.33 0.66,-0.66 1,-1l6,0l0,-11c0.33,-0.33 0.66,-0.66 1,-1Zm18,18c-0.66,0.66 -1.32,1.32 -2,2l0,5c2.475,0.495 2.475,0.495 5,1c0.33,-1.65 0.66,-3.3 1,-5c-0.66,-0.99 -1.32,-1.98 -2,-3l-2,0Zm53,-18l12,0c1.65,0.66 3.3,1.32 5,2c0.33,-0.33 0.66,-0.66 1,-1l5,0c2.475,4.455 2.475,4.455 5,9l2,0c1.65,-2.97 3.3,-5.94 5,-9c1.65,-0.33 3.3,-0.66 5,-1c0.99,1.32 1.98,2.64 3,4c0.99,6.6 1.98,13.2 3,20l0,6c-0.66,0.66 -1.32,1.32 -2,2c-1.32,-0.33 -2.64,-0.66 -4,-1c-0.99,-1.32 -1.98,-2.64 -3,-4c-0.66,-2.97 -1.32,-5.94 -2,-9c-1.32,1.65 -2.64,3.3 -4,5c-1.32,-0.33 -2.64,-0.66 -4,-1c-0.99,-1.32 -1.98,-2.64 -3,-4c-0.66,4.29 -1.32,8.58 -2,13c-1.65,0.33 -3.3,0.66 -5,1c-0.66,-0.99 -1.32,-1.98 -2,-3l0,-22l-8,0c0.33,1.32 0.66,2.64 1,4l0,20c-0.33,0.33 -0.66,0.66 -1,1l-5,0c-0.66,-1.32 -1.32,-2.64 -2,-4c0.33,-6.93 0.66,-13.86 1,-21l-9,0c0.33,-1.65 0.66,-3.3 1,-5c2.31,-0.66 4.62,-1.32 7,-2Zm-14,0c1.32,0.33 2.64,0.66 4,1c0.66,1.98 1.32,3.96 2,6c0.33,7.26 0.66,14.52 1,22c-0.66,0.99 -1.32,1.98 -2,3l-5,0c-0.33,-0.66 -0.66,-1.32 -1,-2l0,-11l-9,0c0.33,3.96 0.66,7.92 1,12c-0.66,0.66 -1.32,1.32 -2,2c-1.32,-0.33 -2.64,-0.66 -4,-1c-0.66,-1.65 -1.32,-3.3 -2,-5l0,-25c0.33,-0.33 0.66,-0.66 1,-1l5,0c0.33,3.96 0.66,7.92 1,12c2.97,0.33 5.94,0.66 9,1c-0.33,-3.96 -0.66,-7.92 -1,-12c0.66,-0.66 1.32,-1.32 2,-2Zm62,1c1.65,0.33 3.3,0.66 5,1c0.33,0.33 0.66,0.66 1,1c0.33,7.26 0.66,14.52 1,22c6.93,0.495 6.93,0.495 14,1c-0.33,1.65 -0.66,3.3 -1,5c-1.98,0.66 -3.96,1.32 -6,2l-11,0c-1.32,-1.32 -2.64,-2.64 -4,-4l0,-27c0.33,-0.33 0.66,-0.66 1,-1Zm-621,3l5,0l0,6c-1.98,1.65 -3.96,3.3 -6,5c0.66,1.32 1.32,2.64 2,4c2.475,1.98 2.475,1.98 5,4c0.33,1.65 0.66,3.3 1,5c-0.33,0.33 -0.66,0.66 -1,1l-6,0c-1.98,-1.32 -3.96,-2.64 -6,-4c-1.65,-1.65 -3.3,-3.3 -5,-5c-0.33,-1.65 -0.66,-3.3 -1,-5c1.32,-1.65 2.64,-3.3 4,-5c2.64,-1.98 5.28,-3.96 8,-6Zm25,1c2.97,0.495 2.97,0.495 6,1c2.97,1.98 5.94,3.96 9,6c0.66,1.32 1.32,2.64 2,4c-0.33,1.65 -0.66,3.3 -1,5c-2.97,2.64 -5.94,5.28 -9,8c-1.98,0.33 -3.96,0.66 -6,1c-0.33,-0.33 -0.66,-0.66 -1,-1c0.33,-2.31 0.66,-4.62 1,-7c1.65,-1.32 3.3,-2.64 5,-4c-0.66,-1.32 -1.32,-2.64 -2,-4c-1.65,-1.65 -3.3,-3.3 -5,-5c0.33,-1.32 0.66,-2.64 1,-4Zm421,8c1.65,0.33 3.3,0.66 5,1c0.33,0.99 0.66,1.98 1,3l0,14c-1.65,0.33 -3.3,0.66 -5,1c-0.66,-0.99 -1.32,-1.98 -2,-3c-0.33,-1.65 -0.66,-3.3 -1,-5l0,-8c0.66,-0.99 1.32,-1.98 2,-3Zm355,55l95,0c20.295,0.495 20.295,0.495 41,1c16.335,0.99 16.335,0.99 33,2c4.62,0.66 9.24,1.32 14,2c2.475,1.98 2.475,1.98 5,4c0.66,1.32 1.32,2.64 2,4c0.66,6.93 1.32,13.86 2,21l0,26c-1.485,6.435 -1.485,6.435 -3,13c-2.31,1.98 -4.62,3.96 -7,6c-2.97,0.99 -2.97,0.99 -6,2c-8.415,0.495 -8.415,0.495 -17,1c-54.45,1.32 -108.9,2.64 -165,4c-17.16,0.33 -34.32,0.66 -52,1c-54.945,0.495 -54.945,0.495 -111,1l-96,0c-52.47,-0.33 -104.94,-0.66 -159,-1c-37.95,-0.33 -75.9,-0.66 -115,-1l-53,0c-20.46,0.33 -40.92,0.66 -62,1c-31.02,0.33 -62.04,0.66 -94,1l-30,0c-7.59,-0.33 -15.18,-0.66 -23,-1c-7.26,-0.99 -14.52,-1.98 -22,-3c-1.98,-0.99 -3.96,-1.98 -6,-3c-1.32,-1.32 -2.64,-2.64 -4,-4c-0.99,-5.28 -1.98,-10.56 -3,-16l0,-20c0.99,-10.395 0.99,-10.395 2,-21c1.485,-3.465 1.485,-3.465 3,-7c1.98,-1.65 3.96,-3.3 6,-5c6.93,-0.99 6.93,-0.99 14,-2c20.79,-0.99 20.79,-0.99 42,-2c12.21,-0.33 24.42,-0.66 37,-1c28.71,-0.495 28.71,-0.495 58,-1l520,0c29.7,-0.33 59.4,-0.66 90,-1c21.12,-0.33 42.24,-0.66 64,-1Zm4,12c-61.05,0.66 -122.1,1.32 -185,2l-201,0c-44.22,-0.33 -88.44,-0.66 -134,-1l-137,0c-41.58,0.495 -41.58,0.495 -84,1c-28.215,0.495 -28.215,0.495 -57,1c-9.9,0.33 -19.8,0.66 -30,1c-0.33,0.33 -0.66,0.66 -1,1l0,41c0.66,5.28 1.32,10.56 2,16c0.33,0.33 0.66,0.66 1,1c10.23,0.33 20.46,0.66 31,1l63,0c21.78,-0.33 43.56,-0.66 66,-1l233,0c44.55,0.33 89.1,0.66 135,1l135,0c50.49,-0.495 50.49,-0.495 102,-1c63.69,-1.32 127.38,-2.64 193,-4c11.88,-0.33 23.76,-0.66 36,-1c2.31,-0.66 4.62,-1.32 7,-2c0.33,-0.99 0.66,-1.98 1,-3c0.33,-3.63 0.66,-7.26 1,-11c-0.33,-10.56 -0.66,-21.12 -1,-32c-0.33,-1.65 -0.66,-3.3 -1,-5c-2.31,-0.66 -4.62,-1.32 -7,-2c-9.57,-0.66 -19.14,-1.32 -29,-2c-20.295,-0.495 -20.295,-0.495 -41,-1l-98,0Zm-795,12c5.94,0.99 5.94,0.99 12,2c2.475,2.97 2.475,2.97 5,6c0.495,1.98 0.495,1.98 1,4c1.98,0.33 3.96,0.66 6,1c1.98,1.32 3.96,2.64 6,4c0.66,1.32 1.32,2.64 2,4l0,7c-1.98,2.97 -1.98,2.97 -4,6c-1.32,0.66 -2.64,1.32 -4,2l-10,0l0,-5c2.97,-0.99 5.94,-1.98 9,-3c0.33,-2.31 0.66,-4.62 1,-7c-3.3,-0.33 -6.6,-0.66 -10,-1c-0.99,-1.32 -1.98,-2.64 -3,-4c-0.66,-2.31 -1.32,-4.62 -2,-7c-2.31,-0.33 -4.62,-0.66 -7,-1c-1.65,0.33 -3.3,0.66 -5,1c-0.66,2.97 -1.32,5.94 -2,9c-1.32,0.99 -2.64,1.98 -4,3l-3,0l0,7c4.455,1.98 4.455,1.98 9,4l0,5l-7,0c-1.98,-0.99 -3.96,-1.98 -6,-3c-1.32,-1.65 -2.64,-3.3 -4,-5l0,-8c1.32,-1.98 2.64,-3.96 4,-6l5,0c0.33,-2.64 0.66,-5.28 1,-8c1.65,-1.65 3.3,-3.3 5,-5c1.65,-0.66 3.3,-1.32 5,-2Zm408,3l11,0c1.98,1.32 3.96,2.64 6,4c0.66,1.32 1.32,2.64 2,4l0,6c1.32,0.66 2.64,1.32 4,2c0.66,2.64 1.32,5.28 2,8l0,4l2,0c0.33,-3.63 0.66,-7.26 1,-11c0.33,-0.66 0.66,-1.32 1,-2l5,0c0.495,0.99 0.495,0.99 1,2c0.495,-6.435 0.495,-6.435 1,-13c0.33,-0.33 0.66,-0.66 1,-1l5,0l0,10l9,0c2.475,1.98 2.475,1.98 5,4c0.495,1.485 0.495,1.485 1,3l0,8c-1.32,1.65 -2.64,3.3 -4,5c-1.32,0.66 -2.64,1.32 -4,2l-8,0c-1.32,-1.32 -2.64,-2.64 -4,-4l0,-7l-2,0c-0.33,2.31 -0.66,4.62 -1,7c-1.65,1.32 -3.3,2.64 -5,4l-6,0c-1.65,-1.32 -3.3,-2.64 -5,-4c-0.99,-3.63 -1.98,-7.26 -3,-11c-3.96,0.99 -7.92,1.98 -12,3l0,12c-2.475,0.495 -2.475,0.495 -5,1c-0.66,-0.99 -1.32,-1.98 -2,-3c-0.33,-2.97 -0.66,-5.94 -1,-9l0,-20c0.66,-0.99 1.32,-1.98 2,-3c0.99,-0.33 1.98,-0.66 3,-1Zm132,0l7,0c1.65,0.99 3.3,1.98 5,3c0.66,1.32 1.32,2.64 2,4c-0.33,1.98 -0.66,3.96 -1,6c-0.33,0.66 -0.66,1.32 -1,2c1.32,0.66 2.64,1.32 4,2c0.33,0.66 0.66,1.32 1,2c0.66,-1.32 1.32,-2.64 2,-4l5,0c0.66,1.65 1.32,3.3 2,5l0,7l3,0c0.33,-3.63 0.66,-7.26 1,-11c0.33,-0.33 0.66,-0.66 1,-1l5,0c0.495,0.495 0.495,0.495 1,1l0,11c-0.99,1.98 -1.98,3.96 -3,6c-1.32,0.66 -2.64,1.32 -4,2c-2.31,-0.33 -4.62,-0.66 -7,-1c-1.32,-1.32 -2.64,-2.64 -4,-4c-0.33,-0.66 -0.66,-1.32 -1,-2c-0.99,1.65 -1.98,3.3 -3,5c-1.65,0.99 -3.3,1.98 -5,3c-4.95,0.495 -4.95,0.495 -10,1c-1.65,-0.99 -3.3,-1.98 -5,-3c-0.33,-1.65 -0.66,-3.3 -1,-5c-0.33,-7.59 -0.66,-15.18 -1,-23c1.32,-1.65 2.64,-3.3 4,-5c0.99,-0.33 1.98,-0.66 3,-1Zm0,7l0,6c1.32,-0.33 2.64,-0.66 4,-1c0.99,-0.66 1.98,-1.32 3,-2l0,-3l-7,0Zm1,13l0,10l6,0c1.32,-1.32 2.64,-2.64 4,-4c-0.33,-1.65 -0.66,-3.3 -1,-5c-0.66,-0.33 -1.32,-0.66 -2,-1l-7,0Zm69,-20l5,0c0.66,0.99 1.32,1.98 2,3c0.66,7.59 1.32,15.18 2,23l0,6c-0.33,0.33 -0.66,0.66 -1,1c-7.425,0.99 -7.425,0.99 -15,2c-1.65,-1.32 -3.3,-2.64 -5,-4c-1.485,1.485 -1.485,1.485 -3,3c-1.65,-0.33 -3.3,-0.66 -5,-1c-0.66,-1.98 -1.32,-3.96 -2,-6c-0.33,-3.3 -0.66,-6.6 -1,-10l0,-12c0.66,-1.32 1.32,-2.64 2,-4c1.65,0.33 3.3,0.66 5,1c0.33,0.66 0.66,1.32 1,2c0.66,5.61 1.32,11.22 2,17c1.32,-1.98 2.64,-3.96 4,-6c0.66,-0.33 1.32,-0.66 2,-1l7,0l0,-14Zm-4,20c-0.33,0.66 -0.66,1.32 -1,2l0,6c1.32,-0.33 2.64,-0.66 4,-1c0.33,-2.31 0.66,-4.62 1,-7l-4,0Zm-139,-18c1.65,0.33 3.3,0.66 5,1c0.33,0.99 0.66,1.98 1,3c0.33,3.96 0.66,7.92 1,12l0,15c-0.33,0.33 -0.66,0.66 -1,1l-5,0c-0.66,-1.65 -1.32,-3.3 -2,-5c-0.33,-2.97 -0.66,-5.94 -1,-9l0,-16c0.66,-0.66 1.32,-1.32 2,-2Zm35,1c2.475,0.495 2.475,0.495 5,1c0.66,2.31 1.32,4.62 2,7l0,4l8,0c1.32,1.65 2.64,3.3 4,5c0.495,0.99 0.495,0.99 1,2l0,11c-1.65,0.33 -3.3,0.66 -5,1c-0.99,-1.65 -1.98,-3.3 -3,-5c-0.66,-1.32 -1.32,-2.64 -2,-4c-0.99,2.64 -1.98,5.28 -3,8c-1.65,0.33 -3.3,0.66 -5,1c-0.99,-0.66 -1.98,-1.32 -3,-2c-0.99,0.99 -1.98,1.98 -3,3c-1.485,0.495 -1.485,0.495 -3,1l-7,0c-0.99,-0.99 -1.98,-1.98 -3,-3c0.33,-1.65 0.66,-3.3 1,-5c2.64,0.33 5.28,0.66 8,1l0,-3c-1.98,-0.33 -3.96,-0.66 -6,-1c-0.99,-0.66 -1.98,-1.32 -3,-2l0,-7c1.32,-1.32 2.64,-2.64 4,-4l8,0c0.66,0.66 1.32,1.32 2,2c-0.33,1.32 -0.66,2.64 -1,4c-0.99,0.495 -0.99,0.495 -2,1c1.32,1.32 2.64,2.64 4,4c0.33,-6.27 0.66,-12.54 1,-19c0.33,-0.33 0.66,-0.66 1,-1Zm78,12c1.65,0.33 3.3,0.66 5,1c0.33,0.99 0.66,1.98 1,3l0,14c-1.32,0.33 -2.64,0.66 -4,1c-0.99,-0.66 -1.98,-1.32 -3,-2c-0.33,-1.65 -0.66,-3.3 -1,-5l0,-10c0.66,-0.66 1.32,-1.32 2,-2Zm-104,1l5,0c0.66,0.99 1.32,1.98 2,3l0,14c-1.65,0.33 -3.3,0.66 -5,1c-0.66,-0.66 -1.32,-1.32 -2,-2c-0.33,-1.65 -0.66,-3.3 -1,-5l0,-9c0.33,-0.66 0.66,-1.32 1,-2Zm-473,1c1.65,0.33 3.3,0.66 5,1c1.98,1.65 3.96,3.3 6,5l0,5c-1.65,0.33 -3.3,0.66 -5,1l0,9c-0.99,0.99 -1.98,1.98 -3,3c-1.32,-0.66 -2.64,-1.32 -4,-2l0,-11l-5,0c0.33,-2.31 0.66,-4.62 1,-7c1.65,-1.32 3.3,-2.64 5,-4Zm731,50l91,0c9.57,0.33 19.14,0.66 29,1c6.93,0.495 6.93,0.495 14,1c4.29,1.32 8.58,2.64 13,4c1.32,0.66 2.64,1.32 4,2c1.32,3.63 2.64,7.26 4,11c0.66,5.28 1.32,10.56 2,16c0.33,6.6 0.66,13.2 1,20l0,21c-0.66,8.58 -1.32,17.16 -2,26c-1.65,3.3 -3.3,6.6 -5,10c-2.64,1.65 -5.28,3.3 -8,5c-4.29,0.99 -8.58,1.98 -13,3c-3.3,0.33 -6.6,0.66 -10,1l-19,0c-15.18,-0.33 -30.36,-0.66 -46,-1l-90,0c-45.54,0.66 -91.08,1.32 -138,2c-65.01,1.32 -130.02,2.64 -197,4c-19.8,0.33 -39.6,0.66 -60,1c-51.48,0.495 -51.48,0.495 -104,1l-130,0c-28.05,-0.33 -56.1,-0.66 -85,-1c-3.3,-0.66 -6.6,-1.32 -10,-2c-3.3,-1.65 -6.6,-3.3 -10,-5c-1.98,-2.97 -3.96,-5.94 -6,-9c-0.99,-2.97 -0.99,-2.97 -2,-6c-0.33,-14.52 -0.66,-29.04 -1,-44l0,-34c1.32,-4.29 2.64,-8.58 4,-13c1.65,-1.65 3.3,-3.3 5,-5c1.65,-0.99 3.3,-1.98 5,-3c1.32,-0.33 2.64,-0.66 4,-1l13,0c10.23,-0.66 20.46,-1.32 31,-2c9.9,-0.33 19.8,-0.66 30,-1c18.48,-0.33 36.96,-0.66 56,-1l142,0c39.93,0.33 79.86,0.66 121,1l207,0c52.8,-0.66 105.6,-1.32 160,-2Zm25,12c-91.08,0.99 -91.08,0.99 -184,2l-189,0c-44.22,-0.33 -88.44,-0.66 -134,-1l-272,0c-2.64,0.99 -5.28,1.98 -8,3c-1.65,3.3 -3.3,6.6 -5,10l0,29c0.33,15.51 0.66,31.02 1,47c0.99,2.64 1.98,5.28 3,8c2.31,1.32 4.62,2.64 7,4c1.32,0.33 2.64,0.66 4,1c6.93,0.495 6.93,0.495 14,1l206,0c50.49,-0.495 50.49,-0.495 102,-1c68.97,-1.32 137.94,-2.64 209,-4c33,-0.66 66,-1.32 100,-2c43.065,-0.495 43.065,-0.495 87,-1l163,0c3.63,-0.66 7.26,-1.32 11,-2c1.32,-0.99 2.64,-1.98 4,-3c0.66,-8.25 1.32,-16.5 2,-25l0,-26c-0.66,-9.9 -1.32,-19.8 -2,-30c-0.66,-1.65 -1.32,-3.3 -2,-5c-3.96,-1.485 -3.96,-1.485 -8,-3c-6.93,-0.495 -6.93,-0.495 -14,-1c-11.88,-0.33 -23.76,-0.66 -36,-1l-59,0Zm175,-11l20,0c6.93,0.495 6.93,0.495 14,1c2.31,0.99 4.62,1.98 7,3c1.65,1.65 3.3,3.3 5,5c0.99,2.475 0.99,2.475 2,5c0.99,7.425 0.99,7.425 2,15c0.495,8.91 0.495,8.91 1,18l0,41c-0.99,6.27 -1.98,12.54 -3,19c-0.99,1.65 -1.98,3.3 -3,5c-2.64,1.32 -5.28,2.64 -8,4c-8.91,0.99 -8.91,0.99 -18,2l-20,0c-5.61,-0.66 -11.22,-1.32 -17,-2c-2.31,-0.99 -4.62,-1.98 -7,-3c-1.32,-1.65 -2.64,-3.3 -4,-5c-0.99,-3.96 -1.98,-7.92 -3,-12c-0.33,-9.24 -0.66,-18.48 -1,-28l0,-48c0.99,-3.3 1.98,-6.6 3,-10c1.65,-1.65 3.3,-3.3 5,-5c2.97,-0.99 5.94,-1.98 9,-3c5.28,-0.66 10.56,-1.32 16,-2Zm-14,10c-2.64,0.99 -5.28,1.98 -8,3c-0.66,1.98 -1.32,3.96 -2,6l0,38c0.33,11.22 0.66,22.44 1,34c0.66,3.96 1.32,7.92 2,12c0.99,0.99 1.98,1.98 3,3c1.65,0.33 3.3,0.66 5,1l44,0c3.465,-0.99 3.465,-0.99 7,-2c0.66,-3.96 1.32,-7.92 2,-12c0.33,-4.29 0.66,-8.58 1,-13l0,-33c-0.99,-14.355 -0.99,-14.355 -2,-29c-0.66,-1.98 -1.32,-3.96 -2,-6c-5.94,-0.99 -5.94,-0.99 -12,-2l-39,0Zm-921,14l9,0c2.64,1.32 5.28,2.64 8,4c1.32,1.65 2.64,3.3 4,5c0.66,1.65 1.32,3.3 2,5l0,9c-0.99,2.31 -1.98,4.62 -3,7c-2.31,1.98 -4.62,3.96 -7,6c-1.485,0.495 -1.485,0.495 -3,1l-11,0c-1.98,-0.99 -3.96,-1.98 -6,-3c-1.65,-1.65 -3.3,-3.3 -5,-5c-0.66,-1.65 -1.32,-3.3 -2,-5l0,-12c1.98,-2.64 3.96,-5.28 6,-8c2.64,-1.32 5.28,-2.64 8,-4Zm106,0c1.32,0.33 2.64,0.66 4,1c0.66,1.65 1.32,3.3 2,5c0.33,4.29 0.66,8.58 1,13l0,12c-1.65,0.33 -3.3,0.66 -5,1l0,-3l-2,0l0,3l-9,0c-0.99,-0.66 -1.98,-1.32 -3,-2c-0.33,0.66 -0.66,1.32 -1,2l-5,0c-0.66,-1.32 -1.32,-2.64 -2,-4c-0.33,-2.64 -0.66,-5.28 -1,-8l0,-16c0.33,-0.33 0.66,-0.66 1,-1l5,0c0.66,2.31 1.32,4.62 2,7c0.33,2.97 0.66,5.94 1,9c1.65,-1.65 3.3,-3.3 5,-5l6,0l0,-13c0.33,-0.33 0.66,-0.66 1,-1Zm-5,19c-0.33,2.31 -0.66,4.62 -1,7l4,0c0.33,-2.31 0.66,-4.62 1,-7l-4,0Zm285,-19c2.97,0.33 5.94,0.66 9,1c1.65,0.99 3.3,1.98 5,3c0.66,-0.99 1.32,-1.98 2,-3c1.32,0.33 2.64,0.66 4,1c1.65,2.64 3.3,5.28 5,8c0.99,-0.99 1.98,-1.98 3,-3c0.99,-1.98 1.98,-3.96 3,-6c1.32,-0.33 2.64,-0.66 4,-1c0.99,1.32 1.98,2.64 3,4c0.99,5.94 1.98,11.88 3,18l0,5c-0.495,0.495 -0.495,0.495 -1,1l-6,0c-0.99,-3.63 -1.98,-7.26 -3,-11c-0.99,1.32 -1.98,2.64 -3,4c-1.65,-0.33 -3.3,-0.66 -5,-1c-0.66,-0.66 -1.32,-1.32 -2,-2c-0.66,3.3 -1.32,6.6 -2,10c-1.32,0.33 -2.64,0.66 -4,1c-0.66,-0.99 -1.32,-1.98 -2,-3c-0.495,-4.95 -0.495,-4.95 -1,-10c-1.98,0.99 -3.96,1.98 -6,3l-4,0c0.33,2.64 0.66,5.28 1,8c-0.66,0.99 -1.32,1.98 -2,3l-4,0c-0.66,-2.64 -1.32,-5.28 -2,-8l0,-19c1.65,-0.99 3.3,-1.98 5,-3Zm1,6l0,7c1.65,-0.33 3.3,-0.66 5,-1c0.33,-1.65 0.66,-3.3 1,-5c-0.33,-0.33 -0.66,-0.66 -1,-1l-5,0Zm-243,-5l5,0l0,7c-2.31,8.25 -4.62,16.5 -7,25c-0.33,0.66 -0.66,1.32 -1,2l-5,0c-0.33,-1.65 -0.66,-3.3 -1,-5c1.32,-5.61 2.64,-11.22 4,-17c1.32,-3.63 2.64,-7.26 4,-11c0.33,-0.33 0.66,-0.66 1,-1Zm32,0l5,0c-0.33,3.3 -0.66,6.6 -1,10c-1.98,6.6 -3.96,13.2 -6,20c-0.66,1.32 -1.32,2.64 -2,4c-1.65,-0.33 -3.3,-0.66 -5,-1l0,-8c2.31,-7.26 4.62,-14.52 7,-22c0.66,-0.99 1.32,-1.98 2,-3Zm-136,1l10,0c1.65,1.65 3.3,3.3 5,5c-0.66,2.97 -1.32,5.94 -2,9c1.65,0.66 3.3,1.32 5,2c0.66,-0.99 1.32,-1.98 2,-3c2.475,0.495 2.475,0.495 5,1c0.33,3.3 0.66,6.6 1,10c0.66,-0.33 1.32,-0.66 2,-1c0.33,-2.97 0.66,-5.94 1,-9c0.33,-0.33 0.66,-0.66 1,-1l5,0c0.495,0.99 0.495,0.99 1,2l0,9c-0.99,1.65 -1.98,3.3 -3,5c-1.98,0.99 -1.98,0.99 -4,2c-1.98,-0.33 -3.96,-0.66 -6,-1c-1.32,-1.65 -2.64,-3.3 -4,-5c-0.99,1.65 -1.98,3.3 -3,5c-0.99,0.66 -1.98,1.32 -3,2l-13,0c-0.66,-0.66 -1.32,-1.32 -2,-2c-0.33,-2.31 -0.66,-4.62 -1,-7l0,-20c0.99,-0.99 1.98,-1.98 3,-3Zm3,5l0,6c1.65,-0.33 3.3,-0.66 5,-1l0,-5l-5,0Zm1,12c-0.33,0.33 -0.66,0.66 -1,1l0,8c2.475,0.495 2.475,0.495 5,1c1.65,-0.99 3.3,-1.98 5,-3l0,-5c-2.475,-0.99 -2.475,-0.99 -5,-2l-4,0Zm276,-17l4,0c-0.33,2.31 -0.66,4.62 -1,7c-1.98,2.97 -1.98,2.97 -4,6l9,0c1.32,1.65 2.64,3.3 4,5c-0.33,1.98 -0.66,3.96 -1,6c-1.32,1.32 -2.64,2.64 -4,4c-0.66,0.33 -1.32,0.66 -2,1l-6,0c-1.65,-0.99 -3.3,-1.98 -5,-3c-0.66,-0.99 -1.32,-1.98 -2,-3c-0.66,1.32 -1.32,2.64 -2,4l-5,0c-0.66,-1.98 -1.32,-3.96 -2,-6l0,-19c1.65,-0.33 3.3,-0.66 5,-1c0.66,1.32 1.32,2.64 2,4c0.33,3.63 0.66,7.26 1,11c0.66,-2.97 1.32,-5.94 2,-9c1.65,-1.98 3.3,-3.96 5,-6c0.66,-0.33 1.32,-0.66 2,-1Zm2,18c-0.33,1.32 -0.66,2.64 -1,4l5,0l0,-4l-4,0Zm34,-18l11,0c1.32,0.99 2.64,1.98 4,3c-0.33,1.98 -0.66,3.96 -1,6c-0.99,1.485 -0.99,1.485 -2,3c0.33,1.65 1.66,8.3 2,10c-0.99,2.475 -0.99,2.475 -2,5c-0.66,0.66 -1.32,1.32 -2,2l-7,0c-1.32,-1.32 -2.64,-2.64 -4,-4l0,-12c-0.66,-0.66 -1.32,-1.32 -2,-2l0,-8c0.99,-0.99 1.98,-1.98 3,-3Zm3,6l0,3l4,0l0,-3l-4,0Zm2,13l0,4l2,0l0,-4l-2,0Zm-118,-18l5,0l0,5c-1.32,1.65 -2.64,3.3 -4,5c-0.33,0.99 -0.66,1.98 -1,3c2.64,-0.33 5.28,-0.66 8,-1c1.32,1.32 2.64,2.64 4,4l0,8c-1.32,1.32 -2.64,2.64 -4,4l-9,0c-1.65,-1.32 -3.3,-2.64 -5,-4c-0.66,-1.65 -1.32,-3.3 -2,-5c0.495,-4.455 0.495,-4.455 1,-9c1.32,-2.31 2.64,-4.62 4,-7c0.99,-0.99 1.98,-1.98 3,-3Zm3,18c-0.99,1.485 -0.99,1.485 -2,3c2.475,0.495 2.475,0.495 5,1c0.33,-1.32 0.66,-2.64 1,-4l-4,0Zm28,-18l14,0l0,5c-3.3,0.33 -6.6,0.66 -10,1l0,3c2.97,0.33 5.94,0.66 9,1c0.99,0.66 1.98,1.32 3,2c0.33,2.97 0.66,5.94 1,9c-1.65,1.98 -3.3,3.96 -5,6c-0.99,0.33 -1.98,0.66 -3,1l-7,0c-0.66,-0.66 -1.32,-1.32 -2,-2l0,-5l9,0c0.33,-1.65 0.66,-3.3 1,-5l-10,0c-0.66,-0.66 -1.32,-1.32 -2,-2l0,-12c0.66,-0.66 1.32,-1.32 2,-2Zm71,0l4,0c0.66,2.64 1.32,5.28 2,8l0,17c-0.66,0.66 -1.32,1.32 -2,2c-1.32,-0.33 -2.64,-0.66 -4,-1c-0.33,-0.66 -0.66,-1.32 -1,-2c-0.33,-3.3 -0.66,-6.6 -1,-10l0,-11c0.66,-0.99 1.32,-1.98 2,-3Zm-192,1l12,0c0.99,0.99 1.98,1.98 3,3c-0.66,3.96 -1.32,7.92 -2,12c-1.65,3.96 -3.3,7.92 -5,12c-1.32,0.33 -2.64,0.66 -4,1c-0.33,-0.33 -0.66,-0.66 -1,-1l0,-9c1.32,-3.96 2.64,-7.92 4,-12l-10,0c0.33,-1.65 0.66,-3.3 1,-5c0.66,-0.33 1.32,-0.66 2,-1Zm34,0l6,0c1.32,1.32 2.64,2.64 4,4l0,7c-1.32,2.64 -2.64,5.28 -4,8c1.98,0.99 3.96,1.98 6,3c-0.33,1.65 -0.66,3.3 -1,5c-0.66,0.33 -1.32,0.66 -2,1l-12,0c-0.99,-0.66 -1.98,-1.32 -3,-2l0,-5c2.64,-3.3 5.28,-6.6 8,-10c0.33,-1.32 0.66,-2.64 1,-4c-2.64,0.33 -5.28,0.66 -8,1c0.33,-1.65 0.66,-3.3 1,-5c1.32,-0.99 2.64,-1.98 4,-3Zm35,0l8,0c0.99,0.66 1.98,1.32 3,2l0,10c-1.65,2.97 -3.3,5.94 -5,9l8,0c-0.33,1.65 -0.66,3.3 -1,5c-0.66,0.33 -1.32,0.66 -2,1l-14,0c-0.66,-0.66 -1.32,-1.32 -2,-2c0.33,-1.65 0.66,-3.3 1,-5c2.31,-2.97 4.62,-5.94 7,-9c0.66,-1.65 1.32,-3.3 2,-5c-0.99,0.495 -0.99,0.495 -2,1l-7,0c0.33,-1.65 0.66,-3.3 1,-5c0.99,-0.66 1.98,-1.32 3,-2Zm-95,1l5,0c0.33,0.66 0.66,1.32 1,2c0.33,2.97 0.66,5.94 1,9l0,12c-0.33,0.99 -0.66,1.98 -1,3l-5,0c-0.66,-2.31 -1.32,-4.62 -2,-7l0,-17c0.33,-0.66 0.66,-1.32 1,-2Zm76,1l9,0c1.65,1.32 3.3,2.64 5,4c0.33,0.99 0.66,1.98 1,3l0,10c-0.99,1.65 -1.98,3.3 -3,5c-2.475,1.485 -2.475,1.485 -5,3c-2.31,-0.33 -4.62,-0.66 -7,-1c-1.65,-1.98 -3.3,-3.96 -5,-6c-0.33,-2.64 -0.66,-5.28 -1,-8c0.99,-2.31 1.98,-4.62 3,-7c0.99,-0.99 1.98,-1.98 3,-3Zm3,5c-0.99,1.65 -1.98,3.3 -3,5c0.33,2.31 0.66,4.62 1,7c2.97,0.495 2.97,0.495 6,1c0.66,-0.66 1.32,-1.32 2,-2l0,-8c-0.33,-0.66 -0.66,-1.32 -1,-2c-1.65,-0.33 -3.3,-0.66 -5,-1Zm88,-5l6,0c0.33,0.33 0.66,0.66 1,1c-0.33,2.31 -0.66,4.62 -1,7l-7,0l0,-7c0.33,-0.33 0.66,-0.66 1,-1Zm-218,2l6,0l0,5c-0.33,0.33 -0.66,0.66 -1,1l-5,0l0,-6Zm2,7c1.65,0.33 3.3,0.66 5,1c0.33,0.99 0.66,1.98 1,3l0,12c-1.65,0.33 -3.3,0.66 -5,1c-0.66,-0.99 -1.32,-1.98 -2,-3l0,-13c0.33,-0.33 0.66,-0.66 1,-1Zm216,5l5,0c0.66,0.66 1.32,1.32 2,2l0,6c-0.33,0.33 -0.66,0.66 -1,1l-6,0c-0.33,-0.33 -0.66,-0.66 -1,-1l0,-7c0.33,-0.33 0.66,-0.66 1,-1Zm-36,4c1.65,0.33 3.3,0.66 5,1c0.33,1.32 0.66,2.64 1,4c-0.99,2.31 -1.98,4.62 -3,7c-1.65,-0.33 -3.3,-0.66 -5,-1c0.33,-3.3 0.66,-6.6 1,-10c0.33,-0.33 0.66,-0.66 1,-1Zm593,0c2.475,0.495 2.475,0.495 5,1c0.33,1.32 0.66,2.64 1,4c-1.98,2.97 -1.98,2.97 -4,6c-2.31,2.64 -4.62,5.28 -7,8c-0.66,0.33 -1.32,0.66 -2,1l-6,0c-2.31,-1.98 -4.62,-3.96 -7,-6c-1.65,-2.31 -3.3,-4.62 -5,-7l0,-6l5,0c2.31,2.31 4.62,4.62 7,7l5,0c1.98,-2.31 3.96,-4.62 6,-7c0.66,-0.33 1.32,-0.66 2,-1Zm75,5l5,0c0.66,0.66 1.32,1.32 2,2l0,7c-0.66,0.66 -1.32,1.32 -2,2c-1.65,-0.33 -3.3,-0.66 -5,-1c-0.66,-0.66 -1.32,-1.32 -2,-2l0,-6c0.66,-0.66 1.32,-1.32 2,-2Zm15,0l5,0c0.66,0.66 1.32,1.32 2,2l0,7c-0.66,0.66 -1.32,1.32 -2,2c-2.97,-0.495 -2.97,-0.495 -6,-1c-0.33,-0.33 -0.66,-0.66 -1,-1l0,-7c0.66,-0.66 1.32,-1.32 2,-2Zm15,0l5,0c0.66,0.66 1.32,1.32 2,2l0,7c-0.33,0.33 -0.66,0.66 -1,1l-8,0c-0.33,-2.31 -0.66,-4.62 -1,-7c0.99,-0.99 1.98,-1.98 3,-3Zm-880,18l6,0c1.32,1.32 2.64,2.64 4,4l0,4l-5,0l0,-2l-2,0c-0.33,2.97 -0.66,5.94 -1,9l7,0l0,4l-7,0c0.33,0.66 0.66,1.32 1,2l0,9c-1.65,-0.33 -3.3,-0.66 -5,-1c-0.33,-2.97 -0.66,-5.94 -1,-9l-4,0l0,-4l3,0l0,-10c0.99,-1.65 1.98,-3.3 3,-5c0.33,-0.33 0.66,-0.66 1,-1Zm-86,1l11,0c0.99,0.66 1.98,1.32 3,2l0,4c1.32,-0.33 2.64,-0.66 4,-1l12,0c0.99,0.66 1.98,1.32 3,2c0.495,1.485 0.495,1.485 1,3l0,15c-0.99,1.65 -1.98,3.3 -3,5c-0.495,0.495 -0.495,0.495 -1,1c-2.31,0.33 -4.62,0.66 -7,1l-20,0c-2.475,-0.99 -2.475,-0.99 -5,-2c-0.66,-0.99 -1.32,-1.98 -2,-3l0,-23c1.32,-1.32 2.64,-2.64 4,-4Zm1,6c-0.33,0.99 -0.66,1.98 -1,3l0,12c0.66,1.32 1.32,2.64 2,4c1.32,0.33 2.64,0.66 4,1l12,0c2.97,-0.33 5.94,-0.66 9,-1c0.33,-0.33 0.66,-0.66 1,-1c0.33,-3.3 0.66,-6.6 1,-10c-0.33,-0.99 -0.66,-1.98 -1,-3c-2.64,-0.33 -5.28,-0.66 -8,-1l-7,0c-1.32,-1.32 -2.64,-2.64 -4,-4l-8,0Zm55,-5l6,0c1.32,0.99 2.64,1.98 4,3c0.33,2.64 0.66,5.28 1,8c-1.65,3.3 -3.3,6.6 -5,10c2.31,0.33 4.62,0.66 7,1c0.33,1.65 0.66,3.3 1,5c-0.66,0.66 -1.32,1.32 -2,2l-17,0c-0.33,-1.65 -0.66,-3.3 -1,-5c1.32,-1.98 2.64,-3.96 4,-6c1.32,-1.65 2.64,-3.3 4,-5c0.66,-1.98 1.32,-3.96 2,-6c-1.65,0.66 -3.3,1.32 -5,2l-4,0c0.33,-2.31 0.66,-4.62 1,-7c1.32,-0.66 2.64,-1.32 4,-2Zm145,1l5,0c0.99,0.99 1.98,1.98 3,3c0.66,1.98 1.32,3.96 2,6l0,4l2,0c0.66,-2.31 1.32,-4.62 2,-7c0.66,-0.66 1.32,-1.32 2,-2l5,0c0.99,0.99 1.98,1.98 3,3c0.33,1.98 0.66,3.96 1,6c1.65,-1.65 3.3,-3.3 5,-5c0.99,-0.66 1.98,-1.32 3,-2c1.32,0.33 2.64,0.66 4,1c0.99,0.99 1.98,1.98 3,3c1.65,-0.33 3.3,-0.66 5,-1c0.99,-0.33 1.98,-0.66 3,-1l7,0c3.96,1.65 7.92,3.3 12,5l7,0c3.3,-0.99 6.6,-1.98 10,-3l46,0c1.65,0.66 3.3,1.32 5,2l0,5c-1.32,0.66 -2.64,1.32 -4,2c-5.28,0.33 -10.56,0.66 -16,1l-17,0c-1.65,-0.33 -3.3,-0.66 -5,-1l-8,0c-4.95,1.485 -4.95,1.485 -10,3l-9,0c-4.62,-1.65 -9.24,-3.3 -14,-5c-1.65,0.33 -3.3,0.66 -5,1c-0.99,0.66 -1.98,1.32 -3,2l-6,0c-1.32,-0.99 -2.64,-1.98 -4,-3c-1.65,1.98 -3.3,3.96 -5,6l-6,0c-0.99,-1.32 -1.98,-2.64 -3,-4c-0.33,-0.99 -0.66,-1.98 -1,-3c-0.66,-0.33 -1.32,-0.66 -2,-1c-0.33,2.64 -0.66,5.28 -1,8c-1.32,1.32 -2.64,2.64 -4,4c-1.32,-0.33 -2.64,-0.66 -4,-1c-0.99,-1.65 -1.98,-3.3 -3,-5c-0.66,-1.98 -1.32,-3.96 -2,-6l0,-7l-2,0c-0.33,2.64 -0.66,5.28 -1,8c-0.99,2.64 -1.98,5.28 -3,8l-4,0l0,-9c1.32,-3.96 2.64,-7.92 4,-12c0.99,-0.99 1.98,-1.98 3,-3Zm-104,5l6,0l0,5c-0.33,0.33 -0.66,0.66 -1,1l-5,0l0,-6Zm8,-6l5,0c0.99,4.29 1.98,8.58 3,13c0.99,-1.65 1.98,-3.3 3,-5c4.455,-0.495 4.455,-0.495 9,-1c0.99,0.66 1.98,1.32 3,2l0,7c-1.32,1.32 -2.64,2.64 -4,4c-0.66,0.33 -1.32,0.66 -2,1c2.31,0.66 4.62,1.32 7,2c-0.33,1.65 -0.66,3.3 -1,5c-0.66,0.33 -1.32,0.66 -2,1l-6,0c-1.98,-1.32 -3.96,-2.64 -6,-4c-0.99,0.99 -1.98,1.98 -3,3c-1.32,-0.33 -2.64,-0.66 -4,-1c-0.66,-1.65 -1.32,-3.3 -2,-5c-0.33,-6.6 -0.66,-13.2 -1,-20c0.33,-0.66 0.66,-1.32 1,-2Zm16,12l0,2l2,0l0,-2l-2,0Zm13,-5l5,0c0.66,0.66 1.32,1.32 2,2l0,3l-6,0l0,2c1.65,0.33 3.3,0.66 5,1c1.32,0.99 2.64,1.98 4,3l0,7c-0.99,0.99 -1.98,1.98 -3,3c-0.66,0.33 -1.32,0.66 -2,1l-6,0c-0.99,-0.66 -1.98,-1.32 -3,-2c0.33,-1.65 0.66,-3.3 1,-5l6,0l0,-2c-2.31,-0.66 -4.62,-1.32 -7,-2l0,-8c0.33,-0.66 0.66,-1.32 1,-2c0.99,-0.33 1.98,-0.66 3,-1Zm-37,6l5,0c0.33,0.66 0.66,1.32 1,2l0,11l-5,0c-0.66,-2.64 -1.32,-5.28 -2,-8c0.33,-1.65 0.66,-3.3 1,-5Zm278,80c2.475,0.495 2.475,0.495 5,1c0.66,1.65 1.32,3.3 2,5c0.66,6.6 1.32,13.2 2,20c0.495,1.485 0.495,1.485 1,3c0.495,-0.495 0.495,-0.495 1,-1c2.64,0.33 5.28,0.66 8,1l0,-3c-1.98,-0.33 -3.96,-0.66 -6,-1c-1.32,-1.32 -2.64,-2.64 -4,-4c0.33,-2.31 0.66,-4.62 1,-7c0.99,-0.66 1.98,-1.32 3,-2l9,0c0.495,2.475 0.495,2.475 1,5c-1.32,0.33 -2.64,0.66 -4,1c2.31,1.98 4.62,3.96 7,6c0.495,3.465 0.495,3.465 1,7c-1.32,1.32 -2.64,2.64 -4,4c-0.99,0.495 -0.99,0.495 -2,1l-9,0c-1.32,-0.66 -2.64,-1.32 -4,-2c-2.475,0.495 -2.475,0.495 -5,1l-11,0c-1.65,-0.99 -3.3,-1.98 -5,-3c-0.66,0.99 -1.32,1.98 -2,3l-5,0c-0.66,-2.64 -1.32,-5.28 -2,-8c-0.33,-7.26 -0.66,-14.52 -1,-22c0.66,-0.99 1.32,-1.98 2,-3c1.65,0.33 3.3,0.66 5,1c0.66,3.3 1.32,6.6 2,10c0.33,2.97 0.66,5.94 1,9c0.99,-1.65 1.98,-3.3 3,-5c0.66,-0.66 1.32,-1.32 2,-2l8,0c-0.33,-0.99 -0.66,-1.98 -1,-3l0,-11c0.33,-0.33 0.66,-0.66 1,-1Zm-4,20c-0.99,1.485 -0.99,1.485 -2,3l0,5l4,0c0.33,-0.66 0.66,-1.32 1,-2l0,-6l-3,0Zm-67,-18l10,0c1.65,1.65 3.3,3.3 5,5l0,10c0.99,0.99 1.98,1.98 3,3c0.99,-1.32 1.98,-2.64 3,-4c2.475,0.495 2.475,0.495 5,1c1.485,4.95 1.485,4.95 3,10c0.495,-0.495 0.495,-0.495 1,-1c0.33,-2.97 0.66,-5.94 1,-9c0.33,-0.33 0.66,-0.66 1,-1l5,0c0.495,0.99 0.495,0.99 1,2l0,10c-1.32,2.31 -2.64,4.62 -4,7c-0.99,0.495 -0.99,0.495 -2,1l-6,0c-1.65,-1.32 -3.3,-2.64 -5,-4c-0.33,-0.66 -0.66,-1.32 -1,-2c-3.96,3.465 -3.96,3.465 -8,7c-1.485,0.495 -1.485,0.495 -3,1l-8,0c-1.65,-1.32 -3.3,-2.64 -5,-4c-0.33,-4.62 -0.66,-9.24 -1,-14l0,-14c1.65,-1.32 3.3,-2.64 5,-4Zm2,6l0,6c1.65,-0.33 3.3,-0.66 5,-1c0.33,-1.65 0.66,-3.3 1,-5l-6,0Zm0,13l0,10l7,0c1.32,-0.99 2.64,-1.98 4,-3c-0.33,-1.65 -0.66,-3.3 -1,-5c-1.32,-0.66 -2.64,-1.32 -4,-2l-6,0Zm625,-18c1.32,0.33 2.64,0.66 4,1c0.33,0.33 0.66,0.66 1,1l0,7c2.97,0.495 2.97,0.495 6,1c0.66,-0.66 1.32,-1.32 2,-2l7,0l0,4c-0.66,0.33 -1.32,0.66 -2,1c2.475,1.98 2.475,1.98 5,4c0.495,3.465 0.495,3.465 1,7c-0.66,0.99 -1.32,1.98 -2,3c-0.99,0.33 -1.98,0.66 -3,1l-7,0c-0.66,-0.33 -1.32,-0.66 -2,-1c0.33,-1.65 0.66,-3.3 1,-5c0.99,-0.66 1.98,-1.32 3,-2c-1.32,-1.32 -2.64,-2.64 -4,-4l0,-2l-5,0c0.33,0.99 0.66,1.98 1,3l0,10c-1.65,-0.33 -3.3,-0.66 -5,-1c-0.66,-1.32 -1.32,-2.64 -2,-4c0.33,-2.64 0.66,-5.28 1,-8c-1.32,0.33 -2.64,0.66 -4,1c0.33,3.3 0.66,6.6 1,10c-1.65,0.33 -3.3,0.66 -5,1c-0.99,-2.97 -1.98,-5.94 -3,-9c-1.32,3.3 -2.64,6.6 -4,10c-1.65,-0.33 -3.3,-0.66 -5,-1l0,-14c1.98,-0.66 3.96,-1.32 6,-2l6,0c0.66,0.66 1.32,1.32 2,2c0.33,-0.99 0.66,-1.98 1,-3l4,0l0,-8c0.33,-0.33 0.66,-0.66 1,-1Zm-872,2l17,0c0.33,1.65 0.66,3.3 1,5c-0.99,0.66 -1.98,1.32 -3,2l-12,0c-0.33,2.64 -0.66,5.28 -1,8c5.94,-0.495 5.94,-0.495 12,-1c0.33,1.65 0.66,3.3 1,5c-0.33,0.33 -0.66,0.66 -1,1c-3.63,0.33 -7.26,0.66 -11,1l0,14l-5,0c-0.66,-0.99 -1.32,-1.98 -2,-3c-0.33,-4.62 -0.66,-9.24 -1,-14l0,-15c1.65,-0.99 3.3,-1.98 5,-3Zm463,0l7,0c3.465,1.98 3.465,1.98 7,4c1.65,1.65 3.3,3.3 5,5c0.66,1.65 1.32,3.3 2,5c1.32,-1.32 2.64,-2.64 4,-4c1.65,-0.33 3.3,-0.66 5,-1c2.475,0.99 2.475,0.99 5,2c0.495,2.97 0.495,2.97 1,6c-1.32,1.65 -2.64,3.3 -4,5l-4,0l0,2l7,0c0.495,2.475 0.495,2.475 1,5c-0.99,0.66 -1.98,1.32 -3,2l-6,0c-1.98,-1.65 -3.96,-3.3 -6,-5c-0.66,-0.99 -1.32,-1.98 -2,-3c-2.97,2.64 -5.94,5.28 -9,8l-9,0c-0.66,-0.66 -1.32,-1.32 -2,-2c-0.33,-3.96 -0.66,-7.92 -1,-12l0,-15c0.66,-0.66 1.32,-1.32 2,-2Zm3,6c0.33,4.95 0.66,9.9 1,15c0.33,0.99 0.66,1.98 1,3c1.98,-0.33 3.96,-0.66 6,-1c0.99,-1.32 1.98,-2.64 3,-4l0,-7c-2.31,-1.98 -4.62,-3.96 -7,-6l-4,0Zm25,8l0,2l2,0l0,-2l-2,0Zm228,-15l10,0c1.65,0.99 3.3,1.98 5,3c1.65,1.98 3.3,3.96 5,6c0.99,1.485 0.99,1.485 2,3c1.65,-1.32 3.3,-2.64 5,-4l6,0c0.66,0.33 1.32,0.66 2,1l0,8c-1.32,1.32 -2.64,2.64 -4,4c2.475,0.99 2.475,0.99 5,2l0,-10c1.32,-1.32 2.64,-2.64 4,-4l8,0c1.32,0.99 2.64,1.98 4,3c0.33,-3.3 0.66,-6.6 1,-10c0.33,-0.33 0.66,-0.66 1,-1l5,0c0.66,4.62 1.32,9.24 2,14c0.66,-1.32 1.32,-2.64 2,-4c0.66,-0.33 1.32,-0.66 2,-1l7,0c1.32,0.99 2.64,1.98 4,3c0.33,-0.66 0.66,-1.32 1,-2c1.32,0.33 2.64,0.66 4,1c0.99,1.32 1.98,2.64 3,4l0,3l2,0c0.33,-2.31 0.66,-4.62 1,-7c2.31,-0.66 4.62,-1.32 7,-2l20,0c0.99,0.99 1.98,1.98 3,3c1.32,-1.65 2.64,-3.3 4,-5c0.66,-0.33 1.32,-0.66 2,-1l6,0c0.99,0.99 1.98,1.98 3,3l0,5c-1.98,1.65 -3.96,3.3 -6,5c1.98,0.66 3.96,1.32 6,2c-0.33,1.65 -0.66,3.3 -1,5c-2.31,0.33 -4.62,0.66 -7,1c-1.65,-0.99 -3.3,-1.98 -5,-3c-0.495,-0.99 -0.495,-0.99 -1,-2c-0.33,0.66 -0.66,1.32 -1,2l-5,0c-0.99,-2.97 -0.99,-2.97 -2,-6c-0.99,1.98 -1.98,3.96 -3,6l-4,0c-0.495,-0.99 -0.495,-0.99 -1,-2l0,-8l-2,0l0,9c-0.33,0.66 -0.66,1.32 -1,2c-1.65,-0.33 -3.3,-0.66 -5,-1c-0.99,-2.475 -0.99,-2.475 -2,-5c-1.98,5.28 -3.96,10.56 -6,16c-0.99,0.99 -0.99,0.99 -2,2c-1.65,-0.33 -3.3,-0.66 -5,-1c0.33,-4.95 0.66,-9.9 1,-15c-0.99,-0.99 -0.99,-0.99 -2,-2c-1.32,1.98 -2.64,3.96 -4,6c-0.66,0.33 -1.32,0.66 -2,1l-7,0c-1.32,-0.66 -2.64,-1.32 -4,-2c-0.495,0.495 -0.495,0.495 -1,1l-5,0c-0.66,-1.32 -1.32,-2.64 -2,-4c-1.32,1.32 -2.64,2.64 -4,4l-6,0c0.495,5.445 0.495,5.445 1,11c-2.475,0.495 -2.475,0.495 -5,1c-0.66,-1.32 -1.32,-2.64 -2,-4c-0.495,-2.97 -0.495,-2.97 -1,-6c-0.99,0.495 -0.99,0.495 -2,1l-7,0c-1.65,-1.32 -3.3,-2.64 -5,-4c-0.66,-1.32 -1.32,-2.64 -2,-4c-2.64,2.31 -5.28,4.62 -8,7c-0.66,0.33 -1.32,0.66 -2,1l-7,0c-0.66,-0.66 -1.32,-1.32 -2,-2c-0.66,-5.94 -1.32,-11.88 -2,-18l0,-8c0.33,-0.33 0.66,-0.66 1,-1Zm5,5c0.33,5.61 0.66,11.22 1,17c1.98,-0.33 3.96,-0.66 6,-1c0.99,-0.99 1.98,-1.98 3,-3l0,-7c-1.32,-1.65 -2.64,-3.3 -4,-5c-2.97,-0.495 -2.97,-0.495 -6,-1Zm120,7l0,2l2,0l0,-2l-2,0Zm-97,1l0,2l3,0l0,-2l-3,0Zm39,2l0,6c1.32,-0.33 2.64,-0.66 4,-1c-0.33,-1.65 -0.66,-3.3 -1,-5l-3,0Zm-211,-13l5,0c0.495,4.455 0.495,4.455 1,9c2.475,0.495 2.475,0.495 5,1l0,4l-5,0c0.495,6.435 0.495,6.435 1,13l-5,0c-0.66,-0.99 -1.32,-1.98 -2,-3l0,-9l-4,0c0.66,1.65 1.32,3.3 2,5l0,7l-8,0c-2.31,0.33 -4.62,0.66 -7,1c-0.99,-0.66 -1.98,-1.32 -3,-2c-0.33,0.33 -0.66,0.66 -1,1l-5,0c-0.66,-1.98 -1.32,-3.96 -2,-6l0,-4l-2,0c-0.66,3.3 -1.32,6.6 -2,10c-1.65,0.33 -3.3,0.66 -5,1c-0.33,-0.33 -0.66,-0.66 -1,-1l0,-15c0.33,-0.33 0.66,-0.66 1,-1l12,0c0.99,0.99 1.98,1.98 3,3c0.33,0.99 0.66,1.98 1,3c1.32,-1.98 2.64,-3.96 4,-6c0.66,-0.33 1.32,-0.66 2,-1l6,0c0.99,0.66 1.98,1.32 3,2c0.33,-0.66 0.66,-1.32 1,-2l5,0l0,-10Zm-13,15c-0.66,0.66 -1.32,1.32 -2,2l0,4l3,0l0,-6l-1,0Zm-45,-14l5,0l0,10l6,0l0,4l-5,0c0.33,3.96 0.66,7.92 1,12c-1.65,0.33 -3.3,0.66 -5,1c-0.33,-0.33 -0.66,-0.66 -1,-1l0,-11l-5,0l0,-5l4,0l0,-10Zm-232,1l6,0l0,5c-0.33,0.33 -0.66,0.66 -1,1l-5,0l0,-6Zm-257,-3c1.65,0.33 3.3,0.66 5,1c0.66,3.3 1.32,6.6 2,10c0.33,3.63 0.66,7.26 1,11c0.99,-2.97 1.98,-5.94 3,-9c1.32,-0.99 2.64,-1.98 4,-3l8,0c1.32,0.99 2.64,1.98 4,3l0,6c-0.99,1.65 -1.98,3.3 -3,5c-2.475,1.485 -2.475,1.485 -5,3c2.64,0.33 5.28,0.66 8,1l0,5c-0.66,0.66 -1.32,1.32 -2,2l-9,0c-2.31,-1.98 -4.62,-3.96 -7,-6c-0.99,2.475 -0.99,2.475 -2,5l-6,0c-0.66,-3.3 -1.32,-6.6 -2,-10l0,-23c0.33,-0.33 0.66,-0.66 1,-1Zm18,16c-0.33,0.66 -0.66,1.32 -1,2c0.99,-0.33 1.98,-0.66 3,-1c-0.66,-0.33 -1.32,-0.66 -2,-1Zm16,-6l6,0c0.66,0.33 1.32,0.66 2,1l0,5c-0.99,0.66 -1.98,1.32 -3,2c2.31,1.98 4.62,3.96 7,6l0,6c-1.32,1.32 -2.64,2.64 -4,4c-0.66,0.33 -1.32,0.66 -2,1l-10,0c-0.33,-1.98 -0.66,-3.96 -1,-6c0.33,-0.33 0.66,-0.66 1,-1l7,0l0,-3c-2.475,-0.99 -2.475,-0.99 -5,-2c-0.99,-0.99 -1.98,-1.98 -3,-3l0,-6c0.66,-0.99 1.32,-1.98 2,-3c0.99,-0.33 1.98,-0.66 3,-1Zm442,0l6,0c0.33,1.65 0.66,3.3 1,5l-4,0l0,2c1.65,0.33 3.3,0.66 5,1c0.66,0.66 1.32,1.32 2,2l0,7c-1.65,1.32 -3.3,2.64 -5,4l-7,0c-0.66,-0.66 -1.32,-1.32 -2,-2c0.33,-1.65 0.66,-3.3 1,-5c2.31,0.33 4.62,0.66 7,1l0,-3c-1.65,-0.33 -3.3,-0.66 -5,-1c-0.99,-0.66 -1.98,-1.32 -3,-2l0,-6c1.32,-0.99 2.64,-1.98 4,-3Zm128,-1l8,0l0,5c-0.99,0.495 -0.99,0.495 -2,1c1.65,1.32 3.3,2.64 5,4l0,7c-0.99,0.99 -1.98,1.98 -3,3l-9,0c-0.99,-0.66 -1.98,-1.32 -3,-2c-1.32,0.33 -2.64,0.66 -4,1c-0.66,-0.99 -1.32,-1.98 -2,-3l0,-8l-3,0c-0.33,2.97 -0.66,5.94 -1,9c-0.33,0.66 -0.66,1.32 -1,2c-1.65,-0.33 -3.3,-0.66 -5,-1c-0.33,-0.33 -0.66,-0.66 -1,-1l0,-13c2.31,-0.99 4.62,-1.98 7,-3c2.31,0.33 4.62,0.66 7,1c0.99,1.65 1.98,3.3 3,5c0.66,2.31 1.32,4.62 2,7l7,0l0,-2c-1.98,-0.66 -3.96,-1.32 -6,-2c-0.33,-0.33 -0.66,-0.66 -1,-1l0,-7c0.66,-0.66 1.32,-1.32 2,-2Zm-346,2c1.65,0.33 3.3,0.66 5,1c0.33,0.66 0.66,1.32 1,2l0,15c-1.65,0.33 -3.3,0.66 -5,1c-0.66,-0.66 -1.32,-1.32 -2,-2c-0.33,-4.29 -0.66,-8.58 -1,-13c0.66,-1.32 1.32,-2.64 2,-4Zm312,0l7,0c1.65,0.99 3.3,1.98 5,3l0,10c-1.32,1.32 -2.64,2.64 -4,4c-2.31,0.33 -4.62,0.66 -7,1c-1.65,-1.65 -3.3,-3.3 -5,-5l0,-8c0.66,-1.32 1.32,-2.64 2,-4c0.66,-0.33 1.32,-0.66 2,-1Zm3,5c-0.33,1.98 -0.66,3.96 -1,6l4,0c0.33,-1.65 0.66,-3.3 1,-5c-1.32,-0.33 -2.64,-0.66 -4,-1Zm-13,-4l4,0c0.33,0.66 0.66,1.32 1,2l0,13c-1.32,0.33 -2.64,0.66 -4,1c-0.66,-0.66 -1.32,-1.32 -2,-2c-0.33,-3.3 -0.66,-6.6 -1,-10c0.66,-1.32 1.32,-2.64 2,-4Zm-58,1c1.65,0.33 3.3,0.66 5,1c0.33,1.65 0.66,3.3 1,5l0,8c-0.66,0.66 -1.32,1.32 -2,2c-1.32,-0.33 -2.64,-0.66 -4,-1c-0.33,-0.66 -0.66,-1.32 -1,-2l0,-12c0.33,-0.33 0.66,-0.66 1,-1Zm-511,2c1.98,0.495 1.98,0.495 4,1c0.66,0.99 1.32,1.98 2,3l0,14c-1.65,0.33 -3.3,0.66 -5,1c-0.66,-0.99 -1.32,-1.98 -2,-3l0,-15c0.33,-0.33 0.66,-0.66 1,-1Zm370,28l29,0c0.99,0.66 1.98,1.32 3,2l0,6c-2.475,1.485 -2.475,1.485 -5,3c-11.88,0.33 -23.76,0.66 -36,1c-65.01,0.33 -130.02,0.66 -197,1c-5.61,-0.33 -11.22,-0.66 -17,-1c-0.66,-0.66 -1.32,-1.32 -2,-2l0,-5c3.3,-0.66 6.6,-1.32 10,-2c9.24,-0.33 18.48,-0.66 28,-1c15.51,-0.33 31.02,-0.66 47,-1c46.2,-0.33 92.4,-0.66 140,-1Zm484,46l5,0c0.99,0.99 1.98,1.98 3,3l0,5c-0.99,0.99 -1.98,1.98 -3,3l-5,0c-0.99,-0.99 -1.98,-1.98 -3,-3l0,-5c0.99,-0.99 1.98,-1.98 3,-3Zm15,0l7,0c0.66,1.32 1.32,2.64 2,4c-0.33,1.65 -0.66,3.3 -1,5c-0.66,0.66 -1.32,1.32 -2,2c-2.31,-0.33 -4.62,-0.66 -7,-1c-0.33,-0.33 -0.66,-0.66 -1,-1l0,-7c0.66,-0.66 1.32,-1.32 2,-2Zm15,0l8,0c0.66,0.66 1.32,1.32 2,2l0,6c-0.99,0.99 -1.98,1.98 -3,3l-6,0c-0.99,-0.99 -1.98,-1.98 -3,-3c0.33,-2.31 0.66,-4.62 1,-7c0.33,-0.33 0.66,-0.66 1,-1Zm-918,25l9,0c3.465,1.485 3.465,1.485 7,3c1.98,2.31 3.96,4.62 6,7c0.495,1.485 0.495,1.485 1,3l0,11c-0.99,1.98 -1.98,3.96 -3,6c-1.98,2.475 -1.98,2.475 -4,5c-2.97,0.99 -5.94,1.98 -9,3c-3.96,-0.66 -7.92,-1.32 -12,-2c-2.31,-1.98 -4.62,-3.96 -7,-6c-0.99,-2.64 -1.98,-5.28 -3,-8l0,-7c1.32,-2.64 2.64,-5.28 4,-8c2.31,-1.98 4.62,-3.96 7,-6c1.32,-0.33 2.64,-0.66 4,-1Zm108,0c2.475,0.495 2.475,0.495 5,1c0.66,2.97 1.32,5.94 2,9c0.495,10.395 0.495,10.395 1,21c-0.33,0.33 -0.66,0.66 -1,1l-7,0c-0.33,0.33 -0.66,0.66 -1,1l-6,0c-1.32,-1.32 -2.64,-2.64 -4,-4c-0.99,1.32 -1.98,2.64 -3,4c-1.32,-0.33 -2.64,-0.66 -4,-1c-0.66,-0.99 -1.32,-1.98 -2,-3c-0.33,-3.3 -0.66,-6.6 -1,-10l0,-15c0.33,-0.66 0.66,-1.32 1,-2c1.65,0.33 3.3,0.66 5,1c0.66,2.31 1.32,4.62 2,7c0.33,3.3 0.66,6.6 1,10c0.99,-1.65 1.98,-3.3 3,-5c0.99,-0.66 1.98,-1.32 3,-2l6,0l0,-13Zm-3,19c-0.99,0.99 -1.98,1.98 -3,3c0.33,1.32 0.66,2.64 1,4c1.32,-0.33 2.64,-0.66 4,-1l0,-6l-2,0Zm43,-19c1.65,0.33 3.3,0.66 5,1c-0.33,2.97 -0.66,5.94 -1,9c-1.98,7.26 -3.96,14.52 -6,22c-0.66,0.99 -1.32,1.98 -2,3c-1.65,-0.33 -3.3,-0.66 -5,-1c0.33,-3.3 0.66,-6.6 1,-10c1.98,-6.93 3.96,-13.86 6,-21c0.66,-0.99 1.32,-1.98 2,-3Zm33,0l4,0l0,9c-1.98,7.26 -3.96,14.52 -6,22c-0.99,1.32 -1.98,2.64 -3,4c-1.65,-0.33 -3.3,-0.66 -5,-1c0.66,-4.29 1.32,-8.58 2,-13c1.98,-6.27 3.96,-12.54 6,-19c0.66,-0.66 1.32,-1.32 2,-2Zm212,0l10,0c1.65,1.65 3.3,3.3 5,5c0.99,-1.32 1.98,-2.64 3,-4c1.32,0.33 2.64,0.66 4,1c1.65,2.64 3.3,5.28 5,8c0.99,-1.32 1.98,-2.64 3,-4c0.99,-1.98 1.98,-3.96 3,-6c2.475,0.495 2.475,0.495 5,1c0.66,0.66 1.32,1.32 2,2c0.66,2.97 1.32,5.94 2,9c0.495,7.92 0.495,7.92 1,16c-1.65,0.33 -3.3,0.66 -5,1c-0.99,-1.65 -1.98,-3.3 -3,-5c-0.66,-2.31 -1.32,-4.62 -2,-7c-0.99,1.32 -1.98,2.64 -3,4c-1.65,-0.33 -3.3,-0.66 -5,-1c-0.66,-0.66 -1.32,-1.32 -2,-2c-0.33,2.97 -0.66,5.94 -1,9c-0.33,0.66 -0.66,1.32 -1,2l-5,0c-0.33,-0.66 -0.66,-1.32 -1,-2c-0.33,-3.96 -0.66,-7.92 -1,-12c-1.32,0.99 -2.64,1.98 -4,3l-7,0c0.33,3.63 0.66,7.26 1,11c-1.65,0.33 -3.3,0.66 -5,1c-0.66,-0.99 -1.32,-1.98 -2,-3c-0.33,-3.96 -0.66,-7.92 -1,-12l0,-12c0.33,-0.66 0.66,-1.32 1,-2c0.99,-0.33 1.98,-0.66 3,-1Zm3,6l0,7c1.98,-0.66 3.96,-1.32 6,-2c-0.33,-1.65 -0.66,-3.3 -1,-5l-5,0Zm-353,-5l7,0c1.65,0.99 3.3,1.98 5,3c0.33,0.66 0.66,1.32 1,2l0,6c-0.66,1.32 -1.32,2.64 -2,4c1.65,0.66 3.3,1.32 5,2c0.99,-1.32 1.98,-2.64 3,-4c1.32,0.33 2.64,0.66 4,1c0.66,1.98 1.32,3.96 2,6l0,5l2,0l0,-7c0.66,-1.65 1.32,-3.3 2,-5c2.475,0.495 2.475,0.495 5,1c0.495,0.99 0.495,0.99 1,2l0,8c-0.99,1.98 -1.98,3.96 -3,6c-0.99,0.66 -1.98,1.32 -3,2l-6,0c-1.65,-1.98 -3.3,-3.96 -5,-6c-1.65,1.98 -3.3,3.96 -5,6c-1.32,0.66 -2.64,1.32 -4,2l-9,0c-1.65,-1.65 -3.3,-3.3 -5,-5c-0.33,-7.92 -0.66,-15.84 -1,-24c0.99,-1.32 1.98,-2.64 3,-4c0.99,-0.33 1.98,-0.66 3,-1Zm1,6l0,6c1.65,-0.66 3.3,-1.32 5,-2c0.33,-1.32 0.66,-2.64 1,-4l-6,0Zm0,12l0,9l8,0c0.33,-0.33 0.66,-0.66 1,-1l0,-6c-1.32,-0.66 -2.64,-1.32 -4,-2l-5,0Zm285,-18c1.32,0.33 2.64,0.66 4,1c-0.33,1.65 -0.66,3.3 -1,5c-1.32,1.65 -2.64,3.3 -4,5l0,2l7,0c1.65,1.65 3.3,3.3 5,5c-0.33,2.31 -0.66,4.62 -1,7c-1.32,1.32 -2.64,2.64 -4,4c-0.66,0.33 -1.32,0.66 -2,1l-7,0c-1.65,-1.32 -3.3,-2.64 -5,-4c-0.66,-1.65 -1.32,-3.3 -2,-5l0,-8c1.65,-3.3 3.3,-6.6 5,-10c1.65,-0.99 3.3,-1.98 5,-3Zm1,19c-0.66,0.66 -1.32,1.32 -2,2l0,3l5,0c0.33,-1.65 0.66,-3.3 1,-5l-4,0Zm-48,-18l12,0c0.33,1.65 0.66,3.3 1,5c-0.33,0.33 -0.66,0.66 -1,1l-10,0l0,4l9,0c1.65,1.65 3.3,3.3 5,5l0,8c-1.32,1.65 -2.64,3.3 -4,5c-0.99,0.33 -1.98,0.66 -3,1l-9,0c-0.66,-0.66 -1.32,-1.32 -2,-2l0,-4c3.3,-0.33 6.6,-0.66 10,-1c0.33,-1.65 0.66,-3.3 1,-5l-10,0c-0.99,-1.32 -1.98,-2.64 -3,-4l0,-10c0.33,-0.66 0.66,-1.32 1,-2c0.99,-0.33 1.98,-0.66 3,-1Zm30,0c1.32,0.33 2.64,0.66 4,1c0.33,0.33 0.66,0.66 1,1c0.33,2.31 0.66,4.62 1,7l0,18c-1.65,0.33 -3.3,0.66 -5,1c-0.66,-0.66 -1.32,-1.32 -2,-2c-0.33,-3.96 -0.66,-7.92 -1,-12l0,-10c0.66,-1.32 1.32,-2.64 2,-4Zm52,0l10,0c2.475,0.99 2.475,0.99 5,2c-0.33,2.31 -1.66,11.62 -2,14c0.33,0.66 0.66,1.32 1,2l0,8c-0.66,0.99 -1.32,1.98 -2,3c-1.98,0.33 -3.96,0.66 -6,1c-1.98,-0.66 -3.96,-1.32 -6,-2l0,-14c-0.99,-0.99 -1.98,-1.98 -3,-3l0,-8c0.99,-0.99 1.98,-1.98 3,-3Zm3,5l0,4c1.65,-0.33 3.3,-0.66 5,-1l0,-3l-5,0Zm3,13l0,5l2,0c-0.33,-1.65 -0.66,-3.3 -1,-5l-1,0Zm-141,-17c2.31,0.33 4.62,0.66 7,1c0.99,0.99 1.98,1.98 3,3l0,9c-1.32,2.31 -2.64,4.62 -4,7c1.98,0.66 3.96,1.32 6,2l0,5c-0.33,0.33 -0.66,0.66 -1,1c-3.96,0.33 -7.92,0.66 -12,1c-1.32,-0.33 -2.64,-0.66 -4,-1c-0.33,-1.65 -0.66,-3.3 -1,-5c1.98,-2.97 7.32,-10.98 8,-12l0,-3l-7,0c0.33,-1.65 0.66,-3.3 1,-5c1.32,-0.99 2.64,-1.98 4,-3Zm19,0l7,0c-0.33,1.65 -0.66,3.3 -1,5c-1.65,2.31 -3.3,4.62 -5,7l9,0c0.99,0.99 1.98,1.98 3,3c0.33,2.31 0.66,4.62 1,7c-0.99,1.65 -1.98,3.3 -3,5c-1.65,0.66 -3.3,1.32 -5,2c-2.31,-0.33 -4.62,-0.66 -7,-1c-1.65,-1.65 -3.3,-3.3 -5,-5c-0.33,-0.99 -0.66,-1.98 -1,-3l0,-7c0.99,-2.64 1.98,-5.28 3,-8c1.32,-1.65 2.64,-3.3 4,-5Zm4,17c-0.66,0.66 -1.32,1.32 -2,2l0,3c1.98,-0.33 3.96,-0.66 6,-1l0,-4l-4,0Zm101,-17c1.65,0.33 3.3,0.66 5,1c0.33,1.65 0.66,3.3 1,5l0,20c-1.65,0.33 -3.3,0.66 -5,1c-0.66,-0.99 -1.32,-1.98 -2,-3l0,-23c0.33,-0.33 0.66,-0.66 1,-1Zm-222,1c1.32,0.33 2.64,0.66 4,1c0.66,1.98 1.32,3.96 2,6l0,19c-0.33,0.33 -0.66,0.66 -1,1l-5,0c-0.33,-0.33 -0.66,-0.66 -1,-1c-0.33,-2.31 -0.66,-4.62 -1,-7l0,-14c0.66,-1.65 1.32,-3.3 2,-5Zm24,0l15,0c0.66,0.66 1.32,1.32 2,2l0,7c-1.65,5.28 -3.3,10.56 -5,16c-0.99,0.99 -1.98,1.98 -3,3c-1.32,-0.33 -2.64,-0.66 -4,-1l0,-8c1.32,-4.29 2.64,-8.58 4,-13l-10,0c-0.33,-1.32 -0.66,-2.64 -1,-4c0.66,-0.66 1.32,-1.32 2,-2Zm36,0l7,0c1.32,1.32 2.64,2.64 4,4l0,8c-2.475,3.96 -2.475,3.96 -5,8c2.31,0.66 4.62,1.32 7,2c-0.33,1.65 -0.66,3.3 -1,5c-0.33,0.33 -0.66,0.66 -1,1l-14,0c-0.66,-0.33 -1.32,-0.66 -2,-1l0,-6c2.64,-3.3 5.28,-6.6 8,-10c0.33,-1.32 0.66,-2.64 1,-4c-2.64,0.33 -5.28,0.66 -8,1c0.33,-2.31 0.66,-4.62 1,-7c0.99,-0.33 1.98,-0.66 3,-1Zm-112,1l6,0l0,5c-0.33,0.33 -0.66,0.66 -1,1l-5,0l0,-6Zm130,0l8,0c1.65,1.65 3.3,3.3 5,5c0.66,1.65 1.32,3.3 2,5c-0.33,2.97 -0.66,5.94 -1,9c-1.98,2.97 -1.98,2.97 -4,6c-2.97,0.33 -5.94,0.66 -9,1c-1.65,-0.99 -3.3,-1.98 -5,-3c-0.99,-2.64 -1.98,-5.28 -3,-8c0.33,-2.64 0.66,-5.28 1,-8c1.32,-1.98 2.64,-3.96 4,-6c0.66,-0.33 1.32,-0.66 2,-1Zm2,6c-0.66,0.66 -1.32,1.32 -2,2c-0.33,2.64 -0.66,5.28 -1,8c0.99,1.32 1.98,2.64 3,4c1.65,-0.33 3.3,-0.66 5,-1c0.66,-1.98 1.32,-3.96 2,-6c-0.33,-1.65 -0.66,-3.3 -1,-5c-0.99,-0.66 -1.98,-1.32 -3,-2l-3,0Zm-131,4c1.65,0.33 3.3,0.66 5,1c0.33,0.99 0.66,1.98 1,3l0,12c-1.65,0.33 -3.3,0.66 -5,1c-0.66,-0.66 -1.32,-1.32 -2,-2l0,-14c0.33,-0.33 0.66,-0.66 1,-1Zm185,9c1.65,0.33 3.3,0.66 5,1l0,7c-0.66,1.32 -1.32,2.64 -2,4l-5,0l0,-8c0.66,-1.32 1.32,-2.64 2,-4Zm-271,24l6,0c1.65,1.65 3.3,3.3 5,5c4.95,0.33 9.9,0.66 15,1c0.99,0.66 1.98,1.32 3,2c0.495,1.485 0.495,1.485 1,3l0,16c-0.66,1.32 -1.32,2.64 -2,4c-0.99,0.495 -0.99,0.495 -2,1l-31,0c-0.66,-0.33 -1.32,-0.66 -2,-1c-0.66,-2.64 -1.32,-5.28 -2,-8l0,-12c0.33,-2.31 0.66,-4.62 1,-7c0.99,-0.99 1.98,-1.98 3,-3c1.65,-0.33 3.3,-0.66 5,-1Zm-3,6l0,18c0.33,0.66 0.66,1.32 1,2l25,0c0.33,-0.33 0.66,-0.66 1,-1l0,-13c-2.97,-0.495 -2.97,-0.495 -6,-1l-8,0c-1.98,-1.65 -3.96,-3.3 -6,-5l-7,0Zm191,-4l6,0c0.99,1.32 1.98,2.64 3,4c0.66,2.64 1.32,5.28 2,8c1.98,-2.64 3.96,-5.28 6,-8l5,0c1.98,2.97 1.98,2.97 4,6l0,6l2,0c0.33,-1.98 0.66,-3.96 1,-6c0.99,-0.99 1.98,-1.98 3,-3l6,0c0.99,0.99 1.98,1.98 3,3c1.65,-0.33 3.3,-0.66 5,-1c0.99,-0.33 1.98,-0.66 3,-1l8,0c2.64,1.32 5.28,2.64 8,4c2.97,0.33 5.94,0.66 9,1c2.97,-0.99 5.94,-1.98 9,-3l51,0c0.99,0.66 1.98,1.32 3,2c-0.33,1.65 -0.66,3.3 -1,5c-1.32,0.66 -2.64,1.32 -4,2c-5.94,0.33 -11.88,0.66 -18,1l-14,0c-1.65,-0.33 -3.3,-0.66 -5,-1l-9,0c-2.97,0.99 -5.94,1.98 -9,3l-10,0c-4.95,-1.98 -4.95,-1.98 -10,-4c-0.33,-0.33 -0.66,-0.66 -1,-1l-6,0c-1.65,0.99 -3.3,1.98 -5,3l-6,0c-1.32,-0.99 -2.64,-1.98 -4,-3c-1.65,1.98 -3.3,3.96 -5,6c-2.31,-0.33 -4.62,-0.66 -7,-1c-0.99,-1.32 -1.98,-2.64 -3,-4l0,-6l-2,0c-0.33,3.3 -0.66,6.6 -1,10c-0.66,1.32 -1.32,2.64 -2,4c-1.65,0.33 -3.3,0.66 -5,1c-1.32,-1.65 -2.64,-3.3 -4,-5c-0.99,-3.63 -1.98,-7.26 -3,-11c-1.65,3.96 -3.3,7.92 -5,12c-1.65,0.33 -3.3,0.66 -5,1l0,-7c1.65,-4.95 3.3,-9.9 5,-15c0.66,-0.66 1.32,-1.32 2,-2Zm-132,1c1.65,0.33 3.3,0.66 5,1c0.99,1.32 1.98,2.64 3,4c0.66,2.97 1.32,5.94 2,9c1.98,-2.64 3.96,-5.28 6,-8l5,0c1.32,1.65 2.64,3.3 4,5l0,3c1.65,-1.65 3.3,-3.3 5,-5c0.99,-0.66 1.98,-1.32 3,-2c2.475,0.495 2.475,0.495 5,1c0.99,0.99 1.98,1.98 3,3c1.65,-0.99 3.3,-1.98 5,-3c2.475,0.495 2.475,0.495 5,1c0.99,0.99 1.98,1.98 3,3c1.32,-0.33 2.64,-0.66 4,-1l7,0c2.64,1.32 5.28,2.64 8,4c0.495,2.475 0.495,2.475 1,5c-1.32,0.33 -2.64,0.66 -4,1c-3.63,-0.33 -7.26,-0.66 -11,-1c-0.495,0.495 -0.495,0.495 -1,1l-6,0c-1.65,-0.99 -3.3,-1.98 -5,-3c-1.32,1.32 -2.64,2.64 -4,4c-1.65,-0.33 -3.3,-0.66 -5,-1c-2.475,-1.98 -2.475,-1.98 -5,-4c-0.66,1.65 -1.32,3.3 -2,5c-0.99,0.66 -1.98,1.32 -3,2c-1.98,-0.33 -3.96,-0.66 -6,-1c-0.99,-1.65 -1.98,-3.3 -3,-5l0,-5l-2,0c-0.33,2.97 -0.66,5.94 -1,9c-0.99,1.65 -1.98,3.3 -3,5l-5,0c-1.32,-1.65 -2.64,-3.3 -4,-5c-0.99,-3.3 -1.98,-6.6 -3,-10c-1.65,4.62 -3.3,9.24 -5,14l-5,0l0,-7c1.65,-4.95 3.3,-9.9 5,-15c1.32,-1.32 2.64,-2.64 4,-4Zm104,18l5,0c0.33,1.65 0.66,3.3 1,5c-0.66,0.66 -1.32,1.32 -2,2c-1.32,-0.33 -2.64,-0.66 -4,-1l0,-6Z" style="fill-rule:nonzero;"/></svg>