<?xml version="1.0" encoding="UTF-8" standalone="no"?>
<!DOCTYPE svg PUBLIC "-//W3C//DTD SVG 1.1//EN" "http://www.w3.org/Graphics/SVG/1.1/DTD/svg11.dtd">
<svg width="100%" height="100%" viewBox="0 0 1611 1558" version="1.1" xmlns="http://www.w3.org/2000/svg" xmlns:xlink="http://www.w3.org/1999/xlink" xml:space="preserve" xmlns:serif="http://www.serif.com/" style="fill-rule:evenodd;clip-rule:evenodd;stroke-linejoin:round;stroke-miterlimit:2;">
    <g transform="matrix(4.166667,0,0,4.166667,1304.939996,0.353124)">
        <path d="M0,0C2.479,-0.004 4.957,-0.041 7.436,-0.079C18.015,-0.153 28.349,0.356 37.154,6.996C44.461,14.369 46.215,23.648 47.4,33.605C47.562,34.868 47.723,36.131 47.89,37.432C49.443,50.144 50.331,62.893 51.056,75.677C51.287,79.764 51.534,83.85 51.784,87.936C52.479,99.372 53.137,110.811 53.757,122.252C55.471,153.759 58.42,185.056 61.891,216.418C62.192,219.143 62.488,221.868 62.781,224.593C63.719,233.249 64.774,241.879 66.029,250.496C66.195,251.657 66.361,252.819 66.532,254.016C67.486,260.619 68.505,267.209 69.588,273.792C69.819,275.215 70.051,276.638 70.282,278.062C70.723,280.771 71.178,283.477 71.642,286.184C73.814,299.472 75.298,312.418 68.002,324.359C48.059,350.429 -9.607,350.171 -39.557,354.189C-61.333,357.051 -83.241,359.111 -105.147,360.688C-109.738,361.034 -114.244,361.57 -118.791,362.3C-127.151,363.634 -135.553,364.489 -143.971,365.371C-146.326,365.62 -148.681,365.87 -151.036,366.121C-152.607,366.288 -154.177,366.454 -155.748,366.62C-160.385,367.111 -165.02,367.618 -169.654,368.14C-238.498,375.89 -238.498,375.89 -253.596,365.246C-271.719,349.739 -277.927,318.296 -282.305,295.825C-282.839,293.083 -283.398,290.346 -283.955,287.609C-290.216,256.421 -294.576,225.188 -296.455,193.425C-298.613,156.968 -303.801,121.854 -310.578,85.979C-312.268,76.961 -313.02,68.297 -313.096,59.121C-313.125,57.957 -313.154,56.793 -313.184,55.593C-313.256,45.695 -311.404,36.095 -304.783,28.371C-296.492,21.528 -285.612,19.402 -275.346,17.246C-274.615,17.087 -273.885,16.928 -273.132,16.765C-256.004,13.371 -238.278,12.995 -220.881,12.406C-218.726,12.328 -216.571,12.249 -214.416,12.17C-209.89,12.005 -205.363,11.842 -200.836,11.682C-189.084,11.266 -177.332,10.821 -165.58,10.375C-164.432,10.331 -163.285,10.288 -162.102,10.243C-126.989,8.909 -91.951,6.907 -56.908,4.308C-55.239,4.185 -55.239,4.185 -53.535,4.059C-43.818,3.334 -34.133,2.612 -24.479,1.273C-16.311,0.194 -8.227,-0.002 0,0ZM-55.534,12.143C-73.066,13.919 -90.595,14.857 -108.197,15.586C-116.7,15.942 -125.199,16.326 -133.695,16.826C-150.201,17.794 -166.699,18.604 -183.225,19.152C-184.582,19.197 -184.582,19.197 -185.968,19.243C-194.315,19.52 -202.663,19.787 -211.011,20.048C-215.657,20.193 -220.302,20.346 -224.947,20.502C-226.675,20.559 -228.404,20.613 -230.133,20.665C-245.156,21.112 -260.56,21.678 -275.221,25.246C-275.953,25.418 -276.686,25.59 -277.44,25.767C-290.656,28.387 -290.656,28.387 -300.783,36.371C-304.689,43.21 -305.555,49.384 -305.533,57.183C-305.532,58.366 -305.531,59.549 -305.53,60.768C-305.065,79.869 -300.493,98.695 -296.783,117.371C-290.909,146.975 -289.013,177.004 -287.338,207.101C-286.07,229.047 -282.424,250.714 -278.783,272.371C-278.643,273.21 -278.503,274.049 -278.358,274.913C-275.474,292.053 -271.761,308.673 -266.283,325.183C-266.062,325.855 -265.84,326.526 -265.612,327.218C-259.309,347.211 -259.309,347.211 -244.963,361.347C-219.389,373.193 -175.501,360.779 -148.621,357.466C-132.131,355.438 -115.643,353.556 -99.096,352.058C-98.208,351.978 -97.321,351.897 -96.407,351.815C-88.637,351.116 -80.864,350.453 -73.088,349.828C-1.665,347.225 -1.665,347.225 60.279,320.433C65.815,313.401 65.719,305.973 65.217,297.371C64.537,291.892 63.5,286.465 62.511,281.036C58.828,260.665 56.262,240.258 54.107,219.677C53.445,213.376 52.709,207.086 51.939,200.796C48.676,173.703 46.924,146.598 45.472,119.359C45.433,118.625 45.394,117.891 45.353,117.135C45.168,113.669 44.987,110.202 44.812,106.736C44.511,100.931 44.135,95.179 43.436,89.409C43.051,85.833 42.947,82.248 42.822,78.656C42.756,76.995 42.69,75.334 42.622,73.673C42.587,72.817 42.552,71.961 42.516,71.078C41.968,58.113 41.303,45.219 39.404,32.371C39.263,31.354 39.122,30.337 38.977,29.289C37.848,22.39 35.832,16.165 30.119,11.75C29.471,11.48 28.822,11.211 28.154,10.933C27.503,10.646 26.852,10.358 26.182,10.062C19.513,7.715 12.715,8.084 5.717,8.058C4.619,8.053 4.619,8.053 3.498,8.048C-16.28,8.02 -35.879,10.144 -55.534,12.143Z" style="fill-rule:nonzero;"/>
    </g>
    <g transform="matrix(4.166667,0,0,4.166667,1437.874566,1037.31398)">
        <path d="M0,0C8.002,7.753 10.709,18.285 13.125,28.812C13.423,30.048 13.722,31.284 14.029,32.557C15.865,40.236 17.458,47.577 17.562,55.5C17.601,57.263 17.601,57.263 17.641,59.062C17.169,64.005 15.782,67.176 12.075,70.516C3.822,76.443 -6.855,78.523 -16.656,80.508C-18.458,80.882 -18.458,80.882 -20.296,81.264C-32.635,83.78 -45.038,85.873 -57.481,87.798C-61.217,88.38 -64.948,88.986 -68.68,89.594C-79.424,91.299 -90.073,92.863 -100.969,92.945C-102.135,92.96 -102.135,92.96 -103.325,92.974C-110.03,92.864 -116.425,91.172 -121.562,86.625C-122.117,86.153 -122.671,85.681 -123.242,85.195C-127.142,80.621 -127.595,74.353 -128.625,68.625C-129.983,61.029 -129.983,61.029 -131.613,53.488C-133.273,46.337 -134.065,39.385 -134.25,32.062C-134.289,31.234 -134.328,30.405 -134.368,29.551C-134.394,23.831 -132.961,20.617 -129.377,16.182C-121.754,8.592 -110.272,7.774 -100.162,6.083C-96.174,5.414 -92.19,4.719 -88.207,4.023C-79.372,2.485 -70.531,0.986 -61.688,-0.5C-60.657,-0.675 -59.626,-0.849 -58.563,-1.029C-11.772,-8.913 -11.772,-8.913 0,0ZM-36.062,3.562C-37.164,3.687 -38.266,3.811 -39.402,3.939C-51.576,5.382 -63.693,7.223 -75.812,9.062C-76.828,9.216 -77.843,9.37 -78.888,9.528C-81.825,9.974 -84.76,10.425 -87.695,10.879C-88.569,11.012 -89.444,11.146 -90.344,11.283C-95.209,12.043 -99.998,12.963 -104.791,14.093C-107.152,14.6 -109.466,14.77 -111.875,14.875C-117.624,15.392 -120.894,17.582 -124.824,21.785C-130.055,29.407 -126.21,42.189 -124.613,50.848C-123.201,58.119 -121.524,65.325 -119.688,72.5C-119.369,73.767 -119.051,75.034 -118.723,76.34C-117.476,80.145 -115.998,81.348 -112.688,83.5C-99.895,89.896 -77.807,82.964 -64.249,80.621C-58.986,79.712 -53.715,78.866 -48.438,78.043C-35.012,75.933 -21.622,73.784 -8.438,70.438C-7.546,70.217 -6.655,69.996 -5.736,69.768C-0.238,68.278 5.046,66.407 9.312,62.5C12.515,53.819 8.269,41.937 6.188,33.312C5.905,32.137 5.623,30.962 5.332,29.752C1.883,15.717 1.883,15.717 -6.875,4.812C-15.882,0.609 -26.437,2.455 -36.062,3.562Z" style="fill-rule:nonzero;"/>
    </g>
    <g transform="matrix(4.166667,0,0,4.166667,239.17665,656.06398)">
        <path d="M0,0C1.867,0.242 1.867,0.242 4,1C5.195,2.82 5.195,2.82 6.125,5.125C6.452,5.931 6.78,6.736 7.117,7.566C8.248,10.684 9.18,13.787 10,17C10.182,16.408 10.364,15.817 10.551,15.207C13.358,6.381 13.358,6.381 16,3C18.188,2.188 18.188,2.188 20,2C20.578,3.011 21.155,4.021 21.75,5.062C22.114,5.695 22.477,6.328 22.852,6.98C23.608,8.31 24.353,9.646 25.086,10.988C26.897,14.609 26.897,14.609 30,17C30.205,16.085 30.41,15.17 30.621,14.227C30.891,13.038 31.16,11.85 31.438,10.625C31.704,9.442 31.971,8.258 32.246,7.039C33,4 33,4 34,2L38,2C38.495,3.98 38.495,3.98 39,6C39.578,5.01 40.155,4.02 40.75,3C41.492,2.01 42.235,1.02 43,0L47,0C48.32,2.31 49.64,4.62 51,7C51.722,6.319 52.444,5.639 53.188,4.938C56,3 56,3 58.5,3.188C59.325,3.456 60.15,3.724 61,4C64.12,4.759 66.929,5.041 70.125,5C74,5 74,5 77,6C81.724,6.311 81.724,6.311 86.176,4.988C90.111,3.611 93.683,3.875 97.812,4C105.084,4.109 111.97,3.614 119.18,2.578C125.922,1.691 132.718,1.324 139.5,0.875C140.5,0.809 140.5,0.809 141.521,0.741C145.347,0.488 149.173,0.241 153,0C153.33,1.32 153.66,2.64 154,4C146.934,6.091 140.022,6.564 132.688,7C122.921,7.585 122.921,7.585 113.262,9.062C108.147,10.071 103.321,10.169 98.125,10C92.872,9.834 88.849,9.708 84,12C79.319,12.334 76.271,11.798 72,10C69.23,9.792 67.182,9.95 64.5,10.688C61.142,11.107 59.689,9.921 57,8C56.66,8.959 56.66,8.959 56.312,9.938C55,12 55,12 52.375,12.75C51.591,12.832 50.807,12.915 50,13C46,8.25 46,8.25 46,6L44,6C43.814,7.887 43.814,7.887 43.625,9.812C43.301,13.103 42.934,14.099 41,17C39.062,16.625 39.062,16.625 37,16C36.505,15.01 36.505,15.01 36,14C34.35,16.64 32.7,19.28 31,22C27.616,21.718 26.279,21.287 23.875,18.812C19,11.5 19,11.5 19,8L17,8C16.963,8.629 16.925,9.258 16.887,9.906C16.435,15.784 15.611,20.681 13,26C10.895,26.715 10.895,26.715 9,27C6.368,23.059 5.089,19.318 3.875,14.75C3.06,10.56 3.06,10.56 1,7C-0.32,12.28 -1.64,17.56 -3,23L-6,23C-6.532,15.013 -4.753,6.563 0,0Z" style="fill-rule:nonzero;"/>
    </g>
    <g transform="matrix(4.166667,0,0,4.166667,1368.343316,472.730647)">
        <path d="M0,0C-0.33,1.65 -0.66,3.3 -1,5C-5.492,6.014 -10.014,6.47 -14.59,6.91C-15.456,6.995 -16.323,7.08 -17.215,7.168C-30.513,8.457 -43.826,9.593 -57.136,10.747C-71.273,11.975 -85.38,13.337 -99.48,14.941C-108.284,15.938 -117.092,16.791 -125.923,17.508C-128.193,17.693 -130.462,17.886 -132.73,18.08C-139.831,18.674 -146.868,19.17 -154,19L-154,15C-127.784,11.784 -101.532,8.987 -75.25,6.375C-74.513,6.302 -73.776,6.228 -73.016,6.153C-64.445,5.301 -55.872,4.456 -47.299,3.619C-43.025,3.201 -38.751,2.774 -34.478,2.341C-31.653,2.055 -28.827,1.773 -26.002,1.491C-24.053,1.296 -22.106,1.096 -20.158,0.895C-13.411,0.226 -6.781,-0.181 0,0Z" style="fill-rule:nonzero;"/>
    </g>
    <g transform="matrix(4.166667,0,0,4.166667,293.343316,1051.897314)">
        <path d="M0,0L4,0C4.648,1.27 5.294,2.541 5.938,3.812C6.297,4.52 6.657,5.228 7.027,5.957C8,8 8,8 9,11C9.99,9.02 10.98,7.04 12,5C13.875,5.25 13.875,5.25 16,6C17.721,8.582 18,9.849 18,13L20,13L20,11L29,11C29.598,10.319 30.196,9.639 30.812,8.938C31.534,8.298 32.256,7.659 33,7C36.188,7.25 36.188,7.25 40,8C44.513,8.377 47.923,8.561 52,6.438C56.851,4.113 61.4,5.415 66.5,6.562C75.455,8.13 82.563,5.873 91.012,3.191C96.995,1.345 102.626,0.859 108.875,0.938C109.563,0.942 110.252,0.947 110.961,0.951C112.641,0.963 114.32,0.981 116,1C116.562,2.938 116.562,2.938 117,5C115.341,6.659 113.308,6.165 111.086,6.24C100.042,6.624 89.798,8.999 79.219,12.113C73.373,13.724 68.611,12.982 62.906,11.457C58.548,10.412 55.719,10.681 51.625,12.5C46.42,14.654 42.288,14.528 36.75,13.25C35.843,13.168 34.935,13.085 34,13C32.646,14.312 31.313,15.646 30,17C26.855,17.315 24.841,17.42 22,16C21.67,17.32 21.34,18.64 21,20L17,20C15,17 15,17 15,14L13,14L13,22C11.35,22.33 9.7,22.66 8,23C6.35,18.05 4.7,13.1 3,8C2.137,12.315 1.693,16.442 1.438,20.812C1.394,21.505 1.351,22.198 1.307,22.912C1.201,24.608 1.1,26.304 1,28L-2,28C-2.058,24.083 -2.094,20.167 -2.125,16.25C-2.142,15.139 -2.159,14.028 -2.176,12.883C-2.182,11.813 -2.189,10.743 -2.195,9.641C-2.206,8.656 -2.216,7.672 -2.227,6.657C-1.995,3.94 -1.39,2.319 0,0Z" style="fill-rule:nonzero;"/>
    </g>
    <g transform="matrix(4.166667,0,0,4.166667,1401.67665,843.56398)">
        <path d="M0,0L0,4C-4.561,5.395 -8.853,6.36 -13.609,6.895C-15.544,7.117 -15.544,7.117 -17.518,7.344C-18.928,7.5 -20.339,7.656 -21.75,7.812C-23.244,7.982 -24.738,8.153 -26.232,8.324C-29.451,8.692 -32.67,9.057 -35.889,9.42C-43.85,10.32 -51.807,11.253 -59.764,12.181C-62.503,12.5 -65.242,12.818 -67.98,13.135C-76.578,14.131 -85.173,15.136 -93.766,16.172C-95.303,16.356 -96.84,16.54 -98.377,16.725C-101.178,17.06 -103.979,17.401 -106.779,17.744C-119.509,19.27 -132.171,20.215 -145,20C-144.67,18.68 -144.34,17.36 -144,16C-143.143,15.904 -143.143,15.904 -142.268,15.806C-106.218,11.772 -106.218,11.772 -70.26,7C-58.448,5.306 -46.624,3.879 -34.758,2.625C-30.532,2.177 -26.324,1.659 -22.114,1.084C-14.701,0.072 -7.477,-0.23 0,0Z" style="fill-rule:nonzero;"/>
    </g>
    <g transform="matrix(4.166667,0,0,4.166667,1151.67665,143.56398)">
        <path d="M0,0C2.007,0.287 4.009,0.619 6,1L6,4L3.625,4.812C0.719,5.848 0.719,5.848 -1,9C-1.616,12.953 -1.898,16.711 0.438,20.062C4.273,21.466 7.961,21.233 12,21L12,25C8.288,27.475 5.304,27.659 1,27C-2.702,25.149 -4.518,23.965 -6.375,20.25L-7,18L-10,18L-9,20.687C-8.088,23.709 -7.817,25.884 -8,29L-13,28L-15,21L-23,21L-24,29L-28,30C-28.435,21.212 -28.839,9.565 -23.645,2.035C-22,1 -22,1 -19.977,1.074C-17.469,2.249 -16.747,3.427 -15.375,5.812L-14.148,7.895C-13,10 -13,10 -12.039,12.199C-11.065,14.347 -11.065,14.347 -8,15L-7.738,13.207C-6.748,7.637 -5.528,4.715 -1,1L0,0ZM-21,9L-22,16L-17,16C-17.564,12.73 -18.5,11.174 -21,9Z"/>
    </g>
    <g transform="matrix(4.166667,0,0,4.166667,176.67665,206.06398)">
        <path d="M0,0L4,0C6.495,10.159 8.189,20.52 8,31C6.312,31.812 6.312,31.812 4,32C-1.541,27.05 -5.615,20.956 -10,15L-10,33L-14,33C-16.34,23.186 -17.151,14.083 -17,4C-15.68,3.67 -14.36,3.34 -13,3C-7.966,8.451 -3.151,13.841 1,20C0.928,19.394 0.856,18.788 0.781,18.164C0.108,12.082 -0.117,6.117 0,0Z" style="fill-rule:nonzero;"/>
    </g>
    <g transform="matrix(4.166667,0,0,4.166667,585.009983,181.06398)">
        <path d="M0,0C2.062,0.438 2.062,0.438 4,1C3.523,10.783 2.704,20.337 1,30C-0.836,30.645 -0.836,30.645 -3,31C-5.625,28.688 -9.32,24.68 -10,24C-10.99,26.31 -11.98,28.62 -13,31C-15.367,30.809 -15.367,30.809 -18,30C-19.258,27.848 -19.258,27.848 -20.125,25.062C-20.601,23.574 -20.601,23.574 -21.086,22.055C-21.538,20.543 -21.538,20.543 -22,19C-22.302,18.095 -22.603,17.19 -22.914,16.258C-24.391,11.717 -25.382,7.835 -25,3C-23.188,3.062 -23.188,3.062 -21,4C-18.661,8.497 -17.297,13.113 -16,18C-14.68,16.35 -13.36,14.7 -12,13C-10.25,13.125 -10.25,13.125 -8,14C-6.621,15.968 -5.283,17.967 -4,20C-3.914,19.43 -3.829,18.859 -3.74,18.272C-3.352,15.701 -2.957,13.132 -2.562,10.562C-2.428,9.665 -2.293,8.767 -2.154,7.842C-2.022,6.988 -1.89,6.134 -1.754,5.254C-1.633,4.463 -1.513,3.672 -1.389,2.858C-1,1 -1,1 0,0Z" style="fill-rule:nonzero;"/>
    </g>
    <g transform="matrix(4.166667,0,0,4.166667,660.009983,189.397314)">
        <path d="M0,0C3.954,2.205 6.331,3.785 8,8C8.579,12.201 8.467,15.893 6.812,19.812C4.678,22.388 2.876,24.261 0,26C-4.169,26.087 -5.648,25.305 -8.812,22.562C-12.437,18.317 -12.329,15.293 -12.293,9.84C-11.86,5.643 -10.494,3.374 -8,0C-5.018,-1.491 -3.201,-0.8 0,0ZM-5,5L-7,8C-7.29,12.566 -7.619,16.072 -5,20C-2.625,20.187 -2.625,20.187 -0,20L2,17C2.857,13.372 3.499,11.053 1.875,7.625C-0.389,5.663 -2.054,5.318 -5,5Z"/>
    </g>
    <g transform="matrix(4.166667,0,0,4.166667,397.509983,197.730647)">
        <path d="M0,0C2.062,0.438 2.062,0.438 4,1C2.383,24.234 2.383,24.234 0,29C-2.188,28.938 -2.188,28.938 -5,28C-6.961,25.796 -8.407,23.504 -10,21C-10.66,23.64 -11.32,26.28 -12,29C-13.32,29.33 -14.64,29.66 -16,30C-19.509,25.704 -20.705,21.252 -22.25,16C-22.531,15.098 -22.812,14.195 -23.102,13.266C-23.492,11.959 -23.492,11.959 -23.891,10.625C-24.128,9.834 -24.366,9.042 -24.61,8.227C-25.034,5.807 -24.769,4.31 -24,2C-20.879,3.054 -20.081,3.846 -18.516,6.82C-18.098,7.911 -17.68,9.001 -17.25,10.125C-16.822,11.221 -16.394,12.316 -15.953,13.445C-15.481,14.71 -15.481,14.71 -15,16C-14.01,14.68 -13.02,13.36 -12,12C-9.625,12.312 -9.625,12.312 -7,13C-5,16 -5,16 -5,19L-3,19C-3.023,18.371 -3.046,17.742 -3.07,17.094C-3.192,11.333 -2.703,6.511 -1,1C-0.67,0.67 -0.34,0.34 0,0Z" style="fill-rule:nonzero;"/>
    </g>
    <g transform="matrix(4.166667,0,0,4.166667,618.978082,872.030777)">
        <path d="M0,0C1.848,1.168 1.848,1.168 3.848,4.168C4.287,8.712 4.432,11.07 2.285,15.105C-0.818,17.732 -3.153,17.937 -7.152,18.168C-6.987,18.787 -6.822,19.405 -6.652,20.043C-5.952,24.423 -6.075,28.742 -6.152,33.168L-10.152,33.168C-12.192,27.149 -13.659,21.091 -14.84,14.855C-14.971,14.174 -15.102,13.493 -15.238,12.791C-15.891,9.226 -16.497,5.791 -16.152,2.168C-11.864,-1.843 -5.339,-2.064 0,0Z" style="fill-rule:nonzero;"/>
    </g>
    <g transform="matrix(4.166667,0,0,4.166667,743.343316,168.56398)">
        <path d="M0,0C2.875,1.562 2.875,1.562 5,4C5.551,7.854 5.642,10.011 3.5,13.312L2,15L2,17C4.241,18.585 6.578,19.959 8.934,21.367C11.252,23.199 11.657,24.122 12,27C6.293,26.534 2.841,25.062 -2,22L-3,30C-4.875,29.813 -4.875,29.813 -7,29C-8.924,25.16 -9.542,21.355 -10.125,17.125L-10.633,13.57C-11.001,9.992 -11.212,6.593 -11,3C-7.598,-0.102 -4.498,-0.656 0,0ZM-6,5L-5,13L-3,13C-1.312,11.812 -1.312,11.812 0,10C-0.313,7.312 -0.313,7.312 -1,5L-6,5Z"/>
    </g>
    <g transform="matrix(4.166667,0,0,4.166667,468.343316,478.72023)">
        <path d="M0,0C3.802,0.713 4.765,1.403 7,4.562C9.199,9.536 10.422,14.078 10,19.562C8.125,20.188 8.125,20.188 6,20.562C2.872,17.434 2.708,13.451 1.781,9.215C1.523,8.34 1.266,7.464 1,6.562C0.34,6.232 -0.32,5.902 -1,5.562C-1.66,9.852 -2.32,14.143 -3,18.562C-4.32,18.892 -5.64,19.223 -7,19.562C-7.671,17.939 -8.337,16.314 -9,14.688C-9.371,13.783 -9.742,12.878 -10.125,11.945C-11,9.562 -11,9.562 -11,7.562L-13,7.562C-13.33,12.512 -13.66,17.462 -14,22.562C-15.32,22.892 -16.64,23.223 -18,23.562C-20.761,17.201 -21.632,11.47 -22,4.562C-21.216,4.604 -20.433,4.645 -19.625,4.688C-16.839,4.85 -16.839,4.85 -15,2.562C-11.438,2.812 -11.438,2.812 -8,3.562C-7.67,4.223 -7.34,4.883 -7,5.562C-6.196,4.325 -6.196,4.325 -5.375,3.062C-3,0.562 -3,0.562 0,0Z" style="fill-rule:nonzero;"/>
    </g>
    <g transform="matrix(4.166667,0,0,4.166667,316.5204,495.386897)">
        <path d="M0,0C1.702,0.278 1.702,0.278 3.438,0.562C4.345,0.686 5.253,0.81 6.188,0.938C9.477,3.313 9.778,6.201 10.664,10.055C11.496,12.752 12.738,14.344 14.438,16.562C14.125,18.812 14.125,18.812 13.438,20.562C10.168,19.999 8.612,19.063 6.438,16.562C5.757,17.387 5.076,18.212 4.375,19.062C1.438,21.562 1.438,21.562 -2.188,22.062C-5.562,21.562 -5.562,21.562 -7.438,20.25C-9.998,16.409 -10.408,12.018 -9.562,7.562C-7.226,3.123 -5.012,0.791 0,0Z" style="fill-rule:nonzero;"/>
    </g>
    <g transform="matrix(4.166667,0,0,4.166667,509.48915,880.28273)">
        <path d="M0,0C3.962,1.506 5.113,3.228 7.156,6.844C8.689,10.552 9.024,14.204 9.125,18.188C7.805,18.517 6.485,18.848 5.125,19.188C4.671,17.95 4.218,16.712 3.75,15.438C2.687,12.595 1.573,9.861 0.125,7.188L-1.875,7.188C-2.535,10.818 -3.195,14.447 -3.875,18.188C-5.195,18.517 -6.515,18.848 -7.875,19.188C-8.057,18.573 -8.239,17.958 -8.426,17.324C-8.803,16.112 -8.803,16.112 -9.188,14.875C-9.431,14.074 -9.675,13.274 -9.926,12.449C-10.86,9.825 -10.86,9.825 -13.875,7.188C-14.205,12.137 -14.535,17.087 -14.875,22.188L-18.875,22.188C-19.384,20.315 -19.882,18.439 -20.375,16.562C-20.793,14.996 -20.793,14.996 -21.219,13.398C-21.866,10.231 -21.991,7.41 -21.875,4.188C-20.668,3.971 -20.668,3.971 -19.438,3.75C-16.954,3.446 -16.954,3.446 -15.875,2.188C-13.538,2.491 -11.204,2.826 -8.875,3.188L-5.875,3.188C-5.225,2.414 -5.225,2.414 -4.562,1.625C-2.875,0.188 -2.875,0.188 0,0Z" style="fill-rule:nonzero;"/>
    </g>
    <g transform="matrix(4.166667,0,0,4.166667,1001.67665,147.730647)">
        <path d="M0,0C2.608,1.497 4.87,2.87 7,5C7.583,12.114 7.583,12.114 5.438,15.375C2.415,17.39 -0.478,18.187 -4,19C-3.649,20.052 -3.299,21.104 -2.938,22.188C-2.05,25.795 -1.947,27.526 -3,31C-4.32,30.67 -5.64,30.34 -7,30C-7.679,27.19 -8.343,24.378 -9,21.562C-9.286,20.388 -9.286,20.388 -9.578,19.189C-10.813,13.83 -11.669,8.506 -11,3C-8.111,-0.814 -4.506,-0.544 0,0Z" style="fill-rule:nonzero;"/>
    </g>
    <g transform="matrix(4.166667,0,0,4.166667,1401.67665,122.730647)">
        <path d="M0,0C1.32,0.33 2.64,0.66 4,1C3.031,4.206 2.117,6.825 0.25,9.625C-1.253,11.857 -1.253,11.857 -0.562,13.938C1.321,16.424 3.496,18.404 5.855,20.438C7,22 7,22 6.676,24.188C6.341,25.085 6.341,25.085 6,26C0.96,25.555 -1.376,23.287 -5,20C-6.98,22.97 -8.96,25.94 -11,29C-12.65,28.67 -14.3,28.34 -16,28C-15.586,24.585 -14.639,22.291 -12.812,19.438C-10.702,16.323 -10.702,16.323 -11.438,13.938C-12.368,12.784 -13.316,11.642 -14.297,10.531C-15.579,9.061 -16.793,7.533 -18,6C-17.67,5.01 -17.34,4.02 -17,3C-12.629,3.486 -10.959,4.837 -8,8L-6,8C-4.415,6.213 -4.415,6.213 -2.875,4C-2.336,3.257 -1.797,2.515 -1.242,1.75C-0.832,1.173 -0.422,0.595 0,0Z" style="fill-rule:nonzero;"/>
    </g>
    <g transform="matrix(4.166667,0,0,4.166667,568.343316,464.397314)">
        <path d="M0,0C2.375,1.125 2.375,1.125 4,3C4.562,5.875 4.562,5.875 4,9C1.584,12.106 -0.01,13.714 -3.812,14.813L-6,15C-4.887,16.617 -4.887,16.617 -3,18C-0.028,18.363 -0.028,18.363 3.188,18.187L6.48,18.105L9,18C8.195,22.836 8.195,22.836 6.437,24.312C1.155,25.803 -2.575,25.739 -7.375,23.25C-10.494,20.577 -11.758,18.705 -12.336,14.633C-12.428,8.734 -11.916,5.492 -8,1C-5.191,-0.405 -3.112,-0.249 0,0ZM-4,5L-6,10L-2,9L-1,5L-4,5Z"/>
    </g>
    <g transform="matrix(4.166667,0,0,4.166667,793.343316,164.397314)">
        <path d="M0,0C3,1 3,1 4,3C4.04,5.333 4.043,7.667 4,10C4.779,9.259 4.779,9.259 5.574,8.504C6.272,7.863 6.969,7.223 7.688,6.562C8.372,5.924 9.056,5.286 9.762,4.629C12.223,2.838 14.008,2.372 17,2C16.388,5.44 15.079,7.516 12.938,10.25C12.39,10.956 11.842,11.663 11.277,12.391C10.856,12.922 10.434,13.453 10,14C11.174,14.797 11.174,14.797 12.371,15.609C13.889,16.669 13.889,16.669 15.438,17.75C16.447,18.446 17.456,19.142 18.496,19.859C20.997,21.998 21.719,22.796 22,26C20.391,26.746 20.391,26.746 18,27C14.984,25.348 14.984,25.348 11.75,23.062C10.672,22.311 9.595,21.559 8.484,20.785C7.665,20.196 6.845,19.607 6,19C6.33,22.3 6.66,25.6 7,29C5.68,29.33 4.36,29.66 3,30C-0.157,20.31 -1.61,11.21 -1,1C-0.67,0.67 -0.34,0.34 0,0Z" style="fill-rule:nonzero;"/>
    </g>
    <g transform="matrix(4.166667,0,0,4.166667,251.67665,856.06398)">
        <path d="M0,0C1.32,0.33 2.64,0.66 4,1C4.33,4.63 4.66,8.26 5,12L14,12C13.67,13.32 13.34,14.64 13,16C10.69,16.66 8.38,17.32 6,18C6.144,19.279 6.6,23.314 6.684,24.055C6.913,26.074 6.913,26.074 8,28C9.666,28.043 11.334,28.041 13,28C13.33,27.67 13.66,27.34 14,27C15.666,26.959 17.334,26.957 19,27C18.433,30.289 17.602,31.897 15,34C11.915,34.745 9.094,34.689 6,34C3.205,31.855 1.572,29.144 0,26C-0.04,23.667 -0.043,21.333 0,19L-7,19C-6.67,17.68 -6.34,16.36 -6,15C-4.35,14.67 -2.7,14.34 -1,14C-1.012,13.073 -1.023,12.146 -1.035,11.191C-1.044,9.994 -1.053,8.796 -1.062,7.562C-1.074,6.368 -1.086,5.173 -1.098,3.941C-1,1 -1,1 0,0Z" style="fill-rule:nonzero;"/>
    </g>
    <g transform="matrix(4.166667,0,0,4.166667,376.790582,888.290543)">
        <path d="M0,0C1.973,0.266 1.973,0.266 4.973,2.266C5.478,6.162 5.641,8.35 3.285,11.578C0.914,13.308 -1.25,14.34 -4.027,15.266C-2.19,17.538 -2.19,17.538 0.574,17.461L3.598,17.391L6.637,17.336L8.973,17.266C8.184,22.102 8.184,22.102 6.285,23.578C3.266,24.476 1.117,24.643 -2.027,24.266C-5.825,22.181 -8.983,20.138 -11.027,16.266C-12.234,11.277 -12.666,9.455 -10.215,4.891C-6.71,0.684 -5.558,0.042 0,0ZM-4.027,5.266L-6.027,9.266L-1.027,8.266L-0.027,5.266L-4.027,5.266Z"/>
    </g>
    <g transform="matrix(4.166667,0,0,4.166667,276.67665,201.897314)">
        <path d="M0,0C0.33,1.32 0.66,2.64 1,4C-2.62,5.316 -5.096,6 -9,6L-9,14C-4.545,13.505 -4.545,13.505 0,13C0.33,14.32 0.66,15.64 1,17C-2.088,18.765 -3.233,19 -7,19C-6.67,20.98 -6.34,22.96 -6,25C-2.7,24.67 0.6,24.34 4,24C4.33,25.32 4.66,26.64 5,28C1.262,30.211 -1.872,31.913 -6.25,32.25C-9.864,30.607 -10.728,28.808 -12.254,25.23C-13.393,21.826 -13.854,18.56 -14,15C-14.052,13.976 -14.103,12.953 -14.156,11.898C-14.337,5.604 -14.337,5.604 -14,3C-9.412,-0.059 -5.433,-0.126 0,0Z" style="fill-rule:nonzero;"/>
    </g>
    <g transform="matrix(4.166667,0,0,4.166667,1260.009983,131.06398)">
        <path d="M0,0C0.33,1.32 0.66,2.64 1,4C-2.83,5.802 -5.781,6.196 -10,6C-9.67,8.31 -9.34,10.62 -9,13L1,13C0.67,14.32 0.34,15.64 0,17C-3.96,17.495 -3.96,17.495 -8,18C-7.67,20.31 -7.34,22.62 -7,25C-6.299,24.67 -5.598,24.34 -4.875,24C-1.74,22.91 0.706,22.847 4,23C3.938,24.75 3.938,24.75 3,27C-0.688,29.676 -2.702,30.95 -7.25,31.125C-10,30 -10,30 -11.598,27.363C-13.061,23.853 -13.701,20.827 -14.188,17.062C-14.346,15.898 -14.505,14.734 -14.668,13.535C-15.004,9.959 -15.268,6.586 -15,3C-10.122,-0.252 -5.776,-0.113 0,0Z" style="fill-rule:nonzero;"/>
    </g>
    <g transform="matrix(4.166667,0,0,4.166667,1080.843316,1185.230647)">
        <path d="M0,0C2,1.125 2,1.125 3,3C3.645,7.834 2.385,10.826 0,15L2.25,15.812C4.909,16.961 6.878,18.035 9,20L9,23C4.435,22.457 1.027,21.205 -3,19L-4,28L-7,27C-10.448,19.307 -11.566,10.352 -11,2C-7.19,-0.54 -4.465,-0.586 0,0ZM-7,4C-7.065,6.991 -7.354,9.291 -6,12L-1,8L-2,4L-7,4Z"/>
    </g>
    <g transform="matrix(4.166667,0,0,4.166667,217.562066,500.334814)">
        <path d="M0,0C4.092,0.481 5.385,1.351 8.188,4.375C11.877,10.384 12.63,15.41 12.188,22.375L8.188,22.375C7.922,21.471 7.656,20.568 7.383,19.637C7.03,18.457 6.676,17.278 6.312,16.062C5.79,14.305 5.79,14.305 5.258,12.512C4.3,9.266 4.3,9.266 2.188,6.375L-0.812,6.375C-2.334,9.417 -2.187,12.655 -2.375,16C-2.418,16.706 -2.461,17.413 -2.506,18.141C-2.612,19.885 -2.713,21.63 -2.812,23.375C-4.688,24 -4.688,24 -6.812,24.375C-9.166,22.021 -9.091,21.445 -9.227,18.242C-9.265,17.437 -9.304,16.631 -9.344,15.801C-9.375,14.959 -9.406,14.117 -9.438,13.25C-9.476,12.401 -9.515,11.551 -9.555,10.676C-9.649,8.576 -9.732,6.475 -9.812,4.375C-8.637,3.942 -8.637,3.942 -7.438,3.5C-4.342,2.173 -3.385,0.451 0,0Z" style="fill-rule:nonzero;"/>
    </g>
    <g transform="matrix(4.166667,0,0,4.166667,1214.17665,1164.397314)">
        <path d="M0,0C2.188,0.438 2.188,0.438 5,2C6.449,4.235 7.63,6.51 8.789,8.906C9.965,11.297 9.965,11.297 13,13C13.293,15.602 13.293,15.602 13.188,18.625L13.105,21.664L13,24C11.078,23.66 11.078,23.66 9,23C7.75,20.437 7.75,20.437 7,18L0,18L0,26L-4,25C-4.306,16.406 -4.458,9.022 -1,1L0,0ZM1,7L1,13L5,13L3,7L1,7Z"/>
    </g>
    <g transform="matrix(4.166667,0,0,4.166667,1410.009983,1139.397314)">
        <path d="M0,0L0,3C-3.508,4.604 -6.144,5.22 -10,5C-9.67,6.98 -9.34,8.96 -9,11C-6.36,10.67 -3.72,10.34 -1,10C-0.67,11.32 -0.34,12.64 0,14C-2.709,15.354 -5.009,15.065 -8,15C-7.67,17.31 -7.34,19.62 -7,22C-6.093,21.67 -5.185,21.34 -4.25,21C-1,20 -1,20 3,20C2.938,21.75 2.938,21.75 2,24C-1.417,26.432 -3.579,27.903 -7.75,28.188C-11.275,26.327 -11.774,23.677 -13,20C-13.992,16.011 -14.104,12.292 -14.062,8.188C-14.053,7.026 -14.044,5.865 -14.035,4.668C-14.024,3.788 -14.012,2.907 -14,2C-4.59,-1.629 -4.59,-1.629 0,0Z" style="fill-rule:nonzero;"/>
    </g>
    <g transform="matrix(4.166667,0,0,4.166667,930.843316,160.230647)">
        <path d="M0,0L0,4C-1.454,4.402 -1.454,4.402 -2.938,4.812C-3.948,5.204 -4.959,5.596 -6,6C-6.33,6.99 -6.66,7.98 -7,9C-6.397,9.17 -5.793,9.34 -5.172,9.516C3.546,12.159 3.546,12.159 6,16C6.712,20.35 6.532,22.235 4,25.875C0.068,28.66 -2.209,28.921 -7,29C-7.66,28.34 -8.32,27.68 -9,27C-8.625,24.875 -8.625,24.875 -8,23C-4.535,22.505 -4.535,22.505 -1,22L-1,18C-3.172,16.225 -3.172,16.225 -5.938,14.812C-11,12 -11,12 -12,11C-12.375,7.688 -12.375,7.688 -12,4C-8.406,-0.247 -5.38,-0.422 0,0Z" style="fill-rule:nonzero;"/>
    </g>
    <g transform="matrix(4.166667,0,0,4.166667,1151.67665,143.56398)">
        <path d="M0,0C2.007,0.287 4.009,0.619 6,1L6,4C5.216,4.268 4.433,4.536 3.625,4.812C0.719,5.848 0.719,5.848 -1,9C-1.616,12.953 -1.898,16.711 0.438,20.062C4.273,21.466 7.961,21.233 12,21L12,25C8.288,27.475 5.304,27.659 1,27C-2.654,25.173 -4.545,24.152 -6.062,20.312C-6.372,19.549 -6.681,18.786 -7,18C-9.548,17.106 -9.548,17.106 -12,17C-11.67,16.01 -11.34,15.02 -11,14C-10.01,14.33 -9.02,14.66 -8,15C-7.914,14.408 -7.827,13.817 -7.738,13.207C-6.748,7.637 -5.528,4.715 -1,1C-0.67,0.67 -0.34,0.34 0,0Z" style="fill-rule:nonzero;"/>
    </g>
    <g transform="matrix(4.166667,0,0,4.166667,1154.80165,1176.37648)">
        <path d="M0,0C0.799,0.018 1.598,0.036 2.422,0.055C3.025,0.078 3.628,0.101 4.25,0.125L4.25,3.125C1.28,3.785 -1.69,4.445 -4.75,5.125L-4.75,11.125C-2.11,10.795 0.53,10.465 3.25,10.125L3.25,14.125C1.27,14.455 -0.71,14.785 -2.75,15.125C-2.42,16.775 -2.09,18.425 -1.75,20.125C-1.028,19.981 7.506,18.274 8.25,18.125C7.938,20.5 7.938,20.5 7.25,23.125C4.281,25.104 3.593,25.419 0.25,25.438C-0.431,25.454 -1.111,25.471 -1.812,25.488C-4.379,25.007 -5.192,24.202 -6.75,22.125C-8.964,15.673 -9.008,8.871 -8.75,2.125C-5.688,0.341 -3.529,-0.104 0,0Z" style="fill-rule:nonzero;"/>
    </g>
    <g transform="matrix(4.166667,0,0,4.166667,1010.009983,1197.730647)">
        <path d="M0,0C0.33,1.32 0.66,2.64 1,4C0.072,3.917 -0.856,3.835 -1.812,3.75C-5.005,3.661 -5.005,3.661 -6.688,5.625C-8.374,8.676 -8.3,10.786 -8.188,14.25C-8.16,15.328 -8.133,16.405 -8.105,17.516C-8.071,18.335 -8.036,19.155 -8,20C-6.113,20.309 -2.772,20.857 -2.043,20.977C0.318,21.196 0.318,21.196 3,19L6,19C5.688,21.375 5.688,21.375 5,24C0.973,26.685 -2.268,26.682 -7,26C-10.469,23.934 -12.809,21.898 -14,18C-14.559,11.179 -13.409,6.93 -9.812,1.062C-6.712,-0.755 -3.529,-0.174 0,0Z" style="fill-rule:nonzero;"/>
    </g>
    <g transform="matrix(4.166667,0,0,4.166667,1335.009983,1156.06398)">
        <path d="M0,0L0,4L-6,4C-5.783,5.097 -5.567,6.194 -5.344,7.324C-5.062,8.779 -4.781,10.233 -4.5,11.688C-4.357,12.409 -4.214,13.13 -4.066,13.873C-3.344,17.638 -2.818,21.145 -3,25C-4.32,24.67 -5.64,24.34 -7,24C-7.67,21.376 -8.336,18.751 -9,16.125C-9.191,15.379 -9.382,14.632 -9.578,13.863C-11,8.227 -11,8.227 -11,6L-18,6L-18,2C-11.88,0.595 -6.283,-0.233 0,0Z" style="fill-rule:nonzero;"/>
    </g>
    <g transform="matrix(4.166667,0,0,4.166667,643.343316,810.230647)">
        <path d="M0,0C1.32,0.33 2.64,0.66 4,1C5.026,4.66 6.022,8.327 7,12C7.319,13.179 7.319,13.179 7.645,14.383C9.037,19.973 9.216,25.254 9,31C7.68,31.33 6.36,31.66 5,32C3.386,27.48 2.258,22.96 1.375,18.25C1.243,17.551 1.111,16.853 0.975,16.133C0.01,10.724 -0.357,5.496 0,0Z" style="fill-rule:nonzero;"/>
    </g>
    <g transform="matrix(4.166667,0,0,4.166667,564.17665,889.397314)">
        <path d="M0,0C2.523,1.974 2.993,2.967 3.688,6.188C3.791,7.116 3.894,8.044 4,9L10,9C9.01,9.99 8.02,10.98 7,12C8.32,12.33 9.64,12.66 11,13C9.35,13.33 7.7,13.66 6,14C6.165,14.619 6.33,15.238 6.5,15.875C7.201,20.255 7.077,24.574 7,29L3,29C0.932,23.142 -0.427,17.272 -1.312,11.125C-1.494,9.869 -1.676,8.614 -1.863,7.32C-1.998,4.057 -1.788,2.665 0,0Z" style="fill-rule:nonzero;"/>
    </g>
    <g transform="matrix(4.166667,0,0,4.166667,1189.17665,868.56398)">
        <path d="M0,0C2,2 2,2 2,4C-7.766,5.849 -17.036,7.184 -27,7C-27.66,5.68 -28.32,4.36 -29,3C-27.018,1.018 -23.403,1.27 -20.688,0.938C-19.611,0.806 -19.611,0.806 -18.513,0.671C-12.4,-0.033 -6.134,-0.722 0,0Z" style="fill-rule:nonzero;"/>
    </g>
    <g transform="matrix(4.166667,0,0,4.166667,632.194228,672.323746)">
        <path d="M0,0C1.028,0.003 2.056,0.006 3.115,0.01C4.723,0.022 4.723,0.022 6.363,0.035C7.447,0.04 8.53,0.044 9.646,0.049C12.323,0.061 14.999,0.077 17.676,0.098C17.346,0.758 17.016,1.418 16.676,2.098C14.391,2.512 14.391,2.512 11.613,2.723C10.235,2.835 10.235,2.835 8.828,2.949C8.118,2.998 7.408,3.047 6.676,3.098L6.676,6.098C5.868,6.074 5.059,6.051 4.227,6.027C3.158,6.009 2.089,5.991 0.988,5.973C-0.067,5.949 -1.123,5.926 -2.211,5.902C-5.376,6.101 -7.44,6.853 -10.324,8.098C-14.012,8.348 -14.012,8.348 -17.324,8.098C-17.984,7.438 -18.644,6.778 -19.324,6.098C-17.324,3.098 -17.324,3.098 -15.266,2.402C-14.481,2.261 -13.696,2.119 -12.887,1.973C-2.315,-0.013 -2.315,-0.013 0,0Z" style="fill-rule:nonzero;"/>
    </g>
    <g transform="matrix(4.166667,0,0,4.166667,817.822483,530.28273)">
        <path d="M0,0C1.127,-0.012 2.253,-0.024 3.414,-0.037C4.492,-0.039 5.569,-0.041 6.68,-0.043C8.141,-0.049 8.141,-0.049 9.632,-0.055C12.125,0.188 12.125,0.188 15.125,2.188C12.171,3.172 9.772,3.473 6.68,3.723C5.602,3.81 4.524,3.897 3.414,3.986C2.287,4.073 1.161,4.16 0,4.25C-1.655,4.386 -1.655,4.386 -3.344,4.525C-9.543,5.015 -15.656,5.286 -21.875,5.188L-21.875,1.188C-14.561,0.221 -7.374,0.004 0,0Z" style="fill-rule:nonzero;"/>
    </g>
    <g transform="matrix(4.166667,0,0,4.166667,1289.17665,868.56398)">
        <path d="M0,0C1.655,0.385 3.322,0.728 5,1L5,2C2.001,2.339 -0.999,2.671 -4,3C-5.259,3.143 -5.259,3.143 -6.543,3.289C-11.722,3.851 -16.795,4.372 -22,4C-22.66,3.01 -23.32,2.02 -24,1C-26.563,0.27 -26.563,0.27 -29,0L-29,-1C-25.793,-1.367 -22.584,-1.717 -19.375,-2.062C-18.471,-2.166 -17.568,-2.27 -16.637,-2.377C-5.356,-3.571 -5.356,-3.571 0,0Z" style="fill-rule:nonzero;"/>
    </g>
    <g transform="matrix(4.166667,0,0,4.166667,743.343316,168.56398)">
        <path d="M0,0C2.875,1.562 2.875,1.562 5,4C5.5,7.562 5.5,7.562 5,11C3.5,12.938 3.5,12.938 2,14C1.67,13.34 1.34,12.68 1,12C0.34,12.66 -0.32,13.32 -1,14C-1.99,13.67 -2.98,13.34 -4,13C-3.505,12.588 -3.01,12.175 -2.5,11.75C-0.566,9.878 -0.566,9.878 -1,6C-2.65,5.67 -4.3,5.34 -6,5L-6,13C-6.99,12.67 -7.98,12.34 -9,12C-9.042,9.667 -9.041,7.333 -9,5C-8.67,4.67 -8.34,4.34 -8,4C-8.66,3.34 -9.32,2.68 -10,2C-6.584,-0.102 -3.978,-0.487 0,0Z" style="fill-rule:nonzero;"/>
    </g>
    <g transform="matrix(4.166667,0,0,4.166667,1093.343316,497.730647)">
        <path d="M0,0C7.471,-0.299 14.63,0.841 22,2L22,3C15.069,4.54 6.867,5.07 0,3L0,0Z" style="fill-rule:nonzero;"/>
    </g>
    <g transform="matrix(4.166667,0,0,4.166667,1172.509983,489.397314)">
        <path d="M0,0L0,2L4,2L4,4L11,4L11,5C8.145,4.885 5.292,4.758 2.438,4.625C1.638,4.594 0.838,4.563 0.014,4.531C-4.964,4.287 -9.264,3.564 -14,2L-14,1C-9.276,0.348 -4.78,-0.12 0,0Z" style="fill-rule:nonzero;"/>
    </g>
    <g transform="matrix(4.166667,0,0,4.166667,1247.509983,485.230647)">
        <path d="M0,0L0,1C-1.65,1.33 -3.3,1.66 -5,2L-5,5L-14,5L-14,3L-18,3L-18,1C-12.033,-0.326 -6.074,-0.088 0,0Z" style="fill-rule:nonzero;"/>
    </g>
    <g transform="matrix(4.166667,0,0,4.166667,930.843316,160.230647)">
        <path d="M0,0L0,4C-1.454,4.402 -1.454,4.402 -2.938,4.812C-3.948,5.204 -4.959,5.596 -6,6C-6.33,6.99 -6.66,7.98 -7,9C-6.34,9.33 -5.68,9.66 -5,10L-8,10L-8,6C-9.32,5.34 -10.64,4.68 -12,4C-7.999,0.12 -5.519,-0.433 0,0Z" style="fill-rule:nonzero;"/>
    </g>
    <g transform="matrix(4.166667,0,0,4.166667,1035.009983,1276.897314)">
        <path d="M0,0C-0.312,2.375 -0.312,2.375 -1,5C-4.204,7.136 -5.019,7.231 -8.688,7.125C-9.9,7.098 -9.9,7.098 -11.137,7.07C-12.059,7.036 -12.059,7.036 -13,7C-13,5 -13,5 -11,3C-8.675,2.306 -6.341,1.639 -4,1C-3,0 -3,0 0,0Z" style="fill-rule:nonzero;"/>
    </g>
    <g transform="matrix(4.166667,0,0,4.166667,1154.80165,1176.37648)">
        <path d="M0,0C0.799,0.018 1.598,0.036 2.422,0.055C3.025,0.078 3.628,0.101 4.25,0.125L4.25,3.125C3.612,3.246 2.974,3.367 2.316,3.492C1.077,3.744 1.077,3.744 -0.188,4C-1.011,4.162 -1.835,4.325 -2.684,4.492C-3.366,4.701 -4.047,4.91 -4.75,5.125C-5.08,5.785 -5.41,6.445 -5.75,7.125L-5.75,5.125L-7.75,5.125C-8.08,4.135 -8.41,3.145 -8.75,2.125C-5.688,0.341 -3.529,-0.104 0,0Z" style="fill-rule:nonzero;"/>
    </g>
    <g transform="matrix(4.166667,0,0,4.166667,947.509983,1076.897314)">
        <path d="M0,0L10,0C9,2 9,2 6,4C6.33,4.66 6.66,5.32 7,6C2.545,6.495 2.545,6.495 -2,7C-1,3 -1,3 0,0Z" style="fill-rule:nonzero;"/>
    </g>
    <g transform="matrix(4.166667,0,0,4.166667,276.67665,201.897314)">
        <path d="M0,0C0.33,1.32 0.66,2.64 1,4C-2.62,5.316 -5.096,6 -9,6C-9.33,6.99 -9.66,7.98 -10,9L-10,5L-8,5L-8,2C-8.99,1.67 -9.98,1.34 -11,1C-7.266,0.121 -3.832,-0.089 0,0Z" style="fill-rule:nonzero;"/>
    </g>
    <g transform="matrix(4.166667,0,0,4.166667,889.17665,522.730647)">
        <path d="M0,0C-0.33,0.99 -0.66,1.98 -1,3L6,3L6,4C4.742,4.021 0.772,4.086 0.043,4.098C-2,4 -2,4 -5,3C-6.937,2.955 -8.875,2.961 -10.812,3C-15.003,3.041 -18.888,2.914 -23,2L-23,1C-15.311,-0.061 -7.755,-0.099 0,0Z" style="fill-rule:nonzero;"/>
    </g>
    <g transform="matrix(4.166667,0,0,4.166667,976.67665,510.230647)">
        <path d="M0,0L0,3C2.97,3.495 2.97,3.495 6,4L6,5C0.72,4.67 -4.56,4.34 -10,4L-10,3C-12.31,2.67 -14.62,2.34 -17,2L-17,1C-15.104,0.831 -13.209,0.665 -11.312,0.5C-10.257,0.407 -9.201,0.314 -8.113,0.219C-5.394,0.028 -2.725,-0.04 0,0Z" style="fill-rule:nonzero;"/>
    </g>
    <g transform="matrix(4.166667,0,0,4.166667,297.509983,306.06398)">
        <path d="M0,0C-0.125,1.875 -0.125,1.875 -1,4C-4.014,5.407 -6.06,6.148 -9.375,5.625C-9.911,5.419 -10.447,5.213 -11,5L-11,2C-3.571,-1.571 -3.571,-1.571 0,0Z" style="fill-rule:nonzero;"/>
    </g>
    <g transform="matrix(4.166667,0,0,4.166667,1226.67665,481.06398)">
        <path d="M0,0C8.571,-0.143 8.571,-0.143 12,1L12,3C10.02,3.99 10.02,3.99 8,5L8,6L0,6L0,0Z" style="fill-rule:nonzero;"/>
    </g>
    <g transform="matrix(4.166667,0,0,4.166667,593.343316,539.397314)">
        <path d="M0,0L3,0C2.75,2.375 2.75,2.375 2,5C-1.116,7.424 -4.174,7.174 -8,7C-7.67,5.35 -7.34,3.7 -7,2L0,2L0,0Z" style="fill-rule:nonzero;"/>
    </g>
    <g transform="matrix(4.166667,0,0,4.166667,480.843316,193.56398)">
        <path d="M0,0C1.32,0.33 2.64,0.66 4,1C7.158,6.771 7.158,6.771 6.688,10.438C6.461,10.953 6.234,11.469 6,12C5.67,10.68 5.34,9.36 5,8C3.68,8.33 2.36,8.66 1,9C0.67,6.03 0.34,3.06 0,0Z" style="fill-rule:nonzero;"/>
    </g>
    <g transform="matrix(4.166667,0,0,4.166667,1576.67665,1056.06398)">
        <path d="M0,0L1,0C1.506,2.874 2.005,5.749 2.5,8.625C2.643,9.433 2.786,10.241 2.934,11.074C3.679,15.439 4.173,19.552 4,24L2,24C1.465,21.315 0.947,18.628 0.438,15.938C0.286,15.185 0.135,14.433 -0.021,13.658C-0.932,8.767 -0.979,4.884 0,0Z" style="fill-rule:nonzero;"/>
    </g>
    <g transform="matrix(4.166667,0,0,4.166667,222.509983,697.730647)">
        <path d="M0,0L3,0C2.859,1.605 2.712,3.209 2.562,4.812C2.481,5.706 2.4,6.599 2.316,7.52C2,10 2,10 1,13L-2,13C-2.193,8.176 -1.757,4.504 0,0Z" style="fill-rule:nonzero;"/>
    </g>
    <g transform="matrix(4.166667,0,0,4.166667,1080.843316,1251.897314)">
        <path d="M0,0C3.776,0.524 6.224,1.327 9,4L9,7C4.611,6.49 1.663,5.478 -2,3C-1.34,2.01 -0.68,1.02 0,0Z" style="fill-rule:nonzero;"/>
    </g>
    <g transform="matrix(4.166667,0,0,4.166667,901.67665,901.897314)">
        <path d="M0,0L0,3C0.66,3.66 1.32,4.32 2,5C0.742,5.021 -3.228,5.086 -3.957,5.098C-6,5 -6,5 -9,4L-9,2L-15,2L-15,1C-9.975,0.375 -5.075,-0.13 0,0Z" style="fill-rule:nonzero;"/>
    </g>
    <g transform="matrix(4.166667,0,0,4.166667,1126.67665,222.730647)">
        <path d="M0,0C0.33,0.66 0.66,1.32 1,2C2.316,2.699 3.65,3.367 5,4C5.33,4.33 5.66,4.66 6,5C7.686,5.072 9.375,5.084 11.062,5.062C11.982,5.053 12.901,5.044 13.848,5.035C14.558,5.024 15.268,5.012 16,5C16.33,4.34 16.66,3.68 17,3C16.01,2.67 15.02,2.34 14,2C15.65,2.33 17.3,2.66 19,3C17.25,6.875 17.25,6.875 15,8C10.204,8.4 7.892,8.454 3.562,6.25C1.063,4.056 0.232,3.249 0,0Z" style="fill-rule:nonzero;"/>
    </g>
    <g transform="matrix(4.166667,0,0,4.166667,397.509983,197.730647)">
        <path d="M0,0C2.062,0.438 2.062,0.438 4,1C3.858,2.896 3.711,4.792 3.562,6.688C3.481,7.743 3.4,8.799 3.316,9.887C3.035,12.651 2.598,15.289 2,18L1,18C0.815,8.59 0.815,8.59 2,4L0,4C-0.33,4.99 -0.66,5.98 -1,7C-1.043,5 -1.041,3 -1,1C-0.67,0.67 -0.34,0.34 0,0Z" style="fill-rule:nonzero;"/>
    </g>
    <g transform="matrix(4.166667,0,0,4.166667,518.343316,676.897314)">
        <path d="M0,0C6.625,-0.125 6.625,-0.125 10,1C9.67,2.32 9.34,3.64 9,5C6.36,4.67 3.72,4.34 1,4C0.67,2.68 0.34,1.36 0,0Z" style="fill-rule:nonzero;"/>
    </g>
    <g transform="matrix(4.166667,0,0,4.166667,585.009983,868.56398)">
        <path d="M0,0C-0.464,1.145 -0.464,1.145 -0.938,2.312C-1.679,4.188 -2.362,6.087 -3,8C-3.66,7.34 -4.32,6.68 -5,6C-5.66,6.99 -6.32,7.98 -7,9C-8,8 -8,8 -8.375,5.625C-8,3 -8,3 -5.688,1.188C-3,0 -3,0 0,0Z" style="fill-rule:nonzero;"/>
    </g>
    <g transform="matrix(4.166667,0,0,4.166667,1201.67665,139.397314)">
        <path d="M0,0L4,0C4.66,1.32 5.32,2.64 6,4L4,4L4,11C3.01,11.33 2.02,11.66 1,12C0.67,8.04 0.34,4.08 0,0Z" style="fill-rule:nonzero;"/>
    </g>
    <g transform="matrix(4.166667,0,0,4.166667,1001.67665,889.397314)">
        <path d="M0,0L0,2C-1.412,2.534 -2.83,3.052 -4.25,3.562C-5.039,3.853 -5.828,4.143 -6.641,4.441C-9.191,5.045 -10.553,4.847 -13,4C-12.67,3.67 -12.34,3.34 -12,3C-12.66,2.34 -13.32,1.68 -14,1C-9.277,0.229 -4.785,-0.098 0,0Z" style="fill-rule:nonzero;"/>
    </g>
    <g transform="matrix(4.166667,0,0,4.166667,297.509983,206.06398)">
        <path d="M0,0C1.938,0.625 1.938,0.625 4,2C4.75,5.125 4.75,5.125 5,8C3.68,8.33 2.36,8.66 1,9C-1.092,4.569 -1.092,4.569 -0.625,1.688C-0.419,1.131 -0.212,0.574 0,0Z" style="fill-rule:nonzero;"/>
    </g>
    <g transform="matrix(4.166667,0,0,4.166667,1172.509983,1222.730647)">
        <path d="M0,0C-0.33,0.99 -0.66,1.98 -1,3C-2.98,3.33 -4.96,3.66 -7,4C-7.33,5.32 -7.66,6.64 -8,8C-7.979,7.051 -7.959,6.103 -7.938,5.125C-7.774,2.093 -7.774,2.093 -9,0C-5.622,-0.845 -3.325,-1.108 0,0Z" style="fill-rule:nonzero;"/>
    </g>
    <g transform="matrix(4.166667,0,0,4.166667,1364.17665,218.56398)">
        <path d="M0,0C-0.33,1.65 -0.66,3.3 -1,5C-2.65,5.33 -4.3,5.66 -6,6C-7.125,2.25 -7.125,2.25 -6,0C-2.491,-1.245 -2.491,-1.245 0,0Z" style="fill-rule:nonzero;"/>
    </g>
    <g transform="matrix(4.166667,0,0,4.166667,1314.17665,1218.56398)">
        <path d="M0,0L1,0C1.33,3.3 1.66,6.6 2,10C0.68,9.67 -0.64,9.34 -2,9C-2.33,7.02 -2.66,5.04 -3,3C-2.01,2.67 -1.02,2.34 0,2L0,0Z" style="fill-rule:nonzero;"/>
    </g>
    <g transform="matrix(4.166667,0,0,4.166667,718.343316,668.56398)">
        <path d="M0,0C2.602,0.023 2.602,0.023 5.625,0.375C6.628,0.486 7.631,0.597 8.664,0.711C9.82,0.854 9.82,0.854 11,1L11,3C9.928,3.144 8.855,3.289 7.75,3.438C5.083,3.837 2.586,4.276 0,5L0,3C-0.66,2.67 -1.32,2.34 -2,2C-1.34,1.34 -0.68,0.68 0,0Z" style="fill-rule:nonzero;"/>
    </g>
    <g transform="matrix(4.166667,0,0,4.166667,826.67665,243.56398)">
        <path d="M0,0C2.535,1.014 5.062,2.027 7.562,3.125C10.196,4.225 10.196,4.225 14,4C13.67,5.32 13.34,6.64 13,8C7.64,7.665 3.907,4.413 0,1L0,0Z" style="fill-rule:nonzero;"/>
    </g>
    <g transform="matrix(4.166667,0,0,4.166667,289.17665,1056.06398)">
        <path d="M0,0C0.33,0.66 0.66,1.32 1,2L3,2C3.33,3.32 3.66,4.64 4,6C3.01,6.495 3.01,6.495 2,7C1.344,9.527 1.344,9.527 1,12L-1,12C-1.027,10.563 -1.046,9.125 -1.062,7.688C-1.074,6.887 -1.086,6.086 -1.098,5.262C-1,3 -1,3 0,0Z" style="fill-rule:nonzero;"/>
    </g>
    <g transform="matrix(4.166667,0,0,4.166667,397.509983,960.230647)">
        <path d="M0,0L4,0C3.75,2.375 3.75,2.375 3,5C-0.116,7.424 -3.174,7.174 -7,7L-7,5C-5.02,4.67 -3.04,4.34 -1,4C-0.67,2.68 -0.34,1.36 0,0Z" style="fill-rule:nonzero;"/>
    </g>
    <g transform="matrix(4.166667,0,0,4.166667,1189.17665,1251.897314)">
        <path d="M0,0C-0.188,2.375 -0.188,2.375 -1,5C-3.562,6.312 -3.562,6.312 -6,7C-6.33,5.35 -6.66,3.7 -7,2C-4.353,0.539 -3.106,0 0,0Z" style="fill-rule:nonzero;"/>
    </g>
    <g transform="matrix(4.166667,0,0,4.166667,672.509983,897.730647)">
        <path d="M0,0L2,0L2,10C0.68,10.33 -0.64,10.66 -2,11C-2.33,10.01 -2.66,9.02 -3,8L-1,8C-0.67,5.36 -0.34,2.72 0,0Z" style="fill-rule:nonzero;"/>
    </g>
    <g transform="matrix(4.166667,0,0,4.166667,864.17665,172.730647)">
        <path d="M0,0C-0.398,2.886 -0.79,3.822 -3.062,5.75C-3.702,6.162 -4.341,6.575 -5,7L-5,4C-7.97,6.475 -7.97,6.475 -11,9C-8.824,3.658 -5.922,0 0,0Z" style="fill-rule:nonzero;"/>
    </g>
    <g transform="matrix(4.166667,0,0,4.166667,339.17665,1110.230647)">
        <path d="M0,0C0.66,0.33 1.32,0.66 2,1L2,8C0.68,8.33 -0.64,8.66 -2,9C-2.25,3.375 -2.25,3.375 0,0Z" style="fill-rule:nonzero;"/>
    </g>
    <g transform="matrix(4.166667,0,0,4.166667,722.509983,1060.230647)">
        <path d="M0,0L14,0L14,3C12.228,2.886 10.458,2.758 8.688,2.625C7.701,2.555 6.715,2.486 5.699,2.414C3,2 3,2 0,0Z" style="fill-rule:nonzero;"/>
    </g>
    <g transform="matrix(4.166667,0,0,4.166667,1401.67665,122.730647)">
        <path d="M0,0C2.188,0.312 2.188,0.312 4,1C3.34,2.98 2.68,4.96 2,7C1.67,6.34 1.34,5.68 1,5C0.01,5.33 -0.98,5.66 -2,6C-2.33,5.01 -2.66,4.02 -3,3C-1.75,1.438 -1.75,1.438 0,0Z" style="fill-rule:nonzero;"/>
    </g>
    <g transform="matrix(4.166667,0,0,4.166667,1289.17665,1164.397314)">
        <path d="M0,0C1.945,-0.293 1.945,-0.293 4.125,-0.188C5.404,-0.126 6.683,-0.064 8,0C7.01,0.33 6.02,0.66 5,1C4.267,3.015 4.267,3.015 4,5C3.01,4.67 2.02,4.34 1,4C0.67,4.66 0.34,5.32 0,6L0,4C-0.66,3.67 -1.32,3.34 -2,3C-1.34,2.01 -0.68,1.02 0,0Z" style="fill-rule:nonzero;"/>
    </g>
    <g transform="matrix(4.166667,0,0,4.166667,622.509983,1093.56398)">
        <path d="M0,0C0.66,0.66 1.32,1.32 2,2C-2.053,2.982 -5.839,3.082 -10,3C-10.33,2.34 -10.66,1.68 -11,1C-3.366,-1.496 -3.366,-1.496 0,0Z" style="fill-rule:nonzero;"/>
    </g>
    <g transform="matrix(4.166667,0,0,4.166667,689.17665,1064.397314)">
        <path d="M0,0L5,0L5,1C7.31,1.33 9.62,1.66 12,2L12,3C5.565,3.495 5.565,3.495 -1,4C-0.67,2.68 -0.34,1.36 0,0Z" style="fill-rule:nonzero;"/>
    </g>
    <g transform="matrix(4.166667,0,0,4.166667,376.67665,497.730647)">
        <path d="M0,0C2.475,0.495 2.475,0.495 5,1C4.01,4.3 3.02,7.6 2,11L1,11C0.67,7.37 0.34,3.74 0,0Z" style="fill-rule:nonzero;"/>
    </g>
    <g transform="matrix(4.166667,0,0,4.166667,126.67665,260.230647)">
        <path d="M0,0L1,0C1.219,12.706 1.219,12.706 -3,18C-2.57,11.749 -1.986,5.958 0,0Z" style="fill-rule:nonzero;"/>
    </g>
    <g transform="matrix(4.166667,0,0,4.166667,585.009983,181.06398)">
        <path d="M0,0C1.98,0.495 1.98,0.495 4,1L4,9C3.546,8.34 3.092,7.68 2.625,7C2.089,6.34 1.552,5.68 1,5L-1,5C-0.67,3.35 -0.34,1.7 0,0Z" style="fill-rule:nonzero;"/>
    </g>
    <g transform="matrix(4.166667,0,0,4.166667,1055.843316,1260.230647)">
        <path d="M0,0C2.094,3.402 2.179,6.053 2,10C-1,9 -1,9 -2,7C-2.04,5 -2.043,3 -2,1C-1.34,0.67 -0.68,0.34 0,0Z" style="fill-rule:nonzero;"/>
    </g>
    <g transform="matrix(4.166667,0,0,4.166667,1422.509983,1222.730647)">
        <path d="M0,0C-0.25,1.875 -0.25,1.875 -1,4C-3.062,5.25 -3.062,5.25 -5,6C-5.66,5.34 -6.32,4.68 -7,4C-5.52,-0.441 -4.69,0 0,0Z" style="fill-rule:nonzero;"/>
    </g>
    <g transform="matrix(4.166667,0,0,4.166667,310.009983,906.06398)">
        <path d="M0,0C-0.33,1.32 -0.66,2.64 -1,4C-2.65,4.33 -4.3,4.66 -6,5L-6,2C-6.99,1.67 -7.98,1.34 -9,1C-5.927,0.089 -3.199,-0.089 0,0Z" style="fill-rule:nonzero;"/>
    </g>
    <g transform="matrix(4.166667,0,0,4.166667,1164.17665,868.56398)">
        <path d="M0,0C2.875,-0.125 2.875,-0.125 6,0C8,2 8,2 8,4C5.03,3.67 2.06,3.34 -1,3C-0.67,2.01 -0.34,1.02 0,0Z" style="fill-rule:nonzero;"/>
    </g>
    <g transform="matrix(4.166667,0,0,4.166667,1376.67665,843.56398)">
        <path d="M0,0L6,0C6,4 6,4 5,5C3.481,5.072 1.958,5.084 0.438,5.062C-0.389,5.053 -1.215,5.044 -2.066,5.035C-2.704,5.024 -3.343,5.012 -4,5L-4,4L3,4C2.01,2.68 1.02,1.36 0,0Z" style="fill-rule:nonzero;"/>
    </g>
    <g transform="matrix(4.166667,0,0,4.166667,310.009983,664.397314)">
        <path d="M0,0C1.938,0.125 1.938,0.125 4,1C5.25,3.562 5.25,3.562 6,6C4,8 4,8 2,8L2,6C1.34,5.67 0.68,5.34 0,5L2,5L2,3C1.01,2.34 0.02,1.68 -1,1C-0.67,0.67 -0.34,0.34 0,0Z" style="fill-rule:nonzero;"/>
    </g>
    <g transform="matrix(4.166667,0,0,4.166667,1410.009983,1185.230647)">
        <path d="M0,0L0,3C-1.65,3.33 -3.3,3.66 -5,4C-5.99,2.68 -6.98,1.36 -8,0C-4.71,-1.097 -3.287,-0.8 0,0Z" style="fill-rule:nonzero;"/>
    </g>
    <g transform="matrix(4.166667,0,0,4.166667,560.009983,685.230647)">
        <path d="M0,0C2.625,-0.188 2.625,-0.188 5,0C4.01,0.66 3.02,1.32 2,2C4.97,2.495 4.97,2.495 8,3C7.67,3.66 7.34,4.32 7,5C3.625,5.125 3.625,5.125 0,5C-0.66,4.34 -1.32,3.68 -2,3C-1.34,2.01 -0.68,1.02 0,0Z" style="fill-rule:nonzero;"/>
    </g>
    <g transform="matrix(4.166667,0,0,4.166667,1035.009983,218.56398)">
        <path d="M0,0L1,0C1.33,1.65 1.66,3.3 2,5L3,5C3.33,6.98 3.66,8.96 4,11C2.68,11.33 1.36,11.66 0,12L0,0Z" style="fill-rule:nonzero;"/>
    </g>
    <g transform="matrix(4.166667,0,0,4.166667,347.509983,247.730647)">
        <path d="M0,0C1.65,0.33 3.3,0.66 5,1C3.6,3.8 1.734,4.568 -1,6L-4,6C-2.68,4.02 -1.36,2.04 0,0Z" style="fill-rule:nonzero;"/>
    </g>
    <g transform="matrix(4.166667,0,0,4.166667,1118.343316,1189.397314)">
        <path d="M0,0C0.33,0.66 0.66,1.32 1,2L3,2C4.312,5.937 3.243,8.125 2,12C-0.136,8.796 -0.231,7.981 -0.125,4.312C-0.107,3.504 -0.089,2.696 -0.07,1.863C-0.047,1.248 -0.024,0.634 0,0Z" style="fill-rule:nonzero;"/>
    </g>
    <g transform="matrix(4.166667,0,0,4.166667,1101.67665,876.897314)">
        <path d="M0,0C2.64,0.33 5.28,0.66 8,1L8,4C5.69,3.67 3.38,3.34 1,3C0.67,2.01 0.34,1.02 0,0Z" style="fill-rule:nonzero;"/>
    </g>
    <g transform="matrix(4.166667,0,0,4.166667,1268.343316,856.06398)">
        <path d="M0,0L7,0L7,3L12,3L12,4C4.316,4.296 4.316,4.296 1,2C0.67,1.34 0.34,0.68 0,0Z" style="fill-rule:nonzero;"/>
    </g>
    <g transform="matrix(4.166667,0,0,4.166667,468.0829,480.28273)">
        <path d="M0,0C3.062,0.188 3.062,0.188 5.062,2.188C3.969,2.476 2.876,2.765 1.75,3.062C-1.978,4.006 -1.978,4.006 -4.938,6.188C-3.871,0.247 -3.871,0.247 0,0Z" style="fill-rule:nonzero;"/>
    </g>
    <g transform="matrix(4.166667,0,0,4.166667,793.343316,164.397314)">
        <path d="M0,0C0.99,0.33 1.98,0.66 3,1C2.67,2.65 2.34,4.3 2,6L0,6L0,12L-1,12C-1.027,10.188 -1.046,8.375 -1.062,6.562C-1.074,5.553 -1.086,4.544 -1.098,3.504C-1,1 -1,1 0,0Z" style="fill-rule:nonzero;"/>
    </g>
    <g transform="matrix(4.166667,0,0,4.166667,1072.509983,1185.230647)">
        <path d="M0,0C-0.99,0.33 -1.98,0.66 -3,1C-3.33,1.99 -3.66,2.98 -4,4L-8,4C-8.33,4.66 -8.66,5.32 -9,6C-8.625,3.562 -8.625,3.562 -8,1C-5.291,-0.354 -2.991,-0.065 0,0Z" style="fill-rule:nonzero;"/>
    </g>
    <g transform="matrix(4.166667,0,0,4.166667,1380.843316,1147.730647)">
        <path d="M0,0C0.66,0.99 1.32,1.98 2,3L-3,3C-3.33,3.66 -3.66,4.32 -4,5L-4,3L-6,3C-6.33,2.01 -6.66,1.02 -7,0C-4.276,-1.362 -2.872,-0.862 0,0Z" style="fill-rule:nonzero;"/>
    </g>
    <g transform="matrix(4.166667,0,0,4.166667,1251.67665,226.897314)">
        <path d="M0,0L6,0C5.75,1.875 5.75,1.875 5,4C2.938,5.25 2.938,5.25 1,6C1.33,4.68 1.66,3.36 2,2L0,2L0,0Z" style="fill-rule:nonzero;"/>
    </g>
    <g transform="matrix(4.166667,0,0,4.166667,985.009983,1197.730647)">
        <path d="M0,0L6,0C6.33,1.32 6.66,2.64 7,4C4.69,3.67 2.38,3.34 0,3L0,0Z" style="fill-rule:nonzero;"/>
    </g>
    <g transform="matrix(4.166667,0,0,4.166667,1162.874566,1175.855647)">
        <path d="M0,0C0.763,0.083 1.526,0.165 2.312,0.25L2.312,3.25C-0.396,4.604 -2.697,4.315 -5.688,4.25C-3.349,0.312 -3.349,0.312 0,0Z" style="fill-rule:nonzero;"/>
    </g>
    <g transform="matrix(4.166667,0,0,4.166667,722.509983,897.730647)">
        <path d="M0,0C1.98,0.495 1.98,0.495 4,1L4,5C2.35,4.67 0.7,4.34 -1,4C-0.67,2.68 -0.34,1.36 0,0Z" style="fill-rule:nonzero;"/>
    </g>
    <g transform="matrix(4.166667,0,0,4.166667,714.17665,843.56398)">
        <path d="M0,0C1.98,0.495 1.98,0.495 4,1L4,5C2.35,4.67 0.7,4.34 -1,4C-0.67,2.68 -0.34,1.36 0,0Z" style="fill-rule:nonzero;"/>
    </g>
    <g transform="matrix(4.166667,0,0,4.166667,505.843316,535.230647)">
        <path d="M0,0L1,0L1,6C-0.875,6.625 -0.875,6.625 -3,7C-5,5 -5,5 -5,2L-3,2L-3,5L-1,5C-0.67,3.35 -0.34,1.7 0,0Z" style="fill-rule:nonzero;"/>
    </g>
    <g transform="matrix(4.166667,0,0,4.166667,451.67665,518.56398)">
        <path d="M0,0L1,0L1,9C-0.32,9.33 -1.64,9.66 -3,10C-4,9 -4,9 -4.062,6.438C-4.042,5.633 -4.021,4.829 -4,4C-3.01,4.99 -2.02,5.98 -1,7C-0.67,4.69 -0.34,2.38 0,0Z" style="fill-rule:nonzero;"/>
    </g>
    <g transform="matrix(4.166667,0,0,4.166667,764.17665,531.06398)">
        <path d="M0,0C2.875,-0.125 2.875,-0.125 6,0C6.66,0.66 7.32,1.32 8,2C10.571,2.648 10.571,2.648 13,3L13,4C5.738,4.492 5.738,4.492 2,2C1.34,1.34 0.68,0.68 0,0Z" style="fill-rule:nonzero;"/>
    </g>
    <g transform="matrix(4.166667,0,0,4.166667,789.17665,531.06398)">
        <path d="M0,0L7,0L7,2C8.32,2.33 9.64,2.66 11,3C9.543,3.081 8.084,3.139 6.625,3.188C5.813,3.222 5.001,3.257 4.164,3.293C3.45,3.196 2.736,3.1 2,3C1.34,2.01 0.68,1.02 0,0Z" style="fill-rule:nonzero;"/>
    </g>
    <g transform="matrix(4.166667,0,0,4.166667,630.843316,464.397314)">
        <path d="M0,0C1.98,0.495 1.98,0.495 4,1L4,5C2.35,4.67 0.7,4.34 -1,4C-0.67,2.68 -0.34,1.36 0,0Z" style="fill-rule:nonzero;"/>
    </g>
    <g transform="matrix(4.166667,0,0,4.166667,930.843316,260.230647)">
        <path d="M0,0C-0.33,1.32 -0.66,2.64 -1,4C-3.97,3.505 -3.97,3.505 -7,3L-7,0C-3.99,-0.934 -3.133,-1.044 0,0Z" style="fill-rule:nonzero;"/>
    </g>
    <g transform="matrix(4.166667,0,0,4.166667,939.17665,1339.397314)">
        <path d="M0,0L1,0C1.248,1.073 1.495,2.145 1.75,3.25C2.999,6.996 4.025,8.521 7,11C5.68,11.33 4.36,11.66 3,12C0.015,7.895 -0.295,5.023 0,0Z" style="fill-rule:nonzero;"/>
    </g>
    <g transform="matrix(4.166667,0,0,4.166667,797.509983,914.397314)">
        <path d="M0,0L7,0C7.33,0.99 7.66,1.98 8,3L0,3L0,0Z" style="fill-rule:nonzero;"/>
    </g>
    <g transform="matrix(4.166667,0,0,4.166667,1001.67665,889.397314)">
        <path d="M0,0L5,0C4.67,0.66 4.34,1.32 4,2C5.32,2.66 6.64,3.32 8,4L0,4C-0.33,3.34 -0.66,2.68 -1,2C-0.67,1.34 -0.34,0.68 0,0Z" style="fill-rule:nonzero;"/>
    </g>
    <g transform="matrix(4.166667,0,0,4.166667,368.343316,714.397314)">
        <path d="M0,0C0.99,0.33 1.98,0.66 3,1C2.625,3.438 2.625,3.438 2,6C1.01,6.495 1.01,6.495 0,7C-0.66,6.34 -1.32,5.68 -2,5C-1.34,3.35 -0.68,1.7 0,0Z" style="fill-rule:nonzero;"/>
    </g>
    <g transform="matrix(4.166667,0,0,4.166667,855.843316,656.06398)">
        <path d="M0,0L5,0C5.33,1.32 5.66,2.64 6,4C3.625,4.625 3.625,4.625 1,5C0.34,4.34 -0.32,3.68 -1,3L3,3L3,1C2.01,0.67 1.02,0.34 0,0Z" style="fill-rule:nonzero;"/>
    </g>
    <g transform="matrix(4.166667,0,0,4.166667,276.67665,526.897314)">
        <path d="M0,0L1,0C1.121,0.615 1.242,1.23 1.367,1.863C1.535,2.672 1.702,3.48 1.875,4.312C2.037,5.113 2.2,5.914 2.367,6.738C2.945,9.253 2.945,9.253 5,12L2,12C-0.6,8.1 -0.151,4.526 0,0Z" style="fill-rule:nonzero;"/>
    </g>
    <g transform="matrix(4.166667,0,0,4.166667,639.17665,518.56398)">
        <path d="M0,0C1.98,0.495 1.98,0.495 4,1C3.67,2.32 3.34,3.64 3,5C1.68,4.67 0.36,4.34 -1,4C-0.67,2.68 -0.34,1.36 0,0Z" style="fill-rule:nonzero;"/>
    </g>
    <g transform="matrix(4.166667,0,0,4.166667,276.67665,310.230647)">
        <path d="M0,0C-0.33,1.65 -0.66,3.3 -1,5C-2.65,4.67 -4.3,4.34 -6,4L-6,1C-3,0 -3,0 0,0Z" style="fill-rule:nonzero;"/>
    </g>
    <g transform="matrix(4.166667,0,0,4.166667,1160.009983,235.230647)">
        <path d="M0,0L9,0C8.67,0.99 8.34,1.98 8,3C5.657,2.744 3.322,2.407 1,2C0.67,1.34 0.34,0.68 0,0Z" style="fill-rule:nonzero;"/>
    </g>
    <g transform="matrix(4.166667,0,0,4.166667,489.17665,226.897314)">
        <path d="M0,0L3,0C3.66,1.65 4.32,3.3 5,5C3.02,5.99 3.02,5.99 1,7C0.67,4.69 0.34,2.38 0,0Z" style="fill-rule:nonzero;"/>
    </g>
    <g transform="matrix(4.166667,0,0,4.166667,1564.17665,1318.56398)">
        <path d="M0,0C0.33,0.99 0.66,1.98 1,3C-0.963,6.171 -2.125,7.742 -5.75,8.812C-6.492,8.874 -7.235,8.936 -8,9C-6.855,7.886 -6.855,7.886 -5.688,6.75C-3.561,4.574 -1.744,2.478 0,0Z" style="fill-rule:nonzero;"/>
    </g>
    <g transform="matrix(4.166667,0,0,4.166667,418.343316,701.897314)">
        <path d="M0,0C-0.33,1.65 -0.66,3.3 -1,5C-2.32,5.33 -3.64,5.66 -5,6C-3.8,0 -3.8,0 0,0Z" style="fill-rule:nonzero;"/>
    </g>
    <g transform="matrix(4.166667,0,0,4.166667,651.67665,681.06398)">
        <path d="M0,0L8,0C7.01,0.495 7.01,0.495 6,1L6,4L2,4L2,1C1.34,0.67 0.68,0.34 0,0Z" style="fill-rule:nonzero;"/>
    </g>
    <g transform="matrix(4.166667,0,0,4.166667,401.67665,535.230647)">
        <path d="M0,0L1,0L1,10C-0.32,9.67 -1.64,9.34 -3,9C-2.67,7.68 -2.34,6.36 -2,5L-2,7L0,7L0,0Z" style="fill-rule:nonzero;"/>
    </g>
    <g transform="matrix(4.166667,0,0,4.166667,568.343316,464.397314)">
        <path d="M0,0C-0.578,0.268 -1.155,0.536 -1.75,0.812C-4.033,2.017 -5.974,3.408 -8,5C-8.66,4.34 -9.32,3.68 -10,3C-6.682,-0.063 -4.448,-0.303 0,0Z" style="fill-rule:nonzero;"/>
    </g>
    <g transform="matrix(4.166667,0,0,4.166667,622.509983,231.06398)">
        <path d="M0,0C1.619,2.572 2.044,3.677 1.625,6.75C1.419,7.492 1.212,8.235 1,9C0.34,8.67 -0.32,8.34 -1,8C-1.042,5.667 -1.041,3.333 -1,1C-0.67,0.67 -0.34,0.34 0,0Z" style="fill-rule:nonzero;"/>
    </g>
    <g transform="matrix(4.166667,0,0,4.166667,480.843316,193.56398)">
        <path d="M0,0C1.32,0.33 2.64,0.66 4,1L4,4L2,4C1.67,4.99 1.34,5.98 1,7C0,6 0,6 -0.062,2.938C-0.042,1.968 -0.021,0.999 0,0Z" style="fill-rule:nonzero;"/>
    </g>
    <g transform="matrix(4.166667,0,0,4.166667,801.67665,176.897314)">
        <path d="M0,0L2,0L2,8L-1,8C-0.67,5.36 -0.34,2.72 0,0Z" style="fill-rule:nonzero;"/>
    </g>
    <g transform="matrix(4.166667,0,0,4.166667,1135.009983,176.897314)">
        <path d="M0,0C0.66,0.33 1.32,0.66 2,1C1.67,3.31 1.34,5.62 1,8C0.34,6.68 -0.32,5.36 -1,4C-1.66,4.99 -2.32,5.98 -3,7C-3.188,4.625 -3.188,4.625 -3,2C-2.01,1.34 -1.02,0.68 0,0Z" style="fill-rule:nonzero;"/>
    </g>
    <g transform="matrix(4.166667,0,0,4.166667,976.67665,1272.730647)">
        <path d="M0,0L0,2C0.66,2.33 1.32,2.66 2,3C0.02,3.33 -1.96,3.66 -4,4C-4.33,2.68 -4.66,1.36 -5,0C-3,-1 -3,-1 0,0Z" style="fill-rule:nonzero;"/>
    </g>
    <g transform="matrix(4.166667,0,0,4.166667,689.17665,1064.397314)">
        <path d="M0,0L0,5L-3,5L-3,3C-4.65,2.67 -6.3,2.34 -8,2C-4.912,0.235 -3.767,0 0,0Z" style="fill-rule:nonzero;"/>
    </g>
    <g transform="matrix(4.166667,0,0,4.166667,1280.843316,851.897314)">
        <path d="M0,0C2.97,0.33 5.94,0.66 9,1L9,3C7.35,3.33 5.7,3.66 4,4L4,1C2.68,0.67 1.36,0.34 0,0Z" style="fill-rule:nonzero;"/>
    </g>
    <g transform="matrix(4.166667,0,0,4.166667,643.343316,810.230647)">
        <path d="M0,0C1.32,0.33 2.64,0.66 4,1C3.67,2.65 3.34,4.3 3,6L0,6L0,0Z" style="fill-rule:nonzero;"/>
    </g>
    <g transform="matrix(4.166667,0,0,4.166667,543.343316,676.897314)">
        <path d="M0,0C1.98,0.495 1.98,0.495 4,1C3.67,2.32 3.34,3.64 3,5C1.68,4.67 0.36,4.34 -1,4C-0.67,2.68 -0.34,1.36 0,0Z" style="fill-rule:nonzero;"/>
    </g>
    <g transform="matrix(4.166667,0,0,4.166667,697.509983,181.06398)">
        <path d="M0,0C1.32,0.33 2.64,0.66 4,1C3.67,1.33 3.34,1.66 3,2C2.632,4.328 2.298,6.662 2,9C0,7 0,7 -0.125,3.375C-0.084,2.261 -0.043,1.147 0,0Z" style="fill-rule:nonzero;"/>
    </g>
    <g transform="matrix(4.166667,0,0,4.166667,801.67665,910.230647)">
        <path d="M0,0C5.373,-0.352 5.373,-0.352 8,0C10,2 10,2 11,4C8.03,3.505 8.03,3.505 5,3L5,2C3.35,1.67 1.7,1.34 0,1L0,0Z" style="fill-rule:nonzero;"/>
    </g>
    <g transform="matrix(4.166667,0,0,4.166667,660.009983,856.06398)">
        <path d="M0,0L2,0C1.67,1.98 1.34,3.96 1,6L-2,6L-2,2L0,2L0,0Z" style="fill-rule:nonzero;"/>
    </g>
    <g transform="matrix(4.166667,0,0,4.166667,460.009983,681.06398)">
        <path d="M0,0C0.33,0.99 0.66,1.98 1,3C-0.812,4.062 -0.812,4.062 -3,5C-3.99,4.67 -4.98,4.34 -6,4L-6,2C-4.02,1.34 -2.04,0.68 0,0Z" style="fill-rule:nonzero;"/>
    </g>
    <g transform="matrix(4.166667,0,0,4.166667,318.343316,289.397314)">
        <path d="M0,0C2,2 2,2 2,5C3.32,5.33 4.64,5.66 6,6L6,8C4.125,7.688 4.125,7.688 2,7C0,4 0,4 0,0Z" style="fill-rule:nonzero;"/>
    </g>
    <g transform="matrix(4.166667,0,0,4.166667,535.009983,235.230647)">
        <path d="M0,0C1.938,0.375 1.938,0.375 4,1C4.33,1.66 4.66,2.32 5,3C2.69,3.33 0.38,3.66 -2,4C-1.34,2.68 -0.68,1.36 0,0Z" style="fill-rule:nonzero;"/>
    </g>
    <g transform="matrix(4.166667,0,0,4.166667,960.009983,218.56398)">
        <path d="M0,0L1,0C1.33,2.64 1.66,5.28 2,8C1.01,8.33 0.02,8.66 -1,9C-1.125,2.25 -1.125,2.25 0,0Z" style="fill-rule:nonzero;"/>
    </g>
    <g transform="matrix(4.166667,0,0,4.166667,251.67665,210.230647)">
        <path d="M0,0L5,0L5,3L-1,3C-0.67,2.01 -0.34,1.02 0,0Z" style="fill-rule:nonzero;"/>
    </g>
    <g transform="matrix(4.166667,0,0,4.166667,1485.009983,85.230647)">
        <path d="M0,0L2,0C2.33,2.97 2.66,5.94 3,9C0,6 0,6 -0.188,2.812C-0.126,1.884 -0.064,0.956 0,0Z" style="fill-rule:nonzero;"/>
    </g>
    <g transform="matrix(4.166667,0,0,4.166667,1035.009983,1276.897314)">
        <path d="M0,0C-0.375,2.438 -0.375,2.438 -1,5C-1.99,5.495 -1.99,5.495 -3,6L-3,3C-3.66,2.67 -4.32,2.34 -5,2C-3,0 -3,0 0,0Z" style="fill-rule:nonzero;"/>
    </g>
    <g transform="matrix(4.166667,0,0,4.166667,572.509983,1085.230647)">
        <path d="M0,0L12,0C8,2 8,2 5,3L5,1L0,1L0,0Z" style="fill-rule:nonzero;"/>
    </g>
    <g transform="matrix(4.166667,0,0,4.166667,539.17665,931.06398)">
        <path d="M0,0L2,0L2,6C0.68,6.33 -0.64,6.66 -2,7L-2,5L0,5L0,0Z" style="fill-rule:nonzero;"/>
    </g>
    <g transform="matrix(4.166667,0,0,4.166667,176.67665,518.56398)">
        <path d="M0,0L4,0L4,2L2,2C1.67,3.98 1.34,5.96 1,8L0,8L0,0Z" style="fill-rule:nonzero;"/>
    </g>
    <g transform="matrix(4.166667,0,0,4.166667,255.843316,264.397314)">
        <rect x="0" y="0" width="5" height="3" style="fill-rule:nonzero;"/>
    </g>
    <g transform="matrix(4.166667,0,0,4.166667,189.17665,206.06398)">
        <path d="M0,0C2,2 2,2 2.125,5.125C2.084,6.074 2.042,7.022 2,8C1.34,7.67 0.68,7.34 0,7L0,3L-2,3L-2,1C-1.34,0.67 -0.68,0.34 0,0Z" style="fill-rule:nonzero;"/>
    </g>
    <g transform="matrix(4.166667,0,0,4.166667,1043.343316,185.230647)">
        <path d="M0,0C1.32,0.33 2.64,0.66 4,1C3.67,2.32 3.34,3.64 3,5L0,5L0,0Z" style="fill-rule:nonzero;"/>
    </g>
    <g transform="matrix(4.166667,0,0,4.166667,1255.843316,131.06398)">
        <path d="M0,0C0.66,0.33 1.32,0.66 2,1C1.67,2.32 1.34,3.64 1,5L-6,5L-6,4L-1,4C-0.67,2.68 -0.34,1.36 0,0Z" style="fill-rule:nonzero;"/>
    </g>
</svg>
