<?xml version="1.0" encoding="UTF-8" standalone="no"?><!DOCTYPE svg PUBLIC "-//W3C//DTD SVG 1.1//EN" "http://www.w3.org/Graphics/SVG/1.1/DTD/svg11.dtd"><svg width="100%" height="100%" viewBox="0 0 542 860" version="1.1" xmlns="http://www.w3.org/2000/svg" xmlns:xlink="http://www.w3.org/1999/xlink" xml:space="preserve" xmlns:serif="http://www.serif.com/" style="fill-rule:evenodd;clip-rule:evenodd;stroke-linejoin:round;stroke-miterlimit:2;"><rect id="Artboard1" x="0" y="0" width="542" height="860" style="fill:none;"/><path d="M270.664,0.867c1.786,-0.001 1.786,-0.001 3.609,-0.003c2.509,-0.001 5.019,0.001 7.528,0.005c3.792,0.005 7.583,0 11.375,-0.006c32.719,-0.012 32.719,-0.012 47.762,2.949c0.931,0.178 1.862,0.356 2.822,0.54c2.75,0.534 5.496,1.088 8.241,1.648c0.77,0.153 1.54,0.307 2.334,0.465c18.784,3.8 36.089,11.257 53.229,19.66c0.851,0.415 1.701,0.829 2.578,1.257c12.48,6.113 24.317,12.448 34.86,21.618c0.539,0.462 1.077,0.925 1.632,1.401c3.208,2.78 6.29,5.677 9.368,8.599c1.411,1.215 2.827,2.424 4.25,3.625c6.978,6.115 12.175,13.237 17.363,20.891c1.961,2.887 3.995,5.714 6.056,8.531c9.25,12.71 16.695,26.158 23.456,40.329c0.347,0.721 0.693,1.443 1.051,2.186c4.967,10.337 9.842,20.675 13.824,31.439c0.419,1.119 0.838,2.238 1.27,3.391c16.055,45.464 22.643,93.244 12.73,140.609c-0.241,1.164 -0.481,2.327 -0.729,3.526c-2.963,14.094 -6.585,27.858 -11.271,41.474c-0.248,0.747 -0.496,1.494 -0.751,2.264c-9.183,27.579 -24.124,53.343 -40.971,76.928c-1.246,1.763 -2.455,3.546 -3.657,5.34c-17.574,25.932 -43.091,44.599 -70.429,59.275c-2.407,1.311 -4.785,2.666 -7.165,4.026c-44.714,25.35 -97.192,38.657 -148.59,38.543c-1.453,-0.001 -1.453,-0.001 -2.935,-0.003c-14.843,-0.044 -29.047,-0.742 -43.502,-4.372c-0.956,-0.225 -1.911,-0.451 -2.896,-0.683c-36.891,-8.872 -72.278,-31.042 -101.104,-55.317c-1.325,-1.114 -1.325,-1.114 -2.676,-2.25c-9.854,-8.582 -18.341,-18.435 -26.324,-28.75c-0.78,-0.985 -1.56,-1.97 -2.363,-2.984c-10.172,-12.914 -18.888,-26.527 -26.637,-41.016c-0.559,-1.04 -1.118,-2.08 -1.693,-3.151c-25.383,-47.464 -47.205,-106.76 -36.865,-161.669c0.536,-3.049 0.87,-6.08 1.16,-9.16c4.05,-42.267 18.54,-83.451 43.399,-118.019c0.546,-0.761 1.092,-1.522 1.654,-2.306c17.487,-24.259 35.66,-43.244 60.4,-59.979c2.47,-1.68 4.889,-3.401 7.266,-5.211c26.514,-20.104 59.267,-30.14 91.409,-37.134c2.272,-0.495 4.541,-1 6.81,-1.506c17.696,-3.918 34.945,-7.029 53.125,-6.996Z" style="fill:#eeeae7;fill-rule:nonzero;"/><path d="M270.664,0.867c1.786,-0.001 1.786,-0.001 3.609,-0.003c2.509,-0.001 5.019,0.001 7.528,0.005c3.792,0.005 7.583,0 11.375,-0.006c32.719,-0.012 32.719,-0.012 47.762,2.949c0.931,0.178 1.862,0.356 2.822,0.54c2.75,0.534 5.496,1.088 8.241,1.648c0.77,0.153 1.54,0.307 2.334,0.465c18.784,3.8 36.089,11.257 53.229,19.66c0.851,0.415 1.701,0.829 2.578,1.257c12.48,6.113 24.317,12.448 34.86,21.618c0.539,0.462 1.077,0.925 1.632,1.401c3.208,2.78 6.29,5.677 9.368,8.599c1.411,1.215 2.827,2.424 4.25,3.625c6.978,6.115 12.175,13.237 17.363,20.891c1.961,2.887 3.995,5.714 6.056,8.531c9.25,12.71 16.695,26.158 23.456,40.329c0.347,0.721 0.693,1.443 1.051,2.186c4.967,10.337 9.842,20.675 13.824,31.439c0.419,1.119 0.838,2.238 1.27,3.391c16.055,45.464 22.643,93.244 12.73,140.609c-0.241,1.164 -0.481,2.327 -0.729,3.526c-2.963,14.094 -6.585,27.858 -11.271,41.474c-0.248,0.747 -0.496,1.494 -0.751,2.264c-9.183,27.579 -24.124,53.343 -40.971,76.928c-1.246,1.763 -2.455,3.546 -3.657,5.34c-17.574,25.932 -43.091,44.599 -70.429,59.275c-2.407,1.311 -4.785,2.666 -7.165,4.026c-44.714,25.35 -97.192,38.657 -148.59,38.543c-1.453,-0.001 -1.453,-0.001 -2.935,-0.003c-14.843,-0.044 -29.047,-0.742 -43.502,-4.372c-0.956,-0.225 -1.911,-0.451 -2.896,-0.683c-36.891,-8.872 -72.278,-31.042 -101.104,-55.317c-1.325,-1.114 -1.325,-1.114 -2.676,-2.25c-9.854,-8.582 -18.341,-18.435 -26.324,-28.75c-0.78,-0.985 -1.56,-1.97 -2.363,-2.984c-10.172,-12.914 -18.888,-26.527 -26.637,-41.016c-0.559,-1.04 -1.118,-2.08 -1.693,-3.151c-25.383,-47.464 -47.205,-106.76 -36.865,-161.669c0.536,-3.049 0.87,-6.08 1.16,-9.16c4.05,-42.267 18.54,-83.451 43.399,-118.019c0.546,-0.761 1.092,-1.522 1.654,-2.306c17.487,-24.259 35.66,-43.244 60.4,-59.979c2.47,-1.68 4.889,-3.401 7.266,-5.211c26.514,-20.104 59.267,-30.14 91.409,-37.134c2.272,-0.495 4.541,-1 6.81,-1.506c17.696,-3.918 34.945,-7.029 53.125,-6.996Zm-37.602,16.82c-0.713,0.133 -1.426,0.265 -2.16,0.402c-17.661,3.294 -34.951,7.407 -52.027,13.036c-1.022,0.325 -2.043,0.649 -3.096,0.984c-0.92,0.317 -1.839,0.635 -2.787,0.961c-1.232,0.414 -1.232,0.414 -2.489,0.836c-2.449,1.781 -0.982,2.864 0.497,5.093c0.535,0.83 1.07,1.66 1.621,2.516c1.205,1.814 2.414,3.627 3.625,5.438c4.893,8.5 5.246,15.54 5.191,25.234c0.02,1.238 0.04,2.476 0.061,3.752c-0.027,52.13 -56.963,83.192 -102.498,62.248c-1.041,-0.479 -1.041,-0.479 -2.104,-0.967c-6.159,-3.018 -11.253,-6.722 -15.049,-12.494c-3.457,-3.231 -4.76,1.667 -6.41,4.648c-0.429,0.734 -0.858,1.469 -1.3,2.226c-1.412,2.449 -2.778,4.921 -4.137,7.399c-0.464,0.831 -0.928,1.662 -1.407,2.519c-9.304,16.739 -16.827,33.901 -21.593,52.481c-0.388,1.324 -0.779,2.647 -1.172,3.969c-6.632,23.206 -10.567,49.903 -8.828,74.031c0.051,0.772 0.102,1.545 0.154,2.34c1.012,14.333 3.34,28.523 5.846,42.66c0.141,0.817 0.283,1.634 0.428,2.476c6.801,38.23 28.318,79.791 51.572,110.524c0.851,1.146 1.701,2.291 2.551,3.438c25.005,34.371 25.005,34.371 54.305,43.648c0.532,-0.589 1.063,-1.177 1.611,-1.783c0.568,-0.636 1.136,-1.272 1.721,-1.927c5.37,-5.887 10.934,-11.49 16.75,-16.938c0.697,-0.654 1.394,-1.307 2.112,-1.981c11.05,-10.279 16.822,-15.074 31.927,-9.675c1.259,0.434 1.259,0.434 2.544,0.876c2.706,0.936 5.405,1.889 8.104,2.842c1.864,0.649 3.729,1.297 5.594,1.943c10.277,3.575 20.533,7.21 30.736,10.989c6.389,2.363 12.831,4.535 19.33,6.579c18.205,5.861 11.454,20.465 6.715,34.988c-0.955,2.963 -1.906,5.928 -2.855,8.893c-0.63,1.963 -1.266,3.924 -1.909,5.883c-0.291,0.896 -0.581,1.792 -0.881,2.716c-0.261,0.798 -0.523,1.596 -0.792,2.417c-2.712,10.067 21.009,4.255 28.312,3.403c0.772,-0.089 1.543,-0.178 2.338,-0.27c12.843,-1.501 25.291,-3.673 37.787,-7.043c1.002,-0.262 2.004,-0.524 3.036,-0.793c13.953,-3.658 27.572,-7.842 40.964,-13.207c0.657,-0.257 1.313,-0.514 1.99,-0.778c12.093,-4.771 23.206,-11.229 34.431,-17.741c2.15,-1.234 4.309,-2.434 6.493,-3.605c26.768,-14.544 47.979,-34.921 65.086,-59.875c0.482,-0.7 0.963,-1.4 1.459,-2.121c15.636,-23.017 28.893,-48.429 37.541,-74.879c0.597,-1.721 0.597,-1.721 1.207,-3.477c1.045,-3.154 1.941,-6.311 2.793,-9.523c0.217,-0.819 0.434,-1.637 0.658,-2.48c8.835,-33.787 13.355,-65.913 7.592,-100.52c-0.126,-0.757 -0.252,-1.514 -0.382,-2.294c-0.84,-4.93 -1.807,-9.82 -2.868,-14.706c-0.138,-0.673 -0.276,-1.346 -0.418,-2.04c-2.11,-10.784 -2.11,-10.784 -10.832,-8.335c-1.524,0.868 -3.054,1.726 -4.59,2.574c-0.827,0.468 -1.655,0.937 -2.507,1.419c-4.639,2.415 -9.544,4.074 -14.465,5.819c-7.678,2.79 -15.156,5.802 -22.562,9.25c-6.344,2.929 -12.703,5.601 -19.312,7.875c-0.706,0.252 -1.412,0.503 -2.14,0.762c-23.831,7.858 -16.481,-15.673 -12.668,-31.122c1.728,-7.005 3.134,-14.069 4.559,-21.141c3.304,-16.113 3.304,-16.113 5.062,-23c0.271,-1.061 0.541,-2.122 0.82,-3.215c4.349,-11.742 11.189,-11.363 21.816,-7.398c0.713,0.254 1.425,0.509 2.159,0.771c2.26,0.811 4.513,1.639 6.767,2.467c1.491,0.537 2.983,1.073 4.475,1.607c1.471,0.53 2.942,1.061 4.412,1.592c0.713,0.257 1.426,0.514 2.16,0.778c3.48,1.267 6.914,2.59 10.315,4.056c1.207,0.511 2.414,1.022 3.658,1.548c1.074,0.477 2.147,0.953 3.253,1.445c4.649,0.652 -1.789,-9.852 -3.198,-12.816c-0.317,-0.67 -0.634,-1.34 -0.961,-2.031c-1.031,-2.168 -2.07,-4.331 -3.114,-6.493c-0.534,-1.108 -0.534,-1.108 -1.079,-2.239c-5.991,-12.36 -12.628,-23.937 -20.608,-35.136c-0.927,-1.321 -1.854,-2.643 -2.781,-3.965c-1.654,-2.344 -3.327,-4.672 -5.02,-6.988c-1.996,-2.765 -3.88,-5.579 -5.762,-8.422c-6.847,-9.718 -17.121,-16.291 -26.592,-23.25c-1.527,-1.138 -3.024,-2.314 -4.513,-3.5c-25.386,-19.878 -58.209,-30.428 -89.332,-36.875c-1.15,-0.238 -2.3,-0.477 -3.484,-0.723c-17.033,-3.042 -34.773,-2.37 -52.016,-2.402c-0.805,-0.003 -1.611,-0.005 -2.44,-0.008c-15.906,-0.04 -31.346,0.865 -46.997,3.821Z" style="fill:#060506;fill-rule:nonzero;"/><path d="M290,36c0.624,0.427 1.248,0.853 1.891,1.293c5.782,4.44 9.299,10.597 13.109,16.707c0.859,1.294 0.859,1.294 1.734,2.613c34.461,53.483 -44.402,113.89 -89.734,73.387c-1.063,-0.851 -1.063,-0.851 -2.148,-1.719c-56.891,-46.21 16.179,-132.744 75.148,-92.281Z" style="fill:#fbfc66;fill-rule:nonzero;"/><path d="M396.937,234.438c1.336,0.92 2.672,1.839 4.008,2.758c0.676,0.47 1.352,0.939 2.048,1.423c2.476,1.705 4.986,3.353 7.501,5c9.383,6.162 18.464,12.733 27.506,19.382c1.45,1.058 1.45,1.058 2.93,2.137c10.87,8.143 16.168,15.596 8.383,28.363c-0.399,0.681 -0.799,1.362 -1.21,2.063c-4.053,6.713 -8.796,12.866 -13.645,19.015c-3.607,4.575 -7.032,9.273 -10.457,13.984c-5.945,8.135 -12.16,16.013 -18.606,23.756c-0.931,1.123 -1.854,2.253 -2.769,3.39c-13.359,16.488 -36.176,-10.446 -47.09,-20.486c-2.976,-2.609 -6.083,-5.002 -9.223,-7.41c-5.368,-4.144 -10.46,-8.519 -15.438,-13.125c-0.627,-0.575 -1.255,-1.149 -1.901,-1.741c-8.81,-8.273 -11.344,-13.636 -3.099,-23.572c0.733,-0.907 0.733,-0.907 1.481,-1.832c6.581,-8.049 13.643,-15.637 21.054,-22.926c2.283,-2.322 4.384,-4.787 6.512,-7.25c28.52,-32.487 28.52,-32.487 42.016,-22.93Z" style="fill:#67aff5;fill-rule:nonzero;"/><path d="M273,279c-0.775,0.388 -1.549,0.776 -2.348,1.176c-64.885,30.606 -109.803,-65.23 -47.84,-97.863c1.721,-0.789 3.451,-1.559 5.188,-2.312c1.499,-0.7 1.499,-0.7 3.027,-1.414c59.38,-25.767 99.176,72.133 41.973,100.414Z" style="fill:#ab62f7;fill-rule:nonzero;"/><path d="M384.5,42.375c0.886,0.342 1.772,0.685 2.684,1.037c15.076,5.945 29.948,12.721 44.191,20.463c0.629,0.332 1.259,0.665 1.907,1.008c10.259,5.802 9.794,13.806 6.635,24c-0.223,0.736 -0.446,1.472 -0.675,2.23c-2.521,8.105 -5.654,15.938 -8.93,23.762c-0.304,0.733 -0.608,1.466 -0.921,2.221c-17.896,43.092 -17.896,43.092 -43.017,32.154c-1.166,-0.493 -2.333,-0.986 -3.535,-1.494c-65.838,-28.161 -65.838,-28.161 -53.59,-52.381c0.539,-1.093 1.078,-2.186 1.634,-3.312c4.981,-10.005 10.277,-19.831 15.74,-29.579c1.314,-2.372 2.587,-4.762 3.848,-7.163c9.411,-17.76 15.458,-20.185 34.027,-12.945Z" style="fill:#6dcd38;fill-rule:nonzero;"/><path d="M125.5,305.562c1.164,0.011 1.164,0.011 2.352,0.023c28.814,0.802 52.749,19.362 52.398,49.727c-0.007,0.842 -0.014,1.685 -0.021,2.552c-0.098,5.902 -0.462,11.468 -2.229,17.135c-0.245,0.802 -0.49,1.604 -0.742,2.43c-5.04,14.318 -15.42,24.776 -29.258,30.57c-0.758,0.321 -1.516,0.642 -2.297,0.973c-25.77,9.296 -56.286,-7.092 -65.703,-31.973c-0.336,-0.837 -0.673,-1.673 -1.02,-2.535c-10.394,-30.709 12.336,-69.378 46.52,-68.902Z" style="fill:#f86062;fill-rule:nonzero;"/><path d="M100.5,169.563c0.946,0.907 1.892,1.815 2.867,2.75c2.752,2.809 5.36,5.683 7.891,8.691c2.621,3.003 5.477,5.753 8.336,8.527c1.893,1.942 3.643,3.9 5.398,5.961c5.223,6.02 10.967,11.536 16.633,17.133c2.224,2.198 4.445,4.399 6.664,6.602c0.499,0.491 0.998,0.982 1.512,1.487c3.297,3.275 6.253,6.701 9.199,10.286c1.174,1.12 2.381,2.208 3.625,3.25c0.673,0.584 1.346,1.168 2.039,1.77c1.745,1.48 3.515,2.931 5.297,4.367c13.42,11.263 8.824,19.054 -7.449,19.055c-1.594,0.019 -1.594,0.019 -3.22,0.038c-2.316,0.026 -4.632,0.046 -6.948,0.06c-6.296,0.039 -12.591,0.127 -18.887,0.21c-0.99,0.012 -0.99,0.012 -1.999,0.025c-10.549,0.132 -21.09,0.386 -31.634,0.725c-1.065,0.034 -1.065,0.034 -2.152,0.069c-6.284,0.203 -12.568,0.416 -18.852,0.634c-8.606,0.298 -17.212,0.575 -25.82,0.797c-1.663,0.044 -1.663,0.044 -3.36,0.088c-3.086,0.072 -6.171,0.12 -9.257,0.158c-1.352,0.032 -1.352,0.032 -2.731,0.065c-19.199,0.111 -6.769,-17.103 -0.339,-26.312c0.823,-1.204 1.644,-2.409 2.464,-3.614c5.034,-7.368 10.229,-14.617 15.523,-21.801c4.879,-6.681 9.261,-13.653 13.66,-20.656c4.731,-7.51 9.584,-14.92 15.041,-21.929c0.909,-1.203 0.909,-1.203 1.836,-2.43c5.464,-3.965 10.53,0.01 14.664,3.992Z" style="fill:#4d74bd;fill-rule:nonzero;"/><path d="M390.457,480.301c-57.298,11.589 -88.71,-68.88 -34.457,-95.301c0.954,-0.486 1.908,-0.972 2.891,-1.473c61.638,-27.799 97.543,76.701 31.566,96.773Z" style="fill:#f9ac62;fill-rule:nonzero;"/><path d="M133,656c0.731,0.387 1.462,0.773 2.215,1.172c26.474,14.272 38.274,37.467 44.785,65.828c0.227,0.962 0.454,1.923 0.688,2.914c17.888,92.175 -86.317,171.523 -109.687,59.086c-7.1,-40.119 -6.724,-86.669 22,-119c0.565,-0.646 1.129,-1.292 1.711,-1.957c9.664,-10.385 25.342,-14.996 38.289,-8.043Zm-50,70c-0.311,1.464 -0.311,1.464 -0.629,2.957c-1.772,14.531 -0.466,29.615 1.629,44.043c0.097,0.735 0.193,1.47 0.292,2.227c2.034,15.341 7.241,26.146 17.708,37.773c0.673,0.767 1.346,1.534 2.039,2.324c48.639,52.418 67.826,-70.494 58.961,-98.324c-0.236,-0.747 -0.471,-1.495 -0.714,-2.265c-3.581,-11.128 -7.239,-21.688 -15.661,-30.11c-2.039,-2.039 -3.685,-3.989 -5.438,-6.25c-4.225,-4.97 -9.169,-6.267 -15.5,-6.812c-4.21,-0.642 -4.505,-1.18 -6.688,-4.562c-24.114,0 -32.218,41.197 -36,59Z" style="fill:#060606;fill-rule:nonzero;"/><path d="M255.078,776.68c-3.371,0.52 -6.738,0.546 -10.141,0.57l-2.123,0.062c-4.849,0.035 -8.326,-0.844 -12.885,-2.566c-8.23,-2.387 -5.602,5.227 -4.742,11.066l0.419,3.756c0.288,2.574 0.597,5.146 0.925,7.715c0.659,5.229 1.149,10.465 1.593,15.716l0.251,2.895c0.637,7.907 0.871,15.798 0.936,23.73l0.053,3.469c-0.013,17.994 -15.213,22.141 -15.612,2.387l-0.1,-4.045c-0.046,-2.09 -0.09,-4.179 -0.131,-6.269c-0.213,-10.466 -0.972,-20.81 -1.968,-31.229c-2.435,-25.594 -4.443,-51.344 -5.415,-77.039c-0.075,-1.971 -0.163,-3.942 -0.251,-5.912l-0.103,-3.495l-0.097,-2.958c0.552,-4.477 1.9,-6.562 6.5,-6.472c4.412,-0.072 6.002,-1.117 9.43,-3.676c48.321,-28.121 91.773,51.67 33.461,72.293Zm12.922,-44.68c-8.246,-16.721 -49.77,-30.615 -48.223,-2.339c0.146,2.194 0.224,4.393 0.225,6.592c-0.071,10.582 -2.098,24.171 11.072,25.724c2.03,0.012 4.062,0.031 6.088,0.151c20.212,1.318 33.404,-6.315 31.837,-28.128l-1,-2Z" style="fill:#060606;"/><path d="M163.5,47.063c0.391,0.561 0.781,1.123 1.184,1.701c13.405,19.747 7.498,48.698 -8.684,65.236c-0.518,0.605 -1.036,1.209 -1.57,1.832c-24.204,26.941 -106.596,20.208 -83.734,-7.441c0.821,-1.003 0.821,-1.003 1.659,-2.025c0.584,-0.698 1.168,-1.396 1.77,-2.115c0.594,-0.719 1.188,-1.437 1.8,-2.178c1.684,-2.031 3.377,-4.054 5.075,-6.072c0.705,-0.84 1.41,-1.681 2.137,-2.547c1.589,-1.851 3.207,-3.662 4.863,-5.453c0.895,-0.975 0.895,-0.975 1.809,-1.969c4.721,-4.94 9.856,-8.889 15.445,-12.799c2.78,-1.962 5.528,-3.97 8.28,-5.971c3.103,-2.252 6.217,-4.488 9.331,-6.723c1.88,-1.355 3.751,-2.722 5.619,-4.093c8.086,-5.813 16.543,-10.203 25.516,-14.445c5.294,-2.647 6.829,1.039 9.5,5.062Z" style="fill:#6695f8;fill-rule:nonzero;"/><path d="M381.381,762.51c0.01,2.384 0.043,4.767 0.08,7.15l-0.015,2.176c0.243,12.648 7.861,18.641 19.164,22.27c14.692,5.497 -5.13,13.291 -12.609,11.895c-2.809,-1.359 -5.268,-2.88 -7.809,-4.688c-4.415,-2.644 -6.586,-1.402 -9.441,2.25c-27.492,32.955 -87.04,12.33 -57.812,-30.25c11.231,-13.462 33.215,-22.303 49.625,-13.688c8.773,0.957 0.002,-36.602 -17.543,-39.039c-14.904,-0.677 -31.306,7.552 -37.457,21.727c-6.474,11.135 -11.175,-5.758 -7.562,-12.812c31.586,-51.549 81.269,-13.869 81.381,33.01Zm-17.381,27.49c14.974,-7.295 -19.296,-30.108 -40,-7c-19.054,26.501 22.384,27.862 36.812,10.75c1.49,-1.973 1.49,-1.973 3.188,-3.75Z" style="fill:#060606;"/><path d="M177,451c0.944,0.343 1.888,0.687 2.861,1.041c1.046,0.427 2.092,0.855 3.17,1.295c1.783,0.723 1.783,0.723 3.603,1.46c0.629,0.257 1.259,0.514 1.907,0.779c3.361,1.372 6.728,2.726 10.095,4.081c0.692,0.279 1.385,0.557 2.098,0.844c7.162,2.873 14.363,5.637 21.578,8.375c1.2,0.46 2.399,0.92 3.635,1.393c5.19,1.973 10.361,3.875 15.681,5.47c0.816,0.252 1.632,0.504 2.473,0.764c1.463,0.441 2.936,0.851 4.418,1.222c5.903,1.788 4.893,5.258 3.479,10.276c-0.267,0.949 -0.535,1.899 -0.81,2.877c-0.977,3.286 -2.012,6.548 -3.065,9.81c-0.71,2.211 -1.416,4.423 -2.117,6.637c-0.521,1.632 -0.521,1.632 -1.052,3.296c-1.298,4.588 -2.087,9.244 -2.81,13.955c-2.156,4.561 -7.404,3.201 -11.728,2.28c-2.974,-0.589 -5.919,-1.069 -8.93,-1.43c-13.302,-1.673 -95.469,-34.029 -83.91,-42.113c4.563,-3.445 8.498,-7.283 12.469,-11.375c0.624,-0.64 1.247,-1.279 1.89,-1.938c2.607,-2.68 5.208,-5.365 7.79,-8.069c1.906,-1.99 3.83,-3.961 5.757,-5.93c0.58,-0.618 1.161,-1.235 1.758,-1.871c3.421,-3.464 5.075,-5.064 9.757,-3.129Z" style="fill:#8b191f;fill-rule:nonzero;"/><path d="M288.623,400.472c-0.784,3.182 -1.452,6.383 -2.087,9.597c-3.291,11.85 -12.177,9.836 -20.411,4.243c-0.741,-0.492 -1.482,-0.984 -2.246,-1.49c-7.333,-4.96 -14.137,-10.509 -20.917,-16.19c-3.242,-2.695 -6.54,-5.318 -9.838,-7.944c-1.24,-0.991 -2.479,-1.982 -3.719,-2.973c-2.079,-1.659 -4.163,-3.312 -6.25,-4.961c-2.4,-1.9 -4.781,-3.823 -7.156,-5.754c-0.861,-0.678 -1.722,-1.356 -2.609,-2.055c-0.83,-0.683 -1.66,-1.366 -2.516,-2.07c-0.745,-0.601 -1.49,-1.201 -2.258,-1.82c-8.8,-11.181 13.457,-17.891 20.82,-20.742c2.59,-1.031 5.174,-2.075 7.758,-3.121c0.652,-0.263 1.303,-0.525 1.975,-0.796c17.014,-6.896 33.656,-14.965 49.913,-23.488c0.705,-0.364 1.409,-0.728 2.135,-1.103c0.641,-0.335 1.283,-0.671 1.943,-1.016c19.576,-8.399 -1.954,71.645 -4.539,81.684Z" style="fill:#050804;fill-rule:nonzero;"/><path d="M396.937,234.438c1.336,0.92 2.672,1.839 4.008,2.758c0.676,0.47 1.352,0.939 2.048,1.423c2.476,1.705 4.986,3.353 7.501,5c9.383,6.162 18.464,12.733 27.506,19.382c1.45,1.058 1.45,1.058 2.93,2.137c10.87,8.143 16.168,15.596 8.383,28.363c-0.399,0.681 -0.799,1.362 -1.21,2.063c-4.053,6.713 -8.796,12.866 -13.645,19.015c-3.607,4.575 -7.032,9.273 -10.457,13.984c-5.945,8.135 -12.16,16.013 -18.606,23.756c-0.931,1.123 -1.854,2.253 -2.769,3.39c-13.359,16.488 -36.176,-10.446 -47.09,-20.486c-2.976,-2.609 -6.083,-5.002 -9.223,-7.41c-5.368,-4.144 -10.46,-8.519 -15.438,-13.125c-0.627,-0.575 -1.255,-1.149 -1.901,-1.741c-8.81,-8.273 -11.344,-13.636 -3.099,-23.572c0.733,-0.907 0.733,-0.907 1.481,-1.832c6.581,-8.049 13.643,-15.637 21.054,-22.926c2.283,-2.322 4.384,-4.787 6.512,-7.25c28.52,-32.487 28.52,-32.487 42.016,-22.93Zm-15.938,9.25c-4.588,5.848 -9.494,11.324 -14.559,16.762c-1.444,1.553 -2.881,3.111 -4.316,4.671c-4.844,5.264 -9.709,10.508 -14.6,15.728c-13.67,11.617 -13.67,11.617 -12.088,24.026c1.009,0.791 2.019,1.583 3.059,2.398c0.561,0.434 1.121,0.868 1.699,1.315c3.309,2.587 6.551,5.256 9.805,7.911c1.375,1.118 2.75,2.235 4.125,3.352c0.659,0.535 1.317,1.071 1.996,1.622c1.179,0.958 2.359,1.916 3.539,2.873c4.46,3.619 8.898,7.231 13.152,11.091c3.664,3.237 7.546,6.131 11.5,9c0.917,0.675 0.917,0.675 1.853,1.363c6.228,4.451 8.079,3.473 12.272,-2.301c0.434,-0.581 0.868,-1.162 1.315,-1.76c0.937,-1.256 1.87,-2.515 2.799,-3.776c1.439,-1.951 2.893,-3.89 4.351,-5.827c2.011,-2.669 4.016,-5.342 6.016,-8.02c2.057,-2.751 4.122,-5.496 6.195,-8.234c6.169,-8.159 12.211,-16.37 17.887,-24.883c0.487,-0.721 0.975,-1.441 1.477,-2.184c5.138,-8.127 0.198,-11.455 -6.289,-16.254c-0.8,-0.607 -1.599,-1.214 -2.423,-1.839c-6.724,-5.06 -13.615,-9.878 -20.543,-14.654c-5.849,-4.047 -11.492,-8.282 -16.998,-12.783c-5.367,-4.353 -6.888,-5.313 -11.224,0.401Z" style="fill:#040609;fill-rule:nonzero;"/><path d="M100.5,169.563c0.946,0.907 1.892,1.815 2.867,2.75c2.752,2.809 5.36,5.683 7.891,8.691c2.621,3.003 5.477,5.753 8.336,8.527c1.893,1.942 3.643,3.9 5.398,5.961c5.223,6.02 10.967,11.536 16.633,17.133c2.224,2.198 4.445,4.399 6.664,6.602c0.499,0.491 0.998,0.982 1.512,1.487c3.297,3.275 6.253,6.701 9.199,10.286c1.174,1.12 2.381,2.208 3.625,3.25c0.673,0.584 1.346,1.168 2.039,1.77c1.745,1.48 3.515,2.931 5.297,4.367c13.42,11.263 8.824,19.054 -7.449,19.055c-1.594,0.019 -1.594,0.019 -3.22,0.038c-2.316,0.026 -4.632,0.046 -6.948,0.06c-6.296,0.039 -12.591,0.127 -18.887,0.21c-0.99,0.012 -0.99,0.012 -1.999,0.025c-10.549,0.132 -21.09,0.386 -31.634,0.725c-1.065,0.034 -1.065,0.034 -2.152,0.069c-6.284,0.203 -12.568,0.416 -18.852,0.634c-8.606,0.298 -17.212,0.575 -25.82,0.797c-1.663,0.044 -1.663,0.044 -3.36,0.088c-3.086,0.072 -6.171,0.12 -9.257,0.158c-1.352,0.032 -1.352,0.032 -2.731,0.065c-19.199,0.111 -6.769,-17.103 -0.339,-26.312c0.823,-1.204 1.644,-2.409 2.464,-3.614c5.034,-7.368 10.229,-14.617 15.523,-21.801c4.879,-6.681 9.261,-13.653 13.66,-20.656c4.731,-7.51 9.584,-14.92 15.041,-21.929c0.909,-1.203 0.909,-1.203 1.836,-2.43c5.464,-3.965 10.53,0.01 14.664,3.992Zm-13.164,9.684c-3.171,6.553 -6.822,12.668 -10.711,18.816c-0.621,0.998 -1.243,1.997 -1.883,3.025c-4.306,6.855 -8.921,13.413 -13.742,19.912c-1.116,1.529 -2.231,3.058 -3.344,4.59c-0.521,0.716 -1.041,1.432 -1.577,2.17c-12.494,15.154 -12.494,15.154 -12.079,25.428c1.114,-0.01 1.114,-0.01 2.25,-0.02c2.869,-0.139 2.869,-0.139 6.164,-0.652c5.617,-0.731 11.26,-0.771 16.918,-0.904c12.831,-0.308 25.625,-0.887 38.43,-1.752c8.614,-0.58 17.186,-0.923 25.821,-0.965c1.755,-0.016 3.51,-0.032 5.265,-0.049c3.419,-0.031 6.834,-0.015 10.253,0.023c9.046,-0.008 13.792,-0.634 4.9,-7.869c-0.69,-0.638 -1.379,-1.276 -2.09,-1.934c-0.61,-0.496 -1.219,-0.993 -1.848,-1.504c-3.403,-2.895 -6.265,-5.991 -9.148,-9.395c-2.206,-2.499 -4.541,-4.827 -6.914,-7.168c-3.567,-3.524 -6.91,-7.138 -10.164,-10.949c-2.142,-2.393 -4.413,-4.619 -6.711,-6.863c-4.321,-4.268 -8.165,-8.766 -11.953,-13.508c-2.706,-3.339 -5.556,-6.527 -8.445,-9.707c-1.727,-1.973 -1.727,-1.973 -3.328,-4.227c-3.379,-4.22 -4.558,0.262 -6.062,3.5Z" style="fill:#040509;fill-rule:nonzero;"/><path d="M290,36c0.624,0.427 1.248,0.853 1.891,1.293c5.782,4.44 9.299,10.597 13.109,16.707c0.859,1.294 0.859,1.294 1.734,2.613c34.461,53.483 -44.402,113.89 -89.734,73.387c-1.063,-0.851 -1.063,-0.851 -2.148,-1.719c-56.891,-46.21 16.179,-132.744 75.148,-92.281Zm-32,96c36.819,-7.011 56.851,-43.542 36,-76c-0.535,-0.844 -1.07,-1.689 -1.621,-2.559c-1.359,-1.948 -2.77,-3.696 -4.379,-5.441c-0.485,-0.526 -0.969,-1.052 -1.469,-1.594c-8.058,-7.742 -18.553,-11.278 -29.531,-11.406c-0.893,-0.072 -1.787,-0.144 -2.707,-0.219c-63.506,-3.634 -62.582,102.66 3.707,97.219Z" style="fill:#080805;fill-rule:nonzero;"/><path d="M384.5,42.375c0.886,0.342 1.772,0.685 2.684,1.037c15.076,5.945 29.948,12.721 44.191,20.463c0.629,0.332 1.259,0.665 1.907,1.008c10.259,5.802 9.794,13.806 6.635,24c-0.223,0.736 -0.446,1.472 -0.675,2.23c-2.521,8.105 -5.654,15.938 -8.93,23.762c-0.304,0.733 -0.608,1.466 -0.921,2.221c-17.896,43.092 -17.896,43.092 -43.017,32.154c-1.166,-0.493 -2.333,-0.986 -3.535,-1.494c-65.838,-28.161 -65.838,-28.161 -53.59,-52.381c0.539,-1.093 1.078,-2.186 1.634,-3.312c4.981,-10.005 10.277,-19.831 15.74,-29.579c1.314,-2.372 2.587,-4.762 3.848,-7.163c9.411,-17.76 15.458,-20.185 34.027,-12.945Zm-19.473,7.144c-0.507,1.105 -0.507,1.105 -1.024,2.233c-0.331,0.742 -0.662,1.484 -1.004,2.248c-0.598,1.217 -1.202,2.431 -1.813,3.642c-0.3,0.602 -0.6,1.204 -0.909,1.825c-4.407,8.838 -8.889,17.637 -13.407,26.419c-1.202,2.337 -2.401,4.676 -3.599,7.014c-0.774,1.506 -1.548,3.012 -2.322,4.518c-0.353,0.69 -0.706,1.379 -1.07,2.09c-1.465,2.843 -2.946,5.595 -4.688,8.279c-2.818,5.24 2.152,6.709 6.177,8.62c0.658,0.321 1.317,0.643 1.995,0.974c2.166,1.052 4.339,2.087 6.513,3.12c0.739,0.355 1.477,0.709 2.238,1.075c13.129,6.299 26.412,12.325 40.083,17.365c2.803,1.061 2.803,1.061 5.582,2.371c8.437,3.57 9.818,-0.83 12.659,-8.436c0.445,-1.078 0.891,-2.157 1.35,-3.268c0.95,-2.314 1.878,-4.638 2.787,-6.968c1.434,-3.659 2.937,-7.282 4.461,-10.904c10.402,-19.742 10.402,-19.742 7.25,-37.426c-0.819,-0.464 -1.638,-0.928 -2.481,-1.406c-0.905,-0.484 -1.809,-0.967 -2.741,-1.466c-0.934,-0.515 -1.868,-1.03 -2.831,-1.561c-10.247,-5.572 -20.73,-10.659 -31.329,-15.525c-2.732,-1.271 -5.429,-2.598 -8.125,-3.941c-1.529,-0.722 -3.059,-1.443 -4.59,-2.16c-0.681,-0.355 -1.362,-0.71 -2.063,-1.075c-4.052,-1.811 -5.366,-1.569 -7.097,2.345Z" style="fill:#050804;fill-rule:nonzero;"/><path d="M273,279c-0.775,0.388 -1.549,0.776 -2.348,1.176c-64.885,30.606 -109.803,-65.23 -47.84,-97.863c1.721,-0.789 3.451,-1.559 5.188,-2.312c1.499,-0.7 1.499,-0.7 3.027,-1.414c59.38,-25.767 99.176,72.133 41.973,100.414Zm-65,-67c-0.434,0.71 -0.869,1.421 -1.316,2.152c-5.405,10.715 -4.829,27.618 1.316,37.848c0.654,1.16 0.654,1.16 1.32,2.344c29.06,47.64 102.388,2.67 73.848,-46.5c-6.82,-9.792 -14.102,-15.492 -25.168,-19.844c-1.093,-0.433 -2.186,-0.866 -3.312,-1.312c-19.744,-5.051 -37.294,9.391 -46.687,25.312Z" style="fill:#06040a;fill-rule:nonzero;"/><path d="M125.5,305.562c1.164,0.011 1.164,0.011 2.352,0.023c28.814,0.802 52.749,19.362 52.398,49.727c-0.007,0.842 -0.014,1.685 -0.021,2.552c-0.098,5.902 -0.462,11.468 -2.229,17.135c-0.245,0.802 -0.49,1.604 -0.742,2.43c-5.04,14.318 -15.42,24.776 -29.258,30.57c-0.758,0.321 -1.516,0.642 -2.297,0.973c-25.77,9.296 -56.286,-7.092 -65.703,-31.973c-0.336,-0.837 -0.673,-1.673 -1.02,-2.535c-10.394,-30.709 12.336,-69.378 46.52,-68.902Zm-20.5,18.438c-0.829,0.624 -1.658,1.248 -2.512,1.891c-41.382,33.443 11.417,95.834 52.188,65.176c7.777,-6.914 10.831,-15.172 13.324,-25.066c0.191,-0.664 0.382,-1.328 0.578,-2.012c5.83,-27.475 -16.206,-44.501 -40.578,-47.988c-0.877,-0.133 -1.753,-0.266 -2.656,-0.402c-8.636,-0.707 -13.773,3.189 -20.344,8.402Z" style="fill:#0a0404;fill-rule:nonzero;"/><path d="M390.457,480.301c-57.298,11.589 -88.71,-68.88 -34.457,-95.301c0.954,-0.486 1.908,-0.972 2.891,-1.473c61.638,-27.799 97.543,76.701 31.566,96.773Zm-15.457,-89.301c-1.666,0.051 -3.333,0.091 -5,0.125c-48.347,4.157 -35.968,81.81 12.994,78.129c51.054,-6.475 32.051,-91.603 -7.994,-78.254Z" style="fill:#090605;fill-rule:nonzero;"/><path d="M469.312,156.375c1.627,0.661 1.627,0.661 3.288,1.335c3.471,1.419 6.936,2.853 10.4,4.29c1.176,0.485 2.352,0.969 3.563,1.468c3.446,1.429 6.88,2.882 10.312,4.344c1.069,0.443 2.138,0.887 3.24,1.343c0.991,0.429 1.982,0.859 3.003,1.301c0.873,0.371 1.745,0.742 2.644,1.124c4.035,2.557 5.497,6.642 6.926,11.044c0.251,0.755 0.503,1.511 0.762,2.289c1.274,4.825 0.345,5.557 -3.961,7.504c-0.975,0.446 -1.95,0.891 -2.955,1.35c-1.063,0.468 -2.126,0.937 -3.221,1.419c-1.085,0.488 -2.171,0.977 -3.289,1.48c-7.754,3.445 -15.6,6.546 -23.559,9.477c-6.355,2.362 -12.444,5.096 -18.542,8.05c-22.715,10.954 -21.373,5.604 -16.028,-16.196c2.297,-9.508 4.179,-19.094 6.05,-28.693c0.468,-2.391 0.944,-4.78 1.432,-7.167c0.385,-1.937 0.736,-3.882 1.032,-5.835c1.762,-10.123 12.344,-2.604 18.904,0.072Z" style="fill:#f565aa;fill-rule:nonzero;"/><path d="M442,701c0.255,0.942 0.51,1.885 0.773,2.855c3.078,12.999 3.31,26.406 4.083,39.694c0.444,7.603 0.908,15.205 1.395,22.806c0.183,2.909 0.351,5.819 0.52,8.73c0.116,1.822 0.232,3.644 0.35,5.466c0.044,0.821 0.088,1.642 0.133,2.487c0.618,9.065 2.536,22.767 14.621,16.462c16.329,-7.838 15.281,9.517 3.125,16.5c-26.75,8.917 -32.904,-17.567 -33.816,-37.898c-0.061,-1.23 -0.123,-2.459 -0.186,-3.726c-0.194,-3.917 -0.377,-7.834 -0.56,-11.751c-0.126,-2.592 -0.253,-5.185 -0.381,-7.777c-0.452,-9.219 -0.901,-18.439 -1.323,-27.66c-0.08,-1.684 -0.161,-3.367 -0.242,-5.051c-0.047,-1.09 -0.047,-1.09 -0.094,-2.203c-0.497,-10.087 -1.828,-32.719 -17.398,-24.934c-17.198,0.921 19.621,-32.138 29,6Z" style="fill:#070707;fill-rule:nonzero;"/><path d="M290.34,342.707c-0.185,0.869 -0.37,1.739 -0.561,2.634c-0.605,2.826 -1.223,5.648 -1.841,8.471c-0.417,1.928 -0.833,3.855 -1.25,5.783c-2.344,10.756 -4.794,21.45 -7.922,32.01c-0.222,0.752 -0.443,1.504 -0.672,2.278c-0.202,0.681 -0.405,1.362 -0.613,2.063c-0.528,2.258 -0.678,4.421 -0.824,6.733c-1.599,8.09 -19.294,-8.754 -23.672,-12.281c-15.282,-12.338 -15.282,-12.338 -31.773,-22.945c-5.126,-3.369 -0.061,-4.522 3.508,-5.887c1.243,-0.483 2.486,-0.966 3.729,-1.45c0.991,-0.379 0.991,-0.379 2.001,-0.767c3.459,-1.328 6.903,-2.691 10.347,-4.057c0.697,-0.276 1.394,-0.552 2.111,-0.837c14.767,-5.889 29.219,-12.474 42.827,-20.724c8.731,-5.155 5.993,2.65 4.604,8.975Z" style="fill:#72ca3b;fill-rule:nonzero;"/></svg>